<svg width="208" height="208" viewBox="0 0 208 208" fill="none" xmlns="http://www.w3.org/2000/svg">
<rect x="27.8131" y="48.1239" width="133.345" height="133.345" rx="66.6726" transform="rotate(-8.76128 27.8131 48.1239)" fill="#FFC84D" stroke="#FF0000" stroke-width="6"/>
<path d="M88.0662 115.237C89.1764 116.919 89.6077 119.159 89.3383 121.157C89.0163 122.924 88.1053 124.584 87.0125 125.801C85.9197 127.019 84.6627 127.871 83.3531 128.492C82.0435 129.114 80.7405 129.412 79.4376 129.71C79.131 129.78 78.8069 129.773 78.5003 129.843C78.1937 129.913 77.8696 129.907 77.563 129.977C76.9148 129.964 76.2841 130.027 75.6359 130.014C75.6359 130.014 75.5593 130.032 75.4826 130.049C75.0052 130.078 74.7534 129.329 74.679 128.297C73.0303 122.141 71.7297 115.745 70.3876 109.519C69.0388 103.617 67.6901 97.7153 66.418 91.7961C66.4005 91.7194 66.4005 91.7194 66.383 91.6428C66.2954 91.2595 66.4728 90.977 66.8801 90.642C66.9984 90.4537 67.1933 90.2478 67.4999 90.1778C67.8656 90.0136 68.3255 89.9085 68.7678 89.7267C69.1511 89.6391 69.5934 89.4574 69.9767 89.3698C70.4365 89.2647 70.8964 89.1596 71.3563 89.0545L72.6943 88.91C74.5689 88.643 76.6076 88.7416 78.6924 89.3942L79.1106 89.46C79.2048 89.5191 79.3756 89.5607 79.4697 89.6198L80.2647 89.9221C80.5296 90.0228 80.7355 90.2177 81.0004 90.3185C81.2829 90.4958 81.4713 90.6141 81.7537 90.7915C81.9421 90.9098 82.1479 91.1047 82.4304 91.2821C82.6362 91.477 82.9012 91.5777 83.0479 91.8668C83.4596 92.2566 83.8713 92.6464 84.2238 93.1304C84.4297 93.3253 84.5589 93.5377 84.7647 93.7326L85.1873 94.5232L85.4282 94.8714L85.5924 95.2371L85.9209 95.9685C85.9734 96.1985 86.1201 96.4875 86.1727 96.7175C86.2427 97.024 86.3719 97.2365 86.4245 97.4664L86.5996 98.2329L86.6872 98.6161C86.7223 98.7694 86.6631 98.8636 86.6982 99.0168C86.9653 100.891 86.8907 102.683 86.5512 104.373C86.2293 106.14 85.6248 107.73 84.9262 109.261C84.4882 110.168 84.0326 110.998 83.4829 111.768C83.5771 111.827 83.6537 111.81 83.7479 111.869L84.107 112.029C84.2954 112.147 84.4662 112.189 84.7311 112.29C84.9195 112.408 85.1078 112.526 85.3728 112.627C85.5786 112.822 85.7669 112.94 85.9553 113.058C86.1436 113.177 86.3494 113.371 86.5377 113.49C86.6494 113.625 86.7436 113.685 86.8377 113.744L87.0611 114.015C87.2669 114.21 87.3961 114.423 87.602 114.618C87.7312 114.83 87.937 115.025 88.0662 115.237ZM76.7387 96.3733L76.5679 96.3317C76.0555 96.2068 75.3898 96.117 74.7416 96.1039C75.6349 100.013 76.5282 103.922 77.439 107.907C77.7938 107.342 78.1311 106.701 78.4092 106.153C79.4035 104.152 79.8503 101.872 79.6007 100.074C79.5832 99.9976 79.5657 99.921 79.5482 99.8443L79.5132 99.6911L79.4256 99.3078C79.4081 99.2312 79.373 99.0779 79.3555 99.0012C79.2614 98.9421 79.2263 98.7888 79.2088 98.7122C79.1738 98.5589 79.0796 98.4997 79.0621 98.4231L79.0271 98.2698L78.9154 98.134C78.8979 98.0574 78.7862 97.9216 78.7687 97.845C78.6745 97.7858 78.657 97.7092 78.5628 97.6501C78.322 97.3019 78.0395 97.1245 77.7395 96.8704C77.6453 96.8113 77.5511 96.7522 77.457 96.693C77.3628 96.6339 77.2687 96.5748 77.192 96.5923C77.0979 96.5332 77.0037 96.474 76.9095 96.4149C76.8329 96.4324 76.7562 96.4499 76.7387 96.3733ZM82.2103 119.963C82.1753 119.81 82.2344 119.715 82.1227 119.58C82.1994 119.562 82.1052 119.503 82.0877 119.426L82.0702 119.35L81.976 119.291L81.9585 119.214C81.941 119.137 81.8643 119.155 81.8643 119.155L81.8468 119.078C81.8468 119.078 81.8468 119.078 81.7702 119.096C81.7527 119.019 81.7527 119.019 81.6585 118.96C81.6585 118.96 81.5819 118.977 81.5643 118.901L81.4702 118.842C81.3935 118.859 81.376 118.782 81.2994 118.8L81.2052 118.741L81.1286 118.758C80.7694 118.598 80.3512 118.533 79.8738 118.561C80.119 119.634 80.2876 120.725 80.5328 121.798C81.0343 121.522 81.365 121.204 81.6365 120.981C81.9497 120.587 82.1096 120.228 82.2103 119.963ZM106.737 119.439C106.577 119.798 106.417 120.157 106.24 120.439C105.903 121.081 105.565 121.723 105.176 122.134C104.727 122.64 104.26 123.069 103.776 123.422C103.275 123.698 102.773 123.974 102.16 124.114C101.853 124.184 101.547 124.254 101.24 124.324C100.916 124.317 100.592 124.311 100.268 124.304C99.184 124.149 98.2007 123.728 97.3182 123.043C96.4182 122.281 95.6956 121.236 95.0146 120.021C94.8504 119.655 94.7037 119.366 94.557 119.077C94.3927 118.711 94.246 118.422 94.1584 118.039L93.9592 117.52C93.8475 117.384 93.795 117.154 93.795 117.154L93.5782 116.558C93.3264 115.809 93.0746 115.061 92.8228 114.312C91.9097 111.375 91.2616 108.539 90.596 105.626C89.2057 99.8955 88.0628 94.1886 86.9199 88.4818C86.9023 88.4051 86.8673 88.2519 86.8323 88.0986C86.1908 84.9385 93.2773 83.4804 94.0239 87.1003C95.1492 92.7305 96.2921 98.4373 97.5708 104.032C98.2014 106.792 98.9261 109.61 99.7691 112.24C99.9093 112.853 100.144 113.526 100.36 114.121L100.577 114.717C100.654 114.699 100.654 114.699 100.654 114.699L100.636 114.623C100.803 113.94 100.952 113.18 101.041 112.514C101.425 109.604 101.602 106.498 101.703 103.411C101.887 97.1586 101.747 90.9 101.684 84.6238C101.673 84.2231 101.68 83.8989 101.84 83.5398C101.752 83.1566 101.929 82.8741 102.337 82.5391C103.158 81.5449 104.597 81.1354 105.928 81.3151C107.343 81.1531 108.674 81.3327 108.867 82.1758C110.216 88.0776 111.547 93.9027 112.896 99.8044C114.29 106.26 115.933 112.74 117.156 119.154C117.664 121.377 110.595 122.912 110.258 120.731C109.586 118.142 108.896 115.477 108.36 112.777C108.259 113.042 108.235 113.289 108.229 113.614C108.097 114.45 107.966 115.287 107.758 116.141L107.633 116.653C107.532 116.918 107.49 117.089 107.449 117.26C107.366 117.601 107.3 118.02 107.14 118.379L106.939 118.909C106.897 119.079 106.779 119.268 106.737 119.439ZM130.57 117.541C130.217 119.879 123.089 118.686 123.613 116.388C124.141 111.993 124.804 107.487 125.468 102.98C122.805 99.798 120.397 96.316 117.946 93.0048C115.496 89.6936 113.105 86.2883 110.713 82.8829L110.696 82.8063C109.991 81.8383 115.987 77.726 116.709 78.7706C119.007 82.1168 121.38 85.4455 123.831 88.7567C124.777 90.0728 125.799 91.3714 126.745 92.6876C127.404 87.456 127.97 82.1653 128.382 76.9096C128.441 76.8155 128.423 76.7388 128.423 76.7388C128.574 74.93 135.792 75.458 135.617 77.5143C135.067 83.9306 134.346 90.3053 133.549 96.6975C132.703 103.585 131.91 110.702 130.57 117.541Z" fill="black"/>
<rect x="3.42195" y="30.247" width="176.112" height="176.112" rx="88.0561" transform="rotate(-8.76128 3.42195 30.247)" stroke="#FF0000" stroke-width="6"/>
</svg>
