<svg width="24" height="27" viewBox="0 0 24 27" fill="none" xmlns="http://www.w3.org/2000/svg">
<path d="M8.20175 2.36314C10.8587 0.458433 13.8771 0.328543 15.0542 0.501687L13.9669 7.89378C13.0509 7.75905 12.5538 8.1168 12.4198 8.31253C8.35888 5.91155 6.66863 2.20595 6.33112 0.653269C6.73522 1.36858 7.74658 2.09123 8.20175 2.36314Z" fill="black"/>
<path d="M20.9269 4.23496C18.931 1.64583 16.0778 0.652256 14.9008 0.479113L13.8134 7.87121C14.7294 8.00595 15.1024 8.49169 15.1744 8.71772C19.7547 7.58782 22.4404 4.5259 23.2107 3.13618C22.6177 3.70483 21.4411 4.10564 20.9269 4.23496Z" fill="black"/>
<path d="M8.86871 7.2077C9.45376 7.78122 10.7799 9.00844 11.4041 9.32916C10.0972 9.5237 7.7603 9.37176 8.86871 7.2077Z" fill="black"/>
<path d="M7.83933 6.03898C7.47086 5.67958 6.89627 4.61802 6.65503 4.13216C5.29621 5.10626 4.83373 7.35236 4.77235 8.35365C3.67424 15.8189 1.71656 19.0939 0.874992 19.7982L4.26742 17.9902L5.85333 21.5996L8.56074 19.9305L11.2253 26.0661L11.4978 24.2136L10.9028 20.275C10.5513 16.1296 7.91087 13.9195 6.63462 13.3327L9.69878 12.1938L9.98539 10.9167C6.15774 10.3536 6.95983 7.43028 7.83933 6.03898Z" fill="black"/>
<path d="M18.8922 8.68212C18.1668 9.06288 16.5435 9.85624 15.8533 9.98362C17.0489 10.5463 19.3305 11.0737 18.8922 8.68212Z" fill="black"/>
<path d="M20.2146 7.85932C20.6709 7.62126 21.5269 6.77012 21.8978 6.37431C22.9185 7.69843 22.7146 9.98257 22.4851 10.9591C21.387 18.4244 22.3187 22.1244 22.9218 23.0412L20.1937 20.3328L17.6356 23.3327L15.5235 20.9547L11.2049 26.0631L11.4774 24.2106L13.1814 20.6102C14.7118 16.7416 17.8768 15.3854 19.268 15.191L16.6615 13.218L16.7548 11.9124C20.5825 12.4754 20.6562 9.44495 20.2146 7.85932Z" fill="black"/>
<path d="M11.4487 11.5275C11.6658 10.0517 13.0755 9.51694 13.7532 9.43402L12.2387 19.73C12.635 17.0359 10.656 14.6542 9.61693 13.8001L11.2121 13.1362L11.4487 11.5275Z" fill="black"/>
<path d="M15.3534 12.1019C15.5705 10.6261 14.3745 9.70802 13.7493 9.43344L12.2349 19.7294C12.6311 17.0353 15.2122 15.3244 16.4532 14.8057L15.1168 13.7106L15.3534 12.1019Z" fill="black"/>
</svg>
