<svg width="26" height="21" viewBox="0 0 26 21" fill="none" xmlns="http://www.w3.org/2000/svg">
<path fill-rule="evenodd" clip-rule="evenodd" d="M23.6203 0.147296C23.9397 0.0602015 24.2783 0.0573204 24.6008 0.138951C24.9233 0.220582 25.218 0.383741 25.4542 0.611446C25.6905 0.83915 25.8595 1.12308 25.9438 1.43367C26.0282 1.74427 26.0247 2.07018 25.9337 2.37748L21.1979 18.3563C20.7396 19.8974 18.8369 20.5863 17.4294 19.6241C16.2521 18.8192 14.5078 17.5874 12.9561 16.334C12.1803 15.7066 9.81264 13.7117 10.2712 12.547C10.6647 11.5512 15.4398 8.2014 18.179 6.19794C19.2542 5.41072 18.8747 4.83773 17.6329 5.53181C14.5494 7.25504 9.61933 9.84696 8.00762 10.55C6.58588 11.1697 5.8771 11.2201 5.06425 10.9888C3.58123 10.5672 2.22375 10.0259 1.13372 9.43335C-0.339279 8.63297 -0.0210478 6.59781 1.51956 6.17735L23.6203 0.147296Z" fill="black"/>
</svg>
