<svg width="39" height="28" viewBox="0 0 39 28" fill="none" xmlns="http://www.w3.org/2000/svg">
<path d="M12.0676 15.344C11.1176 13.832 10.5588 12.04 10.5588 10.08C10.5588 6.776 11.9559 3.976 14.1912 2.296C13.3529 0.896 11.9559 0 10 0C6.75882 0 4.97059 2.576 4.97059 5.6C4.97059 7.224 5.52941 8.568 6.59118 9.576C7.20588 10.136 7.70882 10.864 7.70882 11.648C7.70882 12.432 7.42941 13.104 5.58529 13.888C2.95882 15.064 0.555882 16.576 0.5 19.04C0.5 20.664 1.56176 21.84 3.07059 21.84H5.47353C5.86471 21.84 6.25588 21.616 6.42353 21.28C7.59706 19.152 9.77647 17.808 11.6206 16.912C12.2353 16.632 12.4588 15.904 12.0676 15.344Z" fill="#5451FF"/>
<path d="M33.4147 13.888C31.5706 13.104 31.2912 12.376 31.2912 11.648C31.2912 10.864 31.7941 10.136 32.4088 9.576C33.4706 8.568 34.0294 7.224 34.0294 5.6C34.0294 2.576 32.2412 0 29 0C27.0441 0 25.6471 0.896 24.8088 2.296C27.0441 3.976 28.4412 6.72 28.4412 10.08C28.4412 12.04 27.9382 13.832 26.9324 15.344C26.5412 15.904 26.7647 16.632 27.3794 16.968C29.2235 17.864 31.4029 19.208 32.5765 21.336C32.7441 21.672 33.1353 21.896 33.5265 21.896H35.9294C37.4382 21.896 38.5 20.72 38.5 19.096C38.4441 16.632 36.0412 15.064 33.4147 13.888Z" fill="#5451FF"/>
<path d="M24.3618 19.264C22.35 18.424 22.0706 17.64 22.0706 16.8C22.0706 15.96 22.6294 15.12 23.3 14.504C24.4735 13.44 25.1441 11.872 25.1441 10.08C25.1441 6.776 23.1324 3.92 19.5559 3.92C15.9794 3.92 13.9676 6.776 13.9676 10.08C13.9676 11.872 14.6382 13.384 15.8118 14.504C16.4824 15.12 17.0412 15.96 17.0412 16.8C17.0412 17.64 16.7059 18.424 14.75 19.264C11.7324 20.496 8.93824 21.952 8.88235 24.64C8.88235 26.432 10.1676 28 11.8441 28H27.1559C28.8324 28 30.1176 26.432 30.1176 24.64C30.0618 21.952 27.2676 20.496 24.3618 19.264Z" fill="#5451FF"/>
</svg>
