<svg width="33" height="34" viewBox="0 0 33 34" fill="none" xmlns="http://www.w3.org/2000/svg">
<path fill-rule="evenodd" clip-rule="evenodd" d="M27.8047 0.956379C30.1176 -0.3479 33 1.29871 33 3.9278V25.4159C33 28.0433 30.1193 29.6916 27.8047 28.3873L20.8453 24.4676V4.87606L27.8047 0.956379ZM17.3726 6.11358H8.69065C6.53762 6.11145 4.4606 6.898 2.86278 8.32054C1.26496 9.74308 0.260351 11.7001 0.0439745 13.8117C-0.172402 15.9234 0.414891 18.0389 1.69184 19.7477C2.96879 21.4565 4.8443 22.6366 6.95427 23.0589V29.2209C6.95427 30.3558 7.41162 31.4442 8.22571 32.2467C9.03979 33.0492 10.1439 33.5 11.2952 33.5C12.4465 33.5 13.5507 33.0492 14.3647 32.2467C15.1788 31.4442 15.6362 30.3558 15.6362 29.2209V23.2301H17.3726V6.11358Z" fill="#5451FF"/>
</svg>
