<svg width="42" height="41" viewBox="0 0 42 41" fill="none" xmlns="http://www.w3.org/2000/svg">
<path fill-rule="evenodd" clip-rule="evenodd" d="M24.4167 11.9583H36.375C39.2055 11.9583 41.5 14.2529 41.5 17.0833V35.875C41.5 38.7055 39.2055 41 36.375 41H22.7083C19.8778 41 17.5833 38.7055 17.5833 35.875V29.0417H5.625C2.79455 29.0417 0.5 26.7472 0.5 23.9167V5.125C0.5 2.29455 2.79455 0 5.625 0H19.2917C22.1222 0 24.4167 2.29455 24.4167 5.125V11.9583ZM24.4167 15.375V18.7917H27.8333C27.8333 17.8482 28.5982 17.0833 29.5417 17.0833C30.4852 17.0833 31.25 17.8482 31.25 18.7917H32.9231C32.9454 18.7912 32.9676 18.7912 32.9899 18.7917H34.6667C35.6102 18.7917 36.375 19.5565 36.375 20.5C36.375 21.4435 35.6102 22.2083 34.6667 22.2083H34.3224C33.6828 24.7293 32.7074 27.0356 31.3997 29.1213C32.5965 30.4618 34.0002 31.6691 35.6145 32.7452C36.3994 33.2686 36.6116 34.3293 36.0883 35.1143C35.5649 35.8993 34.5042 36.1114 33.7192 35.5882C32.0755 34.4923 30.6125 33.2689 29.3321 31.9195C28.1974 33.2343 26.9002 34.4395 25.4417 35.5333C24.6869 36.0995 23.6161 35.9464 23.05 35.1917C22.4839 34.4369 22.6369 33.3661 23.3917 32.8C24.8227 31.7267 26.0695 30.5356 27.1336 29.2236C26.507 28.3233 25.946 27.3783 25.4514 26.389C25.0294 25.5451 25.3715 24.519 26.2154 24.0971C27.0593 23.6751 28.0855 24.0171 28.5073 24.861C28.7215 25.2893 28.9502 25.7079 29.1935 26.1167C29.8437 24.8966 30.3724 23.5943 30.7807 22.2083H24.4167V23.9167C24.4167 26.1481 22.9906 28.0466 21 28.7501V35.875C21 36.8185 21.7648 37.5833 22.7083 37.5833H36.375C37.3185 37.5833 38.0833 36.8185 38.0833 35.875V17.0833C38.0833 16.1398 37.3185 15.375 36.375 15.375H24.4167ZM11.1271 16.2292L12.4583 12.2356L13.7895 16.2292H11.1271ZM9.98824 19.6458H14.9284L15.9627 22.7485C16.261 23.6437 17.2285 24.1273 18.1235 23.829C19.0187 23.5306 19.5023 22.5632 19.204 21.6682L14.079 6.29311C13.5598 4.73564 11.3568 4.73564 10.8377 6.29311L5.71267 21.6682C5.41431 22.5632 5.89804 23.5306 6.79311 23.829C7.68819 24.1273 8.65565 23.6437 8.954 22.7485L9.98824 19.6458Z" fill="#5451FF"/>
</svg>
