<svg width="39" height="39" viewBox="0 0 39 39" fill="none" xmlns="http://www.w3.org/2000/svg">
<g clip-path="url(#clip0_1_88)">
<mask id="mask0_1_88" style="mask-type:luminance" maskUnits="userSpaceOnUse" x="0" y="5" width="39" height="29">
<path d="M36.2143 5.57141H2.78571C1.24721 5.57141 0 6.81862 0 8.35713V30.6428C0 32.1813 1.24721 33.4286 2.78571 33.4286H36.2143C37.7528 33.4286 39 32.1813 39 30.6428V8.35713C39 6.81862 37.7528 5.57141 36.2143 5.57141Z" fill="white"/>
</mask>
<g mask="url(#mask0_1_88)">
<path d="M36.2143 5.57141H2.78571C1.24721 5.57141 0 6.81862 0 8.35713V30.6428C0 32.1813 1.24721 33.4286 2.78571 33.4286H36.2143C37.7528 33.4286 39 32.1813 39 30.6428V8.35713C39 6.81862 37.7528 5.57141 36.2143 5.57141Z" fill="white"/>
<mask id="mask1_1_88" style="mask-type:alpha" maskUnits="userSpaceOnUse" x="0" y="5" width="39" height="29">
<path d="M36.2143 5.57141H2.78571C1.24721 5.57141 0 6.81862 0 8.35713V30.6428C0 32.1813 1.24721 33.4286 2.78571 33.4286H36.2143C37.7528 33.4286 39 32.1813 39 30.6428V8.35713C39 6.81862 37.7528 5.57141 36.2143 5.57141Z" fill="white"/>
</mask>
<g mask="url(#mask1_1_88)">
<path fill-rule="evenodd" clip-rule="evenodd" d="M39 5.57141H0V7.42855H39V5.57141ZM39 9.2857H0V11.1428H39V9.2857ZM0 13H39V14.8571H0V13ZM39 16.7143H0V18.5714H39V16.7143ZM0 20.4286H39V22.2857H0V20.4286ZM39 24.1428H0V26H39V24.1428ZM0 27.8571H39V29.7142H0V27.8571ZM39 31.5715H0V33.4286H39V31.5715Z" fill="#D02F44"/>
<path d="M16.7143 5.57141H0V18.5714H16.7143V5.57141Z" fill="#46467F"/>
<g filter="url(#filter0_d_1_88)">
<path fill-rule="evenodd" clip-rule="evenodd" d="M3.71433 8.35709C3.71433 8.86993 3.29859 9.28567 2.78575 9.28567C2.27292 9.28567 1.85718 8.86993 1.85718 8.35709C1.85718 7.84427 2.27292 7.42853 2.78575 7.42853C3.29859 7.42853 3.71433 7.84427 3.71433 8.35709ZM7.42861 8.35709C7.42861 8.86993 7.01288 9.28567 6.50004 9.28567C5.98721 9.28567 5.57147 8.86993 5.57147 8.35709C5.57147 7.84427 5.98721 7.42853 6.50004 7.42853C7.01288 7.42853 7.42861 7.84427 7.42861 8.35709ZM10.2143 9.28567C10.7272 9.28567 11.1429 8.86993 11.1429 8.35709C11.1429 7.84427 10.7272 7.42853 10.2143 7.42853C9.70148 7.42853 9.28576 7.84427 9.28576 8.35709C9.28576 8.86993 9.70148 9.28567 10.2143 9.28567ZM14.8571 8.35709C14.8571 8.86993 14.4415 9.28567 13.9286 9.28567C13.4158 9.28567 13 8.86993 13 8.35709C13 7.84427 13.4158 7.42853 13.9286 7.42853C14.4415 7.42853 14.8571 7.84427 14.8571 8.35709ZM4.64289 11.1428C5.15573 11.1428 5.57147 10.7271 5.57147 10.2142C5.57147 9.70141 5.15573 9.28567 4.64289 9.28567C4.13006 9.28567 3.71433 9.70141 3.71433 10.2142C3.71433 10.7271 4.13006 11.1428 4.64289 11.1428ZM9.28576 10.2142C9.28576 10.7271 8.87002 11.1428 8.35718 11.1428C7.84435 11.1428 7.42861 10.7271 7.42861 10.2142C7.42861 9.70141 7.84435 9.28567 8.35718 9.28567C8.87002 9.28567 9.28576 9.70141 9.28576 10.2142ZM12.0715 11.1428C12.5843 11.1428 13 10.7271 13 10.2142C13 9.70141 12.5843 9.28567 12.0715 9.28567C11.5586 9.28567 11.1429 9.70141 11.1429 10.2142C11.1429 10.7271 11.5586 11.1428 12.0715 11.1428ZM14.8571 12.0714C14.8571 12.5842 14.4415 13 13.9286 13C13.4158 13 13 12.5842 13 12.0714C13 11.5585 13.4158 11.1428 13.9286 11.1428C14.4415 11.1428 14.8571 11.5585 14.8571 12.0714ZM10.2143 13C10.7272 13 11.1429 12.5842 11.1429 12.0714C11.1429 11.5585 10.7272 11.1428 10.2143 11.1428C9.70148 11.1428 9.28576 11.5585 9.28576 12.0714C9.28576 12.5842 9.70148 13 10.2143 13ZM7.42861 12.0714C7.42861 12.5842 7.01288 13 6.50004 13C5.98721 13 5.57147 12.5842 5.57147 12.0714C5.57147 11.5585 5.98721 11.1428 6.50004 11.1428C7.01288 11.1428 7.42861 11.5585 7.42861 12.0714ZM2.78575 13C3.29859 13 3.71433 12.5842 3.71433 12.0714C3.71433 11.5585 3.29859 11.1428 2.78575 11.1428C2.27292 11.1428 1.85718 11.5585 1.85718 12.0714C1.85718 12.5842 2.27292 13 2.78575 13ZM5.57147 13.9285C5.57147 14.4414 5.15573 14.8571 4.64289 14.8571C4.13006 14.8571 3.71433 14.4414 3.71433 13.9285C3.71433 13.4157 4.13006 13 4.64289 13C5.15573 13 5.57147 13.4157 5.57147 13.9285ZM8.35718 14.8571C8.87002 14.8571 9.28576 14.4414 9.28576 13.9285C9.28576 13.4157 8.87002 13 8.35718 13C7.84435 13 7.42861 13.4157 7.42861 13.9285C7.42861 14.4414 7.84435 14.8571 8.35718 14.8571ZM13 13.9285C13 14.4414 12.5843 14.8571 12.0715 14.8571C11.5586 14.8571 11.1429 14.4414 11.1429 13.9285C11.1429 13.4157 11.5586 13 12.0715 13C12.5843 13 13 13.4157 13 13.9285ZM13.9286 16.7142C14.4415 16.7142 14.8571 16.2985 14.8571 15.7857C14.8571 15.2728 14.4415 14.8571 13.9286 14.8571C13.4158 14.8571 13 15.2728 13 15.7857C13 16.2985 13.4158 16.7142 13.9286 16.7142ZM11.1429 15.7857C11.1429 16.2985 10.7272 16.7142 10.2143 16.7142C9.70148 16.7142 9.28576 16.2985 9.28576 15.7857C9.28576 15.2728 9.70148 14.8571 10.2143 14.8571C10.7272 14.8571 11.1429 15.2728 11.1429 15.7857ZM6.50004 16.7142C7.01288 16.7142 7.42861 16.2985 7.42861 15.7857C7.42861 15.2728 7.01288 14.8571 6.50004 14.8571C5.98721 14.8571 5.57147 15.2728 5.57147 15.7857C5.57147 16.2985 5.98721 16.7142 6.50004 16.7142ZM3.71433 15.7857C3.71433 16.2985 3.29859 16.7142 2.78575 16.7142C2.27292 16.7142 1.85718 16.2985 1.85718 15.7857C1.85718 15.2728 2.27292 14.8571 2.78575 14.8571C3.29859 14.8571 3.71433 15.2728 3.71433 15.7857Z" fill="url(#paint0_linear_1_88)"/>
</g>
</g>
</g>
</g>
<defs>
<filter id="filter0_d_1_88" x="1.85718" y="7.42853" width="13" height="11.4286" filterUnits="userSpaceOnUse" color-interpolation-filters="sRGB">
<feFlood flood-opacity="0" result="BackgroundImageFix"/>
<feColorMatrix in="SourceAlpha" type="matrix" values="0 0 0 0 0 0 0 0 0 0 0 0 0 0 0 0 0 0 127 0" result="hardAlpha"/>
<feOffset dy="2.14286"/>
<feColorMatrix type="matrix" values="0 0 0 0 0 0 0 0 0 0 0 0 0 0 0 0 0 0 0.06 0"/>
<feBlend mode="normal" in2="BackgroundImageFix" result="effect1_dropShadow_1_88"/>
<feBlend mode="normal" in="SourceGraphic" in2="effect1_dropShadow_1_88" result="shape"/>
</filter>
<linearGradient id="paint0_linear_1_88" x1="1.85718" y1="7.42853" x2="1.85718" y2="16.7142" gradientUnits="userSpaceOnUse">
<stop stop-color="white"/>
<stop offset="1" stop-color="#F0F0F0"/>
</linearGradient>
<clipPath id="clip0_1_88">
<rect width="39" height="39" fill="white"/>
</clipPath>
</defs>
</svg>
