<svg width="40" height="39" viewBox="0 0 40 39" fill="none" xmlns="http://www.w3.org/2000/svg">
<g clip-path="url(#clip0_1_104)">
<path d="M39.5 29.25C39.5 30.3993 39.0435 31.5015 38.2308 32.3141C37.4181 33.1268 36.3159 33.5834 35.1667 33.5834H4.83333C3.68406 33.5834 2.58186 33.1268 1.7692 32.3141C0.956546 31.5015 0.5 30.3993 0.5 29.25V9.75002C0.5 8.60075 0.956546 7.49855 1.7692 6.68589C2.58186 5.87323 3.68406 5.41669 4.83333 5.41669H35.1667C36.3159 5.41669 37.4181 5.87323 38.2308 6.68589C39.0435 7.49855 39.5 8.60075 39.5 9.75002V29.25Z" fill="#DE2910"/>
<path d="M12.564 9.72506L13.3613 10.1107L13.9994 9.49756L13.8791 10.3751L14.6591 10.7932L13.7881 10.9492L13.6321 11.8202L13.214 11.0402L12.3365 11.1605L12.9496 10.5224L12.564 9.72506ZM17.6177 12.9111L17.232 13.7074L17.8452 14.3466L16.9688 14.2252L16.5506 15.0063L16.3946 14.1342L15.5225 13.9782L16.3036 13.5601L16.1823 12.6836L16.8215 13.2968L17.6177 12.9111ZM16.581 17.0051L16.8713 17.8414L17.7564 17.8598L17.0511 18.3939L17.3079 19.2421L16.581 18.7362L15.854 19.2421L16.1097 18.3939L15.4045 17.8598L16.2895 17.8414L16.581 17.0051ZM12.564 20.5584L13.3613 20.9441L13.9994 20.3309L13.8791 21.2084L14.6591 21.6266L13.7881 21.7826L13.6321 22.6536L13.214 21.8736L12.3365 21.9938L12.9496 21.3557L12.564 20.5584ZM8.0833 11.8636L9.08971 14.7571L12.1512 14.82L9.71046 16.6703L10.5977 19.6018L8.0833 17.8522L5.56888 19.6018L6.45613 16.6703L4.01538 14.82L7.07688 14.7571L8.0833 11.8636Z" fill="#FFDE02"/>
</g>
<defs>
<clipPath id="clip0_1_104">
<rect width="39" height="39" fill="white" transform="translate(0.5)"/>
</clipPath>
</defs>
</svg>
