<svg width="207" height="153" viewBox="0 0 207 153" fill="none" xmlns="http://www.w3.org/2000/svg">
<path d="M204.513 13.2705C202.35 12.2458 201.43 14.2952 200.089 15.3269C199.674 15.6357 199.267 16.148 198.958 16.4568C195.769 19.8467 192.068 22.1136 187.131 21.8048C180.031 21.3907 173.963 23.6576 168.513 29.1038C167.382 22.3171 163.576 18.3096 157.817 15.741C154.832 14.4075 151.749 13.067 149.586 10.1895C148.146 8.13312 147.732 5.76796 147.015 3.50807C146.503 2.17459 146.088 0.735841 144.445 0.525292C142.696 0.216488 142.078 1.65524 141.362 2.89046C138.686 7.82432 137.66 13.2705 137.759 18.7237C137.962 31.0619 143.209 40.9296 153.603 47.9198C154.839 48.741 155.043 49.5621 154.734 50.6921C154.01 53.0572 153.188 55.4224 152.472 57.8858C151.959 59.4298 151.236 59.7386 149.593 59.121C143.932 56.7559 138.995 53.2607 134.676 48.9445C127.266 41.849 120.58 33.9394 112.356 27.7703C110.404 26.3316 108.444 24.9981 106.387 23.6576C97.952 15.4321 107.517 8.65248 109.681 7.82432C111.942 7.00318 110.502 4.12568 102.995 4.12568C95.4869 4.12568 88.5902 6.69437 79.8535 9.98595C78.5192 10.4983 77.2831 10.8071 75.8434 11.1159C67.9213 9.57187 59.6903 9.26307 51.0519 10.2948C34.8005 12.1476 21.8359 19.7484 12.3759 32.9077C0.949313 48.6357 -1.83182 66.5183 1.56734 85.2291C5.06483 104.859 15.0446 121.205 30.4743 133.852C46.4167 147.011 64.8312 153.482 85.8161 152.254C98.57 151.531 112.764 149.783 128.811 136.217C132.822 138.273 137.141 138.989 144.136 139.607C149.586 140.119 154.734 139.298 158.842 138.477C165.114 137.143 164.706 131.283 162.445 130.251C143.932 121.619 147.942 125.114 144.241 122.237C153.701 111.134 167.902 99.5183 173.457 61.8932C173.871 58.9105 173.457 57.0647 173.457 54.5942C173.457 53.1555 173.766 52.5379 175.409 52.4326C180.038 51.9202 184.568 50.5798 188.676 48.3199C200.714 41.7437 205.546 30.9496 206.676 17.9938C206.88 16.0427 206.676 13.9864 204.513 12.9547V13.2635V13.2705ZM99.7991 129.634C81.7989 115.45 73.1606 110.825 69.4524 111.028C66.0602 111.232 66.6783 115.036 67.3946 117.604C68.118 120.075 69.1434 121.822 70.5831 123.977C71.5101 125.416 72.2265 127.577 69.656 129.114C63.8971 132.715 53.812 127.879 53.2993 127.676C41.5708 120.791 31.8017 111.639 24.912 99.2025C18.2261 87.1731 14.4196 74.3297 13.7032 60.658C13.4995 57.3664 14.5249 56.1382 17.8187 55.5206C22.1379 54.6995 26.6678 54.496 30.987 55.2118C49.2962 57.8858 64.9295 66.1112 77.9924 79.06C85.5001 86.4643 91.1607 95.3003 96.9196 103.933C103.093 113.085 109.779 121.822 118.214 129.016C121.198 131.487 123.565 133.438 125.925 134.876C119.035 135.698 107.51 135.803 99.5884 129.634H99.792H99.7991ZM108.437 74.2314C108.437 72.6874 109.568 71.5574 111.113 71.5574C112.658 71.5574 111.731 71.5574 112.04 71.761C112.349 71.8662 112.764 72.0698 112.967 72.3786C113.48 72.8909 113.691 73.5085 113.691 74.2314C113.691 75.6702 112.56 76.9054 111.015 76.9054C109.47 76.9054 108.444 75.7754 108.444 74.2314H108.437ZM135.188 87.903C133.44 88.6259 131.796 89.2365 130.146 89.2365C127.575 89.3418 124.794 88.3101 123.256 87.0749C120.889 85.1238 119.246 83.9939 118.523 80.4987C118.214 79.06 118.417 76.8001 118.628 75.4596C119.246 72.6874 118.628 70.8346 116.57 69.1923C114.927 67.8588 112.869 67.4447 110.601 67.4447C108.332 67.4447 108.957 67.1359 108.437 66.8271C107.51 66.3148 106.689 65.1848 107.51 63.7461C107.714 63.2337 108.845 62.1038 109.154 61.9985C112.237 60.251 115.734 60.7633 119.028 62.1038C122.013 63.339 124.38 65.5989 127.667 68.8905C131.059 72.7997 131.677 73.8243 133.531 76.8071C135.076 79.067 136.41 81.4322 137.337 84.1061C137.955 85.7484 137.134 87.1872 135.174 88.0153V87.9101L135.188 87.903Z" fill="#D9D9D9"/>
</svg>
