<svg width="198" height="155" viewBox="0 0 198 155" fill="none" xmlns="http://www.w3.org/2000/svg">
<path d="M32.5062 118.021C33.695 116.835 35.3294 116.143 37.063 116.143H194.271C197.143 116.143 198.58 119.602 196.549 121.628L165.494 152.605C164.305 153.791 162.671 154.483 160.937 154.483H3.72942C0.856693 154.483 -0.579671 151.024 1.45105 148.999L32.5062 118.021Z" fill="#D9D9D9"/>
<path d="M32.5062 2.36036C33.7445 1.1746 35.379 0.48291 37.063 0.48291H194.271C197.143 0.48291 198.58 3.94136 196.549 5.96703L165.494 36.9449C164.305 38.1306 162.671 38.8223 160.937 38.8223H3.72942C0.856693 38.8223 -0.579671 35.3639 1.45105 33.3382L32.5062 2.36036Z" fill="#D9D9D9"/>
<path d="M165.494 59.8201C164.305 58.6343 162.671 57.9426 160.937 57.9426H3.72942C0.856693 57.9426 -0.579671 61.4011 1.45105 63.4268L32.5062 94.4046C33.695 95.5904 35.3294 96.2821 37.063 96.2821H194.271C197.143 96.2821 198.58 92.8236 196.549 90.798L165.494 59.8201Z" fill="#D9D9D9"/>
</svg>
