<svg width="154" height="154" viewBox="0 0 154 154" fill="none" xmlns="http://www.w3.org/2000/svg">
<path fill-rule="evenodd" clip-rule="evenodd" d="M153.025 76.9829C153.025 119.233 118.775 153.483 76.5254 153.483C34.2756 153.483 0.0253906 119.233 0.0253906 76.9829C0.0253906 34.7331 34.2756 0.48291 76.5254 0.48291C118.775 0.48291 153.025 34.7331 153.025 76.9829ZM79.2007 56.9185C71.7481 60.0397 56.9067 66.4731 34.6128 76.155C31.0458 77.62 29.1349 79.0213 28.9438 80.4227C28.6617 82.7922 31.6276 83.7126 35.6286 84.9542C36.1449 85.1144 36.6784 85.28 37.2244 85.4547C41.1736 86.7287 46.3967 88.1937 49.1357 88.2574C51.6199 88.3211 54.3589 87.3019 57.4163 85.1999C78.2452 71.1229 88.9463 63.9889 89.6469 63.8615C90.1565 63.7341 90.7935 63.6067 91.2394 63.9889C91.6852 64.371 91.6852 65.1354 91.6216 65.3265C91.3177 66.5927 78.8915 78.1286 73.2369 83.3781C71.7801 84.7306 70.7727 85.6657 70.5379 85.9006C69.9405 86.5156 69.3322 87.0978 68.7472 87.6577C65.091 91.1573 62.3473 93.7836 68.8818 98.0667C71.8523 100.028 74.2483 101.663 76.6078 103.272C79.4594 105.218 82.2577 107.127 85.9525 109.532C86.823 110.104 87.6563 110.697 88.4693 111.275C91.6424 113.532 94.5056 115.569 98.0549 115.265C100.093 115.074 102.195 113.163 103.278 107.43C105.826 93.9264 110.794 64.5621 111.941 52.4597C112.068 51.4406 111.941 50.1029 111.813 49.466C111.686 48.829 111.495 48.0009 110.731 47.364C109.775 46.5996 108.374 46.4722 107.737 46.4722C104.871 46.5359 100.412 48.0646 79.2007 56.9185Z" fill="#D9D9D9"/>
</svg>
