<svg width="36" height="29" viewBox="0 0 36 29" fill="none" xmlns="http://www.w3.org/2000/svg">
<path fill-rule="evenodd" clip-rule="evenodd" d="M31.799 0.534812C32.2283 0.364691 32.6981 0.306017 33.1597 0.364898C33.6212 0.423778 34.0576 0.59806 34.4233 0.869604C34.789 1.14115 35.0708 1.50003 35.2392 1.90888C35.4077 2.31774 35.4566 2.76164 35.381 3.19436L31.4411 25.6959C31.0589 27.8664 28.5296 29.1111 26.4155 28.0299C24.647 27.1254 22.0204 25.7318 19.6579 24.2778C18.4766 23.5499 14.858 21.2191 15.3028 19.5606C15.6849 18.1425 21.7651 12.8136 25.2394 9.64533C26.6031 8.4006 25.9812 7.68256 24.3708 8.82751C20.3718 11.6702 13.9512 15.9932 11.8284 17.2102C9.95574 18.2831 8.97945 18.4663 7.81206 18.2831C5.68229 17.9495 3.70712 17.4326 2.09502 16.8029C-0.0833973 15.9524 0.0225703 13.1325 2.09328 12.3114L31.799 0.534812Z" fill="white"/>
</svg>
