<svg width="71" height="70" viewBox="0 0 71 70" fill="none" xmlns="http://www.w3.org/2000/svg">
<rect x="3.5" y="3" width="64" height="64" rx="18" fill="black"/>
<rect x="3.5" y="3" width="64" height="64" rx="18" fill="url(#paint0_linear_5_3663)"/>
<rect x="3.5" y="3" width="64" height="64" rx="18" stroke="white" stroke-opacity="0.5" stroke-width="6"/>
<path d="M26.0161 20.1522C29.4841 16.8088 33.6317 15.973 35.3863 15.973C37.141 15.973 41.5173 16.8088 44.9853 20.1522C45.7078 19.8537 47.3386 19.0178 48.0818 18.0626C47.2561 20.2517 43.9945 25.2867 37.5538 27.9136C37.4003 27.5998 36.7518 26.9723 35.3863 26.9723C34.0209 26.9723 33.6011 27.5998 33.4476 27.9136C27.0069 25.2867 23.7453 20.2517 22.9196 18.0626C23.6628 19.0178 25.2936 19.8537 26.0161 20.1522Z" fill="white"/>
<path d="M28.029 27.0653C29.0058 27.7752 31.2042 29.2785 32.1838 29.6119C30.3186 30.1752 26.8762 30.4546 28.029 27.0653Z" fill="white"/>
<path d="M24.1389 23.0601C24.5952 23.716 25.6614 25.1391 26.2762 25.5836C25.2915 27.7984 24.7486 32.228 30.4544 32.228L30.3104 34.1495L26.0838 36.4647C28.072 37.046 32.399 39.6992 33.8017 45.6616L35.4848 51.2705L37.1983 45.6616C38.601 39.6992 42.928 37.046 44.9162 36.4647L40.6896 34.1495L40.5455 32.228C46.2514 32.228 45.7085 27.7984 44.7238 25.5836C45.3386 25.1391 46.4048 23.716 46.8611 23.0601C48.6347 24.7699 48.8274 28.1404 48.7021 29.6119C48.7021 40.7201 50.8556 45.9094 51.9324 47.1155L47.3705 43.7553L44.2818 48.6726L40.6896 45.6616L35.4848 54.027L30.3104 45.6616L26.7182 48.6726L23.6294 43.7553L19.0676 47.1155C20.1443 45.9094 22.2979 40.7201 22.2979 29.6119C22.1726 28.1404 22.3653 24.7699 24.1389 23.0601Z" fill="white"/>
<path d="M42.971 27.0653C41.9942 27.7752 39.7958 29.2785 38.8162 29.6119C40.6814 30.1752 44.1238 30.4546 42.971 27.0653Z" fill="white"/>
<path d="M32.7207 32.8041C32.7207 30.6082 34.6571 29.5273 35.6282 29.2613C36.5992 29.5273 38.5414 30.6082 38.5414 32.8041V35.1979L40.7264 36.5065C39.027 37.5279 35.6339 40.5727 35.6339 44.5815C35.6339 40.5727 32.2351 37.5279 30.5357 36.5065L32.7207 35.1979V32.8041Z" fill="white"/>
<defs>
<linearGradient id="paint0_linear_5_3663" x1="35.5" y1="3" x2="35.5" y2="67" gradientUnits="userSpaceOnUse">
<stop stop-color="#F7EB35"/>
<stop offset="1" stop-color="#FF9403"/>
</linearGradient>
</defs>
</svg>
