<svg width="71" height="70" viewBox="0 0 71 70" fill="none" xmlns="http://www.w3.org/2000/svg">
<rect x="3.5" y="3" width="64" height="64" rx="18" fill="black"/>
<rect x="3.5" y="3" width="64" height="64" rx="18" fill="url(#paint0_linear_5_3659)"/>
<rect x="3.5" y="3" width="64" height="64" rx="18" stroke="white" stroke-opacity="0.5" stroke-width="6"/>
<path fill-rule="evenodd" clip-rule="evenodd" d="M49.2139 20.072C49.6392 19.8886 50.1048 19.8253 50.5621 19.8888C51.0194 19.9523 51.4517 20.1401 51.8141 20.4328C52.1765 20.7255 52.4557 21.1123 52.6226 21.553C52.7894 21.9937 52.838 22.4721 52.7631 22.9386L48.8593 47.1918C48.4806 49.5313 45.9745 50.8729 43.8798 49.7076C42.1276 48.7327 39.5251 47.2306 37.1842 45.6633C36.0138 44.8788 32.4285 42.3666 32.8691 40.5789C33.2478 39.0504 39.2721 33.3066 42.7145 29.8917C44.0657 28.5501 43.4495 27.7762 41.8539 29.0102C37.8916 32.0743 31.53 36.7339 29.4266 38.0455C27.5712 39.202 26.6038 39.3995 25.4472 39.202C23.3369 38.8424 21.3799 38.2853 19.7826 37.6065C17.6242 36.6898 17.7292 33.6504 19.7809 32.7654L49.2139 20.072Z" fill="white"/>
<defs>
<linearGradient id="paint0_linear_5_3659" x1="35.5" y1="3" x2="35.5" y2="67" gradientUnits="userSpaceOnUse">
<stop stop-color="#F7EB35"/>
<stop offset="1" stop-color="#FF9403"/>
</linearGradient>
</defs>
</svg>
