<svg width="71" height="70" viewBox="0 0 71 70" fill="none" xmlns="http://www.w3.org/2000/svg">
<rect x="3.5" y="3" width="64" height="64" rx="18" fill="black"/>
<rect x="3.5" y="3" width="64" height="64" rx="18" fill="url(#paint0_linear_5_3665)"/>
<rect x="3.5" y="3" width="64" height="64" rx="18" stroke="white" stroke-opacity="0.5" stroke-width="6"/>
<path fill-rule="evenodd" clip-rule="evenodd" d="M30.7352 15.8236C28.1877 17.1655 26.1036 18.3011 26.104 18.3473C26.1051 18.4665 32.218 21.597 32.4349 21.5894C32.5336 21.5861 33.2496 21.2528 34.0259 20.8489L35.4376 20.1146L38.5209 21.7175L41.0456 20.5703C44.8499 18.8416 45.245 18.6522 45.183 18.5886C45.1009 18.5041 43.7364 17.7628 40.0344 15.792C38.2452 14.8394 36.5087 13.9055 36.1754 13.7165C35.842 13.5275 35.5238 13.3755 35.4682 13.3784C35.4126 13.3814 33.2827 14.4817 30.7352 15.8236ZM19.5621 21.6744L16.9102 23.0596V29.1389C16.9102 32.4826 16.945 35.2182 16.9877 35.2182C17.0303 35.2182 18.335 34.6462 19.887 33.9472L22.7089 32.6762V26.2683L24.0879 27.028C25.1505 27.6129 26.2137 28.1966 27.2776 28.7791L29.0884 29.7705L29.8941 29.4021C30.3994 29.1706 30.9037 28.9369 31.407 28.701C31.7959 28.5179 32.7506 28.083 33.5285 27.7345C34.3063 27.3859 35.0264 27.0353 35.1285 26.9554C35.2641 26.8493 33.6102 25.9251 29.0113 23.5368C25.5446 21.7366 22.5971 20.2695 22.4611 20.2765C22.3252 20.2835 21.0206 20.9125 19.5621 21.6744ZM45.661 22.0634C43.8549 22.8879 42.3759 23.5955 42.3742 23.6359C42.3726 23.6762 43.357 24.268 44.5619 24.951C45.7666 25.634 46.7524 26.2294 46.7524 26.2742C46.7524 26.319 45.6863 26.8413 44.3834 27.4353C43.0804 28.0291 39.7869 29.5331 37.0643 30.7777L27.9419 34.9475C25.6472 35.9965 23.5787 36.9421 23.3454 37.0489C18.6583 39.1946 17.37 39.79 17.193 39.8922C17.0151 39.9951 16.9748 40.5928 16.9432 43.5931L16.9054 47.1715L21.6482 49.6152L24.9365 48.1145C26.7451 47.2892 28.2248 46.5706 28.2248 46.5177C28.2248 46.4649 27.8906 46.2447 27.4823 46.0282C27.0738 45.8116 26.2306 45.3322 25.6083 44.9626C24.986 44.593 24.3655 44.2539 24.2293 44.2089C24.0931 44.164 23.9837 44.0856 23.9859 44.0344C23.9882 43.9834 25.4362 43.2878 27.2035 42.4887C30.6362 40.9366 33.2632 39.7404 38.9029 37.1614C41.4248 36.0083 43.947 34.856 46.4695 33.7044C48.6865 32.6925 51.2641 31.5107 52.1975 31.0781L53.8947 30.2917L53.9704 23.0536L51.5652 21.8052C50.2423 21.1187 49.1115 20.5586 49.0522 20.5606C48.993 20.5625 47.4669 21.2387 45.661 22.0634ZM53.2503 35.1198C52.8959 35.2949 52.1958 35.6227 51.6946 35.8482C51.1934 36.0737 50.2423 36.5076 49.581 36.8127L48.3788 37.3672L48.3514 40.5445C48.3363 42.2919 48.2727 43.7139 48.21 43.7047C48.0677 43.6833 45.8146 42.5147 43.5497 41.2875C41.915 40.4018 41.8123 40.3666 41.4282 40.559C41.2061 40.6702 39.8788 41.2722 38.4786 41.8969C37.0784 42.5215 35.8872 43.0734 35.8311 43.1233C35.7753 43.1732 38.5933 44.7178 42.0936 46.5558L48.4577 49.8977L51.1763 48.4756C52.6713 47.6935 53.9427 46.9801 54.0012 46.8904C54.133 46.6886 54.1217 34.7738 53.9898 34.7899C53.9376 34.7963 53.6048 34.9447 53.2503 35.1198ZM38.1958 49.1048C37.7242 49.3098 37.2528 49.5152 36.7814 49.7208C35.3582 50.3434 35.6371 50.3641 33.9439 49.5117C32.8161 48.944 32.33 48.7688 32.119 48.8538C31.9607 48.9176 30.5986 49.5373 29.0918 50.2309C27.5851 50.9246 26.3 51.4921 26.2361 51.4921C25.6039 51.4921 26.6549 52.1271 30.7103 54.1958L35.4664 56.6216L37.4675 55.6226C38.5682 55.0731 40.7881 53.9728 42.4008 53.1774C44.0134 52.3819 45.3129 51.7104 45.2886 51.6851C45.2641 51.6598 43.9128 50.9582 42.2857 50.1258L39.3272 48.6126L38.1958 49.1048Z" fill="white"/>
<defs>
<linearGradient id="paint0_linear_5_3665" x1="35.5" y1="3" x2="35.5" y2="67" gradientUnits="userSpaceOnUse">
<stop stop-color="#F7EB35"/>
<stop offset="1" stop-color="#FF9403"/>
</linearGradient>
</defs>
</svg>
