<svg width="50" height="59" viewBox="0 0 50 59" fill="none" xmlns="http://www.w3.org/2000/svg">
<path d="M10.893 7.05439C16.1262 2.00017 22.3847 0.73661 25.0324 0.73661C27.6802 0.73661 34.2839 2.00017 39.5171 7.05439C40.6073 6.60312 43.0681 5.33956 44.1895 3.8955C42.9435 7.20481 38.0219 14.8162 28.3032 18.7874C28.0714 18.3131 27.0929 17.3644 25.0324 17.3644C22.972 17.3644 22.3387 18.3131 22.1069 18.7874C12.3882 14.8162 7.46657 7.20481 6.22058 3.8955C7.34197 5.33956 9.8028 6.60312 10.893 7.05439Z" fill="white"/>
<path d="M13.9305 17.5049C15.4044 18.5782 18.7217 20.8508 20.2 21.3547C17.3854 22.2063 12.191 22.6287 13.9305 17.5049Z" fill="white"/>
<path d="M8.06046 11.4503C8.74897 12.4419 10.3579 14.5931 11.2856 15.2651C9.79971 18.6132 8.9805 25.3095 17.5904 25.3095L17.373 28.2143L10.9953 31.7142C13.9953 32.5929 20.5246 36.6038 22.6413 45.6172L25.181 54.0963L27.7667 45.6172C29.8834 36.6038 36.4126 32.5929 39.4127 31.7142L33.035 28.2143L32.8176 25.3095C41.4275 25.3095 40.6083 18.6132 39.1224 15.2651C40.0501 14.5931 41.659 12.4419 42.3475 11.4503C45.0238 14.0351 45.3146 19.1303 45.1255 21.3547C45.1255 38.1471 48.3752 45.9918 50 47.8151L43.1163 42.7355L38.4555 50.1691L33.035 45.6172L25.181 58.2634L17.373 45.6172L11.9525 50.1691L7.29169 42.7355L0.407959 47.8151C2.03279 45.9918 5.28246 38.1471 5.28246 21.3547C5.09333 19.1303 5.38415 14.0351 8.06046 11.4503Z" fill="white"/>
<path d="M36.4775 17.5049C35.0036 18.5782 31.6862 20.8508 30.208 21.3547C33.0226 22.2063 38.217 22.6287 36.4775 17.5049Z" fill="white"/>
<path d="M21.0102 26.1805C21.0102 22.8609 23.9321 21.2269 25.3974 20.8248C26.8627 21.2269 29.7933 22.8609 29.7933 26.1805V29.7992L33.0905 31.7774C30.5261 33.3214 25.4061 37.9244 25.4061 43.9845C25.4061 37.9244 20.2774 33.3214 17.713 31.7774L21.0102 29.7992V26.1805Z" fill="white"/>
</svg>
