<svg width="50" height="47" viewBox="0 0 50 47" fill="none" xmlns="http://www.w3.org/2000/svg">
<path fill-rule="evenodd" clip-rule="evenodd" d="M44.4552 0.999789C45.0649 0.723412 45.7323 0.628092 46.3879 0.723748C47.0434 0.819404 47.6632 1.10254 48.1827 1.54369C48.7021 1.98483 49.1023 2.56786 49.3416 3.23209C49.5808 3.89631 49.6504 4.61746 49.543 5.32046L43.9469 41.8761C43.404 45.4022 39.8115 47.4244 36.8086 45.6679C34.2968 44.1985 30.5661 41.9345 27.2104 39.5722C25.5325 38.3898 20.3929 34.6032 21.0246 31.9088C21.5674 29.6049 30.2034 20.9477 35.1382 15.8006C37.0751 13.7784 36.1918 12.6119 33.9045 14.472C28.2245 19.0903 19.1049 26.1133 16.0897 28.0903C13.4299 29.8335 12.0432 30.1311 10.3851 29.8335C7.36003 29.2914 4.55457 28.4517 2.26481 27.4287C-0.829328 26.0469 -0.678816 21.4658 2.26234 20.1319L44.4552 0.999789Z" fill="white"/>
</svg>
