<svg width="46" height="51" viewBox="0 0 46 51" fill="none" xmlns="http://www.w3.org/2000/svg">
<path fill-rule="evenodd" clip-rule="evenodd" d="M17.1027 3.50818C13.9774 5.04713 11.4205 6.3494 11.421 6.40236C11.4224 6.53907 18.9218 10.1293 19.188 10.1205C19.3091 10.1167 20.1874 9.73447 21.1398 9.27127L22.8717 8.42923L26.6544 10.2675L29.7518 8.95181C34.4189 6.96933 34.9037 6.75208 34.8277 6.6791C34.7269 6.58226 33.0529 5.73216 28.5112 3.47191C26.3162 2.37952 24.1858 1.30845 23.7768 1.09172C23.3679 0.874994 22.9775 0.700649 22.9093 0.704024C22.8411 0.707399 20.228 1.96928 17.1027 3.50818ZM3.39519 10.218L0.141795 11.8066L0.141795 18.7784C0.141795 22.613 0.184515 25.7502 0.236917 25.7502C0.289137 25.7502 1.88981 25.0943 3.79389 24.2926L7.25586 22.8351L7.25586 15.4863L8.9476 16.3576C10.2512 17.0283 11.5557 17.6977 12.8609 18.3658L15.0823 19.5027L16.0708 19.0802C16.6907 18.8148 17.3095 18.5468 17.9269 18.2762C18.404 18.0662 19.5753 17.5675 20.5296 17.1678C21.4839 16.768 22.3673 16.366 22.4925 16.2743C22.6589 16.1526 20.6299 15.0927 14.9877 12.3539C10.7348 10.2894 7.11862 8.60678 6.95186 8.61485C6.78509 8.62291 5.18459 9.34425 3.39519 10.218ZM35.414 10.6641C33.1983 11.6097 31.3838 12.4211 31.3818 12.4674C31.3798 12.5136 32.5875 13.1924 34.0656 13.9756C35.5437 14.7589 36.753 15.4417 36.753 15.4932C36.753 15.5445 35.4451 16.1435 33.8467 16.8246C32.2481 17.5056 28.2075 19.2305 24.8674 20.6578L13.6758 25.4398C10.8606 26.6428 8.32296 27.7272 8.03668 27.8498C2.2864 30.3104 0.705871 30.9932 0.488821 31.1104C0.27056 31.2284 0.221124 31.914 0.182276 35.3547L0.135925 39.4584L5.95453 42.2609L9.98868 40.5399C12.2075 39.5934 14.0228 38.7694 14.0228 38.7087C14.0228 38.6482 13.6128 38.3957 13.1119 38.1473C12.6108 37.8989 11.5763 37.3491 10.8128 36.9253C10.0494 36.5014 9.28821 36.1125 9.12109 36.0609C8.95402 36.0095 8.81974 35.9195 8.82247 35.8608C8.82525 35.8023 10.6017 35.0046 12.7699 34.0881C16.9812 32.3082 20.2041 30.9364 27.1231 27.9787C30.217 26.6564 33.3113 25.3349 36.406 24.0142C39.1258 22.8537 42.2881 21.4984 43.4333 21.0023L45.5154 20.1005L45.6083 11.7997L42.6575 10.368C41.0345 9.58066 39.6472 8.93837 39.5745 8.94071C39.5018 8.94289 37.6296 9.71834 35.414 10.6641ZM44.7249 25.6374C44.29 25.8382 43.4312 26.2141 42.8163 26.4727C42.2013 26.7313 41.0345 27.229 40.2233 27.5789L38.7484 28.2148L38.7148 31.8585C38.6962 33.8625 38.6181 35.4932 38.5413 35.4826C38.3667 35.4581 35.6025 34.118 32.8238 32.7106C30.8184 31.6949 30.6924 31.6545 30.2211 31.8751C29.9487 32.0027 28.3203 32.6931 26.6025 33.4095C24.8847 34.1258 23.4233 34.7587 23.3545 34.816C23.286 34.8732 26.7432 36.6445 31.0375 38.7524L38.8451 42.585L42.1803 40.954C44.0145 40.0571 45.5742 39.239 45.6461 39.1361C45.8078 38.9047 45.7939 25.2406 45.632 25.2591C45.568 25.2663 45.1597 25.4366 44.7249 25.6374ZM26.2555 41.6757C25.677 41.9108 25.0986 42.1462 24.5204 42.382C22.7743 43.0961 23.1165 43.1198 21.0392 42.1422C19.6556 41.4912 19.0592 41.2903 18.8004 41.3878C18.6062 41.4609 16.9351 42.1716 15.0865 42.9671C13.238 43.7626 11.6615 44.4134 11.5831 44.4134C10.8075 44.4134 12.0969 45.1416 17.0722 47.514L22.9071 50.296L25.3621 49.1503C26.7124 48.5202 29.4358 47.2583 31.4144 46.3462C33.3928 45.4338 34.987 44.6638 34.9572 44.6347C34.9271 44.6058 33.2694 43.8011 31.2731 42.8465L27.6436 41.1112L26.2555 41.6757Z" fill="white"/>
</svg>
