<svg width="64" height="64" viewBox="0 0 64 64" fill="none" xmlns="http://www.w3.org/2000/svg">
<rect x="0.5" y="0.5" width="63" height="63" rx="15.5" fill="black" fill-opacity="0.5"/>
<rect x="0.5" y="0.5" width="63" height="63" rx="15.5" stroke="#808080"/>
<path d="M24.0558 19.1701C26.9608 16.2811 30.435 15.5588 31.9048 15.5588C33.3746 15.5588 37.0405 16.2811 39.9455 19.1701C40.5507 18.9121 41.9167 18.1899 42.5392 17.3644C41.8476 19.2561 39.1155 23.6067 33.7205 25.8767C33.5918 25.6055 33.0486 25.0633 31.9048 25.0633C30.7611 25.0633 30.4095 25.6055 30.2808 25.8767C24.8858 23.6067 22.1537 19.2561 21.462 17.3644C22.0845 18.1899 23.4506 18.9121 24.0558 19.1701Z" fill="#BCBCBC"/>
<path d="M25.742 25.1436C26.5601 25.7571 28.4016 27.0561 29.2223 27.3442C27.6598 27.8309 24.7763 28.0723 25.742 25.1436Z" fill="#BCBCBC"/>
<path d="M22.4834 21.6828C22.8656 22.2496 23.7587 23.4792 24.2737 23.8633C23.4489 25.7771 22.9941 29.6047 27.7736 29.6047L27.6529 31.2651L24.1126 33.2656C25.7779 33.7679 29.4025 36.0606 30.5774 41.2126L31.9873 46.0593L33.4227 41.2126C34.5977 36.0606 38.2222 33.7679 39.8876 33.2656L36.3472 31.2651L36.2265 29.6047C41.006 29.6047 40.5512 25.7771 39.7264 23.8633C40.2414 23.4792 41.1345 22.2496 41.5167 21.6828C43.0024 23.1602 43.1638 26.0726 43.0588 27.3442C43.0588 36.9427 44.8628 41.4267 45.7648 42.4689L41.9435 39.5654L39.3562 43.8145L36.3472 41.2126L31.9873 48.4412L27.6529 41.2126L24.6439 43.8145L22.0566 39.5654L18.2354 42.4689C19.1373 41.4267 20.9413 36.9427 20.9413 27.3442C20.8363 26.0726 20.9977 23.1602 22.4834 21.6828Z" fill="#BCBCBC"/>
<path d="M38.2582 25.1436C37.44 25.7571 35.5985 27.0561 34.7779 27.3442C36.3403 27.8309 39.2238 28.0723 38.2582 25.1436Z" fill="#BCBCBC"/>
<path d="M29.672 30.1026C29.672 28.2051 31.294 27.2711 32.1074 27.0412C32.9208 27.2711 34.5477 28.2051 34.5477 30.1026V32.171L36.378 33.3018C34.9545 34.1843 32.1123 36.8154 32.1123 40.2794C32.1123 36.8154 29.2652 34.1843 27.8417 33.3018L29.672 32.171V30.1026Z" fill="#BCBCBC"/>
</svg>
