<svg width="64" height="64" viewBox="0 0 64 64" fill="none" xmlns="http://www.w3.org/2000/svg">
<rect x="0.5" y="0.5" width="63" height="63" rx="15.5" fill="black" fill-opacity="0.5"/>
<rect x="0.5" y="0.5" width="63" height="63" rx="15.5" stroke="#808080"/>
<path fill-rule="evenodd" clip-rule="evenodd" d="M44.3415 18.9537C44.7302 18.7934 45.1557 18.7382 45.5737 18.7936C45.9916 18.8491 46.3867 19.0133 46.7179 19.2691C47.0491 19.5249 47.3042 19.8629 47.4567 20.2481C47.6093 20.6332 47.6536 21.0513 47.5851 21.459L44.0175 42.655C43.6714 44.6996 41.381 45.8721 39.4666 44.8536C37.8653 44.0016 35.4868 42.6889 33.3475 41.3192C32.2778 40.6335 29.0011 38.438 29.4038 36.8757C29.7499 35.5398 35.2556 30.5201 38.4017 27.5357C39.6365 26.3631 39.0734 25.6868 37.6151 26.7653C33.994 29.4431 28.18 33.5153 26.2577 34.6616C24.5619 35.6723 23.6779 35.8449 22.6208 35.6723C20.6922 35.358 18.9037 34.8711 17.4439 34.278C15.4713 33.4768 15.5672 30.8205 17.4423 30.0471L44.3415 18.9537Z" fill="#BCBCBC"/>
</svg>
