<svg width="64" height="64" viewBox="0 0 64 64" fill="none" xmlns="http://www.w3.org/2000/svg">
<rect x="0.5" y="0.5" width="63" height="63" rx="15.5" fill="black" fill-opacity="0.5"/>
<rect x="0.5" y="0.5" width="63" height="63" rx="15.5" stroke="#808080"/>
<path fill-rule="evenodd" clip-rule="evenodd" d="M28.2769 17.0791C26.2864 18.1232 24.6578 19.0068 24.6582 19.0427C24.6591 19.1354 29.4355 21.5713 29.605 21.5654C29.6821 21.5628 30.2416 21.3035 30.8482 20.9892L31.9512 20.4179L34.3605 21.6651L36.3332 20.7724C39.3058 19.4274 39.6145 19.28 39.5661 19.2304C39.5019 19.1647 38.4357 18.588 35.5431 17.0544C34.1451 16.3133 32.7882 15.5866 32.5277 15.4395C32.2673 15.2925 32.0186 15.1742 31.9752 15.1765C31.9317 15.1788 30.2675 16.0349 28.2769 17.0791ZM19.5464 21.6315L17.4743 22.7093V27.4396C17.4743 30.0412 17.5015 32.1697 17.5349 32.1697C17.5682 32.1697 18.5877 31.7247 19.8004 31.1808L22.0053 30.1919V25.2059L23.0828 25.7971C23.9131 26.2522 24.7439 26.7063 25.5752 27.1596L26.9901 27.931L27.6197 27.6443C28.0145 27.4642 28.4086 27.2824 28.8018 27.0988C29.1057 26.9563 29.8517 26.618 30.4595 26.3468C31.0673 26.0756 31.6299 25.8028 31.7097 25.7406C31.8157 25.658 30.5234 24.9389 26.9298 23.0807C24.2211 21.6799 21.9179 20.5383 21.8117 20.5438C21.7055 20.5493 20.6861 21.0387 19.5464 21.6315ZM39.9396 21.9342C38.5283 22.5758 37.3727 23.1263 37.3714 23.1577C37.3701 23.189 38.1393 23.6496 39.0808 24.181C40.0221 24.7124 40.7924 25.1757 40.7924 25.2106C40.7924 25.2454 39.9593 25.6518 38.9413 26.114C37.9231 26.576 35.3497 27.7463 33.2223 28.7147L26.0943 31.9592C24.3012 32.7754 22.685 33.5111 22.5027 33.5943C18.8402 35.2638 17.8336 35.727 17.6953 35.8065C17.5563 35.8866 17.5248 36.3517 17.5001 38.6862L17.4706 41.4705L21.1765 43.3719L23.7459 42.2042C25.1591 41.562 26.3153 41.003 26.3153 40.9618C26.3153 40.9207 26.0542 40.7494 25.7351 40.5809C25.4159 40.4124 24.7571 40.0394 24.2708 39.7518C23.7846 39.4642 23.2998 39.2003 23.1933 39.1653C23.0869 39.1304 23.0014 39.0694 23.0031 39.0296C23.0049 38.9899 24.1363 38.4487 25.5173 37.8268C28.1995 36.6192 30.2522 35.6885 34.659 33.6817C36.6295 32.7846 38.6003 31.888 40.5714 30.9919C42.3036 30.2046 44.3177 29.285 45.0471 28.9484L46.3732 28.3365L46.4324 22.7047L44.553 21.7333C43.5193 21.1991 42.6357 20.7633 42.5894 20.7649C42.5431 20.7664 41.3507 21.2925 39.9396 21.9342ZM45.8697 32.0932C45.5928 32.2294 45.0458 32.4845 44.6541 32.6599C44.2625 32.8354 43.5193 33.1731 43.0026 33.4105L42.0633 33.8419L42.0418 36.3141C42.03 37.6737 41.9803 38.7802 41.9313 38.773C41.8201 38.7563 40.0596 37.8471 38.2898 36.8922C37.0125 36.2031 36.9323 36.1757 36.6321 36.3254C36.4586 36.412 35.4215 36.8803 34.3274 37.3664C33.2333 37.8524 32.3025 38.2818 32.2588 38.3207C32.2151 38.3595 34.417 39.5613 37.1521 40.9914L42.1248 43.5917L44.2491 42.4852C45.4173 41.8767 46.4107 41.3216 46.4565 41.2518C46.5594 41.0948 46.5506 31.824 46.4475 31.8365C46.4067 31.8415 46.1467 31.957 45.8697 32.0932ZM34.1064 42.9748C33.7379 43.1343 33.3696 43.2941 33.0013 43.454C31.8892 43.9385 32.1071 43.9546 30.7841 43.2914C29.9029 42.8496 29.523 42.7133 29.3581 42.7795C29.2345 42.8291 28.1701 43.3113 26.9927 43.851C25.8154 44.3907 24.8113 44.8323 24.7614 44.8323C24.2674 44.8323 25.0886 45.3264 28.2575 46.936L31.9738 48.8235L33.5374 48.0462C34.3974 47.6186 36.132 46.7625 37.3921 46.1436C38.6522 45.5246 39.6676 45.0022 39.6486 44.9824C39.6294 44.9628 38.5736 44.4169 37.3022 43.7692L34.9905 42.5918L34.1064 42.9748Z" fill="#BCBCBC"/>
</svg>
