<svg width="35" height="41" viewBox="0 0 35 41" fill="none" xmlns="http://www.w3.org/2000/svg">
<path d="M7.39513 4.45959C11.0891 0.891903 15.5069 -1.90735e-05 17.3759 -1.90735e-05C19.2449 -1.90735e-05 23.9063 0.891903 27.6003 4.45959C28.3699 4.14105 30.1069 3.24912 30.8985 2.22979C30.019 4.56577 26.5449 9.93854 19.6846 12.7417C19.5211 12.4069 18.8303 11.7372 17.3759 11.7372C15.9215 11.7372 15.4744 12.4069 15.3108 12.7417C8.45055 9.93854 4.97645 4.56577 4.09693 2.22979C4.88849 3.24912 6.62555 4.14105 7.39513 4.45959Z" fill="white"/>
<path d="M9.53923 11.8364C10.5796 12.5941 12.9213 14.1982 13.9648 14.5539C11.9779 15.1551 8.31131 15.4532 9.53923 11.8364Z" fill="white"/>
<path d="M5.39566 7.56257C5.88167 8.26254 7.01738 9.78104 7.6722 10.2554C6.62337 12.6188 6.0451 17.3456 12.1227 17.3456L11.9692 19.396L7.46729 21.8665C9.58498 22.4868 14.1939 25.318 15.688 31.6804L17.4808 37.6656L19.306 31.6804C20.8001 25.318 25.409 22.4868 27.5267 21.8665L23.0247 19.396L22.8713 17.3456C28.9489 17.3456 28.3706 12.6188 27.3217 10.2554C27.9766 9.78104 29.1123 8.26254 29.5983 7.56257C31.4874 9.38715 31.6927 12.9837 31.5592 14.5539C31.5592 26.4074 33.8531 31.9448 35.0001 33.2319L30.1409 29.6463L26.851 34.8935L23.0247 31.6804L17.4808 40.6071L11.9692 31.6804L8.14297 34.8935L4.853 29.6463L-0.00610352 33.2319C1.14084 31.9448 3.43472 26.4074 3.43472 14.5539C3.30122 12.9837 3.5065 9.38715 5.39566 7.56257Z" fill="white"/>
<path d="M25.4547 11.8364C24.4143 12.5941 22.0727 14.1982 21.0292 14.5539C23.016 15.1551 26.6826 15.4532 25.4547 11.8364Z" fill="white"/>
<path d="M14.5366 17.9604C14.5366 15.6171 16.5991 14.4637 17.6335 14.1799C18.6678 14.4637 20.7365 15.6171 20.7365 17.9604V20.5147L23.0639 21.9111C21.2538 23.001 17.6396 26.2502 17.6396 30.5279C17.6396 26.2502 14.0194 23.001 12.2092 21.9111L14.5366 20.5147V17.9604Z" fill="white"/>
</svg>
