<svg width="35" height="33" viewBox="0 0 35 33" fill="none" xmlns="http://www.w3.org/2000/svg">
<path fill-rule="evenodd" clip-rule="evenodd" d="M31.3801 0.421051C31.8105 0.225961 32.2816 0.158676 32.7444 0.226198C33.2071 0.29372 33.6446 0.493581 34.0113 0.804978C34.378 1.11638 34.6605 1.52792 34.8293 1.99679C34.9982 2.46566 35.0473 2.9747 34.9715 3.47093L31.0213 29.2749C30.6381 31.7639 28.1022 33.1913 25.9826 31.9515C24.2095 30.9142 21.5761 29.3162 19.2073 27.6487C18.023 26.814 14.395 24.1411 14.8409 22.2392C15.2241 20.6129 21.32 14.5019 24.8034 10.8687C26.1707 9.44127 25.5471 8.61784 23.9326 9.93083C19.9232 13.1908 13.4858 18.1483 11.3575 19.5438C9.47991 20.7742 8.50107 20.9843 7.33064 20.7742C5.19531 20.3916 3.21499 19.7989 1.59869 19.0767C-0.585408 18.1014 -0.479164 14.8677 1.59695 13.9261L31.3801 0.421051Z" fill="white"/>
</svg>
