<svg width="33" height="36" viewBox="0 0 33 36" fill="none" xmlns="http://www.w3.org/2000/svg">
<path fill-rule="evenodd" clip-rule="evenodd" d="M12.3078 2.77994C10.1017 3.86626 8.29686 4.78551 8.29725 4.82289C8.29823 4.91939 13.5919 7.45365 13.7798 7.44747C13.8653 7.44476 14.4853 7.17497 15.1576 6.848L16.3801 6.25363L19.0502 7.5512L21.2366 6.6225C24.5311 5.2231 24.8733 5.06975 24.8196 5.01823C24.7484 4.94988 23.5668 4.34981 20.3609 2.75434C18.8115 1.98324 17.3077 1.22719 17.019 1.07421C16.7303 0.921221 16.4548 0.798155 16.4066 0.800537C16.3585 0.802919 14.514 1.69366 12.3078 2.77994ZM2.63195 7.51631L0.335442 8.63764L0.335442 13.5589C0.335442 16.2657 0.365597 18.4802 0.402587 18.4802C0.439448 18.4802 1.56934 18.0172 2.91339 17.4513L5.35713 16.4225V11.2351L6.55131 11.8501C7.47152 12.3236 8.39229 12.7961 9.3136 13.2677L10.8817 14.0702L11.5794 13.772C12.0171 13.5846 12.4538 13.3954 12.8896 13.2044C13.2264 13.0562 14.0532 12.7042 14.7268 12.4221C15.4004 12.1398 16.024 11.856 16.1124 11.7913C16.2299 11.7054 14.7976 10.9573 10.8149 9.02396C7.81284 7.56666 5.26026 6.37895 5.14254 6.38465C5.02483 6.39034 3.89506 6.89952 2.63195 7.51631ZM25.2335 7.8312C23.6694 8.49866 22.3886 9.07144 22.3872 9.1041C22.3858 9.13673 23.2383 9.61587 24.2817 10.1687C25.325 10.7217 26.1787 11.2036 26.1787 11.2399C26.1787 11.2761 25.2554 11.699 24.1271 12.1798C22.9987 12.6605 20.1465 13.8781 17.7888 14.8856L9.88886 18.2611C7.90164 19.1103 6.11038 19.8757 5.9083 19.9622C1.84928 21.6992 0.733613 22.1811 0.580402 22.2639C0.426335 22.3472 0.391439 22.8311 0.364017 25.2598L0.331299 28.1566L4.43855 30.1348L7.28618 28.92C8.85243 28.2519 10.1338 27.6702 10.1338 27.6274C10.1338 27.5847 9.8444 27.4064 9.49082 27.2311C9.13707 27.0558 8.40685 26.6677 7.86794 26.3685C7.32907 26.0693 6.79174 25.7947 6.67376 25.7583C6.55583 25.722 6.46105 25.6585 6.46298 25.6171C6.46494 25.5758 7.71891 25.0127 9.24941 24.3658C12.2221 23.1094 14.4971 22.1411 19.381 20.0532C21.565 19.1198 23.7492 18.187 25.9337 17.2548C27.8536 16.4356 30.0857 15.4789 30.8941 15.1288L32.3639 14.4921L32.4294 8.63279L30.3465 7.62218C29.2009 7.0664 28.2216 6.61301 28.1703 6.61467C28.119 6.6162 26.7974 7.16358 25.2335 7.8312ZM31.8058 18.4006C31.4989 18.5423 30.8926 18.8076 30.4586 18.9902C30.0245 19.1727 29.2009 19.524 28.6282 19.771L27.5872 20.2199L27.5634 22.7919C27.5503 24.2065 27.4952 25.3576 27.441 25.3502C27.3177 25.3328 25.3665 24.3869 23.4051 23.3934C21.9895 22.6764 21.9006 22.6479 21.5679 22.8037C21.3756 22.8937 20.2262 23.381 19.0136 23.8868C17.801 24.3924 16.7694 24.8391 16.7209 24.8796C16.6725 24.9199 19.1129 26.1703 22.1442 27.6582L27.6554 30.3635L30.0097 29.2123C31.3044 28.5792 32.4054 28.0017 32.4561 27.9291C32.5702 27.7657 32.5605 18.1205 32.4462 18.1335C32.401 18.1386 32.1128 18.2588 31.8058 18.4006ZM18.7687 29.7217C18.3603 29.8876 17.952 30.0538 17.5439 30.2203C16.3113 30.7243 16.5529 30.7411 15.0865 30.051C14.1099 29.5915 13.6889 29.4497 13.5062 29.5185C13.3691 29.5701 12.1895 30.0718 10.8846 30.6333C9.57983 31.1948 8.46699 31.6542 8.41163 31.6542C7.86418 31.6542 8.77431 32.1682 12.2863 33.8429L16.405 35.8067L18.138 34.9979C19.0911 34.5531 21.0136 33.6624 22.4102 33.0185C23.8067 32.3745 24.9321 31.8309 24.911 31.8104C24.8898 31.79 23.7196 31.222 22.3105 30.5482L19.7485 29.3233L18.7687 29.7217Z" fill="white"/>
</svg>
