<svg width="62" height="62" viewBox="0 0 62 62" fill="none" xmlns="http://www.w3.org/2000/svg">
<rect x="1" y="1" width="60" height="60" rx="11" fill="#3ADB58"/>
<rect x="1" y="1" width="60" height="60" rx="11" stroke="white" stroke-width="2"/>
<path d="M22.109 17.0802C25.3602 13.9458 29.2486 13.1622 30.8936 13.1622C32.5385 13.1622 36.6413 13.9458 39.8926 17.0802C40.57 16.8003 42.0989 16.0167 42.7956 15.1212C42.0214 17.1735 38.9637 21.8938 32.9256 24.3565C32.7816 24.0623 32.1737 23.474 30.8936 23.474C29.6134 23.474 29.2199 24.0623 29.076 24.3565C23.0379 21.8938 19.9801 17.1735 19.206 15.1212C19.9027 16.0167 21.4316 16.8003 22.109 17.0802Z" fill="white"/>
<path d="M23.9961 23.5612C24.9118 24.2268 26.9728 25.6361 27.8912 25.9487C26.1425 26.4768 22.9153 26.7387 23.9961 23.5612Z" fill="white"/>
<path d="M20.3491 19.8063C20.7769 20.4213 21.7765 21.7554 22.3528 22.1721C21.4297 24.2485 20.9207 28.4012 26.2699 28.4012L26.1348 30.2027L22.1725 32.3731C24.0364 32.9181 28.0929 35.4055 29.4079 40.9952L30.9859 46.2536L32.5923 40.9952C33.9074 35.4055 37.9639 32.9181 39.8278 32.3731L35.8654 30.2027L35.7303 28.4012C41.0795 28.4012 40.5706 24.2485 39.6474 22.1721C40.2238 21.7554 41.2234 20.4213 41.6511 19.8063C43.3139 21.4093 43.4946 24.5691 43.3771 25.9487C43.3771 36.3626 45.3961 41.2275 46.4055 42.3583L42.1288 39.2081L39.2331 43.8181L35.8654 40.9952L30.9859 48.8378L26.1348 40.9952L22.7672 43.8181L19.8715 39.2081L15.5947 42.3583C16.6042 41.2275 18.6232 36.3626 18.6232 25.9487C18.5057 24.5691 18.6864 21.4093 20.3491 19.8063Z" fill="white"/>
<path d="M38.0042 23.5612C37.0885 24.2268 35.0275 25.6361 34.109 25.9487C35.8577 26.4768 39.0849 26.7387 38.0042 23.5612Z" fill="white"/>
<path d="M28.3946 28.9414C28.3946 26.8827 30.2099 25.8694 31.1203 25.62C32.0307 25.8694 33.8514 26.8827 33.8514 28.9414V31.1855L35.8999 32.4124C34.3067 33.3699 31.1257 36.2245 31.1257 39.9827C31.1257 36.2245 27.9393 33.3699 26.3461 32.4124L28.3946 31.1855V28.9414Z" fill="white"/>
</svg>
