<svg width="62" height="62" viewBox="0 0 62 62" fill="none" xmlns="http://www.w3.org/2000/svg">
<rect x="1" y="1" width="60" height="60" rx="11" fill="#3ADB58"/>
<rect x="1" y="1" width="60" height="60" rx="11" stroke="white" stroke-width="2"/>
<path fill-rule="evenodd" clip-rule="evenodd" d="M43.8567 17.005C44.2554 16.8331 44.6919 16.7738 45.1206 16.8333C45.5494 16.8928 45.9547 17.0689 46.2944 17.3433C46.6341 17.6177 46.8958 17.9803 47.0523 18.3934C47.2088 18.8066 47.2542 19.2551 47.184 19.6924L43.5243 42.4298C43.1693 44.6231 40.8198 45.8809 38.856 44.7884C37.2133 43.8744 34.7734 42.4662 32.5789 40.9969C31.4816 40.2614 28.1203 37.9062 28.5334 36.2302C28.8884 34.7973 34.5362 29.4125 37.7635 26.211C39.0302 24.9532 38.4526 24.2277 36.9567 25.3846C33.2421 28.2572 27.278 32.6255 25.3061 33.8552C23.5666 34.9394 22.6597 35.1245 21.5754 34.9394C19.597 34.6022 17.7623 34.0799 16.2648 33.4436C14.2413 32.5842 14.3398 29.7348 16.2632 28.9051L43.8567 17.005Z" fill="white"/>
</svg>
