<svg width="62" height="62" viewBox="0 0 62 62" fill="none" xmlns="http://www.w3.org/2000/svg">
<rect x="1" y="1" width="60" height="60" rx="11" fill="#3ADB58"/>
<rect x="1" y="1" width="60" height="60" rx="11" stroke="white" stroke-width="2"/>
<path fill-rule="evenodd" clip-rule="evenodd" d="M26.5333 13.0221C24.1451 14.2802 22.1911 15.3448 22.1916 15.3881C22.1926 15.4998 27.9234 18.4347 28.1268 18.4276C28.2193 18.4244 28.8906 18.112 29.6183 17.7333L30.9418 17.045L33.8324 18.5477L36.1993 17.4722C39.7658 15.8515 40.1362 15.6739 40.0782 15.6143C40.0011 15.5351 38.7219 14.8402 35.2513 12.9925C33.574 12.0994 31.946 11.2239 31.6335 11.0467C31.321 10.8695 31.0226 10.727 30.9705 10.7298C30.9184 10.7325 28.9216 11.7641 26.5333 13.0221ZM16.0585 18.5073L13.5724 19.8059V25.5052C13.5724 28.6399 13.605 31.2045 13.645 31.2045C13.685 31.2045 14.9081 30.6683 16.3632 30.013L19.0087 28.8215V22.814L20.3015 23.5262C21.2977 24.0746 22.2944 24.6218 23.2918 25.1679L24.9894 26.0973L25.7448 25.7519C26.2185 25.535 26.6913 25.3159 27.1631 25.0947C27.5277 24.923 28.4228 24.5153 29.152 24.1886C29.8813 23.8618 30.5563 23.5331 30.652 23.4582C30.7792 23.3587 29.2287 22.4922 24.9171 20.2533C21.6672 18.5656 18.9038 17.1901 18.7764 17.1967C18.6489 17.2033 17.4259 17.793 16.0585 18.5073ZM40.5262 18.872C38.833 19.6449 37.4465 20.3083 37.4449 20.3461C37.4434 20.3839 38.3663 20.9388 39.4958 21.579C40.6253 22.2194 41.5494 22.7776 41.5494 22.8196C41.5494 22.8615 40.55 23.3513 39.3285 23.9081C38.1069 24.4647 35.0192 25.8748 32.4669 27.0416L23.9146 30.9508C21.7633 31.9343 19.8241 32.8207 19.6054 32.9209C15.2112 34.9324 14.0034 35.4906 13.8375 35.5864C13.6708 35.6829 13.633 36.2433 13.6033 39.056L13.5679 42.4107L18.0143 44.7017L21.097 43.2948C22.7926 42.5211 24.1798 41.8475 24.1798 41.7979C24.1798 41.7484 23.8665 41.5419 23.4837 41.3389C23.1007 41.1359 22.3102 40.6864 21.7268 40.3399C21.1434 39.9934 20.5617 39.6755 20.434 39.6333C20.3064 39.5913 20.2038 39.5177 20.2058 39.4697C20.208 39.4219 21.5655 38.7698 23.2223 38.0206C26.4405 36.5656 28.9033 35.4442 34.1905 33.0263C36.5548 31.9453 38.9194 30.865 41.2842 29.7854C43.3626 28.8367 45.7791 27.7287 46.6543 27.3232L48.2454 26.586L48.3163 19.8003L46.0614 18.6299C44.8212 17.9862 43.7611 17.4612 43.7055 17.4631C43.65 17.4649 42.2193 18.0988 40.5262 18.872ZM47.6413 31.1123C47.309 31.2764 46.6526 31.5837 46.1828 31.7951C45.7129 32.0065 44.8212 32.4134 44.2013 32.6994L43.0742 33.2193L43.0485 36.1979C43.0343 37.8362 42.9747 39.1693 42.916 39.1606C42.7826 39.1406 40.6702 38.0451 38.5469 36.8945C37.0144 36.0642 36.9181 36.0312 36.558 36.2115C36.3498 36.3159 35.1054 36.8802 33.7928 37.4659C32.4801 38.0514 31.3633 38.5688 31.3108 38.6156C31.2584 38.6624 33.9003 40.1104 37.1818 41.8336L43.1481 44.9666L45.6968 43.6334C47.0984 42.9002 48.2903 42.2314 48.3452 42.1472C48.4688 41.9581 48.4582 30.7879 48.3345 30.803C48.2856 30.809 47.9735 30.9482 47.6413 31.1123ZM33.5276 44.2233C33.0855 44.4155 32.6435 44.608 32.2017 44.8007C30.8674 45.3845 31.1289 45.4038 29.5414 44.6047C28.4842 44.0725 28.0284 43.9083 27.8306 43.988C27.6822 44.0477 26.4052 44.6287 24.9926 45.279C23.5801 45.9293 22.3753 46.4613 22.3154 46.4613C21.7227 46.4613 22.708 47.0566 26.51 48.996L30.9688 51.2703L32.8449 50.3337C33.8767 49.8185 35.9579 48.787 37.4698 48.0413C38.9816 47.2955 40.1999 46.666 40.1771 46.6422C40.1541 46.6186 38.8874 45.9608 37.3619 45.1804L34.5883 43.7619L33.5276 44.2233Z" fill="white"/>
</svg>
