<svg width="31" height="35" viewBox="0 0 31 35" fill="none" xmlns="http://www.w3.org/2000/svg">
<path d="M7.09426 3.84382C10.26 0.768763 14.2548 0 15.8565 0V10.1165C14.6101 10.1165 14.0181 10.6937 13.8779 10.9823C7.99875 8.56622 5.02147 3.93534 4.26773 1.92191C4.9461 2.80049 6.43474 3.56926 7.09426 3.84382Z" fill="#33363A"/>
<path d="M24.4099 3.84382C21.2442 0.768763 17.2494 0 15.6477 0V10.1165C16.8941 10.1165 17.4861 10.6937 17.6263 10.9823C23.5055 8.56622 26.4827 3.93534 27.2365 1.92191C26.5581 2.80049 25.0695 3.56926 24.4099 3.84382Z" fill="#33363A"/>
<path d="M8.93174 10.2021C9.82335 10.8551 11.8301 12.2377 12.7244 12.5443C11.0217 13.0625 7.87942 13.3194 8.93174 10.2021Z" fill="#33363A"/>
<path d="M7.33171 8.8393C6.77053 8.43046 5.79724 7.12164 5.38074 6.51833C3.76174 8.09096 3.58581 11.1909 3.70022 12.5443C3.70022 22.761 1.73438 27.5338 0.751465 28.6431L4.91568 25.5526L7.73516 30.0753L11.0142 27.3059L15.7653 35V32.4647L14.2012 27.3059C12.9207 21.8221 8.97095 19.3818 7.15611 18.8471L11.0142 16.7178L11.1457 14.9505C5.9373 14.9505 6.43287 10.8763 7.33171 8.8393Z" fill="#33363A"/>
<path d="M22.5712 10.2021C21.6796 10.8551 19.6728 12.2377 18.7786 12.5443C20.4812 13.0625 23.6235 13.3194 22.5712 10.2021Z" fill="#33363A"/>
<path d="M24.1712 8.8393C24.7324 8.43046 25.7057 7.12164 26.1222 6.51833C27.7412 8.09096 27.9171 11.1909 27.8027 12.5443C27.8027 22.761 29.7685 27.5338 30.7515 28.6431L26.5872 25.5526L23.7678 30.0753L20.4887 27.3059L15.7376 35V32.4647L17.3017 27.3059C18.5822 21.8221 22.532 19.3818 24.3468 18.8471L20.4887 16.7178L20.3572 14.9505C25.5656 14.9505 25.0701 10.8763 24.1712 8.8393Z" fill="#33363A"/>
<path d="M13.2145 15.4804C13.2145 13.4607 14.9873 12.4665 15.8737 12.2219V26.3126C15.8737 22.6255 12.7712 19.825 11.2199 18.8856L13.2145 17.682V15.4804Z" fill="#33363A"/>
<path d="M18.5277 15.4804C18.5277 13.4607 16.7549 12.4665 15.8684 12.2219V26.3126C15.8684 22.6255 18.971 19.825 20.5223 18.8856L18.5277 17.682V15.4804Z" fill="#33363A"/>
</svg>
