<svg width="24" height="27" viewBox="0 0 24 27" fill="none" xmlns="http://www.w3.org/2000/svg">
<path d="M5.64011 3.26995C8.02461 0.939354 11.0336 0.356705 12.2401 0.356705V8.02408C11.3012 8.02408 10.8553 8.46153 10.7498 8.68026C6.3214 6.84908 4.07883 3.33931 3.51109 1.81333C4.02206 2.47921 5.14334 3.06186 5.64011 3.26995Z" fill="#0077FF"/>
<path d="M18.6827 3.26995C16.2982 0.939354 13.2892 0.356705 12.0828 0.356705V8.02408C13.0216 8.02408 13.4675 8.46153 13.5731 8.68026C18.0014 6.84908 20.244 3.33931 20.8118 1.81333C20.3008 2.47921 19.1795 3.06186 18.6827 3.26995Z" fill="#0077FF"/>
<path d="M7.02415 8.08889C7.69573 8.5838 9.20728 9.63171 9.88086 9.8641C8.59836 10.2568 6.23151 10.4515 7.02415 8.08889Z" fill="#0077FF"/>
<path d="M5.81896 7.05605C5.39627 6.74619 4.66316 5.75423 4.34944 5.29698C3.12997 6.48888 2.99745 8.83835 3.08363 9.8641C3.08363 17.6074 1.60291 21.2247 0.862549 22.0655L3.99915 19.7232L6.12285 23.1509L8.59272 21.052L12.1714 26.8834V24.9618L10.9932 21.052C10.0288 16.8957 7.05368 15.0462 5.68669 14.641L8.59272 13.0272L8.69179 11.6877C4.76865 11.6877 5.14193 8.59994 5.81896 7.05605Z" fill="#0077FF"/>
<path d="M17.2977 8.08889C16.6262 8.5838 15.1146 9.63171 14.441 9.8641C15.7235 10.2568 18.0904 10.4515 17.2977 8.08889Z" fill="#0077FF"/>
<path d="M18.5029 7.05605C18.9256 6.74619 19.6587 5.75423 19.9724 5.29698C21.1919 6.48888 21.3244 8.83835 21.2382 9.8641C21.2382 17.6074 22.719 21.2247 23.4593 22.0655L20.3227 19.7232L18.199 23.1509L15.7292 21.052L12.1505 26.8834V24.9618L13.3287 21.052C14.2931 16.8957 17.2682 15.0462 18.6352 14.641L15.7292 13.0272L15.6301 11.6877C19.5532 11.6877 19.1799 8.59994 18.5029 7.05605Z" fill="#0077FF"/>
<path d="M10.25 12.0893C10.25 10.5586 11.5854 9.80514 12.253 9.61974V20.2991C12.253 17.5047 9.91611 15.3821 8.74764 14.6702L10.25 13.758V12.0893Z" fill="#0077FF"/>
<path d="M14.2521 12.0893C14.2521 10.5586 12.9167 9.80514 12.2491 9.61974V20.2991C12.2491 17.5047 14.586 15.3821 15.7544 14.6702L14.2521 13.758V12.0893Z" fill="#0077FF"/>
</svg>
