<svg width="27" height="21" viewBox="0 0 27 21" fill="none" xmlns="http://www.w3.org/2000/svg">
<path fill-rule="evenodd" clip-rule="evenodd" d="M23.7974 0.44526C24.1115 0.320281 24.4552 0.277176 24.7929 0.320432C25.1306 0.363689 25.4498 0.491725 25.7174 0.691215C25.985 0.890705 26.1911 1.15435 26.3143 1.45472C26.4376 1.75509 26.4734 2.0812 26.4181 2.3991L23.5356 18.9298C23.256 20.5244 21.4055 21.4388 19.8588 20.6446C18.565 19.9801 16.6433 18.9563 14.9149 17.888C14.0506 17.3533 11.4033 15.641 11.7286 14.4225C12.0082 13.3807 16.4565 9.46585 18.9984 7.1383C19.9961 6.22387 19.5411 5.69636 18.3629 6.53749C15.4372 8.62591 10.7399 11.8018 9.18678 12.6958C7.81671 13.4841 7.10245 13.6187 6.24838 13.4841C4.69022 13.2389 3.24517 12.8592 2.06574 12.3966C0.471994 11.7718 0.549521 9.70017 2.06447 9.09695L23.7974 0.44526Z" fill="#0077FF"/>
</svg>
