<svg width="34" height="27" viewBox="0 0 34 27" fill="none" xmlns="http://www.w3.org/2000/svg">
<path fill-rule="evenodd" clip-rule="evenodd" d="M30.4782 0.184715C30.8962 0.0211598 31.3538 -0.0352494 31.8032 0.0213583C32.2527 0.0779661 32.6776 0.245522 33.0337 0.506585C33.3899 0.767649 33.6642 1.11268 33.8283 1.50576C33.9923 1.89884 34.04 2.3256 33.9664 2.74162L30.1297 24.3747C29.7575 26.4614 27.2945 27.6581 25.2358 26.6187C23.5137 25.7491 20.9559 24.4093 18.6553 23.0113C17.505 22.3115 13.9813 20.0707 14.4143 18.4762C14.7865 17.1128 20.7072 11.9896 24.0905 8.94361C25.4185 7.74693 24.8129 7.0566 23.2447 8.15735C19.3505 10.8904 13.0982 15.0465 11.031 16.2165C9.20743 17.2481 8.25673 17.4242 7.11994 17.2481C5.04599 16.9273 3.12259 16.4303 1.55274 15.8249C-0.568582 15.0072 -0.465392 12.2962 1.55105 11.5068L30.4782 0.184715Z" fill="#33363A"/>
</svg>
