<svg width="115" height="115" viewBox="0 0 115 115" fill="none" xmlns="http://www.w3.org/2000/svg">
<g opacity="0.4">
<path d="M3.38235 111.618H0V115H3.38235V111.618ZM39.6006 80.1888C40.2357 79.5537 40.5925 78.6923 40.5925 77.7941C40.5925 76.8959 40.2357 76.0345 39.6006 75.3994C38.9655 74.7643 38.1041 74.4075 37.2059 74.4075C36.3077 74.4075 35.4463 74.7643 34.8112 75.3994L39.6006 80.1888ZM0 71.0294V111.618H6.76471V71.0294H0ZM3.38235 115H43.9706V108.235H3.38235V115ZM5.77706 114.012L39.6006 80.1888L34.8112 75.3994L0.987646 109.223L5.77706 114.012ZM111.618 3.38235H115V0H111.618V3.38235ZM75.3994 34.8112C75.0849 35.1257 74.8355 35.499 74.6653 35.9099C74.4951 36.3208 74.4075 36.7611 74.4075 37.2059C74.4075 37.6506 74.4951 38.091 74.6653 38.5019C74.8355 38.9128 75.0849 39.2861 75.3994 39.6006C75.7139 39.9151 76.0872 40.1645 76.4981 40.3347C76.909 40.5049 77.3494 40.5925 77.7941 40.5925C78.2389 40.5925 78.6792 40.5049 79.0901 40.3347C79.501 40.1645 79.8743 39.9151 80.1888 39.6006L75.3994 34.8112ZM115 43.9706V3.38235H108.235V43.9706H115ZM111.618 0H71.0294V6.76471H111.618V0ZM109.223 0.987646L75.3994 34.8112L80.1888 39.6006L114.012 5.77706L109.223 0.987646Z" fill="white"/>
<path d="M115 115H111.618H71.0294V108.235H103.446L75.3994 80.1888C74.7643 79.5537 74.4075 78.6923 74.4075 77.7941C74.4075 76.8959 74.7643 76.0345 75.3994 75.3994C76.0345 74.7643 76.8959 74.4075 77.7941 74.4075C78.6923 74.4075 79.5537 74.7643 80.1888 75.3994L108.235 103.446V71.0294H115V111.618V115Z" fill="#FF1D60"/>
<path d="M0 0H3.38235H43.9706V6.76471H11.5541L39.6006 34.8112C40.2357 35.4463 40.5925 36.3077 40.5925 37.2059C40.5925 38.1041 40.2357 38.9655 39.6006 39.6006C38.9655 40.2357 38.1041 40.5925 37.2059 40.5925C36.3077 40.5925 35.4463 40.2357 34.8112 39.6006L6.76471 11.5541V43.9706H0V3.38235V0Z" fill="#FF1D60"/>
</g>
</svg>
