<svg width="114" height="114" viewBox="0 0 114 114" fill="none" xmlns="http://www.w3.org/2000/svg">
<g opacity="0.4">
<path d="M5 47.8246H109ZM16.5556 46.7326L20.1031 31.7104C23.252 18.3636 24.8293 11.6845 29.5324 7.79605C32.6813 5.19604 34.2124 8.21783 38.7827 10.5001C44.5836 13.4005 51.3609 11.0952 57.1907 8.24672C63.0147 5.39248 74.368 3.88448 80.5098 5.97604C86.1489 7.90583 86.1893 10.3787 88.5467 15.8561C92.7818 25.6957 94.9831 36.3095 97.4444 46.7326" fill="white"/>
<path d="M5 47.8246H109M16.5556 46.7326L20.1031 31.7104C23.252 18.3636 24.8293 11.6845 29.5324 7.79605C32.6813 5.19604 34.2124 8.21783 38.7827 10.5001C44.5836 13.4005 51.3609 11.0952 57.1907 8.24672C63.0147 5.39248 74.368 3.88448 80.5098 5.97604C86.1489 7.90583 86.1893 10.3787 88.5467 15.8561C92.7818 25.6957 94.9831 36.3095 97.4444 46.7326" stroke="white" stroke-width="10" stroke-linecap="round" stroke-linejoin="round"/>
<path d="M45.4444 81.8097L49.2462 79.7932C51.6323 78.5197 54.2953 77.8534 57 77.8534C59.7047 77.8534 62.3677 78.5197 64.7538 79.7932L68.5556 81.8097M109 88.7777C109 94.141 106.869 99.2846 103.077 103.077C99.2846 106.869 94.141 109 88.7778 109C83.4145 109 78.2709 106.869 74.4785 103.077C70.6861 99.2846 68.5556 94.141 68.5556 88.7777C68.5556 83.4144 70.6861 78.2708 74.4785 74.4784C78.2709 70.686 83.4145 68.5554 88.7778 68.5554C94.141 68.5554 99.2846 70.686 103.077 74.4784C106.869 78.2708 109 83.4144 109 88.7777ZM45.4444 88.7777C45.4444 91.4334 44.9214 94.063 43.9051 96.5165C42.8889 98.9699 41.3993 101.199 39.5215 103.077C37.6437 104.955 35.4144 106.444 32.9609 107.461C30.5075 108.477 27.8778 109 25.2222 109C22.5666 109 19.937 108.477 17.4835 107.461C15.03 106.444 12.8008 104.955 10.923 103.077C9.04515 101.199 7.55559 98.9699 6.53932 96.5165C5.52306 94.063 5 91.4334 5 88.7777C5 83.4144 7.13055 78.2708 10.923 74.4784C14.7154 70.686 19.859 68.5554 25.2222 68.5554C30.5855 68.5554 35.7291 70.686 39.5215 74.4784C43.3139 78.2708 45.4444 83.4144 45.4444 88.7777Z" stroke="#FF1D60" stroke-width="10" stroke-linecap="round" stroke-linejoin="round"/>
</g>
</svg>
