<svg width="131" height="171" viewBox="0 0 131 171" fill="none" xmlns="http://www.w3.org/2000/svg">
<g opacity="0.4">
<path d="M118.646 23.0654L51.0316 4.94803C45.1451 3.37075 39.1367 6.83972 37.5594 12.7262L4.94823 134.433C3.37095 140.319 6.83992 146.328 12.7264 147.905L80.3412 166.022C86.2277 167.6 92.2361 164.131 93.8134 158.244L126.425 36.5376C128.002 30.6511 124.533 24.6426 118.646 23.0654Z" stroke="white" stroke-width="8"/>
<path d="M50.0708 127.028C51.4776 126.216 53.1494 125.996 54.7185 126.416C56.2876 126.837 57.6255 127.863 58.4377 129.27C59.2499 130.677 59.47 132.349 59.0496 133.918C58.6291 135.487 57.6026 136.825 56.1958 137.637C54.789 138.449 53.1171 138.669 51.548 138.249C49.9789 137.828 48.6411 136.802 47.8289 135.395C47.0166 133.988 46.7965 132.316 47.217 130.747C47.6374 129.178 48.664 127.84 50.0708 127.028Z" fill="white"/>
<path d="M50.4074 42.0508L65.1043 33.5655" stroke="#FF1D60" stroke-width="8" stroke-linecap="round"/>
<path d="M40.9323 100.593L94.821 69.4806" stroke="#FF1D60" stroke-width="8" stroke-linecap="round"/>
<path d="M66.4257 113.636L88.4711 100.908" stroke="#FF1D60" stroke-width="8" stroke-linecap="round"/>
<path d="M42.1251 72.9605L96.0139 41.8478" stroke="#FF1D60" stroke-width="8" stroke-linecap="round"/>
</g>
</svg>
