<svg width="199" height="199" viewBox="0 0 199 199" fill="none" xmlns="http://www.w3.org/2000/svg">
<path d="M193.09 163.058C194.326 158.946 195 154.575 195 150.059V48.9412C195 37.022 190.265 25.5911 181.837 17.163C173.409 8.73486 161.978 4 150.059 4H48.9412C37.022 4 25.5911 8.73486 17.163 17.163C8.73486 25.5911 4 37.022 4 48.9412V150.845C4.20622 162.628 9.03197 173.858 17.4378 182.116C25.8437 190.375 37.1571 195.002 48.9412 195H150.059L151.373 194.978M193.09 163.058L192.101 161.89L164.395 128.453C162.293 125.917 159.659 123.874 156.679 122.469C153.699 121.064 150.447 120.331 147.153 120.322C143.859 120.314 140.603 121.03 137.616 122.419C134.629 123.809 131.984 125.838 129.869 128.363L115.128 145.958L112.724 148.89M193.09 163.058C190.365 172.084 184.87 180.012 177.383 185.742C169.897 191.473 160.797 194.704 151.373 194.978M112.724 148.89L150.328 193.787L151.373 194.978M112.724 148.89L76.4676 105.601C74.3586 103.084 71.7234 101.059 68.7476 99.6705C65.7719 98.2816 62.5279 97.5618 59.2439 97.5618C55.96 97.5618 52.716 98.2816 49.7402 99.6705C46.7645 101.059 44.1293 103.084 42.0202 105.601L5.99988 148.598L4.01123 150.857" stroke="#FF1D60" stroke-width="8" stroke-linecap="round" stroke-linejoin="round"/>
<path d="M134.229 81.6253C143.537 81.6253 151.082 74.08 151.082 64.7723C151.082 55.4647 143.537 47.9194 134.229 47.9194C124.921 47.9194 117.376 55.4647 117.376 64.7723C117.376 74.08 124.921 81.6253 134.229 81.6253Z" fill="#FF1D60"/>
</svg>
