<svg width="24" height="31" viewBox="0 0 24 31" fill="none" xmlns="http://www.w3.org/2000/svg">
<path d="M5.07424 3.40452C7.60681 0.680904 10.8027 0 12.084 0V8.96037C11.0869 8.96037 10.6133 9.47159 10.5012 9.72721C5.79783 7.58722 3.41601 3.48558 2.81301 1.70226C3.35571 2.48044 4.54662 3.16134 5.07424 3.40452Z" fill="white"/>
<path d="M18.9268 3.40452C16.3942 0.680904 13.1983 0 11.917 0V8.96037C12.9141 8.96037 13.3877 9.47159 13.4998 9.72721C18.2032 7.58722 20.585 3.48558 21.188 1.70226C20.6453 2.48044 19.4544 3.16134 18.9268 3.40452Z" fill="white"/>
<path d="M6.54422 9.03611C7.25751 9.61448 8.86292 10.8391 9.57833 11.1107C8.21619 11.5696 5.70236 11.7972 6.54422 9.03611Z" fill="white"/>
<path d="M5.2642 7.82909C4.81525 7.46698 4.03662 6.30774 3.70342 5.77338C2.40822 7.16628 2.26748 9.91196 2.35901 11.1107C2.35901 20.1598 0.786336 24.3871 0 25.3696L3.33137 22.6323L5.58695 26.6381L8.2102 24.1852L12.0111 31V28.7544L10.7598 24.1852C9.73543 19.3281 6.57559 17.1667 5.12371 16.6932L8.2102 14.8072L8.31542 13.2418C4.14867 13.2418 4.54512 9.63334 5.2642 7.82909Z" fill="white"/>
<path d="M17.4558 9.03611C16.7425 9.61448 15.1371 10.8391 14.4217 11.1107C15.7838 11.5696 18.2976 11.7972 17.4558 9.03611Z" fill="white"/>
<path d="M18.7358 7.82909C19.1847 7.46698 19.9634 6.30774 20.2966 5.77338C21.5918 7.16628 21.7325 9.91196 21.641 11.1107C21.641 20.1598 23.2137 24.3871 24 25.3696L20.6686 22.6323L18.413 26.6381L15.7898 24.1852L11.9889 31V28.7544L13.2402 24.1852C14.2646 19.3281 17.4244 17.1667 18.8763 16.6932L15.7898 14.8072L15.6846 13.2418C19.8513 13.2418 19.4549 9.63334 18.7358 7.82909Z" fill="white"/>
<path d="M9.97041 13.7112C9.97041 11.9223 11.3887 11.0418 12.0978 10.8251V23.3054C12.0978 20.0397 9.61577 17.5593 8.37475 16.7273L9.97041 15.6612V13.7112Z" fill="white"/>
<path d="M14.221 13.7112C14.221 11.9223 12.8027 11.0418 12.0936 10.8251V23.3054C12.0936 20.0397 14.5756 17.5593 15.8167 16.7273L14.221 15.6612V13.7112Z" fill="white"/>
</svg>
