<svg width="29" height="23" viewBox="0 0 29 23" fill="none" xmlns="http://www.w3.org/2000/svg">
<path fill-rule="evenodd" clip-rule="evenodd" d="M25.6119 0.156373C25.9632 0.017913 26.3477 -0.0298408 26.7254 0.0180811C27.1031 0.066003 27.4602 0.207849 27.7594 0.428855C28.0587 0.649862 28.2893 0.941948 28.4271 1.27471C28.5649 1.60748 28.605 1.96876 28.5432 2.32095L25.3191 20.6346C25.0063 22.4012 22.9366 23.4143 21.2065 22.5343C19.7594 21.7981 17.61 20.6639 15.6767 19.4805C14.71 18.8881 11.749 16.9911 12.1129 15.6412C12.4256 14.487 17.401 10.1499 20.2441 7.57131C21.3601 6.55825 20.8511 5.97384 19.5334 6.9057C16.261 9.21937 11.0069 12.7378 9.26977 13.7282C7.73734 14.6015 6.93843 14.7506 5.98315 14.6015C4.24033 14.33 2.62402 13.9093 1.30482 13.3968C-0.4778 12.7045 -0.391086 10.4095 1.3034 9.74121L25.6119 0.156373Z" fill="white"/>
</svg>
