<svg width="139" height="65" viewBox="0 0 139 65" fill="none" xmlns="http://www.w3.org/2000/svg">
<rect width="139" height="65" rx="25" fill="white"/>
<path d="M56.9758 32.766C57.8804 32.9347 58.6241 33.387 59.2068 34.123C59.7894 34.859 60.0808 35.7023 60.0808 36.653C60.0808 37.5117 59.8661 38.2707 59.4368 38.93C59.0228 39.574 58.4171 40.08 57.6198 40.448C56.8224 40.816 55.8794 41 54.7908 41H47.8678V24.946H54.4918C55.5804 24.946 56.5158 25.1223 57.2978 25.475C58.0951 25.8277 58.6931 26.3183 59.0918 26.947C59.5058 27.5757 59.7128 28.2887 59.7128 29.086C59.7128 30.0213 59.4598 30.8033 58.9538 31.432C58.4631 32.0607 57.8038 32.5053 56.9758 32.766ZM51.0878 31.57H54.0318C54.7984 31.57 55.3888 31.4013 55.8028 31.064C56.2168 30.7113 56.4238 30.213 56.4238 29.569C56.4238 28.925 56.2168 28.4267 55.8028 28.074C55.3888 27.7213 54.7984 27.545 54.0318 27.545H51.0878V31.57ZM54.3308 38.378C55.1128 38.378 55.7184 38.194 56.1478 37.826C56.5924 37.458 56.8148 36.9367 56.8148 36.262C56.8148 35.572 56.5848 35.0353 56.1248 34.652C55.6648 34.2533 55.0438 34.054 54.2618 34.054H51.0878V38.378H54.3308ZM65.8211 24.946V34.882C65.8211 35.9707 66.1047 36.8063 66.6721 37.389C67.2394 37.9563 68.0367 38.24 69.0641 38.24C70.1067 38.24 70.9117 37.9563 71.4791 37.389C72.0464 36.8063 72.3301 35.9707 72.3301 34.882V24.946H75.5731V34.859C75.5731 36.2237 75.2741 37.3813 74.6761 38.332C74.0934 39.2673 73.3037 39.9727 72.3071 40.448C71.3257 40.9233 70.2294 41.161 69.0181 41.161C67.8221 41.161 66.7334 40.9233 65.7521 40.448C64.7861 39.9727 64.0194 39.2673 63.4521 38.332C62.8847 37.3813 62.6011 36.2237 62.6011 34.859V24.946H65.8211ZM91.4492 24.946L86.0212 35.411V41H82.8012V35.411L77.3502 24.946H80.9842L84.4342 32.283L87.8612 24.946H91.4492Z" fill="black"/>
</svg>
