<svg width="40" height="47" viewBox="0 0 40 47" fill="none" xmlns="http://www.w3.org/2000/svg">
<path d="M8.27064 5.15989C12.3986 1.03198 17.6076 0 19.6961 0V13.5803C18.0709 13.5803 17.299 14.3551 17.1162 14.7425C9.45005 11.4992 5.56784 5.28275 4.585 2.57995C5.46956 3.75935 7.41066 4.79133 8.27064 5.15989Z" fill="white"/>
<path d="M30.8493 5.15989C26.7214 1.03198 21.5123 0 19.4238 0V13.5803C21.0491 13.5803 21.821 14.3551 22.0038 14.7425C29.6699 11.4992 33.5521 5.28275 34.5349 2.57995C33.6504 3.75935 31.7093 4.79133 30.8493 5.15989Z" fill="white"/>
<path d="M10.6666 13.6951C11.8292 14.5717 14.4459 16.4277 15.612 16.8393C13.3918 17.5349 9.29444 17.8798 10.6666 13.6951Z" fill="white"/>
<path d="M8.58026 11.8658C7.84852 11.317 6.5794 9.56 6.0363 8.75013C3.92522 10.8612 3.69582 15.0226 3.84501 16.8393C3.84501 30.5541 1.28167 36.9611 0 38.4502L5.4299 34.3016L9.10633 40.3727L13.382 36.6551L19.5772 46.9836V43.5802L17.5377 36.6551C15.868 29.2937 10.7177 26.0179 8.35128 25.3001L13.382 22.4418L13.5535 20.0693C6.76203 20.0693 7.40822 14.6003 8.58026 11.8658Z" fill="white"/>
<path d="M28.4517 13.6951C27.2891 14.5717 24.6723 16.4277 23.5063 16.8393C25.7265 17.5349 29.8238 17.8798 28.4517 13.6951Z" fill="white"/>
<path d="M30.538 11.8658C31.2697 11.317 32.5389 9.56 33.082 8.75013C35.193 10.8612 35.4224 15.0226 35.2733 16.8393C35.2733 30.5541 37.8366 36.9611 39.1183 38.4502L33.6884 34.3016L30.0119 40.3727L25.7362 36.6551L19.541 46.9836V43.5802L21.5806 36.6551C23.2502 29.2937 28.4005 26.0179 30.767 25.3001L25.7362 22.4418L25.5647 20.0693C32.3562 20.0693 31.71 14.6003 30.538 11.8658Z" fill="white"/>
<path d="M16.251 20.7807C16.251 18.0695 18.5627 16.7349 19.7186 16.4065V35.3217C19.7186 30.3722 15.673 26.6128 13.6502 25.3518L16.251 23.7361V20.7807Z" fill="white"/>
<path d="M23.1792 20.7807C23.1792 18.0695 20.8675 16.7349 19.7117 16.4065V35.3217C19.7117 30.3722 23.7572 26.6128 25.78 25.3518L23.1792 23.7361V20.7807Z" fill="white"/>
</svg>
