<svg width="46" height="46" viewBox="0 0 46 46" fill="none" xmlns="http://www.w3.org/2000/svg">
<path fill-rule="evenodd" clip-rule="evenodd" d="M14.5798 27.1989C15.3173 26.4613 15.3173 25.2655 14.5798 24.528C13.8422 23.7905 12.6465 23.7905 11.9089 24.528L9.53863 26.8983C6.61374 29.8232 6.70663 34.5932 9.74317 37.402C10.5089 38.1103 11.7037 38.0637 12.412 37.298C13.1203 36.5323 13.0737 35.3375 12.308 34.6292C10.8452 33.2761 10.8005 30.9782 12.2095 29.5691L14.5798 27.1989ZM31.4202 28.7494L17.2506 14.5798L25.1186 6.71178C29.0315 2.79896 35.3754 2.79896 39.2882 6.71178C43.201 10.6246 43.201 16.9685 39.2882 20.8814L31.4202 28.7494ZM41.9591 4.04092C36.5712 -1.34698 27.8357 -1.34697 22.4478 4.04093L4.04092 22.4478C-1.34697 27.8357 -1.34698 36.5712 4.04092 41.9591C9.42881 47.347 18.1643 47.347 23.5522 41.9591L41.9591 23.5522C47.347 18.1643 47.347 9.42881 41.9591 4.04092ZM14.5798 17.2506L28.7494 31.4202L20.8814 39.2882C16.9685 43.201 10.6246 43.201 6.71178 39.2882C2.79896 35.3754 2.79896 29.0315 6.71178 25.1186L14.5798 17.2506Z" fill="white"/>
</svg>
