<svg width="46" height="37" viewBox="0 0 46 37" fill="none" xmlns="http://www.w3.org/2000/svg">
<path fill-rule="evenodd" clip-rule="evenodd" d="M41.2352 0.253128C41.8008 0.0289967 42.4198 -0.0483048 43.0279 0.0292688C43.636 0.106842 44.2108 0.336456 44.6927 0.69421C45.1745 1.05196 45.5457 1.52478 45.7676 2.06344C45.9896 2.60211 46.0541 3.18693 45.9545 3.75704L40.7637 33.4023C40.2602 36.2619 36.9279 37.9018 34.1425 36.4774C31.8126 35.2857 28.3521 33.4497 25.2395 31.534C23.6832 30.5751 18.9158 27.5043 19.5017 25.3192C20.0052 23.4509 28.0157 16.4301 32.5931 12.2561C34.3897 10.6162 33.5703 9.67015 31.4487 11.1786C26.1801 14.9239 17.7211 20.6193 14.9243 22.2226C12.4571 23.6362 11.1709 23.8776 9.63286 23.6362C6.82692 23.1966 4.22468 22.5157 2.10077 21.686C-0.769258 20.5655 -0.629648 16.8504 2.09848 15.7686L41.2352 0.253128Z" fill="white"/>
</svg>
