<svg width="23" height="25" viewBox="0 0 23 25" fill="none" xmlns="http://www.w3.org/2000/svg">
<path d="M2.90607 1.60647C2.85346 2.48711 2.98265 3.36914 3.28559 4.1977C3.58853 5.02625 4.05875 5.7836 4.66698 6.42261C3.4848 6.76156 2.4264 7.43631 1.62018 8.365C0.813971 9.29369 0.294604 10.4364 0.125097 11.6545C-0.283652 14.5776 0.316012 17.5527 1.8252 20.0892L2.25953 20.8214C2.276 20.8483 2.29381 20.8744 2.3129 20.8996L4.07008 23.2648C4.44227 23.7661 4.91924 24.1803 5.4678 24.4784C6.01636 24.7766 6.62331 24.9516 7.2464 24.9913C7.86949 25.031 8.49375 24.9344 9.0757 24.7082C9.65766 24.4821 10.1833 24.1318 10.6161 23.6818C10.6667 23.6291 10.7274 23.5873 10.7946 23.5587C10.8618 23.5301 10.934 23.5153 11.007 23.5153C11.08 23.5153 11.1523 23.5301 11.2194 23.5587C11.2866 23.5873 11.3473 23.6291 11.3979 23.6818C11.8307 24.1318 12.3564 24.4821 12.9383 24.7082C13.5203 24.9344 14.1445 25.031 14.7676 24.9913C15.3907 24.9516 15.9977 24.7766 16.5462 24.4784C17.0948 24.1803 17.5717 23.7661 17.9439 23.2648L19.7011 20.8983C19.7198 20.8732 19.7372 20.8471 19.7532 20.8201L20.1888 20.088C21.6987 17.5526 22.2997 14.5784 21.8926 11.6557C21.7725 10.7945 21.4768 9.96712 21.024 9.2248C20.5712 8.48247 19.9708 7.841 19.26 7.34009C18.5493 6.83917 17.7432 6.48949 16.8919 6.31267C16.0405 6.13586 15.1619 6.13569 14.3104 6.31216L11.9514 6.8011H11.9476C11.9849 5.83316 12.1363 4.79076 12.4329 3.89975C12.7927 2.82261 13.2916 2.17483 13.8475 1.94401C14.0755 1.8489 14.2563 1.66714 14.3502 1.43872C14.4441 1.2103 14.4434 0.953934 14.3483 0.726018C14.2532 0.498102 14.0714 0.317305 13.843 0.223401C13.6146 0.129497 13.3582 0.130178 13.1303 0.225294C11.8248 0.770072 11.0827 2.0619 10.667 3.3103L10.6099 3.48652C10.3043 2.89601 9.9096 2.35608 9.43968 1.88569C8.7961 1.24138 8.02298 0.741139 7.17152 0.418098C6.32007 0.0950577 5.40969 -0.0434147 4.50069 0.0118503C4.08586 0.035728 3.69422 0.211031 3.40005 0.504506C3.10589 0.79798 2.92968 1.18921 2.90483 1.60399L2.90607 1.60647ZM6.5371 11.3045C6.10649 11.3901 5.71186 11.6929 5.46491 12.27C5.213 12.8582 5.12365 13.7306 5.39542 14.8189C5.45129 15.0569 5.41126 15.3074 5.28398 15.5161C5.1567 15.7248 4.95239 15.8751 4.71521 15.9345C4.47803 15.9938 4.22703 15.9574 4.01645 15.8332C3.80587 15.709 3.65262 15.5069 3.58983 15.2706C3.24237 13.8782 3.30814 12.5777 3.75364 11.5366C4.20411 10.4855 5.05044 9.70244 6.17226 9.47907C6.29383 9.45037 6.41994 9.44644 6.54307 9.46751C6.6662 9.48859 6.78383 9.53423 6.88895 9.60172C6.99406 9.66922 7.08451 9.75718 7.15491 9.86037C7.22532 9.96356 7.27422 10.0799 7.29872 10.2024C7.32322 10.3249 7.32281 10.451 7.29751 10.5734C7.27222 10.6957 7.22255 10.8117 7.15148 10.9144C7.08041 11.0171 6.98939 11.1045 6.88384 11.1713C6.77828 11.2381 6.66036 11.2842 6.5371 11.3045Z" fill="#FFC300"/>
</svg>
