<svg width="30" height="30" viewBox="0 0 30 30" fill="none" xmlns="http://www.w3.org/2000/svg">
<path fill-rule="evenodd" clip-rule="evenodd" d="M15.705 4.82715C15.3228 4.83171 14.9471 4.92698 14.6088 5.10512L1.96523 11.7773C1.62628 11.9564 1.32751 12.2028 1.08727 12.5015C0.687002 13 0.468807 13.6201 0.46875 14.2593V15.0206C0.468724 15.357 0.515742 15.6918 0.608437 16.0153C0.745333 16.4922 0.979106 16.9358 1.29516 17.3184C1.61548 17.7061 2.01328 18.0225 2.46305 18.2475L10.3195 22.1756C10.2481 22.6515 10.3088 23.1379 10.4951 23.5816C10.593 23.8139 10.7245 24.0306 10.8853 24.2247C11.1531 24.5487 11.4948 24.8037 11.8816 24.9682C12.2025 25.1042 12.5475 25.1738 12.896 25.1728C13.0723 25.1727 13.2482 25.1551 13.421 25.12C13.7544 25.0521 14.071 24.9188 14.3527 24.7279C14.7714 24.445 15.0993 24.0468 15.2967 23.5816C15.3976 23.3433 15.4621 23.0912 15.488 22.8337C15.5121 22.5952 15.5037 22.3546 15.4631 22.1184L25.1147 17.0245C25.2914 17.1952 25.4911 17.3403 25.7081 17.4555C26.1634 17.6962 26.6798 17.7963 27.1919 17.7433C27.4493 17.7171 27.7013 17.6526 27.9396 17.5521C28.172 17.4542 28.3888 17.3227 28.583 17.1618C28.907 16.894 29.1619 16.5524 29.3264 16.1655C29.4274 15.9272 29.492 15.6751 29.5179 15.4176C29.5535 15.0671 29.5182 14.7129 29.4141 14.3763C29.3135 14.0539 29.1512 13.7542 28.9362 13.4939C28.6684 13.1699 28.3267 12.9149 27.9398 12.7504C27.6191 12.6143 27.2741 12.5446 26.9257 12.5456C26.7493 12.5457 26.5733 12.5635 26.4005 12.5986C25.9843 12.6837 25.5955 12.8698 25.2682 13.1407C24.9442 13.4085 24.6892 13.7501 24.5248 14.137C24.3887 14.4577 24.319 14.8027 24.3199 15.1511C24.3197 15.3049 24.3331 15.4584 24.3602 15.6098L14.7138 20.7009C14.5368 20.5286 14.3364 20.3822 14.1185 20.2659C13.7422 20.0655 13.3222 19.961 12.8958 19.9617C12.7174 19.9618 12.5394 19.9799 12.3647 20.0158C12.0276 20.0853 11.7078 20.2216 11.4241 20.4166C11.2847 20.512 11.1549 20.6209 11.0367 20.7417L3.2925 16.8696C3.01917 16.7327 2.77719 16.5407 2.58185 16.3056C2.38652 16.0705 2.24208 15.7974 2.15766 15.5036C2.10084 15.3057 2.07204 15.1009 2.07211 14.895C2.07216 14.7693 2.08798 14.6442 2.11922 14.5225C2.17875 14.2938 2.29406 14.0834 2.45484 13.9101C2.57199 13.7835 2.71041 13.6784 2.86383 13.5996C3.01803 13.5205 3.18495 13.4691 3.35695 13.4479C3.59731 13.4189 3.8411 13.4514 4.06547 13.5424L11.7902 17.4046C12.1323 17.5755 12.5101 17.6624 12.8924 17.6582C13.2747 17.654 13.6505 17.5588 13.9887 17.3805L26.2917 10.8871C26.3459 10.8582 26.3932 10.8241 26.4335 10.7847C26.5118 10.7086 26.5672 10.612 26.5936 10.5061C26.633 10.3497 26.6092 10.1841 26.5275 10.045C26.4992 9.99774 26.4644 9.95465 26.4241 9.91707C26.3811 9.8771 26.3326 9.84355 26.28 9.81746L16.8073 5.08121C16.4652 4.91062 16.0875 4.8237 15.7052 4.82762L15.705 4.82715ZM26.9257 14.1492C27.0596 14.1493 27.1922 14.176 27.3157 14.2279C27.4949 14.3036 27.6482 14.4298 27.7568 14.5912C27.8316 14.7017 27.8834 14.8261 27.9093 14.957C27.9352 15.088 27.9346 15.2227 27.9075 15.3534C27.8816 15.4817 27.8304 15.6035 27.7568 15.7118C27.6479 15.8728 27.4947 15.9989 27.3157 16.0748C27.1924 16.1273 27.0597 16.1541 26.9257 16.1536C26.7918 16.1535 26.6592 16.1267 26.5357 16.0748C26.3565 15.9992 26.2032 15.8729 26.0946 15.7115C25.9829 15.5461 25.9232 15.351 25.9232 15.1514C25.9232 14.9517 25.9829 14.7566 26.0946 14.5912C26.2415 14.3741 26.4671 14.2228 26.7237 14.1693C26.7891 14.1561 26.8565 14.1493 26.9257 14.1492ZM12.8962 21.5655C13.0302 21.5656 13.1628 21.5924 13.2862 21.6443C13.4655 21.7199 13.6187 21.8462 13.7273 22.0075C13.8209 22.1456 13.8783 22.3049 13.8944 22.4709C13.9106 22.6368 13.8849 22.8042 13.8197 22.9577C13.744 23.1368 13.6178 23.29 13.4564 23.3986C13.2637 23.5289 13.0316 23.5881 12.8 23.5657C12.5685 23.5434 12.3519 23.441 12.1877 23.2762C12.0963 23.1848 12.0234 23.0767 11.9728 22.9577C11.9203 22.8344 11.8935 22.7017 11.8941 22.5677C11.8941 22.4337 11.9209 22.301 11.9728 22.1775C12.0234 22.0585 12.0963 21.9504 12.1877 21.8589C12.2792 21.7676 12.3873 21.6947 12.5062 21.6443C12.6295 21.5917 12.7622 21.5649 12.8962 21.5655Z" fill="#FFC300"/>
</svg>
