<svg width="29" height="25" viewBox="0 0 29 25" fill="none" xmlns="http://www.w3.org/2000/svg">
<path d="M0 8.92857C0 6.95871 1.60156 5.35714 3.57143 5.35714H3.66071C4.07366 3.32031 5.87612 1.78571 8.03571 1.78571C8.87277 1.78571 9.65402 2.01451 10.3181 2.41071C11.0603 0.982143 12.5614 0 14.2857 0C16.01 0 17.5112 0.982143 18.2533 2.41071C18.9174 2.01451 19.6987 1.78571 20.5357 1.78571C22.6953 1.78571 24.4978 3.32031 24.9107 5.35714H25C26.9699 5.35714 28.5714 6.95871 28.5714 8.92857C28.5714 9.58147 28.3984 10.1897 28.0915 10.7143H0.479911C0.172991 10.1897 0 9.58147 0 8.92857ZM0 14.029C0 13.1864 0.686384 12.5 1.52902 12.5H27.0424C27.885 12.5 28.5714 13.1864 28.5714 14.029C28.5714 17.9632 26.0937 21.3225 22.6172 22.6283L22.5167 23.4375C22.4051 24.3304 21.6462 25 20.7422 25H7.82366C6.92522 25 6.16071 24.3304 6.04911 23.4375L5.94866 22.6339C2.47768 21.3225 0 17.9632 0 14.029Z" fill="#FFC300"/>
</svg>
