<svg width="23" height="25" viewBox="0 0 23 25" fill="none" xmlns="http://www.w3.org/2000/svg">
<path d="M2.63393 2.5L3.22768 7.96875C4.29018 7.40625 5.38935 6.97917 6.52518 6.6875C7.66101 6.39583 8.82226 6.25 10.0089 6.25C10.6339 6.25 11.2539 6.29167 11.8689 6.375C12.4839 6.45833 13.0931 6.58333 13.6964 6.75C14.7381 7.04167 15.5352 7.23958 16.0877 7.34375C16.6402 7.44792 17.2285 7.5 17.8527 7.5H19.0089L19.5402 2.5H2.63393ZM4.85268 25C4.20685 25 3.64435 24.7917 3.16518 24.375C2.68601 23.9583 2.41518 23.4271 2.35268 22.7812L0.00892857 1.375C-0.0327381 1 0.0714286 0.677083 0.321429 0.40625C0.571429 0.135417 0.883929 0 1.25893 0H20.9464C21.3214 0 21.6339 0.135417 21.8839 0.40625C22.1339 0.677083 22.2381 1 22.1964 1.375L19.8527 22.7812C19.7902 23.4271 19.5193 23.9583 19.0402 24.375C18.561 24.7917 17.9985 25 17.3527 25H4.85268Z" fill="#FFC300"/>
</svg>
