<svg width="62" height="62" viewBox="0 0 62 62" fill="none" xmlns="http://www.w3.org/2000/svg">
<rect x="1" y="1" width="60" height="60" rx="30" fill="white" fill-opacity="0.4"/>
<rect x="1" y="1" width="60" height="60" rx="30" stroke="url(#paint0_linear_0_2222)"/>
<g clip-path="url(#clip0_0_2222)">
<path fill-rule="evenodd" clip-rule="evenodd" d="M43.9 16H36.15C35.2944 16 34.6 16.6944 34.6 17.55C34.6 18.4056 35.2944 19.1 36.15 19.1H42.35C43.2056 19.1 43.9 19.7944 43.9 20.65V26.85C43.9 27.7056 44.5944 28.4 45.45 28.4C46.3056 28.4 47 27.7056 47 26.85V19.1C47 17.3872 45.6127 16 43.9 16ZM47 43.9V36.15C47 35.2944 46.3056 34.6 45.45 34.6C44.5944 34.6 43.9 35.2944 43.9 36.15V42.35C43.9 43.2056 43.2056 43.9 42.35 43.9H36.15C35.2944 43.9 34.6 44.5944 34.6 45.45C34.6 46.3056 35.2944 47 36.15 47H43.9C45.6127 47 47 45.6127 47 43.9ZM25.3 39.25C25.3 38.3944 24.6056 37.7 23.75 37.7H20.65C19.7944 37.7 19.1 38.3944 19.1 39.25V42.35C19.1 43.2056 19.7944 43.9 20.65 43.9H23.75C24.6056 43.9 25.3 43.2056 25.3 42.35V39.25ZM28.4 43.9C28.4 45.6127 27.0127 47 25.3 47H19.1C17.3872 47 16 45.6127 16 43.9V37.7C16 35.9872 17.3872 34.6 19.1 34.6H25.3C27.0127 34.6 28.4 35.9872 28.4 37.7V43.9ZM16 26.85V19.1C16 17.3872 17.3872 16 19.1 16H26.85C27.7056 16 28.4 16.6944 28.4 17.55C28.4 18.4056 27.7056 19.1 26.85 19.1H20.65C19.7944 19.1 19.1 19.7944 19.1 20.65V26.85C19.1 27.7056 18.4056 28.4 17.55 28.4C16.6944 28.4 16 27.7056 16 26.85Z" fill="white"/>
</g>
<defs>
<linearGradient id="paint0_linear_0_2222" x1="1.49805" y1="1" x2="61.498" y2="61" gradientUnits="userSpaceOnUse">
<stop offset="0.138693" stop-color="white"/>
<stop offset="0.414413" stop-color="white" stop-opacity="0"/>
</linearGradient>
<clipPath id="clip0_0_2222">
<rect width="31" height="31" fill="white" transform="translate(16 16)"/>
</clipPath>
</defs>
</svg>
