<svg width="62" height="61" viewBox="0 0 62 61" fill="none" xmlns="http://www.w3.org/2000/svg">
<rect x="1" y="0.5" width="60" height="60" rx="30" fill="white" fill-opacity="0.4"/>
<rect x="1" y="0.5" width="60" height="60" rx="30" stroke="url(#paint0_linear_0_2238)"/>
<g clip-path="url(#clip0_0_2238)">
<path fill-rule="evenodd" clip-rule="evenodd" d="M35.9914 23.813H26.0086C20.9464 23.813 18.4153 23.813 16.9935 25.2932C15.5717 26.7735 15.9062 29.0605 16.5753 33.6343L17.2097 37.9717C17.7344 41.5585 17.9967 43.3519 19.3425 44.4258C20.6883 45.4998 22.6732 45.4999 26.643 45.4999H35.3569C39.3268 45.4999 41.3118 45.4998 42.6576 44.4258C44.0033 43.3519 44.2656 41.5585 44.7903 37.9717L45.4248 33.6343C46.0938 29.0605 46.4282 26.7735 45.0065 25.2932C43.5847 23.813 41.0536 23.813 35.9914 23.813ZM34.8718 36.1913C35.7094 35.672 35.7094 34.3279 34.8718 33.8086L29.8144 30.6734C29.0004 30.1688 28 30.8257 28 31.8647V38.1352C28 39.1742 29.0004 39.8311 29.8144 39.3265L34.8718 36.1913Z" fill="white"/>
<path opacity="0.4" d="M25.7643 15.5H36.2345C36.5831 15.4999 36.8506 15.4999 37.0843 15.5227C38.746 15.6853 40.1062 16.6844 40.6829 18.0302H21.3159C21.8927 16.6844 23.2528 15.6853 24.9145 15.5227C25.1483 15.4999 25.4156 15.4999 25.7643 15.5Z" fill="white"/>
<path opacity="0.7" d="M22.4653 19.584C20.3794 19.584 18.669 20.8436 18.0982 22.5147C18.0863 22.5495 18.0749 22.5845 18.064 22.6197C18.6612 22.4388 19.2827 22.3207 19.9119 22.24C21.5325 22.0323 23.5805 22.0324 25.9595 22.0325H36.2977C38.6767 22.0324 40.7248 22.0323 42.3452 22.24C42.9745 22.3207 43.5961 22.4388 44.1932 22.6197C44.1824 22.5845 44.1709 22.5495 44.159 22.5147C43.5883 20.8436 41.8778 19.584 39.7919 19.584H22.4653Z" fill="white"/>
</g>
<defs>
<linearGradient id="paint0_linear_0_2238" x1="1.49805" y1="0.5" x2="61.498" y2="60.5" gradientUnits="userSpaceOnUse">
<stop offset="0.138693" stop-color="white"/>
<stop offset="0.414413" stop-color="white" stop-opacity="0"/>
</linearGradient>
<clipPath id="clip0_0_2238">
<rect width="36" height="36" fill="white" transform="translate(13.498 12.5)"/>
</clipPath>
</defs>
</svg>
