<svg width="398" height="286" viewBox="0 0 398 286" fill="none" xmlns="http://www.w3.org/2000/svg">
<path d="M272.206 155.828L272.208 155.829L272.611 156.218L272.613 156.22C276.571 159.945 281.694 161.793 288.918 162.715C296.132 163.636 305.479 163.636 317.909 163.636H317.928C340.333 163.636 357.11 163.636 369.233 165.332C381.36 167.029 388.746 170.411 392.47 177.1L392.47 177.1C392.594 177.321 392.713 177.547 392.832 177.775C396.346 184.563 394.94 192.303 389.36 202.787C383.78 213.271 374.067 226.42 361.094 243.982L299.278 327.671C279.293 354.725 264.32 374.995 252.014 387.79C239.693 400.602 230.137 405.82 220.972 403.009C211.813 400.2 207.168 390.636 204.837 373.332C202.51 356.051 202.51 331.19 202.51 298.006L202.512 291.754V291.733C202.512 279.785 202.512 270.796 201.554 263.858C200.595 256.908 198.67 251.979 194.794 248.172L194.792 248.17L194.388 247.783L194.386 247.781C190.429 244.056 185.306 242.208 178.082 241.286C170.867 240.366 161.52 240.366 149.091 240.366H149.071C126.666 240.366 109.89 240.366 97.7668 238.669C85.6405 236.972 78.2546 233.589 74.5299 226.9L74.5297 226.9C74.4056 226.678 74.2851 226.454 74.1683 226.227L74.1679 226.226C70.6542 219.438 72.0596 211.698 77.6402 201.214C83.22 190.731 92.9319 177.582 105.905 160.018L167.722 76.3294C187.705 49.2746 202.678 29.0049 214.984 16.2099C227.305 3.39824 236.86 -1.81954 246.026 0.990708C255.184 3.79937 259.83 13.3638 262.16 30.6675C264.487 47.9486 264.488 72.8088 264.488 105.992V112.248V112.269C264.488 124.216 264.488 133.204 265.446 140.142C266.405 147.092 268.33 152.021 272.206 155.828Z" fill="url(#paint0_linear_12_1395)" fill-opacity="0.25" stroke="url(#paint1_linear_12_1395)" stroke-width="0.5"/>
<g opacity="0.26" filter="url(#filter0_f_12_1395)">
<path d="M21.8563 79.9684L6.45204 80V77.6325L13.8069 71.2878C17.5002 68.0996 18.5419 66.5528 18.5419 64.1223C18.5419 61.2497 16.9004 59.5452 14.1542 59.5452C11.3448 59.5452 9.51395 61.597 9.45082 64.8483H6.35734C6.45204 59.9555 9.54552 56.7673 14.1857 56.7673C18.7628 56.7673 21.6985 59.5452 21.6985 63.9329C21.6985 67.1842 20.0886 69.4885 16.0481 72.9923L11.3132 77.0959H21.8563V79.9684ZM36.9017 80H33.9345V64.5642H36.5861L36.8702 66.5844C37.6593 65.1324 39.3008 64.1223 41.4788 64.1223C43.8778 64.1223 45.5824 65.3218 46.3716 67.2473C47.0976 65.3218 48.96 64.1223 51.359 64.1223C54.8944 64.1223 57.0409 66.3319 57.0409 69.8988V80H54.1368V70.6249C54.1368 68.1943 52.7795 66.8054 50.6961 66.8054C48.4549 66.8054 46.9713 68.3837 46.9713 70.8458V80H44.0357V70.5933C44.0357 68.1627 42.7099 66.8369 40.6265 66.8369C38.3853 66.8369 36.9017 68.3837 36.9017 70.8458V80ZM62.6062 60.9025C61.5329 60.9025 60.6491 60.0187 60.6491 58.9454C60.6491 57.8406 61.5329 56.9883 62.6062 56.9883C63.6794 56.9883 64.5633 57.8406 64.5633 58.9454C64.5633 60.0187 63.6794 60.9025 62.6062 60.9025ZM61.1541 80V64.5642H64.1213V80H61.1541ZM71.3963 80H68.4291V64.5642H71.1122L71.4279 66.9316C72.4064 65.1639 74.3635 64.1223 76.5416 64.1223C80.6136 64.1223 82.476 66.616 82.476 70.5617V80H79.5088V71.2246C79.5088 68.0996 78.0568 66.8369 75.784 66.8369C73.0062 66.8369 71.3963 68.8256 71.3963 71.8244V80ZM85.1382 75.5176H87.9791C87.9791 77.0959 89.1787 78.0429 91.1358 78.0429C93.2191 78.0429 94.4186 77.1906 94.4186 75.7701C94.4186 74.7285 93.9136 74.0971 92.3037 73.6868L89.589 73.0555C86.8428 72.3926 85.5486 71.0352 85.5486 68.7625C85.5486 65.9215 87.9476 64.1223 91.3567 64.1223C94.7343 64.1223 96.9439 66.0162 97.007 68.9519H94.1661C94.103 67.4051 93.0613 66.4266 91.262 66.4266C89.3996 66.4266 88.3579 67.2473 88.3579 68.6678C88.3579 69.7095 89.1155 70.4039 90.6307 70.7827L93.3454 71.4456C95.9654 72.0769 97.2596 73.2764 97.2596 75.5807C97.2596 78.5164 94.7343 80.3788 91.0726 80.3788C87.4425 80.3788 85.1382 78.4533 85.1382 75.5176ZM115.116 68.1943H112.843V66.1425L119.314 59.924H109.055V57.1777H123.228V59.6714L116.978 65.6374C120.861 66.1109 123.797 68.7309 123.797 72.8345C123.797 77.4431 120.324 80.3788 115.684 80.3788C111.202 80.3788 107.982 77.6325 107.982 72.8976H111.044C111.044 75.8648 112.875 77.601 115.747 77.601C118.714 77.601 120.64 75.707 120.64 72.7714C120.64 70.0251 118.746 68.1943 115.116 68.1943ZM125.722 57.1777H141.662V60.0187L133.013 80H129.794L138.537 60.0187H125.722V57.1777ZM151.384 75.5176H154.225C154.225 77.0959 155.424 78.0429 157.381 78.0429C159.465 78.0429 160.664 77.1906 160.664 75.7701C160.664 74.7285 160.159 74.0971 158.549 73.6868L155.835 73.0555C153.088 72.3926 151.794 71.0352 151.794 68.7625C151.794 65.9215 154.193 64.1223 157.602 64.1223C160.98 64.1223 163.19 66.0162 163.253 68.9519H160.412C160.349 67.4051 159.307 66.4266 157.508 66.4266C155.645 66.4266 154.604 67.2473 154.604 68.6678C154.604 69.7095 155.361 70.4039 156.876 70.7827L159.591 71.4456C162.211 72.0769 163.505 73.2764 163.505 75.5807C163.505 78.5164 160.98 80.3788 157.318 80.3788C153.688 80.3788 151.384 78.4533 151.384 75.5176ZM173.456 80.3788C168.911 80.3788 165.786 77.0959 165.786 72.2979C165.786 67.4683 168.848 64.1223 173.33 64.1223C177.718 64.1223 180.59 67.1526 180.59 71.7297V72.8345L168.658 72.8661C168.879 76.1174 170.584 77.9166 173.519 77.9166C175.824 77.9166 177.339 76.9697 177.844 75.202H180.622C179.864 78.5164 177.276 80.3788 173.456 80.3788ZM173.33 66.616C170.742 66.616 169.1 68.1627 168.721 70.8774H177.623C177.623 68.3205 175.95 66.616 173.33 66.616ZM182.894 72.2979C182.894 67.4683 185.956 64.1223 190.47 64.1223C194.353 64.1223 197.067 66.3319 197.604 69.7726H194.637C194.132 67.8155 192.553 66.7738 190.565 66.7738C187.755 66.7738 185.83 68.9203 185.83 72.2663C185.83 75.5807 187.629 77.7272 190.439 77.7272C192.553 77.7272 194.132 76.6224 194.668 74.7916H197.636C197.036 78.1376 194.163 80.3788 190.439 80.3788C185.893 80.3788 182.894 77.1591 182.894 72.2979Z" fill="white"/>
</g>
<g filter="url(#filter1_f_12_1395)">
<path d="M299.632 226.952L276.208 227V223.4L287.392 213.752C293.008 208.904 294.592 206.552 294.592 202.856C294.592 198.488 292.096 195.896 287.92 195.896C283.648 195.896 280.864 199.016 280.768 203.96H276.064C276.208 196.52 280.912 191.672 287.968 191.672C294.928 191.672 299.392 195.896 299.392 202.568C299.392 207.512 296.944 211.016 290.8 216.344L283.6 222.584H299.632V226.952ZM322.51 227H317.998V203.528H322.03L322.462 206.6C323.662 204.392 326.158 202.856 329.47 202.856C333.118 202.856 335.71 204.68 336.91 207.608C338.014 204.68 340.846 202.856 344.494 202.856C349.87 202.856 353.134 206.216 353.134 211.64V227H348.718V212.744C348.718 209.048 346.654 206.936 343.486 206.936C340.078 206.936 337.822 209.336 337.822 213.08V227H333.358V212.696C333.358 209 331.342 206.984 328.174 206.984C324.766 206.984 322.51 209.336 322.51 213.08V227ZM361.597 197.96C359.965 197.96 358.621 196.616 358.621 194.984C358.621 193.304 359.965 192.008 361.597 192.008C363.229 192.008 364.573 193.304 364.573 194.984C364.573 196.616 363.229 197.96 361.597 197.96ZM359.389 227V203.528H363.901V227H359.389ZM374.964 227H370.452V203.528H374.532L375.012 207.128C376.5 204.44 379.476 202.856 382.788 202.856C388.98 202.856 391.812 206.648 391.812 212.648V227H387.3V213.656C387.3 208.904 385.092 206.984 381.636 206.984C377.412 206.984 374.964 210.008 374.964 214.568V227Z" fill="white"/>
</g>
<g filter="url(#filter2_f_12_1395)">
<path d="M81.1089 258.983L72.7847 259V257.721L76.7591 254.292C78.7549 252.569 79.3178 251.733 79.3178 250.42C79.3178 248.868 78.4308 247.947 76.9468 247.947C75.4286 247.947 74.4393 249.055 74.4052 250.812H72.7335C72.7847 248.168 74.4563 246.445 76.9638 246.445C79.4372 246.445 81.0236 247.947 81.0236 250.318C81.0236 252.075 80.1537 253.32 77.9702 255.213L75.4116 257.431H81.1089V258.983ZM89.2392 259H87.6358V250.659H89.0686L89.2222 251.75C89.6486 250.966 90.5356 250.42 91.7126 250.42C93.009 250.42 93.9301 251.068 94.3566 252.109C94.7489 251.068 95.7553 250.42 97.0517 250.42C98.9622 250.42 100.122 251.614 100.122 253.541V259H98.5528V253.934C98.5528 252.62 97.8193 251.87 96.6935 251.87C95.4824 251.87 94.6807 252.723 94.6807 254.053V259H93.0943V253.917C93.0943 252.603 92.3779 251.887 91.252 251.887C90.0409 251.887 89.2392 252.723 89.2392 254.053V259ZM103.13 248.68C102.55 248.68 102.072 248.202 102.072 247.622C102.072 247.025 102.55 246.565 103.13 246.565C103.709 246.565 104.187 247.025 104.187 247.622C104.187 248.202 103.709 248.68 103.13 248.68ZM102.345 259V250.659H103.948V259H102.345ZM107.88 259H106.276V250.659H107.726L107.897 251.938C108.425 250.983 109.483 250.42 110.66 250.42C112.86 250.42 113.867 251.767 113.867 253.9V259H112.263V254.258C112.263 252.569 111.479 251.887 110.251 251.887C108.75 251.887 107.88 252.962 107.88 254.582V259Z" fill="white"/>
</g>
<g filter="url(#filter3_f_12_1395)">
<path d="M343.109 114.983L334.785 115V113.721L338.759 110.292C340.755 108.569 341.318 107.733 341.318 106.42C341.318 104.868 340.431 103.947 338.947 103.947C337.429 103.947 336.439 105.055 336.405 106.812H334.733C334.785 104.168 336.456 102.445 338.964 102.445C341.437 102.445 343.024 103.947 343.024 106.318C343.024 108.075 342.154 109.32 339.97 111.213L337.412 113.431H343.109V114.983ZM351.239 115H349.636V106.659H351.069L351.222 107.75C351.649 106.966 352.536 106.42 353.713 106.42C355.009 106.42 355.93 107.068 356.357 108.109C356.749 107.068 357.755 106.42 359.052 106.42C360.962 106.42 362.122 107.614 362.122 109.541V115H360.553V109.934C360.553 108.62 359.819 107.87 358.694 107.87C357.482 107.87 356.681 108.723 356.681 110.053V115H355.094V109.917C355.094 108.603 354.378 107.887 353.252 107.887C352.041 107.887 351.239 108.723 351.239 110.053V115ZM365.13 104.68C364.55 104.68 364.072 104.202 364.072 103.622C364.072 103.025 364.55 102.565 365.13 102.565C365.709 102.565 366.187 103.025 366.187 103.622C366.187 104.202 365.709 104.68 365.13 104.68ZM364.345 115V106.659H365.948V115H364.345ZM369.88 115H368.276V106.659H369.726L369.897 107.938C370.425 106.983 371.483 106.42 372.66 106.42C374.86 106.42 375.867 107.767 375.867 109.9V115H374.263V110.258C374.263 108.569 373.479 107.887 372.251 107.887C370.75 107.887 369.88 108.962 369.88 110.582V115Z" fill="white"/>
</g>
<defs>
<filter id="filter0_f_12_1395" x="0.357422" y="50.7673" width="203.278" height="35.6115" filterUnits="userSpaceOnUse" color-interpolation-filters="sRGB">
<feFlood flood-opacity="0" result="BackgroundImageFix"/>
<feBlend mode="normal" in="SourceGraphic" in2="BackgroundImageFix" result="shape"/>
<feGaussianBlur stdDeviation="3" result="effect1_foregroundBlur_12_1395"/>
</filter>
<filter id="filter1_f_12_1395" x="270.564" y="186.172" width="126.747" height="46.328" filterUnits="userSpaceOnUse" color-interpolation-filters="sRGB">
<feFlood flood-opacity="0" result="BackgroundImageFix"/>
<feBlend mode="normal" in="SourceGraphic" in2="BackgroundImageFix" result="shape"/>
<feGaussianBlur stdDeviation="2.75" result="effect1_foregroundBlur_12_1395"/>
</filter>
<filter id="filter2_f_12_1395" x="63.4334" y="237.145" width="59.7338" height="31.1546" filterUnits="userSpaceOnUse" color-interpolation-filters="sRGB">
<feFlood flood-opacity="0" result="BackgroundImageFix"/>
<feBlend mode="normal" in="SourceGraphic" in2="BackgroundImageFix" result="shape"/>
<feGaussianBlur stdDeviation="4.65" result="effect1_foregroundBlur_12_1395"/>
</filter>
<filter id="filter3_f_12_1395" x="325.433" y="93.1454" width="59.7338" height="31.1546" filterUnits="userSpaceOnUse" color-interpolation-filters="sRGB">
<feFlood flood-opacity="0" result="BackgroundImageFix"/>
<feBlend mode="normal" in="SourceGraphic" in2="BackgroundImageFix" result="shape"/>
<feGaussianBlur stdDeviation="4.65" result="effect1_foregroundBlur_12_1395"/>
</filter>
<linearGradient id="paint0_linear_12_1395" x1="130.941" y1="35.864" x2="199.695" y2="395.503" gradientUnits="userSpaceOnUse">
<stop stop-color="white"/>
<stop offset="1" stop-color="white" stop-opacity="0"/>
</linearGradient>
<linearGradient id="paint1_linear_12_1395" x1="100.271" y1="115.114" x2="172.881" y2="160.321" gradientUnits="userSpaceOnUse">
<stop stop-color="white"/>
<stop offset="0.996715" stop-color="white" stop-opacity="0"/>
</linearGradient>
</defs>
</svg>
