<svg width="409" height="370" viewBox="0 0 409 370" fill="none" xmlns="http://www.w3.org/2000/svg">
<path opacity="0.5" d="M199.538 27.4614L199.539 27.4615C210.383 38.2996 218.985 51.1677 224.855 65.331C230.725 79.4942 233.748 94.6752 233.75 110.007C233.752 125.338 230.734 140.52 224.868 154.685C219.002 168.85 210.402 181.72 199.561 192.561C188.72 203.402 175.85 212.002 161.685 217.868C147.52 223.734 132.338 226.752 117.007 226.75C101.675 226.748 86.4942 223.725 72.331 217.855C58.1677 211.985 45.2996 203.383 34.4615 192.539L34.4614 192.538C23.6174 181.7 15.0147 168.832 9.1446 154.669C3.27453 140.506 0.252123 125.325 0.250001 109.993C0.247879 94.6617 3.26608 79.4799 9.13223 65.315C14.9984 51.1501 23.5975 38.2796 34.4386 27.4386C45.2796 16.5975 58.1501 7.99838 72.315 2.13223C86.4799 -3.73392 101.662 -6.75212 116.993 -6.75C132.325 -6.74788 147.506 -3.72547 161.669 2.1446C175.832 8.01466 188.7 16.6174 199.538 27.4614ZM46.8344 39.8329L46.8342 39.8331C29.3277 57.3365 18.9974 80.7525 17.8719 105.483C16.7464 130.213 24.907 154.47 40.7512 173.492L40.9265 173.702L41.1201 173.508L180.501 34.1264L180.695 33.9326L180.484 33.7574C161.453 17.9393 137.203 9.79469 112.483 10.9185C87.7622 12.0422 64.3513 22.3534 46.8344 39.8329Z" fill="url(#paint0_linear_12_1396)" fill-opacity="0.25" stroke="url(#paint1_linear_12_1396)" stroke-width="0.5"/>
<path d="M243.043 379.274V379.377L243.116 379.45L270.828 407.149C270.829 407.149 270.829 407.15 270.83 407.15C272.076 408.441 272.765 410.17 272.75 411.964C272.734 413.759 272.014 415.476 270.745 416.745C269.476 418.014 267.759 418.734 265.964 418.75C264.17 418.765 262.441 418.076 261.15 416.83C261.149 416.829 261.149 416.829 261.149 416.828L233.436 389.116L233.272 388.952L233.097 389.103C215.034 404.578 191.68 412.456 167.935 411.083C144.189 409.711 121.898 399.194 105.739 381.741C89.5801 364.287 80.8093 341.254 81.2671 317.473C81.7248 293.692 91.3756 271.013 108.194 254.194C125.013 237.376 147.692 227.725 171.473 227.267C195.254 226.809 218.287 235.58 235.741 251.739C253.194 267.898 263.711 290.189 265.083 313.935C266.456 337.68 258.578 361.034 243.103 379.097L243.043 379.167V379.259V379.274ZM166.149 312.399H166.399V312.149V290.862C166.399 289.046 167.12 287.305 168.404 286.021C169.688 284.737 171.429 284.016 173.244 284.016C175.06 284.016 176.801 284.737 178.085 286.021C179.369 287.305 180.09 289.046 180.09 290.862V312.149V312.399H180.34H201.627C203.443 312.399 205.184 313.12 206.468 314.404C207.751 315.688 208.473 317.429 208.473 319.244C208.473 321.06 207.751 322.801 206.468 324.085C205.184 325.369 203.443 326.09 201.627 326.09H180.34H180.09V326.34V347.627C180.09 349.443 179.369 351.184 178.085 352.468C176.801 353.751 175.06 354.473 173.244 354.473C171.429 354.473 169.688 353.751 168.404 352.468C167.12 351.184 166.399 349.443 166.399 347.627V326.34V326.09H166.149H144.862C143.046 326.09 141.305 325.369 140.021 324.085C138.737 322.801 138.016 321.06 138.016 319.244C138.016 317.429 138.737 315.688 140.021 314.404C141.305 313.12 143.046 312.399 144.862 312.399H166.149ZM173.244 397.546C194.011 397.546 213.928 389.297 228.612 374.612C243.297 359.928 251.546 340.011 251.546 319.244C251.546 298.477 243.297 278.561 228.612 263.877C213.928 249.192 194.011 240.942 173.244 240.942C152.477 240.942 132.561 249.192 117.877 263.877C103.192 278.561 94.9424 298.477 94.9424 319.244C94.9424 340.011 103.192 359.928 117.877 374.612C132.561 389.297 152.477 397.546 173.244 397.546Z" fill="url(#paint2_linear_12_1396)" fill-opacity="0.25" stroke="url(#paint3_linear_12_1396)" stroke-width="0.5"/>
<path d="M278.722 234.369L288.673 223.652L305.907 240.885L306.333 241.312V240.708V182.917V182.667H306.083H248.292H247.688L248.115 183.093L265.348 200.327L254.631 210.278L219.354 175L254.631 139.722L265.348 149.673L248.115 166.907L247.688 167.333H248.292H306.083H306.333V167.083V109.292V108.688L305.907 109.115L288.673 126.348L278.722 115.631L314 80.3535L349.278 115.631L339.327 126.348L322.093 109.115L321.667 108.688V109.292V167.083V167.333H321.917H379.708H380.312L379.885 166.907L362.652 149.673L373.369 139.722L408.646 175L373.369 210.278L362.652 200.327L379.885 183.093L380.312 182.667H379.708H321.917H321.667V182.917V240.708V241.312L322.093 240.885L339.327 223.652L349.278 234.369L314 269.646L278.722 234.369Z" fill="url(#paint4_linear_12_1396)" fill-opacity="0.25" stroke="url(#paint5_linear_12_1396)" stroke-width="0.5"/>
<defs>
<linearGradient id="paint0_linear_12_1396" x1="42.7004" y1="13.7727" x2="66.6099" y2="208.381" gradientUnits="userSpaceOnUse">
<stop stop-color="white"/>
<stop offset="1" stop-color="white" stop-opacity="0"/>
</linearGradient>
<linearGradient id="paint1_linear_12_1396" x1="20.4811" y1="59.6747" x2="65.9197" y2="95.0596" gradientUnits="userSpaceOnUse">
<stop stop-color="white"/>
<stop offset="0.996715" stop-color="white" stop-opacity="0"/>
</linearGradient>
<linearGradient id="paint2_linear_12_1396" x1="116.036" y1="244.044" x2="142.497" y2="417.164" gradientUnits="userSpaceOnUse">
<stop stop-color="white"/>
<stop offset="1" stop-color="white" stop-opacity="0"/>
</linearGradient>
<linearGradient id="paint3_linear_12_1396" x1="97.805" y1="281.707" x2="135.088" y2="310.741" gradientUnits="userSpaceOnUse">
<stop stop-color="white"/>
<stop offset="0.996715" stop-color="white" stop-opacity="0"/>
</linearGradient>
<linearGradient id="paint4_linear_12_1396" x1="253.671" y1="96.8667" x2="314" y2="228.833" gradientUnits="userSpaceOnUse">
<stop stop-color="white"/>
<stop offset="1" stop-color="white" stop-opacity="0"/>
</linearGradient>
<linearGradient id="paint5_linear_12_1396" x1="235.63" y1="134.138" x2="272.525" y2="162.869" gradientUnits="userSpaceOnUse">
<stop stop-color="white"/>
<stop offset="0.996715" stop-color="white" stop-opacity="0"/>
</linearGradient>
</defs>
</svg>
