<svg width="241" height="211" viewBox="0 0 241 211" fill="none" xmlns="http://www.w3.org/2000/svg">
<path d="M182.677 36.576L182.679 36.5822C183.02 37.4654 183.393 38.3425 183.796 39.2108L183.961 39.567L183.569 39.5661C179.494 39.5567 175.246 39.5567 170.814 39.5567H170.808H113.872H113.867C109.482 39.5567 105.277 39.5567 101.242 39.5658L100.86 39.5667L101.012 39.2163C101.232 38.7096 101.441 38.2015 101.638 37.6922L101.642 37.6811L101.642 37.6813L101.65 37.665L101.652 37.6604L101.707 37.5271L101.709 37.5233L101.775 37.3576L101.777 37.3538L101.839 37.1902L101.84 37.1867L101.89 37.0502L101.891 37.048L101.915 36.9804L101.915 36.9786L101.975 36.807L101.975 36.8054L102.029 36.6467L102.029 36.6455L102.058 36.558L102.059 36.5571L102.096 36.4416L102.097 36.439L102.128 36.3425L102.128 36.341L102.154 36.258L102.155 36.2529C102.423 35.4468 102.688 34.6524 102.923 33.96L102.923 33.9599C103.056 33.5696 103.171 33.2361 103.266 32.969L103.267 32.9676L103.38 32.6541L103.381 32.6511L103.419 32.5513L103.421 32.5465C106.021 26.0547 112.112 21.6463 119.07 21.2232C119.537 21.1948 120.11 21.19 122.148 21.19H162.54C164.577 21.19 165.149 21.1948 165.618 21.2232L165.603 21.4728L165.618 21.2232C172.576 21.6463 178.668 26.0562 181.268 32.5495M182.677 36.576L181.035 32.6424M182.677 36.576L182.614 36.4252M182.677 36.576L182.614 36.4252M181.268 32.5495L181.035 32.6424M181.268 32.5495C181.268 32.5495 181.267 32.5494 181.267 32.5493L181.035 32.6424M181.268 32.5495C181.433 32.9627 181.608 33.4722 182.167 35.1558L182.168 35.1594L182.193 35.2407L182.194 35.2416L182.223 35.3373L181.986 35.4165M181.035 32.6424C181.198 33.0468 181.37 33.5476 181.929 35.2345L181.955 35.3158L181.986 35.4165M181.986 35.4165L182.056 35.6253L181.986 35.4165ZM182.614 36.4252L182.613 36.4225L182.546 36.2582L182.544 36.2524L182.483 36.0883L182.482 36.0874L182.431 35.9488L182.43 35.9462L182.406 35.8806L182.405 35.8772L182.347 35.7072L182.347 35.7058L182.293 35.5461L182.293 35.5459L182.225 35.3422L182.614 36.4252ZM82.3133 29.8147L82.3158 29.8073L82.371 29.641L82.1337 29.5622L82.371 29.6409C82.8971 28.0548 83.63 25.8462 84.0735 24.7384C89.6781 10.7386 102.812 1.23363 117.809 0.321468C118.99 0.249698 120.238 0.249748 121.857 0.250034L162.83 0.250034C164.448 0.249748 165.698 0.249698 166.879 0.321467C181.876 1.23363 195.009 10.7386 200.613 24.7384L200.613 24.7385C201.052 25.833 201.444 27.0143 201.951 28.5403L201.961 28.5706L201.961 28.5717L202.005 28.7056L202.005 28.7056L202.008 28.7141C203.374 32.4324 206.078 36.3869 209.535 39.3856C209.73 39.5552 209.926 39.7197 210.121 39.879L210.187 39.9322L210.271 39.935C213.328 40.0378 216.255 40.1684 219.06 40.3345C242.448 41.7202 257.216 45.573 267.827 56.2289L268.004 56.0525L267.827 56.2289C271.225 59.6412 273.927 63.48 276.077 67.8911C275.332 68.1684 274.606 68.532 273.913 68.9845L274.049 69.1939L273.912 68.9846C244.196 88.3805 225.475 100.546 209.94 108.373C208.85 103.47 204.491 99.8046 199.278 99.8046C193.243 99.8046 188.352 104.717 188.352 110.775V117.134C158.341 126.19 126.341 126.19 96.3309 117.134V110.775C96.3309 104.717 91.4403 99.8046 85.4054 99.8046C80.1925 99.8046 75.8338 103.47 74.7428 108.372C59.2087 100.545 40.4874 88.3797 10.7725 68.9846C10.0778 68.5312 9.35079 68.1671 8.60484 67.8896C10.7537 63.4792 13.4555 59.6409 16.8533 56.2289C27.4649 45.573 42.2324 41.7202 65.6215 40.3345C68.575 40.1596 71.6653 40.0239 74.9014 39.9188L74.9851 39.916L75.0503 39.8635C78.1502 37.3633 80.8288 33.8618 82.3132 29.8147L82.3133 29.8147ZM0.25 153.653C0.25 125.994 0.250622 105.457 2.49839 89.7524C34.6266 110.722 55.3181 124.149 74.4799 132.443V139.361C74.4799 145.419 79.3704 150.331 85.4054 150.331C91.2547 150.331 96.029 145.716 96.3171 139.917C126.49 147.849 158.193 147.849 188.366 139.917C188.654 145.716 193.429 150.331 199.278 150.331C205.313 150.331 210.203 145.419 210.203 139.361V132.445C229.364 124.15 250.055 110.724 282.182 89.7552C284.43 105.46 284.43 125.997 284.43 153.653C284.43 180.612 284.43 200.806 282.348 216.355C280.267 231.896 276.111 242.759 267.827 251.077C259.543 259.396 248.726 263.569 233.249 265.659C217.765 267.749 197.655 267.75 170.808 267.75H113.872C87.0251 267.75 66.9151 267.749 51.4313 265.659C35.9547 263.569 25.1373 259.396 16.8533 251.078C8.56923 242.759 4.41314 231.897 2.33231 216.355C0.250527 200.806 0.25 180.612 0.25 153.653Z" fill="url(#paint0_linear_0_1368)" fill-opacity="0.25" stroke="url(#paint1_linear_0_1368)" stroke-width="0.5"/>
<defs>
<linearGradient id="paint0_linear_0_1368" x1="51.9486" y1="23.791" x2="77.7712" y2="247.053" gradientUnits="userSpaceOnUse">
<stop stop-color="white"/>
<stop offset="1" stop-color="white" stop-opacity="0"/>
</linearGradient>
<linearGradient id="paint1_linear_0_1368" x1="24.9169" y1="76.3624" x2="77.642" y2="119.977" gradientUnits="userSpaceOnUse">
<stop stop-color="white"/>
<stop offset="0.996715" stop-color="white" stop-opacity="0"/>
</linearGradient>
</defs>
</svg>
