<svg width="208" height="67" viewBox="0 0 208 67" fill="none" xmlns="http://www.w3.org/2000/svg">
<g clip-path="url(#clip0_0_3158)">
<rect x="0.519287" y="0.36792" width="207" height="66" rx="33" fill="black" fill-opacity="0.15"/>
<rect x="0.519287" y="0.36792" width="207" height="66" rx="33" fill="url(#paint0_radial_0_3158)"/>
<path d="M39.675 42.3679H34.3802V26.3507H39.5864C44.3716 26.3507 47.6061 29.5851 47.6061 34.3704C47.6061 39.1335 44.4159 42.3679 39.675 42.3679ZM39.4313 28.3445H36.5513V40.3519H39.5199C43.0867 40.3519 45.3464 38.0479 45.3464 34.3704C45.3464 30.6485 43.0867 28.3445 39.4313 28.3445ZM49.3048 36.9402C49.3048 33.595 51.6974 31.2467 54.954 31.2467C58.1885 31.2467 60.5811 33.595 60.5811 36.9402C60.5811 40.2855 58.1885 42.6338 54.954 42.6338C51.6974 42.6338 49.3048 40.2855 49.3048 36.9402ZM51.4094 36.9402C51.4094 39.1999 52.8494 40.7728 54.954 40.7728C57.0365 40.7728 58.4987 39.1999 58.4987 36.9402C58.4987 34.6805 57.0365 33.1076 54.954 33.1076C52.8494 33.1076 51.4094 34.6805 51.4094 36.9402ZM64.7149 42.3679L61.1703 31.5347H63.3192L65.1137 37.1618C65.3573 37.9593 65.5789 38.779 65.7783 39.7316C65.9555 38.779 66.2435 37.8707 66.4872 37.1618L68.3038 31.5347H70.4306L72.225 37.1618C72.4023 37.6935 72.7567 38.9562 72.934 39.7316C73.1112 38.8676 73.3106 38.1144 73.6207 37.1618L75.4373 31.5347H77.6084L73.9087 42.3679H71.937L70.054 36.5636C69.6995 35.4781 69.478 34.6362 69.3672 34.0381C69.2564 34.5698 69.057 35.2787 68.6583 36.5858L66.7752 42.3679H64.7149ZM81.476 42.3679H79.3935V31.5347H81.2766L81.4982 33.1962C82.1849 31.9556 83.5585 31.2245 85.0871 31.2245C87.9449 31.2245 89.252 32.9747 89.252 35.7439V42.3679H87.1695V36.2091C87.1695 34.0159 86.1505 33.1298 84.5554 33.1298C82.6058 33.1298 81.476 34.5255 81.476 36.6301V42.3679ZM94.2631 42.3679H92.1806V26.0627H94.2631V42.3679ZM96.6197 36.9402C96.6197 33.595 99.0123 31.2467 102.269 31.2467C105.503 31.2467 107.896 33.595 107.896 36.9402C107.896 40.2855 105.503 42.6338 102.269 42.6338C99.0123 42.6338 96.6197 40.2855 96.6197 36.9402ZM98.7243 36.9402C98.7243 39.1999 100.164 40.7728 102.269 40.7728C104.351 40.7728 105.814 39.1999 105.814 36.9402C105.814 34.6805 104.351 33.1076 102.269 33.1076C100.164 33.1076 98.7243 34.6805 98.7243 36.9402ZM113.369 42.6338C111.043 42.6338 109.67 41.3267 109.67 39.355C109.67 37.3612 111.154 36.1205 113.702 35.9212L117.113 35.6553V35.3452C117.113 33.5285 116.028 32.8861 114.566 32.8861C112.815 32.8861 111.818 33.6615 111.818 34.9685H110.002C110.002 32.7088 111.863 31.2245 114.654 31.2245C117.335 31.2245 119.151 32.6424 119.151 35.5667V42.3679H117.379L117.158 40.6178C116.604 41.8584 115.119 42.6338 113.369 42.6338ZM113.967 41.0165C115.939 41.0165 117.135 39.7316 117.135 37.6935V37.1175L114.366 37.339C112.527 37.5162 111.774 38.2252 111.774 39.2885C111.774 40.4405 112.616 41.0165 113.967 41.0165ZM126.378 42.6338C123.232 42.6338 121.326 40.2855 121.326 36.9845C121.326 33.6615 123.254 31.2245 126.466 31.2245C128.128 31.2245 129.523 31.9556 130.254 33.2848V26.0627H132.315V42.3679H130.454L130.277 40.3962C129.568 41.8805 128.106 42.6338 126.378 42.6338ZM126.798 40.7507C128.925 40.7507 130.232 39.1778 130.232 36.9181C130.232 34.7027 128.925 33.1076 126.798 33.1076C124.672 33.1076 123.431 34.7027 123.431 36.9181C123.431 39.1556 124.672 40.7507 126.798 40.7507Z" fill="white"/>
<path d="M163.02 28.1597V35.4513M163.02 35.4513L166.145 32.3263M163.02 35.4513L159.895 32.3263" stroke="white" stroke-width="2" stroke-linecap="round" stroke-linejoin="round"/>
<path d="M167.186 38.5762H163.02H158.853" stroke="white" stroke-width="2" stroke-linecap="round"/>
<path d="M173.436 33.3678C173.436 38.2783 173.436 40.7336 171.911 42.259C170.385 43.7845 167.93 43.7845 163.02 43.7845C158.109 43.7845 155.654 43.7845 154.129 42.259C152.603 40.7336 152.603 38.2783 152.603 33.3678C152.603 28.4574 152.603 26.0021 154.129 24.4767C155.654 22.9512 158.109 22.9512 163.02 22.9512C167.93 22.9512 170.385 22.9512 171.911 24.4767C172.925 25.491 173.265 26.9163 173.379 29.2012" stroke="white" stroke-width="2" stroke-linecap="round"/>
<g clip-path="url(#clip1_0_3158)">
<g clip-path="url(#clip2_0_3158)">
<path d="M58.7974 39.7441C58.9863 39.6215 59.04 39.369 58.9175 39.1801C58.7949 38.9912 58.5424 38.9374 58.3535 39.06C58.1646 39.1826 58.1108 39.4351 58.2334 39.624C58.356 39.8129 58.6085 39.8667 58.7974 39.7441Z" fill="white"/>
<path d="M113.66 13.3793C113.849 13.2567 113.903 13.0042 113.781 12.8153C113.658 12.6264 113.405 12.5727 113.217 12.6953C113.028 12.8178 112.974 13.0704 113.096 13.2593C113.219 13.4482 113.472 13.5019 113.66 13.3793Z" fill="white"/>
<path opacity="0.11" d="M54.9881 54.8578C55.177 54.7353 55.2307 54.4827 55.1082 54.2938C54.9856 54.1049 54.7331 54.0512 54.5442 54.1738C54.3553 54.2964 54.3015 54.5489 54.4241 54.7378C54.5467 54.9267 54.7992 54.9804 54.9881 54.8578Z" fill="white"/>
<path opacity="0.11" d="M32.7879 10.9096C32.9768 10.787 33.0306 10.5345 32.908 10.3456C32.7854 10.1567 32.5329 10.103 32.344 10.2256C32.1551 10.3481 32.1013 10.6006 32.2239 10.7895C32.3465 10.9784 32.599 11.0322 32.7879 10.9096Z" fill="white"/>
<path opacity="0.11" d="M97.2942 9.89545C97.4831 9.77286 97.5369 9.52037 97.4143 9.33147C97.2917 9.14258 97.0392 9.08881 96.8503 9.2114C96.6614 9.33398 96.6077 9.58648 96.7303 9.77538C96.8528 9.96427 97.1053 10.018 97.2942 9.89545Z" fill="white"/>
<path opacity="0.11" d="M26.2485 45.7912C26.6266 45.5458 26.7342 45.0404 26.4888 44.6623C26.2435 44.2841 25.738 44.1765 25.3599 44.4219C24.9818 44.6673 24.8742 45.1727 25.1196 45.5508C25.365 45.929 25.8704 46.0366 26.2485 45.7912Z" fill="white"/>
<path d="M18.3068 33.9264C18.5903 33.7425 18.6709 33.3635 18.487 33.08C18.303 32.7965 17.924 32.7158 17.6405 32.8998C17.357 33.0838 17.2763 33.4627 17.4603 33.7462C17.6443 34.0297 18.0233 34.1104 18.3068 33.9264Z" fill="white"/>
<path d="M136.059 18.2966C136.342 18.1126 136.423 17.7336 136.239 17.4501C136.055 17.1666 135.676 17.0859 135.393 17.2699C135.109 17.4539 135.029 17.8329 135.213 18.1164C135.397 18.3999 135.775 18.4805 136.059 18.2966Z" fill="white"/>
<path d="M6.3246 51.4284C6.60811 51.2444 6.68877 50.8655 6.50479 50.582C6.32081 50.2984 5.94184 50.2178 5.65834 50.4017C5.37483 50.5857 5.29417 50.9647 5.47815 51.2482C5.66214 51.5317 6.0411 51.6124 6.3246 51.4284Z" fill="white"/>
<path opacity="0.3" d="M46.7551 15.9467C47.1333 15.7013 47.2409 15.1959 46.9955 14.8177C46.7501 14.4396 46.2447 14.332 45.8665 14.5774C45.4884 14.8228 45.3808 15.3282 45.6262 15.7064C45.8716 16.0845 46.377 16.1921 46.7551 15.9467Z" fill="white"/>
<path d="M69.268 12.0395C69.5515 11.8555 69.6321 11.4765 69.4481 11.193C69.2642 10.9095 68.8852 10.8288 68.6017 11.0128C68.3182 11.1968 68.2375 11.5758 68.4215 11.8593C68.6055 12.1428 68.9845 12.2235 69.268 12.0395Z" fill="white"/>
<path opacity="0.3" d="M87.2544 16.8996C87.6325 16.6542 87.7401 16.1488 87.4947 15.7706C87.2493 15.3925 86.7439 15.2849 86.3658 15.5303C85.9877 15.7757 85.8801 16.2811 86.1255 16.6592C86.3708 17.0374 86.8763 17.145 87.2544 16.8996Z" fill="white"/>
<g clip-path="url(#clip3_0_3158)">
<path d="M169.713 5.40142C169.495 5.34788 169.361 5.12717 169.414 4.90844C169.468 4.68971 169.688 4.5558 169.907 4.60934C170.126 4.66289 170.26 4.88362 170.206 5.10234C170.153 5.32107 169.932 5.45497 169.713 5.40142Z" fill="white"/>
<path d="M150.183 17.4193C149.855 17.3389 149.654 17.0076 149.735 16.6793C149.815 16.3511 150.146 16.1501 150.474 16.2305C150.803 16.3108 151.004 16.6421 150.923 16.9704C150.843 17.2986 150.512 17.4996 150.183 17.4193Z" fill="white"/>
<path opacity="0.11" d="M95.6218 28.7071C95.184 28.5999 94.916 28.1581 95.0232 27.7203C95.1304 27.2825 95.5722 27.0144 96.01 27.1216C96.4478 27.2288 96.7158 27.6706 96.6087 28.1084C96.5015 28.5463 96.0597 28.8143 95.6218 28.7071Z" fill="white"/>
<path d="M91.9823 32.4349C91.654 32.3545 91.453 32.0233 91.5334 31.695C91.6138 31.3667 91.945 31.1657 92.2733 31.2461C92.6016 31.3265 92.8025 31.6577 92.7222 31.986C92.6418 32.3143 92.3105 32.5152 91.9823 32.4349Z" fill="white"/>
<path d="M80.9417 20.9149C80.6135 20.8345 80.4125 20.5032 80.4929 20.175C80.5732 19.8467 80.9045 19.6457 81.2328 19.7261C81.561 19.8064 81.762 20.1377 81.6816 20.466C81.6013 20.7943 81.27 20.9952 80.9417 20.9149Z" fill="white"/>
<path d="M114.816 28.3648C114.487 28.2844 114.287 27.9532 114.367 27.6249C114.447 27.2966 114.779 27.0957 115.107 27.176C115.435 27.2564 115.636 27.5877 115.556 27.9159C115.475 28.2442 115.144 28.4452 114.816 28.3648Z" fill="white"/>
<path opacity="0.11" d="M132.103 42.6751C131.665 42.5679 131.397 42.1261 131.504 41.6883C131.611 41.2505 132.053 40.9824 132.491 41.0896C132.929 41.1968 133.197 41.6386 133.09 42.0764C132.982 42.5143 132.541 42.7823 132.103 42.6751Z" fill="white"/>
<path d="M141.763 35.8021C141.544 35.7485 141.41 35.5278 141.464 35.3091C141.518 35.0903 141.738 34.9564 141.957 35.01C142.176 35.0635 142.31 35.2842 142.256 35.503C142.203 35.7217 141.982 35.8556 141.763 35.8021Z" fill="white"/>
<path d="M93.0321 44.4505C92.8134 44.3969 92.6795 44.1762 92.733 43.9575C92.7866 43.7388 93.0073 43.6049 93.226 43.6584C93.4447 43.712 93.5787 43.9327 93.5251 44.1514C93.4716 44.3701 93.2508 44.504 93.0321 44.4505Z" fill="white"/>
<path d="M6.65177 23.306C6.43304 23.2524 6.29915 23.0317 6.3527 22.813C6.40625 22.5942 6.62695 22.4603 6.84568 22.5139C7.0644 22.5674 7.19829 22.7881 7.14475 23.0069C7.0912 23.2256 6.8705 23.3595 6.65177 23.306Z" fill="white"/>
<path opacity="0.11" d="M144.071 41.8243C143.852 41.7707 143.719 41.55 143.772 41.3313C143.826 41.1126 144.046 40.9786 144.265 41.0322C144.484 41.0857 144.618 41.3065 144.564 41.5252C144.511 41.7439 144.29 41.8778 144.071 41.8243Z" fill="white"/>
<path opacity="0.11" d="M90.3324 58.9075C90.1137 58.854 89.9798 58.6333 90.0334 58.4145C90.0869 58.1958 90.3076 58.0619 90.5263 58.1155C90.7451 58.169 90.879 58.3897 90.8254 58.6084C90.7719 58.8272 90.5512 58.9611 90.3324 58.9075Z" fill="white"/>
<path opacity="0.11" d="M15.2253 36.3226C15.0065 36.269 14.8726 36.0483 14.9261 35.8296C14.9797 35.6108 15.2004 35.4769 15.4192 35.5305C15.6379 35.584 15.7718 35.8047 15.7182 36.0235C15.6647 36.2422 15.444 36.3761 15.2253 36.3226Z" fill="white"/>
<path d="M125.704 8.77129C125.486 8.71774 125.352 8.49702 125.405 8.2783C125.459 8.05957 125.68 7.92567 125.898 7.97921C126.117 8.03276 126.251 8.25348 126.197 8.47221C126.144 8.69093 125.923 8.82484 125.704 8.77129Z" fill="white"/>
<path d="M143.724 51.8216C143.505 51.768 143.371 51.5473 143.424 51.3286C143.478 51.1099 143.699 50.976 143.917 51.0295C144.136 51.0831 144.27 51.3038 144.217 51.5225C144.163 51.7412 143.942 51.8751 143.724 51.8216Z" fill="white"/>
<path opacity="0.3" d="M171.459 58.6106C171.24 58.5571 171.106 58.3364 171.16 58.1177C171.213 57.8989 171.434 57.765 171.653 57.8186C171.872 57.8721 172.005 58.0928 171.952 58.3116C171.898 58.5303 171.678 58.6642 171.459 58.6106Z" fill="white"/>
<path opacity="0.3" d="M116.24 16.5352C116.021 16.4817 115.887 16.2609 115.941 16.0422C115.994 15.8235 116.215 15.6896 116.434 15.7431C116.652 15.7967 116.786 16.0174 116.733 16.2361C116.679 16.4549 116.458 16.5888 116.24 16.5352Z" fill="white"/>
<path opacity="0.3" d="M135.142 57.7005C134.923 57.647 134.789 57.4262 134.842 57.2075C134.896 56.9888 135.117 56.8549 135.335 56.9084C135.554 56.962 135.688 57.1827 135.634 57.4014C135.581 57.6201 135.36 57.754 135.142 57.7005Z" fill="white"/>
<path opacity="0.3" d="M200.105 49.6661C199.886 49.6125 199.752 49.3918 199.806 49.1731C199.859 48.9544 200.08 48.8204 200.299 48.874C200.518 48.9275 200.651 49.1483 200.598 49.367C200.544 49.5857 200.324 49.7196 200.105 49.6661Z" fill="white"/>
<path opacity="0.3" d="M59.8462 35.9075C59.4083 35.8004 59.1403 35.3585 59.2475 34.9207C59.3547 34.4829 59.7965 34.2148 60.2343 34.322C60.6721 34.4292 60.9402 34.871 60.833 35.3089C60.7258 35.7467 60.284 36.0147 59.8462 35.9075Z" fill="white"/>
<path opacity="0.11" d="M39.3765 18.2984C38.9387 18.1912 38.6706 17.7494 38.7778 17.3116C38.885 16.8738 39.3268 16.6057 39.7646 16.7129C40.2025 16.8201 40.4705 17.2619 40.3633 17.6997C40.2561 18.1376 39.8143 18.4056 39.3765 18.2984Z" fill="white"/>
<path d="M42.9679 4.47981C42.6396 4.39945 42.4386 4.06818 42.519 3.7399C42.5994 3.41162 42.9306 3.21065 43.2589 3.29101C43.5872 3.37138 43.7881 3.70264 43.7078 4.03092C43.6274 4.3592 43.2961 4.56018 42.9679 4.47981Z" fill="white"/>
<path d="M60.1217 52.7762C59.7934 52.6958 59.5924 52.3646 59.6728 52.0363C59.7532 51.708 60.0844 51.507 60.4127 51.5874C60.741 51.6678 60.9419 51.999 60.8616 52.3273C60.7812 52.6556 60.4499 52.8566 60.1217 52.7762Z" fill="white"/>
<path d="M60.0457 17.0596C59.7175 16.9793 59.5165 16.648 59.5969 16.3197C59.6772 15.9915 60.0085 15.7905 60.3368 15.8708C60.665 15.9512 60.866 16.2825 60.7856 16.6108C60.7053 16.939 60.374 17.14 60.0457 17.0596Z" fill="white"/>
<path d="M121.812 63.2569C121.484 63.1765 121.283 62.8453 121.363 62.517C121.444 62.1887 121.775 61.9877 122.103 62.0681C122.432 62.1485 122.633 62.4797 122.552 62.808C122.472 63.1363 122.141 63.3373 121.812 63.2569Z" fill="white"/>
<path d="M17.7921 55.8524C17.4638 55.772 17.2628 55.4407 17.3432 55.1125C17.4236 54.7842 17.7548 54.5832 18.0831 54.6636C18.4114 54.7439 18.6123 55.0752 18.532 55.4035C18.4516 55.7318 18.1204 55.9327 17.7921 55.8524Z" fill="white"/>
<path opacity="0.3" d="M182.114 32.2413C181.676 32.1341 181.408 31.6923 181.515 31.2545C181.623 30.8166 182.064 30.5486 182.502 30.6558C182.94 30.763 183.208 31.2048 183.101 31.6426C182.994 32.0804 182.552 32.3485 182.114 32.2413Z" fill="white"/>
<path opacity="0.11" d="M194.752 26.9359C194.314 26.8287 194.046 26.3869 194.154 25.949C194.261 25.5112 194.703 25.2432 195.14 25.3504C195.578 25.4575 195.846 25.8994 195.739 26.3372C195.632 26.775 195.19 27.043 194.752 26.9359Z" fill="white"/>
<path opacity="0.3" d="M191.712 53.0694C191.274 52.9622 191.006 52.5204 191.113 52.0826C191.22 51.6448 191.662 51.3767 192.1 51.4839C192.538 51.5911 192.806 52.0329 192.699 52.4707C192.591 52.9086 192.149 53.1766 191.712 53.0694Z" fill="white"/>
<path d="M167.048 46.6107C166.719 46.5303 166.518 46.199 166.599 45.8707C166.679 45.5425 167.01 45.3415 167.339 45.4219C167.667 45.5022 167.868 45.8335 167.788 46.1618C167.707 46.4901 167.376 46.691 167.048 46.6107Z" fill="white"/>
</g>
<rect opacity="0.4" x="-380.867" y="-142.037" width="1000.23" height="416.765" fill="url(#paint1_radial_0_3158)"/>
</g>
<mask id="mask0_0_3158" style="mask-type:alpha" maskUnits="userSpaceOnUse" x="-381" y="-143" width="1001" height="418">
<rect x="-380.867" y="-142.015" width="1000.23" height="416.765" fill="url(#paint2_radial_0_3158)"/>
</mask>
<g mask="url(#mask0_0_3158)">
</g>
</g>
</g>
<rect x="1.9039" y="1.75254" width="204.231" height="63.2308" rx="31.6154" stroke="url(#paint3_linear_0_3158)" stroke-width="2.76923"/>
<defs>
<radialGradient id="paint0_radial_0_3158" cx="0" cy="0" r="1" gradientUnits="userSpaceOnUse" gradientTransform="translate(-14.2525 107.999) rotate(-25.7055) scale(179.849 230.509)">
<stop stop-color="#504DFF"/>
<stop offset="1" stop-color="#31160B" stop-opacity="0"/>
</radialGradient>
<radialGradient id="paint1_radial_0_3158" cx="0" cy="0" r="1" gradientUnits="userSpaceOnUse" gradientTransform="translate(119.25 66.3457) scale(500.117 208.382)">
<stop stop-color="#AB64F1" stop-opacity="0.5"/>
<stop offset="0.653203" stop-color="#2A0845" stop-opacity="0"/>
</radialGradient>
<radialGradient id="paint2_radial_0_3158" cx="0" cy="0" r="1" gradientUnits="userSpaceOnUse" gradientTransform="translate(119.25 66.3669) scale(541.794 541.794)">
<stop/>
<stop offset="0.8" stop-opacity="0"/>
</radialGradient>
<linearGradient id="paint3_linear_0_3158" x1="52.7891" y1="22.9772" x2="64.5794" y2="82.2347" gradientUnits="userSpaceOnUse">
<stop stop-color="#504DFF"/>
<stop offset="1" stop-color="white" stop-opacity="0"/>
</linearGradient>
<clipPath id="clip0_0_3158">
<rect x="0.519287" y="0.36792" width="207" height="66" rx="33" fill="white"/>
</clipPath>
<clipPath id="clip1_0_3158">
<rect width="263" height="67" fill="white" transform="translate(-26.4807 0.36792)"/>
</clipPath>
<clipPath id="clip2_0_3158">
<rect width="1000.23" height="416.765" fill="white" transform="translate(-380.867 -142.015)"/>
</clipPath>
<clipPath id="clip3_0_3158">
<rect width="605.698" height="507.758" fill="white" transform="matrix(-0.944226 0.329297 0.329297 0.944226 450.832 -239.955)"/>
</clipPath>
</defs>
</svg>
