<svg width="261" height="66" viewBox="0 0 261 66" fill="none" xmlns="http://www.w3.org/2000/svg">
<g clip-path="url(#clip0_0_2741)">
<rect width="260.692" height="66" rx="33" fill="black" fill-opacity="0.15"/>
<rect width="260.692" height="66" rx="33" fill="url(#paint0_radial_0_2741)"/>
<path d="M40.7286 27.7551C37.2726 27.7551 35.1902 30.3028 35.1902 34.0911C35.1902 37.968 37.4498 40.2055 40.7508 40.2055C43.4757 40.2055 45.6689 38.8098 45.6689 35.5754V35.1102H40.3077V33.1828H47.7071V42.0222H45.8905L45.7354 39.8511C44.8714 41.2468 42.9218 42.2658 40.5735 42.2658C36.032 42.2658 32.9083 38.9871 32.9083 34.0468C32.9083 29.1729 36.0542 25.7169 40.7729 25.7169C44.2732 25.7169 46.9982 27.7329 47.5298 30.8123H45.2258C44.6277 28.7742 42.8554 27.7551 40.7286 27.7551ZM55.1208 42.2658C51.9307 42.2658 49.7374 39.9618 49.7374 36.5945C49.7374 33.2049 51.8864 30.8566 55.0322 30.8566C58.1116 30.8566 60.1276 32.9834 60.1276 36.1957V36.9711L51.7534 36.9932C51.9085 39.2751 53.1048 40.5378 55.1651 40.5378C56.7824 40.5378 57.8458 39.8732 58.2002 38.6326H60.1498C59.6181 40.9588 57.8014 42.2658 55.1208 42.2658ZM55.0322 32.6068C53.2156 32.6068 52.0636 33.6923 51.7978 35.5975H58.0451C58.0451 33.8031 56.871 32.6068 55.0322 32.6068ZM64.536 42H62.4536V31.1668H64.3367L64.5582 32.8283C65.245 31.5877 66.6185 30.8566 68.1471 30.8566C71.005 30.8566 72.312 32.6068 72.312 35.376V42H70.2296V35.8412C70.2296 33.648 69.2105 32.7618 67.6154 32.7618C65.6659 32.7618 64.536 34.1575 64.536 36.2622V42ZM79.8708 42.2658C76.6807 42.2658 74.4874 39.9618 74.4874 36.5945C74.4874 33.2049 76.6364 30.8566 79.7822 30.8566C82.8616 30.8566 84.8776 32.9834 84.8776 36.1957V36.9711L76.5034 36.9932C76.6585 39.2751 77.8548 40.5378 79.9151 40.5378C81.5324 40.5378 82.5958 39.8732 82.9502 38.6326H84.8998C84.3681 40.9588 82.5514 42.2658 79.8708 42.2658ZM79.7822 32.6068C77.9656 32.6068 76.8136 33.6923 76.5478 35.5975H82.7951C82.7951 33.8031 81.621 32.6068 79.7822 32.6068ZM93.4067 31.0782V32.9834H92.4762C90.5045 32.9834 89.286 34.1797 89.286 36.2622V42H87.2036V31.1889H89.1531L89.286 32.8283C89.7291 31.6985 90.8147 30.9452 92.299 30.9452C92.6756 30.9452 92.9857 30.9895 93.4067 31.0782ZM98.0951 42.2658C95.769 42.2658 94.3954 40.9588 94.3954 38.9871C94.3954 36.9932 95.8798 35.7526 98.4274 35.5532L101.839 35.2874V34.9772C101.839 33.1606 100.754 32.5182 99.2914 32.5182C97.5413 32.5182 96.5444 33.2935 96.5444 34.6006H94.7278C94.7278 32.3409 96.5887 30.8566 99.3801 30.8566C102.061 30.8566 103.877 32.2745 103.877 35.1988V42H102.105L101.883 40.2498C101.33 41.4905 99.8453 42.2658 98.0951 42.2658ZM98.6933 40.6486C100.665 40.6486 101.861 39.3637 101.861 37.3255V36.7495L99.0921 36.9711C97.2533 37.1483 96.5001 37.8572 96.5001 38.9206C96.5001 40.0726 97.3419 40.6486 98.6933 40.6486ZM109.645 42H107.563V32.9169H105.436V31.1668H107.563V27.7772H109.645V31.1668H111.772V32.9169H109.645V42ZM118.207 42.2658C115.017 42.2658 112.824 39.9618 112.824 36.5945C112.824 33.2049 114.973 30.8566 118.119 30.8566C121.198 30.8566 123.214 32.9834 123.214 36.1957V36.9711L114.84 36.9932C114.995 39.2751 116.191 40.5378 118.252 40.5378C119.869 40.5378 120.932 39.8732 121.287 38.6326H123.236C122.705 40.9588 120.888 42.2658 118.207 42.2658ZM118.119 32.6068C116.302 32.6068 115.15 33.6923 114.884 35.5975H121.132C121.132 33.8031 119.958 32.6068 118.119 32.6068ZM134.633 42L130.269 31.1668H132.484L134.854 37.2148C135.231 38.2338 135.541 39.1422 135.718 39.8068C135.896 39.0978 136.25 38.1674 136.627 37.2148L139.042 31.1668H141.213L136.693 42H134.633ZM143.889 28.5969C143.135 28.5969 142.515 27.9766 142.515 27.2234C142.515 26.448 143.135 25.8498 143.889 25.8498C144.642 25.8498 145.262 26.448 145.262 27.2234C145.262 27.9766 144.642 28.5969 143.889 28.5969ZM142.869 42V31.1668H144.952V42H142.869ZM152.317 42.2658C149.172 42.2658 147.266 39.9175 147.266 36.6166C147.266 33.2935 149.194 30.8566 152.406 30.8566C154.068 30.8566 155.463 31.5877 156.194 32.9169V25.6948H158.255V42H156.394L156.216 40.0283C155.508 41.5126 154.045 42.2658 152.317 42.2658ZM152.738 40.3828C154.865 40.3828 156.172 38.8098 156.172 36.5502C156.172 34.3348 154.865 32.7397 152.738 32.7397C150.612 32.7397 149.371 34.3348 149.371 36.5502C149.371 38.7877 150.612 40.3828 152.738 40.3828ZM165.933 42.2658C162.743 42.2658 160.55 39.9618 160.55 36.5945C160.55 33.2049 162.699 30.8566 165.845 30.8566C168.924 30.8566 170.94 32.9834 170.94 36.1957V36.9711L162.566 36.9932C162.721 39.2751 163.917 40.5378 165.978 40.5378C167.595 40.5378 168.658 39.8732 169.013 38.6326H170.962C170.431 40.9588 168.614 42.2658 165.933 42.2658ZM165.845 32.6068C164.028 32.6068 162.876 33.6923 162.61 35.5975H168.858C168.858 33.8031 167.683 32.6068 165.845 32.6068ZM172.557 36.5723C172.557 33.2271 174.95 30.8788 178.206 30.8788C181.441 30.8788 183.833 33.2271 183.833 36.5723C183.833 39.9175 181.441 42.2658 178.206 42.2658C174.95 42.2658 172.557 39.9175 172.557 36.5723ZM174.662 36.5723C174.662 38.832 176.102 40.4049 178.206 40.4049C180.289 40.4049 181.751 38.832 181.751 36.5723C181.751 34.3126 180.289 32.7397 178.206 32.7397C176.102 32.7397 174.662 34.3126 174.662 36.5723Z" fill="white"/>
<rect x="201.692" y="19.8461" width="26.3077" height="26.3077" rx="13.1538" stroke="white" stroke-width="1.38462"/>
<path d="M219.722 36.8391L219.413 28.9959C219.404 28.8498 219.366 28.7046 219.302 28.5686C219.179 28.2948 218.956 28.0722 218.682 27.9491C218.546 27.8849 218.401 27.8472 218.255 27.8383L210.412 27.5293C210.265 27.5235 210.122 27.5466 209.989 27.5973C209.856 27.6479 209.736 27.7251 209.637 27.8244C209.436 28.0251 209.33 28.3037 209.342 28.5991C209.354 28.8945 209.482 29.1824 209.699 29.3995C209.916 29.6166 210.204 29.7451 210.499 29.7567L215.668 29.9525L209.196 36.4244C208.996 36.6242 208.89 36.9017 208.902 37.1959C208.914 37.4901 209.042 37.7768 209.258 37.993C209.474 38.2093 209.761 38.3372 210.055 38.3488C210.349 38.3604 210.627 38.2547 210.826 38.0548L217.298 31.583L217.494 36.7513C217.499 36.8977 217.533 37.0439 217.594 37.1815C217.656 37.3191 217.742 37.4454 217.85 37.553C217.958 37.6606 218.084 37.7475 218.221 37.8086C218.359 37.8697 218.505 37.9038 218.652 37.9089C218.798 37.9153 218.942 37.8926 219.075 37.8422C219.209 37.7918 219.328 37.7146 219.428 37.6152C219.527 37.5157 219.604 37.3959 219.655 37.2627C219.705 37.1295 219.728 36.9855 219.722 36.8391Z" fill="white"/>
<g clip-path="url(#clip1_0_2741)">
<g clip-path="url(#clip2_0_2741)">
<path d="M13.3441 61.5817C13.6276 61.3977 13.7083 61.0188 13.5243 60.7353C13.3403 60.4518 12.9614 60.3711 12.6779 60.5551C12.3944 60.739 12.3137 61.118 12.4977 61.4015C12.6817 61.685 13.0606 61.7657 13.3441 61.5817Z" fill="white"/>
<path d="M84.2781 39.3763C84.467 39.2537 84.5208 39.0012 84.3982 38.8123C84.2756 38.6234 84.0231 38.5696 83.8342 38.6922C83.6453 38.8148 83.5916 39.0673 83.7141 39.2562C83.8367 39.4451 84.0892 39.4989 84.2781 39.3763Z" fill="white"/>
<path d="M139.141 13.0115C139.33 12.8889 139.384 12.6364 139.261 12.4475C139.139 12.2586 138.886 12.2048 138.698 12.3274C138.509 12.45 138.455 12.7025 138.577 12.8914C138.7 13.0803 138.953 13.134 139.141 13.0115Z" fill="white"/>
<path opacity="0.11" d="M80.469 54.4901C80.6579 54.3675 80.7117 54.1149 80.5891 53.926C80.4665 53.7372 80.214 53.6834 80.0251 53.806C79.8362 53.9286 79.7825 54.1811 79.9051 54.37C80.0276 54.5589 80.2801 54.6126 80.469 54.4901Z" fill="white"/>
<path d="M19.3323 29.9743C19.5212 29.8517 19.575 29.5992 19.4524 29.4103C19.3298 29.2214 19.0773 29.1676 18.8884 29.2902C18.6995 29.4128 18.6458 29.6653 18.7683 29.8542C18.8909 30.0431 19.1434 30.0968 19.3323 29.9743Z" fill="white"/>
<path opacity="0.11" d="M58.2688 10.5418C58.4577 10.4192 58.5115 10.1667 58.3889 9.97778C58.2663 9.78889 58.0138 9.73514 57.8249 9.85773C57.636 9.98032 57.5823 10.2328 57.7049 10.4217C57.8275 10.6106 58.0799 10.6644 58.2688 10.5418Z" fill="white"/>
<path opacity="0.11" d="M122.775 9.52759C122.964 9.40501 123.018 9.15251 122.895 8.96362C122.773 8.77472 122.52 8.72095 122.331 8.84354C122.142 8.96612 122.089 9.21862 122.211 9.40752C122.334 9.59641 122.586 9.65018 122.775 9.52759Z" fill="white"/>
<path opacity="0.11" d="M51.7295 45.4233C52.1076 45.1779 52.2152 44.6724 51.9698 44.2943C51.7244 43.9162 51.219 43.8086 50.8409 44.054C50.4628 44.2994 50.3552 44.8048 50.6006 45.1829C50.8459 45.561 51.3514 45.6686 51.7295 45.4233Z" fill="white"/>
<path d="M43.788 33.5585C44.0715 33.3745 44.1521 32.9955 43.9682 32.712C43.7842 32.4285 43.4052 32.3479 43.1217 32.5318C42.8382 32.7158 42.7575 33.0948 42.9415 33.3783C43.1255 33.6618 43.5045 33.7425 43.788 33.5585Z" fill="white"/>
<path d="M161.54 17.9288C161.823 17.7448 161.904 17.3659 161.72 17.0824C161.536 16.7989 161.157 16.7182 160.874 16.9022C160.59 17.0861 160.51 17.4651 160.693 17.7486C160.877 18.0321 161.256 18.1128 161.54 17.9288Z" fill="white"/>
<path d="M31.8056 51.0605C32.0891 50.8765 32.1697 50.4975 31.9857 50.214C31.8018 49.9305 31.4228 49.8498 31.1393 50.0338C30.8558 50.2178 30.7751 50.5968 30.9591 50.8803C31.1431 51.1638 31.5221 51.2445 31.8056 51.0605Z" fill="white"/>
<path opacity="0.3" d="M72.2363 15.5788C72.6145 15.3334 72.7221 14.828 72.4767 14.4499C72.2313 14.0717 71.7259 13.9641 71.3477 14.2095C70.9696 14.4549 70.862 14.9604 71.1074 15.3385C71.3528 15.7166 71.8582 15.8242 72.2363 15.5788Z" fill="white"/>
<path d="M94.7489 11.6717C95.0324 11.4877 95.1131 11.1087 94.9291 10.8252C94.7451 10.5417 94.3662 10.461 94.0827 10.645C93.7992 10.829 93.7185 11.208 93.9025 11.4915C94.0864 11.775 94.4654 11.8557 94.7489 11.6717Z" fill="white"/>
<path opacity="0.3" d="M112.735 16.5318C113.113 16.2864 113.221 15.781 112.976 15.4029C112.73 15.0248 112.225 14.9172 111.847 15.1625C111.469 15.4079 111.361 15.9134 111.606 16.2915C111.852 16.6696 112.357 16.7772 112.735 16.5318Z" fill="white"/>
<g clip-path="url(#clip3_0_2741)">
<path d="M255.68 11.8624C255.461 11.8089 255.327 11.5881 255.38 11.3694C255.434 11.1507 255.655 11.0168 255.873 11.0703C256.092 11.1239 256.226 11.3446 256.173 11.5633C256.119 11.7821 255.898 11.916 255.68 11.8624Z" fill="white"/>
<path d="M195.194 5.0339C194.976 4.98035 194.842 4.75964 194.895 4.54092C194.949 4.32219 195.169 4.18828 195.388 4.24182C195.607 4.29537 195.741 4.51609 195.687 4.73482C195.634 4.95355 195.413 5.08744 195.194 5.0339Z" fill="white"/>
<path d="M175.664 17.0516C175.336 16.9712 175.135 16.64 175.215 16.3117C175.296 15.9834 175.627 15.7824 175.955 15.8628C176.284 15.9432 176.485 16.2744 176.404 16.6027C176.324 16.931 175.993 17.132 175.664 17.0516Z" fill="white"/>
<path opacity="0.11" d="M121.103 28.3395C120.665 28.2324 120.397 27.7905 120.504 27.3527C120.611 26.9149 121.053 26.6468 121.491 26.754C121.929 26.8612 122.197 27.303 122.09 27.7408C121.982 28.1787 121.541 28.4467 121.103 28.3395Z" fill="white"/>
<path d="M117.463 32.0673C117.135 31.9869 116.934 31.6556 117.014 31.3274C117.095 30.9991 117.426 30.7981 117.754 30.8785C118.083 30.9588 118.283 31.2901 118.203 31.6184C118.123 31.9467 117.791 32.1476 117.463 32.0673Z" fill="white"/>
<path d="M106.423 20.5474C106.094 20.467 105.893 20.1357 105.974 19.8075C106.054 19.4792 106.385 19.2782 106.714 19.3586C107.042 19.4389 107.243 19.7702 107.163 20.0985C107.082 20.4268 106.751 20.6277 106.423 20.5474Z" fill="white"/>
<path d="M140.297 27.9973C139.968 27.917 139.767 27.5857 139.848 27.2574C139.928 26.9291 140.259 26.7282 140.588 26.8085C140.916 26.8889 141.117 27.2202 141.037 27.5484C140.956 27.8767 140.625 28.0777 140.297 27.9973Z" fill="white"/>
<path opacity="0.11" d="M157.584 42.3076C157.146 42.2004 156.878 41.7586 156.985 41.3207C157.092 40.8829 157.534 40.6149 157.972 40.7221C158.41 40.8293 158.678 41.2711 158.571 41.7089C158.463 42.1467 158.022 42.4148 157.584 42.3076Z" fill="white"/>
<path d="M167.244 35.4344C167.025 35.3808 166.891 35.1601 166.945 34.9414C166.999 34.7227 167.219 34.5888 167.438 34.6423C167.657 34.6959 167.791 34.9166 167.737 35.1353C167.683 35.354 167.463 35.4879 167.244 35.4344Z" fill="white"/>
<path d="M118.513 44.0829C118.294 44.0294 118.16 43.8087 118.214 43.59C118.268 43.3712 118.488 43.2373 118.707 43.2909C118.926 43.3444 119.06 43.5651 119.006 43.7839C118.953 44.0026 118.732 44.1365 118.513 44.0829Z" fill="white"/>
<path d="M32.1327 22.9385C31.914 22.885 31.7801 22.6642 31.8337 22.4455C31.8872 22.2268 32.1079 22.0929 32.3266 22.1464C32.5454 22.2 32.6793 22.4207 32.6257 22.6394C32.5722 22.8581 32.3515 22.9921 32.1327 22.9385Z" fill="white"/>
<path d="M252.881 66.4767C252.663 66.4231 252.529 66.2024 252.582 65.9837C252.636 65.765 252.856 65.6311 253.075 65.6846C253.294 65.7381 253.428 65.9589 253.374 66.1776C253.321 66.3963 253.1 66.5302 252.881 66.4767Z" fill="white"/>
<path opacity="0.11" d="M169.552 41.4566C169.333 41.403 169.2 41.1823 169.253 40.9636C169.307 40.7449 169.527 40.611 169.746 40.6645C169.965 40.7181 170.099 40.9388 170.045 41.1575C169.992 41.3762 169.771 41.5101 169.552 41.4566Z" fill="white"/>
<path opacity="0.11" d="M115.813 58.5401C115.595 58.4866 115.461 58.2658 115.514 58.0471C115.568 57.8284 115.789 57.6945 116.007 57.748C116.226 57.8016 116.36 58.0223 116.306 58.241C116.253 58.4597 116.032 58.5936 115.813 58.5401Z" fill="white"/>
<path opacity="0.11" d="M40.7065 35.955C40.4877 35.9015 40.3538 35.6807 40.4073 35.462C40.4609 35.2433 40.6816 35.1094 40.9004 35.1629C41.1191 35.2165 41.253 35.4372 41.1994 35.6559C41.1459 35.8746 40.9252 36.0086 40.7065 35.955Z" fill="white"/>
<path opacity="0.3" d="M237.078 52.1097C236.859 52.0562 236.725 51.8355 236.778 51.6168C236.832 51.398 237.053 51.2641 237.271 51.3177C237.49 51.3712 237.624 51.5919 237.571 51.8107C237.517 52.0294 237.296 52.1633 237.078 52.1097Z" fill="white"/>
<path d="M151.185 8.4038C150.967 8.35025 150.833 8.12953 150.886 7.9108C150.94 7.69208 151.161 7.55817 151.379 7.61172C151.598 7.66527 151.732 7.88599 151.678 8.10471C151.625 8.32344 151.404 8.45734 151.185 8.4038Z" fill="white"/>
<path d="M169.204 51.4541C168.986 51.4006 168.852 51.1798 168.905 50.9611C168.959 50.7424 169.18 50.6085 169.398 50.662C169.617 50.7156 169.751 50.9363 169.697 51.155C169.644 51.3737 169.423 51.5076 169.204 51.4541Z" fill="white"/>
<path opacity="0.3" d="M196.94 58.2432C196.721 58.1897 196.587 57.969 196.641 57.7502C196.694 57.5315 196.915 57.3976 197.134 57.4511C197.352 57.5047 197.486 57.7254 197.433 57.9441C197.379 58.1629 197.159 58.2968 196.94 58.2432Z" fill="white"/>
<path opacity="0.11" d="M235.44 41.6311C235.222 41.5775 235.088 41.3568 235.141 41.1381C235.195 40.9194 235.416 40.7855 235.634 40.839C235.853 40.8926 235.987 41.1133 235.933 41.332C235.88 41.5507 235.659 41.6846 235.44 41.6311Z" fill="white"/>
<path opacity="0.3" d="M141.721 16.1677C141.502 16.1142 141.368 15.8935 141.422 15.6747C141.475 15.456 141.696 15.3221 141.914 15.3756C142.133 15.4292 142.267 15.6499 142.214 15.8686C142.16 16.0874 141.939 16.2213 141.721 16.1677Z" fill="white"/>
<path opacity="0.3" d="M160.622 57.3329C160.404 57.2793 160.27 57.0586 160.323 56.8399C160.377 56.6212 160.598 56.4873 160.816 56.5408C161.035 56.5944 161.169 56.8151 161.115 57.0338C161.062 57.2525 160.841 57.3864 160.622 57.3329Z" fill="white"/>
<path opacity="0.3" d="M225.586 49.2986C225.367 49.245 225.233 49.0243 225.287 48.8056C225.34 48.5869 225.561 48.453 225.78 48.5065C225.998 48.56 226.132 48.7808 226.079 48.9995C226.025 49.2182 225.805 49.3521 225.586 49.2986Z" fill="white"/>
<path opacity="0.3" d="M85.3274 35.54C84.8895 35.4328 84.6215 34.991 84.7287 34.5532C84.8359 34.1153 85.2777 33.8473 85.7155 33.9545C86.1533 34.0617 86.4214 34.5035 86.3142 34.9413C86.207 35.3791 85.7652 35.6472 85.3274 35.54Z" fill="white"/>
<path opacity="0.11" d="M64.8577 17.9307C64.4199 17.8236 64.1518 17.3817 64.259 16.9439C64.3662 16.5061 64.808 16.2381 65.2458 16.3452C65.6837 16.4524 65.9517 16.8942 65.8445 17.3321C65.7373 17.7699 65.2955 18.0379 64.8577 17.9307Z" fill="white"/>
<path d="M68.4491 4.11214C68.1208 4.03177 67.9198 3.7005 68.0002 3.37222C68.0806 3.04395 68.4118 2.84297 68.7401 2.92334C69.0684 3.0037 69.2693 3.33497 69.189 3.66324C69.1086 3.99152 68.7773 4.1925 68.4491 4.11214Z" fill="white"/>
<path d="M85.6024 52.4086C85.2741 52.3282 85.0731 51.9969 85.1535 51.6687C85.2339 51.3404 85.5651 51.1394 85.8934 51.2198C86.2217 51.3002 86.4226 51.6314 86.3423 51.9597C86.2619 52.288 85.9307 52.4889 85.6024 52.4086Z" fill="white"/>
<path d="M85.5267 16.6921C85.1984 16.6117 84.9975 16.2804 85.0778 15.9522C85.1582 15.6239 85.4894 15.4229 85.8177 15.5033C86.146 15.5836 86.347 15.9149 86.2666 16.2432C86.1862 16.5715 85.855 16.7724 85.5267 16.6921Z" fill="white"/>
<path d="M147.293 62.8892C146.965 62.8089 146.764 62.4776 146.844 62.1493C146.925 61.821 147.256 61.6201 147.584 61.7004C147.913 61.7808 148.114 62.1121 148.033 62.4403C147.953 62.7686 147.622 62.9696 147.293 62.8892Z" fill="white"/>
<path d="M43.2733 55.4849C42.945 55.4045 42.744 55.0732 42.8244 54.745C42.9048 54.4167 43.236 54.2157 43.5643 54.2961C43.8926 54.3764 44.0935 54.7077 44.0132 55.036C43.9328 55.3643 43.6016 55.5652 43.2733 55.4849Z" fill="white"/>
<path d="M13.1234 0.226605C12.7951 0.146241 12.5941 -0.185029 12.6745 -0.513305C12.7549 -0.841582 13.0861 -1.04256 13.4144 -0.962191C13.7427 -0.881826 13.9436 -0.550562 13.8633 -0.222285C13.7829 0.105991 13.4517 0.30697 13.1234 0.226605Z" fill="white"/>
<path opacity="0.3" d="M260.959 59.2161C260.521 59.1089 260.253 58.6671 260.36 58.2292C260.467 57.7914 260.909 57.5234 261.347 57.6306C261.785 57.7378 262.053 58.1796 261.946 58.6174C261.838 59.0552 261.397 59.3233 260.959 59.2161Z" fill="white"/>
<path opacity="0.3" d="M207.595 31.8737C207.157 31.7666 206.889 31.3247 206.996 30.8869C207.103 30.4491 207.545 30.181 207.983 30.2882C208.421 30.3954 208.689 30.8372 208.582 31.2751C208.475 31.7129 208.033 31.9809 207.595 31.8737Z" fill="white"/>
<path opacity="0.11" d="M220.233 26.5684C219.795 26.4612 219.527 26.0194 219.634 25.5815C219.742 25.1437 220.183 24.8757 220.621 24.9829C221.059 25.09 221.327 25.5319 221.22 25.9697C221.113 26.4075 220.671 26.6756 220.233 26.5684Z" fill="white"/>
<path opacity="0.3" d="M217.193 52.7017C216.755 52.5945 216.487 52.1527 216.594 51.7149C216.701 51.2771 217.143 51.009 217.581 51.1162C218.019 51.2234 218.287 51.6652 218.179 52.103C218.072 52.5409 217.63 52.8089 217.193 52.7017Z" fill="white"/>
<path d="M192.529 46.2432C192.2 46.1628 191.999 45.8315 192.08 45.5033C192.16 45.175 192.491 44.974 192.82 45.0544C193.148 45.1347 193.349 45.466 193.269 45.7943C193.188 46.1226 192.857 46.3235 192.529 46.2432Z" fill="white"/>
</g>
<rect opacity="0.4" x="-355.387" y="-142.405" width="1000.23" height="416.765" fill="url(#paint1_radial_0_2741)"/>
</g>
<mask id="mask0_0_2741" style="mask-type:alpha" maskUnits="userSpaceOnUse" x="-356" y="-143" width="1001" height="418">
<rect x="-355.387" y="-142.383" width="1000.23" height="416.765" fill="url(#paint2_radial_0_2741)"/>
</mask>
<g mask="url(#mask0_0_2741)">
</g>
</g>
</g>
<rect x="1.38462" y="1.38462" width="257.923" height="63.2308" rx="31.6154" stroke="url(#paint3_linear_0_2741)" stroke-width="2.76923"/>
<defs>
<radialGradient id="paint0_radial_0_2741" cx="0" cy="0" r="1" gradientUnits="userSpaceOnUse" gradientTransform="translate(-18.6033 107.631) rotate(-20.9188) scale(218.485 238.964)">
<stop stop-color="#504DFF"/>
<stop offset="1" stop-color="#31160B" stop-opacity="0"/>
</radialGradient>
<radialGradient id="paint1_radial_0_2741" cx="0" cy="0" r="1" gradientUnits="userSpaceOnUse" gradientTransform="translate(144.731 65.9777) scale(500.117 208.382)">
<stop stop-color="#AB64F1" stop-opacity="0.5"/>
<stop offset="0.653203" stop-color="#2A0845" stop-opacity="0"/>
</radialGradient>
<radialGradient id="paint2_radial_0_2741" cx="0" cy="0" r="1" gradientUnits="userSpaceOnUse" gradientTransform="translate(144.731 65.9991) scale(541.794 541.794)">
<stop/>
<stop offset="0.8" stop-opacity="0"/>
</radialGradient>
<linearGradient id="paint3_linear_0_2741" x1="65.8277" y1="22.6092" x2="75.3233" y2="82.7124" gradientUnits="userSpaceOnUse">
<stop stop-color="#504DFF"/>
<stop offset="1" stop-color="white" stop-opacity="0"/>
</linearGradient>
<clipPath id="clip0_0_2741">
<rect width="260.692" height="66" rx="33" fill="white"/>
</clipPath>
<clipPath id="clip1_0_2741">
<rect width="263" height="67" fill="white" transform="translate(-1)"/>
</clipPath>
<clipPath id="clip2_0_2741">
<rect width="1000.23" height="416.765" fill="white" transform="translate(-355.387 -142.383)"/>
</clipPath>
<clipPath id="clip3_0_2741">
<rect width="605.698" height="507.758" fill="white" transform="matrix(-0.944226 0.329297 0.329297 0.944226 476.312 -240.323)"/>
</clipPath>
</defs>
</svg>
