<svg width="223" height="66" viewBox="0 0 223 66" fill="none" xmlns="http://www.w3.org/2000/svg">
<g clip-path="url(#clip0_0_1386)">
<rect width="222.692" height="66" rx="33" fill="black" fill-opacity="0.15"/>
<rect width="222.692" height="66" rx="33" fill="url(#paint0_radial_0_1386)"/>
<path d="M40.7286 27.7551C37.2726 27.7551 35.1902 30.3028 35.1902 34.0911C35.1902 37.968 37.4498 40.2055 40.7508 40.2055C43.4757 40.2055 45.6689 38.8098 45.6689 35.5754V35.1102H40.3077V33.1828H47.7071V42.0222H45.8905L45.7354 39.8511C44.8714 41.2468 42.9218 42.2658 40.5735 42.2658C36.032 42.2658 32.9083 38.9871 32.9083 34.0468C32.9083 29.1729 36.0542 25.7169 40.7729 25.7169C44.2732 25.7169 46.9982 27.7329 47.5298 30.8123H45.2258C44.6277 28.7742 42.8554 27.7551 40.7286 27.7551ZM55.1208 42.2658C51.9307 42.2658 49.7374 39.9618 49.7374 36.5945C49.7374 33.2049 51.8864 30.8566 55.0322 30.8566C58.1116 30.8566 60.1276 32.9834 60.1276 36.1957V36.9711L51.7534 36.9932C51.9085 39.2751 53.1048 40.5378 55.1651 40.5378C56.7824 40.5378 57.8458 39.8732 58.2002 38.6326H60.1498C59.6181 40.9588 57.8014 42.2658 55.1208 42.2658ZM55.0322 32.6068C53.2156 32.6068 52.0636 33.6923 51.7978 35.5975H58.0451C58.0451 33.8031 56.871 32.6068 55.0322 32.6068ZM65.4026 42H63.3202V32.9169H61.1934V31.1668H63.3202V27.7772H65.4026V31.1668H67.5294V32.9169H65.4026V42ZM74.88 30.3028C74.88 27.5557 77.0954 25.6948 80.3963 25.6948C83.4535 25.6948 85.4252 27.4006 85.6024 30.1698H83.4092C83.2984 28.5748 82.1686 27.6443 80.3741 27.6443C78.3581 27.6443 77.0511 28.6634 77.0511 30.2363C77.0511 31.5212 77.7821 32.2966 79.2886 32.6511L81.9249 33.2714C84.5391 33.8695 85.8683 35.2874 85.8683 37.5471C85.8683 40.4271 83.6308 42.2658 80.2191 42.2658C76.9624 42.2658 74.7914 40.56 74.6584 37.8129H76.8738C76.9181 39.3415 78.2031 40.3163 80.2191 40.3163C82.3458 40.3163 83.6972 39.3194 83.6972 37.7243C83.6972 36.4615 83.0104 35.664 81.4818 35.3095L78.8455 34.7114C76.2314 34.1132 74.88 32.6068 74.88 30.3028ZM91.2993 42H89.2168V32.9169H87.09V31.1668H89.2168V27.7772H91.2993V31.1668H93.426V32.9169H91.2993V42ZM98.3331 42.2658C96.007 42.2658 94.6334 40.9588 94.6334 38.9871C94.6334 36.9932 96.1177 35.7526 98.6654 35.5532L102.077 35.2874V34.9772C102.077 33.1606 100.992 32.5182 99.5294 32.5182C97.7793 32.5182 96.7823 33.2935 96.7823 34.6006H94.9657C94.9657 32.3409 96.8267 30.8566 99.618 30.8566C102.299 30.8566 104.115 32.2745 104.115 35.1988V42H102.343L102.121 40.2498C101.568 41.4905 100.083 42.2658 98.3331 42.2658ZM98.9313 40.6486C100.903 40.6486 102.099 39.3637 102.099 37.3255V36.7495L99.33 36.9711C97.4913 37.1483 96.738 37.8572 96.738 38.9206C96.738 40.0726 97.5799 40.6486 98.9313 40.6486ZM113.202 31.0782V32.9834H112.272C110.3 32.9834 109.082 34.1797 109.082 36.2622V42H106.999V31.1889H108.949L109.082 32.8283C109.525 31.6985 110.61 30.9452 112.095 30.9452C112.471 30.9452 112.781 30.9895 113.202 31.0782ZM118.645 42H116.563V32.9169H114.436V31.1668H116.563V27.7772H118.645V31.1668H120.772V32.9169H118.645V42ZM127.207 42.2658C124.017 42.2658 121.824 39.9618 121.824 36.5945C121.824 33.2049 123.973 30.8566 127.119 30.8566C130.198 30.8566 132.214 32.9834 132.214 36.1957V36.9711L123.84 36.9932C123.995 39.2751 125.191 40.5378 127.252 40.5378C128.869 40.5378 129.932 39.8732 130.287 38.6326H132.236C131.705 40.9588 129.888 42.2658 127.207 42.2658ZM127.119 32.6068C125.302 32.6068 124.15 33.6923 123.884 35.5975H130.132C130.132 33.8031 128.958 32.6068 127.119 32.6068ZM138.882 42.2658C135.736 42.2658 133.831 39.9175 133.831 36.6166C133.831 33.2935 135.759 30.8566 138.971 30.8566C140.632 30.8566 142.028 31.5877 142.759 32.9169V25.6948H144.82V42H142.959L142.781 40.0283C142.072 41.5126 140.61 42.2658 138.882 42.2658ZM139.303 40.3828C141.43 40.3828 142.737 38.8098 142.737 36.5502C142.737 34.3348 141.43 32.7397 139.303 32.7397C137.176 32.7397 135.936 34.3348 135.936 36.5502C135.936 38.7877 137.176 40.3828 139.303 40.3828Z" fill="white"/>
<rect x="163.692" y="19.8462" width="26.3077" height="26.3077" rx="13.1538" stroke="white" stroke-width="1.38462"/>
<path d="M181.722 36.8391L181.413 28.9959C181.404 28.8498 181.366 28.7046 181.302 28.5687C181.179 28.2949 180.956 28.0722 180.682 27.9491C180.546 27.8849 180.401 27.8473 180.255 27.8383L172.412 27.5293C172.265 27.5236 172.122 27.5467 171.989 27.5973C171.856 27.648 171.736 27.7252 171.637 27.8245C171.436 28.0251 171.33 28.3038 171.342 28.5992C171.354 28.8946 171.482 29.1825 171.699 29.3996C171.916 29.6167 172.204 29.7452 172.499 29.7568L177.668 29.9526L171.196 36.4245C170.996 36.6243 170.89 36.9018 170.902 37.196C170.914 37.4902 171.042 37.7769 171.258 37.9931C171.474 38.2093 171.761 38.3373 172.055 38.3489C172.349 38.3605 172.627 38.2547 172.826 38.0549L179.298 31.583L179.494 36.7514C179.499 36.8978 179.533 37.044 179.594 37.1816C179.656 37.3192 179.742 37.4454 179.85 37.5531C179.958 37.6607 180.084 37.7475 180.221 37.8086C180.359 37.8697 180.505 37.9038 180.652 37.909C180.798 37.9154 180.942 37.8927 181.075 37.8423C181.209 37.7918 181.328 37.7147 181.428 37.6152C181.527 37.5158 181.604 37.396 181.655 37.2628C181.705 37.1296 181.728 36.9856 181.722 36.8391Z" fill="white"/>
<g clip-path="url(#clip1_0_1386)">
<g clip-path="url(#clip2_0_1386)">
<path d="M65.2781 39.3763C65.467 39.2538 65.5208 39.0013 65.3982 38.8124C65.2756 38.6235 65.0231 38.5697 64.8342 38.6923C64.6453 38.8149 64.5916 39.0674 64.7141 39.2563C64.8367 39.4452 65.0892 39.4989 65.2781 39.3763Z" fill="white"/>
<path d="M120.141 13.0115C120.33 12.8889 120.384 12.6364 120.261 12.4475C120.139 12.2586 119.886 12.2049 119.698 12.3275C119.509 12.45 119.455 12.7026 119.577 12.8915C119.7 13.0804 119.953 13.1341 120.141 13.0115Z" fill="white"/>
<path opacity="0.11" d="M61.469 54.4901C61.6579 54.3675 61.7117 54.115 61.5891 53.9261C61.4665 53.7372 61.214 53.6835 61.0251 53.8061C60.8362 53.9286 60.7825 54.1811 60.9051 54.37C61.0276 54.5589 61.2801 54.6127 61.469 54.4901Z" fill="white"/>
<path d="M0.332323 29.9743C0.521219 29.8517 0.574957 29.5992 0.452371 29.4103C0.329785 29.2214 0.0772924 29.1677 -0.111603 29.2903C-0.300498 29.4128 -0.354236 29.6653 -0.23165 29.8542C-0.109064 30.0431 0.143428 30.0969 0.332323 29.9743Z" fill="white"/>
<path opacity="0.11" d="M39.2688 10.5418C39.4577 10.4192 39.5115 10.1667 39.3889 9.97781C39.2663 9.78892 39.0138 9.73517 38.8249 9.85776C38.636 9.98035 38.5823 10.2328 38.7049 10.4217C38.8275 10.6106 39.0799 10.6644 39.2688 10.5418Z" fill="white"/>
<path opacity="0.11" d="M103.775 9.52759C103.964 9.40501 104.018 9.15251 103.895 8.96362C103.773 8.77472 103.52 8.72095 103.331 8.84354C103.142 8.96612 103.089 9.21862 103.211 9.40752C103.334 9.59641 103.586 9.65018 103.775 9.52759Z" fill="white"/>
<path opacity="0.11" d="M32.7295 45.4233C33.1076 45.1779 33.2152 44.6725 32.9698 44.2944C32.7244 43.9163 32.219 43.8087 31.8409 44.0541C31.4628 44.2994 31.3552 44.8049 31.6006 45.183C31.8459 45.5611 32.3514 45.6687 32.7295 45.4233Z" fill="white"/>
<path d="M24.788 33.5585C25.0715 33.3745 25.1521 32.9956 24.9682 32.7121C24.7842 32.4286 24.4052 32.3479 24.1217 32.5319C23.8382 32.7158 23.7575 33.0948 23.9415 33.3783C24.1255 33.6618 24.5045 33.7425 24.788 33.5585Z" fill="white"/>
<path d="M142.54 17.9288C142.823 17.7448 142.904 17.3659 142.72 17.0824C142.536 16.7989 142.157 16.7182 141.874 16.9022C141.59 17.0861 141.51 17.4651 141.693 17.7486C141.877 18.0321 142.256 18.1128 142.54 17.9288Z" fill="white"/>
<path d="M12.8056 51.0605C13.0891 50.8765 13.1697 50.4975 12.9857 50.214C12.8018 49.9305 12.4228 49.8498 12.1393 50.0338C11.8558 50.2178 11.7751 50.5968 11.9591 50.8803C12.1431 51.1638 12.5221 51.2445 12.8056 51.0605Z" fill="white"/>
<path opacity="0.3" d="M53.2363 15.5788C53.6145 15.3334 53.7221 14.828 53.4767 14.4499C53.2313 14.0718 52.7259 13.9642 52.3477 14.2096C51.9696 14.4549 51.862 14.9604 52.1074 15.3385C52.3528 15.7166 52.8582 15.8242 53.2363 15.5788Z" fill="white"/>
<path d="M75.7489 11.6717C76.0324 11.4878 76.1131 11.1088 75.9291 10.8253C75.7451 10.5418 75.3662 10.4611 75.0827 10.6451C74.7992 10.8291 74.7185 11.208 74.9025 11.4915C75.0864 11.775 75.4654 11.8557 75.7489 11.6717Z" fill="white"/>
<path opacity="0.3" d="M93.7353 16.5318C94.1134 16.2865 94.221 15.781 93.9757 15.4029C93.7303 15.0248 93.2248 14.9172 92.8467 15.1626C92.4686 15.408 92.361 15.9134 92.6064 16.2915C92.8518 16.6696 93.3572 16.7772 93.7353 16.5318Z" fill="white"/>
<g clip-path="url(#clip3_0_1386)">
<path d="M176.194 5.03393C175.976 4.98038 175.842 4.75967 175.895 4.54095C175.949 4.32222 176.169 4.18831 176.388 4.24185C176.607 4.2954 176.741 4.51612 176.687 4.73485C176.634 4.95358 176.413 5.08748 176.194 5.03393Z" fill="white"/>
<path d="M156.664 17.0516C156.336 16.9712 156.135 16.6399 156.215 16.3117C156.296 15.9834 156.627 15.7824 156.955 15.8628C157.284 15.9431 157.485 16.2744 157.404 16.6027C157.324 16.931 156.993 17.1319 156.664 17.0516Z" fill="white"/>
<path opacity="0.11" d="M102.103 28.3396C101.665 28.2324 101.397 27.7906 101.504 27.3527C101.611 26.9149 102.053 26.6469 102.491 26.754C102.929 26.8612 103.197 27.3031 103.09 27.7409C102.982 28.1787 102.541 28.4467 102.103 28.3396Z" fill="white"/>
<path d="M98.4632 32.0673C98.1349 31.9869 97.934 31.6556 98.0144 31.3274C98.0947 30.9991 98.426 30.7981 98.7542 30.8785C99.0825 30.9588 99.2835 31.2901 99.2031 31.6184C99.1228 31.9467 98.7915 32.1476 98.4632 32.0673Z" fill="white"/>
<path d="M87.4227 20.5474C87.0944 20.467 86.8935 20.1357 86.9738 19.8075C87.0542 19.4792 87.3854 19.2782 87.7137 19.3586C88.042 19.4389 88.243 19.7702 88.1626 20.0985C88.0822 20.4268 87.751 20.6277 87.4227 20.5474Z" fill="white"/>
<path d="M121.297 27.9973C120.968 27.917 120.767 27.5857 120.848 27.2574C120.928 26.9291 121.259 26.7282 121.588 26.8085C121.916 26.8889 122.117 27.2202 122.037 27.5484C121.956 27.8767 121.625 28.0777 121.297 27.9973Z" fill="white"/>
<path opacity="0.11" d="M138.584 42.3076C138.146 42.2004 137.878 41.7586 137.985 41.3207C138.092 40.8829 138.534 40.6149 138.972 40.7221C139.41 40.8293 139.678 41.2711 139.571 41.7089C139.463 42.1467 139.022 42.4148 138.584 42.3076Z" fill="white"/>
<path d="M148.244 35.4344C148.025 35.3808 147.891 35.1601 147.945 34.9414C147.999 34.7227 148.219 34.5888 148.438 34.6423C148.657 34.6959 148.791 34.9166 148.737 35.1353C148.683 35.354 148.463 35.4879 148.244 35.4344Z" fill="white"/>
<path d="M99.5131 44.0829C99.2943 44.0294 99.1604 43.8087 99.214 43.59C99.2675 43.3712 99.4882 43.2373 99.707 43.2909C99.9257 43.3444 100.06 43.5651 100.006 43.7839C99.9525 44.0026 99.7318 44.1365 99.5131 44.0829Z" fill="white"/>
<path d="M13.1327 22.9385C12.914 22.8849 12.7801 22.6642 12.8337 22.4455C12.8872 22.2268 13.1079 22.0929 13.3266 22.1464C13.5454 22.1999 13.6793 22.4207 13.6257 22.6394C13.5722 22.8581 13.3515 22.992 13.1327 22.9385Z" fill="white"/>
<path opacity="0.11" d="M150.552 41.4566C150.333 41.403 150.2 41.1823 150.253 40.9636C150.307 40.7449 150.527 40.611 150.746 40.6645C150.965 40.7181 151.099 40.9388 151.045 41.1575C150.992 41.3762 150.771 41.5101 150.552 41.4566Z" fill="white"/>
<path opacity="0.11" d="M96.8134 58.5401C96.5947 58.4866 96.4608 58.2658 96.5143 58.0471C96.5679 57.8284 96.7886 57.6945 97.0073 57.748C97.226 57.8016 97.3599 58.0223 97.3064 58.241C97.2528 58.4597 97.0321 58.5936 96.8134 58.5401Z" fill="white"/>
<path opacity="0.11" d="M21.7065 35.955C21.4877 35.9015 21.3538 35.6807 21.4073 35.462C21.4609 35.2433 21.6816 35.1094 21.9004 35.1629C22.1191 35.2165 22.253 35.4372 22.1994 35.6559C22.1459 35.8746 21.9252 36.0086 21.7065 35.955Z" fill="white"/>
<path opacity="0.3" d="M218.078 52.1097C217.859 52.0562 217.725 51.8355 217.778 51.6168C217.832 51.398 218.053 51.2641 218.271 51.3177C218.49 51.3712 218.624 51.5919 218.571 51.8107C218.517 52.0294 218.296 52.1633 218.078 52.1097Z" fill="white"/>
<path d="M132.185 8.4038C131.967 8.35025 131.833 8.12953 131.886 7.9108C131.94 7.69208 132.161 7.55817 132.379 7.61172C132.598 7.66527 132.732 7.88599 132.678 8.10471C132.625 8.32344 132.404 8.45734 132.185 8.4038Z" fill="white"/>
<path d="M150.204 51.4541C149.986 51.4006 149.852 51.1798 149.905 50.9611C149.959 50.7424 150.18 50.6085 150.398 50.662C150.617 50.7156 150.751 50.9363 150.697 51.155C150.644 51.3737 150.423 51.5076 150.204 51.4541Z" fill="white"/>
<path opacity="0.3" d="M177.94 58.2432C177.721 58.1897 177.587 57.969 177.641 57.7502C177.694 57.5315 177.915 57.3976 178.134 57.4511C178.352 57.5047 178.486 57.7254 178.433 57.9441C178.379 58.1629 178.159 58.2968 177.94 58.2432Z" fill="white"/>
<path opacity="0.11" d="M216.44 41.6311C216.222 41.5775 216.088 41.3568 216.141 41.1381C216.195 40.9194 216.416 40.7855 216.634 40.839C216.853 40.8926 216.987 41.1133 216.933 41.332C216.88 41.5507 216.659 41.6846 216.44 41.6311Z" fill="white"/>
<path opacity="0.3" d="M122.721 16.1677C122.502 16.1142 122.368 15.8935 122.422 15.6747C122.475 15.456 122.696 15.3221 122.914 15.3756C123.133 15.4292 123.267 15.6499 123.214 15.8686C123.16 16.0874 122.939 16.2213 122.721 16.1677Z" fill="white"/>
<path opacity="0.3" d="M141.622 57.3329C141.404 57.2793 141.27 57.0586 141.323 56.8399C141.377 56.6212 141.598 56.4873 141.816 56.5408C142.035 56.5944 142.169 56.8151 142.115 57.0338C142.062 57.2525 141.841 57.3864 141.622 57.3329Z" fill="white"/>
<path opacity="0.3" d="M206.586 49.2986C206.367 49.245 206.233 49.0243 206.287 48.8056C206.34 48.5869 206.561 48.453 206.78 48.5065C206.998 48.56 207.132 48.7808 207.079 48.9995C207.025 49.2182 206.805 49.3521 206.586 49.2986Z" fill="white"/>
<path opacity="0.3" d="M66.3274 35.54C65.8895 35.4328 65.6215 34.991 65.7287 34.5532C65.8359 34.1153 66.2777 33.8473 66.7155 33.9545C67.1533 34.0617 67.4214 34.5035 67.3142 34.9413C67.207 35.3791 66.7652 35.6472 66.3274 35.54Z" fill="white"/>
<path opacity="0.11" d="M45.8577 17.9307C45.4199 17.8236 45.1518 17.3817 45.259 16.9439C45.3662 16.5061 45.808 16.2381 46.2458 16.3452C46.6837 16.4524 46.9517 16.8942 46.8445 17.3321C46.7373 17.7699 46.2955 18.0379 45.8577 17.9307Z" fill="white"/>
<path d="M49.4491 4.11214C49.1208 4.03177 48.9198 3.7005 49.0002 3.37222C49.0806 3.04395 49.4118 2.84297 49.7401 2.92334C50.0684 3.0037 50.2693 3.33497 50.189 3.66324C50.1086 3.99152 49.7773 4.1925 49.4491 4.11214Z" fill="white"/>
<path d="M66.6024 52.4086C66.2741 52.3282 66.0731 51.9969 66.1535 51.6687C66.2339 51.3404 66.5651 51.1394 66.8934 51.2198C67.2217 51.3002 67.4226 51.6314 67.3423 51.9597C67.2619 52.288 66.9307 52.4889 66.6024 52.4086Z" fill="white"/>
<path d="M66.5267 16.692C66.1984 16.6117 65.9975 16.2804 66.0778 15.9521C66.1582 15.6239 66.4894 15.4229 66.8177 15.5032C67.146 15.5836 67.347 15.9149 67.2666 16.2431C67.1862 16.5714 66.855 16.7724 66.5267 16.692Z" fill="white"/>
<path d="M128.293 62.8892C127.965 62.8089 127.764 62.4776 127.844 62.1493C127.925 61.821 128.256 61.6201 128.584 61.7004C128.913 61.7808 129.114 62.1121 129.033 62.4403C128.953 62.7686 128.622 62.9696 128.293 62.8892Z" fill="white"/>
<path d="M24.2733 55.4849C23.945 55.4045 23.744 55.0732 23.8244 54.745C23.9048 54.4167 24.236 54.2157 24.5643 54.2961C24.8926 54.3764 25.0935 54.7077 25.0132 55.036C24.9328 55.3643 24.6016 55.5652 24.2733 55.4849Z" fill="white"/>
<path opacity="0.3" d="M188.595 31.8737C188.157 31.7666 187.889 31.3247 187.996 30.8869C188.103 30.4491 188.545 30.181 188.983 30.2882C189.421 30.3954 189.689 30.8372 189.582 31.2751C189.475 31.7129 189.033 31.9809 188.595 31.8737Z" fill="white"/>
<path opacity="0.11" d="M201.233 26.5684C200.795 26.4612 200.527 26.0194 200.634 25.5815C200.742 25.1437 201.183 24.8757 201.621 24.9829C202.059 25.09 202.327 25.5319 202.22 25.9697C202.113 26.4075 201.671 26.6756 201.233 26.5684Z" fill="white"/>
<path opacity="0.3" d="M198.193 52.7017C197.755 52.5945 197.487 52.1527 197.594 51.7149C197.701 51.2771 198.143 51.009 198.581 51.1162C199.019 51.2234 199.287 51.6652 199.179 52.103C199.072 52.5409 198.63 52.8089 198.193 52.7017Z" fill="white"/>
<path d="M173.529 46.2432C173.2 46.1628 172.999 45.8315 173.08 45.5033C173.16 45.175 173.491 44.974 173.82 45.0544C174.148 45.1347 174.349 45.466 174.269 45.7943C174.188 46.1226 173.857 46.3235 173.529 46.2432Z" fill="white"/>
</g>
<rect opacity="0.4" x="-374.387" y="-142.405" width="1000.23" height="416.765" fill="url(#paint1_radial_0_1386)"/>
</g>
<mask id="mask0_0_1386" style="mask-type:alpha" maskUnits="userSpaceOnUse" x="-375" y="-143" width="1001" height="418">
<rect x="-374.387" y="-142.383" width="1000.23" height="416.765" fill="url(#paint2_radial_0_1386)"/>
</mask>
<g mask="url(#mask0_0_1386)">
</g>
</g>
</g>
<rect x="1.38462" y="1.38462" width="219.923" height="63.2308" rx="31.6154" stroke="url(#paint3_linear_0_1386)" stroke-width="2.76923"/>
<defs>
<radialGradient id="paint0_radial_0_1386" cx="0" cy="0" r="1" gradientUnits="userSpaceOnUse" gradientTransform="translate(-15.8916 107.631) rotate(-24.1068) scale(190.992 233.515)">
<stop stop-color="#504DFF"/>
<stop offset="1" stop-color="#31160B" stop-opacity="0"/>
</radialGradient>
<radialGradient id="paint1_radial_0_1386" cx="0" cy="0" r="1" gradientUnits="userSpaceOnUse" gradientTransform="translate(125.731 65.9777) scale(500.117 208.382)">
<stop stop-color="#AB64F1" stop-opacity="0.5"/>
<stop offset="0.653203" stop-color="#2A0845" stop-opacity="0"/>
</radialGradient>
<radialGradient id="paint2_radial_0_1386" cx="0" cy="0" r="1" gradientUnits="userSpaceOnUse" gradientTransform="translate(125.731 65.9991) scale(541.794 541.794)">
<stop/>
<stop offset="0.8" stop-opacity="0"/>
</radialGradient>
<linearGradient id="paint3_linear_0_1386" x1="56.2323" y1="22.6092" x2="67.2488" y2="82.1751" gradientUnits="userSpaceOnUse">
<stop stop-color="#504DFF"/>
<stop offset="1" stop-color="white" stop-opacity="0"/>
</linearGradient>
<clipPath id="clip0_0_1386">
<rect width="222.692" height="66" rx="33" fill="white"/>
</clipPath>
<clipPath id="clip1_0_1386">
<rect width="231" height="79" fill="white" transform="translate(-4.57812 -12.463)"/>
</clipPath>
<clipPath id="clip2_0_1386">
<rect width="1000.23" height="416.765" fill="white" transform="translate(-374.387 -142.383)"/>
</clipPath>
<clipPath id="clip3_0_1386">
<rect width="605.698" height="507.758" fill="white" transform="matrix(-0.944226 0.329297 0.329297 0.944226 457.312 -240.323)"/>
</clipPath>
</defs>
</svg>
