<svg width="269" height="204" viewBox="0 0 269 204" fill="none" xmlns="http://www.w3.org/2000/svg">
<path d="M306.182 209.028H272.585L279.965 160.355L279.997 160.138L279.788 160.077C276.211 159.032 273.702 155.751 273.702 151.961C273.702 147.612 277.002 144.011 281.233 143.534L281.455 143.509V143.286V92.4284V92.0382L281.101 92.2013L171.332 142.706L171.436 142.933L171.332 142.706C166.852 144.768 162.082 145.813 157.153 145.813C152.224 145.813 147.454 144.768 142.976 142.706L142.871 142.933L142.976 142.706L3.88819 78.7093C1.67743 77.6878 0.25 75.4611 0.25 73.0289C0.25 70.5968 1.67743 68.37 3.8882 67.3486L142.976 3.35226L142.871 3.12515L142.976 3.35225C147.456 1.29031 152.224 0.25 157.153 0.25C162.082 0.25 166.852 1.29031 171.331 3.35224L171.435 3.12515L171.331 3.35226L310.418 67.3486C312.629 68.37 314.058 70.5969 314.058 73.0289C314.058 75.4611 312.63 77.6878 310.419 78.7093L297.457 84.6741L297.312 84.741V84.9012V143.286V143.509L297.534 143.534C301.765 144.011 305.065 147.612 305.065 151.961C305.065 155.751 302.556 159.032 298.981 160.077L298.771 160.138L298.804 160.355L306.182 209.028ZM137.168 165.103C143.488 168.01 150.213 169.485 157.153 169.485C164.096 169.485 170.819 168.01 177.136 165.103L244.816 133.962V195.938C244.816 199.238 242.314 202.826 237.719 206.37C233.138 209.903 226.535 213.347 218.467 216.369C202.334 222.412 180.385 226.75 157.153 226.75C133.921 226.75 111.973 222.412 95.8398 216.37C87.772 213.348 81.1691 209.903 76.5883 206.37C71.9941 202.826 69.4913 199.238 69.4913 195.938V133.962L137.168 165.103Z" fill="url(#paint0_linear_0_1374)" fill-opacity="0.25" stroke="url(#paint1_linear_0_1374)" stroke-width="0.5"/>
<defs>
<linearGradient id="paint0_linear_0_1374" x1="57.355" y1="20.1513" x2="74.2264" y2="210.29" gradientUnits="userSpaceOnUse">
<stop stop-color="white"/>
<stop offset="1" stop-color="white" stop-opacity="0"/>
</linearGradient>
<linearGradient id="paint1_linear_0_1374" x1="27.5101" y1="64.6801" x2="72.8461" y2="113.564" gradientUnits="userSpaceOnUse">
<stop stop-color="white"/>
<stop offset="0.996715" stop-color="white" stop-opacity="0"/>
</linearGradient>
</defs>
</svg>
