<svg width="99" height="100" viewBox="0 0 99 100" fill="none" xmlns="http://www.w3.org/2000/svg">
<rect x="49.3677" y="99.3677" width="69.8164" height="69.8164" rx="33.2308" transform="rotate(-135 49.3677 99.3677)" stroke="white" stroke-width="1.38462"/>
<path d="M48.1453 43.4362L42.8178 49.2006C42.7208 49.3103 42.6448 49.4396 42.5941 49.5811C42.4875 49.8618 42.4875 50.1766 42.5941 50.4573C42.6448 50.5988 42.7208 50.7281 42.8178 50.8377L48.1453 56.6022C48.2447 56.7097 48.3626 56.795 48.4924 56.8532C48.6222 56.9113 48.7613 56.9413 48.9018 56.9413C49.1856 56.9413 49.4577 56.8193 49.6583 56.6022C49.859 56.3851 49.9717 56.0907 49.9717 55.7837C49.9717 55.4767 49.859 55.1822 49.6583 54.9651L46.1422 51.1721L55.2948 51.1721C55.5774 51.1721 55.8484 51.0506 56.0482 50.8344C56.2481 50.6182 56.3603 50.325 56.3603 50.0192C56.3603 49.7134 56.2481 49.4202 56.0482 49.204C55.8484 48.9878 55.5774 48.8663 55.2948 48.8663L46.1422 48.8663L49.6583 45.0733C49.7582 44.9661 49.8375 44.8386 49.8916 44.6981C49.9457 44.5576 49.9735 44.4069 49.9735 44.2547C49.9735 44.1025 49.9457 43.9518 49.8916 43.8113C49.8375 43.6708 49.7582 43.5433 49.6583 43.4362C49.5593 43.3281 49.4414 43.2423 49.3116 43.1838C49.1818 43.1253 49.0425 43.0951 48.9018 43.0951C48.7612 43.0951 48.6219 43.1253 48.4921 43.1838C48.3622 43.2423 48.2444 43.3281 48.1453 43.4362Z" fill="white"/>
</svg>
