<svg width="195" height="66" viewBox="0 0 195 66" fill="none" xmlns="http://www.w3.org/2000/svg">
<g clip-path="url(#clip0_0_3577)">
<rect x="0.846191" width="194" height="66" rx="33" fill="black" fill-opacity="0.15"/>
<rect x="0.846191" width="194" height="66" rx="33" fill="url(#paint0_radial_0_3577)"/>
<g clip-path="url(#clip1_0_3577)">
<g clip-path="url(#clip2_0_3577)">
<path d="M52.1243 39.3762C52.3132 39.2536 52.3669 39.0011 52.2444 38.8122C52.1218 38.6233 51.8693 38.5695 51.6804 38.6921C51.4915 38.8147 51.4378 39.0672 51.5603 39.2561C51.6829 39.445 51.9354 39.4987 52.1243 39.3762Z" fill="white"/>
<path d="M106.987 13.0114C107.176 12.8888 107.23 12.6363 107.107 12.4474C106.985 12.2585 106.732 12.2048 106.543 12.3273C106.354 12.4499 106.301 12.7024 106.423 12.8913C106.546 13.0802 106.798 13.134 106.987 13.0114Z" fill="white"/>
<path opacity="0.11" d="M48.3152 54.4899C48.5041 54.3673 48.5579 54.1148 48.4353 53.9259C48.3127 53.737 48.0602 53.6833 47.8713 53.8059C47.6824 53.9285 47.6287 54.181 47.7513 54.3699C47.8738 54.5587 48.1263 54.6125 48.3152 54.4899Z" fill="white"/>
<path opacity="0.11" d="M26.1145 10.5417C26.3034 10.4191 26.3572 10.1666 26.2346 9.97769C26.112 9.7888 25.8595 9.73505 25.6706 9.85764C25.4817 9.98022 25.428 10.2327 25.5506 10.4216C25.6732 10.6105 25.9257 10.6643 26.1145 10.5417Z" fill="white"/>
<path opacity="0.11" d="M90.6214 9.52753C90.8103 9.40494 90.864 9.15245 90.7414 8.96355C90.6188 8.77466 90.3664 8.72089 90.1775 8.84348C89.9886 8.96606 89.9348 9.21856 90.0574 9.40746C90.18 9.59635 90.4325 9.65012 90.6214 9.52753Z" fill="white"/>
<path opacity="0.11" d="M19.5752 45.4233C19.9533 45.1779 20.0609 44.6724 19.8155 44.2943C19.5701 43.9162 19.0647 43.8086 18.6866 44.054C18.3085 44.2994 18.2009 44.8048 18.4463 45.1829C18.6916 45.561 19.1971 45.6686 19.5752 45.4233Z" fill="white"/>
<path d="M11.6337 33.5584C11.9172 33.3744 11.9978 32.9955 11.8139 32.7119C11.6299 32.4284 11.2509 32.3478 10.9674 32.5317C10.6839 32.7157 10.6032 33.0947 10.7872 33.3782C10.9712 33.6617 11.3502 33.7424 11.6337 33.5584Z" fill="white"/>
<path d="M129.386 17.9288C129.67 17.7448 129.75 17.3658 129.566 17.0823C129.382 16.7988 129.003 16.7181 128.72 16.9021C128.436 17.0861 128.356 17.4651 128.54 17.7486C128.724 18.0321 129.103 18.1127 129.386 17.9288Z" fill="white"/>
<path opacity="0.3" d="M40.082 15.5786C40.4602 15.3333 40.5678 14.8278 40.3224 14.4497C40.077 14.0716 39.5716 13.964 39.1935 14.2094C38.8153 14.4547 38.7077 14.9602 38.9531 15.3383C39.1985 15.7164 39.7039 15.824 40.082 15.5786Z" fill="white"/>
<path d="M62.5946 11.6716C62.8781 11.4876 62.9588 11.1086 62.7748 10.8251C62.5908 10.5416 62.2119 10.4609 61.9284 10.6449C61.6449 10.8289 61.5642 11.2079 61.7482 11.4914C61.9322 11.7749 62.3111 11.8555 62.5946 11.6716Z" fill="white"/>
<path opacity="0.3" d="M80.581 16.5317C80.9591 16.2863 81.0667 15.7808 80.8214 15.4027C80.576 15.0246 80.0706 14.917 79.6924 15.1624C79.3143 15.4078 79.2067 15.9132 79.4521 16.2913C79.6975 16.6694 80.2029 16.777 80.581 16.5317Z" fill="white"/>
<g clip-path="url(#clip3_0_3577)">
<path d="M163.04 5.03375C162.821 4.9802 162.687 4.75949 162.741 4.54076C162.794 4.32204 163.015 4.18812 163.234 4.24167C163.453 4.29521 163.586 4.51594 163.533 4.73467C163.479 4.95339 163.259 5.08729 163.04 5.03375Z" fill="white"/>
<path d="M143.51 17.0515C143.182 16.9711 142.981 16.6398 143.061 16.3115C143.142 15.9833 143.473 15.7823 143.801 15.8627C144.129 15.943 144.33 16.2743 144.25 16.6026C144.17 16.9309 143.838 17.1318 143.51 17.0515Z" fill="white"/>
<path opacity="0.11" d="M88.9485 28.3394C88.5107 28.2323 88.2426 27.7904 88.3498 27.3526C88.457 26.9148 88.8988 26.6467 89.3366 26.7539C89.7745 26.8611 90.0425 27.3029 89.9353 27.7408C89.8281 28.1786 89.3863 28.4466 88.9485 28.3394Z" fill="white"/>
<path d="M85.3089 32.0671C84.9806 31.9867 84.7797 31.6555 84.8601 31.3272C84.9404 30.9989 85.2717 30.7979 85.6 30.8783C85.9282 30.9587 86.1292 31.2899 86.0488 31.6182C85.9685 31.9465 85.6372 32.1474 85.3089 32.0671Z" fill="white"/>
<path d="M74.2684 20.5472C73.9401 20.4668 73.7392 20.1356 73.8195 19.8073C73.8999 19.479 74.2311 19.278 74.5594 19.3584C74.8877 19.4388 75.0887 19.77 75.0083 20.0983C74.9279 20.4266 74.5967 20.6276 74.2684 20.5472Z" fill="white"/>
<path d="M108.142 27.9973C107.814 27.9169 107.613 27.5856 107.694 27.2574C107.774 26.9291 108.105 26.7281 108.433 26.8085C108.762 26.8888 108.963 27.2201 108.882 27.5484C108.802 27.8767 108.471 28.0776 108.142 27.9973Z" fill="white"/>
<path opacity="0.11" d="M125.429 42.3074C124.992 42.2003 124.724 41.7584 124.831 41.3206C124.938 40.8828 125.38 40.6148 125.818 40.7219C126.255 40.8291 126.523 41.2709 126.416 41.7088C126.309 42.1466 125.867 42.4146 125.429 42.3074Z" fill="white"/>
<path d="M135.09 35.4343C134.871 35.3807 134.737 35.16 134.791 34.9413C134.844 34.7225 135.065 34.5886 135.284 34.6422C135.502 34.6957 135.636 34.9164 135.583 35.1352C135.529 35.3539 135.308 35.4878 135.09 35.4343Z" fill="white"/>
<path d="M86.3588 44.0828C86.14 44.0293 86.0061 43.8086 86.0597 43.5898C86.1132 43.3711 86.3339 43.2372 86.5527 43.2907C86.7714 43.3443 86.9053 43.565 86.8518 43.7837C86.7982 44.0025 86.5775 44.1364 86.3588 44.0828Z" fill="white"/>
<path opacity="0.11" d="M137.398 41.4565C137.179 41.4029 137.045 41.1822 137.099 40.9635C137.152 40.7448 137.373 40.6108 137.592 40.6644C137.81 40.7179 137.944 40.9387 137.891 41.1574C137.837 41.3761 137.617 41.51 137.398 41.4565Z" fill="white"/>
<path opacity="0.11" d="M83.6591 58.54C83.4404 58.4864 83.3065 58.2657 83.36 58.047C83.4136 57.8283 83.6343 57.6944 83.853 57.7479C84.0717 57.8014 84.2056 58.0222 84.1521 58.2409C84.0985 58.4596 83.8778 58.5935 83.6591 58.54Z" fill="white"/>
<path opacity="0.11" d="M8.55216 35.9549C8.33343 35.9013 8.1995 35.6806 8.25305 35.4619C8.3066 35.2432 8.52734 35.1093 8.74607 35.1628C8.96479 35.2164 9.09868 35.4371 9.04514 35.6558C8.99159 35.8745 8.77089 36.0084 8.55216 35.9549Z" fill="white"/>
<path d="M119.031 8.40374C118.812 8.35019 118.679 8.12947 118.732 7.91074C118.786 7.69202 119.006 7.55811 119.225 7.61166C119.444 7.6652 119.578 7.88592 119.524 8.10465C119.471 8.32338 119.25 8.45728 119.031 8.40374Z" fill="white"/>
<path d="M137.05 51.454C136.831 51.4005 136.698 51.1798 136.751 50.961C136.805 50.7423 137.025 50.6084 137.244 50.662C137.463 50.7155 137.597 50.9362 137.543 51.155C137.49 51.3737 137.269 51.5076 137.05 51.454Z" fill="white"/>
<path opacity="0.3" d="M164.786 58.2431C164.567 58.1895 164.433 57.9688 164.486 57.7501C164.54 57.5314 164.761 57.3975 164.979 57.451C165.198 57.5046 165.332 57.7253 165.279 57.944C165.225 58.1627 165.004 58.2966 164.786 58.2431Z" fill="white"/>
<path opacity="0.3" d="M109.566 16.1675C109.348 16.114 109.214 15.8933 109.267 15.6745C109.321 15.4558 109.541 15.3219 109.76 15.3755C109.979 15.429 110.113 15.6497 110.059 15.8685C110.006 16.0872 109.785 16.2211 109.566 16.1675Z" fill="white"/>
<path opacity="0.3" d="M128.468 57.3327C128.249 57.2792 128.116 57.0584 128.169 56.8397C128.223 56.621 128.443 56.4871 128.662 56.5406C128.881 56.5942 129.015 56.8149 128.961 57.0336C128.908 57.2523 128.687 57.3862 128.468 57.3327Z" fill="white"/>
<path opacity="0.3" d="M193.432 49.2985C193.213 49.245 193.079 49.0243 193.132 48.8055C193.186 48.5868 193.407 48.4529 193.625 48.5064C193.844 48.56 193.978 48.7807 193.925 48.9994C193.871 49.2182 193.65 49.3521 193.432 49.2985Z" fill="white"/>
<path opacity="0.3" d="M53.1731 35.5399C52.7352 35.4327 52.4672 34.9909 52.5744 34.553C52.6816 34.1152 53.1234 33.8472 53.5612 33.9544C53.999 34.0615 54.2671 34.5034 54.1599 34.9412C54.0527 35.379 53.6109 35.6471 53.1731 35.5399Z" fill="white"/>
<path opacity="0.11" d="M32.7034 17.9306C32.2656 17.8234 31.9975 17.3816 32.1047 16.9438C32.2119 16.506 32.6537 16.2379 33.0915 16.3451C33.5294 16.4523 33.7974 16.8941 33.6902 17.3319C33.583 17.7698 33.1412 18.0378 32.7034 17.9306Z" fill="white"/>
<path d="M36.2948 4.11202C35.9665 4.03165 35.7655 3.70038 35.8459 3.3721C35.9263 3.04382 36.2575 2.84285 36.5858 2.92322C36.9141 3.00358 37.115 3.33484 37.0347 3.66312C36.9543 3.9914 36.623 4.19238 36.2948 4.11202Z" fill="white"/>
<path d="M53.4481 52.4085C53.1198 52.3282 52.9188 51.9969 52.9992 51.6686C53.0796 51.3403 53.4108 51.1394 53.7391 51.2197C54.0674 51.3001 54.2683 51.6314 54.188 51.9596C54.1076 52.2879 53.7764 52.4889 53.4481 52.4085Z" fill="white"/>
<path d="M53.3724 16.692C53.0441 16.6116 52.8432 16.2803 52.9235 15.9521C53.0039 15.6238 53.3352 15.4228 53.6634 15.5032C53.9917 15.5835 54.1927 15.9148 54.1123 16.2431C54.0319 16.5714 53.7007 16.7723 53.3724 16.692Z" fill="white"/>
<path d="M115.139 62.8891C114.811 62.8088 114.61 62.4775 114.69 62.1492C114.77 61.8209 115.102 61.62 115.43 61.7003C115.758 61.7807 115.959 62.1119 115.879 62.4402C115.799 62.7685 115.467 62.9695 115.139 62.8891Z" fill="white"/>
<path d="M11.119 55.4848C10.7907 55.4044 10.5897 55.0732 10.6701 54.7449C10.7505 54.4166 11.0817 54.2157 11.41 54.296C11.7383 54.3764 11.9392 54.7076 11.8589 55.0359C11.7785 55.3642 11.4473 55.5652 11.119 55.4848Z" fill="white"/>
<path opacity="0.3" d="M175.441 31.8736C175.003 31.7664 174.735 31.3246 174.842 30.8868C174.949 30.449 175.391 30.1809 175.829 30.2881C176.267 30.3953 176.535 30.8371 176.428 31.2749C176.32 31.7128 175.878 31.9808 175.441 31.8736Z" fill="white"/>
<path opacity="0.11" d="M188.079 26.5682C187.641 26.461 187.373 26.0192 187.48 25.5814C187.587 25.1435 188.029 24.8755 188.467 24.9827C188.905 25.0899 189.173 25.5317 189.066 25.9695C188.959 26.4073 188.517 26.6754 188.079 26.5682Z" fill="white"/>
<path opacity="0.3" d="M185.038 52.7016C184.601 52.5944 184.332 52.1526 184.44 51.7148C184.547 51.277 184.989 51.0089 185.426 51.1161C185.864 51.2233 186.132 51.6651 186.025 52.1029C185.918 52.5408 185.476 52.8088 185.038 52.7016Z" fill="white"/>
<path d="M160.374 46.243C160.046 46.1626 159.845 45.8313 159.925 45.5031C160.006 45.1748 160.337 44.9738 160.665 45.0542C160.994 45.1346 161.195 45.4658 161.114 45.7941C161.034 46.1224 160.703 46.3233 160.374 46.243Z" fill="white"/>
</g>
<rect opacity="0.4" x="-387.541" y="-142.405" width="1000.23" height="416.765" fill="url(#paint1_radial_0_3577)"/>
</g>
<mask id="mask0_0_3577" style="mask-type:alpha" maskUnits="userSpaceOnUse" x="-388" y="-143" width="1001" height="418">
<rect x="-387.541" y="-142.383" width="1000.23" height="416.765" fill="url(#paint2_radial_0_3577)"/>
</mask>
<g mask="url(#mask0_0_3577)">
</g>
</g>
</g>
<rect x="2.23081" y="1.38462" width="191.231" height="63.2308" rx="31.6154" stroke="url(#paint3_linear_0_3577)" stroke-width="2.76923"/>
<defs>
<radialGradient id="paint0_radial_0_3577" cx="0" cy="0" r="1" gradientUnits="userSpaceOnUse" gradientTransform="translate(-12.9979 107.631) rotate(-27.187) scale(170.736 227.563)">
<stop stop-color="#504DFF"/>
<stop offset="1" stop-color="#31160B" stop-opacity="0"/>
</radialGradient>
<radialGradient id="paint1_radial_0_3577" cx="0" cy="0" r="1" gradientUnits="userSpaceOnUse" gradientTransform="translate(112.577 65.9776) scale(500.117 208.382)">
<stop stop-color="#AB64F1" stop-opacity="0.5"/>
<stop offset="0.653203" stop-color="#2A0845" stop-opacity="0"/>
</radialGradient>
<radialGradient id="paint2_radial_0_3577" cx="0" cy="0" r="1" gradientUnits="userSpaceOnUse" gradientTransform="translate(112.577 65.999) scale(541.794 541.794)">
<stop/>
<stop offset="0.8" stop-opacity="0"/>
</radialGradient>
<linearGradient id="paint3_linear_0_3577" x1="49.8334" y1="22.6092" x2="62.3477" y2="81.5558" gradientUnits="userSpaceOnUse">
<stop stop-color="#504DFF"/>
<stop offset="1" stop-color="white" stop-opacity="0"/>
</linearGradient>
<clipPath id="clip0_0_3577">
<rect x="0.846191" width="194" height="66" rx="33" fill="white"/>
</clipPath>
<clipPath id="clip1_0_3577">
<rect width="263" height="67" fill="white" transform="translate(-33.1538)"/>
</clipPath>
<clipPath id="clip2_0_3577">
<rect width="1000.23" height="416.765" fill="white" transform="translate(-387.541 -142.383)"/>
</clipPath>
<clipPath id="clip3_0_3577">
<rect width="605.698" height="507.758" fill="white" transform="matrix(-0.944226 0.329297 0.329297 0.944226 444.158 -240.323)"/>
</clipPath>
</defs>
</svg>
