<svg width="147" height="49" viewBox="0 0 147 49" fill="none" xmlns="http://www.w3.org/2000/svg">
<rect x="0.230957" y="12.9231" width="4.15385" height="23.5385" rx="2.07692" fill="#504DFF"/>
<rect x="5.76953" y="8.76924" width="4.15385" height="31.8462" rx="2.07692" fill="#504DFF"/>
<rect x="11.3081" y="6.00001" width="4.15385" height="37.3846" rx="2.07692" fill="#504DFF"/>
<rect x="16.8462" y="0.46154" width="4.15385" height="48.4615" rx="2.07692" fill="#504DFF"/>
<rect x="22.3848" y="0.46154" width="4.15385" height="48.4615" rx="2.07692" fill="#504DFF"/>
<rect x="27.9233" y="6.00001" width="4.15385" height="37.3846" rx="2.07692" fill="#504DFF"/>
<rect x="33.4619" y="8.76924" width="4.15385" height="31.8462" rx="2.07692" fill="#504DFF"/>
<rect x="39" y="12.9231" width="4.15385" height="23.5385" rx="2.07692" fill="#504DFF"/>
<path d="M57.7979 33.6923L51.6835 17.4979H54.6964L58.241 26.8246C58.5955 27.7994 58.9056 28.752 59.2601 30.0591C59.6588 28.6412 59.9911 27.6443 60.3013 26.8246L63.8016 17.4979H66.7481L60.7222 33.6923H57.7979ZM65.8666 28.1982C65.8666 24.7865 68.3257 22.4382 71.7152 22.4382C75.1047 22.4382 77.5638 24.7865 77.5638 28.1982C77.5638 31.6099 75.1047 33.9582 71.7152 33.9582C68.3257 33.9582 65.8666 31.6099 65.8666 28.1982ZM68.5694 28.1982C68.5694 30.192 69.8543 31.5434 71.7152 31.5434C73.5761 31.5434 74.861 30.192 74.861 28.1982C74.861 26.2043 73.5761 24.8529 71.7152 24.8529C69.8543 24.8529 68.5694 26.2043 68.5694 28.1982ZM86.5739 22.704V25.2074H85.5769C83.6274 25.2074 82.4089 26.2486 82.4089 28.3754V33.6923H79.7062V22.7705H82.2539L82.4089 24.3655C82.8742 23.28 83.9154 22.5489 85.3775 22.5489C85.7542 22.5489 86.1308 22.5932 86.5739 22.704ZM92.5578 33.6923H89.8551V25.008H87.7504V22.7483H89.8551V19.3366H92.5578V22.7483H94.6846V25.008H92.5578V33.6923ZM101.153 33.9803C97.896 33.9803 95.6142 31.6099 95.6142 28.2203C95.6142 24.7865 97.8517 22.416 101.064 22.416C104.343 22.416 106.425 24.6092 106.425 28.0209V28.8406L98.184 28.8628C98.3834 30.7902 99.4025 31.7649 101.197 31.7649C102.681 31.7649 103.656 31.1889 103.966 30.1477H106.47C106.004 32.5403 104.01 33.9803 101.153 33.9803ZM101.086 24.6314C99.4911 24.6314 98.5163 25.4954 98.2505 27.1348H103.745C103.745 25.6283 102.703 24.6314 101.086 24.6314ZM109.996 33.6923H106.917L110.683 28.3311L106.917 22.7483H110.062L112.477 26.4702L114.803 22.7483H117.838L114.117 28.2868L117.728 33.6923H114.626L112.3 30.0812L109.996 33.6923ZM127.215 33.6923H124.268L130.117 17.4979H133.019L138.867 33.6923H135.877L134.57 29.9483H128.522L127.215 33.6923ZM131.202 22.3274L129.363 27.5557H133.75L131.889 22.3274C131.756 21.9065 131.601 21.4191 131.557 21.0868C131.49 21.3969 131.357 21.8843 131.202 22.3274ZM143.734 17.4979V33.6923H140.898V17.4979H143.734Z" fill="white"/>
</svg>
