<svg width="117" height="39" viewBox="0 0 117 39" fill="none" xmlns="http://www.w3.org/2000/svg">
<path opacity="0.7" d="M4.19149 8.36604H2.46812V11.0635H1.09799V3.23876H4.19149C5.76499 3.23876 6.78189 4.26635 6.78189 5.79704C6.78189 7.30633 5.75429 8.36604 4.19149 8.36604ZM3.92388 4.45903H2.46812V7.14576H3.90247C4.84444 7.14576 5.34753 6.64267 5.34753 5.78634C5.34753 4.93001 4.83373 4.45903 3.92388 4.45903ZM7.16999 8.40885C7.16999 6.76042 8.35815 5.62578 9.99589 5.62578C11.6336 5.62578 12.8218 6.76042 12.8218 8.40885C12.8218 10.0573 11.6336 11.1919 9.99589 11.1919C8.35815 11.1919 7.16999 10.0573 7.16999 8.40885ZM8.4759 8.40885C8.4759 9.37222 9.09674 10.0252 9.99589 10.0252C10.895 10.0252 11.5159 9.37222 11.5159 8.40885C11.5159 7.44548 10.895 6.79253 9.99589 6.79253C9.09674 6.79253 8.4759 7.44548 8.4759 8.40885ZM14.7623 11.0635L13.0497 5.77564H14.4091L15.1049 8.04491C15.2226 8.46237 15.3296 8.92265 15.426 9.41504C15.5223 8.90124 15.6186 8.56941 15.7899 8.04491L16.5178 5.77564H17.8451L18.5516 8.04491C18.6158 8.25899 18.8299 9.0511 18.8941 9.40434C18.9797 9.00828 19.151 8.37674 19.2473 8.04491L19.9538 5.77564H21.3347L19.5042 11.0635H18.284L17.5561 8.77279C17.342 8.07702 17.2243 7.57393 17.1815 7.30633C17.1279 7.55252 17.0316 7.92717 16.764 8.7942L16.0361 11.0635H14.7623ZM24.2297 11.2026C22.6562 11.2026 21.5537 10.0573 21.5537 8.41956C21.5537 6.76042 22.6348 5.61507 24.1869 5.61507C25.7711 5.61507 26.7773 6.67478 26.7773 8.32322V8.71927L22.7954 8.72998C22.8917 9.66124 23.3841 10.1322 24.2511 10.1322C24.9683 10.1322 25.4393 9.85391 25.5891 9.35082H26.7987C26.5739 10.5069 25.6105 11.2026 24.2297 11.2026ZM24.1976 6.68549C23.4269 6.68549 22.9559 7.10295 22.8275 7.89505H25.4821C25.4821 7.16717 24.979 6.68549 24.1976 6.68549ZM31.1407 5.75423V6.96379H30.659C29.7171 6.96379 29.1284 7.46689 29.1284 8.49448V11.0635H27.8224V5.78634H29.0534L29.1284 6.55704C29.3531 6.03253 29.8562 5.6793 30.5627 5.6793C30.7447 5.6793 30.9266 5.70071 31.1407 5.75423ZM34.2126 11.2026C32.6391 11.2026 31.5365 10.0573 31.5365 8.41956C31.5365 6.76042 32.6176 5.61507 34.1697 5.61507C35.754 5.61507 36.7601 6.67478 36.7601 8.32322V8.71927L32.7782 8.72998C32.8745 9.66124 33.3669 10.1322 34.234 10.1322C34.9511 10.1322 35.4221 9.85391 35.572 9.35082H36.7816C36.5568 10.5069 35.5934 11.2026 34.2126 11.2026ZM34.1804 6.68549C33.4098 6.68549 32.9388 7.10295 32.8103 7.89505H35.4649C35.4649 7.16717 34.9619 6.68549 34.1804 6.68549ZM39.9782 11.2026C38.4476 11.2026 37.4949 10.0787 37.4949 8.44096C37.4949 6.79253 38.4583 5.61507 40.0532 5.61507C40.7918 5.61507 41.4447 5.92549 41.7765 6.45V3.0996H43.0717V11.0635H41.8729L41.7872 10.2393C41.4661 10.8494 40.7811 11.2026 39.9782 11.2026ZM40.2673 10.0038C41.1771 10.0038 41.7658 9.35082 41.7658 8.39815C41.7658 7.44548 41.1771 6.78182 40.2673 6.78182C39.3574 6.78182 38.8008 7.45618 38.8008 8.39815C38.8008 9.34011 39.3574 10.0038 40.2673 10.0038ZM48.5273 11.0635H47.3178V3.0996H48.6237V6.54633C48.9662 5.95761 49.6727 5.60437 50.4755 5.60437C51.9848 5.60437 52.9053 6.78182 52.9053 8.45167C52.9053 10.0787 51.9098 11.2026 50.3899 11.2026C49.5977 11.2026 48.9234 10.8494 48.613 10.2393L48.5273 11.0635ZM48.6344 8.39815C48.6344 9.35082 49.2231 10.0038 50.1222 10.0038C51.0428 10.0038 51.5887 9.34011 51.5887 8.39815C51.5887 7.45618 51.0428 6.78182 50.1222 6.78182C49.2231 6.78182 48.6344 7.44548 48.6344 8.39815ZM53.2862 13.5147V12.4229H54.0676C54.5814 12.4229 54.9026 12.3052 55.1273 11.6843L55.2772 11.2883L53.1471 5.77564H54.5279L55.8873 9.62912L57.3217 5.77564H58.6704L56.08 12.2409C55.684 13.2257 55.1273 13.6325 54.2603 13.6325C53.8964 13.6325 53.5752 13.5897 53.2862 13.5147Z" fill="white"/>
<g clip-path="url(#clip0_0_1811)">
<path d="M71.1006 20.7543V35.2175H75.1821V20.7543H71.1006ZM38.9873 20.7297V35.2052H43.1056V23.9656L46.317 23.9778C47.3711 23.9778 48.1065 24.2352 48.609 24.7745C49.2586 25.4609 49.516 26.5763 49.516 28.5987V35.2052H53.5118V27.2137C53.5118 21.5019 49.8715 20.7297 46.317 20.7297H38.9873ZM77.6826 20.7543V35.2175H84.3013C87.8314 35.2175 88.9835 34.6291 90.2215 33.3176C91.104 32.3984 91.6678 30.3637 91.6678 28.1452C91.6678 26.1105 91.1898 24.2965 90.344 23.1689C88.8487 21.1465 86.6669 20.7543 83.4066 20.7543H77.6826ZM81.7274 23.892H83.4801C86.0296 23.892 87.672 25.0319 87.672 27.9981C87.672 30.9643 86.0296 32.1165 83.4801 32.1165H81.7274V23.892ZM65.2172 20.7543L61.8098 32.2145L58.5494 20.7543H54.1369L58.7946 35.2175H64.6779L69.3846 20.7543H65.2172ZM93.5799 35.2175H97.6614V20.7543H93.5799V35.2175ZM105.028 20.7543L99.3284 35.2052H103.349L104.256 32.6435H110.997L111.855 35.193H116.231L110.482 20.7543H105.028ZM107.675 23.3895L110.151 30.1553H105.126L107.675 23.3895Z" fill="white"/>
<path d="M12.6473 23.1564V21.1708C12.8434 21.1585 13.0395 21.1463 13.2356 21.1463C18.6777 20.9747 22.2445 25.8284 22.2445 25.8284C22.2445 25.8284 18.3958 31.1725 14.2652 31.1725C13.7136 31.1725 13.1743 31.0867 12.6595 30.9151V24.8846C14.78 25.142 15.209 26.0736 16.4714 28.194L19.3028 25.8162C19.3028 25.8162 17.2314 23.1074 13.7504 23.1074C13.3827 23.0951 13.015 23.1196 12.6473 23.1564ZM12.6473 16.5867V19.5529L13.2356 19.5161C20.7982 19.2587 25.7377 25.7181 25.7377 25.7181C25.7377 25.7181 20.075 32.6065 14.1794 32.6065C13.6646 32.6065 13.1621 32.5575 12.6595 32.4717V34.3103C13.0763 34.3593 13.5053 34.3961 13.922 34.3961C19.4131 34.3961 23.3844 31.5892 27.2331 28.2798C27.8704 28.7946 30.4812 30.0326 31.0205 30.5719C27.3679 33.6361 18.8493 36.0998 14.0201 36.0998C13.5543 36.0998 13.113 36.0753 12.6718 36.0262V38.6125H33.5332V16.5867H12.6473ZM12.6473 30.9151V32.484C7.57288 31.5769 6.16333 26.2942 6.16333 26.2942C6.16333 26.2942 8.60247 23.5977 12.6473 23.1564V24.8724H12.635C10.5146 24.615 8.84761 26.6006 8.84761 26.6006C8.84761 26.6006 9.7914 29.9468 12.6473 30.9151ZM3.6384 26.0736C3.6384 26.0736 6.64135 21.6365 12.6595 21.1708V19.5529C5.99173 20.0922 0.230957 25.7304 0.230957 25.7304C0.230957 25.7304 3.49131 35.1682 12.6473 36.0262V34.3103C5.93045 33.4768 3.6384 26.0736 3.6384 26.0736Z" fill="#76B900"/>
</g>
<defs>
<clipPath id="clip0_0_1811">
<rect width="116" height="21.6822" fill="white" transform="translate(0.230957 16.7156)"/>
</clipPath>
</defs>
</svg>
