<svg width="294" height="228" viewBox="0 0 294 228" fill="none" xmlns="http://www.w3.org/2000/svg">
<path d="M155.217 303.456L155 303.078L154.783 303.456L119.89 364.344C114.127 374.402 103.4 380.607 91.7835 380.607C69.0649 380.607 53.4151 357.884 61.5696 336.745L89.1771 265.171L89.1971 265.119C91.3812 259.457 92.4916 256.579 92.844 254.009C94.0441 245.256 89.9574 236.621 82.4196 231.984C80.2062 230.619 77.271 229.644 71.496 227.725L71.4473 227.709L23.2799 211.7C9.52629 207.128 0.25 194.294 0.25 179.84C0.25 158.46 20.0206 142.522 40.9884 147.002L83.0061 155.98C85.3423 156.479 86.5115 156.729 87.6709 156.968C132.087 166.129 177.913 166.129 222.329 156.968C223.488 156.729 224.659 156.479 226.994 155.98L269.01 147.002C289.98 142.522 309.75 158.46 309.75 179.84C309.75 194.294 300.473 207.128 286.72 211.7L238.553 227.709L238.514 227.722C232.732 229.643 229.795 230.619 227.579 231.984C220.042 236.621 215.955 245.256 217.155 254.009C217.51 256.584 218.623 259.468 220.816 265.152L220.823 265.171L248.431 336.745C256.585 357.884 240.935 380.607 218.216 380.607C206.6 380.607 195.873 374.402 190.11 364.344L155.217 303.456ZM94.3571 60.7174C94.3571 27.3229 121.507 0.25 155 0.25C188.493 0.25 215.643 27.3229 215.643 60.7174C215.643 94.1119 188.493 121.185 155 121.185C121.507 121.185 94.3571 94.1119 94.3571 60.7174Z" fill="url(#paint0_linear_0_1380)" fill-opacity="0.25" stroke="url(#paint1_linear_0_1380)" stroke-width="0.5"/>
<defs>
<linearGradient id="paint0_linear_0_1380" x1="56.5689" y1="33.8095" x2="104.019" y2="348.172" gradientUnits="userSpaceOnUse">
<stop stop-color="white"/>
<stop offset="1" stop-color="white" stop-opacity="0"/>
</linearGradient>
<linearGradient id="paint1_linear_0_1380" x1="27.133" y1="108.519" x2="96.1182" y2="152.246" gradientUnits="userSpaceOnUse">
<stop stop-color="white"/>
<stop offset="0.996715" stop-color="white" stop-opacity="0"/>
</linearGradient>
</defs>
</svg>
