<svg width="33" height="33" viewBox="0 0 33 33" fill="none" xmlns="http://www.w3.org/2000/svg">
<path d="M15.4688 23.375C15.4688 23.9445 15.9305 24.4062 16.5 24.4062C17.0695 24.4062 17.5313 23.9445 17.5313 23.375H15.4688ZM20.9688 13.4062C20.9688 13.9758 21.4305 14.4375 22 14.4375C22.5695 14.4375 23.0313 13.9758 23.0313 13.4062H20.9688ZM9.96876 13.4062C9.96876 13.9758 10.4305 14.4375 11 14.4375C11.5695 14.4375 12.0313 13.9758 12.0313 13.4062H9.96876ZM13.0625 22.3437C12.493 22.3437 12.0313 22.8055 12.0313 23.375C12.0313 23.9445 12.493 24.4062 13.0625 24.4062V22.3437ZM20.625 24.4062C21.1945 24.4062 21.6563 23.9445 21.6563 23.375C21.6563 22.8055 21.1945 22.3437 20.625 22.3437V24.4062ZM13.75 10.6562H16.5V8.59373H13.75V10.6562ZM16.5 10.6562H19.25V8.59373H16.5V10.6562ZM17.5313 23.375V9.62498H15.4688V23.375H17.5313ZM20.9688 12.6805V13.4062H23.0313V12.6805H20.9688ZM9.96876 12.6805V13.4062H12.0313V12.6805H9.96876ZM19.25 10.6562C19.9305 10.6562 20.3258 10.6589 20.6064 10.7009C20.7327 10.7197 20.7914 10.7412 20.8142 10.7517C20.8285 10.7582 20.8281 10.7594 20.8307 10.7623L22.3638 9.38258C21.945 8.91727 21.4211 8.73717 20.9111 8.66098C20.443 8.59104 19.8659 8.59373 19.25 8.59373V10.6562ZM23.0313 12.6805C23.0313 11.9866 23.033 11.3727 22.9735 10.8803C22.9115 10.3683 22.7686 9.83236 22.3638 9.38258L20.8307 10.7623C20.8344 10.7664 20.8462 10.7791 20.863 10.8243C20.8825 10.8769 20.9066 10.9687 20.9259 11.128C20.967 11.4676 20.9688 11.934 20.9688 12.6805H23.0313ZM13.75 8.59373C13.1341 8.59373 12.5571 8.59104 12.0889 8.66098C11.5789 8.73717 11.055 8.91727 10.6362 9.38258L12.1693 10.7623C12.1719 10.7594 12.1716 10.7582 12.1858 10.7517C12.2087 10.7412 12.2673 10.7197 12.3936 10.7009C12.6743 10.6589 13.0695 10.6562 13.75 10.6562V8.59373ZM12.0313 12.6805C12.0313 11.934 12.033 11.4676 12.0741 11.128C12.0934 10.9687 12.1175 10.8769 12.137 10.8243C12.1537 10.7791 12.1656 10.7664 12.1693 10.7623L10.6362 9.38258C10.2314 9.83236 10.0885 10.3683 10.0266 10.8803C9.96698 11.3727 9.96876 11.9866 9.96876 12.6805H12.0313ZM13.0625 24.4062H20.625V22.3437H13.0625V24.4062Z" fill="#504DFF"/>
<path d="M30.25 16.5C30.25 22.9818 30.25 26.2228 28.2363 28.2363C26.2228 30.25 22.9818 30.25 16.5 30.25C10.0182 30.25 6.77728 30.25 4.76365 28.2363C2.75 26.2228 2.75 22.9818 2.75 16.5C2.75 10.0182 2.75 6.77728 4.76365 4.76365C6.77728 2.75 10.0182 2.75 16.5 2.75C22.9818 2.75 26.2228 2.75 28.2363 4.76365C29.5753 6.10254 30.024 7.98401 30.1742 11" stroke="#504DFF" stroke-width="2.0625" stroke-linecap="round"/>
</svg>
