<svg width="30" height="30" viewBox="0 0 30 30" fill="none" xmlns="http://www.w3.org/2000/svg">
<path d="M10.5193 12L15.4064 15.6654C16.0342 16.1361 16.9186 16.0436 17.4353 15.4532L27.0193 4.50001M28.5193 15C28.5193 17.8208 27.6358 20.5706 25.9927 22.8635C24.3497 25.1564 22.0297 26.8769 19.3588 27.7836C16.6877 28.6902 13.7998 28.7375 11.1004 27.9188C8.40117 27.0999 6.02617 25.4561 4.30902 23.2184C2.59186 20.9805 1.61881 18.261 1.52652 15.4418C1.43422 12.6225 2.22733 9.84517 3.79444 7.49981C5.36157 5.15446 7.62397 3.35888 10.2639 2.36528C12.9038 1.37166 15.7888 1.22994 18.5134 1.96001" stroke="#504DFF" stroke-width="2.06" stroke-linecap="round"/>
</svg>
