<svg width="100" height="100" viewBox="0 0 100 100" fill="none" xmlns="http://www.w3.org/2000/svg">
<rect x="50.103" y="0.632324" width="69.8164" height="69.8164" rx="33.2308" transform="rotate(45 50.103 0.632324)" stroke="white" stroke-width="1.38462"/>
<path d="M51.3254 56.5638L56.6529 50.7994C56.7499 50.6897 56.8259 50.5604 56.8766 50.4189C56.9832 50.1382 56.9832 49.8234 56.8766 49.5427C56.8259 49.4012 56.7499 49.2719 56.6529 49.1623L51.3254 43.3978C51.226 43.2903 51.1081 43.205 50.9783 43.1468C50.8485 43.0887 50.7094 43.0587 50.5689 43.0587C50.2851 43.0587 50.013 43.1807 49.8124 43.3978C49.6117 43.6149 49.499 43.9093 49.499 44.2163C49.499 44.5233 49.6117 44.8178 49.8124 45.0349L53.3285 48.8279H44.1759C43.8933 48.8279 43.6223 48.9494 43.4225 49.1656C43.2226 49.3818 43.1104 49.675 43.1104 49.9808C43.1104 50.2866 43.2226 50.5798 43.4225 50.796C43.6223 51.0122 43.8933 51.1337 44.1759 51.1337H53.3285L49.8124 54.9267C49.7125 55.0339 49.6332 55.1614 49.5791 55.3019C49.525 55.4424 49.4972 55.5931 49.4972 55.7453C49.4972 55.8975 49.525 56.0482 49.5791 56.1887C49.6332 56.3292 49.7125 56.4567 49.8124 56.5638C49.9114 56.6719 50.0293 56.7577 50.1591 56.8162C50.2889 56.8747 50.4282 56.9049 50.5689 56.9049C50.7095 56.9049 50.8488 56.8747 50.9786 56.8162C51.1085 56.7577 51.2263 56.6719 51.3254 56.5638Z" fill="white"/>
</svg>
