<svg width="28" height="32" viewBox="0 0 28 32" fill="none" xmlns="http://www.w3.org/2000/svg">
<path d="M6.49294 3.43716C9.34001 0.687432 12.7449 0 14.1854 0C15.6259 0 19.2186 0.687432 22.0657 3.43716C22.6589 3.19165 23.9977 2.50422 24.6077 1.71858C23.9299 3.519 21.2523 7.65996 15.9648 9.82046C15.8388 9.5624 15.3064 9.04627 14.1854 9.04627C13.0645 9.04627 12.7199 9.5624 12.5938 9.82046C7.30639 7.65996 4.62878 3.519 3.95091 1.71858C4.561 2.50422 5.8998 3.19165 6.49294 3.43716Z" fill="#F0F0FA"/>
<path d="M8.14547 9.12274C8.94732 9.70665 10.7521 10.943 11.5564 11.2172C10.0251 11.6805 7.19906 11.9103 8.14547 9.12274Z" fill="#F0F0FA"/>
<path d="M4.95189 5.82873C5.32646 6.36821 6.20179 7.53857 6.70649 7.90415C5.89812 9.72569 5.45243 13.3688 10.1366 13.3688L10.0183 14.9491L6.54856 16.8532C8.18073 17.3313 11.733 19.5134 12.8845 24.4171L14.2663 29.0301L15.673 24.4171C16.8245 19.5134 20.3768 17.3313 22.0089 16.8532L18.5392 14.9491L18.4209 13.3688C23.1051 13.3688 22.6594 9.72569 21.851 7.90415C22.3557 7.53857 23.231 6.36821 23.6056 5.82873C25.0616 7.23499 25.2199 10.007 25.117 11.2172C25.117 20.353 26.8849 24.6209 27.7689 25.6129L24.0239 22.8493L21.4882 26.8935L18.5392 24.4171L14.2663 31.2972L10.0183 24.4171L7.06932 26.8935L4.53364 22.8493L0.788574 25.6129C1.67256 24.6209 3.44053 20.353 3.44053 11.2172C3.33763 10.007 3.49585 7.23499 4.95189 5.82873Z" fill="#F0F0FA"/>
<path d="M20.412 9.12274C19.6102 9.70665 17.8054 10.943 17.0011 11.2172C18.5324 11.6805 21.3584 11.9103 20.412 9.12274Z" fill="#F0F0FA"/>
<path d="M11.9971 13.8426C11.9971 12.0366 13.5868 11.1476 14.384 10.9289C15.1812 11.1476 16.7755 12.0366 16.7755 13.8426V15.8114L18.5694 16.8876C17.1742 17.7276 14.3887 20.2319 14.3887 23.5288C14.3887 20.2319 11.5984 17.7276 10.2033 16.8876L11.9971 15.8114V13.8426Z" fill="#F0F0FA"/>
</svg>
