<svg width="30" height="30" viewBox="0 0 30 30" fill="none" xmlns="http://www.w3.org/2000/svg">
<rect x="0.92334" y="1.15384" width="27.6923" height="27.6923" rx="13.8462" stroke="white" stroke-width="1.38462"/>
<path d="M20.3373 18.8392L20.0283 10.9959C20.0193 10.8498 19.9817 10.7046 19.9175 10.5687C19.7943 10.2949 19.5717 10.0723 19.2979 9.94914C19.162 9.88493 19.0168 9.84727 18.8706 9.83833L11.0274 9.52933C10.8812 9.52357 10.7375 9.54667 10.6046 9.59732C10.4717 9.64797 10.3521 9.72517 10.2528 9.82451C10.0521 10.0251 9.94595 10.3038 9.95759 10.5992C9.96922 10.8946 10.0977 11.1825 10.3148 11.3996C10.5319 11.6167 10.8198 11.7452 11.1152 11.7568L16.2836 11.9526L9.81168 18.4245C9.61186 18.6243 9.50612 18.9018 9.5177 19.196C9.52929 19.4902 9.65727 19.7769 9.87348 19.9931C10.0897 20.2093 10.3764 20.3373 10.6706 20.3489C10.9648 20.3605 11.2423 20.2547 11.4421 20.0549L17.914 13.583L18.1098 18.7514C18.115 18.8978 18.1491 19.044 18.2102 19.1816C18.2713 19.3192 18.3581 19.4454 18.4657 19.5531C18.5734 19.6607 18.6996 19.7475 18.8372 19.8086C18.9748 19.8697 19.121 19.9038 19.2674 19.909C19.4139 19.9154 19.5578 19.8927 19.691 19.8423C19.8242 19.7918 19.944 19.7147 20.0435 19.6152C20.1429 19.5158 20.2201 19.396 20.2705 19.2628C20.3209 19.1296 20.3436 18.9856 20.3373 18.8392Z" fill="white"/>
</svg>
