<svg width="28" height="26" viewBox="0 0 28 26" fill="none" xmlns="http://www.w3.org/2000/svg">
<path fill-rule="evenodd" clip-rule="evenodd" d="M24.4161 0.407516C24.7478 0.257154 25.1109 0.205296 25.4676 0.257337C25.8242 0.309378 26.1614 0.463417 26.444 0.703421C26.7267 0.943424 26.9444 1.26062 27.0745 1.62199C27.2047 1.98336 27.2425 2.37569 27.1841 2.75816L24.1396 22.6461C23.8443 24.5645 21.8897 25.6646 20.2561 24.709C18.8895 23.9096 16.8598 22.6779 15.0342 21.3927C14.1213 20.7494 11.3252 18.6893 11.6688 17.2234C11.9641 15.97 16.6625 11.2601 19.3473 8.45983C20.401 7.35969 19.9205 6.72504 18.6761 7.737C15.5859 10.2496 10.6244 14.0704 8.98403 15.146C7.53693 16.0944 6.78251 16.2563 5.88043 16.0944C4.23466 15.7994 2.70837 15.3426 1.46263 14.786C-0.220724 14.0343 -0.138838 11.542 1.46129 10.8163L24.4161 0.407516Z" fill="#F0F0FA"/>
</svg>
