<svg width="25" height="28" viewBox="0 0 25 28" fill="none" xmlns="http://www.w3.org/2000/svg">
<path fill-rule="evenodd" clip-rule="evenodd" d="M9.3137 1.68397C7.6134 2.52123 6.22232 3.22972 6.22262 3.25854C6.22337 3.33291 10.3034 5.28614 10.4482 5.28138C10.5141 5.2793 10.9919 5.07136 11.5101 4.81936L12.4523 4.36125L14.5103 5.36133L16.1954 4.64555C18.7345 3.56699 18.9983 3.4488 18.9569 3.40909C18.9021 3.35641 17.9913 2.89392 15.5204 1.66424C14.3263 1.06993 13.1673 0.487219 12.9447 0.369308C12.7223 0.251397 12.5099 0.156546 12.4728 0.158382C12.4357 0.160218 11.014 0.846739 9.3137 1.68397ZM1.8562 5.33444L0.0862011 6.19868L0.0862011 9.99168C0.0862011 12.0778 0.109443 13.7846 0.137952 13.7846C0.166362 13.7846 1.0372 13.4278 2.07311 12.9917L3.95658 12.1987V8.20061L4.87696 8.67462C5.5862 9.03955 6.29587 9.40374 7.00596 9.76719L8.21453 10.3857L8.75231 10.1559C9.08959 10.0115 9.42619 9.86566 9.76211 9.71845C10.0217 9.60418 10.6589 9.33289 11.1781 9.11546C11.6973 8.89793 12.1779 8.6792 12.246 8.62934C12.3365 8.56312 11.2327 7.98648 8.16307 6.49643C5.84927 5.37325 3.88191 4.45784 3.79119 4.46223C3.70046 4.46662 2.82972 4.85906 1.8562 5.33444ZM19.2759 5.57714C18.0704 6.09157 17.0833 6.53303 17.0822 6.5582C17.0811 6.58335 17.7381 6.95264 18.5423 7.37872C19.3464 7.8049 20.0044 8.17637 20.0044 8.20435C20.0044 8.23226 19.2928 8.55817 18.4232 8.92874C17.5535 9.29921 15.3552 10.2376 13.5381 11.0142L7.44933 13.6158C5.91771 14.2703 4.53713 14.8602 4.38138 14.9269C1.25296 16.2656 0.393084 16.6371 0.274999 16.7009C0.156256 16.7651 0.12936 17.138 0.108225 19.0099L0.0830078 21.2425L3.24859 22.7672L5.44336 21.8309C6.65051 21.316 7.63812 20.8677 7.63812 20.8347C7.63812 20.8017 7.41506 20.6644 7.14254 20.5292C6.86989 20.3941 6.30709 20.095 5.89173 19.8644C5.47641 19.6338 5.06227 19.4222 4.97135 19.3941C4.88045 19.3662 4.8074 19.3172 4.80889 19.2853C4.8104 19.2534 5.77687 18.8195 6.95648 18.3209C9.24763 17.3525 11.001 16.6062 14.7652 14.997C16.4485 14.2777 18.1319 13.5587 19.8156 12.8402C21.2953 12.2088 23.0157 11.4715 23.6388 11.2016L24.7715 10.7109L24.822 6.19495L23.2167 5.41604C22.3337 4.98768 21.579 4.63824 21.5394 4.63952C21.4999 4.6407 20.4813 5.06258 19.2759 5.57714ZM24.3414 13.7233C24.1049 13.8325 23.6376 14.037 23.3031 14.1777C22.9685 14.3184 22.3337 14.5892 21.8924 14.7795L21.09 15.1255L21.0717 17.1078C21.0616 18.1981 21.0191 19.0853 20.9773 19.0795C20.8823 19.0662 19.3784 18.3371 17.8667 17.5714C16.7757 17.0188 16.7071 16.9969 16.4507 17.1169C16.3025 17.1863 15.4166 17.5619 14.4821 17.9517C13.5475 18.3414 12.7524 18.6857 12.715 18.7169C12.6777 18.748 14.5586 19.7116 16.8949 20.8584L21.1426 22.9435L22.9571 22.0562C23.955 21.5683 24.8035 21.1232 24.8426 21.0672C24.9306 20.9413 24.923 13.5074 24.835 13.5175C24.8001 13.5214 24.578 13.614 24.3414 13.7233ZM14.2933 22.4488C13.9785 22.5767 13.6639 22.7048 13.3493 22.8331C12.3993 23.2216 12.5855 23.2345 11.4553 22.7027C10.7026 22.3485 10.3781 22.2392 10.2373 22.2922C10.1317 22.332 9.22251 22.7187 8.2168 23.1514C7.21115 23.5842 6.35344 23.9383 6.31078 23.9383C5.88884 23.9383 6.5903 24.3345 9.29711 25.6252L12.4716 27.1387L13.8072 26.5154C14.5418 26.1725 16.0235 25.486 17.0999 24.9898C18.1762 24.4934 19.0436 24.0745 19.0274 24.0587C19.011 24.0429 18.1091 23.6052 17.0231 23.0858L15.0485 22.1417L14.2933 22.4488Z" fill="#F0F0FA"/>
</svg>
