<svg width="241" height="215" viewBox="0 0 241 215" fill="none" xmlns="http://www.w3.org/2000/svg">
<path d="M134.977 93.7954C134.968 62.6727 134.96 31.5818 135.187 0.493644C144.702 0.350065 154.172 0.335871 163.626 0.321703C170.064 0.312054 176.494 0.302416 182.925 0.251935C183.518 20.2586 191.652 38.2629 204.561 51.6156L204.561 51.6159L204.578 51.6328L204.58 51.6357L204.581 51.6349C218.536 64.2116 236.692 72.3652 256.706 73.7509C256.706 73.7509 256.706 73.7509 256.707 73.7509L256.75 73.754V122.976C238.336 122.479 221 118.275 205.324 111.067L205.339 111.034C197.876 107.442 191.527 103.758 185.509 99.6715L185.509 99.6538L185.396 99.5795L184.887 99.247L184.883 99.2439L184.604 99.6592C184.739 99.7515 184.874 99.8436 185.008 99.9354C184.965 113.257 184.97 126.578 184.975 139.892C184.983 162.529 184.992 185.145 184.762 207.713C183.755 225.824 177.775 242.352 168.18 256.182L168.169 256.174C151.919 279.467 125.6 294.754 95.6724 295.661L95.5378 295.661L95.5257 295.661C94.3175 295.72 92.8916 295.75 91.4547 295.75C74.6017 295.75 58.8398 291.095 45.372 283.001L45.377 282.993C20.706 268.136 3.69029 242.717 0.54254 213.155C0.542501 213.154 0.542461 213.154 0.542422 213.154L0.503891 212.758C0.257741 206.597 0.139838 200.44 0.385502 194.413C5.20885 147.367 44.5919 110.976 92.4607 110.976C97.5765 110.976 102.594 111.394 107.481 112.189C107.617 122.554 107.437 132.911 107.257 143.273C107.123 150.978 106.989 158.686 106.985 166.401C102.864 164.954 98.1448 164.117 93.23 164.117C74.6971 164.117 58.933 175.973 53.0996 192.525L53.0993 192.525L53.0959 192.537L53.0079 192.83C53.0078 192.831 53.0077 192.831 53.0076 192.831C51.6883 197.071 50.9255 201.942 50.9255 206.981C50.9255 209.025 51.0543 211.049 51.2922 213.032L51.3109 213.03C54.696 233.233 72.0461 248.453 92.9538 248.453C93.5581 248.453 94.1543 248.443 94.7515 248.413L94.7513 248.411C109.228 247.943 121.791 240.136 128.899 228.612L128.899 228.612L128.905 228.602L128.997 228.437C131.649 224.734 133.467 220.256 134.073 215.392L134.073 215.393L134.074 215.379L134.084 215.241L134.084 215.237C134.995 198.925 134.964 182.681 134.934 166.411C134.923 160.647 134.912 154.881 134.943 149.107V149.106C134.987 130.654 134.982 112.219 134.977 93.7954Z" fill="url(#paint0_linear_0_1362)" fill-opacity="0.25" stroke="url(#paint1_linear_0_1362)" stroke-width="0.5"/>
<defs>
<linearGradient id="paint0_linear_0_1362" x1="46.8974" y1="26.2766" x2="81.5632" y2="271.258" gradientUnits="userSpaceOnUse">
<stop stop-color="white"/>
<stop offset="1" stop-color="white" stop-opacity="0"/>
</linearGradient>
<linearGradient id="paint1_linear_0_1362" x1="22.4942" y1="84.3406" x2="77.5114" y2="121.54" gradientUnits="userSpaceOnUse">
<stop stop-color="white"/>
<stop offset="0.996715" stop-color="white" stop-opacity="0"/>
</linearGradient>
</defs>
</svg>
