<svg width="29" height="29" viewBox="0 0 29 29" fill="none" xmlns="http://www.w3.org/2000/svg">
<path d="M14.589 0.00133008C15.8634 0.0760177 16.9241 0.703032 17.5639 1.97754L28.0343 23.7863C29.0495 25.9908 27.4774 28.9572 24.8977 29H3.81277C1.46487 28.9615 -0.461553 26.2107 0.688462 23.7622L11.3544 1.95405C11.5541 1.56254 11.6451 1.44931 11.8173 1.24392C12.5097 0.415726 13.2668 -0.0275813 14.589 0.00133008ZM14.4168 2.4088C14.0158 2.42928 13.6486 2.66117 13.4484 3.02136C9.76366 10.2365 6.21145 17.5258 2.76491 24.8657C2.44617 25.6035 2.99316 26.5504 3.7935 26.5901C10.8337 26.7076 17.8768 26.7076 24.917 26.5901C25.6905 26.5516 26.2719 25.636 25.9497 24.8735C22.5679 17.5348 19.0817 10.2456 15.4618 3.02919C15.2481 2.63708 14.9346 2.40157 14.4168 2.4088Z" fill="#504DFF"/>
<path d="M15.292 19.6333H13.3376L13.1227 9.72577H15.5162L15.292 19.6333ZM13.0573 22.663C13.0573 22.2962 13.1723 21.9926 13.4029 21.7511C13.6341 21.5102 13.9488 21.3891 14.3475 21.3891C14.7468 21.3891 15.0614 21.5102 15.292 21.7511C15.5226 21.9926 15.6382 22.2962 15.6382 22.663C15.6382 23.0166 15.5255 23.3123 15.3013 23.5502C15.0766 23.7881 14.759 23.9074 14.3475 23.9074C13.9359 23.9074 13.6183 23.7881 13.3936 23.5502C13.1694 23.3123 13.0573 23.0166 13.0573 22.663Z" fill="#504DFF"/>
</svg>
