<svg width="66" height="66" viewBox="0 0 66 66" fill="none" xmlns="http://www.w3.org/2000/svg">
<circle cx="33" cy="33" r="33" fill="url(#paint0_linear_1_165)"/>
<path d="M32.864 44C32.6293 44 32.4373 43.9253 32.288 43.776C32.16 43.6267 32.096 43.4453 32.096 43.232V26.656L27.232 30.4C27.04 30.528 26.848 30.5813 26.656 30.56C26.464 30.5173 26.2933 30.4 26.144 30.208L24.8 28.48C24.672 28.288 24.6187 28.0853 24.64 27.872C24.6827 27.6587 24.8 27.488 24.992 27.36L32.16 21.824C32.288 21.7173 32.416 21.6533 32.544 21.632C32.672 21.6107 32.8107 21.6 32.96 21.6H35.776C35.9893 21.6 36.1707 21.6747 36.32 21.824C36.4693 21.9733 36.544 22.1547 36.544 22.368V43.232C36.544 43.4453 36.4693 43.6267 36.32 43.776C36.1707 43.9253 35.9893 44 35.776 44H32.864Z" fill="white"/>
<defs>
<linearGradient id="paint0_linear_1_165" x1="-0.000703676" y1="32.9994" x2="89.4664" y2="39.8503" gradientUnits="userSpaceOnUse">
<stop offset="0.1667" stop-color="#9DC44D"/>
<stop offset="0.386" stop-color="#A1C64C"/>
<stop offset="0.6047" stop-color="#ADCB49"/>
<stop offset="0.8224" stop-color="#C1D344"/>
<stop offset="1" stop-color="#D7DD3F"/>
</linearGradient>
</defs>
</svg>
