<svg width="66" height="66" viewBox="0 0 66 66" fill="none" xmlns="http://www.w3.org/2000/svg">
<circle cx="33" cy="33" r="33" fill="url(#paint0_linear_1_179)"/>
<path d="M33.952 44.32C32.4587 44.32 31.168 44.1387 30.08 43.776C28.992 43.4133 28.0853 42.944 27.36 42.368C26.656 41.7707 26.1227 41.1307 25.76 40.448C25.3973 39.744 25.2053 39.0507 25.184 38.368C25.184 38.176 25.248 38.0267 25.376 37.92C25.5253 37.792 25.696 37.728 25.888 37.728H28.768C28.9813 37.728 29.1627 37.7707 29.312 37.856C29.4613 37.9413 29.5893 38.112 29.696 38.368C29.888 38.944 30.1973 39.4027 30.624 39.744C31.072 40.0853 31.584 40.3307 32.16 40.48C32.736 40.608 33.344 40.672 33.984 40.672C35.264 40.672 36.2773 40.3733 37.024 39.776C37.792 39.1573 38.176 38.2827 38.176 37.152C38.176 36.0213 37.824 35.2107 37.12 34.72C36.416 34.208 35.4347 33.952 34.176 33.952H30.88C30.6453 33.952 30.4533 33.888 30.304 33.76C30.1547 33.6107 30.08 33.4187 30.08 33.184V31.84C30.08 31.6267 30.1227 31.4453 30.208 31.296C30.3147 31.1253 30.4213 30.9867 30.528 30.88L36.256 25.28H27.104C26.8693 25.28 26.6773 25.2053 26.528 25.056C26.4 24.9067 26.336 24.7253 26.336 24.512V22.4C26.336 22.1653 26.4 21.9733 26.528 21.824C26.6773 21.6747 26.8693 21.6 27.104 21.6H40.832C41.0667 21.6 41.2587 21.6747 41.408 21.824C41.5573 21.9733 41.632 22.1653 41.632 22.4V24.32C41.632 24.512 41.5893 24.6827 41.504 24.832C41.4187 24.9813 41.3227 25.1093 41.216 25.216L35.68 30.912L36.064 30.944C37.3653 31.0507 38.5173 31.3493 39.52 31.84C40.544 32.3093 41.3333 33.0027 41.888 33.92C42.464 34.8373 42.752 35.9893 42.752 37.376C42.752 38.8267 42.368 40.0747 41.6 41.12C40.8533 42.144 39.8187 42.9333 38.496 43.488C37.1733 44.0427 35.6587 44.32 33.952 44.32Z" fill="white"/>
<defs>
<linearGradient id="paint0_linear_1_179" x1="-0.000703676" y1="32.9994" x2="89.4664" y2="39.8503" gradientUnits="userSpaceOnUse">
<stop offset="0.1667" stop-color="#9DC44D"/>
<stop offset="0.386" stop-color="#A1C64C"/>
<stop offset="0.6047" stop-color="#ADCB49"/>
<stop offset="0.8224" stop-color="#C1D344"/>
<stop offset="1" stop-color="#D7DD3F"/>
</linearGradient>
</defs>
</svg>
