<svg width="270" height="79" viewBox="0 0 270 79" fill="none" xmlns="http://www.w3.org/2000/svg">
<path d="M63.5994 48.922C65.7936 47.8983 68.0922 46.6648 70.4384 45.4892L48.3341 5.44275C45.2317 0.181867 38.452 -1.56786 33.1905 1.5352C27.9296 4.63641 26.1805 11.4173 29.283 16.6776L50.111 54.4126C54.4032 52.1825 59.498 50.8359 63.5994 48.922Z" fill="url(#paint0_linear_1_149)"/>
<path d="M66.2647 73.6883C61.3662 73.6883 56.9703 70.1482 55.9251 64.9953C54.1951 56.4684 46.8091 50.2795 38.3631 50.2795C29.9621 50.2795 22.7731 56.1763 20.882 64.6193C19.5638 70.5044 13.8819 74.1674 8.1913 72.8054C2.50132 71.4416 -1.0438 65.567 0.275591 59.6826C4.40169 41.2692 20.0633 28.4081 38.3631 28.4075C56.7623 28.4075 72.8542 41.9063 76.6278 60.5062C77.8268 66.4166 74.1644 72.2133 68.4472 73.4537C67.7144 73.6124 66.9846 73.6883 66.2647 73.6883Z" fill="url(#paint1_linear_1_149)"/>
<path d="M48.4168 68.6643C48.4168 74.1351 43.982 78.5711 38.51 78.5711C33.0386 78.5711 28.6038 74.1351 28.6038 68.6643C28.6038 63.1935 33.0386 58.7581 38.51 58.7581C43.982 58.7581 48.4168 63.1935 48.4168 68.6643Z" fill="#F0F0FA"/>
<path d="M118.642 49.7529H105.848L103.33 58.6528H94.6646L108.629 16.0267H116.095L129.796 58.6528H121.13L118.642 49.7529ZM107.868 42.7558H116.71L112.347 27.0638L107.868 42.7558Z" fill="#F0F0FA"/>
<path d="M134.1 70.8317V26.976H141.624L141.916 30.0792C142.346 29.5523 142.814 29.0838 143.322 28.674C143.829 28.2446 144.376 27.8738 144.961 27.5615C145.664 27.1907 146.435 26.9077 147.274 26.7125C148.133 26.4978 149.05 26.3904 150.026 26.3904C152.036 26.3904 153.812 26.7808 155.354 27.5615C156.896 28.3227 158.194 29.4059 159.248 30.8111C160.302 32.2359 161.092 33.9437 161.619 35.9345C162.166 37.9058 162.439 40.0917 162.439 42.4924V43.1072C162.439 45.4102 162.166 47.5474 161.619 49.5186C161.092 51.4899 160.312 53.1879 159.277 54.6127C158.223 56.057 156.925 57.189 155.383 58.0088C153.842 58.8285 152.075 59.2384 150.084 59.2384C149.03 59.2384 148.055 59.1212 147.157 58.887C146.279 58.6723 145.459 58.3503 144.698 57.9209C144.249 57.6477 143.819 57.3452 143.409 57.0134C143 56.6816 142.609 56.3107 142.238 55.9009V70.8317H134.1ZM154.3 42.4924C154.3 41.1652 154.173 39.9258 153.92 38.7743C153.685 37.6032 153.315 36.5883 152.807 35.7295C152.28 34.8903 151.607 34.2267 150.787 33.7388C149.987 33.2508 149.011 33.0069 147.859 33.0069C147.196 33.0069 146.591 33.0752 146.044 33.2118C145.498 33.3289 145 33.5046 144.551 33.7388C144.044 34.012 143.595 34.3536 143.205 34.7634C142.834 35.1733 142.512 35.6515 142.238 36.198V49.4308C142.492 49.9383 142.795 50.3969 143.146 50.8068C143.517 51.2167 143.936 51.568 144.405 51.8607C144.854 52.134 145.371 52.3487 145.956 52.5048C146.542 52.6414 147.196 52.7098 147.918 52.7098C149.07 52.7098 150.045 52.456 150.846 51.9486C151.665 51.4411 152.329 50.7482 152.836 49.87C153.344 48.9917 153.715 47.9768 153.949 46.8252C154.183 45.6542 154.3 44.4148 154.3 43.1072V42.4924Z" fill="#F0F0FA"/>
<path d="M185.362 59.2384C182.923 59.2384 180.707 58.8382 178.717 58.038C176.726 57.2378 175.018 56.1448 173.593 54.7591C172.168 53.3929 171.066 51.7827 170.285 49.9285C169.524 48.0548 169.143 46.0543 169.143 43.9269V42.7558C169.143 40.3357 169.524 38.1302 170.285 36.1394C171.046 34.1291 172.11 32.4018 173.476 30.9575C174.842 29.5132 176.462 28.391 178.336 27.5908C180.21 26.7905 182.249 26.3904 184.455 26.3904C186.738 26.3904 188.768 26.771 190.544 27.5322C192.34 28.2739 193.862 29.3278 195.111 30.694C196.341 32.0603 197.278 33.7095 197.922 35.6417C198.566 37.5544 198.888 39.6721 198.888 41.9947V45.4493H177.399V45.5371C177.672 46.8057 178.024 47.8304 178.453 48.6111C178.882 49.3723 179.458 50.0651 180.18 50.6897C180.922 51.3338 181.771 51.8315 182.727 52.1828C183.684 52.5341 184.728 52.7098 185.86 52.7098C187.46 52.7098 189.012 52.4072 190.515 51.8022C192.018 51.1972 193.238 50.2896 194.174 49.0795L198.244 53.4709C197.209 54.9347 195.57 56.2619 193.325 57.4525C191.081 58.6431 188.427 59.2384 185.362 59.2384ZM184.396 32.9776C183.479 32.9776 182.64 33.1435 181.878 33.4753C181.117 33.7876 180.454 34.2462 179.888 34.8513C179.302 35.4563 178.814 36.1785 178.424 37.0177C178.033 37.857 177.741 38.7938 177.546 39.8282H190.895V39.1841C190.895 38.3254 190.739 37.5154 190.427 36.7542C190.115 35.993 189.685 35.3294 189.139 34.7634C188.592 34.2169 187.919 33.7876 187.119 33.4753C186.338 33.1435 185.431 32.9776 184.396 32.9776Z" fill="#F0F0FA"/>
<path d="M226.671 49.7529H213.877L211.36 58.6528H202.694L216.659 16.0267H224.124L237.825 58.6528H229.159L226.671 49.7529ZM215.897 42.7558H224.739L220.377 27.0638L215.897 42.7558Z" fill="#F0F0FA"/>
<path d="M244.178 26.976H261.422V52.0364H270V58.6528H244.178V52.0364H253.195V33.6217H244.178V26.976ZM252.61 18.8664C252.61 18.2419 252.717 17.6661 252.932 17.1392C253.166 16.5927 253.488 16.1242 253.898 15.7339C254.308 15.3631 254.796 15.0703 255.362 14.8556C255.947 14.6409 256.591 14.5336 257.294 14.5336C258.738 14.5336 259.88 14.9434 260.719 15.7632C261.578 16.5634 262.007 17.5978 262.007 18.8664C262.007 20.1351 261.578 21.1793 260.719 21.999C259.88 22.7992 258.738 23.1993 257.294 23.1993C256.591 23.1993 255.947 23.092 255.362 22.8773C254.796 22.6626 254.308 22.3601 253.898 21.9697C253.488 21.5989 253.166 21.15 252.932 20.623C252.717 20.0765 252.61 19.491 252.61 18.8664Z" fill="#F0F0FA"/>
<defs>
<linearGradient id="paint0_linear_1_149" x1="42.9228" y1="19.8544" x2="12.7295" y2="-28.4075" gradientUnits="userSpaceOnUse">
<stop offset="0.1667" stop-color="#9DC44D"/>
<stop offset="0.386" stop-color="#A1C64C"/>
<stop offset="0.6047" stop-color="#ADCB49"/>
<stop offset="0.8224" stop-color="#C1D344"/>
<stop offset="1" stop-color="#D7DD3F"/>
</linearGradient>
<linearGradient id="paint1_linear_1_149" x1="-0.00081945" y1="51.0475" x2="76.8541" y2="51.0475" gradientUnits="userSpaceOnUse">
<stop offset="0.1667" stop-color="#9DC44D"/>
<stop offset="0.386" stop-color="#A1C64C"/>
<stop offset="0.6047" stop-color="#ADCB49"/>
<stop offset="0.8224" stop-color="#C1D344"/>
<stop offset="1" stop-color="#D7DD3F"/>
</linearGradient>
</defs>
</svg>
