<svg width="21" height="21" viewBox="0 0 21 21" fill="none" xmlns="http://www.w3.org/2000/svg">
<path fill-rule="evenodd" clip-rule="evenodd" d="M14.5826 12.1766L16.9584 14.5463L10.5 21L4.04844 14.5463L6.42425 12.1766L10.5 16.2537L14.5826 12.1766ZM10.5 8.09268L12.9099 10.5034L10.5 12.9141L8.09688 10.5102V10.5034L8.52016 10.08L8.72497 9.87512L10.5 8.09268ZM2.37581 8.12683L4.75163 10.5034L2.37581 12.8732L0 10.4966L2.37581 8.12683ZM18.6242 8.12683L21 10.5034L18.6242 12.8732L16.2484 10.4966L18.6242 8.12683ZM10.5 0L16.9516 6.45366L14.5758 8.83024L10.5 4.74634L6.42425 8.82342L4.04844 6.45366L10.5 0Z" fill="#F0F0FA"/>
</svg>
