<svg width="19" height="19" viewBox="0 0 19 19" fill="none" xmlns="http://www.w3.org/2000/svg">
<path d="M4.75 8.70834C4.75 6.46917 4.75 5.34959 5.44562 4.65397C6.14124 3.95834 7.26083 3.95834 9.5 3.95834H11.875C14.1142 3.95834 15.2337 3.95834 15.9294 4.65397C16.625 5.34959 16.625 6.46917 16.625 8.70834V12.6667C16.625 14.9058 16.625 16.0254 15.9294 16.721C15.2337 17.4167 14.1142 17.4167 11.875 17.4167H9.5C7.26083 17.4167 6.14124 17.4167 5.44562 16.721C4.75 16.0254 4.75 14.9058 4.75 12.6667V8.70834Z" stroke="#9DC44D" stroke-width="1.1875"/>
<path opacity="0.5" d="M4.75 15.0417C3.43833 15.0417 2.375 13.9784 2.375 12.6667V7.91668C2.375 4.93111 2.375 3.43834 3.30249 2.51084C4.22999 1.58334 5.72277 1.58334 8.70833 1.58334H11.875C13.1867 1.58334 14.25 2.64667 14.25 3.95834" stroke="#9DC44D" stroke-width="1.1875"/>
</svg>
