<svg width="30" height="35" viewBox="0 0 30 35" fill="none" xmlns="http://www.w3.org/2000/svg">
<path d="M6.61099 4.62041C9.69099 1.65112 13.3745 0.908798 14.9328 0.908798C16.4911 0.908798 20.3778 1.65112 23.4578 4.62041C24.0995 4.3553 25.5478 3.61297 26.2078 2.76461C25.4745 4.70878 22.5778 9.1804 16.8578 11.5134C16.7214 11.2347 16.1455 10.6774 14.9328 10.6774C13.7201 10.6774 13.3474 11.2347 13.211 11.5134C7.49099 9.1804 4.59432 4.70878 3.86099 2.76461C4.52099 3.61297 5.96932 4.3553 6.61099 4.62041Z" fill="#F0F0FA"/>
<path d="M8.39871 10.76C9.26617 11.3905 11.2186 12.7256 12.0887 13.0217C10.4321 13.522 7.37489 13.7701 8.39871 10.76Z" fill="#F0F0FA"/>
<path d="M4.94386 7.20294C5.34908 7.7855 6.29602 9.04931 6.84201 9.44408C5.96751 11.4111 5.48535 15.3451 10.5528 15.3451L10.4248 17.0516L6.67116 19.1077C8.43686 19.624 12.2797 21.9803 13.5255 27.2756L15.0203 32.2569L16.5421 27.2756C17.7878 21.9803 21.6307 19.624 23.3964 19.1077L19.6427 17.0516L19.5148 15.3451C24.5822 15.3451 24.1 11.4111 23.2255 9.44408C23.7715 9.04931 24.7185 7.7855 25.1237 7.20294C26.6988 8.72149 26.87 11.7148 26.7587 13.0217C26.7587 22.887 28.6713 27.4956 29.6276 28.5668L25.5761 25.5826L22.833 29.9497L19.6427 27.2756L15.0203 34.705L10.4248 27.2756L7.23453 29.9497L4.4914 25.5826L0.439941 28.5668C1.39625 27.4956 3.30885 22.887 3.30885 13.0217C3.19754 11.7148 3.3687 8.72149 4.94386 7.20294Z" fill="#F0F0FA"/>
<path d="M21.6688 10.76C20.8014 11.3905 18.8489 12.7256 17.9789 13.0217C19.6355 13.522 22.6927 13.7701 21.6688 10.76Z" fill="#F0F0FA"/>
<path d="M12.5655 15.8567C12.5655 13.9065 14.2852 12.9466 15.1476 12.7103C16.01 12.9466 17.7348 13.9065 17.7348 15.8567V17.9827L19.6754 19.1449C18.1661 20.0519 15.1527 22.7561 15.1527 26.3164C15.1527 22.7561 12.1342 20.0519 10.6249 19.1449L12.5655 17.9827V15.8567Z" fill="#F0F0FA"/>
</svg>
