<svg width="20" height="21" viewBox="0 0 20 21" fill="none" xmlns="http://www.w3.org/2000/svg">
<path fill-rule="evenodd" clip-rule="evenodd" d="M2.97712 0.818072C3.10959 0.619357 3.33261 0.5 3.57144 0.5H19.2858C19.5492 0.5 19.7912 0.644986 19.9155 0.877243C20.0398 1.1095 20.0262 1.39131 19.88 1.6105L17.0229 5.89622C16.8905 6.09493 16.6675 6.21429 16.4286 6.21429H0.71429C0.45086 6.21429 0.208817 6.0693 0.0845172 5.83704C-0.0397831 5.60479 -0.0261547 5.32297 0.119974 5.10379L2.97712 0.818072ZM3.95371 1.92857L2.04895 4.78571H16.0463L17.951 1.92857H3.95371Z" fill="#F0F0FA"/>
<path fill-rule="evenodd" clip-rule="evenodd" d="M2.97712 15.1037C3.10959 14.9051 3.33261 14.7857 3.57144 14.7857H19.2858C19.5492 14.7857 19.7912 14.9307 19.9155 15.163C20.0398 15.3953 20.0262 15.677 19.88 15.8963L17.0229 20.182C16.8905 20.3806 16.6675 20.5 16.4286 20.5H0.71429C0.45086 20.5 0.208817 20.355 0.0845172 20.1227C-0.0397831 19.8906 -0.0261547 19.6087 0.119974 19.3894L2.97712 15.1037ZM3.95371 16.2143L2.04895 19.0714H16.0463L17.951 16.2143H3.95371Z" fill="#F0F0FA"/>
<path fill-rule="evenodd" clip-rule="evenodd" d="M2.97712 13.0391C3.10959 13.2377 3.33261 13.3571 3.57144 13.3571H19.2858C19.5492 13.3571 19.7912 13.2121 19.9155 12.9799C20.0398 12.7476 20.0262 12.4659 19.88 12.2466L17.0229 7.96086C16.8905 7.76229 16.6675 7.64286 16.4286 7.64286H0.71429C0.45086 7.64286 0.208817 7.78786 0.0845172 8.02014C-0.0397831 8.25243 -0.0261547 8.53414 0.119974 8.75343L2.97712 13.0391ZM3.95371 11.9286L2.04895 9.07143H16.0463L17.951 11.9286H3.95371Z" fill="#F0F0FA"/>
</svg>
