<svg width="31" height="28" viewBox="0 0 31 28" fill="none" xmlns="http://www.w3.org/2000/svg">
<path fill-rule="evenodd" clip-rule="evenodd" d="M27.5414 0.549167C27.9191 0.386318 28.3326 0.330152 28.7388 0.386516C29.1449 0.442879 29.5289 0.609711 29.8507 0.869647C30.1725 1.12958 30.4204 1.47312 30.5687 1.8645C30.7169 2.25588 30.76 2.6808 30.6934 3.09503L27.2265 24.6346C26.8902 26.7124 24.6645 27.9039 22.8041 26.8689C21.248 26.0031 18.9367 24.6691 16.8577 23.2772C15.8182 22.5804 12.6341 20.3493 13.0254 18.7616C13.3617 17.4041 18.7119 12.303 21.7692 9.27023C22.9692 8.07872 22.422 7.39136 21.0049 8.48737C17.486 11.2086 11.8361 15.3468 9.96811 16.5117C8.32023 17.5388 7.46113 17.7142 6.43389 17.5388C4.55977 17.2194 2.8217 16.7246 1.40312 16.1218C-0.513795 15.3076 -0.420548 12.6083 1.40159 11.8224L27.5414 0.549167Z" fill="#F0F0FA"/>
</svg>
