<svg width="34" height="39" viewBox="0 0 34 39" fill="none" xmlns="http://www.w3.org/2000/svg">
<path fill-rule="evenodd" clip-rule="evenodd" d="M13.2541 2.77614C10.9916 3.96793 9.14067 4.97642 9.14107 5.01744C9.14207 5.12331 14.571 7.9036 14.7636 7.89683C14.8513 7.89386 15.4872 7.59787 16.1766 7.23916L17.4303 6.58708L20.1687 8.01062L22.4109 6.99177C25.7895 5.4565 26.1404 5.28827 26.0854 5.23174C26.0124 5.15675 24.8006 4.49842 21.5128 2.74805C19.9238 1.90209 18.3816 1.07264 18.0856 0.9048C17.7895 0.736961 17.5069 0.601947 17.4575 0.60456C17.4082 0.607173 15.5166 1.58439 13.2541 2.77614ZM3.33109 7.97235L0.975929 9.20255L0.975929 14.6016C0.975929 17.5712 1.00685 20.0007 1.04479 20.0007C1.08259 20.0007 2.24134 19.4927 3.61971 18.8719L6.12587 17.7432L6.12587 12.0522L7.35054 12.7269C8.29425 13.2463 9.23853 13.7647 10.1834 14.2821L11.7915 15.1626L12.5071 14.8353C12.9559 14.6298 13.4038 14.4223 13.8507 14.2127C14.1961 14.0501 15.044 13.6639 15.7348 13.3544C16.4257 13.0448 17.0651 12.7334 17.1558 12.6624C17.2763 12.5682 15.8075 11.7474 11.723 9.62637C8.64429 8.02759 6.02652 6.72457 5.9058 6.73082C5.78507 6.73706 4.62646 7.29568 3.33109 7.97235ZM26.5098 8.31782C24.9058 9.05008 23.5923 9.67847 23.5908 9.7143C23.5894 9.75009 24.4637 10.2758 25.5337 10.8823C26.6037 11.4889 27.4791 12.0177 27.4791 12.0575C27.4791 12.0972 26.5323 12.5611 25.3752 13.0886C24.218 13.616 21.293 14.9518 18.875 16.0571L10.7733 19.7603C8.73535 20.692 6.89835 21.5317 6.69111 21.6266C2.52843 23.5322 1.38427 24.061 1.22714 24.1517C1.06914 24.2431 1.03336 24.774 1.00523 27.4385L0.97168 30.6165L5.18382 32.7868L8.10418 31.454C9.71043 30.7211 11.0245 30.0829 11.0245 30.0359C11.0245 29.9891 10.7277 29.7935 10.3651 29.6012C10.0023 29.4088 9.25347 28.9831 8.70079 28.6548C8.14816 28.3266 7.59711 28.0254 7.47612 27.9854C7.35518 27.9456 7.25798 27.8759 7.25995 27.8305C7.26197 27.7852 8.54796 27.1675 10.1175 26.4577C13.1662 25.0793 15.4992 24.017 20.5079 21.7265C22.7476 20.7024 24.9876 19.6791 27.2279 18.6563C29.1968 17.7576 31.486 16.708 32.315 16.3239L33.8223 15.6255L33.8895 9.19723L31.7534 8.0885C30.5785 7.47876 29.5743 6.98136 29.5216 6.98317C29.469 6.98486 28.1137 7.58538 26.5098 8.31782ZM33.25 19.9133C32.9353 20.0688 32.3135 20.3599 31.8684 20.5602C31.4232 20.7605 30.5785 21.1459 29.9913 21.4168L28.9236 21.9093L28.8993 24.731C28.8858 26.2829 28.8293 27.5458 28.7737 27.5376C28.6473 27.5186 26.6462 26.4809 24.6348 25.3909C23.183 24.6043 23.0918 24.5731 22.7506 24.7439C22.5534 24.8427 21.3746 25.3774 20.1311 25.9322C18.8876 26.4869 17.8296 26.977 17.7799 27.0214C17.7302 27.0657 20.233 28.4374 23.3416 30.0698L28.9936 33.0378L31.408 31.7748C32.7358 31.0802 33.8649 30.4466 33.9169 30.3669C34.034 30.1878 34.0239 19.606 33.9067 19.6204C33.8604 19.626 33.5648 19.7578 33.25 19.9133ZM19.8799 32.3336C19.4611 32.5157 19.0424 32.698 18.6238 32.8806C17.3598 33.4336 17.6075 33.4519 16.1037 32.6949C15.1022 32.1907 14.6704 32.0352 14.483 32.1107C14.3425 32.1673 13.1327 32.7177 11.7945 33.3337C10.4564 33.9497 9.31514 34.4537 9.25837 34.4537C8.69694 34.4537 9.63031 35.0177 13.232 36.8549L17.4559 39.0093L19.2331 38.1221C20.2106 37.6341 22.1821 36.6569 23.6144 35.9505C25.0466 35.244 26.2007 34.6476 26.1791 34.6251C26.1574 34.6027 24.9573 33.9796 23.5122 33.2403L20.8848 31.8965L19.8799 32.3336Z" fill="#F0F0FA"/>
</svg>
