<svg width="288" height="86" viewBox="0 0 288 86" fill="none" xmlns="http://www.w3.org/2000/svg">
<g clip-path="url(#clip0_1_780)">
<path d="M17.9354 53.3193C8.06381 47.6199 8.06381 38.3801 17.9354 32.6807L56.6015 10.3568C66.4762 4.65565 82.4801 4.65565 92.3517 10.355L148.925 43.0179L92.3826 75.6628C82.511 81.3622 66.5072 81.3622 56.6356 75.6628L17.9354 53.3193Z" fill="#74AA9C"/>
<path d="M43.5354 28.556C37.4063 32.0946 35.9018 37.5134 39.8238 41.9689L43.136 44.6712L56.3818 52.3186C57.0442 52.701 57.9729 52.844 58.8829 52.7118L75.6921 50.1027L57.49 39.5937L57.493 39.5919L56.6294 39.0933L61.1891 29.2619C61.6285 28.3105 62.3525 27.4158 63.3139 26.6115L58.7498 25.1764C53.0726 24.9941 47.5348 26.2255 43.5354 28.556ZM47.1726 30.6559L47.1726 30.6774C49.6397 29.253 52.8622 28.3755 56.3353 28.1896C56.2951 28.2557 56.2394 28.3987 56.1836 28.4952L51.4506 38.6483C51.203 39.163 51.4692 39.7099 52.1316 40.0924L67.2161 48.8014L59.6475 49.9756L47.1788 42.7767C41.384 39.4347 41.3809 34.0105 47.1726 30.6559Z" fill="white"/>
<path d="M80.673 20.3065C72.3005 19.0113 63.42 20.9685 58.6978 25.1572L56.3005 28.1645L51.4523 38.611C51.2098 39.1335 51.4597 39.6693 52.1131 40.0582L64.4312 47.1583L71.0936 32.8027L71.0979 32.8034L71.414 32.1222L88.4409 29.4864C90.0877 29.2304 91.7918 29.145 93.4789 29.2236L93.3496 26.224C90.7844 23.2942 86.1684 21.141 80.673 20.3065ZM79.3416 23.1751L79.3095 23.1859C82.6796 23.7072 85.6071 24.8797 87.6225 26.5233C87.5032 26.5363 87.2609 26.5799 87.0882 26.6003L69.4921 29.3103C68.5962 29.4438 67.909 29.8504 67.6665 30.3728L62.1452 42.2696L56.5997 39.0724L61.1636 29.2386C63.2792 24.6702 71.414 21.9566 79.3416 23.1751Z" fill="white"/>
<path d="M111.616 34.7505C109.372 29.9167 101.996 26.4551 93.3521 26.1883L87.6427 26.4933L69.5487 29.2925C68.6437 29.4324 67.965 29.8253 67.7083 30.3464L63.2173 40.0555L88.0818 36.209L88.083 36.2114L89.2627 36.0289L101.73 43.2244C102.937 43.9199 103.917 44.7292 104.643 45.6121L109.078 44.0476C112.19 41.3001 113.112 37.9155 111.616 34.7505ZM106.647 35.5192L106.615 35.5085C107.518 37.4542 107.223 39.5042 105.765 41.3337C105.686 41.2805 105.5 41.1812 105.383 41.1051L92.5197 33.662C91.8714 33.2808 90.918 33.1405 90.0131 33.2805L69.4073 36.4682L71.4303 32.0968L88.4629 29.4619C96.3734 28.2355 104.511 30.9461 106.647 35.5192Z" fill="white"/>
<path d="M105.421 57.444C111.55 53.9054 113.054 48.4866 109.132 44.0311L105.82 41.3288L92.5745 33.6814C91.9121 33.299 90.9834 33.156 90.0734 33.2882L73.2642 35.8973L91.4663 46.4063L91.4633 46.4081L92.3269 46.9067L87.7672 56.7381C87.3278 57.6895 86.6038 58.5842 85.6424 59.3885L90.2065 60.8236C95.8837 61.0059 101.422 59.7745 105.421 57.444ZM101.784 55.3441L101.784 55.3226C99.3166 56.747 96.0941 57.6245 92.621 57.8104C92.6612 57.7443 92.7169 57.6013 92.7727 57.5048L97.5057 47.3517C97.7533 46.837 97.4871 46.2901 96.8247 45.9076L81.7402 37.1986L89.3088 36.0244L101.778 43.2233C107.572 46.5653 107.575 51.9895 101.784 55.3441Z" fill="white"/>
<path d="M68.2833 65.6935C76.6558 66.9887 85.5363 65.0315 90.2585 60.8428L92.6558 57.8355L97.504 47.389C97.7465 46.8665 97.4966 46.3307 96.8432 45.9418L84.5251 38.8417L77.8627 53.1973L77.8584 53.1966L77.5423 53.8778L60.5154 56.5136C58.8686 56.7696 57.1645 56.855 55.4774 56.7764L55.6067 59.776C58.1719 62.7058 62.7879 64.859 68.2833 65.6935ZM69.6147 62.8249L69.6468 62.8141C66.2767 62.2928 63.3492 61.1203 61.3338 59.4767C61.4531 59.4637 61.6954 59.4201 61.868 59.3997L79.4642 56.6897C80.3601 56.5562 81.0473 56.1496 81.2898 55.6272L86.8111 43.7304L92.3566 46.9276L87.7927 56.7614C85.6771 61.3298 77.5423 64.0434 69.6147 62.8249Z" fill="white"/>
<path d="M37.3405 51.2495C39.584 56.0833 46.9599 59.5449 55.6042 59.8117L61.3136 59.5067L79.4076 56.7075C80.3125 56.5676 80.9913 56.1747 81.248 55.6536L85.739 45.9445L60.8745 49.791L60.8733 49.7886L59.6936 49.9711L47.2263 42.7756C46.0189 42.0801 45.0388 41.2708 44.3132 40.3879L39.8784 41.9524C36.7664 44.6999 35.8445 48.0845 37.3405 51.2495ZM42.3091 50.4808L42.3413 50.4915C41.4383 48.5458 41.7332 46.4958 43.191 44.6663C43.27 44.7195 43.4566 44.8188 43.5735 44.8949L56.4366 52.338C57.0849 52.7192 58.0383 52.8595 58.9432 52.7195L79.549 49.5318L77.526 53.9032L60.4934 56.5381C52.5829 57.7645 44.4451 55.0539 42.3091 50.4808Z" fill="white"/>
<path d="M43.5001 38V56M32 46H55" stroke="black" stroke-width="3"/>
<path d="M81.5001 18V36M70 26H93" stroke="black" stroke-width="3"/>
</g>
<g clip-path="url(#clip1_1_780)">
<path fill-rule="evenodd" clip-rule="evenodd" d="M183.257 29.2423L215.453 10.654C222.744 6.44433 234.676 6.44433 241.967 10.654L273.892 29.086C281.184 33.2957 281.184 40.1843 273.892 44.394L241.696 62.9823C234.405 67.1919 222.474 67.1919 215.182 62.9822L183.257 44.5502C175.966 40.3405 175.966 33.4519 183.257 29.2423Z" fill="white"/>
<path d="M236.515 16.9206C235.831 17.0557 236.062 17.4171 236.012 17.6975C235.99 17.791 236.003 17.8886 236.01 17.9818C236.056 18.7825 235.743 19.5065 234.663 20.065C233.083 20.8802 232.275 21.8896 232.29 23.2023C230.639 22.5261 228.999 22.4998 227.244 22.8888C226.328 23.0934 225.405 23.302 224.349 23.2061C223.604 23.1341 223.034 22.9033 222.401 22.7173C222.015 22.6081 221.621 22.495 221.24 22.6581C220.824 22.8334 220.984 23.0893 221.096 23.3168C221.564 24.2388 222.482 25.0218 223.655 25.6742C226.296 27.1416 229.454 27.7017 233.096 27.2939C233.511 27.2486 233.743 27.3093 233.911 27.4958C234.269 27.8734 234.584 28.259 234.934 28.6405C235.158 28.8841 235.08 29.0104 234.594 29.1289C232.903 29.5299 231.134 29.6991 229.332 29.7101C226.291 29.7391 223.243 29.5932 220.208 29.8539C219.506 29.9145 218.808 29.9902 218.116 30.0806C214.61 30.1103 215.203 28.1299 215.5 27.7637C215.812 27.3812 214.89 27.2159 213.323 28.1289C211.756 29.0417 210.843 30.1771 209.71 31.642C209.547 31.8578 209.342 32.0653 209.115 32.2688C207.134 33.048 205.334 34.0059 203.731 35.1668C200.707 37.3499 199.598 39.8472 200.346 42.5855C201.247 45.8767 204.432 48.3675 209.034 50.2261C213.883 52.186 219.399 52.9419 225.3 52.616C231.419 52.2773 236.635 50.8306 240.78 48.1378C243.301 46.5042 245.921 44.5777 246.437 40.9959C247.705 40.75 248.763 40.334 250.365 39.5552C251.607 38.96 252.539 38.235 253.211 37.6447C254.257 36.7164 252.937 36.0598 252.232 36.2074C246.532 37.4069 248.123 37.3396 246.749 37.4432C246.388 34.9523 246.937 31.8298 240.23 26.6129C239.697 26.1993 239.226 26.0172 238.707 25.7333C238.391 25.5591 238.342 25.4495 238.66 25.2253C239.521 24.598 240.201 23.8981 240.591 23.121C241.735 20.8716 240.49 18.9794 238.02 17.276C237.641 17.0166 237.17 16.7936 236.515 16.9208L236.515 16.9206ZM238.949 43.6815C232.216 44.1471 229.412 44.6389 228.699 45.0993C228.036 45.5311 228.97 45.924 229.652 46.1384C230.334 46.3448 230.904 46.429 231.656 46.5215C232.163 46.5777 232.754 46.7554 232.54 47.268C232.077 48.4026 228.963 49.0415 228.815 49.0702C224.912 49.6532 220.948 49.7365 216.889 49.064C212.978 48.4194 209.47 47.3316 206.457 45.7467C205.727 45.3659 205.685 45.1056 206.251 44.6335C206.993 44.0104 207.896 43.4481 208.94 42.9994C213.349 41.1028 218.344 40.2052 223.814 40.1927C226.933 40.1838 229.973 40.5696 233.005 40.9103C236.228 41.2712 239.458 41.5224 242.74 41.363C243.894 41.3043 244.796 41.2462 245.571 41.1393C244.285 42.068 241.906 43.4821 238.949 43.6815ZM229.016 35.8418C228.834 35.6675 228.874 35.4393 229.138 35.287C229.203 35.2495 229.28 35.2191 229.364 35.1972C229.469 35.1686 229.582 35.1523 229.702 35.156C229.899 35.1558 230.096 35.2042 230.243 35.2893C230.552 35.4677 230.551 35.7521 230.24 35.9314C230.11 36.0078 229.937 36.0546 229.752 36.0631C229.568 36.0717 229.384 36.0415 229.234 35.978C229.147 35.9415 229.072 35.8951 229.016 35.8418ZM237.516 34.4983C237.331 34.7368 237.123 34.9603 236.847 35.133C236.339 35.4589 235.536 35.6714 234.951 35.7007C234.043 35.7468 233.459 35.8169 232.587 35.4847C232.214 35.343 231.772 35.0471 231.555 34.8563C231.092 34.4424 230.571 34.3051 229.811 34.3468C229.192 34.3802 228.684 34.5844 228.211 34.8573C228.034 34.9592 227.795 35.0083 227.612 35.0412C227.316 35.0986 226.908 35.0504 226.761 34.7864C226.712 34.7011 226.714 34.4246 226.728 34.3678C227.005 33.7862 227.866 33.4271 228.824 33.19C229.719 32.9732 230.677 32.9717 232.042 32.9615C233.562 33.0242 233.914 33.0806 234.928 33.2009C235.723 33.2931 236.504 33.4099 237.263 33.62C237.657 33.7315 237.815 33.9291 237.714 34.1905C237.674 34.2968 237.592 34.3993 237.516 34.4983Z" fill="#4D6BFE"/>
<path d="M208.5 31V42M201 35.8889H216" stroke="black" stroke-width="3"/>
<path d="M233.5 18V29M226 22.8889H241" stroke="black" stroke-width="3"/>
</g>
<defs>
<clipPath id="clip0_1_780">
<rect width="86" height="86" fill="white" transform="matrix(0.866025 -0.5 0.866025 0.5 0 43)"/>
</clipPath>
<clipPath id="clip1_1_780">
<rect width="67.7924" height="67.4799" fill="white" transform="matrix(0.866025 -0.5 0.866025 0.5 170 36.8962)"/>
</clipPath>
</defs>
</svg>
