<svg width="203" height="204" viewBox="0 0 203 204" fill="none" xmlns="http://www.w3.org/2000/svg">
<path fill-rule="evenodd" clip-rule="evenodd" d="M0 44.0068C0 19.9853 19.4756 0.512009 43.5 0.512009H159.5C183.524 0.512009 203 19.9853 203 44.0069V159.993C203 184.015 183.524 203.488 159.5 203.488H43.5C19.4756 203.488 0 184.015 0 159.993V44.0068ZM39.4997 83.0809L101.935 172.238H129.685L67.2483 83.0809H39.4997ZM39.4722 172.238L67.2302 132.6L81.1143 152.428L67.2415 172.238H39.4722ZM136.031 34.3413L88.0473 102.862L101.931 122.688L163.8 34.3413H136.031ZM141.06 172.235V76.734L163.807 44.2529V172.235H141.06Z" fill="white"/>
</svg>
