<svg width="53" height="53" viewBox="0 0 53 53" fill="none" xmlns="http://www.w3.org/2000/svg">
<path d="M18.9425 14.6682C21.7061 12.0039 25.0112 11.3378 26.4094 11.3378C27.8076 11.3378 31.295 12.0039 34.0586 14.6682C34.6344 14.4303 35.9339 13.7642 36.5261 13.003C35.8681 14.7474 33.269 18.7597 28.1366 20.853C28.0143 20.603 27.4975 20.1029 26.4094 20.1029C25.3213 20.1029 24.9868 20.603 24.8645 20.853C19.7321 18.7597 17.133 14.7474 16.475 13.003C17.0672 13.7642 18.3667 14.4303 18.9425 14.6682Z" fill="white"/>
<path d="M20.5466 20.177C21.3249 20.7428 23.0768 21.9407 23.8574 22.2064C22.371 22.6553 19.6279 22.8779 20.5466 20.177Z" fill="white"/>
<path d="M17.4466 16.9854C17.8102 17.5081 18.6599 18.6421 19.1498 18.9963C18.3651 20.7612 17.9325 24.291 22.4793 24.291L22.3645 25.8223L18.9965 27.6672C20.5808 28.1304 24.0289 30.2447 25.1466 34.9959L26.4879 39.4656L27.8533 34.9959C28.9711 30.2447 32.4192 28.1304 34.0035 27.6672L30.6355 25.8223L30.5207 24.291C35.0675 24.291 34.6349 20.7612 33.8502 18.9963C34.3401 18.6421 35.1898 17.5081 35.5534 16.9854C36.9667 18.3479 37.1203 21.0338 37.0204 22.2064C37.0204 31.0582 38.7365 35.1934 39.5946 36.1545L35.9593 33.4769L33.498 37.3954L30.6355 34.9959L26.4879 41.6622L22.3645 34.9959L19.502 37.3954L17.0406 33.4769L13.4054 36.1545C14.2635 35.1934 15.9796 31.0582 15.9796 22.2064C15.8797 21.0338 16.0333 18.3479 17.4466 16.9854Z" fill="white"/>
<path d="M32.4534 20.177C31.6751 20.7428 29.9232 21.9407 29.1426 22.2064C30.6289 22.6553 33.3721 22.8779 32.4534 20.177Z" fill="white"/>
<path d="M24.2853 24.7502C24.2853 23.0003 25.8283 22.139 26.6021 21.927C27.3759 22.139 28.9236 23.0003 28.9236 24.7502V26.6577L30.6648 27.7005C29.3106 28.5144 26.6067 30.9408 26.6067 34.1353C26.6067 30.9408 23.8983 28.5144 22.5441 27.7005L24.2853 26.6577V24.7502Z" fill="white"/>
<rect x="1" y="1" width="51" height="51" rx="12.4054" stroke="white"/>
</svg>
