<svg width="53" height="53" viewBox="0 0 53 53" fill="none" xmlns="http://www.w3.org/2000/svg">
<path fill-rule="evenodd" clip-rule="evenodd" d="M37.4282 14.9488C37.7672 14.8027 38.1382 14.7523 38.5026 14.8029C38.867 14.8534 39.2115 15.0031 39.5003 15.2364C39.7891 15.4696 40.0115 15.7778 40.1445 16.129C40.2775 16.4802 40.3162 16.8615 40.2565 17.2331L37.1457 36.56C36.8439 38.4242 34.8469 39.4933 33.1776 38.5647C31.7813 37.7878 29.7075 36.5909 27.8421 35.3419C26.9094 34.7168 24.0523 32.7148 24.4035 31.2903C24.7052 30.0723 29.5058 25.4952 32.249 22.7739C33.3258 21.7048 32.8347 21.0881 31.5632 22.0715C28.4058 24.5132 23.3364 28.2263 21.6603 29.2715C20.1817 30.1931 19.4108 30.3504 18.4891 30.1931C16.8075 29.9065 15.248 29.4625 13.9752 28.9217C12.2552 28.1911 12.3388 25.7691 13.9738 25.0639L37.4282 14.9488Z" fill="white"/>
<rect x="1" y="1" width="51" height="51" rx="12.4054" stroke="white"/>
</svg>
