<svg width="144" height="30" viewBox="0 0 144 30" fill="none" xmlns="http://www.w3.org/2000/svg">
<path d="M5.61613 12.214H0V6.59791H5.61613V12.214ZM5.61613 17.8302V23.4021H16.8042V29.0182H1.76886L0 23.4021V17.8302H5.61613ZM22.4203 6.59791V12.214H20.6514L22.4203 17.8302V23.4021H16.8042V17.8302H11.188V12.214H16.8042V6.59791H5.61613V0.981781H20.6514L22.4203 6.59791Z" fill="url(#paint0_linear_1_1812)"/>
<path d="M47.1653 12.214V17.8302L45.3522 23.4021L43.5392 29.0182H24.7008V0.981781H30.3169V23.4021H39.7361L41.5492 17.8302V12.214L39.7361 6.59791H30.3169L32.13 0.981781H43.5392L47.1653 12.214Z" fill="url(#paint1_linear_1_1812)"/>
<path d="M71.8723 0.981781V12.214L70.0593 17.8302H71.8723V29.0182H66.2562V17.8302H55.024V29.0182H49.4078V17.8302H51.1767L49.4078 12.214V0.981781H55.024V12.214H66.2562V0.981781H71.8723Z" fill="white"/>
<path d="M74.4078 6.59791H79.9797V12.214H91.1235L89.3105 17.8302H79.9797V23.4463H94.9266V29.0182H74.4078V6.59791ZM94.9266 0.981781V6.59791H79.9797L81.7928 0.981781H94.9266Z" fill="white"/>
<path d="M119.673 6.59791V17.7859H114.057V6.59791H102.825L104.638 0.981781H117.86L119.673 6.59791ZM102.825 0.981781V17.7859H108.441V23.4021H102.825V29.0182H97.2085V0.981781H102.825ZM110.254 23.4021L108.441 17.7859H114.057L115.87 23.4021L117.639 29.0182H112.023L110.254 23.4021Z" fill="white"/>
<path d="M126.873 6.59791V23.4021H138.106V29.0182H123.07L121.257 23.4021V6.59791H126.873ZM141.909 0.981781L143.722 6.59791V23.4021H138.106V6.59791H126.873L128.687 0.981781H141.909Z" fill="white"/>
<defs>
<linearGradient id="paint0_linear_1_1812" x1="4.93923" y1="23.1083" x2="46.1929" y2="11.747" gradientUnits="userSpaceOnUse">
<stop stop-color="#F584B3"/>
<stop offset="1" stop-color="#2473BC"/>
</linearGradient>
<linearGradient id="paint1_linear_1_1812" x1="4.93923" y1="23.1083" x2="46.1929" y2="11.747" gradientUnits="userSpaceOnUse">
<stop stop-color="#F584B3"/>
<stop offset="1" stop-color="#2473BC"/>
</linearGradient>
</defs>
</svg>
