<svg width="151" height="150" viewBox="0 0 151 150" fill="none" xmlns="http://www.w3.org/2000/svg">
<path d="M28.8338 86.8782C9.73171 112.205 1.14648 134.097 8.76587 141.716C19.4974 152.448 58.1309 130.985 94.6182 94.0684C131.105 57.1519 152.998 18.9476 142.266 8.21608C135.398 1.24058 116.725 8.21608 94.2962 23.3475M129.925 52.43C133.666 60.607 135.291 69.5929 134.653 78.5622C134.014 87.5314 131.132 96.1964 126.27 103.761C121.409 111.325 114.724 117.547 106.831 121.854C98.9376 126.161 90.0884 128.415 81.0964 128.409C73.9128 128.412 66.7999 126.99 60.1699 124.224M38.1703 106.946C30.4205 96.6132 26.6581 83.8316 27.5737 70.9479C28.4894 58.0641 34.0216 45.943 43.1547 36.8099C52.2879 27.6767 64.409 22.1445 77.2927 21.2289C90.1764 20.3133 102.958 24.0757 113.291 31.8255" stroke="white" stroke-width="10.7315" stroke-linecap="round" stroke-linejoin="round"/>
</svg>
