<svg width="41" height="42" viewBox="0 0 41 42" fill="none" xmlns="http://www.w3.org/2000/svg">
<rect x="0.372803" y="0.901306" width="40.1974" height="40.1974" rx="11" fill="#262626"/>
<rect x="0.872803" y="1.40131" width="39.1974" height="39.1974" rx="10.5" stroke="white" stroke-opacity="0.1"/>
<path d="M14.4528 11.5602C16.6537 9.4346 19.2858 8.9032 20.3993 8.9032C21.5129 8.9032 24.2901 9.4346 26.491 11.5602C26.9495 11.3704 27.9844 10.839 28.4561 10.2317C27.932 11.6235 25.8622 14.8245 21.7749 16.4947C21.6774 16.2952 21.2659 15.8962 20.3993 15.8962C19.5328 15.8962 19.2664 16.2952 19.169 16.4947C15.0817 14.8245 13.0118 11.6235 12.4878 10.2317C12.9594 10.839 13.9943 11.3704 14.4528 11.5602Z" fill="#F0F0FA"/>
<path d="M15.7303 15.9553C16.3501 16.4067 17.7453 17.3624 18.367 17.5744C17.1833 17.9325 14.9987 18.1102 15.7303 15.9553Z" fill="#F0F0FA"/>
<path d="M13.2616 13.409C13.5511 13.826 14.2278 14.7307 14.6179 15.0133C13.993 16.4214 13.6485 19.2376 17.2695 19.2376L17.1781 20.4593L14.4958 21.9312C15.7575 22.3007 18.5035 23.9876 19.3937 27.7783L20.4618 31.3442L21.5493 27.7783C22.4394 23.9876 25.1854 22.3007 26.4471 21.9312L23.7649 20.4593L23.6735 19.2376C27.2945 19.2376 26.9499 16.4214 26.325 15.0133C26.7152 14.7307 27.3918 13.826 27.6814 13.409C28.8069 14.496 28.9292 16.6389 28.8497 17.5744C28.8497 24.6366 30.2164 27.9358 30.8997 28.7026L28.0047 26.5663L26.0445 29.6926L23.7649 27.7783L20.4618 33.0968L17.1781 27.7783L14.8984 29.6926L12.9382 26.5663L10.0432 28.7026C10.7266 27.9358 12.0932 24.6366 12.0932 17.5744C12.0137 16.6389 12.136 14.496 13.2616 13.409Z" fill="#F0F0FA"/>
<path d="M25.2127 15.9553C24.5928 16.4067 23.1977 17.3624 22.576 17.5744C23.7597 17.9325 25.9443 18.1102 25.2127 15.9553Z" fill="#F0F0FA"/>
<path d="M18.7077 19.6039C18.7077 18.2078 19.9365 17.5206 20.5528 17.3515C21.1691 17.5206 22.4016 18.2078 22.4016 19.6039V21.1258L23.7882 21.9578C22.7098 22.6071 20.5565 24.543 20.5565 27.0916C20.5565 24.543 18.3995 22.6071 17.321 21.9578L18.7077 21.1258V19.6039Z" fill="#F0F0FA"/>
</svg>
