<svg width="41" height="42" viewBox="0 0 41 42" fill="none" xmlns="http://www.w3.org/2000/svg">
<rect x="0.780762" y="0.901306" width="40.1974" height="40.1974" rx="11" fill="#262626"/>
<rect x="1.28076" y="1.40131" width="39.1974" height="39.1974" rx="10.5" stroke="white" stroke-opacity="0.1"/>
<path fill-rule="evenodd" clip-rule="evenodd" d="M29.1473 11.5373C29.4037 11.421 29.6844 11.381 29.9601 11.4212C30.2358 11.4614 30.4965 11.5805 30.715 11.766C30.9334 11.9515 31.1017 12.1967 31.2023 12.4761C31.303 12.7554 31.3322 13.0587 31.2871 13.3544L28.9335 28.7283C28.7052 30.2112 27.1944 31.0617 25.9315 30.323C24.8751 29.705 23.3061 28.7529 21.8948 27.7594C21.1892 27.2621 19.0277 25.6696 19.2933 24.5364C19.5216 23.5675 23.1536 19.9266 25.229 17.7619C26.0435 16.9115 25.6721 16.4209 24.7101 17.2032C22.3213 19.1454 18.486 22.0991 17.2179 22.9305C16.0993 23.6636 15.5161 23.7888 14.8187 23.6636C13.5465 23.4356 12.3667 23.0825 11.4037 22.6523C10.1024 22.0711 10.1657 20.1445 11.4026 19.5835L29.1473 11.5373Z" fill="#F0F0FA"/>
</svg>
