<svg width="42" height="42" viewBox="0 0 42 42" fill="none" xmlns="http://www.w3.org/2000/svg">
<rect x="0.978027" y="0.901306" width="40.1974" height="40.1974" rx="11" fill="#262626"/>
<rect x="1.47803" y="1.40131" width="39.1974" height="39.1974" rx="10.5" stroke="white" stroke-opacity="0.1"/>
<path fill-rule="evenodd" clip-rule="evenodd" d="M18.6182 11.7511C17.3039 12.3983 16.2285 12.946 16.2287 12.9682C16.2293 13.0257 19.3833 14.5356 19.4952 14.532C19.5462 14.5303 19.9156 14.3696 20.3161 14.1748L21.0444 13.8207L22.6353 14.5938L23.938 14.0404C25.9008 13.2067 26.1047 13.1153 26.0727 13.0846C26.0303 13.0439 25.3263 12.6864 23.4162 11.7358C22.4931 11.2764 21.5971 10.8259 21.4251 10.7348C21.2531 10.6436 21.089 10.5703 21.0603 10.5717C21.0316 10.5732 19.9326 11.1039 18.6182 11.7511ZM12.8534 14.573L11.4851 15.241V18.1731C11.4851 19.7858 11.5031 21.1052 11.5251 21.1052C11.5471 21.1052 12.2203 20.8293 13.0211 20.4922L14.477 19.8792V16.7886L15.1885 17.155C15.7368 17.4371 16.2854 17.7186 16.8343 17.9996L17.7685 18.4778L18.1843 18.3001C18.445 18.1884 18.7052 18.0757 18.9649 17.9619C19.1655 17.8736 19.6581 17.6639 20.0594 17.4958C20.4608 17.3276 20.8323 17.1585 20.885 17.12C20.955 17.0688 20.1016 16.6231 17.7288 15.4712C15.9401 14.603 14.4193 13.8953 14.3492 13.8987C14.279 13.9021 13.6059 14.2055 12.8534 14.573ZM26.3193 14.7606C25.3874 15.1582 24.6243 15.4995 24.6235 15.519C24.6227 15.5384 25.1306 15.8239 25.7522 16.1533C26.3738 16.4827 26.8824 16.7699 26.8824 16.7915C26.8824 16.8131 26.3323 17.065 25.6601 17.3515C24.9878 17.6378 23.2885 18.3633 21.8838 18.9635L17.177 20.9747C15.993 21.4806 14.9258 21.9366 14.8054 21.9882C12.3871 23.0231 11.7224 23.3102 11.6311 23.3595C11.5393 23.4091 11.5185 23.6974 11.5022 25.1445L11.4827 26.8704L13.9297 28.049L15.6264 27.3252C16.5595 26.9271 17.323 26.5806 17.323 26.555C17.323 26.5296 17.1505 26.4234 16.9399 26.3189C16.7291 26.2145 16.294 25.9833 15.973 25.805C15.6519 25.6267 15.3318 25.4632 15.2615 25.4415C15.1912 25.4198 15.1347 25.382 15.1359 25.3573C15.1371 25.3327 15.8842 24.9973 16.796 24.6118C18.5672 23.8633 19.9226 23.2863 22.8324 22.0424C24.1336 21.4863 25.435 20.9305 26.7365 20.3751C27.8803 19.887 29.2102 19.317 29.6919 19.1084L30.5675 18.7291L30.6066 15.2382L29.3656 14.636C28.683 14.3049 28.0996 14.0348 28.069 14.0358C28.0384 14.0367 27.2511 14.3628 26.3193 14.7606ZM30.2351 21.0578C30.0522 21.1422 29.691 21.3003 29.4324 21.409C29.1738 21.5178 28.683 21.7271 28.3419 21.8743L27.7216 22.1417L27.7074 23.6741C27.6996 24.5169 27.6668 25.2027 27.6345 25.1983C27.5611 25.188 26.3985 24.6244 25.23 24.0325C24.3865 23.6053 24.3335 23.5883 24.1353 23.6811C24.0208 23.7348 23.3359 24.0251 22.6135 24.3264C21.8911 24.6277 21.2764 24.8938 21.2475 24.9179C21.2187 24.942 22.6727 25.6869 24.4787 26.5734L27.7623 28.1853L29.1649 27.4993C29.9363 27.1221 30.5923 26.7781 30.6225 26.7348C30.6905 26.6375 30.6847 20.8909 30.6166 20.8987C30.5897 20.9017 30.4179 20.9733 30.2351 21.0578ZM22.4676 27.8028C22.2243 27.9017 21.981 28.0007 21.7378 28.0999C21.0035 28.4002 21.1474 28.4102 20.2738 27.9991C19.6919 27.7253 19.4411 27.6408 19.3322 27.6818C19.2505 27.7125 18.5477 28.0114 17.7703 28.346C16.9929 28.6805 16.3299 28.9542 16.2969 28.9542C15.9707 28.9542 16.513 29.2605 18.6054 30.2582L21.0593 31.4282L22.0918 30.9464C22.6597 30.6814 23.8051 30.1507 24.6372 29.7671C25.4692 29.3834 26.1397 29.0595 26.1272 29.0473C26.1145 29.0351 25.4173 28.6967 24.5778 28.2953L23.0514 27.5654L22.4676 27.8028Z" fill="#F0F0FA"/>
</svg>
