<svg width="28" height="29" viewBox="0 0 28 29" fill="none" xmlns="http://www.w3.org/2000/svg">
<rect x="0.692308" y="1.34618" width="26.3077" height="26.3077" rx="13.1538" stroke="white" stroke-width="1.38462"/>
<path d="M18.7215 18.3391L18.4125 10.4959C18.4036 10.3498 18.3659 10.2046 18.3017 10.0687C18.1786 9.79487 17.956 9.57225 17.6822 9.44913C17.5462 9.38492 17.401 9.34727 17.2549 9.33833L9.41172 9.02933C9.26546 9.02356 9.12177 9.04667 8.98885 9.09731C8.85593 9.14796 8.73639 9.22516 8.63704 9.3245C8.43641 9.52514 8.33023 9.8038 8.34186 10.0992C8.3535 10.3946 8.482 10.6825 8.6991 10.8996C8.91619 11.1167 9.2041 11.2452 9.49948 11.2568L14.6678 11.4526L8.19596 17.9245C7.99614 18.1243 7.89039 18.4018 7.90198 18.696C7.91357 18.9902 8.04155 19.2769 8.25776 19.4931C8.47397 19.7093 8.7607 19.8373 9.05488 19.8489C9.34906 19.8605 9.62658 19.7547 9.8264 19.5549L16.2983 13.083L16.4941 18.2514C16.4992 18.3978 16.5334 18.544 16.5944 18.6816C16.6555 18.8192 16.7424 18.9454 16.85 19.0531C16.9576 19.1607 17.0839 19.2475 17.2215 19.3086C17.3591 19.3697 17.5053 19.4038 17.6517 19.409C17.7981 19.4154 17.9421 19.3927 18.0753 19.3423C18.2085 19.2918 18.3283 19.2147 18.4278 19.1152C18.5272 19.0158 18.6044 18.896 18.6548 18.7628C18.7052 18.6296 18.7279 18.4856 18.7215 18.3391Z" fill="white"/>
</svg>
