<svg width="31" height="36" viewBox="0 0 31 36" fill="none" xmlns="http://www.w3.org/2000/svg">
<path d="M6.7558 4.34363C9.93976 1.26854 13.7476 0.499762 15.3585 0.499762C16.9694 0.499762 20.9873 1.26854 24.1712 4.34363C24.8346 4.06907 26.3318 3.30029 27.0141 2.4217C26.256 4.43515 23.2615 9.06609 17.3485 11.4822C17.2075 11.1936 16.6121 10.6164 15.3585 10.6164C14.1049 10.6164 13.7196 11.1936 13.5786 11.4822C7.66551 9.06609 4.67107 4.43515 3.91299 2.4217C4.59526 3.30029 6.09248 4.06907 6.7558 4.34363Z" fill="white"/>
<path d="M8.60387 10.702C9.50061 11.355 11.5189 12.7376 12.4184 13.0443C10.7059 13.5624 7.54548 13.8193 8.60387 10.702Z" fill="white"/>
<path d="M5.03241 7.01818C5.45131 7.6215 6.43021 8.93034 6.99462 9.33918C6.0906 11.3763 5.59217 15.4504 10.8306 15.4504L10.6983 17.2178L6.818 19.3471C8.6433 19.8818 12.6159 22.3221 13.9037 27.806L15.4489 32.9649L17.0221 27.806C18.3099 22.3221 22.2825 19.8818 24.1078 19.3471L20.2274 17.2178L20.0951 15.4504C25.3336 15.4504 24.8352 11.3763 23.9311 9.33918C24.4956 8.93034 25.4745 7.6215 25.8934 7.01818C27.5217 8.59083 27.6986 11.6908 27.5835 13.0443C27.5835 23.2611 29.5607 28.034 30.5493 29.1433L26.3611 26.0528L23.5254 30.5755L20.2274 27.806L15.4489 35.5002L10.6983 27.806L7.40039 30.5755L4.56467 26.0528L0.376465 29.1433C1.36505 28.034 3.34221 23.2611 3.34221 13.0443C3.22714 11.6908 3.40408 8.59083 5.03241 7.01818Z" fill="white"/>
<path d="M22.3219 10.702C21.4251 11.355 19.4068 12.7376 18.5074 13.0443C20.2199 13.5624 23.3803 13.8193 22.3219 10.702Z" fill="white"/>
<path d="M12.9113 15.9803C12.9113 13.9607 14.689 12.9665 15.5805 12.7218C16.4721 12.9665 18.2551 13.9607 18.2551 15.9803V18.182L20.2612 19.3856C18.701 20.325 15.5859 23.1256 15.5859 26.8127C15.5859 23.1256 12.4654 20.325 10.9052 19.3856L12.9113 18.182V15.9803Z" fill="white"/>
</svg>
