<svg width="31" height="28" viewBox="0 0 31 28" fill="none" xmlns="http://www.w3.org/2000/svg">
<path fill-rule="evenodd" clip-rule="evenodd" d="M27.0474 0.310407C27.4184 0.142253 27.8245 0.0842583 28.2233 0.142457C28.6222 0.200656 28.9993 0.372922 29.3153 0.641325C29.6314 0.909727 29.8749 1.26445 30.0204 1.66858C30.166 2.07271 30.2083 2.51147 30.143 2.93919L26.7382 25.1804C26.4079 27.3258 24.2221 28.5561 22.3951 27.4874C20.8669 26.5934 18.597 25.2159 16.5554 23.7787C15.5345 23.0592 12.4075 20.7554 12.7918 19.1161C13.1221 17.7144 18.3764 12.4471 21.3788 9.31552C22.5573 8.0852 22.0198 7.37546 20.6282 8.50716C17.1724 11.317 11.6238 15.59 9.78933 16.7928C8.17101 17.8534 7.32732 18.0345 6.3185 17.8534C4.47799 17.5236 2.7711 17.0127 1.37796 16.3903C-0.504581 15.5496 -0.413006 12.7624 1.37646 11.9508L27.0474 0.310407Z" fill="white"/>
</svg>
