<svg width="29" height="32" viewBox="0 0 29 32" fill="none" xmlns="http://www.w3.org/2000/svg">
<path fill-rule="evenodd" clip-rule="evenodd" d="M11.1151 2.61972C9.21361 3.55605 7.65793 4.34838 7.65826 4.3806C7.6591 4.46378 12.2219 6.64813 12.3838 6.6428C12.4575 6.64047 12.9919 6.40793 13.5714 6.1261L14.6251 5.61379L16.9266 6.73221L18.8111 5.93174C21.6507 4.72555 21.9456 4.59338 21.8994 4.54897C21.838 4.49005 20.8195 3.97283 18.0563 2.59766C16.7208 1.93302 15.4246 1.28136 15.1758 1.1495C14.927 1.01764 14.6895 0.911562 14.648 0.913615C14.6065 0.915668 13.0166 1.68342 11.1151 2.61972ZM2.77518 6.70214L0.795746 7.66864L0.795746 11.9104C0.795746 14.2435 0.821738 16.1522 0.853621 16.1522C0.885393 16.1522 1.85928 15.7532 3.01776 15.2654L5.12409 14.3786V9.90745L6.15338 10.4375C6.94654 10.8457 7.74018 11.2529 8.53429 11.6594L9.88586 12.3511L10.4873 12.0941C10.8645 11.9326 11.2409 11.7695 11.6166 11.6049C11.9069 11.4771 12.6195 11.1737 13.2001 10.9305C13.7807 10.6873 14.3182 10.4427 14.3944 10.3869C14.4956 10.3129 13.2611 9.66798 9.82832 8.00162C7.24073 6.74553 5.04059 5.72182 4.93913 5.72672C4.83766 5.73163 3.86389 6.17051 2.77518 6.70214ZM22.2561 6.97355C20.908 7.54886 19.804 8.04255 19.8028 8.0707C19.8016 8.09882 20.5364 8.51181 21.4357 8.98831C22.335 9.46492 23.0708 9.88034 23.0708 9.91163C23.0708 9.94285 22.275 10.3073 21.3025 10.7217C20.3299 11.136 17.8715 12.1855 15.8393 13.0539L9.03012 15.9634C7.31727 16.6953 5.77333 17.3551 5.59916 17.4296C2.10057 18.9268 1.13894 19.3422 1.00688 19.4135C0.87409 19.4853 0.844012 19.9024 0.820376 21.9958L0.792175 24.4926L4.33233 26.1977L6.7868 25.1506C8.13679 24.5747 9.24126 24.0734 9.24126 24.0364C9.24126 23.9996 8.99179 23.846 8.68704 23.6949C8.38213 23.5438 7.75273 23.2093 7.28822 22.9514C6.82376 22.6935 6.36062 22.4568 6.25893 22.4255C6.15728 22.3942 6.07559 22.3394 6.07725 22.3037C6.07894 22.2681 7.15977 21.7828 8.47895 21.2252C11.0412 20.1423 13.0021 19.3076 17.2117 17.5081C19.0941 16.7036 20.9767 15.8995 22.8596 15.096C24.5144 14.3899 26.4384 13.5653 27.1352 13.2635L28.402 12.7148L28.4585 7.66447L26.6632 6.79339C25.6757 6.31434 24.8317 5.92356 24.7874 5.92499C24.7432 5.92631 23.6041 6.39811 22.2561 6.97355ZM27.921 16.0836C27.6564 16.2057 27.1339 16.4345 26.7598 16.5918C26.3856 16.7491 25.6757 17.0519 25.1821 17.2648L24.2848 17.6517L24.2643 19.8686C24.253 21.0879 24.2055 22.0801 24.1588 22.0736C24.0526 22.0587 22.3708 21.2434 20.6802 20.3871C19.46 19.7691 19.3833 19.7445 19.0966 19.8788C18.9309 19.9564 17.9401 20.3764 16.895 20.8123C15.8499 21.2481 14.9607 21.6332 14.9189 21.668C14.8771 21.7028 16.9806 22.7805 19.5933 24.063L24.3436 26.3948L26.3729 25.4025C27.4888 24.8569 28.4378 24.3591 28.4815 24.2965C28.5799 24.1557 28.5714 15.8422 28.4729 15.8534C28.434 15.8578 28.1856 15.9614 27.921 16.0836ZM16.6839 25.8416C16.3319 25.9846 15.98 26.1279 15.6282 26.2714C14.5658 26.7058 14.774 26.7202 13.5101 26.1255C12.6684 25.7294 12.3055 25.6071 12.148 25.6665C12.0299 25.711 11.0131 26.1434 9.8884 26.6273C8.76376 27.1113 7.80456 27.5073 7.75685 27.5073C7.28498 27.5073 8.06945 27.9504 11.0965 29.3938L14.6466 31.0864L16.1403 30.3893C16.9618 30.0059 18.6188 29.2382 19.8226 28.6832C21.0263 28.1282 21.9963 27.6596 21.9781 27.6419C21.9599 27.6243 20.9513 27.1348 19.7367 26.554L17.5284 25.4982L16.6839 25.8416Z" fill="white"/>
</svg>
