<svg width="68" height="68" viewBox="0 0 68 68" fill="none" xmlns="http://www.w3.org/2000/svg">
<g filter="url(#filter0_b_1_42)">
<rect x="2" y="2" width="64" height="64" rx="15.5676" fill="black" fill-opacity="0.2"/>
<rect x="2" y="2" width="64" height="64" rx="15.5676" stroke="#7CA1FD" stroke-width="3"/>
<path d="M24.5161 19.1522C27.9841 15.8088 32.1317 14.973 33.8863 14.973C35.641 14.973 40.0173 15.8088 43.4853 19.1522C44.2078 18.8537 45.8386 18.0178 46.5818 17.0626C45.7561 19.2517 42.4945 24.2867 36.0538 26.9136C35.9003 26.5998 35.2518 25.9723 33.8863 25.9723C32.5209 25.9723 32.1011 26.5998 31.9476 26.9136C25.5069 24.2867 22.2453 19.2517 21.4196 17.0626C22.1628 18.0178 23.7936 18.8537 24.5161 19.1522Z" fill="white"/>
<path d="M26.529 26.0653C27.5058 26.7752 29.7042 28.2785 30.6838 28.6119C28.8186 29.1752 25.3762 29.4546 26.529 26.0653Z" fill="white"/>
<path d="M22.6389 22.0601C23.0952 22.716 24.1614 24.1391 24.7762 24.5836C23.7915 26.7984 23.2486 31.228 28.9544 31.228L28.8104 33.1495L24.5838 35.4647C26.572 36.046 30.899 38.6992 32.3017 44.6616L33.9848 50.2705L35.6983 44.6616C37.101 38.6992 41.428 36.046 43.4162 35.4647L39.1896 33.1495L39.0455 31.228C44.7514 31.228 44.2085 26.7984 43.2238 24.5836C43.8386 24.1391 44.9048 22.716 45.3611 22.0601C47.1347 23.7699 47.3274 27.1404 47.2021 28.6119C47.2021 39.7201 49.3556 44.9094 50.4324 46.1155L45.8705 42.7553L42.7818 47.6726L39.1896 44.6616L33.9848 53.027L28.8104 44.6616L25.2182 47.6726L22.1294 42.7553L17.5676 46.1155C18.6443 44.9094 20.7979 39.7201 20.7979 28.6119C20.6726 27.1404 20.8653 23.7699 22.6389 22.0601Z" fill="white"/>
<path d="M41.471 26.0653C40.4942 26.7752 38.2958 28.2785 37.3162 28.6119C39.1814 29.1752 42.6238 29.4546 41.471 26.0653Z" fill="white"/>
<path d="M31.2207 31.8041C31.2207 29.6082 33.1571 28.5273 34.1282 28.2613C35.0992 28.5273 37.0414 29.6082 37.0414 31.8041V34.1979L39.2264 35.5065C37.527 36.5279 34.1339 39.5727 34.1339 43.5815C34.1339 39.5727 30.7351 36.5279 29.0357 35.5065L31.2207 34.1979V31.8041Z" fill="white"/>
</g>
<defs>
<filter id="filter0_b_1_42" x="-39.5" y="-39.5" width="147" height="147" filterUnits="userSpaceOnUse" color-interpolation-filters="sRGB">
<feFlood flood-opacity="0" result="BackgroundImageFix"/>
<feGaussianBlur in="BackgroundImageFix" stdDeviation="20"/>
<feComposite in2="SourceAlpha" operator="in" result="effect1_backgroundBlur_1_42"/>
<feBlend mode="normal" in="SourceGraphic" in2="effect1_backgroundBlur_1_42" result="shape"/>
</filter>
</defs>
</svg>
