<svg width="68" height="68" viewBox="0 0 68 68" fill="none" xmlns="http://www.w3.org/2000/svg">
<g filter="url(#filter0_b_1_38)">
<rect x="2" y="2" width="64" height="64" rx="15.5676" fill="black" fill-opacity="0.2"/>
<rect x="2" y="2" width="64" height="64" rx="15.5676" stroke="#7CA1FD" stroke-width="3"/>
<path fill-rule="evenodd" clip-rule="evenodd" d="M47.7139 19.072C48.1392 18.8886 48.6048 18.8253 49.0621 18.8888C49.5194 18.9523 49.9517 19.1401 50.3141 19.4328C50.6765 19.7255 50.9557 20.1123 51.1226 20.553C51.2894 20.9937 51.338 21.4721 51.2631 21.9386L47.3593 46.1918C46.9806 48.5313 44.4745 49.8729 42.3798 48.7076C40.6276 47.7327 38.0251 46.2306 35.6842 44.6633C34.5138 43.8788 30.9285 41.3666 31.3691 39.5789C31.7478 38.0504 37.7721 32.3066 41.2145 28.8917C42.5657 27.5501 41.9495 26.7762 40.3539 28.0102C36.3916 31.0743 30.03 35.7339 27.9266 37.0455C26.0712 38.202 25.1038 38.3995 23.9472 38.202C21.8369 37.8424 19.8799 37.2853 18.2826 36.6065C16.1242 35.6898 16.2292 32.6504 18.2809 31.7654L47.7139 19.072Z" fill="white"/>
</g>
<defs>
<filter id="filter0_b_1_38" x="-39.5" y="-39.5" width="147" height="147" filterUnits="userSpaceOnUse" color-interpolation-filters="sRGB">
<feFlood flood-opacity="0" result="BackgroundImageFix"/>
<feGaussianBlur in="BackgroundImageFix" stdDeviation="20"/>
<feComposite in2="SourceAlpha" operator="in" result="effect1_backgroundBlur_1_38"/>
<feBlend mode="normal" in="SourceGraphic" in2="effect1_backgroundBlur_1_38" result="shape"/>
</filter>
</defs>
</svg>
