<svg width="68" height="68" viewBox="0 0 68 68" fill="none" xmlns="http://www.w3.org/2000/svg">
<g filter="url(#filter0_b_1_44)">
<rect x="2" y="2" width="64" height="64" rx="15.5676" fill="black" fill-opacity="0.2"/>
<rect x="2" y="2" width="64" height="64" rx="15.5676" stroke="#7CA1FD" stroke-width="3"/>
<path fill-rule="evenodd" clip-rule="evenodd" d="M29.2352 14.8236C26.6877 16.1655 24.6036 17.3011 24.604 17.3473C24.6051 17.4665 30.718 20.597 30.9349 20.5894C31.0336 20.5861 31.7496 20.2528 32.5259 19.8489L33.9376 19.1146L37.0209 20.7175L39.5456 19.5703C43.3499 17.8416 43.745 17.6522 43.683 17.5886C43.6009 17.5041 42.2364 16.7628 38.5344 14.792C36.7452 13.8394 35.0087 12.9055 34.6754 12.7165C34.342 12.5275 34.0238 12.3755 33.9682 12.3784C33.9126 12.3814 31.7827 13.4817 29.2352 14.8236ZM18.0621 20.6744L15.4102 22.0596V28.1389C15.4102 31.4826 15.445 34.2182 15.4877 34.2182C15.5303 34.2182 16.835 33.6462 18.387 32.9472L21.2089 31.6762V25.2683L22.5879 26.028C23.6505 26.6129 24.7137 27.1966 25.7776 27.7791L27.5884 28.7705L28.3941 28.4021C28.8994 28.1706 29.4037 27.9369 29.907 27.701C30.2959 27.5179 31.2506 27.083 32.0285 26.7345C32.8063 26.3859 33.5264 26.0353 33.6285 25.9554C33.7641 25.8493 32.1102 24.9251 27.5113 22.5368C24.0446 20.7366 21.0971 19.2695 20.9611 19.2765C20.8252 19.2835 19.5206 19.9125 18.0621 20.6744ZM44.161 21.0634C42.3549 21.8879 40.8759 22.5955 40.8742 22.6359C40.8726 22.6762 41.857 23.268 43.0619 23.951C44.2666 24.634 45.2524 25.2294 45.2524 25.2742C45.2524 25.319 44.1863 25.8413 42.8834 26.4353C41.5804 27.0291 38.2869 28.5331 35.5643 29.7777L26.4419 33.9475C24.1472 34.9965 22.0787 35.9421 21.8454 36.0489C17.1583 38.1946 15.87 38.79 15.693 38.8922C15.5151 38.9951 15.4748 39.5928 15.4432 42.5931L15.4054 46.1715L20.1482 48.6152L23.4365 47.1145C25.2451 46.2892 26.7248 45.5706 26.7248 45.5177C26.7248 45.4649 26.3906 45.2447 25.9823 45.0282C25.5738 44.8116 24.7306 44.3322 24.1083 43.9626C23.486 43.593 22.8655 43.2539 22.7293 43.2089C22.5931 43.164 22.4837 43.0856 22.4859 43.0344C22.4882 42.9834 23.9362 42.2878 25.7035 41.4887C29.1362 39.9366 31.7632 38.7404 37.4029 36.1614C39.9248 35.0083 42.447 33.856 44.9695 32.7044C47.1865 31.6925 49.7641 30.5107 50.6975 30.0781L52.3947 29.2917L52.4704 22.0536L50.0652 20.8052C48.7423 20.1187 47.6115 19.5586 47.5522 19.5606C47.493 19.5625 45.9669 20.2387 44.161 21.0634ZM51.7503 34.1198C51.3959 34.2949 50.6958 34.6227 50.1946 34.8482C49.6934 35.0737 48.7423 35.5076 48.081 35.8127L46.8788 36.3672L46.8514 39.5445C46.8363 41.2919 46.7727 42.7139 46.71 42.7047C46.5677 42.6833 44.3146 41.5147 42.0497 40.2875C40.415 39.4018 40.3123 39.3666 39.9282 39.559C39.7061 39.6702 38.3788 40.2722 36.9786 40.8969C35.5784 41.5215 34.3872 42.0734 34.3311 42.1233C34.2753 42.1732 37.0933 43.7178 40.5936 45.5558L46.9577 48.8977L49.6763 47.4756C51.1713 46.6935 52.4427 45.9801 52.5012 45.8904C52.633 45.6886 52.6217 33.7738 52.4898 33.7899C52.4376 33.7963 52.1048 33.9447 51.7503 34.1198ZM36.6958 48.1048C36.2242 48.3098 35.7528 48.5152 35.2814 48.7208C33.8582 49.3434 34.1371 49.3641 32.4439 48.5117C31.3161 47.944 30.83 47.7688 30.619 47.8538C30.4607 47.9176 29.0986 48.5373 27.5918 49.2309C26.0851 49.9246 24.8 50.4921 24.7361 50.4921C24.1039 50.4921 25.1549 51.1271 29.2103 53.1958L33.9664 55.6216L35.9675 54.6226C37.0682 54.0731 39.2881 52.9728 40.9008 52.1774C42.5134 51.3819 43.8129 50.7104 43.7886 50.6851C43.7641 50.6598 42.4128 49.9582 40.7857 49.1258L37.8272 47.6126L36.6958 48.1048Z" fill="white"/>
</g>
<defs>
<filter id="filter0_b_1_44" x="-39.5" y="-39.5" width="147" height="147" filterUnits="userSpaceOnUse" color-interpolation-filters="sRGB">
<feFlood flood-opacity="0" result="BackgroundImageFix"/>
<feGaussianBlur in="BackgroundImageFix" stdDeviation="20"/>
<feComposite in2="SourceAlpha" operator="in" result="effect1_backgroundBlur_1_44"/>
<feBlend mode="normal" in="SourceGraphic" in2="effect1_backgroundBlur_1_44" result="shape"/>
</filter>
</defs>
</svg>
