<svg width="1004" height="217" viewBox="0 0 1004 217" fill="none" xmlns="http://www.w3.org/2000/svg">
<path d="M388.871 173.77L345.683 122.933H330.932V173.77H300.363V49.3439H330.932V99.6474H344.972L385.672 49.3439H421.75L369.143 109.424L426.193 173.77H388.871Z" fill="#F0F0FA"/>
<path d="M443.203 173.77V49.3439H473.772V173.77H443.203Z" fill="#F0F0FA"/>
<path d="M589.469 173.77L553.035 127.554H533.13V173.77H502.561V49.3439H572.585C586.448 49.3439 597.941 52.6619 607.064 59.2979C616.187 65.8155 620.749 75.8288 620.749 89.3378C620.749 110.786 609.256 123.229 586.27 126.666L626.792 173.77H589.469ZM533.13 73.6957V104.624H570.097C576.377 104.624 581.294 103.38 584.848 100.892C588.403 98.2846 590.18 94.4334 590.18 89.3378C590.18 84.2423 588.403 80.391 584.848 77.784C581.294 75.0585 576.377 73.6957 570.097 73.6957H533.13Z" fill="#F0F0FA"/>
<path d="M741.221 173.77L731.624 147.107H671.73L662.133 173.77H632.097L679.194 49.3439H725.048L772.323 173.77H741.221ZM680.083 123.999H723.271L701.766 64.0972L680.083 123.999Z" fill="#F0F0FA"/>
<path d="M925.716 173.77L916.119 147.107H856.225L846.628 173.77H816.592L863.689 49.3439H909.543L956.818 173.77H925.716ZM864.578 123.999H907.765L886.261 64.0972L864.578 123.999Z" fill="#F0F0FA"/>
<path d="M973.431 173.77V49.3439H1004V173.77H973.431Z" fill="#F0F0FA"/>
<path d="M33.65 134.453C30.4135 132.533 26.8003 131.06 23.8033 128.849C7.98016 117.253 0.0799142 101.596 0.102786 81.878C0.13696 54.1171 0.102789 27.0185 0 0.582695C0 0.194142 0.188359 0 0.565074 0L81.034 0.0172401C81.3082 0.0172401 81.5307 0.239647 81.5307 0.51403L81.5135 75.8631C81.5135 77.0511 81.936 77.2283 82.7809 76.3944L158.78 0.445645C159.011 0.228077 159.371 0.228077 159.602 0.445645L216.37 57.2702C216.63 57.5319 216.635 57.9498 216.38 58.2035L216.37 58.2129L140.782 133.956C139.892 134.847 140.074 135.293 141.33 135.293L215.839 135.173C216.558 135.173 216.918 135.538 216.918 136.269L216.97 216.023C216.97 216.515 216.563 216.914 216.062 216.914C190.66 216.857 164.54 216.885 137.699 216.999C112.903 217.102 93.5692 206.717 82.6095 183.6C81.8332 181.989 81.4508 182.081 81.4621 183.874L81.6163 216.262C81.6163 216.612 81.3327 216.896 80.9826 216.896H0.530896C0.275538 216.896 0.0686172 216.682 0.0686172 216.417L0.051389 136.132C0.051389 135.458 0.393937 135.121 1.07875 135.121L33.4103 135.292C34.5063 135.293 34.5862 135.013 33.65 134.453Z" fill="url(#paint0_linear_178_2271)"/>
<defs>
<linearGradient id="paint0_linear_178_2271" x1="-31.7356" y1="251.605" x2="216.984" y2="108.528" gradientUnits="userSpaceOnUse">
<stop offset="0.1667" stop-color="#2E0E72"/>
<stop offset="1" stop-color="#7814F8"/>
</linearGradient>
</defs>
</svg>
