<svg width="66" height="66" viewBox="0 0 66 66" fill="none" xmlns="http://www.w3.org/2000/svg">
<circle cx="33" cy="33" r="33" fill="url(#paint0_linear_1_172)"/>
<path d="M26.208 44C25.9947 44 25.8133 43.9253 25.664 43.776C25.5147 43.6267 25.44 43.4453 25.44 43.232V41.6C25.44 41.408 25.4827 41.184 25.568 40.928C25.6747 40.6507 25.8987 40.3733 26.24 40.096L31.296 35.072C32.704 33.9627 33.8347 33.024 34.688 32.256C35.5627 31.4667 36.192 30.752 36.576 30.112C36.9813 29.4507 37.184 28.8 37.184 28.16C37.184 27.2 36.9173 26.4213 36.384 25.824C35.872 25.2267 35.0507 24.928 33.92 24.928C33.1733 24.928 32.544 25.088 32.032 25.408C31.52 25.7067 31.1147 26.112 30.816 26.624C30.5387 27.136 30.3467 27.7013 30.24 28.32C30.1973 28.5973 30.08 28.7893 29.888 28.896C29.696 29.0027 29.504 29.056 29.312 29.056H26.464C26.272 29.056 26.112 28.992 25.984 28.864C25.856 28.736 25.792 28.5867 25.792 28.416C25.8133 27.4987 26.0053 26.6133 26.368 25.76C26.7307 24.8853 27.2533 24.1173 27.936 23.456C28.64 22.7733 29.4933 22.2293 30.496 21.824C31.4987 21.4187 32.6293 21.216 33.888 21.216C35.6587 21.216 37.12 21.5147 38.272 22.112C39.4453 22.7093 40.32 23.52 40.896 24.544C41.4933 25.568 41.792 26.72 41.792 28C41.792 29.0027 41.6 29.9307 41.216 30.784C40.832 31.616 40.2773 32.4267 39.552 33.216C38.8267 33.984 37.952 34.7733 36.928 35.584L32.384 40.192H41.504C41.7387 40.192 41.92 40.2667 42.048 40.416C42.1973 40.544 42.272 40.7253 42.272 40.96V43.232C42.272 43.4453 42.1973 43.6267 42.048 43.776C41.92 43.9253 41.7387 44 41.504 44H26.208Z" fill="white"/>
<defs>
<linearGradient id="paint0_linear_1_172" x1="-0.000703676" y1="32.9994" x2="89.4664" y2="39.8503" gradientUnits="userSpaceOnUse">
<stop offset="0.1667" stop-color="#9DC44D"/>
<stop offset="0.386" stop-color="#A1C64C"/>
<stop offset="0.6047" stop-color="#ADCB49"/>
<stop offset="0.8224" stop-color="#C1D344"/>
<stop offset="1" stop-color="#D7DD3F"/>
</linearGradient>
</defs>
</svg>
