<svg width="174" height="38" viewBox="0 0 174 38" fill="none" xmlns="http://www.w3.org/2000/svg">
<path d="M67.3939 30.3101L59.9092 21.5009H57.3527V30.3101H52.055V8.74928H57.3527V17.466H59.786L66.8395 8.74928H73.0921L63.975 19.1601L73.8622 30.3101H67.3939Z" fill="#F0F0FA"/>
<path d="M76.8102 30.3101V8.74928H82.108V30.3101H76.8102Z" fill="#F0F0FA"/>
<path d="M102.159 30.3101L95.8448 22.3018H92.3951V30.3101H87.0973V8.74928H99.2329C101.635 8.74928 103.627 9.32423 105.208 10.4741C106.789 11.6035 107.58 13.3386 107.58 15.6795C107.58 19.3962 105.588 21.5523 101.605 22.1478L108.627 30.3101H102.159ZM92.3951 12.969V18.3284H98.8017C99.89 18.3284 100.742 18.1128 101.358 17.6816C101.974 17.2299 102.282 16.5625 102.282 15.6795C102.282 14.7966 101.974 14.1292 101.358 13.6775C100.742 13.2052 99.89 12.969 98.8017 12.969H92.3951Z" fill="#F0F0FA"/>
<path d="M128.459 30.3101L126.795 25.6899H116.415L114.752 30.3101H109.547L117.709 8.74928H125.656L133.849 30.3101H128.459ZM117.863 21.6858H125.348L121.621 11.3058L117.863 21.6858Z" fill="#F0F0FA"/>
<path d="M160.433 30.3101L158.77 25.6899H148.39L146.726 30.3101H141.521L149.683 8.74928H157.63L165.823 30.3101H160.433ZM149.837 21.6858H157.322L153.595 11.3058L149.837 21.6858Z" fill="#F0F0FA"/>
<path d="M168.702 30.3101V8.74928H174V30.3101H168.702Z" fill="#F0F0FA"/>
<path d="M5.83178 23.4972C5.27087 23.1646 4.64467 22.9092 4.12527 22.5261C1.38302 20.5168 0.0138497 17.8037 0.0178135 14.3869C0.023736 9.57639 0.0178141 4.88069 0 0.299823C0 0.232494 0.0326439 0.198853 0.0979311 0.198853L14.0437 0.20184C14.0913 0.20184 14.1298 0.240379 14.1298 0.287925L14.1268 13.3446C14.1268 13.5505 14.2001 13.5812 14.3465 13.4367L27.5177 0.276075C27.5577 0.238374 27.6201 0.238374 27.6601 0.276075L37.4985 10.1228C37.5435 10.1681 37.5442 10.2405 37.5001 10.2845L37.4985 10.2861L24.3985 23.4111C24.2442 23.5655 24.2758 23.6427 24.4934 23.6427L37.4064 23.6219C37.531 23.6219 37.5934 23.6853 37.5934 23.812L37.6023 37.6318C37.6023 37.7171 37.5319 37.7862 37.445 37.7862C33.0427 37.7763 28.5158 37.7812 23.8642 37.801C19.5669 37.8188 16.2162 36.0193 14.3168 32.0135C14.1822 31.7344 14.116 31.7502 14.1179 32.061L14.1447 37.6733C14.1447 37.734 14.0955 37.7832 14.0348 37.7832H0.0920079C0.0477525 37.7832 0.0118918 37.746 0.0118918 37.7001L0.00890606 23.7882C0.00890606 23.6714 0.0682719 23.613 0.186955 23.613L5.79023 23.6426C5.98017 23.6427 5.99402 23.5942 5.83178 23.4972Z" fill="url(#paint0_linear_3_2189)"/>
<defs>
<linearGradient id="paint0_linear_3_2189" x1="-5.5" y1="43.7976" x2="37.6018" y2="18.9996" gradientUnits="userSpaceOnUse">
<stop offset="0.1667" stop-color="#2E0E72"/>
<stop offset="1" stop-color="#7814F8"/>
</linearGradient>
</defs>
</svg>
