<svg width="143" height="42" viewBox="0 0 143 42" fill="none" xmlns="http://www.w3.org/2000/svg">
<path d="M33.6842 25.9108C34.8464 25.3686 36.0638 24.7153 37.3063 24.0927L25.5993 2.88285C23.9561 0.0965356 20.3654 -0.830169 17.5788 0.813303C14.7925 2.45579 13.8661 6.04717 15.5092 8.83316L26.5404 28.8187C28.8136 27.6376 31.512 26.9244 33.6842 25.9108Z" fill="url(#paint0_linear_1_13)"/>
<path d="M35.0957 39.0277C32.5014 39.0277 30.1732 37.1527 29.6196 34.4236C28.7033 29.9075 24.7915 26.6297 20.3182 26.6297C15.8688 26.6297 12.0613 29.7528 11.0597 34.2245C10.3616 37.3414 7.35226 39.2814 4.33835 38.5601C1.32478 37.8378 -0.552825 34.7264 0.145961 31.6098C2.33126 21.8576 10.6261 15.0459 20.3182 15.0456C30.063 15.0456 38.5858 22.195 40.5843 32.046C41.2194 35.1763 39.2796 38.2465 36.2517 38.9034C35.8635 38.9875 35.477 39.0277 35.0957 39.0277Z" fill="url(#paint1_linear_1_13)"/>
<path d="M25.643 36.3669C25.643 39.2644 23.2942 41.6139 20.396 41.6139C17.4982 41.6139 15.1494 39.2644 15.1494 36.3669C15.1494 33.4694 17.4982 31.1203 20.396 31.1203C23.2942 31.1203 25.643 33.4694 25.643 36.3669Z" fill="#F0F0FA"/>
<path d="M62.8363 26.3507H56.0603L54.7268 31.0644H50.1372L57.5334 8.48835H61.4873L68.7439 31.0644H64.1542L62.8363 26.3507ZM57.1302 22.6449H61.8129L59.5026 14.3339L57.1302 22.6449Z" fill="#F0F0FA"/>
<path d="M71.0232 37.5147V14.2874H75.0081L75.1632 15.931C75.3906 15.6519 75.6387 15.4038 75.9074 15.1868C76.1762 14.9593 76.4656 14.7629 76.7757 14.5975C77.1479 14.4011 77.5562 14.2513 78.0007 14.1479C78.4555 14.0342 78.9414 13.9773 79.4582 13.9773C80.5229 13.9773 81.4636 14.1841 82.2802 14.5975C83.0968 15.0007 83.7843 15.5744 84.3425 16.3187C84.9007 17.0733 85.3193 17.9778 85.5984 19.0321C85.8878 20.0762 86.0326 21.2339 86.0326 22.5054V22.831C86.0326 24.0508 85.8878 25.1827 85.5984 26.2267C85.3193 27.2707 84.9058 28.1701 84.358 28.9247C83.7998 29.6896 83.1123 30.2892 82.2957 30.7233C81.4791 31.1575 80.5436 31.3745 79.4892 31.3745C78.931 31.3745 78.4142 31.3125 77.9387 31.1885C77.4735 31.0748 77.0393 30.9042 76.6362 30.6768C76.3984 30.5321 76.171 30.3719 75.9539 30.1961C75.7369 30.0204 75.5301 29.824 75.3337 29.6069V37.5147H71.0232ZM81.722 22.5054C81.722 21.8025 81.6548 21.1461 81.5204 20.5362C81.3964 19.9159 81.2 19.3784 80.9312 18.9236C80.6521 18.4791 80.2955 18.1276 79.8613 17.8692C79.4375 17.6108 78.9207 17.4816 78.3108 17.4816C77.9593 17.4816 77.6389 17.5178 77.3494 17.5901C77.06 17.6521 76.7964 17.7452 76.5587 17.8692C76.2899 18.0139 76.0522 18.1948 75.8454 18.4119C75.649 18.629 75.4784 18.8822 75.3337 19.1717V26.1802C75.4681 26.4489 75.6283 26.6919 75.8144 26.9089C76.0108 27.126 76.233 27.3121 76.4811 27.4671C76.7189 27.6119 76.9928 27.7256 77.3029 27.8083C77.613 27.8806 77.9593 27.9168 78.3418 27.9168C78.9517 27.9168 79.4685 27.7824 79.8924 27.5137C80.3265 27.2449 80.678 26.8779 80.9467 26.4128C81.2155 25.9476 81.4119 25.4101 81.5359 24.8002C81.66 24.18 81.722 23.5236 81.722 22.831V22.5054Z" fill="#F0F0FA"/>
<path d="M98.1734 31.3745C96.8813 31.3745 95.708 31.1626 94.6536 30.7388C93.5993 30.315 92.6948 29.7361 91.9402 29.0022C91.1856 28.2786 90.6015 27.4258 90.188 26.4438C89.7849 25.4514 89.5833 24.3919 89.5833 23.2651V22.6449C89.5833 21.3631 89.7849 20.195 90.188 19.1407C90.5912 18.076 91.1546 17.1611 91.8781 16.3962C92.6017 15.6312 93.4597 15.0369 94.4521 14.613C95.4444 14.1892 96.5246 13.9773 97.6927 13.9773C98.9022 13.9773 99.9772 14.1789 100.918 14.582C101.869 14.9748 102.675 15.533 103.337 16.2566C103.988 16.9802 104.484 17.8537 104.825 18.8771C105.166 19.8901 105.337 21.0117 105.337 22.2418V24.0714H93.9559V24.1179C94.1006 24.7899 94.2867 25.3325 94.5141 25.746C94.7415 26.1492 95.0465 26.5161 95.4289 26.8469C95.8217 27.188 96.2714 27.4516 96.7779 27.6377C97.2844 27.8238 97.8374 27.9168 98.437 27.9168C99.2846 27.9168 100.106 27.7566 100.902 27.4361C101.698 27.1157 102.344 26.635 102.841 25.9941L104.996 28.32C104.448 29.0952 103.58 29.7981 102.391 30.4287C101.202 31.0593 99.7963 31.3745 98.1734 31.3745ZM97.6617 17.4661C97.1759 17.4661 96.7314 17.5539 96.3282 17.7297C95.9251 17.8951 95.5736 18.138 95.2739 18.4584C94.9638 18.7789 94.7053 19.1613 94.4986 19.6058C94.2918 20.0503 94.1368 20.5465 94.0334 21.0944H101.104V20.7532C101.104 20.2984 101.021 19.8694 100.856 19.4663C100.69 19.0631 100.463 18.7117 100.174 18.4119C99.8842 18.1225 99.5276 17.8951 99.1037 17.7297C98.6903 17.5539 98.2096 17.4661 97.6617 17.4661Z" fill="#F0F0FA"/>
<path d="M120.052 26.3507H113.276L111.942 31.0644H107.353L114.749 8.48835H118.703L125.959 31.0644H121.37L120.052 26.3507ZM114.346 22.6449H119.028L116.718 14.3339L114.346 22.6449Z" fill="#F0F0FA"/>
<path d="M129.324 14.2874H138.457V27.5602H143V31.0644H129.324V27.5602H134.1V17.8072H129.324V14.2874ZM133.79 9.99239C133.79 9.66161 133.847 9.35666 133.96 9.07756C134.084 8.78813 134.255 8.54004 134.472 8.3333C134.689 8.13689 134.947 7.98184 135.247 7.86813C135.557 7.75442 135.898 7.69757 136.271 7.69757C137.035 7.69757 137.64 7.91465 138.085 8.3488C138.54 8.77262 138.767 9.32048 138.767 9.99239C138.767 10.6643 138.54 11.2173 138.085 11.6515C137.64 12.0753 137.035 12.2872 136.271 12.2872C135.898 12.2872 135.557 12.2304 135.247 12.1167C134.947 12.0029 134.689 11.8427 134.472 11.636C134.255 11.4396 134.084 11.2018 133.96 10.9227C133.847 10.6333 133.79 10.3232 133.79 9.99239Z" fill="#F0F0FA"/>
<defs>
<linearGradient id="paint0_linear_1_13" x1="22.7333" y1="10.5157" x2="6.74204" y2="-15.0452" gradientUnits="userSpaceOnUse">
<stop offset="0.1667" stop-color="#9DC44D"/>
<stop offset="0.386" stop-color="#A1C64C"/>
<stop offset="0.6047" stop-color="#ADCB49"/>
<stop offset="0.8224" stop-color="#C1D344"/>
<stop offset="1" stop-color="#D7DD3F"/>
</linearGradient>
<linearGradient id="paint1_linear_1_13" x1="-0.000434005" y1="27.0364" x2="40.7042" y2="27.0364" gradientUnits="userSpaceOnUse">
<stop offset="0.1667" stop-color="#9DC44D"/>
<stop offset="0.386" stop-color="#A1C64C"/>
<stop offset="0.6047" stop-color="#ADCB49"/>
<stop offset="0.8224" stop-color="#C1D344"/>
<stop offset="1" stop-color="#D7DD3F"/>
</linearGradient>
</defs>
</svg>
