<svg width="19" height="19" viewBox="0 0 19 19" fill="none" xmlns="http://www.w3.org/2000/svg">
<path fill-rule="evenodd" clip-rule="evenodd" d="M9.5 19C14.7467 19 19 14.7467 19 9.5C19 7.56474 18.4213 5.76464 17.4275 4.26329L9.87472 12.6554C9.14364 13.4677 7.91329 13.5877 7.03891 12.9319L3.58889 10.3444C3.12251 9.99463 3.028 9.33301 3.37778 8.86667C3.72756 8.40032 4.38918 8.30574 4.85556 8.65556L8.30553 11.243L16.0592 2.62786C14.3541 0.999791 12.0438 0 9.5 0C4.2533 0 0 4.2533 0 9.5C0 14.7467 4.2533 19 9.5 19Z" fill="#222222"/>
<path fill-rule="evenodd" clip-rule="evenodd" d="M9.5 19C14.7467 19 19 14.7467 19 9.5C19 7.56474 18.4213 5.76464 17.4275 4.26329L9.87472 12.6554C9.14364 13.4677 7.91329 13.5877 7.03891 12.9319L3.58889 10.3444C3.12251 9.99463 3.028 9.33301 3.37778 8.86667C3.72756 8.40032 4.38918 8.30574 4.85556 8.65556L8.30553 11.243L16.0592 2.62786C14.3541 0.999791 12.0438 0 9.5 0C4.2533 0 0 4.2533 0 9.5C0 14.7467 4.2533 19 9.5 19Z" fill="url(#paint0_linear_15_836)"/>
<defs>
<linearGradient id="paint0_linear_15_836" x1="-0.000202574" y1="9.49982" x2="25.7555" y2="11.4721" gradientUnits="userSpaceOnUse">
<stop offset="0.1667" stop-color="#9DC44D"/>
<stop offset="0.386" stop-color="#A1C64C"/>
<stop offset="0.6047" stop-color="#ADCB49"/>
<stop offset="0.8224" stop-color="#C1D344"/>
<stop offset="1" stop-color="#D7DD3F"/>
</linearGradient>
</defs>
</svg>
