<svg width="68" height="68" viewBox="0 0 68 68" fill="none" xmlns="http://www.w3.org/2000/svg">
<rect x="2.45557" y="2" width="64" height="64" rx="15.5676" fill="#D0484A" stroke="#FFDF94" stroke-width="3"/>
<path d="M24.9715 19.1523C28.4395 15.8089 32.587 14.973 34.3417 14.973C36.0964 14.973 40.4727 15.8089 43.9407 19.1523C44.6632 18.8537 46.294 18.0179 47.0372 17.0626C46.2114 19.2518 42.9498 24.2867 36.5092 26.9137C36.3556 26.5999 35.7072 25.9723 34.3417 25.9723C32.9762 25.9723 32.5565 26.5999 32.4029 26.9137C25.9623 24.2867 22.7007 19.2518 21.875 17.0626C22.6181 18.0179 24.2489 18.8537 24.9715 19.1523Z" fill="#FFDF94"/>
<path d="M26.9844 26.0653C27.9612 26.7753 30.1596 28.2786 31.1392 28.612C29.2739 29.1753 25.8316 29.4547 26.9844 26.0653Z" fill="#FFDF94"/>
<path d="M23.0943 22.0601C23.5506 22.7161 24.6168 24.1391 25.2316 24.5836C24.2469 26.7984 23.704 31.2281 29.4098 31.2281L29.2657 33.1496L25.0392 35.4647C27.0274 36.046 31.3543 38.6993 32.7571 44.6616L34.4402 50.2706L36.1537 44.6616C37.5564 38.6993 41.8834 36.046 43.8716 35.4647L39.645 33.1496L39.5009 31.2281C45.2068 31.2281 44.6639 26.7984 43.6792 24.5836C44.2939 24.1391 45.3602 22.7161 45.8165 22.0601C47.5901 23.77 47.7828 27.1405 47.6575 28.612C47.6575 39.7201 49.811 44.9094 50.8878 46.1155L46.3259 42.7554L43.2372 47.6727L39.645 44.6616L34.4402 53.0271L29.2657 44.6616L25.6736 47.6727L22.5848 42.7554L18.0229 46.1155C19.0997 44.9094 21.2533 39.7201 21.2533 28.612C21.128 27.1405 21.3207 23.77 23.0943 22.0601Z" fill="#FFDF94"/>
<path d="M41.9264 26.0653C40.9496 26.7753 38.7512 28.2786 37.7715 28.612C39.6368 29.1753 43.0792 29.4547 41.9264 26.0653Z" fill="#FFDF94"/>
<path d="M31.6761 31.8042C31.6761 29.6083 33.6125 28.5274 34.5835 28.2614C35.5546 28.5274 37.4967 29.6083 37.4967 31.8042V34.198L39.6818 35.5066C37.9824 36.5279 34.5893 39.5728 34.5893 43.5816C34.5893 39.5728 31.1905 36.5279 29.4911 35.5066L31.6761 34.198V31.8042Z" fill="#FFDF94"/>
</svg>
