<svg width="68" height="68" viewBox="0 0 68 68" fill="none" xmlns="http://www.w3.org/2000/svg">
<rect x="2.18115" y="2" width="64" height="64" rx="15.5676" fill="#D0484A" stroke="#FFDF94" stroke-width="3"/>
<path fill-rule="evenodd" clip-rule="evenodd" d="M47.8945 19.5043C48.3198 19.3209 48.7854 19.2577 49.2427 19.3211C49.7 19.3846 50.1324 19.5724 50.4947 19.8651C50.8571 20.1578 51.1363 20.5446 51.3032 20.9853C51.47 21.426 51.5186 21.9045 51.4437 22.3709L47.5399 46.6241C47.1612 48.9636 44.6551 50.3052 42.5604 49.1399C40.8082 48.165 38.2057 46.6629 35.8648 45.0956C34.6944 44.3111 31.1091 41.7989 31.5497 40.0112C31.9284 38.4827 37.9527 32.7389 41.3951 29.3241C42.7463 27.9824 42.1301 27.2085 40.5345 28.4426C36.5722 31.5066 30.2106 36.1662 28.1072 37.4778C26.2518 38.6343 25.2844 38.8318 24.1278 38.6343C22.0175 38.2747 20.0605 37.7176 18.4632 37.0388C16.3048 36.1221 16.4098 33.0827 18.4615 32.1977L47.8945 19.5043Z" fill="#FFDF94"/>
</svg>
