<svg width="68" height="68" viewBox="0 0 68 68" fill="none" xmlns="http://www.w3.org/2000/svg">
<rect x="1.59277" y="2" width="64" height="64" rx="15.5676" fill="#D0484A" stroke="#FFDF94" stroke-width="3"/>
<path fill-rule="evenodd" clip-rule="evenodd" d="M28.3957 14.8234C25.8483 16.1654 23.7641 17.3009 23.7645 17.3471C23.7657 17.4663 29.8785 20.5969 30.0955 20.5892C30.1942 20.5859 30.9101 20.2526 31.6864 19.8487L33.0981 19.1145L36.1814 20.7174L38.7061 19.5702C42.5104 17.8415 42.9055 17.652 42.8436 17.5884C42.7614 17.504 41.3969 16.7627 37.6949 14.7918C35.9058 13.8393 34.1693 12.9053 33.8359 12.7163C33.5026 12.5273 33.1843 12.3753 33.1288 12.3783C33.0732 12.3812 30.9432 13.4815 28.3957 14.8234ZM17.2226 20.6743L14.5707 22.0595V28.1388C14.5707 31.4824 14.6055 34.218 14.6482 34.218C14.6908 34.218 15.9955 33.6461 17.5476 32.947L20.3695 31.6761V25.2681L21.7484 26.0278C22.811 26.6127 23.8743 27.1964 24.9382 27.7789L26.7489 28.7703L27.5546 28.4019C28.0599 28.1705 28.5643 27.9368 29.0675 27.7008C29.4564 27.5177 30.4111 27.0829 31.189 26.7344C31.9669 26.3857 32.6869 26.0351 32.789 25.9552C32.9247 25.8491 31.2708 24.9249 26.6718 22.5367C23.2052 20.7365 20.2576 19.2693 20.1217 19.2763C19.9857 19.2834 18.6811 19.9124 17.2226 20.6743ZM43.3215 21.0633C41.5154 21.8878 40.0364 22.5953 40.0347 22.6357C40.0332 22.676 41.0175 23.2679 42.2224 23.9508C43.4272 24.6339 44.4129 25.2292 44.4129 25.2741C44.4129 25.3188 43.3468 25.8412 42.0439 26.4351C40.7409 27.0289 37.4474 28.533 34.7248 29.7776L25.6024 33.9474C23.3077 34.9964 21.2393 35.9419 21.0059 36.0488C16.3188 38.1944 15.0305 38.7898 14.8536 38.892C14.6757 38.9949 14.6354 39.5927 14.6037 42.5929L14.5659 46.1713L19.3087 48.615L22.597 47.1143C24.4056 46.289 25.8853 45.5705 25.8853 45.5176C25.8853 45.4648 25.5511 45.2446 25.1428 45.028C24.7343 44.8114 23.8911 44.332 23.2688 43.9624C22.6465 43.5928 22.0261 43.2537 21.8898 43.2087C21.7536 43.1639 21.6442 43.0854 21.6464 43.0342C21.6487 42.9832 23.0967 42.2877 24.864 41.4885C28.2967 39.9365 30.9237 38.7403 36.5634 36.1612C39.0853 35.0082 41.6075 33.8559 44.13 32.7042C46.347 31.6923 48.9246 30.5105 49.8581 30.078L51.5553 29.2916L51.6309 22.0535L49.2257 20.8051C47.9028 20.1185 46.772 19.5584 46.7127 19.5605C46.6535 19.5624 45.1274 20.2386 43.3215 21.0633ZM50.9109 34.1196C50.5564 34.2947 49.8563 34.6225 49.3551 34.848C48.8539 35.0735 47.9028 35.5075 47.2416 35.8126L46.0394 36.367L46.012 39.5443C45.9968 41.2917 45.9332 42.7137 45.8705 42.7045C45.7282 42.6831 43.4751 41.5146 41.2102 40.2873C39.5755 39.4016 39.4728 39.3664 39.0887 39.5588C38.8666 39.6701 37.5393 40.2721 36.1392 40.8968C34.7389 41.5214 33.5477 42.0732 33.4917 42.1232C33.4358 42.1731 36.2538 43.7176 39.7542 45.5557L46.1182 48.8976L48.8368 47.4754C50.3319 46.6934 51.6032 45.98 51.6617 45.8902C51.7935 45.6885 51.7822 33.7736 51.6503 33.7898C51.5981 33.7961 51.2653 33.9446 50.9109 34.1196ZM35.8563 48.1047C35.3847 48.3097 34.9133 48.515 34.442 48.7206C33.0187 49.3433 33.2976 49.3639 31.6044 48.5115C30.4766 47.9438 29.9905 47.7686 29.7795 47.8537C29.6212 47.9174 28.2591 48.5371 26.7523 49.2308C25.2456 49.9244 23.9605 50.4919 23.8966 50.4919C23.2644 50.4919 24.3154 51.1269 28.3709 53.1956L33.1269 55.6215L35.128 54.6224C36.2287 54.0729 38.4486 52.9726 40.0613 52.1773C41.6739 51.3817 42.9734 50.7102 42.9491 50.6849C42.9246 50.6597 41.5734 49.958 39.9462 49.1256L36.9877 47.6125L35.8563 48.1047Z" fill="#FFDF94"/>
</svg>
