<svg width="28" height="32" viewBox="0 0 28 32" fill="none" xmlns="http://www.w3.org/2000/svg">
<path d="M5.91994 3.51435C8.87461 0.702869 12.4082 0 13.9031 0C15.3981 0 19.1266 0.702869 22.0812 3.51435C22.6968 3.26332 24.0862 2.56045 24.7193 1.75717C24.0159 3.59802 21.2371 7.83197 15.7498 10.041C15.619 9.77713 15.0665 9.24941 13.9031 9.24941C12.7398 9.24941 12.3822 9.77713 12.2514 10.041C6.76414 7.83197 3.98534 3.59802 3.28185 1.75717C3.91499 2.56045 5.30439 3.26332 5.91994 3.51435Z" fill="#FFC300"/>
<path d="M7.63493 9.3276C8.46709 9.92462 10.3401 11.1887 11.1747 11.4691C9.58555 11.9428 6.65276 12.1777 7.63493 9.3276Z" fill="#FFC300"/>
<path d="M4.32065 5.95962C4.70939 6.51121 5.6178 7.70785 6.14156 8.08164C5.30264 9.94409 4.84011 13.669 9.70132 13.669L9.57856 15.2848L5.97767 17.2317C7.67152 17.7205 11.358 19.9516 12.5531 24.9654L13.987 29.682L15.4469 24.9654C16.642 19.9516 20.3285 17.7205 22.0223 17.2317L18.4214 15.2848L18.2987 13.669C23.1599 13.669 22.6974 9.94409 21.8584 8.08164C22.3822 7.70785 23.2906 6.51121 23.6793 5.95962C25.1904 7.39745 25.3546 10.2317 25.2478 11.4691C25.2478 20.8101 27.0826 25.1738 28 26.188L24.1134 23.3624L21.4819 27.4974L18.4214 24.9654L13.987 32L9.57856 24.9654L6.51811 27.4974L3.8866 23.3624L0 26.188C0.917392 25.1738 2.75217 20.8101 2.75217 11.4691C2.64539 10.2317 2.80959 7.39745 4.32065 5.95962Z" fill="#FFC300"/>
<path d="M20.3651 9.3276C19.5329 9.92462 17.6599 11.1887 16.8253 11.4691C18.4144 11.9428 21.3472 12.1777 20.3651 9.3276Z" fill="#FFC300"/>
<path d="M11.6321 14.1535C11.6321 12.3069 13.2819 11.398 14.1092 11.1743C14.9365 11.398 16.5912 12.3069 16.5912 14.1535V16.1664L18.4528 17.2668C17.0049 18.1257 14.1141 20.6862 14.1141 24.0572C14.1141 20.6862 11.2184 18.1257 9.77054 17.2668L11.6321 16.1664V14.1535Z" fill="#FFC300"/>
</svg>
