<svg width="29" height="26" viewBox="0 0 29 26" fill="none" xmlns="http://www.w3.org/2000/svg">
<path fill-rule="evenodd" clip-rule="evenodd" d="M25.9961 0.177874C26.3527 0.0203761 26.7429 -0.0339439 27.1263 0.0205673C27.5096 0.0750784 27.8721 0.236428 28.1758 0.487823C28.4796 0.739217 28.7136 1.07147 28.8535 1.44999C28.9934 1.82851 29.0341 2.23946 28.9713 2.64008L25.6989 23.4719C25.3814 25.4813 23.2806 26.6337 21.5246 25.6328C20.0558 24.7954 17.8742 23.5052 15.9119 22.159C14.9307 21.4852 11.9252 19.3274 12.2946 17.7919C12.612 16.479 17.6621 11.5455 20.5478 8.61237C21.6805 7.46001 21.1639 6.79524 19.8264 7.85523C16.5049 10.487 11.172 14.4893 9.40882 15.6159C7.8534 16.6092 7.0425 16.7788 6.07289 16.6092C4.30393 16.3003 2.66338 15.8218 1.3244 15.2388C-0.484967 14.4514 -0.396952 11.8408 1.32295 11.0806L25.9961 0.177874Z" fill="#FFC300"/>
</svg>
