<svg width="27" height="32" viewBox="0 0 27 32" fill="none" xmlns="http://www.w3.org/2000/svg">
<path fill-rule="evenodd" clip-rule="evenodd" d="M10.0407 1.80945C8.19117 2.80249 6.67803 3.64279 6.67835 3.67697C6.67917 3.76518 11.1172 6.0818 11.2747 6.07616C11.3464 6.07368 11.8662 5.82706 12.4298 5.52817L13.4547 4.98484L15.6932 6.17098L17.5262 5.32204C20.2882 4.04281 20.575 3.90263 20.5301 3.85553C20.4704 3.79305 19.4798 3.24451 16.792 1.78605C15.4931 1.08117 14.2324 0.390047 13.9903 0.2502C13.7483 0.110352 13.5173 -0.00214654 13.4769 3.1089e-05C13.4366 0.00220871 11.8902 0.816456 10.0407 1.80945ZM1.92878 6.13909L0.00347348 7.16412L0.00347348 11.6628C0.00347348 14.1371 0.0287546 16.1614 0.0597653 16.1614C0.0906685 16.1614 1.03792 15.7382 2.16473 15.2209L4.21347 14.2804V9.53851L5.21462 10.1007C5.98609 10.5335 6.75802 10.9655 7.53042 11.3965L8.84504 12.1302L9.43002 11.8575C9.7969 11.6863 10.163 11.5133 10.5284 11.3387C10.8108 11.2032 11.5039 10.8814 12.0686 10.6236C12.6334 10.3656 13.1562 10.1061 13.2303 10.047C13.3288 9.96846 12.128 9.28454 8.78907 7.51726C6.27224 6.18511 4.13225 5.0994 4.03356 5.1046C3.93488 5.10981 2.98773 5.57527 1.92878 6.13909ZM20.8771 6.42694C19.5658 7.03708 18.492 7.56067 18.4908 7.59053C18.4897 7.62035 19.2043 8.05835 20.0791 8.56371C20.9538 9.06917 21.6694 9.50975 21.6694 9.54294C21.6694 9.57604 20.8954 9.96259 19.9495 10.4021C19.0035 10.8415 16.6123 11.9545 14.6357 12.8755L8.0127 15.9612C6.34668 16.7374 4.84496 17.4371 4.67555 17.5162C1.27262 19.104 0.337285 19.5446 0.208838 19.6202C0.0796751 19.6964 0.0504191 20.1387 0.0274297 22.3589L0 25.0069L3.44336 26.8152L5.83071 25.7047C7.14379 25.094 8.21806 24.5623 8.21806 24.5231C8.21806 24.4841 7.97542 24.3211 7.679 24.1608C7.38242 24.0006 6.77023 23.6458 6.31843 23.3723C5.86666 23.0988 5.41619 22.8479 5.31728 22.8146C5.21841 22.7814 5.13895 22.7233 5.14056 22.6855C5.14221 22.6477 6.19349 22.133 7.4766 21.5416C9.9688 20.3931 11.876 19.5079 15.9706 17.5994C17.8015 16.7462 19.6327 15.8935 21.4641 15.0413C23.0736 14.2924 24.945 13.4179 25.6227 13.0978L26.8549 12.5159L26.9098 7.15969L25.1636 6.23586C24.2031 5.72781 23.3822 5.31336 23.3391 5.31487C23.2961 5.31628 22.1882 5.81665 20.8771 6.42694ZM26.3871 16.0887C26.1297 16.2182 25.6215 16.4608 25.2576 16.6276C24.8937 16.7945 24.2031 17.1156 23.7231 17.3414L22.8503 17.7517L22.8304 20.1029C22.8194 21.396 22.7732 22.4483 22.7277 22.4414C22.6244 22.4256 20.9886 21.5609 19.3442 20.6527C18.1574 19.9973 18.0828 19.9713 17.804 20.1136C17.6427 20.196 16.6791 20.6414 15.6625 21.1037C14.646 21.5659 13.7811 21.9743 13.7404 22.0113C13.6999 22.0482 15.7458 23.1911 18.2871 24.5513L22.9075 27.0243L24.8813 25.9719C25.9667 25.3932 26.8897 24.8653 26.9322 24.7989C27.0279 24.6496 27.0197 15.8326 26.9239 15.8445C26.886 15.8492 26.6444 15.9591 26.3871 16.0887ZM15.4572 26.4376C15.1148 26.5893 14.7725 26.7412 14.4304 26.8934C13.3971 27.3541 13.5996 27.3694 12.3702 26.7386C11.5515 26.3185 11.1985 26.1889 11.0453 26.2518C10.9304 26.299 9.94148 26.7576 8.84752 27.2709C7.75362 27.7842 6.82065 28.2041 6.77424 28.2041C6.31528 28.2041 7.0783 28.674 10.0226 30.2049L13.4756 32L14.9285 31.2607C15.7275 30.8541 17.3392 30.0398 18.5101 29.4513C19.6809 28.8626 20.6244 28.3657 20.6067 28.3469C20.5889 28.3283 19.6079 27.809 18.4265 27.1931L16.2786 26.0734L15.4572 26.4376Z" fill="#FFC300"/>
</svg>
