<svg width="1275" height="119" viewBox="0 0 1275 119" fill="none" xmlns="http://www.w3.org/2000/svg">
<rect x="1247" y="34" width="28" height="85" rx="14" fill="#3E3E3E"/>
<rect x="1032" y="34" width="28" height="85" rx="14" fill="#3E3E3E"/>
<rect x="817" y="34" width="28" height="85" rx="14" fill="#3E3E3E"/>
<rect x="602" y="34" width="28" height="85" rx="14" fill="#3E3E3E"/>
<rect x="387" y="34" width="28" height="85" rx="14" fill="#3E3E3E"/>
<rect x="172" y="34" width="28" height="85" rx="14" fill="#3E3E3E"/>
<rect x="129" y="63" width="28" height="56" rx="14" fill="#3E3E3E"/>
<rect x="860" y="14" width="28" height="105" rx="14" fill="#3E3E3E"/>
<rect x="1075" width="28" height="119" rx="14" fill="#3E3E3E"/>
<rect x="989" y="78" width="28" height="41" rx="14" fill="#3E3E3E"/>
<rect x="645" y="14" width="28" height="105" rx="14" fill="#3E3E3E"/>
<rect x="430" y="14" width="28" height="105" rx="14" fill="#3E3E3E"/>
<rect x="215" y="14" width="28" height="105" rx="14" fill="#3E3E3E"/>
<rect x="946" y="55" width="28" height="64" rx="14" fill="#3E3E3E"/>
<rect x="1204" y="78" width="28" height="41" rx="14" fill="#3E3E3E"/>
<rect x="903" y="83" width="28" height="36" rx="14" fill="#3E3E3E"/>
<rect x="774" y="78" width="28" height="41" rx="14" fill="#3E3E3E"/>
<rect x="559" y="78" width="28" height="41" rx="14" fill="#3E3E3E"/>
<rect x="344" y="78" width="28" height="41" rx="14" fill="#3E3E3E"/>
<rect x="86" y="78" width="28" height="41" rx="14" fill="#3E3E3E"/>
<rect y="78" width="28" height="41" rx="14" fill="#3E3E3E"/>
<rect x="1161" y="55" width="28" height="64" rx="14" fill="#3E3E3E"/>
<rect x="731" y="55" width="28" height="64" rx="14" fill="#3E3E3E"/>
<rect x="516" y="55" width="28" height="64" rx="14" fill="#3E3E3E"/>
<rect x="301" y="55" width="28" height="64" rx="14" fill="#3E3E3E"/>
<rect x="43" y="55" width="28" height="64" rx="14" fill="#3E3E3E"/>
<rect x="1118" y="83" width="28" height="36" rx="14" fill="#3E3E3E"/>
<rect x="688" y="83" width="28" height="36" rx="14" fill="#3E3E3E"/>
<rect x="473" y="83" width="28" height="36" rx="14" fill="#3E3E3E"/>
<rect x="258" y="83" width="28" height="36" rx="14" fill="#3E3E3E"/>
</svg>
