<svg width="175" height="50" viewBox="0 0 175 50" fill="none" xmlns="http://www.w3.org/2000/svg">
<path d="M2.46094 10.4072H13.7607C22.6406 10.4072 27.8701 15.6982 27.8701 25.0908C27.8701 34.4834 22.6406 40 13.7607 40H2.46094V10.4072ZM8.6543 15.5137V34.873H13.0225C18.5596 34.873 21.5537 31.5098 21.5537 25.1113C21.5537 18.918 18.4775 15.5137 13.0225 15.5137H8.6543ZM41.2207 21.9736C38.5957 21.9736 36.709 23.9629 36.5039 26.7109H45.835C45.7119 23.9014 43.8867 21.9736 41.2207 21.9736ZM45.917 33.2734H51.4131C50.7568 37.5801 46.8193 40.4717 41.3848 40.4717C34.6172 40.4717 30.5566 36.1445 30.5566 29.1104C30.5566 22.0967 34.6582 17.5439 41.1592 17.5439C47.5576 17.5439 51.5977 21.8711 51.5977 28.5566V30.3818H36.4424V30.751C36.4424 33.8887 38.4316 36.042 41.4873 36.042C43.6816 36.042 45.3633 34.9551 45.917 33.2734ZM64.8457 35.3242C67.8398 35.3242 69.7471 32.9453 69.7471 28.9668C69.7471 25.0088 67.8398 22.4658 64.8457 22.4658C61.8926 22.4658 60.0264 24.9678 60.0264 28.9668C60.0264 32.9863 61.8721 35.3242 64.8457 35.3242ZM64.7432 48.2852C58.96 48.2852 55.043 45.4756 54.5713 41.5586H60.4365C60.9082 43.0762 62.6309 44.1221 64.9072 44.1221C68.0039 44.1221 69.7266 42.3994 69.7266 39.8564V36.001H69.6035C68.5781 38.3389 65.9941 39.9385 62.8154 39.9385C57.4424 39.9385 53.8945 35.7959 53.8945 28.9258C53.8945 21.9531 57.3398 17.667 62.918 17.667C66.0762 17.667 68.5576 19.3281 69.7061 21.8506H69.8086V18.0156H75.7148V39.6924C75.7148 44.9424 71.3262 48.2852 64.7432 48.2852ZM89.4961 21.9736C86.8711 21.9736 84.9844 23.9629 84.7793 26.7109H94.1104C93.9873 23.9014 92.1621 21.9736 89.4961 21.9736ZM94.1924 33.2734H99.6885C99.0322 37.5801 95.0947 40.4717 89.6602 40.4717C82.8926 40.4717 78.832 36.1445 78.832 29.1104C78.832 22.0967 82.9336 17.5439 89.4346 17.5439C95.833 17.5439 99.873 21.8711 99.873 28.5566V30.3818H84.7178V30.751C84.7178 33.8887 86.707 36.042 89.7627 36.042C91.957 36.042 93.6387 34.9551 94.1924 33.2734ZM102.97 40V18.0156H108.753V21.9326H108.876C110.045 19.2051 112.362 17.6055 115.746 17.6055C120.627 17.6055 123.375 20.6816 123.375 25.8291V40H117.387V27.0801C117.387 24.209 116.033 22.5684 113.347 22.5684C110.66 22.5684 108.958 24.5371 108.958 27.3877V40H102.97Z" fill="white"/>
<path d="M139 40H133V17H139V40Z" fill="white"/>
<path d="M150 27H144V6H150V27Z" fill="white"/>
<path d="M161 40H155V17H161V40Z" fill="white"/>
<path d="M175 40H169V6H175V40Z" fill="white"/>
</svg>
