<svg width="32" height="33" viewBox="0 0 32 33" fill="none" xmlns="http://www.w3.org/2000/svg">
<path fill-rule="evenodd" clip-rule="evenodd" d="M4.7634 1.00891C4.97535 0.690972 5.33218 0.5 5.7143 0.5H30.8572C31.2787 0.5 31.6659 0.731977 31.8648 1.10359C32.0636 1.4752 32.0419 1.9261 31.8081 2.2768L27.2366 9.13394C27.0247 9.45189 26.6679 9.64286 26.2858 9.64286H1.14286C0.721377 9.64286 0.334108 9.41088 0.135227 9.03927C-0.0636529 8.66766 -0.0418475 8.21675 0.191959 7.86606L4.7634 1.00891Z" fill="#D9882E"/>
<path fill-rule="evenodd" clip-rule="evenodd" d="M4.7634 23.8659C4.97535 23.5482 5.33218 23.3571 5.7143 23.3571H30.8572C31.2787 23.3571 31.6659 23.5891 31.8648 23.9608C32.0636 24.3325 32.0419 24.7832 31.8081 25.1341L27.2366 31.9912C27.0247 32.3089 26.6679 32.5 26.2858 32.5H1.14286C0.721377 32.5 0.334108 32.268 0.135227 31.8963C-0.0636529 31.5249 -0.0418475 31.0739 0.191959 30.7231L4.7634 23.8659Z" fill="#D9882E"/>
<path fill-rule="evenodd" clip-rule="evenodd" d="M4.7634 20.5626C4.97535 20.8803 5.33218 21.0714 5.7143 21.0714H30.8572C31.2787 21.0714 31.6659 20.8394 31.8648 20.4678C32.0636 20.0961 32.0419 19.6454 31.8081 19.2945L27.2366 12.4374C27.0247 12.1197 26.6679 11.9286 26.2858 11.9286H1.14286C0.721377 11.9286 0.334108 12.1606 0.135227 12.5322C-0.0636529 12.9039 -0.0418475 13.3546 0.191959 13.7055L4.7634 20.5626Z" fill="#D9882E"/>
</svg>
