<svg width="32" height="41" viewBox="0 0 32 41" fill="none" xmlns="http://www.w3.org/2000/svg">
<path d="M18.56 8.49875H13.44C13.029 8.49857 12.628 8.37176 12.2916 8.13557C11.9552 7.89938 11.6998 7.56529 11.56 7.17875L10.12 3.17875C10.0108 2.87679 9.97597 2.55299 10.0184 2.23471C10.0607 1.91644 10.1791 1.61304 10.3635 1.35018C10.5479 1.08732 10.7929 0.872724 11.0777 0.724525C11.3626 0.576326 11.6789 0.498885 12 0.498749H20C20.3211 0.498885 20.6374 0.576326 20.9223 0.724525C21.2071 0.872724 21.4521 1.08732 21.6365 1.35018C21.8209 1.61304 21.9393 1.91644 21.9816 2.23471C22.024 2.55299 21.9892 2.87679 21.88 3.17875L20.44 7.17875C20.3003 7.56529 20.0448 7.89938 19.7084 8.13557C19.372 8.37176 18.971 8.49857 18.56 8.49875Z" fill="#D9882E"/>
<path d="M30.98 22.8387L26.34 7.35875C26.095 6.53489 25.5912 5.81184 24.9032 5.29671C24.2152 4.78159 23.3795 4.50178 22.52 4.49875H9.48C8.6205 4.50178 7.78484 4.78159 7.0968 5.29671C6.40877 5.81184 5.90496 6.53489 5.66 7.35875L1.02 22.8387C0.343227 25.0694 -0.000480319 27.3877 3.29843e-06 29.7187C-0.00173147 31.8553 0.680858 33.9362 1.94775 35.6566C3.21464 37.3769 4.99922 38.6463 7.04 39.2787C9.94983 40.1266 12.9694 40.5378 16 40.4987C19.0306 40.5378 22.0502 40.1266 24.96 39.2787C27.0008 38.6463 28.7854 37.3769 30.0523 35.6566C31.3191 33.9362 32.0017 31.8553 32 29.7187C32.0005 27.3877 31.6568 25.0694 30.98 22.8387Z" fill="#D9882E"/>
<path d="M17 20.4987H15C14.7348 20.4987 14.4804 20.3934 14.2929 20.2059C14.1054 20.0183 14 19.764 14 19.4987C14 19.2335 14.1054 18.9792 14.2929 18.7916C14.4804 18.6041 14.7348 18.4987 15 18.4987H20C20.5304 18.4987 21.0391 18.288 21.4142 17.913C21.7893 17.5379 22 17.0292 22 16.4987C22 15.9683 21.7893 15.4596 21.4142 15.0845C21.0391 14.7095 20.5304 14.4987 20 14.4987H18C18 13.9683 17.7893 13.4596 17.4142 13.0845C17.0391 12.7095 16.5304 12.4987 16 12.4987C15.4696 12.4987 14.9609 12.7095 14.5858 13.0845C14.2107 13.4596 14 13.9683 14 14.4987V14.5987C12.7848 14.8455 11.7047 15.5349 10.9693 16.5333C10.2339 17.5316 9.89568 18.7676 10.0203 20.0012C10.1449 21.2349 10.7235 22.3783 11.6437 23.2094C12.5639 24.0405 13.76 24.5 15 24.4987H17C17.2652 24.4987 17.5196 24.6041 17.7071 24.7916C17.8946 24.9792 18 25.2335 18 25.4987C18 25.764 17.8946 26.0183 17.7071 26.2059C17.5196 26.3934 17.2652 26.4987 17 26.4987H12C11.4696 26.4987 10.9609 26.7095 10.5858 27.0845C10.2107 27.4596 10 27.9683 10 28.4987C10 29.0292 10.2107 29.5379 10.5858 29.913C10.9609 30.288 11.4696 30.4987 12 30.4987H14C14 31.0292 14.2107 31.5379 14.5858 31.913C14.9609 32.288 15.4696 32.4987 16 32.4987C16.5304 32.4987 17.0391 32.288 17.4142 31.913C17.7893 31.5379 18 31.0292 18 30.4987C19.3261 30.3661 20.5452 29.7122 21.3891 28.6807C22.233 27.6493 22.6326 26.3248 22.5 24.9987C22.3674 23.6727 21.7134 22.4536 20.682 21.6097C19.6505 20.7657 18.3261 20.3661 17 20.4987Z" fill="#010100"/>
</svg>
