<svg width="40" height="37" viewBox="0 0 40 37" fill="none" xmlns="http://www.w3.org/2000/svg">
<path d="M2 2.5L11.2477 18.3486C11.3957 18.6047 11.5936 18.8293 11.8298 19.0094C12.0659 19.1895 12.3358 19.3215 12.6239 19.3979C12.9119 19.4743 13.2123 19.4934 13.5079 19.4543C13.8034 19.4152 14.0882 19.3186 14.3459 19.17L21.4832 15.0927C21.7408 14.9442 22.0256 14.8475 22.3212 14.8084C22.6167 14.7693 22.9172 14.7885 23.2052 14.8649C23.4932 14.9412 23.7631 15.0733 23.9993 15.2533C24.2355 15.4334 24.4333 15.658 24.5814 15.9141L35.4263 34.5M35.4263 34.5L26.6991 32.1862M35.4263 34.5L37.7647 25.8648" stroke="#D9882E" stroke-width="3.76471" stroke-linecap="round" stroke-linejoin="round"/>
</svg>
