<svg width="32" height="31" viewBox="0 0 32 31" fill="none" xmlns="http://www.w3.org/2000/svg">
<path d="M1.33829 28.1307C1.16235 28.1301 0.98801 28.1624 0.825328 28.2259C0.662646 28.2894 0.514838 28.3828 0.390428 28.5007C0.266019 28.6186 0.167468 28.7587 0.100461 28.9129C0.0334528 29.067 -0.000686811 29.2323 1.04693e-05 29.399C0.000613682 29.5649 0.0357128 29.7291 0.103303 29.8822C0.170892 30.0353 0.269648 30.1743 0.393928 30.2912C0.518207 30.4081 0.665575 30.5007 0.827612 30.5636C0.989649 30.6265 1.16318 30.6585 1.33829 30.6579H30.6618C30.8369 30.6585 31.0104 30.6265 31.1724 30.5636C31.3345 30.5006 31.4818 30.4081 31.6061 30.2912C31.7304 30.1743 31.8291 30.0353 31.8967 29.8822C31.9643 29.7291 31.9994 29.5649 32 29.399C32.0007 29.2323 31.9666 29.067 31.8995 28.9129C31.8325 28.7587 31.734 28.6186 31.6096 28.5007C31.4852 28.3828 31.3374 28.2894 31.1747 28.2259C31.012 28.1624 30.8377 28.1301 30.6618 28.1307H1.33829Z" fill="#D9882E"/>
<path d="M5.8647 19.2904C4.11536 19.2904 2.66669 20.6633 2.66669 22.3211V29.399C2.66731 29.5649 2.70242 29.7291 2.77002 29.8822C2.83761 30.0353 2.93636 30.1742 3.06063 30.2911C3.1849 30.408 3.33226 30.5006 3.49428 30.5635C3.6563 30.6265 3.82982 30.6585 4.00492 30.6579H9.33828C9.69021 30.6567 10.0274 30.5237 10.2762 30.2879C10.5251 30.052 10.6654 29.7325 10.6667 29.399V22.3211C10.6667 20.6633 9.21797 19.2904 7.46863 19.2904H5.8647Z" fill="#D9882E"/>
<path d="M15.203 14.9915C13.4536 14.9915 12.0049 16.3643 12.0049 18.0222V29.399C12.0062 29.7325 12.1465 30.052 12.3954 30.2879C12.6442 30.5237 12.9814 30.6567 13.3333 30.6579H18.6667C19.0186 30.6567 19.3558 30.5237 19.6046 30.2879C19.8535 30.052 19.9938 29.7325 19.9951 29.399V18.0222C19.9951 16.3643 18.5464 14.9915 16.797 14.9915H15.203Z" fill="#D9882E"/>
<path d="M24.5314 11.2054C22.782 11.2054 21.3333 12.5783 21.3333 14.2362V29.399C21.3346 29.7325 21.4749 30.052 21.7238 30.2879C21.9727 30.5237 22.3098 30.6567 22.6618 30.6579H27.9951C28.1702 30.6585 28.3437 30.6265 28.5057 30.5635C28.6678 30.5006 28.8151 30.4081 28.9394 30.2912C29.0637 30.1742 29.1624 30.0353 29.23 29.8822C29.2976 29.7291 29.3327 29.5649 29.3334 29.399V14.2362C29.3334 12.5783 27.8748 11.2054 26.1255 11.2054H24.5314Z" fill="#D9882E"/>
<path d="M23.2827 0.342102C22.9305 0.342751 22.5929 0.475453 22.3437 0.711224C22.0944 0.946994 21.9537 1.26667 21.9523 1.60043C21.9516 1.76653 21.9855 1.93113 22.052 2.0848C22.1186 2.23847 22.2164 2.37821 22.34 2.496C22.4636 2.6138 22.6104 2.70734 22.7722 2.77128C22.934 2.83522 23.1074 2.8683 23.2827 2.86862H24.66C17.1209 9.0112 9.2269 12.8269 1.09287 14.2552C0.746124 14.3175 0.439583 14.5075 0.240458 14.7836C0.0413336 15.0597 -0.0341228 15.3994 0.0306342 15.7282C0.0940289 16.0566 0.292002 16.3478 0.581292 16.5383C0.870582 16.7288 1.22767 16.803 1.57452 16.7447C10.3326 15.2068 18.7594 11.0827 26.6673 4.57846V6.06624C26.6666 6.23213 26.7004 6.39653 26.7668 6.55004C26.8331 6.70356 26.9307 6.84318 27.054 6.96095C27.1773 7.07871 27.3239 7.1723 27.4854 7.23639C27.6468 7.30047 27.82 7.33379 27.9951 7.33443C28.171 7.33509 28.3453 7.30273 28.508 7.23923C28.6707 7.17573 28.8185 7.08234 28.9429 6.96445C29.0673 6.84655 29.1658 6.70649 29.2328 6.55233C29.2999 6.39817 29.334 6.23297 29.3333 6.06624V2.34555C29.3336 1.25524 28.3593 0.341863 27.2088 0.342102H23.2827Z" fill="#D9882E"/>
</svg>
