<svg width="36" height="37" viewBox="0 0 36 37" fill="none" xmlns="http://www.w3.org/2000/svg">
<path d="M6.8 20.2778C7.78184 20.2778 8.57778 19.4818 8.57778 18.5C8.57778 17.5182 7.78184 16.7222 6.8 16.7222V20.2778ZM29.2 16.7222C28.2182 16.7222 27.4222 17.5182 27.4222 18.5C27.4222 19.4818 28.2182 20.2778 29.2 20.2778V16.7222ZM19.7778 29.7C19.7778 28.7182 18.9818 27.9222 18 27.9222C17.0182 27.9222 16.2222 28.7182 16.2222 29.7H19.7778ZM16.2222 7.3C16.2222 8.28184 17.0182 9.07778 18 9.07778C18.9818 9.07778 19.7778 8.28184 19.7778 7.3H16.2222ZM14.8 16.7222C13.8182 16.7222 13.0222 17.5182 13.0222 18.5C13.0222 19.4818 13.8182 20.2778 14.8 20.2778V16.7222ZM21.2 20.2778C22.1818 20.2778 22.9778 19.4818 22.9778 18.5C22.9778 17.5182 22.1818 16.7222 21.2 16.7222V20.2778ZM16.2222 21.7C16.2222 22.6818 17.0182 23.4778 18 23.4778C18.9818 23.4778 19.7778 22.6818 19.7778 21.7H16.2222ZM19.7778 15.3C19.7778 14.3182 18.9818 13.5222 18 13.5222C17.0182 13.5222 16.2222 14.3182 16.2222 15.3H19.7778ZM32.2222 18.5C32.2222 26.3546 25.8546 32.7222 18 32.7222V36.2778C27.8183 36.2778 35.7778 28.3183 35.7778 18.5H32.2222ZM18 32.7222C10.1453 32.7222 3.77778 26.3546 3.77778 18.5H0.222222C0.222222 28.3183 8.18159 36.2778 18 36.2778V32.7222ZM3.77778 18.5C3.77778 10.6453 10.1453 4.27778 18 4.27778V0.722222C8.1816 0.722222 0.222222 8.6816 0.222222 18.5H3.77778ZM18 4.27778C25.8546 4.27778 32.2222 10.6453 32.2222 18.5H35.7778C35.7778 8.68159 27.8183 0.722222 18 0.722222V4.27778ZM2 20.2778H6.8V16.7222H2V20.2778ZM29.2 20.2778H34V16.7222H29.2V20.2778ZM19.7778 34.5V29.7H16.2222V34.5H19.7778ZM19.7778 7.3V2.5H16.2222V7.3H19.7778ZM18 16.7222H14.8V20.2778H18V16.7222ZM18 20.2778H21.2V16.7222H18V20.2778ZM16.2222 18.5V21.7H19.7778V18.5H16.2222ZM19.7778 18.5V15.3H16.2222V18.5H19.7778Z" fill="#D9882E"/>
</svg>
