<svg width="24" height="22" viewBox="0 0 24 22" fill="none" xmlns="http://www.w3.org/2000/svg">
<path d="M19.3333 6V5C19.3333 3.59987 19.3333 2.8998 19.0669 2.36503C18.8326 1.89461 18.4586 1.51216 17.9987 1.27249C17.4758 1 16.7912 1 15.4222 1H4.91111C3.54209 1 2.85758 1 2.33469 1.27249C1.87473 1.51216 1.50078 1.89461 1.26643 2.36503C1 2.8998 1 3.59987 1 5V6M1 6V17C1 18.4001 1 19.1003 1.26643 19.635C1.50078 20.1054 1.87473 20.4879 2.33469 20.7275C2.85758 21 3.54209 21 4.91111 21H19.0889C20.4579 21 21.1425 21 21.6653 20.7275C22.1253 20.4879 22.4993 20.1054 22.7336 19.635C23 19.1003 23 18.4001 23 17V10C23 8.59987 23 7.8998 22.7336 7.36503C22.4993 6.89461 22.1253 6.51216 21.6653 6.27249C21.1425 6 20.4579 6 19.0889 6H1ZM23 11H20.5556C19.2055 11 18.1111 12.1193 18.1111 13.5C18.1111 14.8807 19.2055 16 20.5556 16H23" stroke="#D9882E" stroke-width="2" stroke-linecap="round" stroke-linejoin="round"/>
</svg>
