<svg width="26" height="22" viewBox="0 0 26 22" fill="none" xmlns="http://www.w3.org/2000/svg">
<path d="M11.0295 11.6212C12.2518 12.3052 12.8629 12.6473 13.5341 12.6478C14.2053 12.6484 14.8171 12.3074 16.0406 11.6254L23.84 7.27814C24.1921 7.0819 24.4092 6.71812 24.4092 6.32431C24.4092 5.93051 24.1921 5.56673 23.84 5.37049L16.0378 1.02163C14.8156 0.340372 14.2044 -0.000253635 13.5339 1.41698e-07C12.8634 0.000253919 12.2526 0.341342 11.0309 1.02352L4.32358 4.76881C4.27385 4.79658 4.24901 4.81048 4.22584 4.82362C1.93467 6.12417 0.519119 8.49854 0.500191 11.0728C0.5 11.0988 0.5 11.1266 0.5 11.1822C0.5 11.2378 0.5 11.2656 0.500191 11.2916C0.519077 13.8629 1.93147 16.2351 4.21855 17.5366C4.24166 17.5498 4.26651 17.5637 4.31612 17.5915L8.51756 19.9436C10.9657 21.3142 12.1898 21.9995 13.5341 22C14.8783 22.0004 16.1028 21.3159 18.5519 19.9469L22.9871 17.4677C24.2135 16.7822 24.8266 16.4395 25.1633 15.8745C25.5 15.3094 25.5 14.6232 25.5 13.2506V10.5991C25.5 10.2184 25.2873 9.86746 24.9443 9.68216C24.6123 9.50289 24.2077 9.50554 23.8782 9.68917L14.7838 14.7583C14.1736 15.0984 13.8685 15.2684 13.5337 15.2685C13.1989 15.2686 12.8937 15.0987 12.2833 14.759L6.12803 11.333C5.81971 11.1613 5.66553 11.0755 5.5417 11.06C5.2594 11.0247 4.98795 11.178 4.88041 11.4336C4.83327 11.5457 4.8342 11.7181 4.83612 12.0628C4.83752 12.3166 4.83823 12.4434 4.86268 12.5602C4.91748 12.8216 5.05928 13.0582 5.26635 13.2338C5.35881 13.3122 5.47213 13.3757 5.69885 13.5025L12.2799 17.1856C12.8919 17.5281 13.1978 17.6993 13.5338 17.6994C13.8698 17.6995 14.1759 17.5284 14.7881 17.1863L22.8545 12.6776C23.0636 12.5607 23.1682 12.5022 23.2466 12.5462C23.3249 12.5901 23.3249 12.7071 23.3249 12.9411V14.1438C23.3249 14.487 23.3249 14.6585 23.2407 14.7998C23.1566 14.941 23.0033 15.0267 22.6967 15.1981L16.0435 18.9169C14.8186 19.6015 14.2062 19.9438 13.534 19.9435C12.8617 19.9432 12.2496 19.6004 11.0254 18.9146L4.80077 15.428C4.781 15.417 4.77112 15.4114 4.7619 15.4062C3.45675 14.6667 2.65142 13.3138 2.64387 11.848C2.64382 11.8377 2.64382 11.8266 2.64382 11.8045V10.7005C2.64382 9.89132 3.08826 9.1434 3.81023 8.73762C4.44819 8.37907 5.2351 8.37835 5.87373 8.73576L11.0295 11.6212Z" fill="white"/>
</svg>
