<svg width="145" height="42" viewBox="0 0 145 42" fill="none" xmlns="http://www.w3.org/2000/svg">
<g filter="url(#filter0_b_3_1949)">
<rect width="145" height="42" rx="21" fill="white" fill-opacity="0.15"/>
<rect width="145" height="42" rx="21" fill="url(#paint0_radial_3_1949)"/>
<rect x="0.5" y="0.5" width="144" height="41" rx="20.5" stroke="url(#paint1_linear_3_1949)"/>
<path d="M42 21C42 25.2426 42 27.364 40.682 28.682C39.364 30 37.2426 30 33 30C28.7574 30 26.636 30 25.3181 28.682C24 27.364 24 25.2426 24 21C24 16.7574 24 14.636 25.3181 13.318C26.636 12 28.7574 12 33 12C37.2426 12 39.364 12 40.682 13.3181C42 14.636 42 16.7574 42 21Z" fill="#F8744C" stroke="#F8744C"/>
<path d="M33 16L33 22.3ZM33 22.3L30 19.6ZM33 22.3L36 19.6Z" fill="#F8744C"/>
<path d="M29 25L37 25Z" fill="#F8744C"/>
<path d="M33 16L33 22.3M33 22.3L30 19.6M33 22.3L36 19.6M29 25L37 25" stroke="white" stroke-linecap="round" stroke-linejoin="round"/>
<path d="M55.12 25V15.2H58.34C59.8147 15.2 61.0327 15.6713 61.994 16.614C62.9647 17.5473 63.45 18.7093 63.45 20.1C63.45 21.4907 62.9647 22.6573 61.994 23.6C61.0327 24.5333 59.8147 25 58.34 25H55.12ZM56.38 23.81H58.34C59.4787 23.81 60.4027 23.4647 61.112 22.774C61.8307 22.0833 62.19 21.192 62.19 20.1C62.19 19.008 61.8307 18.1167 61.112 17.426C60.4027 16.7353 59.4787 16.39 58.34 16.39H56.38V23.81ZM65.6722 24.104C64.9815 23.4133 64.6362 22.5453 64.6362 21.5C64.6362 20.4547 64.9815 19.5867 65.6722 18.896C66.3628 18.2053 67.2308 17.86 68.2762 17.86C69.3215 17.86 70.1895 18.2053 70.8802 18.896C71.5708 19.5867 71.9162 20.4547 71.9162 21.5C71.9162 22.5453 71.5708 23.4133 70.8802 24.104C70.1895 24.7947 69.3215 25.14 68.2762 25.14C67.2308 25.14 66.3628 24.7947 65.6722 24.104ZM66.4702 19.638C65.9942 20.1233 65.7562 20.744 65.7562 21.5C65.7562 22.256 65.9942 22.8767 66.4702 23.362C66.9462 23.8473 67.5482 24.09 68.2762 24.09C69.0042 24.09 69.6062 23.8473 70.0822 23.362C70.5582 22.8767 70.7962 22.256 70.7962 21.5C70.7962 20.744 70.5582 20.1233 70.0822 19.638C69.6062 19.1527 69.0042 18.91 68.2762 18.91C67.5482 18.91 66.9462 19.1527 66.4702 19.638ZM72.8907 18H74.0807L75.3407 23.95H75.6907L76.8807 18H78.9107L80.1007 23.95H80.4507L81.7107 18H82.9007L81.3607 25H79.1907L78.0007 19.05H77.7907L76.6007 25H74.4307L72.8907 18ZM84.3062 25V18H85.4262V19.05H85.4402C85.5802 18.826 85.7622 18.63 85.9862 18.462C86.4995 18.0607 87.1062 17.86 87.8062 17.86C88.6555 17.86 89.3322 18.1307 89.8362 18.672C90.3495 19.204 90.6062 19.9367 90.6062 20.87V25H89.4862V20.94C89.4862 20.268 89.3182 19.764 88.9822 19.428C88.6462 19.0827 88.1842 18.91 87.5962 18.91C86.9522 18.91 86.4295 19.1247 86.0282 19.554C85.6268 19.974 85.4262 20.5293 85.4262 21.22V25H84.3062ZM92.4956 25V15.2H93.6156V23.95H95.2256V25H92.4956ZM96.9671 24.104C96.2764 23.4133 95.9311 22.5453 95.9311 21.5C95.9311 20.4547 96.2764 19.5867 96.9671 18.896C97.6578 18.2053 98.5258 17.86 99.5711 17.86C100.616 17.86 101.484 18.2053 102.175 18.896C102.866 19.5867 103.211 20.4547 103.211 21.5C103.211 22.5453 102.866 23.4133 102.175 24.104C101.484 24.7947 100.616 25.14 99.5711 25.14C98.5258 25.14 97.6578 24.7947 96.9671 24.104ZM97.7651 19.638C97.2891 20.1233 97.0511 20.744 97.0511 21.5C97.0511 22.256 97.2891 22.8767 97.7651 23.362C98.2411 23.8473 98.8431 24.09 99.5711 24.09C100.299 24.09 100.901 23.8473 101.377 23.362C101.853 22.8767 102.091 22.256 102.091 21.5C102.091 20.744 101.853 20.1233 101.377 19.638C100.901 19.1527 100.299 18.91 99.5711 18.91C98.8431 18.91 98.2411 19.1527 97.7651 19.638ZM105.306 24.104C104.652 23.404 104.326 22.536 104.326 21.5C104.326 20.464 104.652 19.6007 105.306 18.91C105.959 18.21 106.752 17.86 107.686 17.86C108.274 17.86 108.768 17.972 109.17 18.196C109.58 18.42 109.879 18.6627 110.066 18.924L110.192 19.134H110.206V18H111.326V25H110.206V23.88H110.192L110.066 24.076C109.898 24.328 109.608 24.5707 109.198 24.804C108.787 25.028 108.283 25.14 107.686 25.14C106.752 25.14 105.959 24.7947 105.306 24.104ZM106.118 19.638C105.67 20.1233 105.446 20.744 105.446 21.5C105.446 22.256 105.67 22.8767 106.118 23.362C106.575 23.8473 107.144 24.09 107.826 24.09C108.507 24.09 109.072 23.8473 109.52 23.362C109.977 22.8767 110.206 22.256 110.206 21.5C110.206 20.744 109.977 20.1233 109.52 19.638C109.072 19.1527 108.507 18.91 107.826 18.91C107.144 18.91 106.575 19.1527 106.118 19.638ZM113.851 24.104C113.197 23.404 112.871 22.536 112.871 21.5C112.871 20.464 113.197 19.6007 113.851 18.91C114.504 18.21 115.297 17.86 116.231 17.86C116.819 17.86 117.318 17.972 117.729 18.196C118.139 18.42 118.433 18.658 118.611 18.91L118.737 19.12H118.751V15.2H119.871V25H118.751V23.88H118.737L118.611 24.076C118.443 24.328 118.153 24.5707 117.743 24.804C117.332 25.028 116.828 25.14 116.231 25.14C115.297 25.14 114.504 24.7947 113.851 24.104ZM114.663 19.638C114.215 20.1233 113.991 20.744 113.991 21.5C113.991 22.256 114.215 22.8767 114.663 23.362C115.12 23.8473 115.689 24.09 116.371 24.09C117.052 24.09 117.617 23.8473 118.065 23.362C118.522 22.8767 118.751 22.256 118.751 21.5C118.751 20.744 118.522 20.1233 118.065 19.638C117.617 19.1527 117.052 18.91 116.371 18.91C115.689 18.91 115.12 19.1527 114.663 19.638Z" fill="white"/>
</g>
<defs>
<filter id="filter0_b_3_1949" x="-50" y="-50" width="245" height="142" filterUnits="userSpaceOnUse" color-interpolation-filters="sRGB">
<feFlood flood-opacity="0" result="BackgroundImageFix"/>
<feGaussianBlur in="BackgroundImageFix" stdDeviation="25"/>
<feComposite in2="SourceAlpha" operator="in" result="effect1_backgroundBlur_3_1949"/>
<feBlend mode="normal" in="SourceGraphic" in2="effect1_backgroundBlur_3_1949" result="shape"/>
</filter>
<radialGradient id="paint0_radial_3_1949" cx="0" cy="0" r="1" gradientUnits="userSpaceOnUse" gradientTransform="translate(-10.3474 68.4923) rotate(-23.6208) scale(123.894 149.159)">
<stop stop-color="#F8744C"/>
<stop offset="1" stop-color="#0B1431" stop-opacity="0"/>
</radialGradient>
<linearGradient id="paint1_linear_3_1949" x1="36.6141" y1="14.3877" x2="43.4759" y2="52.3496" gradientUnits="userSpaceOnUse">
<stop stop-color="#F8744C"/>
<stop offset="1" stop-color="white" stop-opacity="0"/>
</linearGradient>
</defs>
</svg>
