<svg width="307" height="94" viewBox="0 0 307 94" fill="none" xmlns="http://www.w3.org/2000/svg">
<g filter="url(#filter0_b_93_160)">
<g clip-path="url(#clip0_93_160)">
<rect x="0.5" y="0.0545654" width="305.891" height="93.9454" rx="46.9727" fill="black" fill-opacity="0.15"/>
<rect x="0.5" y="0.0545654" width="305.891" height="93.9454" rx="46.9727" fill="url(#paint0_radial_93_160)"/>
<path d="M66.2693 60.5273H48.9033V33.9273H52.3233V57.2593H66.2693V60.5273ZM76.6032 60.9073C74.9312 60.9073 73.4112 60.4893 72.0432 59.6533C70.7006 58.8173 69.6366 57.652 68.8512 56.1573C68.0659 54.6373 67.6732 52.902 67.6732 50.9513C67.6732 49.0007 68.0659 47.278 68.8512 45.7833C69.6366 44.2633 70.7006 43.0853 72.0432 42.2493C73.4112 41.4133 74.9312 40.9953 76.6032 40.9953C78.0219 40.9953 79.3392 41.3247 80.5552 41.9833C81.7712 42.6167 82.7086 43.478 83.3672 44.5673H83.5572V41.3753H86.5592V60.5273H83.5572V57.3353H83.3672C82.7086 58.4247 81.7712 59.2987 80.5552 59.9573C79.3392 60.5907 78.0219 60.9073 76.6032 60.9073ZM77.2872 58.0193C79.1112 58.0193 80.5806 57.386 81.6952 56.1193C82.8352 54.8527 83.4052 53.13 83.4052 50.9513C83.4052 48.7727 82.8352 47.05 81.6952 45.7833C80.5806 44.5167 79.1112 43.8833 77.2872 43.8833C75.3619 43.8833 73.8292 44.5167 72.6892 45.7833C71.5492 47.0247 70.9792 48.7473 70.9792 50.9513C70.9792 53.13 71.5492 54.8527 72.6892 56.1193C73.8292 57.386 75.3619 58.0193 77.2872 58.0193ZM99.2637 60.9073C96.9584 60.9073 95.1597 60.2107 93.8677 58.8173C92.5757 57.3987 91.9297 55.3847 91.9297 52.7753V41.3753H95.0837V52.2813C95.0837 54.1053 95.5017 55.524 96.3377 56.5373C97.199 57.5253 98.4277 58.0193 100.024 58.0193C101.138 58.0193 102.139 57.766 103.026 57.2593C103.938 56.7273 104.647 56.0053 105.154 55.0933C105.66 54.1813 105.914 53.1427 105.914 51.9773V41.3753H109.068V60.5273H106.028V57.4493H105.838C105.23 58.488 104.356 59.324 103.216 59.9573C102.076 60.5907 100.758 60.9073 99.2637 60.9073ZM114.608 60.5273V41.3753H117.61V44.4533H117.8C118.433 43.4147 119.32 42.5787 120.46 41.9453C121.6 41.312 122.917 40.9953 124.412 40.9953C126.717 40.9953 128.516 41.7047 129.808 43.1233C131.125 44.5167 131.784 46.5053 131.784 49.0893V60.5273H128.63V49.6213C128.63 47.7973 128.212 46.3913 127.376 45.4033C126.54 44.39 125.311 43.8833 123.69 43.8833C121.967 43.8833 120.549 44.4533 119.434 45.5933C118.319 46.7333 117.762 48.2153 117.762 50.0393V60.5273H114.608ZM145.797 60.9073C143.948 60.9073 142.263 60.4767 140.743 59.6153C139.249 58.754 138.071 57.5633 137.209 56.0433C136.348 54.5233 135.917 52.826 135.917 50.9513C135.917 49.0767 136.348 47.3793 137.209 45.8593C138.071 44.3393 139.249 43.1487 140.743 42.2873C142.263 41.426 143.948 40.9953 145.797 40.9953C147.444 40.9953 148.901 41.3247 150.167 41.9833C151.459 42.642 152.498 43.5033 153.283 44.5673C154.094 45.606 154.639 46.7207 154.917 47.9113H151.687C151.282 46.7713 150.56 45.8213 149.521 45.0613C148.483 44.276 147.241 43.8833 145.797 43.8833C143.847 43.8833 142.263 44.542 141.047 45.8593C139.831 47.1513 139.223 48.8487 139.223 50.9513C139.223 53.054 139.831 54.764 141.047 56.0813C142.263 57.3733 143.847 58.0193 145.797 58.0193C147.241 58.0193 148.483 57.6393 149.521 56.8793C150.56 56.094 151.282 55.1313 151.687 53.9913H154.917C154.639 55.182 154.094 56.3093 153.283 57.3733C152.498 58.412 151.459 59.2607 150.167 59.9193C148.901 60.578 147.444 60.9073 145.797 60.9073ZM159.292 60.5273V33.9273H162.446V44.3393H162.636C163.219 43.3513 164.067 42.5533 165.182 41.9453C166.322 41.312 167.627 40.9953 169.096 40.9953C171.401 40.9953 173.2 41.7047 174.492 43.1233C175.809 44.5167 176.468 46.5053 176.468 49.0893V60.5273H173.314V49.6213C173.314 47.7973 172.896 46.3913 172.06 45.4033C171.224 44.39 169.995 43.8833 168.374 43.8833C166.651 43.8833 165.233 44.4533 164.118 45.5933C163.003 46.7333 162.446 48.2153 162.446 50.0393V60.5273H159.292ZM213.482 60.5273H209.948L207.706 52.7753H194.634L192.392 60.5273H188.896L196.686 33.9273H205.692L213.482 60.5273ZM199.156 37.0813L195.584 49.5073H206.756L203.146 37.0813H199.156ZM217.253 67.7473V41.3753H220.255V44.5673H220.445C221.103 43.478 222.041 42.6167 223.257 41.9833C224.473 41.3247 225.79 40.9953 227.209 40.9953C228.855 40.9953 230.35 41.4133 231.693 42.2493C233.061 43.0853 234.137 44.2633 234.923 45.7833C235.708 47.278 236.101 49.0007 236.101 50.9513C236.101 52.902 235.708 54.6373 234.923 56.1573C234.137 57.652 233.061 58.8173 231.693 59.6533C230.35 60.4893 228.855 60.9073 227.209 60.9073C225.765 60.9073 224.447 60.5907 223.257 59.9573C222.091 59.2987 221.205 58.4627 220.597 57.4493H220.407V67.7473H217.253ZM226.525 58.0193C228.45 58.0193 229.983 57.386 231.123 56.1193C232.263 54.8527 232.833 53.13 232.833 50.9513C232.833 48.7473 232.263 47.0247 231.123 45.7833C229.983 44.5167 228.45 43.8833 226.525 43.8833C224.701 43.8833 223.219 44.5167 222.079 45.7833C220.964 47.05 220.407 48.7727 220.407 50.9513C220.407 53.13 220.964 54.8527 222.079 56.1193C223.219 57.386 224.701 58.0193 226.525 58.0193ZM240.483 67.7473V41.3753H243.485V44.5673H243.675C244.334 43.478 245.271 42.6167 246.487 41.9833C247.703 41.3247 249.02 40.9953 250.439 40.9953C252.086 40.9953 253.58 41.4133 254.923 42.2493C256.291 43.0853 257.368 44.2633 258.153 45.7833C258.938 47.278 259.331 49.0007 259.331 50.9513C259.331 52.902 258.938 54.6373 258.153 56.1573C257.368 57.652 256.291 58.8173 254.923 59.6533C253.58 60.4893 252.086 60.9073 250.439 60.9073C248.995 60.9073 247.678 60.5907 246.487 59.9573C245.322 59.2987 244.435 58.4627 243.827 57.4493H243.637V67.7473H240.483ZM249.755 58.0193C251.68 58.0193 253.213 57.386 254.353 56.1193C255.493 54.8527 256.063 53.13 256.063 50.9513C256.063 48.7473 255.493 47.0247 254.353 45.7833C253.213 44.5167 251.68 43.8833 249.755 43.8833C247.931 43.8833 246.449 44.5167 245.309 45.7833C244.194 47.05 243.637 48.7727 243.637 50.9513C243.637 53.13 244.194 54.8527 245.309 56.1193C246.449 57.386 247.931 58.0193 249.755 58.0193Z" fill="white"/>
<g clip-path="url(#clip1_93_160)">
<g clip-path="url(#clip2_93_160)">
<path d="M20.681 85.4197C20.8858 85.2868 20.944 85.0131 20.8112 84.8084C20.6783 84.6036 20.4046 84.5454 20.1998 84.6782C19.9951 84.8111 19.9368 85.0848 20.0697 85.2896C20.2026 85.4943 20.4763 85.5526 20.681 85.4197Z" fill="white"/>
<path d="M17.7924 67.9794C17.9971 67.8465 18.0554 67.5728 17.9225 67.3681C17.7896 67.1633 17.5159 67.105 17.3112 67.2379C17.1064 67.3708 17.0481 67.6445 17.181 67.8493C17.3139 68.054 17.5876 68.1123 17.7924 67.9794Z" fill="white"/>
<path opacity="0.3" d="M15.1011 84.1253C15.3741 83.9481 15.4519 83.5831 15.2746 83.31C15.0974 83.0369 14.7324 82.9592 14.4593 83.1364C14.1862 83.3136 14.1085 83.6787 14.2857 83.9517C14.4629 84.2248 14.828 84.3025 15.1011 84.1253Z" fill="white"/>
<path opacity="0.11" d="M0.157713 83.2866C0.430795 83.1093 0.508504 82.7443 0.331285 82.4712C0.154066 82.1981 -0.21097 82.1204 -0.484051 82.2976C-0.757132 82.4749 -0.83485 82.8399 -0.657631 83.113C-0.480412 83.3861 -0.115368 83.4638 0.157713 83.2866Z" fill="white"/>
<path d="M69.8041 90.3081C70.0088 90.1753 70.0671 89.9016 69.9342 89.6968C69.8013 89.4921 69.5276 89.4338 69.3229 89.5667C69.1181 89.6995 69.0599 89.9732 69.1927 90.178C69.3256 90.3827 69.5993 90.441 69.8041 90.3081Z" fill="white"/>
<path d="M121.034 74.2709C121.171 74.1823 121.21 74 121.121 73.8636C121.033 73.7271 120.85 73.6883 120.714 73.7768C120.577 73.8654 120.539 74.0477 120.627 74.1841C120.716 74.3206 120.898 74.3594 121.034 74.2709Z" fill="white"/>
<path d="M139.31 43.4438C139.446 43.3553 139.485 43.1729 139.397 43.0365C139.308 42.9001 139.126 42.8613 138.989 42.9498C138.853 43.0383 138.814 43.2207 138.902 43.3571C138.991 43.4935 139.173 43.5324 139.31 43.4438Z" fill="white"/>
<path d="M160.657 55.2296C160.794 55.1411 160.833 54.9587 160.744 54.8223C160.656 54.6859 160.473 54.647 160.337 54.7356C160.2 54.8241 160.162 55.0065 160.25 55.1429C160.339 55.2793 160.521 55.3181 160.657 55.2296Z" fill="white"/>
<path opacity="0.11" d="M118.283 85.1863C118.42 85.0977 118.459 84.9154 118.37 84.7789C118.282 84.6425 118.099 84.6037 117.963 84.6922C117.826 84.7808 117.788 84.9631 117.876 85.0996C117.965 85.236 118.147 85.2748 118.283 85.1863Z" fill="white"/>
<path d="M36.3909 92.6726C36.5273 92.5841 36.5661 92.4017 36.4776 92.2653C36.3891 92.1288 36.2067 92.09 36.0703 92.1786C35.9339 92.2671 35.895 92.4495 35.9835 92.5859C36.0721 92.7223 36.2545 92.7611 36.3909 92.6726Z" fill="white"/>
<path d="M74.1291 67.4805C74.2656 67.3919 74.3044 67.2096 74.2158 67.0732C74.1273 66.9367 73.945 66.8979 73.8085 66.9864C73.6721 67.075 73.6333 67.2573 73.7218 67.3937C73.8104 67.5302 73.9927 67.569 74.1291 67.4805Z" fill="white"/>
<path opacity="0.3" d="M148.614 37.7579C148.75 37.6694 148.789 37.487 148.7 37.3506C148.612 37.2142 148.429 37.1753 148.293 37.2639C148.157 37.3524 148.118 37.5348 148.206 37.6712C148.295 37.8076 148.477 37.8464 148.614 37.7579Z" fill="white"/>
<path opacity="0.11" d="M102.25 53.4459C102.387 53.3574 102.425 53.175 102.337 53.0386C102.248 52.9022 102.066 52.8634 101.93 52.9519C101.793 53.0404 101.754 53.2228 101.843 53.3592C101.931 53.4956 102.114 53.5345 102.25 53.4459Z" fill="white"/>
<path opacity="0.11" d="M148.838 52.7134C148.975 52.6248 149.013 52.4425 148.925 52.3061C148.836 52.1696 148.654 52.1308 148.518 52.2193C148.381 52.3079 148.342 52.4902 148.431 52.6267C148.519 52.7631 148.702 52.8019 148.838 52.7134Z" fill="white"/>
<path opacity="0.11" d="M97.5268 78.6381C97.7999 78.4609 97.8776 78.0959 97.7004 77.8228C97.5232 77.5497 97.1582 77.472 96.8851 77.6492C96.612 77.8264 96.5343 78.1915 96.7115 78.4646C96.8887 78.7376 97.2538 78.8153 97.5268 78.6381Z" fill="white"/>
<path d="M91.7914 70.0691C91.9961 69.9363 92.0544 69.6625 91.9215 69.4578C91.7886 69.253 91.5149 69.1948 91.3102 69.3276C91.1054 69.4605 91.0472 69.7342 91.18 69.939C91.3129 70.1437 91.5866 70.202 91.7914 70.0691Z" fill="white"/>
<path d="M176.834 58.781C177.039 58.6482 177.097 58.3745 176.964 58.1697C176.832 57.965 176.558 57.9067 176.353 58.0396C176.148 58.1724 176.09 58.4461 176.223 58.6509C176.356 58.8556 176.63 58.9139 176.834 58.781Z" fill="white"/>
<path d="M83.1371 82.7094C83.3418 82.5765 83.4001 82.3028 83.2672 82.0981C83.1343 81.8933 82.8606 81.835 82.6559 81.9679C82.4511 82.1008 82.3929 82.3745 82.5258 82.5792C82.6586 82.784 82.9323 82.8423 83.1371 82.7094Z" fill="white"/>
<path d="M175.76 39.8087C175.965 39.6759 176.023 39.4022 175.89 39.1974C175.757 38.9927 175.484 38.9344 175.279 39.0673C175.074 39.2001 175.016 39.4738 175.149 39.6786C175.282 39.8834 175.555 39.9416 175.76 39.8087Z" fill="white"/>
<path d="M172.872 22.368C173.077 22.2351 173.135 21.9614 173.003 21.7566C172.87 21.5519 172.596 21.4936 172.391 21.6265C172.186 21.7594 172.128 22.0331 172.261 22.2378C172.394 22.4426 172.668 22.5008 172.872 22.368Z" fill="white"/>
<path opacity="0.3" d="M112.337 57.0838C112.61 56.9066 112.688 56.5415 112.511 56.2684C112.334 55.9954 111.969 55.9177 111.696 56.0949C111.423 56.2721 111.345 56.6371 111.522 56.9102C111.699 57.1833 112.064 57.261 112.337 57.0838Z" fill="white"/>
<path d="M100.953 39.5386C101.226 39.3614 101.303 38.9964 101.126 38.7233C100.949 38.4502 100.584 38.3725 100.311 38.5497C100.038 38.7269 99.9601 39.092 100.137 39.3651C100.315 39.6381 100.68 39.7159 100.953 39.5386Z" fill="white"/>
<path d="M128.596 54.262C128.801 54.1291 128.859 53.8554 128.726 53.6507C128.593 53.4459 128.32 53.3876 128.115 53.5205C127.91 53.6534 127.852 53.9271 127.985 54.1318C128.118 54.3366 128.391 54.3949 128.596 54.262Z" fill="white"/>
<path opacity="0.3" d="M134.328 36.8454C134.601 36.6682 134.678 36.3031 134.501 36.0301C134.324 35.757 133.959 35.6793 133.686 35.8565C133.413 36.0337 133.335 36.3987 133.512 36.6718C133.69 36.9449 134.055 37.0226 134.328 36.8454Z" fill="white"/>
<path opacity="0.3" d="M170.181 38.5141C170.454 38.3369 170.532 37.9718 170.355 37.6988C170.177 37.4257 169.812 37.348 169.539 37.5252C169.266 37.7024 169.189 38.0674 169.366 38.3405C169.543 38.6136 169.908 38.6913 170.181 38.5141Z" fill="white"/>
<path opacity="0.3" d="M141.586 57.772C141.859 57.5948 141.937 57.2298 141.76 56.9567C141.583 56.6836 141.218 56.6059 140.945 56.7831C140.672 56.9603 140.594 57.3254 140.771 57.5985C140.948 57.8715 141.313 57.9493 141.586 57.772Z" fill="white"/>
<path opacity="0.11" d="M155.238 37.6755C155.511 37.4983 155.589 37.1332 155.411 36.8601C155.234 36.5871 154.869 36.5093 154.596 36.6866C154.323 36.8638 154.245 37.2288 154.422 37.5019C154.6 37.775 154.965 37.8527 155.238 37.6755Z" fill="white"/>
<g clip-path="url(#clip3_93_160)">
<path d="M306.451 60.9915C306.214 60.9335 306.069 60.6942 306.127 60.4571C306.185 60.2201 306.424 60.0749 306.662 60.1329C306.899 60.191 307.044 60.4302 306.986 60.6673C306.928 60.9044 306.688 61.0496 306.451 60.9915Z" fill="white"/>
<path d="M298.478 52.6713C298.241 52.6133 298.095 52.374 298.154 52.137C298.212 51.8999 298.451 51.7547 298.688 51.8128C298.925 51.8708 299.07 52.1101 299.012 52.3471C298.954 52.5842 298.715 52.7294 298.478 52.6713Z" fill="white"/>
<path d="M244.824 54.3996C244.666 54.3609 244.569 54.2015 244.608 54.0436C244.647 53.8856 244.806 53.7889 244.964 53.8276C245.122 53.8662 245.219 54.0256 245.18 54.1836C245.141 54.3416 244.982 54.4383 244.824 54.3996Z" fill="white"/>
<path d="M217.417 31.3097C217.259 31.271 217.162 31.1116 217.201 30.9536C217.239 30.7956 217.399 30.6989 217.557 30.7376C217.715 30.7763 217.811 30.9357 217.773 31.0936C217.734 31.2516 217.575 31.3483 217.417 31.3097Z" fill="white"/>
<path d="M201.14 49.468C200.982 49.4293 200.886 49.2699 200.924 49.1119C200.963 48.954 201.122 48.8572 201.28 48.8959C201.438 48.9346 201.535 49.094 201.496 49.252C201.458 49.4099 201.298 49.5066 201.14 49.468Z" fill="white"/>
<path opacity="0.11" d="M305.257 80.1127C305.099 80.0741 305.002 79.9147 305.041 79.7567C305.079 79.5987 305.239 79.502 305.397 79.5407C305.555 79.5794 305.651 79.7388 305.613 79.8967C305.574 80.0547 305.415 80.1514 305.257 80.1127Z" fill="white"/>
<path opacity="0.11" d="M251.015 63.7994C250.857 63.7607 250.761 63.6013 250.799 63.4433C250.838 63.2854 250.997 63.1887 251.155 63.2273C251.313 63.266 251.41 63.4254 251.371 63.5834C251.333 63.7414 251.173 63.8381 251.015 63.7994Z" fill="white"/>
<path d="M286.877 32.5407C286.719 32.5021 286.622 32.3427 286.661 32.1847C286.699 32.0267 286.859 31.93 287.017 31.9687C287.175 32.0073 287.271 32.1668 287.233 32.3247C287.194 32.4827 287.035 32.5794 286.877 32.5407Z" fill="white"/>
<path opacity="0.3" d="M206.758 29.0041C206.601 28.9654 206.504 28.806 206.542 28.6481C206.581 28.4901 206.741 28.3934 206.899 28.4321C207.057 28.4707 207.153 28.6301 207.115 28.7881C207.076 28.9461 206.916 29.0428 206.758 29.0041Z" fill="white"/>
<path opacity="0.11" d="M255.703 28.5496C255.545 28.511 255.448 28.3516 255.487 28.1936C255.525 28.0356 255.685 27.9389 255.843 27.9776C256.001 28.0163 256.098 28.1757 256.059 28.3336C256.02 28.4916 255.861 28.5883 255.703 28.5496Z" fill="white"/>
<path opacity="0.11" d="M211.472 43.1999C211.314 43.1612 211.218 43.0018 211.256 42.8439C211.295 42.6859 211.454 42.5892 211.612 42.6279C211.77 42.6665 211.867 42.8259 211.828 42.9839C211.79 43.1419 211.63 43.2386 211.472 43.1999Z" fill="white"/>
<path opacity="0.3" d="M283.242 63.4998C282.926 63.4224 282.732 63.1033 282.809 62.7871C282.887 62.4709 283.206 62.2773 283.522 62.3547C283.838 62.4321 284.032 62.7512 283.955 63.0674C283.877 63.3836 283.558 63.5772 283.242 63.4998Z" fill="white"/>
<path opacity="0.11" d="M268.459 50.7813C268.142 50.7039 267.949 50.3848 268.026 50.0686C268.104 49.7524 268.423 49.5588 268.739 49.6362C269.055 49.7136 269.249 50.0327 269.171 50.3489C269.094 50.6651 268.775 50.8587 268.459 50.7813Z" fill="white"/>
<path d="M271.053 40.8012C270.816 40.7432 270.671 40.5039 270.729 40.2668C270.787 40.0297 271.026 39.8846 271.263 39.9426C271.5 40.0007 271.645 40.2399 271.587 40.477C271.529 40.7141 271.29 40.8592 271.053 40.8012Z" fill="white"/>
<path d="M283.441 75.6818C283.204 75.6238 283.058 75.3845 283.116 75.1474C283.174 74.9103 283.414 74.7652 283.651 74.8233C283.888 74.8813 284.033 75.1205 283.975 75.3576C283.917 75.5947 283.678 75.7399 283.441 75.6818Z" fill="white"/>
<path d="M187.035 58.1474C186.798 58.0894 186.653 57.8501 186.711 57.613C186.769 57.3759 187.008 57.2308 187.245 57.2888C187.483 57.3469 187.628 57.5861 187.57 57.8232C187.512 58.0603 187.272 58.2054 187.035 58.1474Z" fill="white"/>
<path d="M283.386 49.888C283.149 49.83 283.004 49.5907 283.062 49.3536C283.12 49.1165 283.359 48.9714 283.596 49.0294C283.833 49.0875 283.978 49.3267 283.92 49.5638C283.862 49.8009 283.623 49.946 283.386 49.888Z" fill="white"/>
<path d="M252.869 77.9042C252.632 77.8462 252.487 77.607 252.545 77.3699C252.603 77.1328 252.842 76.9876 253.079 77.0457C253.317 77.1037 253.462 77.343 253.404 77.58C253.346 77.8171 253.106 77.9623 252.869 77.9042Z" fill="white"/>
<path d="M181.802 39.8801C181.565 39.822 181.42 39.5828 181.478 39.3457C181.536 39.1086 181.775 38.9635 182.012 39.0215C182.249 39.0795 182.394 39.3188 182.336 39.5559C182.278 39.793 182.039 39.9381 181.802 39.8801Z" fill="white"/>
<path d="M178.786 22.4608C178.549 22.4027 178.404 22.1635 178.462 21.9264C178.52 21.6893 178.759 21.5441 178.997 21.6022C179.234 21.6602 179.379 21.8995 179.321 22.1366C179.263 22.3736 179.023 22.5188 178.786 22.4608Z" fill="white"/>
<path opacity="0.3" d="M247.373 35.3078C247.057 35.2304 246.863 34.9113 246.94 34.5951C247.018 34.2789 247.337 34.0853 247.653 34.1627C247.969 34.2401 248.163 34.5592 248.085 34.8754C248.008 35.1916 247.689 35.3852 247.373 35.3078Z" fill="white"/>
<path d="M252.349 14.9902C252.033 14.9128 251.839 14.5937 251.917 14.2774C251.994 13.9612 252.313 13.7677 252.63 13.8451C252.946 13.9225 253.139 14.2416 253.062 14.5578C252.985 14.874 252.665 15.0676 252.349 14.9902Z" fill="white"/>
<path d="M231.094 37.9957C230.857 37.9376 230.712 37.6984 230.77 37.4613C230.828 37.2242 231.067 37.0791 231.304 37.1371C231.541 37.1951 231.686 37.4344 231.628 37.6715C231.57 37.9086 231.331 38.0537 231.094 37.9957Z" fill="white"/>
<path opacity="0.3" d="M219.947 23.438C219.631 23.3606 219.437 23.0415 219.515 22.7253C219.592 22.4091 219.911 22.2155 220.227 22.2929C220.543 22.3704 220.737 22.6894 220.66 23.0057C220.582 23.3219 220.263 23.5154 219.947 23.438Z" fill="white"/>
<path opacity="0.3" d="M186.643 36.82C186.327 36.7426 186.133 36.4235 186.211 36.1073C186.288 35.7911 186.607 35.5975 186.924 35.6749C187.24 35.7523 187.433 36.0714 187.356 36.3876C187.279 36.7038 186.959 36.8974 186.643 36.82Z" fill="white"/>
<path opacity="0.3" d="M219.985 45.5883C219.669 45.5109 219.475 45.1918 219.553 44.8756C219.63 44.5594 219.949 44.3658 220.265 44.4432C220.582 44.5206 220.775 44.8397 220.698 45.1559C220.62 45.4721 220.301 45.6657 219.985 45.5883Z" fill="white"/>
<path opacity="0.11" d="M200.478 31.1076C200.162 31.0302 199.968 30.7111 200.046 30.3949C200.123 30.0787 200.442 29.8851 200.759 29.9625C201.075 30.0399 201.268 30.359 201.191 30.6752C201.113 30.9914 200.794 31.185 200.478 31.1076Z" fill="white"/>
<path opacity="0.11" d="M147.63 66.2999C147.313 66.2224 147.12 65.9034 147.197 65.5871C147.275 65.2709 147.594 65.0773 147.91 65.1548C148.226 65.2322 148.42 65.5513 148.342 65.8675C148.265 66.1837 147.946 66.3773 147.63 66.2999Z" fill="white"/>
<path d="M145.001 68.992C144.764 68.934 144.619 68.6947 144.677 68.4576C144.735 68.2205 144.974 68.0754 145.211 68.1334C145.448 68.1915 145.594 68.4307 145.536 68.6678C145.477 68.9049 145.238 69.05 145.001 68.992Z" fill="white"/>
<path d="M137.028 60.6721C136.79 60.614 136.645 60.3748 136.703 60.1377C136.761 59.9006 137.001 59.7554 137.238 59.8135C137.475 59.8715 137.62 60.1108 137.562 60.3479C137.504 60.585 137.265 60.7301 137.028 60.6721Z" fill="white"/>
<path d="M161.492 66.0527C161.255 65.9946 161.11 65.7554 161.168 65.5183C161.226 65.2812 161.465 65.1361 161.703 65.1941C161.94 65.2521 162.085 65.4914 162.027 65.7285C161.969 65.9656 161.729 66.1107 161.492 66.0527Z" fill="white"/>
<path opacity="0.11" d="M173.977 76.3879C173.661 76.3104 173.467 75.9914 173.545 75.6752C173.622 75.3589 173.941 75.1654 174.258 75.2428C174.574 75.3202 174.767 75.6393 174.69 75.9555C174.613 76.2717 174.293 76.4653 173.977 76.3879Z" fill="white"/>
<path d="M180.954 71.4239C180.796 71.3852 180.699 71.2258 180.738 71.0679C180.777 70.9099 180.936 70.8132 181.094 70.8519C181.252 70.8905 181.349 71.0499 181.31 71.2079C181.271 71.3659 181.112 71.4626 180.954 71.4239Z" fill="white"/>
<path d="M145.759 77.67C145.601 77.6313 145.505 77.4719 145.543 77.314C145.582 77.156 145.742 77.0593 145.9 77.0979C146.057 77.1366 146.154 77.296 146.116 77.454C146.077 77.612 145.917 77.7087 145.759 77.67Z" fill="white"/>
<path d="M83.3737 62.399C83.2158 62.3603 83.1191 62.2009 83.1578 62.043C83.1964 61.885 83.3558 61.7883 83.5138 61.827C83.6718 61.8656 83.7685 62.025 83.7298 62.183C83.6911 62.341 83.5317 62.4377 83.3737 62.399Z" fill="white"/>
<path d="M55.9665 39.3093C55.8085 39.2706 55.7118 39.1112 55.7505 38.9532C55.7892 38.7953 55.9486 38.6986 56.1066 38.7372C56.2645 38.7759 56.3612 38.9353 56.3226 39.0933C56.2839 39.2512 56.1245 39.348 55.9665 39.3093Z" fill="white"/>
<path d="M39.6901 57.4677C39.5322 57.4291 39.4355 57.2697 39.4741 57.1117C39.5128 56.9537 39.6722 56.857 39.8302 56.8957C39.9881 56.9343 40.0849 57.0938 40.0462 57.2517C40.0075 57.4097 39.8481 57.5064 39.6901 57.4677Z" fill="white"/>
<path d="M242.803 93.8433C242.645 93.8047 242.549 93.6453 242.587 93.4873C242.626 93.3293 242.785 93.2326 242.943 93.2713C243.101 93.31 243.198 93.4694 243.159 93.6273C243.121 93.7853 242.961 93.882 242.803 93.8433Z" fill="white"/>
<path opacity="0.11" d="M250.876 79.4418C250.718 79.4032 250.621 79.2438 250.66 79.0858C250.698 78.9278 250.858 78.8311 251.016 78.8698C251.174 78.9085 251.27 79.0679 251.232 79.2259C251.193 79.3838 251.034 79.4805 250.876 79.4418Z" fill="white"/>
<path opacity="0.11" d="M261.568 89.036C261.41 88.9973 261.313 88.8379 261.352 88.6799C261.391 88.522 261.55 88.4252 261.708 88.4639C261.866 88.5026 261.963 88.662 261.924 88.82C261.885 88.9779 261.726 89.0746 261.568 89.036Z" fill="white"/>
<path opacity="0.11" d="M182.621 75.7733C182.463 75.7346 182.366 75.5752 182.405 75.4172C182.443 75.2593 182.603 75.1625 182.761 75.2012C182.919 75.2399 183.016 75.3993 182.977 75.5573C182.938 75.7152 182.779 75.8119 182.621 75.7733Z" fill="white"/>
<path opacity="0.11" d="M143.809 88.1113C143.651 88.0726 143.555 87.9132 143.593 87.7552C143.632 87.5973 143.791 87.5006 143.949 87.5392C144.107 87.5779 144.204 87.7373 144.165 87.8953C144.127 88.0532 143.967 88.15 143.809 88.1113Z" fill="white"/>
<path opacity="0.11" d="M89.5652 71.7999C89.4072 71.7612 89.3105 71.6018 89.3491 71.4438C89.3878 71.2859 89.5472 71.1892 89.7052 71.2278C89.8632 71.2665 89.9599 71.4259 89.9212 71.5839C89.8825 71.7418 89.7231 71.8386 89.5652 71.7999Z" fill="white"/>
<path opacity="0.3" d="M231.389 83.4671C231.231 83.4284 231.135 83.269 231.173 83.1111C231.212 82.9531 231.371 82.8564 231.529 82.8951C231.687 82.9337 231.784 83.0932 231.745 83.2511C231.707 83.4091 231.547 83.5058 231.389 83.4671Z" fill="white"/>
<path d="M169.356 51.9018C169.198 51.8631 169.101 51.7037 169.14 51.5458C169.179 51.3878 169.338 51.2911 169.496 51.3298C169.654 51.3684 169.751 51.5278 169.712 51.6858C169.674 51.8438 169.514 51.9405 169.356 51.9018Z" fill="white"/>
<path d="M125.426 40.5417C125.269 40.503 125.172 40.3436 125.21 40.1857C125.249 40.0277 125.409 39.931 125.567 39.9697C125.724 40.0083 125.821 40.1677 125.783 40.3257C125.744 40.4837 125.584 40.5804 125.426 40.5417Z" fill="white"/>
<path d="M182.37 82.9936C182.212 82.9549 182.115 82.7955 182.154 82.6376C182.192 82.4796 182.352 82.3829 182.51 82.4216C182.668 82.4602 182.765 82.6196 182.726 82.7776C182.687 82.9356 182.528 83.0323 182.37 82.9936Z" fill="white"/>
<path opacity="0.3" d="M202.401 87.8969C202.243 87.8583 202.146 87.6989 202.185 87.5409C202.224 87.3829 202.383 87.2862 202.541 87.3249C202.699 87.3636 202.796 87.523 202.757 87.6809C202.718 87.8389 202.559 87.9356 202.401 87.8969Z" fill="white"/>
<path opacity="0.11" d="M230.207 75.8992C230.049 75.8606 229.952 75.7012 229.991 75.5432C230.029 75.3852 230.189 75.2885 230.347 75.3272C230.505 75.3659 230.601 75.5253 230.563 75.6832C230.524 75.8412 230.365 75.9379 230.207 75.8992Z" fill="white"/>
<path opacity="0.3" d="M162.52 57.509C162.362 57.4703 162.266 57.3109 162.304 57.1529C162.343 56.995 162.502 56.8983 162.66 56.9369C162.818 56.9756 162.915 57.135 162.876 57.293C162.838 57.451 162.678 57.5477 162.52 57.509Z" fill="white"/>
<path opacity="0.3" d="M176.172 87.2395C176.014 87.2008 175.917 87.0414 175.956 86.8834C175.994 86.7254 176.154 86.6287 176.312 86.6674C176.47 86.7061 176.566 86.8655 176.528 87.0235C176.489 87.1814 176.33 87.2781 176.172 87.2395Z" fill="white"/>
<path opacity="0.3" d="M223.09 81.4369C222.932 81.3982 222.835 81.2388 222.874 81.0808C222.912 80.9228 223.072 80.8261 223.23 80.8648C223.388 80.9035 223.484 81.0629 223.446 81.2208C223.407 81.3788 223.248 81.4755 223.09 81.4369Z" fill="white"/>
<path opacity="0.3" d="M45.3093 37.0046C45.1513 36.9659 45.0546 36.8065 45.0933 36.6485C45.1319 36.4906 45.2913 36.3939 45.4493 36.4325C45.6073 36.4712 45.704 36.6306 45.6653 36.7886C45.6267 36.9466 45.4672 37.0433 45.3093 37.0046Z" fill="white"/>
<path opacity="0.11" d="M94.2526 36.5498C94.0947 36.5111 93.998 36.3517 94.0366 36.1937C94.0753 36.0357 94.2347 35.939 94.3927 35.9777C94.5507 36.0164 94.6474 36.1758 94.6087 36.3338C94.57 36.4917 94.4106 36.5884 94.2526 36.5498Z" fill="white"/>
<path opacity="0.11" d="M50.0222 51.1996C49.8642 51.1609 49.7675 51.0015 49.8062 50.8435C49.8449 50.6855 50.0043 50.5888 50.1622 50.6275C50.3202 50.6662 50.4169 50.8256 50.3782 50.9835C50.3395 51.1415 50.1802 51.2382 50.0222 51.1996Z" fill="white"/>
<path opacity="0.3" d="M121.792 71.5002C121.475 71.4228 121.282 71.1037 121.359 70.7875C121.437 70.4712 121.756 70.2777 122.072 70.3551C122.388 70.4325 122.582 70.7516 122.504 71.0678C122.427 71.384 122.108 71.5776 121.792 71.5002Z" fill="white"/>
<path opacity="0.11" d="M107.008 58.7824C106.692 58.705 106.499 58.3859 106.576 58.0697C106.653 57.7535 106.973 57.5599 107.289 57.6373C107.605 57.7147 107.799 58.0338 107.721 58.35C107.644 58.6662 107.325 58.8598 107.008 58.7824Z" fill="white"/>
<path d="M109.602 48.8022C109.365 48.7442 109.22 48.5049 109.278 48.2678C109.336 48.0307 109.575 47.8856 109.812 47.9436C110.049 48.0017 110.194 48.2409 110.136 48.478C110.078 48.7151 109.839 48.8602 109.602 48.8022Z" fill="white"/>
<path d="M121.99 83.683C121.753 83.625 121.608 83.3858 121.666 83.1487C121.724 82.9116 121.964 82.7664 122.201 82.8245C122.438 82.8825 122.583 83.1218 122.525 83.3589C122.467 83.5959 122.228 83.7411 121.99 83.683Z" fill="white"/>
<path d="M25.5851 66.1479C25.3481 66.0899 25.2029 65.8506 25.261 65.6135C25.319 65.3764 25.5582 65.2313 25.7953 65.2893C26.0324 65.3474 26.1776 65.5866 26.1195 65.8237C26.0615 66.0608 25.8222 66.2059 25.5851 66.1479Z" fill="white"/>
<path d="M121.936 57.8878C121.699 57.8297 121.554 57.5905 121.612 57.3534C121.67 57.1163 121.909 56.9711 122.146 57.0292C122.383 57.0872 122.528 57.3265 122.47 57.5636C122.412 57.8007 122.173 57.9458 121.936 57.8878Z" fill="white"/>
<path d="M166.545 91.2524C166.308 91.1943 166.163 90.9551 166.221 90.718C166.279 90.4809 166.518 90.3358 166.755 90.3938C166.992 90.4519 167.138 90.6911 167.079 90.9282C167.021 91.1653 166.782 91.3104 166.545 91.2524Z" fill="white"/>
<path d="M91.4191 85.9047C91.182 85.8467 91.0369 85.6074 91.0949 85.3703C91.153 85.1333 91.3922 84.9881 91.6293 85.0462C91.8664 85.1042 92.0115 85.3434 91.9535 85.5805C91.8955 85.8176 91.6562 85.9628 91.4191 85.9047Z" fill="white"/>
<path d="M20.3517 47.8804C20.1147 47.8224 19.9695 47.5832 20.0276 47.3461C20.0856 47.109 20.3248 46.9638 20.5619 47.0219C20.799 47.0799 20.9442 47.3192 20.8861 47.5562C20.8281 47.7933 20.5888 47.9385 20.3517 47.8804Z" fill="white"/>
<path d="M17.3351 30.461C17.0981 30.403 16.9529 30.1637 17.011 29.9266C17.069 29.6895 17.3082 29.5444 17.5453 29.6024C17.7824 29.6605 17.9276 29.8997 17.8695 30.1368C17.8115 30.3739 17.5722 30.519 17.3351 30.461Z" fill="white"/>
<path opacity="0.3" d="M85.9264 43.3068C85.6102 43.2294 85.4166 42.9103 85.494 42.5941C85.5714 42.2779 85.8905 42.0843 86.2067 42.1617C86.5229 42.2391 86.7165 42.5582 86.6391 42.8744C86.5617 43.1906 86.2426 43.3842 85.9264 43.3068Z" fill="white"/>
<path d="M90.8991 22.9913C90.5829 22.9138 90.3893 22.5948 90.4667 22.2785C90.5441 21.9623 90.8632 21.7688 91.1794 21.8462C91.4956 21.9236 91.6892 22.2427 91.6118 22.5589C91.5344 22.8751 91.2153 23.0687 90.8991 22.9913Z" fill="white"/>
<path d="M69.6447 45.996C69.4076 45.938 69.2625 45.6987 69.3205 45.4617C69.3786 45.2246 69.6178 45.0794 69.8549 45.1375C70.092 45.1955 70.2371 45.4348 70.1791 45.6718C70.121 45.9089 69.8818 46.0541 69.6447 45.996Z" fill="white"/>
<path opacity="0.3" d="M58.4977 31.4389C58.1815 31.3615 57.9879 31.0424 58.0653 30.7262C58.1428 30.41 58.4618 30.2164 58.778 30.2938C59.0943 30.3712 59.2878 30.6903 59.2104 31.0065C59.133 31.3227 58.8139 31.5163 58.4977 31.4389Z" fill="white"/>
<path opacity="0.3" d="M25.193 44.821C24.8768 44.7436 24.6832 44.4245 24.7607 44.1083C24.8381 43.7921 25.1572 43.5985 25.4734 43.6759C25.7896 43.7533 25.9831 44.0724 25.9057 44.3886C25.8283 44.7048 25.5092 44.8984 25.193 44.821Z" fill="white"/>
<path opacity="0.3" d="M58.5348 53.5887C58.2186 53.5113 58.025 53.1922 58.1025 52.876C58.1799 52.5598 58.4989 52.3662 58.8152 52.4436C59.1314 52.521 59.3249 52.8401 59.2475 53.1563C59.1701 53.4725 58.851 53.6661 58.5348 53.5887Z" fill="white"/>
<path opacity="0.3" d="M248.636 88.5995C248.32 88.5221 248.127 88.203 248.204 87.8868C248.281 87.5706 248.6 87.377 248.917 87.4544C249.233 87.5318 249.427 87.8509 249.349 88.1671C249.272 88.4834 248.953 88.6769 248.636 88.5995Z" fill="white"/>
<path opacity="0.11" d="M39.028 39.1081C38.7118 39.0307 38.5182 38.7116 38.5956 38.3954C38.673 38.0792 38.9921 37.8856 39.3083 37.963C39.6245 38.0404 39.8181 38.3595 39.7407 38.6757C39.6633 38.9919 39.3442 39.1855 39.028 39.1081Z" fill="white"/>
<path opacity="0.3" d="M210.096 68.8522C209.78 68.7748 209.587 68.4557 209.664 68.1395C209.741 67.8233 210.06 67.6297 210.377 67.7071C210.693 67.7845 210.886 68.1036 210.809 68.4198C210.732 68.736 210.413 68.9296 210.096 68.8522Z" fill="white"/>
<path opacity="0.11" d="M219.224 65.0207C218.908 64.9433 218.714 64.6242 218.792 64.308C218.869 63.9918 219.188 63.7982 219.505 63.8756C219.821 63.953 220.014 64.2721 219.937 64.5883C219.86 64.9045 219.54 65.0981 219.224 65.0207Z" fill="white"/>
<path opacity="0.3" d="M217.028 83.8947C216.712 83.8173 216.518 83.4982 216.596 83.182C216.673 82.8658 216.992 82.6722 217.308 82.7496C217.625 82.827 217.818 83.1461 217.741 83.4623C217.663 83.7785 217.344 83.9721 217.028 83.8947Z" fill="white"/>
<path d="M199.215 79.2302C198.978 79.1721 198.833 78.9329 198.891 78.6958C198.949 78.4587 199.188 78.3135 199.425 78.3716C199.662 78.4296 199.807 78.6689 199.749 78.906C199.691 79.1431 199.452 79.2882 199.215 79.2302Z" fill="white"/>
</g>
<rect opacity="0.4" x="-196.502" y="-57.0154" width="722.392" height="300.997" fill="url(#paint1_radial_93_160)"/>
</g>
<mask id="mask0_93_160" style="mask-type:alpha" maskUnits="userSpaceOnUse" x="-197" y="-57" width="723" height="301">
<rect x="-196.502" y="-57" width="722.392" height="300.997" fill="url(#paint2_radial_93_160)"/>
</mask>
<g mask="url(#mask0_93_160)">
</g>
</g>
</g>
<rect x="1.5" y="1.05457" width="303.891" height="91.9454" rx="45.9727" stroke="url(#paint3_linear_93_160)" stroke-width="2"/>
</g>
<defs>
<filter id="filter0_b_93_160" x="-93.1364" y="-93.5818" width="493.163" height="281.218" filterUnits="userSpaceOnUse" color-interpolation-filters="sRGB">
<feFlood flood-opacity="0" result="BackgroundImageFix"/>
<feGaussianBlur in="BackgroundImageFix" stdDeviation="46.8182"/>
<feComposite in2="SourceAlpha" operator="in" result="effect1_backgroundBlur_93_160"/>
<feBlend mode="normal" in="SourceGraphic" in2="effect1_backgroundBlur_93_160" result="shape"/>
</filter>
<radialGradient id="paint0_radial_93_160" cx="0" cy="0" r="1" gradientUnits="userSpaceOnUse" gradientTransform="translate(-21.3287 153.258) rotate(-24.8767) scale(263.959 330.36)">
<stop stop-color="#F8744C"/>
<stop offset="1" stop-color="#31160B" stop-opacity="0"/>
</radialGradient>
<radialGradient id="paint1_radial_93_160" cx="0" cy="0" r="1" gradientUnits="userSpaceOnUse" gradientTransform="translate(164.694 93.4829) scale(361.196 150.498)">
<stop stop-color="#AB64F1" stop-opacity="0.5"/>
<stop offset="0.653203" stop-color="#2A0845" stop-opacity="0"/>
</radialGradient>
<radialGradient id="paint2_radial_93_160" cx="0" cy="0" r="1" gradientUnits="userSpaceOnUse" gradientTransform="translate(164.694 93.4983) scale(391.296 391.296)">
<stop/>
<stop offset="0.8" stop-opacity="0"/>
</radialGradient>
<linearGradient id="paint3_linear_93_160" x1="77.7409" y1="32.2369" x2="93.9511" y2="116.817" gradientUnits="userSpaceOnUse">
<stop stop-color="#F8744C"/>
<stop offset="1" stop-color="white" stop-opacity="0"/>
</linearGradient>
<clipPath id="clip0_93_160">
<rect x="0.5" y="0.0545654" width="305.891" height="93.9454" rx="46.9727" fill="white"/>
</clipPath>
<clipPath id="clip1_93_160">
<rect width="495.641" height="151" fill="white" transform="translate(-93.6611 -57)"/>
</clipPath>
<clipPath id="clip2_93_160">
<rect width="722.392" height="300.997" fill="white" transform="translate(-196.502 -57)"/>
</clipPath>
<clipPath id="clip3_93_160">
<rect width="437.449" height="366.714" fill="white" transform="matrix(-0.944226 0.329297 0.329297 0.944226 404.17 -127.734)"/>
</clipPath>
</defs>
</svg>
