<svg width="196" height="35" viewBox="0 0 196 35" fill="none" xmlns="http://www.w3.org/2000/svg">
<path d="M46.323 6.90527H40.7646C40.1297 6.90527 39.615 7.41999 39.615 8.05492V13.6133C39.615 14.2482 40.1297 14.763 40.7646 14.763H46.323C46.958 14.763 47.4727 14.2482 47.4727 13.6133V8.05492C47.4727 7.41999 46.958 6.90527 46.323 6.90527Z" fill="white"/>
<path d="M52.2668 0.961426H48.6223C47.9874 0.961426 47.4727 1.47614 47.4727 2.11108V5.75536C47.4727 6.39029 47.9874 6.90501 48.6223 6.90501H52.2668C52.9017 6.90501 53.4164 6.39029 53.4164 5.75536V2.11108C53.4164 1.47614 52.9017 0.961426 52.2668 0.961426Z" fill="url(#paint0_linear_1_956)"/>
<path d="M52.1659 8.91992H50.6371C50.0021 8.91992 49.4874 9.43464 49.4874 10.0696V11.5983C49.4874 12.2333 50.0021 12.748 50.6371 12.748H52.1659C52.8008 12.748 53.3156 12.2333 53.3156 11.5983V10.0696C53.3156 9.43464 52.8008 8.91992 52.1659 8.91992Z" fill="#F8744C"/>
<path d="M52.1659 8.91992H50.6371C50.0021 8.91992 49.4874 9.43464 49.4874 10.0696V11.5983C49.4874 12.2333 50.0021 12.748 50.6371 12.748H52.1659C52.8008 12.748 53.3156 12.2333 53.3156 11.5983V10.0696C53.3156 9.43464 52.8008 8.91992 52.1659 8.91992Z" fill="url(#paint1_linear_1_956)"/>
<path d="M48.2873 19.3467H46.7585C46.1236 19.3467 45.6089 19.8614 45.6089 20.4963V22.0251C45.6089 22.6601 46.1236 23.1748 46.7585 23.1748H48.2873C48.9223 23.1748 49.437 22.6601 49.437 22.0251V20.4963C49.437 19.8614 48.9223 19.3467 48.2873 19.3467Z" fill="#F8744C"/>
<path d="M48.2873 19.3467H46.7585C46.1236 19.3467 45.6089 19.8614 45.6089 20.4963V22.0251C45.6089 22.6601 46.1236 23.1748 46.7585 23.1748H48.2873C48.9223 23.1748 49.437 22.6601 49.437 22.0251V20.4963C49.437 19.8614 48.9223 19.3467 48.2873 19.3467Z" fill="url(#paint2_linear_1_956)"/>
<path d="M50.6548 16.9795H50.5867C49.9517 16.9795 49.437 17.4942 49.437 18.1291V18.1972C49.437 18.8322 49.9517 19.3469 50.5867 19.3469H50.6548C51.2897 19.3469 51.8044 18.8322 51.8044 18.1972V18.1291C51.8044 17.4942 51.2897 16.9795 50.6548 16.9795Z" fill="white"/>
<path d="M20.6737 21.1715C20.6737 21.8252 21.2037 22.3552 21.8574 22.3552C22.5111 22.3552 23.0411 21.8252 23.0411 21.1715C23.0411 20.5177 22.5111 19.9878 21.8574 19.9878C21.2037 19.9878 20.6737 20.5177 20.6737 21.1715Z" fill="white"/>
<path d="M20.6737 13.0094C20.6737 13.6631 21.2037 14.1931 21.8574 14.1931C22.5111 14.1931 23.0411 13.6631 23.0411 13.0094C23.0411 12.3556 22.5111 11.8257 21.8574 11.8257C21.2037 11.8257 20.6737 12.3556 20.6737 13.0094Z" fill="white"/>
<path d="M17.9146 17.148C17.9146 17.8018 18.4445 18.3317 19.0983 18.3317C19.752 18.3317 20.282 17.8018 20.282 17.148C20.282 16.4943 19.752 15.9644 19.0983 15.9644C18.4445 15.9644 17.9146 16.4943 17.9146 17.148Z" fill="white"/>
<path d="M43.603 1.18848H43.5349C42.9 1.18848 42.3853 1.70319 42.3853 2.33813V2.4062C42.3853 3.04114 42.9 3.55585 43.5349 3.55585H43.603C44.238 3.55585 44.7527 3.04114 44.7527 2.4062V2.33813C44.7527 1.70319 44.238 1.18848 43.603 1.18848Z" fill="#F8744C"/>
<path d="M43.603 1.18848H43.5349C42.9 1.18848 42.3853 1.70319 42.3853 2.33813V2.4062C42.3853 3.04114 42.9 3.55585 43.5349 3.55585H43.603C44.238 3.55585 44.7527 3.04114 44.7527 2.4062V2.33813C44.7527 1.70319 44.238 1.18848 43.603 1.18848Z" fill="url(#paint3_linear_1_956)"/>
<path d="M57.1024 0.936523H57.0343C56.3994 0.936523 55.8846 1.45124 55.8846 2.08617V2.15425C55.8846 2.78918 56.3994 3.3039 57.0343 3.3039H57.1024C57.7374 3.3039 58.2521 2.78918 58.2521 2.15425V2.08617C58.2521 1.45124 57.7374 0.936523 57.1024 0.936523Z" fill="white"/>
<path d="M56.8504 14.1836H56.7823C56.1474 14.1836 55.6327 14.6983 55.6327 15.3332V15.4013C55.6327 16.0363 56.1474 16.551 56.7823 16.551H56.8504C57.4854 16.551 58.0001 16.0363 58.0001 15.4013V15.3332C58.0001 14.6983 57.4854 14.1836 56.8504 14.1836Z" fill="#F8744C"/>
<path d="M56.8504 14.1836H56.7823C56.1474 14.1836 55.6327 14.6983 55.6327 15.3332V15.4013C55.6327 16.0363 56.1474 16.551 56.7823 16.551H56.8504C57.4854 16.551 58.0001 16.0363 58.0001 15.4013V15.3332C58.0001 14.6983 57.4854 14.1836 56.8504 14.1836Z" fill="url(#paint4_linear_1_956)"/>
<path d="M57.8074 6.35107H56.2787C55.6437 6.35107 55.129 6.86579 55.129 7.50072V9.02949C55.129 9.66443 55.6437 10.1791 56.2787 10.1791H57.8074C58.4424 10.1791 58.9571 9.66443 58.9571 9.02949V7.50073C58.9571 6.86579 58.4424 6.35107 57.8074 6.35107Z" fill="white"/>
<path d="M43.8823 24.5845H39.9819C39.347 24.5845 38.8323 25.0992 38.8323 25.7341V29.6343C38.8323 30.2692 39.347 30.784 39.9819 30.784H43.8823C44.5172 30.784 45.032 30.2692 45.032 29.6343V25.7341C45.032 25.0992 44.5172 24.5845 43.8823 24.5845Z" fill="white"/>
<path d="M50.0775 26.9561H48.5487C47.9138 26.9561 47.399 27.4708 47.399 28.1057V29.6345C47.399 30.2694 47.9138 30.7842 48.5487 30.7842H50.0775C50.7124 30.7842 51.2272 30.2694 51.2272 29.6345V28.1057C51.2272 27.4708 50.7124 26.9561 50.0775 26.9561Z" fill="#F8744C"/>
<path d="M50.0775 26.9561H48.5487C47.9138 26.9561 47.399 27.4708 47.399 28.1057V29.6345C47.399 30.2694 47.9138 30.7842 48.5487 30.7842H50.0775C50.7124 30.7842 51.2272 30.2694 51.2272 29.6345V28.1057C51.2272 27.4708 50.7124 26.9561 50.0775 26.9561Z" fill="url(#paint5_linear_1_956)"/>
<circle cx="32.3427" cy="17.0566" r="10.2894" stroke="white" stroke-width="1.14965"/>
<path fill-rule="evenodd" clip-rule="evenodd" d="M31.3409 0.000470858C31.9756 -0.0178106 32.4906 0.498636 32.4906 1.13357V3.99329C32.4906 4.62823 31.9805 5.1415 31.3473 5.18849C24.1658 5.72139 9.52211 10.8649 9.52211 17.1311C9.52211 23.3974 24.1658 28.5408 31.3473 29.0737C31.9805 29.1207 32.4906 29.634 32.4906 30.2689V33.1288C32.4906 33.7638 31.9756 34.2802 31.3409 34.2619C18.9753 33.9057 7.46488 27.8187 0.210492 17.7817C-0.0701669 17.3934 -0.0701637 16.8688 0.2105 16.4805C7.46492 6.44366 18.9753 0.356656 31.3409 0.000470858ZM36.7894 10.9778C35.5719 10.1255 34.0896 9.62508 32.4906 9.62508C28.3451 9.62508 24.9845 12.9857 24.9845 17.1311C24.9845 21.2766 28.3451 24.6372 32.4906 24.6372C36.636 24.6372 39.9966 21.2766 39.9966 17.1311C39.9966 16.5933 39.9399 16.0687 39.8323 15.5629C39.7292 15.0785 39.2807 14.7629 38.7855 14.7629H38.375C37.7401 14.7629 37.2253 14.2482 37.2253 13.6132V11.8537C37.2253 11.5079 37.0727 11.1762 36.7894 10.9778ZM31.5954 12.6302C31.5954 12.3762 31.3895 12.1703 31.1356 12.1703C30.8816 12.1703 30.6757 12.3762 30.6757 12.6302V13.9009C30.6757 14.2583 30.4942 14.5847 30.2481 14.8438C29.9835 15.1225 29.6369 15.3318 29.2527 15.3318H27.974C27.72 15.3318 27.5142 15.5377 27.5142 15.7917C27.5142 16.0457 27.72 16.2516 27.974 16.2516H28.7938C29.1496 16.2516 29.4111 16.5855 29.4111 16.9414C29.4111 17.404 29.0809 17.8611 28.6182 17.8611H27.974C27.72 17.8611 27.5142 18.067 27.5142 18.3209C27.5142 18.5749 27.72 18.7808 27.974 18.7808H29.5817C29.8634 18.7808 30.123 18.9188 30.3241 19.1161C30.5304 19.3186 30.6757 19.584 30.6757 19.8731V21.4825C30.6757 21.7365 30.8816 21.9423 31.1356 21.9423C31.3895 21.9423 31.5954 21.7365 31.5954 21.4825V20.7383C31.5954 20.3017 32.0211 19.9879 32.4577 19.9879C32.8408 19.9879 33.2049 20.2674 33.2049 20.6505V21.4825C33.2049 21.7365 33.4108 21.9423 33.6648 21.9423C33.9188 21.9423 34.1246 21.7365 34.1246 21.4825V20.0375C34.1246 19.697 34.3051 19.3878 34.5523 19.1536C34.7817 18.9364 35.072 18.7808 35.3879 18.7808H36.8263C37.0803 18.7808 37.2862 18.5749 37.2862 18.3209C37.2862 18.067 37.0803 17.8611 36.8263 17.8611H36.2971C35.8345 17.8611 35.5042 17.404 35.5042 16.9414C35.5042 16.5855 35.7657 16.2516 36.1215 16.2516H36.8263C37.0803 16.2516 37.2862 16.0457 37.2862 15.7917C37.2862 15.5377 37.0803 15.3318 36.8263 15.3318H35.6829C35.286 15.3318 34.9286 15.1154 34.6534 14.8294C34.6464 14.8221 34.6393 14.8148 34.6321 14.8075C34.6236 14.7988 34.615 14.7902 34.6064 14.7816C34.3315 14.5081 34.1246 14.1573 34.1246 13.7696V12.6302C34.1246 12.3762 33.9188 12.1703 33.6648 12.1703C33.4108 12.1703 33.2049 12.3762 33.2049 12.6302V13.2322C33.2049 13.6154 32.8408 13.8948 32.4577 13.8948C32.0211 13.8948 31.5954 13.581 31.5954 13.1445V12.6302Z" fill="white"/>
<path d="M84.2374 29.775H75.5212L68.2699 4.13916H71.6758L78.0115 26.7353H81.8203L88.156 4.13916H91.4887L84.2374 29.775Z" fill="white"/>
<path d="M95.2519 29.775H92.2122V11.3172H95.2519V29.775ZM93.7138 8.49726C93.1522 8.49726 92.6883 8.31414 92.3221 7.94792C91.9559 7.55728 91.7728 7.09339 91.7728 6.55626C91.7728 5.99471 91.9559 5.53082 92.3221 5.16459C92.6883 4.79837 93.1522 4.61526 93.7138 4.61526C94.2509 4.61526 94.7026 4.81058 95.0688 5.20122C95.4595 5.56745 95.6548 6.01912 95.6548 6.55626C95.6548 7.09339 95.4595 7.55728 95.0688 7.94792C94.7026 8.31414 94.2509 8.49726 93.7138 8.49726Z" fill="white"/>
<path d="M104.857 30.1413C103.123 30.1413 101.646 29.8727 100.425 29.3356C99.2044 28.7984 98.2766 28.0782 97.6418 27.1748C97.0315 26.2715 96.7019 25.2582 96.653 24.1351H99.8026C99.9247 25.1362 100.401 25.9296 101.231 26.5156C102.061 27.0772 103.27 27.3579 104.857 27.3579C106.492 27.3579 107.689 27.1138 108.446 26.6255C109.202 26.1128 109.581 25.4413 109.581 24.6112C109.581 23.7811 109.178 23.1829 108.372 22.8167C107.567 22.4261 106.334 22.0598 104.673 21.718C103.135 21.3762 101.878 21.0344 100.901 20.6926C99.9247 20.3508 99.0945 19.8137 98.4109 19.0812C97.7273 18.3488 97.3855 17.3477 97.3855 16.0781C97.3855 15.1504 97.6663 14.2958 98.2278 13.5146C98.8138 12.7333 99.6561 12.1107 100.755 11.6468C101.878 11.1829 103.196 10.951 104.71 10.951C106.395 10.951 107.811 11.2318 108.958 11.7933C110.106 12.3548 110.96 13.0629 111.522 13.9174C112.083 14.7475 112.376 15.6021 112.401 16.481H109.251C108.983 14.6499 107.457 13.7343 104.673 13.7343C103.282 13.7343 102.244 13.9662 101.56 14.4301C100.901 14.894 100.572 15.48 100.572 16.188C100.572 16.7496 100.779 17.2135 101.194 17.5797C101.634 17.9215 102.171 18.1901 102.806 18.3854C103.44 18.5807 104.332 18.8004 105.479 19.0446C106.993 19.362 108.238 19.6916 109.215 20.0334C110.191 20.3752 111.021 20.9123 111.705 21.6448C112.413 22.3772 112.767 23.3661 112.767 24.6112C112.767 26.2226 112.083 27.5532 110.716 28.6031C109.349 29.6285 107.396 30.1413 104.857 30.1413Z" fill="white"/>
<path d="M117.413 29.775H114.373V11.3172H117.413V29.775ZM115.875 8.49726C115.313 8.49726 114.849 8.31414 114.483 7.94792C114.117 7.55728 113.934 7.09339 113.934 6.55626C113.934 5.99471 114.117 5.53082 114.483 5.16459C114.849 4.79837 115.313 4.61526 115.875 4.61526C116.412 4.61526 116.864 4.81058 117.23 5.20122C117.62 5.56745 117.816 6.01912 117.816 6.55626C117.816 7.09339 117.62 7.55728 117.23 7.94792C116.864 8.31414 116.412 8.49726 115.875 8.49726Z" fill="white"/>
<path d="M128.629 30.1413C126.847 30.1413 125.235 29.7262 123.795 28.8961C122.379 28.066 121.256 26.9307 120.425 25.4902C119.62 24.0253 119.217 22.3772 119.217 20.5461C119.217 18.715 119.62 17.0792 120.425 15.6387C121.256 14.1738 122.379 13.0263 123.795 12.1961C125.235 11.366 126.847 10.951 128.629 10.951C130.436 10.951 132.047 11.366 133.463 12.1961C134.904 13.0018 136.027 14.1371 136.832 15.6021C137.638 17.067 138.041 18.715 138.041 20.5461C138.041 22.3772 137.638 24.0253 136.832 25.4902C136.027 26.9551 134.904 28.1026 133.463 28.9327C132.047 29.7384 130.436 30.1413 128.629 30.1413ZM128.629 27.3579C130.533 27.3579 132.047 26.7353 133.17 25.4902C134.318 24.245 134.891 22.597 134.891 20.5461C134.891 18.4952 134.318 16.8472 133.17 15.6021C132.047 14.3569 130.533 13.7343 128.629 13.7343C126.749 13.7343 125.235 14.3569 124.088 15.6021C122.965 16.8472 122.403 18.4952 122.403 20.5461C122.403 22.597 122.965 24.245 124.088 25.4902C125.235 26.7353 126.749 27.3579 128.629 27.3579Z" fill="white"/>
<path d="M139.677 29.775V11.3172H142.57V14.2836H142.754C143.364 13.2826 144.218 12.4769 145.317 11.8665C146.416 11.2562 147.685 10.951 149.126 10.951C151.348 10.951 153.081 11.6346 154.326 13.0018C155.596 14.3447 156.231 16.2613 156.231 18.7516V29.775H153.191V19.2643C153.191 17.5064 152.788 16.1514 151.982 15.1992C151.177 14.2226 149.993 13.7343 148.43 13.7343C146.77 13.7343 145.403 14.2836 144.328 15.3823C143.254 16.481 142.717 17.9093 142.717 19.6672V29.775H139.677Z" fill="white"/>
<path d="M185.738 29.775H182.478L182.002 22.304H169.441L165.668 29.775H162.006L175.264 4.13916H183.943L185.738 29.775ZM177.131 7.17884L171.052 19.1545H181.782L181.013 7.17884H177.131Z" fill="white"/>
<path d="M190.58 29.775H187.284L192.704 4.13916H196L190.58 29.775Z" fill="white"/>
<defs>
<linearGradient id="paint0_linear_1_956" x1="50.4445" y1="0.961426" x2="58.5748" y2="14.428" gradientUnits="userSpaceOnUse">
<stop stop-color="#F8744C"/>
<stop offset="1" stop-color="#5505FF" stop-opacity="0.65"/>
</linearGradient>
<linearGradient id="paint1_linear_1_956" x1="51.4015" y1="8.91992" x2="56.6379" y2="17.5932" gradientUnits="userSpaceOnUse">
<stop stop-color="#F8744C"/>
<stop offset="1" stop-color="#5505FF" stop-opacity="0.65"/>
</linearGradient>
<linearGradient id="paint2_linear_1_956" x1="47.5229" y1="19.3467" x2="52.7595" y2="28.02" gradientUnits="userSpaceOnUse">
<stop stop-color="#F8744C"/>
<stop offset="1" stop-color="#5505FF" stop-opacity="0.65"/>
</linearGradient>
<linearGradient id="paint3_linear_1_956" x1="43.569" y1="1.18848" x2="46.8073" y2="6.55229" gradientUnits="userSpaceOnUse">
<stop stop-color="#F8744C"/>
<stop offset="1" stop-color="#5505FF" stop-opacity="0.65"/>
</linearGradient>
<linearGradient id="paint4_linear_1_956" x1="56.8164" y1="14.1836" x2="60.0548" y2="19.5474" gradientUnits="userSpaceOnUse">
<stop stop-color="#F8744C"/>
<stop offset="1" stop-color="#5505FF" stop-opacity="0.65"/>
</linearGradient>
<linearGradient id="paint5_linear_1_956" x1="49.3131" y1="26.9561" x2="54.5497" y2="35.6294" gradientUnits="userSpaceOnUse">
<stop stop-color="#F8744C"/>
<stop offset="1" stop-color="#5505FF" stop-opacity="0.65"/>
</linearGradient>
</defs>
</svg>
