<svg width="22" height="22" viewBox="0 0 22 22" fill="none" xmlns="http://www.w3.org/2000/svg">
<path fill-rule="evenodd" clip-rule="evenodd" d="M8.30941 1.244C6.87091 1.92671 5.69402 2.50442 5.69427 2.52792C5.69491 2.58856 9.14671 4.18124 9.26923 4.17736C9.32496 4.17566 9.72925 4.0061 10.1676 3.80062L10.9647 3.42707L12.7058 4.24255L14.1315 3.6589C16.2797 2.77943 16.5028 2.68306 16.4678 2.65068C16.4214 2.60772 15.6509 2.2306 13.5605 1.22791C12.5502 0.743302 11.5696 0.268158 11.3814 0.172012C11.1932 0.0758668 11.0135 -0.00147574 10.9821 2.13737e-05C10.9507 0.00151849 9.74794 0.561313 8.30941 1.244ZM2.00016 4.22062L0.502702 4.92533L0.502702 8.01817C0.502702 9.71925 0.522365 11.111 0.546484 11.111C0.57052 11.111 1.30727 10.82 2.18368 10.4644L3.77714 9.81778L3.77714 6.55772L4.55581 6.94423C5.15585 7.2418 5.75624 7.53876 6.357 7.83512L7.37948 8.33949L7.83446 8.15205C8.11981 8.03431 8.40458 7.91542 8.68878 7.79538C8.90838 7.70221 9.44748 7.48099 9.88672 7.30369C10.326 7.12632 10.7326 6.94796 10.7902 6.90731C10.8668 6.85331 9.9329 6.38312 7.33595 5.16812C5.37841 4.25226 3.71398 3.50584 3.63722 3.50942C3.56046 3.51299 2.82379 3.833 2.00016 4.22062ZM16.7377 4.41852C15.7178 4.83799 14.8827 5.19796 14.8817 5.21849C14.8809 5.23899 15.4367 5.54011 16.1171 5.88755C16.7974 6.23506 17.354 6.53796 17.354 6.56077C17.354 6.58353 16.752 6.84928 16.0163 7.15144C15.2805 7.45353 13.4207 8.21874 11.8833 8.85192L6.7321 10.9733C5.43631 11.507 4.2683 11.988 4.13654 12.0424C1.48981 13.134 0.762333 13.4369 0.66243 13.4889C0.56197 13.5412 0.539215 13.8454 0.521334 15.3717L0.5 17.1922L3.17817 18.4355L5.035 17.672C6.05628 17.2521 6.89183 16.8866 6.89183 16.8596C6.89183 16.8328 6.70311 16.7208 6.47255 16.6106C6.24189 16.5004 5.76574 16.2565 5.41433 16.0685C5.06296 15.8804 4.71259 15.7079 4.63566 15.685C4.55877 15.6622 4.49696 15.6223 4.49822 15.5962C4.4995 15.5703 5.31716 15.2164 6.31514 14.8099C8.25351 14.0203 9.73691 13.4117 12.9216 12.0996C14.3456 11.513 15.7699 10.9267 17.1943 10.3409C18.4461 9.82606 19.9017 9.2248 20.4288 9.00475L21.3871 8.60466L21.4299 4.92229L20.0717 4.28715C19.3247 3.93787 18.6861 3.65294 18.6527 3.65398C18.6192 3.65494 17.7575 3.99895 16.7377 4.41852ZM21.0233 11.0609C20.8231 11.15 20.4278 11.3168 20.1448 11.4315C19.8618 11.5462 19.3247 11.767 18.9513 11.9222L18.2724 12.2043L18.257 13.8207C18.2484 14.7098 18.2125 15.4332 18.1771 15.4285C18.0968 15.4176 16.8244 14.8231 15.5455 14.1988C14.6224 13.7482 14.5644 13.7303 14.3475 13.8281C14.2221 13.8847 13.4726 14.191 12.682 14.5088C11.8913 14.8266 11.2186 15.1073 11.187 15.1327C11.1554 15.1581 12.7467 15.9439 14.7233 16.879L18.3169 18.5792L19.8521 17.8557C20.6963 17.4578 21.4142 17.0949 21.4473 17.0492C21.5217 16.9466 21.5153 10.8849 21.4408 10.8931C21.4114 10.8963 21.2234 10.9719 21.0233 11.0609ZM12.5223 18.1758C12.256 18.2801 11.9898 18.3846 11.7236 18.4892C10.9199 18.806 11.0774 18.8165 10.1213 18.3828C9.48446 18.094 9.20996 18.0049 9.09081 18.0481C9.00144 18.0806 8.23226 18.3959 7.3814 18.7487C6.53059 19.1016 5.80495 19.3903 5.76886 19.3903C5.41188 19.3903 6.00534 19.7134 8.29537 20.7658L10.981 22L12.111 21.4917C12.7325 21.2122 13.9861 20.6524 14.8968 20.2478C15.8074 19.843 16.5412 19.5014 16.5274 19.4885C16.5136 19.4757 15.7506 19.1187 14.8318 18.6953L13.1612 17.9254L12.5223 18.1758Z" fill="#F0F0FA"/>
</svg>
