<svg width="126" height="42" viewBox="0 0 126 42" fill="none" xmlns="http://www.w3.org/2000/svg">
<g filter="url(#filter0_b_93_924)">
<rect width="126" height="42" rx="21" fill="white" fill-opacity="0.15"/>
<rect width="126" height="42" rx="21" fill="url(#paint0_radial_93_924)"/>
<rect x="0.5" y="0.5" width="125" height="41" rx="20.5" stroke="url(#paint1_linear_93_924)"/>
<path d="M32.5 25.5C32.5 25.7761 32.7239 26 33 26C33.2761 26 33.5 25.7761 33.5 25.5H32.5ZM33 19.2L33.3536 18.8464C33.1583 18.6512 32.8417 18.6512 32.6464 18.8464L33 19.2ZM35.3464 22.2536C35.5417 22.4488 35.8583 22.4488 36.0536 22.2536C36.2488 22.0583 36.2488 21.7417 36.0536 21.5464L35.3464 22.2536ZM29.9464 21.5464C29.7512 21.7417 29.7512 22.0583 29.9464 22.2536C30.1417 22.4488 30.4583 22.4488 30.6536 22.2536L29.9464 21.5464ZM36.6 17C36.8761 17 37.1 16.7761 37.1 16.5C37.1 16.2239 36.8761 16 36.6 16V17ZM29.4 16C29.1239 16 28.9 16.2239 28.9 16.5C28.9 16.7761 29.1239 17 29.4 17V16ZM25.318 13.318L25.6716 13.6716L25.6716 13.6716L25.318 13.318ZM40.682 13.318L40.3284 13.6716L40.3284 13.6716L40.682 13.318ZM40.682 28.682L40.3284 28.3284L40.3284 28.3284L40.682 28.682ZM25.318 28.682L25.6716 28.3284L25.6716 28.3284L25.318 28.682ZM33.5 25.5V19.2H32.5V25.5H33.5ZM32.6464 19.5536L35.3464 22.2536L36.0536 21.5464L33.3536 18.8464L32.6464 19.5536ZM32.6464 18.8464L29.9464 21.5464L30.6536 22.2536L33.3536 19.5536L32.6464 18.8464ZM24.5 21C24.5 18.8645 24.5011 17.3133 24.6603 16.1289C24.8176 14.9589 25.1209 14.2222 25.6716 13.6716L24.9645 12.9645C24.1971 13.7319 23.8414 14.7148 23.6692 15.9957C23.4989 17.2621 23.5 18.8928 23.5 21H24.5ZM25.6716 13.6716C26.2222 13.1209 26.9589 12.8176 28.1289 12.6603C29.3133 12.5011 30.8645 12.5 33 12.5V11.5C30.8928 11.5 29.2621 11.4989 27.9957 11.6692C26.7148 11.8414 25.7319 12.1971 24.9645 12.9645L25.6716 13.6716ZM33 12.5C35.1354 12.5 36.6867 12.5011 37.8711 12.6603C39.0411 12.8176 39.7778 13.121 40.3284 13.6716L41.0355 12.9645C40.2681 12.1971 39.2852 11.8414 38.0043 11.6692C36.7379 11.4989 35.1072 11.5 33 11.5V12.5ZM40.3284 13.6716C40.879 14.2222 41.1824 14.9589 41.3397 16.1289C41.4989 17.3133 41.5 18.8645 41.5 21H42.5C42.5 18.8928 42.5011 17.2621 42.3308 15.9956C42.1586 14.7148 41.8029 13.7319 41.0355 12.9645L40.3284 13.6716ZM41.5 21C41.5 23.1354 41.4989 24.6867 41.3397 25.8711C41.1824 27.0411 40.879 27.7778 40.3284 28.3284L41.0355 29.0355C41.8029 28.2681 42.1586 27.2852 42.3308 26.0043C42.5011 24.7379 42.5 23.1072 42.5 21H41.5ZM40.3284 28.3284C39.7778 28.879 39.0411 29.1824 37.8711 29.3397C36.6867 29.4989 35.1354 29.5 33 29.5V30.5C35.1072 30.5 36.7379 30.5011 38.0043 30.3308C39.2852 30.1586 40.2681 29.8029 41.0355 29.0355L40.3284 28.3284ZM33 29.5C30.8645 29.5 29.3133 29.4989 28.1289 29.3397C26.9589 29.1824 26.2222 28.879 25.6716 28.3284L24.9645 29.0355C25.7319 29.8029 26.7148 30.1586 27.9956 30.3308C29.2621 30.5011 30.8928 30.5 33 30.5V29.5ZM25.6716 28.3284C25.121 27.7778 24.8176 27.0411 24.6603 25.8711C24.5011 24.6867 24.5 23.1354 24.5 21H23.5C23.5 23.1072 23.4989 24.7379 23.6692 26.0043C23.8414 27.2852 24.1971 28.2681 24.9645 29.0355L25.6716 28.3284ZM36.6 16H29.4V17H36.6V16Z" fill="#F8744C"/>
<path d="M55.05 21.29V15.2H56.31V21.29C56.31 22.1487 56.548 22.83 57.024 23.334C57.5 23.838 58.1253 24.09 58.9 24.09C59.6747 24.09 60.3 23.838 60.776 23.334C61.252 22.83 61.49 22.1487 61.49 21.29V15.2H62.75V21.29C62.75 22.5033 62.3953 23.474 61.686 24.202C60.986 24.9207 60.0573 25.28 58.9 25.28C57.7427 25.28 56.8093 24.9207 56.1 24.202C55.4 23.474 55.05 22.5033 55.05 21.29ZM64.7827 27.66V18H65.9027V19.12H65.9167L66.0567 18.91C66.2154 18.6673 66.5001 18.434 66.9107 18.21C67.3214 17.9767 67.8254 17.86 68.4227 17.86C69.3561 17.86 70.1494 18.21 70.8027 18.91C71.4561 19.6007 71.7827 20.464 71.7827 21.5C71.7827 22.536 71.4561 23.404 70.8027 24.104C70.1494 24.7947 69.3561 25.14 68.4227 25.14C67.8254 25.14 67.3167 25.028 66.8967 24.804C66.4861 24.5707 66.2061 24.328 66.0567 24.076L65.9167 23.88H65.9027V27.66H64.7827ZM66.5747 19.638C66.1267 20.1233 65.9027 20.744 65.9027 21.5C65.9027 22.256 66.1267 22.8767 66.5747 23.362C67.0321 23.8473 67.6014 24.09 68.2827 24.09C68.9641 24.09 69.5287 23.8473 69.9767 23.362C70.4341 22.8767 70.6627 22.256 70.6627 21.5C70.6627 20.744 70.4341 20.1233 69.9767 19.638C69.5287 19.1527 68.9641 18.91 68.2827 18.91C67.6014 18.91 67.0321 19.1527 66.5747 19.638ZM73.3277 25V15.2H74.4477V23.95H76.0577V25H73.3277ZM77.7991 24.104C77.1085 23.4133 76.7631 22.5453 76.7631 21.5C76.7631 20.4547 77.1085 19.5867 77.7991 18.896C78.4898 18.2053 79.3578 17.86 80.4031 17.86C81.4485 17.86 82.3165 18.2053 83.0071 18.896C83.6978 19.5867 84.0431 20.4547 84.0431 21.5C84.0431 22.5453 83.6978 23.4133 83.0071 24.104C82.3165 24.7947 81.4485 25.14 80.4031 25.14C79.3578 25.14 78.4898 24.7947 77.7991 24.104ZM78.5971 19.638C78.1211 20.1233 77.8831 20.744 77.8831 21.5C77.8831 22.256 78.1211 22.8767 78.5971 23.362C79.0731 23.8473 79.6751 24.09 80.4031 24.09C81.1311 24.09 81.7331 23.8473 82.2091 23.362C82.6851 22.8767 82.9231 22.256 82.9231 21.5C82.9231 20.744 82.6851 20.1233 82.2091 19.638C81.7331 19.1527 81.1311 18.91 80.4031 18.91C79.6751 18.91 79.0731 19.1527 78.5971 19.638ZM86.1377 24.104C85.4843 23.404 85.1577 22.536 85.1577 21.5C85.1577 20.464 85.4843 19.6007 86.1377 18.91C86.791 18.21 87.5843 17.86 88.5177 17.86C89.1057 17.86 89.6003 17.972 90.0017 18.196C90.4123 18.42 90.711 18.6627 90.8977 18.924L91.0237 19.134H91.0377V18H92.1577V25H91.0377V23.88H91.0237L90.8977 24.076C90.7297 24.328 90.4403 24.5707 90.0297 24.804C89.619 25.028 89.115 25.14 88.5177 25.14C87.5843 25.14 86.791 24.7947 86.1377 24.104ZM86.9497 19.638C86.5017 20.1233 86.2777 20.744 86.2777 21.5C86.2777 22.256 86.5017 22.8767 86.9497 23.362C87.407 23.8473 87.9763 24.09 88.6577 24.09C89.339 24.09 89.9037 23.8473 90.3517 23.362C90.809 22.8767 91.0377 22.256 91.0377 21.5C91.0377 20.744 90.809 20.1233 90.3517 19.638C89.9037 19.1527 89.339 18.91 88.6577 18.91C87.9763 18.91 87.407 19.1527 86.9497 19.638ZM94.6826 24.104C94.0292 23.404 93.7026 22.536 93.7026 21.5C93.7026 20.464 94.0292 19.6007 94.6826 18.91C95.3359 18.21 96.1292 17.86 97.0626 17.86C97.6506 17.86 98.1499 17.972 98.5606 18.196C98.9712 18.42 99.2652 18.658 99.4426 18.91L99.5686 19.12H99.5826V15.2H100.703V25H99.5826V23.88H99.5686L99.4426 24.076C99.2746 24.328 98.9852 24.5707 98.5746 24.804C98.1639 25.028 97.6599 25.14 97.0626 25.14C96.1292 25.14 95.3359 24.7947 94.6826 24.104ZM95.4946 19.638C95.0466 20.1233 94.8226 20.744 94.8226 21.5C94.8226 22.256 95.0466 22.8767 95.4946 23.362C95.9519 23.8473 96.5212 24.09 97.2026 24.09C97.8839 24.09 98.4486 23.8473 98.8966 23.362C99.3539 22.8767 99.5826 22.256 99.5826 21.5C99.5826 20.744 99.3539 20.1233 98.8966 19.638C98.4486 19.1527 97.8839 18.91 97.2026 18.91C96.5212 18.91 95.9519 19.1527 95.4946 19.638Z" fill="white"/>
</g>
<defs>
<filter id="filter0_b_93_924" x="-50" y="-50" width="226" height="142" filterUnits="userSpaceOnUse" color-interpolation-filters="sRGB">
<feFlood flood-opacity="0" result="BackgroundImageFix"/>
<feGaussianBlur in="BackgroundImageFix" stdDeviation="25"/>
<feComposite in2="SourceAlpha" operator="in" result="effect1_backgroundBlur_93_924"/>
<feBlend mode="normal" in="SourceGraphic" in2="effect1_backgroundBlur_93_924" result="shape"/>
</filter>
<radialGradient id="paint0_radial_93_924" cx="0" cy="0" r="1" gradientUnits="userSpaceOnUse" gradientTransform="translate(-8.9915 68.4923) rotate(-26.7146) scale(110.427 145.421)">
<stop stop-color="#F8744C"/>
<stop offset="1" stop-color="#0B1431" stop-opacity="0"/>
</radialGradient>
<linearGradient id="paint1_linear_93_924" x1="31.8164" y1="14.3877" x2="39.6327" y2="51.964" gradientUnits="userSpaceOnUse">
<stop stop-color="#F8744C"/>
<stop offset="1" stop-color="white" stop-opacity="0"/>
</linearGradient>
</defs>
</svg>
