<svg width="185" height="185" viewBox="0 0 185 185" fill="none" xmlns="http://www.w3.org/2000/svg">
<rect width="185" height="185" rx="25" fill="white"/>
<rect x="1" y="1" width="183" height="183" rx="24" stroke="#FFC300" stroke-opacity="0.1" stroke-width="2"/>
<g filter="url(#filter0_i_10_1067)">
<path d="M89.9888 57.3953C96.5399 53.6723 103.292 51.0838 109.859 49.7776C114.367 48.8809 118.727 48.6005 122.824 48.9364L126.863 41.8746L142.397 57.4086C146.146 61.1342 148.768 65.9209 150.112 71.4955C151.456 77.0701 151.497 83.3234 150.232 89.8984C147.678 103.177 139.959 116.96 128.775 128.215C117.59 139.47 103.856 147.275 90.5936 149.913C84.0267 151.219 77.7733 151.218 72.1903 149.908C66.6074 148.599 61.8043 146.007 58.0552 142.282L41.5174 125.744L49.4268 122.363C49.1174 118.409 49.3742 114.188 50.2199 109.792C52.7746 96.5133 60.4932 82.7304 71.6776 71.4755C77.2155 65.9027 83.4377 61.1182 89.9888 57.3953Z" fill="#FFC300"/>
<path d="M89.9888 57.3953C96.5399 53.6723 103.292 51.0838 109.859 49.7776C114.367 48.8809 118.727 48.6005 122.824 48.9364L126.863 41.8746L142.397 57.4086C146.146 61.1342 148.768 65.9209 150.112 71.4955C151.456 77.0701 151.497 83.3234 150.232 89.8984C147.678 103.177 139.959 116.96 128.775 128.215C117.59 139.47 103.856 147.275 90.5936 149.913C84.0267 151.219 77.7733 151.218 72.1903 149.908C66.6074 148.599 61.8043 146.007 58.0552 142.282L41.5174 125.744L49.4268 122.363C49.1174 118.409 49.3742 114.188 50.2199 109.792C52.7746 96.5133 60.4932 82.7304 71.6776 71.4755C77.2155 65.9027 83.4377 61.1182 89.9888 57.3953Z" fill="url(#paint0_linear_10_1067)" fill-opacity="0.7" style="mix-blend-mode:overlay"/>
</g>
<path d="M122.474 49.7239L123.091 49.7744L123.476 49.1002L126.861 43.1817L141.744 58.0641L141.745 58.065C145.436 61.733 148.017 66.4457 149.34 71.934C150.664 77.4224 150.704 83.579 149.459 90.0523C146.944 103.126 139.344 116.695 128.333 127.776C117.322 138.857 103.8 146.541 90.7426 149.138C84.2773 150.424 78.1206 150.423 72.624 149.134C67.1274 147.845 62.3986 145.293 58.7076 141.625L42.9473 125.865L49.4689 123.078L50.2691 122.736L50.2127 122.015C49.908 118.122 50.1608 113.966 50.9935 109.638C53.5087 96.5649 61.1078 82.9952 72.1192 71.9144C77.5715 66.4277 83.6974 61.7173 90.1471 58.0519C96.5969 54.3866 103.244 51.8381 109.71 50.5521C114.148 49.6693 118.441 49.3932 122.474 49.7239Z" stroke="url(#paint1_linear_10_1067)" stroke-opacity="0.3" stroke-width="1.57738" style="mix-blend-mode:overlay"/>
<path d="M74.215 41.6213C80.7661 37.8983 87.5178 35.3098 94.0847 34.0036C100.652 32.6974 106.905 32.699 112.488 34.0083C118.071 35.3176 122.874 37.909 126.623 41.6346C130.372 45.3602 132.994 50.1469 134.338 55.7215C135.682 61.2961 135.723 67.5494 134.458 74.1244C131.904 87.4032 124.185 101.186 113.001 112.441C101.816 123.696 88.0823 131.501 74.8199 134.139C68.253 135.445 61.9995 135.444 56.4166 134.134C50.8336 132.825 46.0305 130.233 42.2815 126.508C34.7099 118.984 31.8915 107.297 34.4462 94.0181C37.0009 80.7393 44.7194 66.9564 55.9038 55.7016C61.4417 50.1287 67.6639 45.3442 74.215 41.6213Z" fill="white"/>
<g filter="url(#filter1_i_10_1067)">
<path d="M69.6913 85.8036C68.0335 86.1334 66.3167 87.109 64.9186 88.5158C63.5206 89.9227 62.5558 91.6456 62.2364 93.3054C61.9171 94.9653 62.2694 96.4261 63.2159 97.3666C64.1623 98.3072 65.6254 98.6503 67.2832 98.3205C68.104 98.1572 68.948 97.8337 69.7669 97.3683C70.5858 96.9029 71.3635 96.3049 72.0558 95.6083C72.748 94.9117 73.3412 94.1302 73.8014 93.3084C74.2616 92.4866 74.5799 91.6406 74.738 90.8187C74.8961 89.9968 74.891 89.2152 74.7229 88.5183C74.5549 87.8215 74.2272 87.2232 73.7586 86.7575C73.2899 86.2918 72.6895 85.9679 71.9917 85.8042C71.2938 85.6405 70.5121 85.6403 69.6913 85.8036ZM99.6949 79.8355C98.0371 80.1653 96.3204 81.1409 94.9223 82.5477C93.5243 83.9546 92.5595 85.6775 92.2401 87.3373C91.9208 88.9972 92.2731 90.458 93.2195 91.3985C94.166 92.3391 95.629 92.6822 97.2868 92.3524C98.9446 92.0227 100.661 91.047 102.059 89.6402C103.458 88.2333 104.422 86.5104 104.742 84.8506C105.061 83.1908 104.709 81.7299 103.762 80.7894C102.816 79.8489 101.353 79.5057 99.6949 79.8355ZM94.0847 34.0036C87.5178 35.3098 80.7661 37.8983 74.215 41.6213C67.6639 45.3442 61.4417 50.1287 55.9038 55.7016C44.7194 66.9564 37.0009 80.7393 34.4462 94.0181C31.8915 107.297 34.7099 118.984 42.2815 126.508C46.0305 130.233 50.8336 132.825 56.4166 134.134C61.9995 135.444 68.253 135.445 74.8199 134.139C88.0823 131.501 101.816 123.696 113.001 112.441C124.185 101.186 131.904 87.4032 134.458 74.1244C135.723 67.5494 135.682 61.2961 134.338 55.7215C132.994 50.1469 130.372 45.3602 126.623 41.6346C122.874 37.909 118.071 35.3176 112.488 34.0083C106.905 32.699 100.652 32.6974 94.0847 34.0036ZM76.7463 124.125C54.6936 128.512 40.1995 114.109 44.4474 92.0287C44.7267 90.5768 45.0061 89.1248 45.5258 87.6732C58.3387 80.0686 69.5489 68.5455 76.7516 55.6045C80.9059 62.5902 87.7147 67.2279 96.3068 68.9242C104.899 70.6205 114.884 69.2983 124.984 65.1267C125.35 68.4727 125.218 72.1584 124.457 76.1138C120.209 98.1936 98.799 119.739 76.7463 124.125Z" fill="#FFC300"/>
</g>
<path d="M45.3475 87.0281L44.9405 87.2697L44.7905 87.6885C44.2457 89.2102 43.9552 90.7199 43.6803 92.1493L43.6739 92.1826C39.3437 114.69 54.1174 129.371 76.5973 124.9C99.0773 120.428 120.901 98.4675 125.231 75.9599C126.007 71.9259 126.141 68.1686 125.768 64.7595L125.696 64.1007L124.954 64.4071C115.011 68.514 105.181 69.8157 96.7217 68.1457C88.2628 66.4757 81.5596 61.91 77.4698 55.0326L76.8792 54.0395L76.0925 55.4531C69.0004 68.1951 57.9622 79.5412 45.3475 87.0281ZM65.3603 88.9547C66.5853 87.7219 68.0896 86.867 69.5423 86.5781C70.2615 86.435 70.9465 86.4352 71.558 86.5786C72.1695 86.722 72.6956 87.0059 73.1062 87.4139C73.5169 87.822 73.804 88.3463 73.9513 88.9569C74.0985 89.5675 74.103 90.2524 73.9644 90.9726C73.8259 91.6927 73.547 92.434 73.1438 93.1541C72.7405 93.8742 72.2207 94.559 71.6142 95.1694C71.0076 95.7798 70.3261 96.3039 69.6085 96.7117C68.891 97.1194 68.1514 97.403 67.4322 97.546C65.9795 97.835 64.6975 97.5343 63.8682 96.7102C63.0389 95.8861 62.7302 94.606 63.01 93.1515C63.2898 91.6971 64.1352 90.1875 65.3603 88.9547ZM95.3639 82.9866C96.589 81.7538 98.0933 80.8989 99.5459 80.61C100.999 80.321 102.281 80.6217 103.11 81.4458C103.939 82.2699 104.248 83.55 103.968 85.0045C103.688 86.4589 102.843 87.9686 101.618 89.2013C100.393 90.4341 98.8885 91.289 97.4358 91.5779C95.9832 91.8669 94.7012 91.5662 93.8719 90.7421C93.0426 89.918 92.7338 88.6379 93.0137 87.1834C93.2935 85.729 94.1389 84.2194 95.3639 82.9866ZM74.3734 42.2779C80.8231 38.6126 87.4704 36.0641 93.9357 34.7781C100.401 33.4921 106.558 33.4936 112.054 34.7827C117.551 36.0718 122.28 38.6231 125.971 42.291C129.662 45.959 132.243 50.6717 133.566 56.16C134.89 61.6484 134.93 67.805 133.685 74.2783C131.17 87.3516 123.571 100.921 112.559 112.002C101.548 123.083 88.0261 130.767 74.9689 133.364C68.5035 134.65 62.3468 134.649 56.8502 133.36C51.3537 132.071 46.6248 129.519 42.9338 125.851C35.4794 118.444 32.7045 106.938 35.2197 93.8642C37.7349 80.7909 45.334 67.2212 56.3454 56.1404C61.7977 50.6537 67.9236 45.9433 74.3734 42.2779Z" stroke="url(#paint2_linear_10_1067)" stroke-opacity="0.3" stroke-width="1.57738" style="mix-blend-mode:overlay"/>
<defs>
<filter id="filter0_i_10_1067" x="40.6315" y="40.1023" width="110.52" height="110.789" filterUnits="userSpaceOnUse" color-interpolation-filters="sRGB">
<feFlood flood-opacity="0" result="BackgroundImageFix"/>
<feBlend mode="normal" in="SourceGraphic" in2="BackgroundImageFix" result="shape"/>
<feColorMatrix in="SourceAlpha" type="matrix" values="0 0 0 0 0 0 0 0 0 0 0 0 0 0 0 0 0 0 127 0" result="hardAlpha"/>
<feOffset dx="-0.88612" dy="-1.77224"/>
<feGaussianBlur stdDeviation="5.75978"/>
<feComposite in2="hardAlpha" operator="arithmetic" k2="-1" k3="1"/>
<feColorMatrix type="matrix" values="0 0 0 0 1 0 0 0 0 1 0 0 0 0 1 0 0 0 1 0"/>
<feBlend mode="overlay" in2="shape" result="effect1_innerShadow_10_1067"/>
</filter>
<filter id="filter1_i_10_1067" x="32.6407" y="31.2529" width="102.737" height="103.865" filterUnits="userSpaceOnUse" color-interpolation-filters="sRGB">
<feFlood flood-opacity="0" result="BackgroundImageFix"/>
<feBlend mode="normal" in="SourceGraphic" in2="BackgroundImageFix" result="shape"/>
<feColorMatrix in="SourceAlpha" type="matrix" values="0 0 0 0 0 0 0 0 0 0 0 0 0 0 0 0 0 0 127 0" result="hardAlpha"/>
<feOffset dx="-0.88612" dy="-1.77224"/>
<feGaussianBlur stdDeviation="5.75978"/>
<feComposite in2="hardAlpha" operator="arithmetic" k2="-1" k3="1"/>
<feColorMatrix type="matrix" values="0 0 0 0 1 0 0 0 0 1 0 0 0 0 1 0 0 0 1 0"/>
<feBlend mode="overlay" in2="shape" result="effect1_innerShadow_10_1067"/>
</filter>
<linearGradient id="paint0_linear_10_1067" x1="191.302" y1="81.1423" x2="133.499" y2="164.009" gradientUnits="userSpaceOnUse">
<stop stop-color="#FFFEF9" stop-opacity="0"/>
<stop offset="0.450632" stop-color="#FFFEF9"/>
<stop offset="1" stop-color="#FFFEF9" stop-opacity="0"/>
</linearGradient>
<linearGradient id="paint1_linear_10_1067" x1="128.268" y1="74.2551" x2="124.669" y2="151.622" gradientUnits="userSpaceOnUse">
<stop stop-color="#FFFEF9"/>
<stop offset="1" stop-color="#FFFEF9" stop-opacity="0"/>
</linearGradient>
<linearGradient id="paint2_linear_10_1067" x1="114.03" y1="51.7973" x2="107.791" y2="136.566" gradientUnits="userSpaceOnUse">
<stop stop-color="#FFFEF9"/>
<stop offset="1" stop-color="#FFFEF9" stop-opacity="0"/>
</linearGradient>
</defs>
</svg>
