<svg width="45" height="50" viewBox="0 0 45 50" fill="none" xmlns="http://www.w3.org/2000/svg">
<path d="M9.66603 50C8.3796 50 7.25916 49.5833 6.30471 48.75C5.35026 47.9167 4.81079 46.8542 4.68629 45.5625L0.0177848 2.75C-0.0652109 2 0.142278 1.35417 0.640252 0.8125C1.13823 0.270833 1.76069 0 2.50766 0H41.7231C42.4701 0 43.0925 0.270833 43.5905 0.8125C44.0885 1.35417 44.296 2 44.213 2.75L39.5445 45.5625C39.42 46.8542 38.8805 47.9167 37.9261 48.75C36.9716 49.5833 35.8512 50 34.5647 50H9.66603Z" fill="white"/>
<path d="M5.24651 5L6.4292 15.9375C8.54559 14.8125 10.735 13.9583 12.9975 13.375C15.2599 12.7917 17.573 12.5 19.9367 12.5C21.1817 12.5 22.4167 12.5833 23.6417 12.75C24.8667 12.9167 26.0801 13.1667 27.2819 13.5C29.3568 14.0833 30.9445 14.4792 32.045 14.6875C33.1455 14.8958 34.3174 15 35.5607 15H37.8638L38.922 5H5.24651ZM9.66603 50C8.3796 50 7.25916 49.5833 6.30471 48.75C5.35026 47.9167 4.81079 46.8542 4.68629 45.5625L0.0177848 2.75C-0.0652109 2 0.142278 1.35417 0.640252 0.8125C1.13823 0.270833 1.76069 0 2.50766 0H41.7231C42.4701 0 43.0925 0.270833 43.5905 0.8125C44.0885 1.35417 44.296 2 44.213 2.75L39.5445 45.5625C39.42 46.8542 38.8805 47.9167 37.9261 48.75C36.9716 49.5833 35.8512 50 34.5647 50H9.66603Z" fill="#0066FF"/>
</svg>
