<svg width="214" height="555" viewBox="0 0 214 555" fill="none" xmlns="http://www.w3.org/2000/svg">
<path d="M87.4579 57.7564C80.55 39.1917 80.4461 20.1973 81.3627 11.7373C81.4556 10.8796 81.9403 10.1215 82.671 9.66297C91.4834 4.13291 99.7552 2.00156 106.999 1.83398C114.244 2.00156 122.516 4.13291 131.328 9.66297C132.059 10.1215 132.543 10.8796 132.636 11.7373C133.553 20.1973 133.449 39.1917 126.541 57.7564C126.452 57.9948 126.333 58.2187 126.19 58.4296C124.573 60.8285 121.747 66.1448 121.564 70.9747C121.552 71.2968 121.607 71.6172 121.709 71.9231L124.25 79.5497C124.584 80.5525 125.415 81.3024 126.446 81.5375C141.145 84.8904 169.009 92.8864 174.924 100.982C181.069 109.394 181.527 132.525 180.988 143.04C180.449 153.554 180.422 177.575 184.627 189.546C189.883 204.508 192.309 227.559 193.522 234.029C194.472 239.098 206.353 276.631 212.541 295.909C212.791 296.688 212.715 297.522 212.301 298.227C209.233 303.446 202.567 312.078 195.948 312.078C190.751 312.078 186.963 300.719 184.773 290.445C184.145 287.496 179.701 286.813 178.145 289.396C177.014 291.273 175.881 292.923 174.924 293.88C171.689 297.115 172.902 282.153 180.988 267.594C187.267 256.291 181.358 244.327 177.308 239.319C177.072 239.026 176.885 238.709 176.762 238.353C173.193 227.978 166.087 205.183 164.816 192.781C163.724 182.13 159.29 167.657 156.232 158.945C155.527 156.938 153.076 156.427 151.883 158.188C148.125 163.733 143.688 174.316 144.196 189.546C145.005 213.809 159.155 259.102 159.155 293.88C159.155 328.658 146.622 357.371 150.665 371.12C154.708 384.87 159.155 415.604 159.155 428.14C159.155 438.042 156.265 483.713 154.765 506.146C154.727 506.713 154.852 507.263 155.124 507.763L173.77 542.079C174.443 543.319 174.167 544.865 173.059 545.738C166.575 550.84 155.35 557.451 150.665 551.886C145.525 545.781 137.034 519.755 133.354 507.252C133.303 507.078 133.271 506.915 133.252 506.736C129.199 468.22 121.069 389.214 120.746 379.208C120.342 366.672 113.873 344.43 112.255 331.894C111.68 327.429 110.815 321.09 109.926 314.68C109.45 311.244 104.549 311.244 104.073 314.68C103.184 321.09 102.319 327.429 101.743 331.894C100.126 344.43 93.6572 366.672 93.2529 379.208C92.9302 389.214 84.7995 468.22 80.7469 506.736C80.728 506.915 80.6958 507.078 80.6448 507.252C76.9647 519.755 68.4742 545.781 63.334 551.886C58.6487 557.451 47.4237 550.84 40.9404 545.738C39.832 544.865 39.5555 543.319 40.2289 542.079L58.8754 507.763C59.1468 507.263 59.2718 506.713 59.2339 506.146C57.7338 483.713 54.8435 438.042 54.8435 428.14C54.8435 415.604 59.2909 384.87 63.334 371.12C67.3771 357.371 54.8435 328.658 54.8435 293.88C54.8435 259.102 68.9944 213.809 69.803 189.546C70.3105 174.316 65.8736 163.733 62.116 158.188C60.923 156.427 58.4715 156.938 57.7672 158.945C54.7091 167.657 50.2753 182.13 49.1832 192.781C47.9114 205.183 40.8062 227.978 37.2364 238.353C37.1141 238.709 36.9271 239.026 36.6907 239.319C32.6409 244.327 26.7324 256.291 33.0107 267.594C41.0968 282.153 42.3099 297.115 39.0753 293.88C38.1184 292.923 36.9846 291.273 35.8537 289.396C34.298 286.813 29.8544 287.496 29.2259 290.445C27.0358 300.719 23.2479 312.078 18.0513 312.078C11.4319 312.078 4.76592 303.446 1.69829 298.227C1.28405 297.522 1.20777 296.688 1.45762 295.909C7.64578 276.631 19.5271 239.098 20.4772 234.029C21.6901 227.559 24.116 204.508 29.372 189.546C33.5768 177.575 33.5498 153.554 33.0107 143.04C32.4716 132.525 32.9298 109.394 39.0753 100.982C44.9903 92.8865 72.8535 84.8904 87.553 81.5375C88.5836 81.3024 89.4145 80.5525 89.7487 79.5497L92.2903 71.9231C92.3923 71.6172 92.4471 71.2968 92.4349 70.9747C92.2523 66.1448 89.4261 60.8285 87.8087 58.4296C87.6664 58.2187 87.5466 57.9948 87.4579 57.7564Z" stroke="#0066FF" stroke-width="2"/>
<mask id="mask0_28_2807" style="mask-type:alpha" maskUnits="userSpaceOnUse" x="1" y="1" width="212" height="553">
<path d="M87.4712 56.9225C80.568 38.3575 80.4643 19.3627 81.3802 10.9029C81.4731 10.0455 81.9575 9.28747 82.6878 8.82884C91.4941 3.29889 99.76 1.16758 106.999 1C114.238 1.16758 122.504 3.29889 131.311 8.82884C132.041 9.28747 132.525 10.0455 132.618 10.9029C133.534 19.3627 133.43 38.3575 126.527 56.9225C126.439 57.1609 126.319 57.3847 126.177 57.5956C124.56 59.9945 121.736 65.311 121.554 70.141C121.541 70.463 121.596 70.7832 121.698 71.0888L124.238 78.7155C124.572 79.7184 125.403 80.4685 126.433 80.7038C141.123 84.0569 168.966 92.0527 174.876 100.148C181.017 108.56 181.475 131.691 180.937 142.206C180.398 152.72 180.371 176.741 184.573 188.712C189.825 203.674 192.249 226.725 193.462 233.195C194.411 238.264 206.284 275.798 212.468 295.076C212.718 295.854 212.641 296.688 212.228 297.393C209.162 302.612 202.501 311.244 195.886 311.244C190.694 311.244 186.909 299.891 184.72 289.618C184.092 286.669 179.647 285.986 178.091 288.569C176.963 290.443 175.831 292.09 174.876 293.046C171.644 296.281 172.856 281.319 180.937 266.76C187.211 255.457 181.306 243.493 177.259 238.485C177.023 238.192 176.836 237.875 176.714 237.52C173.147 227.144 166.046 204.349 164.775 191.947C163.684 181.298 159.254 166.827 156.198 158.114C155.494 156.106 153.042 155.595 151.849 157.357C148.095 162.903 143.663 173.485 144.17 188.712C144.978 212.975 159.119 258.268 159.119 293.046C159.119 327.824 146.594 356.537 150.634 370.286C154.675 384.036 159.119 414.77 159.119 427.306C159.119 437.208 156.231 482.88 154.732 505.313C154.694 505.88 154.819 506.429 155.09 506.928L173.724 541.246C174.397 542.485 174.12 544.031 173.013 544.903C166.534 550.006 155.317 556.617 150.634 551.052C145.498 544.947 137.013 518.921 133.336 506.417C133.285 506.244 133.252 506.081 133.234 505.902C129.184 467.386 121.059 388.38 120.736 378.374C120.332 365.838 113.868 343.596 112.252 331.06C111.677 326.599 110.814 320.265 109.926 313.861C109.45 310.424 104.549 310.424 104.072 313.861C103.185 320.265 102.322 326.599 101.747 331.06C100.131 343.596 93.6663 365.838 93.2622 378.374C92.9398 388.38 84.8146 467.386 80.7649 505.902C80.746 506.081 80.7138 506.244 80.6629 506.417C76.9853 518.921 68.5007 544.947 63.3641 551.052C58.6819 556.617 47.4643 550.006 40.9855 544.903C39.878 544.031 39.6017 542.485 40.2745 541.246L58.9088 506.928C59.1799 506.429 59.3047 505.88 59.2668 505.313C57.7678 482.88 54.8795 437.208 54.8795 427.306C54.8795 414.77 59.3238 384.036 63.3641 370.286C67.4044 356.537 54.8795 327.824 54.8795 293.046C54.8795 258.268 69.0205 212.975 69.8285 188.712C70.3356 173.485 65.9037 162.903 62.1492 157.357C60.9566 155.595 58.5041 156.106 57.8 158.114C54.7441 166.827 50.3143 181.298 49.223 191.947C47.9522 204.349 40.8518 227.144 37.2845 237.52C37.1623 237.875 36.9755 238.192 36.7392 238.485C32.6923 243.493 26.7878 255.457 33.0618 266.76C41.1423 281.319 42.3545 296.281 39.1222 293.046C38.1672 292.09 37.0358 290.443 35.9072 288.569C34.3517 285.986 29.9065 286.669 29.2781 289.618C27.0893 299.891 23.3046 311.244 18.1128 311.244C11.4978 311.244 4.83612 302.612 1.77077 297.393C1.35702 296.688 1.28081 295.854 1.53035 295.076C7.71415 275.798 19.5875 238.264 20.537 233.195C21.7491 226.725 24.1732 203.674 29.4256 188.712C33.6275 176.741 33.6005 152.72 33.0618 142.206C32.5231 131.691 32.981 108.56 39.1222 100.148C45.0329 92.0527 72.8755 84.0569 87.5651 80.7038C88.5957 80.4685 89.4265 79.7184 89.7605 78.7155L92.3004 71.0888C92.4022 70.7832 92.457 70.463 92.4448 70.141C92.2624 65.311 89.4381 59.9945 87.8217 57.5956C87.6796 57.3847 87.5598 57.1609 87.4712 56.9225Z" fill="#D9D9D9"/>
</mask>
<g mask="url(#mask0_28_2807)">
<g filter="url(#filter0_d_28_2807)">
<path d="M68.8207 148.664C55.0466 145.837 33.3901 159.096 22.6847 167.238C21.6162 168.051 20.1493 168.074 19.0061 167.37C5.53883 159.079 -9.26145 163.676 -16.3563 167.782C-17.2258 168.285 -17.7236 169.232 -17.7236 170.237V566.59C-17.7236 568.247 -16.3805 569.59 -14.7236 569.59H221.386C223.043 569.59 224.386 568.247 224.386 566.59V151.664C224.386 150.007 223.043 148.664 221.386 148.664H201.77C201.129 148.664 200.512 148.453 199.973 148.106C194.655 144.678 183.275 141.56 174.319 153.239C162.517 168.629 147.855 158.23 127.471 148.664C107.086 139.097 87.0594 152.407 68.8207 148.664Z" fill="#0066FF"/>
</g>
</g>
<defs>
<filter id="filter0_d_28_2807" x="-38.7236" y="131.981" width="284.109" height="466.609" filterUnits="userSpaceOnUse" color-interpolation-filters="sRGB">
<feFlood flood-opacity="0" result="BackgroundImageFix"/>
<feColorMatrix in="SourceAlpha" type="matrix" values="0 0 0 0 0 0 0 0 0 0 0 0 0 0 0 0 0 0 127 0" result="hardAlpha"/>
<feMorphology radius="5" operator="erode" in="SourceAlpha" result="effect1_dropShadow_28_2807"/>
<feOffset dy="8"/>
<feGaussianBlur stdDeviation="13"/>
<feComposite in2="hardAlpha" operator="out"/>
<feColorMatrix type="matrix" values="0 0 0 0 0 0 0 0 0 0.4 0 0 0 0 1 0 0 0 1 0"/>
<feBlend mode="normal" in2="BackgroundImageFix" result="effect1_dropShadow_28_2807"/>
<feBlend mode="normal" in="SourceGraphic" in2="effect1_dropShadow_28_2807" result="shape"/>
</filter>
</defs>
</svg>
