<svg width="145" height="46" viewBox="0 0 145 46" fill="none" xmlns="http://www.w3.org/2000/svg">
<path d="M4.74437 8.4789C2.97309 10.691 -1.56138 17.5872 0.548406 28.0968C1.43798 32.5289 3.8233 36.5359 7.33437 39.3857C10.4754 41.9364 15.1122 44.5579 21.2133 45.0381C27.3301 45.5261 33.3525 43.1881 37.4146 38.5906C40.1542 35.4889 42.4371 30.9151 42.7284 24.2315C42.9174 19.8387 42.0829 15.4538 40.162 11.494C37.2178 5.40868 30.9042 -2.20387 18.2454 0.598681C18.088 0.630171 18.0408 0.826979 18.1588 0.937192C19.0956 1.79528 22.1895 4.80251 24.4646 9.05358C24.5669 9.25039 24.6614 9.4472 24.7637 9.644C25.2991 10.7225 28.9361 15.7057 34.7774 14.391C35.1631 14.3044 35.3757 13.8872 35.2182 13.5251C34.6435 12.2419 33.0612 9.2189 29.3612 5.07017C29.3612 5.07017 39.3276 10.6595 39.3276 23.3419C39.3276 23.3419 39.4771 32.891 31.3608 38.0789C31.164 38.2049 30.975 38.3308 30.7782 38.4647C29.7942 39.1496 25.9367 41.5585 20.9614 41.1098C17.5448 40.8027 14.8052 38.1498 14.4195 34.741C14.3329 33.9459 14.3014 33.0485 14.3644 32.033C14.5061 29.7815 15.0729 27.5693 16.0018 25.5147C18.2139 20.6181 23.5042 6.98315 15.7971 3.18868C15.6082 3.09421 15.4035 3.26741 15.4508 3.46421C16.0727 5.84166 18.2533 16.0915 10.5699 20.2244C7.98777 21.6178 4.79947 20.0119 4.38224 17.107C4.11458 15.257 4.24841 12.5725 5.17734 8.7072C5.23245 8.43166 4.90968 8.27422 4.74437 8.4789Z" fill="url(#paint0_linear_3_1607)"/>
<path d="M9.49159 11.7617C7.75967 11.7617 6.3584 13.163 6.3584 14.8949C6.3584 16.6268 7.75967 18.0281 9.49159 18.0281C11.2235 18.0281 12.6248 16.6268 12.6248 14.8949C12.6327 13.1709 11.2235 11.7617 9.49159 11.7617ZM10.3654 16.1938C10.1529 16.4851 9.67265 16.8551 8.94053 16.6898C8.57053 16.6032 8.32648 16.43 8.15329 16.2332C7.98797 16.0364 7.90138 15.8081 7.86989 15.6349C7.8384 15.4696 7.9801 15.3279 8.14542 15.3673L9.01925 15.5641L9.35776 15.6428L10.2316 15.8396C10.3969 15.8711 10.4599 16.06 10.3654 16.1938Z" fill="url(#paint1_linear_3_1607)"/>
<path d="M35.3049 20.7518C33.6044 19.7048 31.7544 18.7207 30.4083 18.0358C29.07 17.3509 27.464 17.4533 26.2123 18.2956C24.3702 19.5316 22.7012 21.2241 21.7566 22.2554C21.2055 22.8537 20.7095 23.5071 20.2687 24.192C19.5129 25.365 18.3085 27.4118 17.5842 29.5137C17.0961 30.9386 17.4031 32.5131 18.4029 33.6309C19.4106 34.7567 20.8355 36.2997 22.284 37.6694C23.7955 39.1101 26.2202 38.9133 27.4955 37.2601L31.3214 32.2926L32.4157 30.8756L36.2417 25.9082C37.5091 24.2392 37.084 21.846 35.3049 20.7518ZM23.5908 32.4501C23.0555 33.1507 22.0478 33.2767 21.3472 32.7414C20.6465 32.1982 20.5206 31.1984 21.0559 30.4977C21.5912 29.7971 22.5989 29.6711 23.2995 30.2065C24.0002 30.7497 24.134 31.7494 23.5908 32.4501ZM28.9283 29.616C28.5031 30.1671 27.9757 30.3246 27.5585 30.3246C27.4089 30.3246 27.2751 30.3088 27.157 30.2773C26.9523 30.2301 26.8657 29.986 26.9917 29.8207L27.6766 28.9311L27.9442 28.5848L28.6291 27.6952C28.7551 27.5299 29.0149 27.5535 29.1093 27.7345C29.3297 28.1282 29.5029 28.8682 28.9283 29.616ZM30.4712 23.515C29.928 24.2156 28.9283 24.3416 28.2276 23.8062C27.527 23.2709 27.401 22.2633 27.9363 21.5626C28.4717 20.862 29.4793 20.736 30.18 21.2714C30.8806 21.8145 31.0144 22.8222 30.4712 23.515Z" fill="url(#paint2_linear_3_1607)"/>
<path d="M67.5909 11.8057C70.5817 11.8057 72.0882 13.274 72.0882 16.2001V17.9983C72.0882 18.8282 71.911 19.5305 71.5455 20.0944C71.191 20.6583 70.6371 21.084 69.906 21.3606C71.4679 21.8926 72.2544 23.0524 72.2544 24.8612V26.9574C72.2544 29.7451 70.7479 31.139 67.7349 31.139H57.7544V11.8057H67.5909ZM59.848 29.1599H67.3694C69.2303 29.1599 70.1497 28.3193 70.1497 26.6488V24.6059C70.1497 23.0205 69.1528 22.2225 67.17 22.2225H60.9557V20.4455H67.1811C69.0974 20.4455 70.05 19.7007 70.05 18.2217V16.5299C70.05 14.7104 69.1196 13.806 67.2697 13.806H59.848V29.1599Z" fill="white"/>
<path d="M83.3835 16.6389C86.1608 16.6389 87.5598 18.1893 87.5598 21.2789V26.4989C87.5598 29.5885 86.1711 31.1389 83.3835 31.1389H78.8472C76.0699 31.1389 74.6709 29.5885 74.6709 26.4989V21.2789C74.6709 18.1893 76.0596 16.6389 78.8472 16.6389H83.3835ZM76.543 26.1643C76.543 28.1497 77.4277 29.1312 79.2072 29.1312H83.0235C84.803 29.1312 85.6877 28.1385 85.6877 26.1643V21.6135C85.6877 19.6505 84.803 18.6689 83.0235 18.6689H79.2072C77.4277 18.6689 76.543 19.6505 76.543 21.6135V26.1643Z" fill="white"/>
<path d="M104.477 11V26.5733C104.477 29.6134 102.986 31.1389 99.9928 31.1389H95.2661C92.2842 31.1389 90.7822 29.6134 90.7822 26.5733V21.4371C90.7822 18.3971 92.2732 16.8716 95.2661 16.8716H101.373V18.869H95.6526C93.742 18.869 92.7922 19.8348 92.7922 21.7663V26.2441C92.7922 28.1976 93.742 29.1634 95.6526 29.1634H99.6063C101.517 29.1634 102.467 28.1866 102.467 26.2441V11H104.477Z" fill="white"/>
<path d="M108.903 16.65V25.5449C108.903 27.3883 109.842 28.31 111.73 28.31H118.578V16.65H120.588V31.0751C120.588 34.3399 119.097 35.9722 116.104 35.9722H109.533V34.0067H115.717C117.628 34.0067 118.578 32.9518 118.578 30.853V30.1867H111.377C108.395 30.1867 106.893 28.7431 106.893 25.8447V16.6389H108.903V16.65Z" fill="white"/>
<path d="M135.713 24.574L131.343 14.0827L124.346 31.139H122.199L130.253 11.8057H132.476L140.727 31.139H138.416L136.465 26.4254H127.387L128.117 24.574H135.713Z" fill="white"/>
<path d="M144.754 11V14.1717H143.143V11H144.754ZM144.754 17.0142V31.1389H143.143V17.0142H144.754Z" fill="white"/>
<defs>
<linearGradient id="paint0_linear_3_1607" x1="6.94106" y1="5.90417" x2="36.4875" y2="39.3097" gradientUnits="userSpaceOnUse">
<stop stop-color="#00DAD9"/>
<stop offset="1" stop-color="#2A7BFF"/>
</linearGradient>
<linearGradient id="paint1_linear_3_1607" x1="3.90929" y1="8.58594" x2="33.4557" y2="41.9915" gradientUnits="userSpaceOnUse">
<stop stop-color="#00DAD9"/>
<stop offset="1" stop-color="#2A7BFF"/>
</linearGradient>
<linearGradient id="paint2_linear_3_1607" x1="18.5596" y1="21.5783" x2="37.8552" y2="35.9696" gradientUnits="userSpaceOnUse">
<stop stop-color="#EEA4FF"/>
<stop offset="1" stop-color="#7368FF"/>
</linearGradient>
</defs>
</svg>
