<svg width="49" height="49" viewBox="0 0 49 49" fill="none" xmlns="http://www.w3.org/2000/svg">
<path d="M0 24.5C0 10.969 10.969 0 24.5 0C38.031 0 49 10.969 49 24.5C49 38.031 38.031 49 24.5 49C10.969 49 0 38.031 0 24.5Z" fill="#FFE5B2"/>
<path d="M28.7419 17.1351C28.8491 17.1483 28.9563 17.1615 29.0663 17.1752C29.0931 17.151 29.1214 17.1255 29.1543 17.0964C29.1328 17.0608 29.1151 17.0303 29.087 16.9838C29.1333 16.9474 29.1842 16.9069 29.2403 16.863C29.2238 16.7873 29.2083 16.7179 29.1967 16.6655C29.3143 16.6917 29.4025 16.7111 29.4716 16.7267C29.5357 16.6393 29.5887 16.5673 29.6477 16.4875C29.6464 16.4446 29.6446 16.3882 29.6425 16.3188C29.7159 16.3498 29.787 16.3799 29.8731 16.4164C29.877 16.4007 29.8844 16.3699 29.8922 16.3381C29.9145 16.3433 29.9374 16.3487 29.9597 16.3539C29.9844 16.2736 30.0097 16.1935 30.041 16.0933C30.1091 16.1068 30.1838 16.1215 30.2578 16.1363C30.3297 16.0031 30.4153 15.8806 30.3948 15.6539C30.4879 15.7407 30.5382 15.7877 30.6004 15.8458C30.669 15.7917 30.7418 15.7345 30.8164 15.6756C30.7569 15.5917 30.7016 15.5135 30.6463 15.4353C30.6548 15.4289 30.6633 15.4218 30.672 15.4151C30.7389 15.4846 30.8058 15.5541 30.8763 15.6276C30.902 15.5126 30.9597 15.4437 31.0979 15.4646C31.0767 15.4293 31.0587 15.3991 31.0302 15.3511C31.1211 15.3283 31.2534 15.3375 31.2201 15.1694C31.2639 15.2005 31.3017 15.2275 31.3522 15.2634C31.4032 15.2282 31.4573 15.1903 31.5169 15.1492C31.5529 15.1741 31.5909 15.2009 31.6288 15.2276C31.6601 15.1336 31.7864 15.1186 31.7858 14.9924C31.7539 14.9468 31.719 14.8968 31.6714 14.8292C31.8847 14.7974 32.0904 14.767 32.2912 14.7368C32.2975 14.6858 32.3024 14.6457 32.3076 14.6048C32.5584 14.6182 32.7333 14.4828 32.9496 14.4483C32.9787 14.4739 33.0055 14.4974 33.0406 14.528C33.0907 14.4882 33.1329 14.4484 33.1821 14.4178C33.2699 14.3634 33.3573 14.3177 33.4897 14.4265C33.5255 14.4559 33.6027 14.4563 33.6432 14.4397C33.8131 14.3696 34.0048 14.4165 34.1857 14.4513C34.4586 14.6937 34.4586 14.6937 34.5359 14.8794C34.6693 14.9554 34.8181 15.0403 34.952 15.117C34.9893 15.1926 35.025 15.2655 35.06 15.3366C35.0494 15.4084 35.0379 15.4859 35.0241 15.5768C35.0853 15.6031 35.1264 15.6209 35.1735 15.6413C35.1755 15.6769 35.1779 15.72 35.1818 15.792C35.1174 15.7529 35.0541 15.7146 34.9425 15.6474C35.0022 15.776 35.0213 15.8161 35.0458 15.8694C34.9598 15.9156 34.9682 16.0711 34.8229 16.0597C34.8309 16.2137 34.6831 16.2329 34.6317 16.3205C34.7724 16.6984 34.4615 16.8195 34.4005 17.0774C34.2913 17.1029 34.1799 17.1292 34.0472 17.1601C34.0443 17.1809 34.0387 17.2204 34.0277 17.2949C33.968 17.1923 33.9214 17.1124 33.8731 17.0297C33.7406 17.1608 33.8606 17.3665 33.8577 17.5884C33.7829 17.5351 33.7292 17.4972 33.6839 17.465C33.683 17.4676 33.697 17.4266 33.7202 17.3586C33.6428 17.3928 33.586 17.418 33.5235 17.4461C33.5198 17.3975 33.5175 17.3651 33.5123 17.301C33.4586 17.3373 33.4205 17.3633 33.3775 17.3925C33.3952 17.4434 33.4134 17.4953 33.4319 17.5481C33.366 17.5351 33.3023 17.5225 33.2539 17.513C33.2339 17.563 33.2176 17.6049 33.1753 17.7114C33.1532 17.6008 33.1467 17.5674 33.1289 17.479C33.087 17.5525 33.0626 17.5957 33.0338 17.6458C33.0316 17.6454 33.0096 17.641 33.001 17.6392C32.9245 17.7251 32.8527 17.8056 32.787 17.8788C32.7589 17.9682 32.7327 18.0509 32.7027 18.1469C32.6308 18.12 32.5645 18.0952 32.4985 18.0708C32.4989 18.1569 32.499 18.2226 32.4994 18.3014C32.461 18.3046 32.4216 18.3075 32.3727 18.3112C32.3544 18.37 32.3319 18.4404 32.3086 18.5146C32.2118 18.4842 32.1586 18.5165 32.1759 18.6223C32.1038 18.6275 32.0342 18.6324 31.9562 18.6382C31.937 18.6989 31.9148 18.7697 31.8969 18.8263C31.8308 18.8479 31.7693 18.8678 31.7061 18.8886C31.73 18.9546 31.7484 19.0057 31.7786 19.0889C31.702 19.0179 31.6497 18.9691 31.5695 18.8946C31.5597 18.956 31.5524 19.0007 31.545 19.0454C31.5561 19.0505 31.5672 19.0556 31.5783 19.0607C31.5357 19.1426 31.4931 19.2252 31.4433 19.3202C31.3841 19.2987 31.3173 19.2744 31.2192 19.2385C31.2775 19.3339 31.3141 19.3934 31.367 19.4802C31.2519 19.5111 31.1389 19.5412 31.0028 19.5776C31.0717 19.6416 31.137 19.7017 31.2101 19.7698C31.1764 19.7966 31.125 19.837 31.0594 19.8889C31.0413 19.875 31.0055 19.8476 30.9445 19.8011C30.9122 19.8381 30.8476 19.871 30.8493 19.919C30.8529 20.0148 30.7805 19.9509 30.743 19.9709C30.7548 20.023 30.7677 20.0778 30.7793 20.1326C30.7911 20.1878 30.8018 20.2427 30.8182 20.3198C30.7437 20.3393 30.67 20.3586 30.5578 20.3881C30.5741 20.4307 30.6002 20.5007 30.6043 20.5109C30.5038 20.6554 30.4342 20.7551 30.3533 20.871C30.2964 20.8408 30.2301 20.8052 30.2052 20.7914C30.1484 20.8849 30.1156 20.9398 30.0693 21.0161C30.0701 21.0401 30.0725 21.0966 30.076 21.184C30.01 21.217 29.9303 21.2563 29.8532 21.2945C29.8685 21.3555 29.8869 21.4313 29.9112 21.5284C29.8507 21.528 29.7959 21.5165 29.7549 21.5305C29.7112 21.5457 29.6805 21.585 29.6113 21.6396C29.6685 21.4738 29.5686 21.3277 29.6099 21.2053C29.5396 21.2114 29.4809 21.2167 29.4138 21.2223C29.4069 21.3608 29.3992 21.5096 29.3886 21.7143C29.3952 21.7071 29.3629 21.7411 29.3316 21.7741C29.3515 21.8197 29.3699 21.8616 29.3879 21.9021C29.3332 21.9455 29.2809 21.9866 29.2174 22.0367C29.2026 21.986 29.1922 21.9513 29.1733 21.8868C29.1201 21.9288 29.0759 21.9639 29.0316 21.9984C28.9844 21.942 28.9374 21.8853 28.8699 21.8043C28.8907 21.9299 28.9049 22.0179 28.9199 22.1089C28.8503 22.1118 28.8013 22.1138 28.7492 22.1161C28.735 22.1634 28.7208 22.2087 28.7073 22.2542C28.6745 22.2204 28.6478 22.1877 28.6334 22.2544C28.6246 22.2968 28.5909 22.3278 28.5678 22.3637C28.5421 22.4172 28.516 22.4709 28.4653 22.5777C28.4555 22.473 28.4524 22.4414 28.4496 22.4101C28.4311 22.4086 28.3972 22.3981 28.3935 22.4069C28.35 22.5114 28.293 22.6118 28.2766 22.728C28.264 22.816 28.2 22.8358 28.1568 22.8844C27.9103 22.8659 27.7858 22.9136 27.8115 23.0185C27.856 23.0134 27.8998 23.0082 27.9643 23.0007C27.9191 23.0633 27.8857 23.1104 27.8517 23.1573C27.984 23.0953 28.1403 23.0624 28.1568 22.8844C28.2927 22.9852 28.2948 22.8107 28.3861 22.8206C28.3474 23.0724 28.3474 23.0724 28.1329 23.0957C28.1529 23.1374 28.172 23.1775 28.1981 23.2325C28.1047 23.2419 28.013 23.2515 27.8961 23.2634C27.9195 23.3088 27.9434 23.3446 27.9546 23.3816C27.9647 23.4148 27.9602 23.4483 27.9637 23.5044C27.9647 23.5984 27.786 23.5802 27.8266 23.7247C27.6761 23.6733 27.7572 23.8913 27.6264 23.8776C27.5997 23.8583 27.5619 23.8313 27.5149 23.7977C27.4812 23.8244 27.4452 23.8527 27.4023 23.8866C27.4169 23.9187 27.4361 23.96 27.4606 24.0133C27.3966 24.0639 27.3295 24.1166 27.2932 24.1457C27.2462 24.295 27.2113 24.405 27.1736 24.5242C27.1573 24.522 27.1276 24.5174 27.077 24.5099C27.0656 24.5461 27.0514 24.5903 27.0316 24.6535C26.9563 24.713 26.8642 24.7859 26.7686 24.8613C26.7868 24.9113 26.8058 24.9636 26.8251 25.0168C26.7884 25.0083 26.7546 25.0002 26.7025 24.988C26.608 24.8818 26.6861 24.7751 26.6321 24.6614C26.6945 24.6413 26.7496 24.6296 26.8023 24.6188C26.8174 24.5714 26.8346 24.5167 26.8516 24.4627C26.6405 24.4272 26.6405 24.4272 26.6321 24.6614C26.4988 24.6397 26.3347 24.5589 26.2315 24.7178C26.2611 24.7316 26.2847 24.7399 26.3066 24.7534C26.3359 24.7715 26.3637 24.7936 26.3991 24.819C26.3788 24.8585 26.3618 24.8914 26.3366 24.9394C26.3671 24.9512 26.3917 24.961 26.4329 24.9769C26.4363 24.9981 26.441 25.0259 26.4461 25.0581C26.5199 25.0615 26.5967 25.0647 26.7178 25.0702C26.658 25.1326 26.6224 25.1695 26.5863 25.2069C26.4704 25.1569 26.365 25.1113 26.2168 25.0476C26.2959 25.1598 26.3499 25.2361 26.4673 25.4026C26.3605 25.3196 26.3141 25.2835 26.2592 25.2412C26.263 25.2819 26.2602 25.2506 26.2566 25.2127C26.0315 25.2323 26.1262 25.4603 26.1042 25.6154C26.0347 25.5748 25.9862 25.5467 25.9234 25.5099C25.9443 25.6027 25.9627 25.6857 25.9809 25.7659C25.9522 25.7623 25.9231 25.7583 25.9284 25.759C25.9185 25.8464 25.9345 25.9437 25.8955 25.9855C25.8545 26.0298 25.8085 26.0665 25.782 26.1387C25.6447 26.0542 25.519 26.1061 25.371 26.0953C25.4417 26.1444 25.5118 26.1935 25.6263 26.2732C25.543 26.2952 25.4937 26.3077 25.4377 26.3226C25.4375 26.3367 25.437 26.3685 25.4364 26.4077C25.3934 26.3776 25.356 26.351 25.3102 26.3187C25.1991 26.4062 25.0857 26.4959 24.9712 26.5859C24.9964 26.658 25.0227 26.7321 25.0486 26.8065C25.0496 26.8383 25.0505 26.8701 25.0517 26.9022C25.0146 26.9641 24.9777 27.0258 24.9386 27.0912C24.9084 27.0823 24.8756 27.0726 24.8576 27.0671C24.8273 27.1621 24.7989 27.2506 24.7728 27.3309C24.6999 27.306 24.644 27.2871 24.588 27.3932C24.5361 27.3741 24.6462 27.2711 24.4742 27.1594C24.4184 27.2104 24.3654 27.2588 24.2897 27.3277C24.3987 27.3972 24.4758 27.4467 24.588 27.3932C24.7192 27.3925 24.6463 27.4993 24.6776 27.6324C24.6093 27.6234 24.5684 27.618 24.5291 27.613C24.5278 27.6438 24.5266 27.6738 24.5254 27.7027C24.4761 27.6916 24.4313 27.6819 24.3694 27.6683C24.3554 27.6194 24.3405 27.5675 24.3212 27.5016C24.27 27.5273 24.22 27.5524 24.1654 27.58C24.1507 27.5377 24.1386 27.5027 24.1261 27.4663C24.0289 27.4996 23.9357 27.5342 23.9628 27.6934C24.0982 27.7512 24.1792 27.8768 24.2879 28.0311C24.1537 28.0326 24.0455 28.0337 23.9296 28.035C23.9262 28.0097 23.9224 27.9798 23.9177 27.9449C23.8628 27.9491 23.8065 27.9534 23.7325 27.9591C23.6992 28.0581 23.6601 28.1737 23.6181 28.2973C23.6011 28.2934 23.5559 28.2828 23.5074 28.2716C23.5047 28.2403 23.5016 28.2086 23.4958 28.1468C23.4574 28.1772 23.4045 28.2026 23.4103 28.2167C23.4802 28.3819 23.4323 28.4867 23.3232 28.555C23.2784 28.5827 23.2127 28.5817 23.1546 28.5942C23.0473 28.6916 23.3014 28.9123 23.1159 29.0066C23.1024 28.9542 23.0936 28.9193 23.0804 28.8677C23.0233 28.9126 22.9719 28.9536 22.9119 29.0004C22.9243 29.0352 22.9433 29.0875 22.9631 29.1433C22.7497 29.2652 22.4607 29.2669 22.2986 29.482C22.3353 29.5262 22.374 29.5722 22.43 29.6394C22.3427 29.7067 22.3004 29.8059 22.1689 29.8104C22.059 29.8142 21.9922 29.8684 21.9829 29.9976C21.9775 30.0725 21.9264 30.144 21.871 30.1873C21.7836 30.2565 21.8176 30.4717 21.6115 30.3986C21.511 30.4778 21.4106 30.5569 21.2903 30.6522C21.2997 30.6878 21.3154 30.7456 21.3334 30.8127C21.1422 30.8269 21.0327 30.9112 20.9968 31.0867C20.9614 31.0849 20.9221 31.0829 20.8999 31.0818C20.8499 31.1818 20.8042 31.2732 20.7581 31.3656C20.7168 31.363 20.6753 31.36 20.6123 31.3558C20.6116 31.4319 20.611 31.5061 20.6104 31.5792C20.5228 31.6528 20.427 31.7169 20.3679 31.8216C20.2882 31.8543 20.1304 31.743 20.1088 31.9298C20.1139 31.9385 20.1319 31.9687 20.1582 32.0138C20.0952 32.0634 20.0284 32.1165 19.9489 32.1792C19.9063 32.1704 19.841 32.1569 19.7758 32.1432C19.7767 32.1678 19.7772 32.1903 19.7782 32.2269C19.7085 32.2542 19.6165 32.2671 19.5602 32.3185C19.5016 32.372 19.4773 32.4634 19.4116 32.5885C19.4115 32.5874 19.4216 32.6556 19.4322 32.7293C19.3421 32.6844 19.2706 32.6487 19.1538 32.5904C19.1819 32.678 19.2027 32.7426 19.2327 32.8363C19.1303 32.7777 19.085 32.7516 19.0047 32.7057C19.0606 32.7923 19.0975 32.849 19.1347 32.9066C18.9961 32.9453 18.8956 33.0088 18.838 33.1592C18.7921 33.2786 18.63 33.3204 18.5157 33.4676C18.5155 33.4678 18.4547 33.487 18.3837 33.5094C18.3952 33.5836 18.4053 33.6518 18.416 33.72C18.3756 33.7106 18.353 33.705 18.3193 33.6974C18.2957 33.7688 18.2715 33.8438 18.2447 33.9254C18.189 33.8724 18.1371 33.8231 18.0592 33.7491C18.089 33.8334 18.1061 33.8826 18.1238 33.933C18.0897 33.9269 18.0578 33.9213 18.0181 33.9142C18.0386 33.9591 18.0581 34.0007 18.0883 34.0659C18.0193 34.0858 17.9498 34.1057 17.8803 34.1261C17.8071 34.1475 17.8944 34.3109 17.7476 34.2846C17.7007 34.2762 17.6639 34.383 17.6205 34.4391C17.5663 34.4071 17.5177 34.3784 17.4678 34.3492C17.4222 34.4351 17.3785 34.5174 17.3333 34.6016C17.3669 34.6112 17.3985 34.6201 17.4693 34.6401C17.3391 34.6978 17.2324 34.7452 17.1247 34.7929C17.0869 34.766 17.049 34.7392 16.9938 34.7002C16.968 34.8135 16.944 34.9167 16.9134 35.0494C16.8243 35.006 16.7585 34.9741 16.6985 34.945C16.6744 35.1147 16.6549 35.2525 16.6353 35.3903C16.5796 35.3772 16.5235 35.3638 16.4613 35.3492C16.4599 35.3783 16.4581 35.4077 16.4555 35.4493C16.4174 35.4215 16.3825 35.3956 16.3243 35.3533C16.2719 35.3946 16.214 35.4402 16.1294 35.5068C16.1198 35.3312 16.1474 35.249 16.2503 35.1718C16.3331 35.1098 16.3267 34.938 16.3659 34.7928C16.203 34.843 16.0047 34.755 15.913 34.9139C15.9498 34.9659 15.9844 35.0156 16.0261 35.0746C16.0107 35.0939 15.9995 35.124 15.9761 35.136C15.8322 35.2103 15.6855 35.2811 15.5182 35.3638C15.5124 35.3394 15.5048 35.3064 15.4954 35.2678C15.4716 35.2609 15.4402 35.2518 15.4193 35.2459C15.3977 35.179 15.3767 35.1146 15.3559 35.0506C15.3938 35.0527 15.4328 35.0543 15.4957 35.0574C15.4937 34.9782 15.4861 34.9011 15.492 34.8288C15.4973 34.7684 15.5186 34.7136 15.5382 34.6349C15.4677 34.6182 15.4038 34.6033 15.2951 34.5782C15.3947 34.5518 15.4628 34.5338 15.5281 34.5165C15.5252 34.4189 15.4919 34.4031 15.3366 34.4218C15.3054 34.3841 15.2723 34.3458 15.2409 34.3059C15.2348 34.2981 15.2372 34.2844 15.2319 34.2457C15.2747 34.2747 15.3051 34.2956 15.3555 34.3293C15.3986 34.2438 15.4455 34.1508 15.5141 34.014C15.4153 34.0065 15.3655 34.0026 15.2989 33.9974C15.2909 34.0245 15.2797 34.0613 15.2665 34.1051C15.2334 34.1115 15.1905 34.1332 15.1445 34.1258C15.078 34.1152 15.009 34.0838 14.938 34.0174C14.9885 34.0088 15.0395 34.0002 15.1061 33.9884C15.0563 33.9107 15.0184 33.8513 14.9775 33.7874C15.1551 33.7751 15.2698 33.6945 15.2782 33.5106C15.3314 33.5193 15.3642 33.5248 15.4024 33.5313C15.3841 33.4808 15.3658 33.4297 15.3479 33.3807C15.389 33.3483 15.4276 33.3178 15.4662 33.2872C15.5527 33.3185 15.6394 33.3495 15.7428 33.3866C15.7198 33.2878 15.6998 33.2032 15.6786 33.1124C15.7042 33.1044 15.7311 33.0958 15.7642 33.0859C15.7676 33.1281 15.7702 33.1602 15.7754 33.2213C15.8478 33.1718 15.9077 33.131 15.9535 33.0993C15.9294 33.0008 15.911 32.925 15.8935 32.8538C15.9535 32.8511 16.002 32.849 16.0543 32.847C16.0293 32.7778 16.0109 32.7256 15.992 32.6738C16.2247 32.6226 16.2247 32.6226 16.3143 32.3727C16.2832 32.3639 16.2515 32.3544 16.2204 32.3456C16.2188 32.2976 16.2176 32.2528 16.2159 32.1975C16.2571 32.2274 16.294 32.2539 16.3411 32.2881C16.4208 32.2252 16.5037 32.1601 16.5921 32.09C16.5911 32.0571 16.5897 32.0125 16.5883 31.9648C16.5567 31.9559 16.5247 31.9466 16.4755 31.9331C16.495 31.8701 16.5134 31.8101 16.5321 31.7497C16.546 31.7553 16.5598 31.7604 16.5736 31.766C16.578 31.7934 16.5827 31.8207 16.5876 31.8518C16.6668 31.9543 16.7942 31.8889 16.8784 31.6951C16.9168 31.7208 16.9553 31.7465 16.9825 31.7649C16.9873 31.6887 16.9925 31.6073 16.9978 31.5204C16.9476 31.4914 16.9011 31.4645 16.8552 31.4382C16.9554 31.3267 17.0535 31.2171 17.1601 31.0979C17.2001 31.1361 17.252 31.1853 17.3527 31.2816C17.3206 31.1717 17.3016 31.106 17.2708 31.001C17.4144 31.0556 17.5104 31.0922 17.6063 31.1289C17.6043 31.0667 17.6035 31.033 17.6014 30.966C17.5717 30.9306 17.5248 30.8745 17.4784 30.8185C17.5008 30.8007 17.5232 30.783 17.5496 30.7621C17.5948 30.7896 17.642 30.8182 17.709 30.8592C17.7255 30.7683 17.7408 30.6838 17.7564 30.599C17.7999 30.5646 17.8495 30.5356 17.8847 30.4935C17.9014 30.4736 17.8906 30.4278 17.8925 30.3941C17.9315 30.3927 17.9708 30.3916 18.0104 30.3904C17.953 30.2411 17.8938 30.0873 17.8309 29.9248C17.9575 29.8897 18.0597 29.9225 18.1647 29.9836C18.0878 30.0203 18.0782 30.0918 18.1235 30.2194C18.1765 30.1396 18.3042 30.1536 18.2606 30.0063C18.3469 29.7026 18.4252 29.6211 18.6597 29.5985C18.6533 29.536 18.6463 29.4699 18.6404 29.413C18.6869 29.3764 18.7244 29.3468 18.7694 29.3207C18.7816 29.3604 18.7871 29.4014 18.7927 29.4429C18.8367 29.4532 18.8813 29.4637 18.9329 29.4758C18.9143 29.4243 18.8964 29.3753 18.8809 29.3325C18.9315 29.2789 18.9792 29.2287 19.0369 29.1681C18.9642 29.151 18.9201 29.1406 18.9084 29.1379C18.8578 29.2095 18.8161 29.2689 18.7694 29.3207C18.7275 29.245 18.693 29.1735 18.6659 29.1163C18.789 28.96 18.9471 28.9502 19.1429 29.0036C19.1655 28.9271 19.1886 28.8476 19.2123 28.7677C19.378 28.7637 19.3727 28.5528 19.5197 28.5362C19.5193 28.4599 19.519 28.396 19.5181 28.2556C19.5772 28.3816 19.6034 28.4377 19.641 28.5179C19.6632 28.4846 19.6995 28.4566 19.7053 28.4164C19.7224 28.2964 19.7271 28.1714 19.7377 28.038C19.7939 28.0767 19.8319 28.1029 19.8808 28.1366C19.8836 28.1064 19.8866 28.0795 19.8899 28.0426C19.9341 28.068 19.9782 28.0934 20.0434 28.1307C20.0572 28.0722 20.0702 28.0164 20.0858 27.9516C20.0456 27.9378 20.0169 27.9281 19.9829 27.9165C19.9803 27.8886 19.9659 27.8485 19.9774 27.829C19.9992 27.7936 20.0304 27.7595 20.0686 27.7449C20.1397 27.7181 20.2189 27.7053 20.2972 27.686C20.2812 27.6298 20.26 27.5541 20.2382 27.4777C20.3111 27.4554 20.4537 27.5236 20.3741 27.3514C20.4188 27.3594 20.4505 27.3653 20.4713 27.3688C20.4894 27.3114 20.5065 27.2561 20.525 27.1972C20.495 27.188 20.4641 27.1784 20.4055 27.1606C20.4676 27.1028 20.5203 27.054 20.5941 26.985C20.6088 27.0496 20.6165 27.0832 20.6289 27.1385C20.6713 27.105 20.7071 27.0769 20.7616 27.0338C20.7482 26.9764 20.728 26.892 20.7063 26.7992C20.7489 26.829 20.7869 26.8557 20.833 26.8884C20.9135 26.8248 20.9963 26.7597 21.0853 26.6891C21.0702 26.6617 21.0533 26.6311 21.0219 26.5742C21.08 26.5187 21.147 26.4541 21.2133 26.3906C21.1944 26.3466 21.1768 26.3046 21.1468 26.2338C21.2562 26.2746 21.3521 26.3107 21.4689 26.3545C21.4402 26.2366 21.4215 26.1605 21.4007 26.0754C21.4192 26.0774 21.4474 26.0809 21.4764 26.0844C21.4963 26.0132 21.517 25.9402 21.5383 25.8648C21.5605 25.869 21.5921 25.8748 21.6241 25.881C21.6224 25.8227 21.6206 25.7664 21.6191 25.7201C21.8049 25.6399 21.8397 25.3627 22.117 25.4224C22.1421 25.2922 22.1651 25.1748 22.1914 25.0388C22.2162 25.0386 22.2567 25.0384 22.3045 25.0381C22.2903 24.9966 22.2735 24.9483 22.2478 24.8737C22.335 24.8801 22.4168 24.8861 22.5197 24.8941C22.5681 24.8123 22.6249 24.7158 22.6831 24.6173C22.6448 24.6061 22.6131 24.5966 22.5736 24.5851C22.6298 24.509 22.6841 24.4359 22.7527 24.3432C22.7559 24.3433 22.7953 24.3422 22.853 24.3252C22.8599 24.3195 22.8484 24.3293 22.8369 24.3397C22.8649 24.3784 22.8929 24.4171 22.9363 24.477C22.8675 24.4915 22.8174 24.5022 22.7491 24.5161C22.7904 24.5573 22.8217 24.5883 22.8454 24.6116C22.9092 24.5613 22.9609 24.5207 23.0239 24.4711C22.9674 24.411 22.9198 24.3603 22.8538 24.325C22.833 24.1765 22.8325 24.0139 23.0816 24.0874C23.0836 23.9963 23.085 23.9225 23.0865 23.8457C23.1307 23.8106 23.1765 23.7747 23.2261 23.7354C23.2068 23.693 23.1879 23.6515 23.1672 23.605C23.2122 23.6 23.2567 23.5955 23.3193 23.5885C23.3066 23.519 23.294 23.4507 23.2881 23.4185C23.363 23.3032 23.5099 23.2963 23.4929 23.1431C23.6338 23.1936 23.6742 23.1148 23.6816 22.997C23.7407 23.0107 23.7968 23.0241 23.8621 23.0395C23.8445 22.9883 23.8278 22.94 23.8104 22.8905C23.8328 22.8938 23.8536 22.8968 23.8743 22.8998C23.9272 22.8303 23.9809 22.7595 24.0445 22.6762C24.0167 22.633 23.9785 22.5733 23.9305 22.4982C23.9627 22.48 23.9926 22.4639 24.0316 22.442C24.0359 22.4949 24.0388 22.5273 24.0436 22.584C24.1409 22.4702 24.2278 22.3682 24.3238 22.2556C24.2902 22.2431 24.2634 22.2334 24.2113 22.214C24.223 22.1727 24.2362 22.1263 24.2562 22.0551C24.2641 22.0546 24.3114 22.0518 24.3566 22.049C24.3393 22.0067 24.322 21.965 24.3049 21.9236C24.3421 21.8556 24.4759 21.8623 24.6353 21.9395C24.636 21.908 24.6368 21.8766 24.6379 21.8465C24.669 21.8517 24.7 21.8569 24.7308 21.8624C24.729 21.8024 24.7272 21.7461 24.7253 21.6825C24.7538 21.6864 24.7829 21.6904 24.8343 21.6971C24.8064 21.6528 24.7838 21.6176 24.7623 21.5815C24.7446 21.5516 24.7288 21.5212 24.7092 21.4857C24.7517 21.4932 24.7833 21.4991 24.823 21.5062C24.8022 21.4616 24.7829 21.4197 24.7591 21.3687C24.7931 21.3417 24.8293 21.3132 24.8713 21.2802C24.9037 21.3029 24.9414 21.3293 25.0026 21.3719C25.0231 21.3208 25.0432 21.2713 25.0686 21.2072C25.103 21.2058 25.1526 21.2039 25.2107 21.2016C25.2181 21.1786 25.2271 21.1512 25.2381 21.1177C25.3103 21.0834 25.3909 21.045 25.4647 21.0099C25.4614 20.9047 25.4588 20.8147 25.4554 20.7156C25.4831 20.7191 25.5113 20.7226 25.5406 20.7264C25.547 20.691 25.5539 20.654 25.5655 20.5915C25.6589 20.6269 25.7469 20.6598 25.8347 20.6929C25.8336 20.6523 25.8321 20.6071 25.8307 20.5624C25.7988 20.5532 25.7668 20.544 25.7349 20.5342C25.7334 20.489 25.7323 20.4441 25.7307 20.4008C25.9662 20.2173 26.1033 19.9299 26.3742 19.7857C26.397 19.7735 26.4212 19.7439 26.4196 19.7175C26.4083 19.5532 26.5519 19.6073 26.6578 19.5745C26.6479 19.5194 26.6371 19.4566 26.6257 19.3938C26.7128 19.3575 26.8023 19.3245 26.8869 19.2844C26.9609 19.249 27.0302 19.2058 27.1095 19.1614C27.1034 19.147 27.085 19.105 27.0562 19.0392C27.1367 19.0028 27.2203 18.9648 27.3327 18.9135C27.3427 18.8815 27.3637 18.8131 27.3934 18.7162C27.3186 18.7553 27.2692 18.7811 27.2196 18.8072C27.2112 18.7979 27.2028 18.788 27.1946 18.7784C27.2206 18.7477 27.2515 18.721 27.2714 18.6862C27.2903 18.6528 27.2976 18.6112 27.3139 18.5615C27.3514 18.6067 27.3675 18.626 27.3963 18.6605C27.4347 18.6016 27.4712 18.5451 27.5143 18.4791C27.5825 18.5033 27.6489 18.5273 27.7118 18.5497C27.7316 18.4328 27.7487 18.3322 27.7675 18.2198C27.7805 18.2214 27.8092 18.225 27.8388 18.2291C27.8495 18.1856 27.8609 18.1403 27.8711 18.0997C27.9214 18.1093 27.9541 18.1154 28.0072 18.1255C27.9963 18.058 27.985 17.9897 27.9727 17.9156C28.0754 17.9069 28.164 17.8989 28.2827 17.8889C28.3536 17.8153 28.4807 17.7664 28.5243 17.6142C28.5428 17.5486 28.6667 17.5382 28.7598 17.4953C28.7735 17.4219 28.7924 17.3239 28.8115 17.224C28.7912 17.1939 28.7664 17.1643 28.7419 17.1351ZM27.6024 23.3497C27.5625 23.4183 27.5236 23.4854 27.4761 23.5675C27.5875 23.5346 27.6818 23.5069 27.7943 23.4736C27.7173 23.4236 27.6567 23.3847 27.6024 23.3497Z" fill="#FFA900"/>
<path d="M18.1998 20.4141C18.213 20.3069 18.2262 20.1997 18.2399 20.0897C18.2157 20.0629 18.1902 20.0346 18.1611 20.0017C18.1255 20.0232 18.095 20.0409 18.0485 20.069C18.0121 20.0227 17.9716 19.9718 17.9277 19.9157C17.852 19.9322 17.7826 19.9477 17.7302 19.9593C17.7564 19.8417 17.7758 19.7535 17.7914 19.6844C17.704 19.6203 17.632 19.5673 17.5522 19.5083C17.5093 19.5096 17.4529 19.5114 17.3835 19.5135C17.4145 19.4401 17.4446 19.369 17.4811 19.2829C17.4654 19.279 17.4346 19.2716 17.4028 19.2638C17.408 19.2415 17.4134 19.2186 17.4186 19.1963C17.3383 19.1716 17.2582 19.1464 17.158 19.115C17.1715 19.0469 17.1862 18.9722 17.2009 18.8982C17.0678 18.8263 16.9453 18.7408 16.7186 18.7612C16.8054 18.6681 16.8524 18.6178 16.9105 18.5556C16.8564 18.487 16.7992 18.4142 16.7403 18.3396C16.6564 18.3991 16.5782 18.4544 16.5 18.5097C16.4936 18.5012 16.4865 18.4927 16.4798 18.484C16.5493 18.4171 16.6188 18.3502 16.6923 18.2797C16.5773 18.254 16.5084 18.1963 16.5293 18.0582C16.494 18.0793 16.4638 18.0973 16.4158 18.1258C16.393 18.0349 16.4022 17.9026 16.2341 17.9359C16.2652 17.8921 16.2922 17.8543 16.3281 17.8038C16.2929 17.7528 16.255 17.6987 16.2139 17.6391C16.2388 17.6031 16.2656 17.5651 16.2923 17.5272C16.1982 17.4959 16.1833 17.3696 16.0571 17.3702C16.0115 17.4021 15.9615 17.437 15.8939 17.4846C15.8621 17.2713 15.8317 17.0656 15.8015 16.8648C15.7505 16.8585 15.7104 16.8536 15.6695 16.8484C15.6829 16.5976 15.5475 16.4227 15.513 16.2064C15.5386 16.1773 15.5621 16.1505 15.5927 16.1154C15.5529 16.0653 15.5131 16.0231 15.4825 15.9739C15.4281 15.8861 15.3824 15.7987 15.4912 15.6663C15.5205 15.6305 15.521 15.5534 15.5044 15.5128C15.4343 15.3429 15.4812 15.1512 15.516 14.9703C15.7584 14.6974 15.7584 14.6974 15.9441 14.6201C16.0201 14.4867 16.105 14.3379 16.1817 14.204C16.2573 14.1667 16.3302 14.131 16.4013 14.096C16.4731 14.1066 16.5506 14.1182 16.6415 14.1319C16.6678 14.0707 16.6856 14.0296 16.706 13.9825C16.7416 13.9805 16.7847 13.9781 16.8567 13.9742C16.8176 14.0386 16.7793 14.1019 16.712 14.2135C16.8407 14.1538 16.8808 14.1347 16.9341 14.1102C16.9803 14.1962 17.1358 14.1878 17.1244 14.3331C17.2784 14.3251 17.2976 14.4729 17.3852 14.5244C17.7631 14.3836 17.8841 14.6945 18.1421 14.7555C18.1676 14.8647 18.1939 14.9761 18.2248 15.1088C18.2456 15.1117 18.285 15.1173 18.3596 15.1283C18.257 15.188 18.1771 15.2346 18.0944 15.2829C18.2254 15.4154 18.4312 15.2954 18.6531 15.2983C18.5998 15.3731 18.5619 15.4268 18.5297 15.4721C18.5323 15.473 18.4913 15.459 18.4233 15.4358C18.4575 15.5132 18.4827 15.57 18.5108 15.6325C18.4622 15.6362 18.4298 15.6385 18.3657 15.6437C18.402 15.6974 18.428 15.7355 18.4572 15.7786C18.5081 15.7608 18.56 15.7426 18.6128 15.7241C18.5998 15.79 18.5872 15.8537 18.5777 15.9021C18.6277 15.9221 18.6696 15.9384 18.7761 15.9807C18.6655 16.0028 18.6321 16.0093 18.5437 16.0271C18.6172 16.069 18.6604 16.0934 18.7105 16.1222C18.7101 16.1244 18.7057 16.1464 18.7039 16.155C18.7898 16.2315 18.8703 16.3033 18.9435 16.369C19.0328 16.3971 19.1156 16.4233 19.2116 16.4533C19.1847 16.5252 19.1599 16.5915 19.1355 16.6575C19.2215 16.6571 19.2873 16.657 19.3661 16.6567C19.3693 16.695 19.3722 16.7344 19.3759 16.7833C19.4347 16.8016 19.5051 16.8241 19.5793 16.8474C19.5489 16.9442 19.5812 16.9974 19.687 16.9801C19.6922 17.0522 19.6971 17.1218 19.7029 17.1998C19.7636 17.219 19.8344 17.2412 19.891 17.2591C19.9126 17.3252 19.9325 17.3868 19.9533 17.4499C20.0193 17.426 20.0704 17.4076 20.1536 17.3774C20.0826 17.454 20.0338 17.5063 19.9593 17.5865C20.0207 17.5963 20.0654 17.6036 20.1101 17.611C20.1152 17.5999 20.1203 17.5888 20.1254 17.5777C20.2073 17.6203 20.2899 17.6629 20.3849 17.7127C20.3634 17.7719 20.3391 17.8387 20.3032 17.9368C20.3986 17.8785 20.458 17.842 20.5449 17.789C20.5758 17.9041 20.6059 18.0171 20.6422 18.1532C20.7063 18.0843 20.7664 18.019 20.8345 17.9459C20.8613 17.9796 20.9017 18.031 20.9536 18.0966C20.9397 18.1147 20.9123 18.1505 20.8658 18.2115C20.9028 18.2438 20.9357 18.3084 20.9837 18.3067C21.0795 18.3031 21.0156 18.3755 21.0356 18.413C21.0877 18.4012 21.1425 18.3883 21.1973 18.3767C21.2525 18.3649 21.3074 18.3542 21.3845 18.3379C21.404 18.4123 21.4233 18.486 21.4528 18.5982C21.4954 18.5819 21.5654 18.5558 21.5756 18.5517C21.7201 18.6522 21.8198 18.7218 21.9357 18.8027C21.9054 18.8596 21.8699 18.9259 21.8561 18.9509C21.9496 19.0076 22.0045 19.0404 22.0808 19.0867C22.1048 19.0859 22.1613 19.0835 22.2487 19.08C22.2817 19.146 22.321 19.2257 22.3592 19.3028C22.4202 19.2875 22.496 19.2691 22.5931 19.2448C22.5927 19.3053 22.5812 19.3601 22.5952 19.4011C22.6104 19.4448 22.6497 19.4755 22.7043 19.5447C22.5385 19.4875 22.3924 19.5874 22.27 19.5461C22.2761 19.6164 22.2814 19.6751 22.287 19.7422C22.4255 19.7491 22.5743 19.7568 22.7789 19.7674C22.7718 19.7608 22.8058 19.7931 22.8388 19.8244C22.8844 19.8045 22.9263 19.7861 22.9668 19.7681C23.0102 19.8228 23.0513 19.8751 23.1014 19.9386C23.0507 19.9534 23.016 19.9638 22.9515 19.9827C22.9935 20.0359 23.0286 20.0801 23.0631 20.1244C23.0067 20.1716 22.95 20.2186 22.869 20.2861C22.9946 20.2653 23.0826 20.2511 23.1736 20.2361C23.1765 20.3057 23.1785 20.3547 23.1808 20.4068C23.2281 20.421 23.2734 20.4352 23.3189 20.4487C23.2851 20.4815 23.2524 20.5082 23.3191 20.5226C23.3615 20.5314 23.3925 20.5651 23.4284 20.5882C23.4819 20.6139 23.5356 20.64 23.6424 20.6907C23.5377 20.7005 23.506 20.7036 23.4748 20.7064C23.4733 20.7249 23.4628 20.7588 23.4716 20.7625C23.5761 20.806 23.6765 20.863 23.7927 20.8794C23.8807 20.892 23.9005 20.956 23.9491 20.9992C23.9306 21.2457 23.9783 21.3702 24.0832 21.3445C24.0781 21.3001 24.0729 21.2562 24.0654 21.1917C24.128 21.2369 24.1751 21.2703 24.222 21.3043C24.16 21.172 24.1271 21.0157 23.9491 20.9992C24.0499 20.8633 23.8753 20.8612 23.8853 20.7699C24.1371 20.8086 24.1371 20.8086 24.1604 21.0231C24.2021 21.0031 24.2422 20.984 24.2972 20.9579C24.3066 21.0513 24.3162 21.143 24.3281 21.2599C24.3735 21.2366 24.4093 21.2126 24.4463 21.2014C24.4795 21.1914 24.513 21.1958 24.5691 21.1923C24.6631 21.1913 24.6449 21.37 24.7894 21.3294C24.738 21.4799 24.956 21.3988 24.9423 21.5296C24.923 21.5563 24.896 21.5941 24.8624 21.6411C24.8891 21.6748 24.9174 21.7108 24.9513 21.7537C24.9834 21.7391 25.0247 21.7199 25.078 21.6954C25.1286 21.7594 25.1813 21.8265 25.2104 21.8628C25.3597 21.9098 25.4697 21.9447 25.5889 21.9824C25.5867 21.9987 25.5821 22.0284 25.5746 22.0791C25.6108 22.0904 25.655 22.1046 25.7182 22.1244C25.7777 22.1997 25.8506 22.2918 25.926 22.3874C25.976 22.3692 26.0283 22.3502 26.0815 22.3309C26.073 22.3677 26.0649 22.4014 26.0527 22.4536C25.9465 22.548 25.8398 22.4699 25.7261 22.5239C25.706 22.4615 25.6943 22.4064 25.6835 22.3537C25.6361 22.3386 25.5814 22.3214 25.5274 22.3044C25.4919 22.5155 25.4919 22.5155 25.7261 22.5239C25.7044 22.6572 25.6236 22.8213 25.7825 22.9245C25.7963 22.8949 25.8046 22.8713 25.8181 22.8494C25.8362 22.8201 25.8583 22.7923 25.8837 22.7569C25.9232 22.7772 25.9561 22.7943 26.0041 22.8194C26.0159 22.7889 26.0257 22.7643 26.0416 22.7231C26.0628 22.7197 26.0906 22.715 26.1228 22.71C26.1262 22.6361 26.1294 22.5593 26.1349 22.4382C26.1973 22.498 26.2342 22.5336 26.2716 22.5697C26.2216 22.6856 26.176 22.791 26.1123 22.9392C26.2245 22.8601 26.3008 22.8061 26.4673 22.6887C26.3843 22.7955 26.3482 22.8419 26.3059 22.8968C26.3465 22.893 26.3153 22.8958 26.2774 22.8994C26.297 23.1246 26.525 23.0298 26.6801 23.0518C26.6395 23.1213 26.6114 23.1698 26.5746 23.2326C26.6674 23.2117 26.7504 23.1933 26.8306 23.1751C26.827 23.2038 26.823 23.2329 26.8237 23.2276C26.9111 23.2375 27.0084 23.2215 27.0502 23.2605C27.0945 23.3015 27.1312 23.3475 27.2034 23.374C27.1189 23.5113 27.1708 23.637 27.16 23.785C27.2091 23.7143 27.2582 23.6442 27.3379 23.5297C27.3599 23.613 27.3724 23.6623 27.3873 23.7183C27.4014 23.7185 27.4332 23.719 27.4724 23.7196C27.4423 23.7626 27.4157 23.8 27.3834 23.8458C27.4709 23.9569 27.5606 24.0703 27.6506 24.1848C27.7227 24.1596 27.7968 24.1333 27.8712 24.1074C27.903 24.1065 27.9348 24.1055 27.9669 24.1043C28.0288 24.1414 28.0905 24.1783 28.1559 24.2174C28.147 24.2476 28.1373 24.2804 28.1318 24.2984C28.2268 24.3287 28.3153 24.3571 28.3956 24.3832C28.3707 24.4561 28.3518 24.512 28.4579 24.568C28.4388 24.6199 28.3358 24.5098 28.2241 24.6818C28.2751 24.7376 28.3235 24.7906 28.3924 24.8663C28.4619 24.7573 28.5114 24.6802 28.4579 24.568C28.4572 24.4368 28.564 24.5097 28.6971 24.4784C28.6881 24.5467 28.6827 24.5877 28.6777 24.6269C28.7085 24.6283 28.7385 24.6294 28.7674 24.6306C28.7563 24.6799 28.7466 24.7247 28.733 24.7866C28.6841 24.8006 28.6322 24.8155 28.5663 24.8348C28.592 24.886 28.6171 24.936 28.6447 24.9906C28.6024 25.0053 28.5674 25.0174 28.531 25.0299C28.5643 25.1271 28.5989 25.2203 28.7581 25.1932C28.8159 25.0578 28.9415 24.9768 29.0958 24.8681C29.0973 25.0023 29.0984 25.1105 29.0997 25.2264C29.0744 25.2298 29.0445 25.2336 29.0096 25.2383C29.0138 25.2932 29.0181 25.3495 29.0238 25.4235C29.1227 25.4568 29.2384 25.4959 29.362 25.5379C29.358 25.5549 29.3475 25.6001 29.3363 25.6486C29.305 25.6514 29.2733 25.6544 29.2115 25.6603C29.2419 25.6986 29.2673 25.7515 29.2814 25.7457C29.4466 25.6758 29.5514 25.7237 29.6197 25.8328C29.6474 25.8776 29.6464 25.9433 29.6589 26.0014C29.7563 26.1087 29.977 25.8546 30.0713 26.0401C30.0189 26.0536 29.984 26.0624 29.9324 26.0756C29.9773 26.1327 30.0183 26.1841 30.0651 26.2441C30.0999 26.2317 30.1522 26.2127 30.208 26.1929C30.3299 26.4063 30.3316 26.6953 30.5467 26.8574C30.5909 26.8207 30.6369 26.782 30.7041 26.726C30.7714 26.8133 30.8706 26.8556 30.8751 26.9871C30.8789 27.097 30.9331 27.1638 31.0623 27.1731C31.1372 27.1785 31.2087 27.2296 31.252 27.285C31.3212 27.3724 31.5364 27.3384 31.4633 27.5445C31.5425 27.6451 31.6216 27.7454 31.7169 27.8657C31.7525 27.8563 31.8102 27.8407 31.8774 27.8227C31.8916 28.0138 31.9759 28.1233 32.1514 28.1592C32.1496 28.1946 32.1476 28.2339 32.1465 28.2561C32.2465 28.3061 32.3379 28.3518 32.4303 28.3979C32.4277 28.4392 32.4247 28.4807 32.4205 28.5437C32.4966 28.5444 32.5708 28.545 32.6439 28.5456C32.7175 28.6333 32.7816 28.729 32.8863 28.7881C32.919 28.8679 32.8077 29.0256 32.9945 29.0472C33.0032 29.0422 33.0334 29.0241 33.0785 28.9978C33.1281 29.0608 33.1812 29.1276 33.2438 29.2071C33.2351 29.2497 33.2216 29.315 33.2079 29.3802C33.2325 29.3793 33.255 29.3788 33.2916 29.3778C33.3189 29.4475 33.3318 29.5395 33.3832 29.5958C33.4367 29.6544 33.5281 29.6788 33.6532 29.7444C33.6521 29.7445 33.7202 29.7344 33.794 29.7238C33.7491 29.8139 33.7134 29.8854 33.6551 30.0023C33.7427 29.9741 33.8073 29.9533 33.901 29.9233C33.8424 30.0257 33.8163 30.071 33.7704 30.1513C33.857 30.0954 33.9137 30.0585 33.9713 30.0213C34.01 30.1599 34.0735 30.2604 34.2239 30.318C34.3433 30.3639 34.3851 30.526 34.5323 30.6403C34.5325 30.6405 34.5517 30.7013 34.5741 30.7723C34.6483 30.7608 34.7165 30.7507 34.7847 30.74C34.7753 30.7804 34.7697 30.803 34.7621 30.8367C34.8335 30.8603 34.9085 30.8846 34.9901 30.9113C34.9371 30.9671 34.8878 31.0189 34.8138 31.0968C34.8981 31.067 34.9473 31.0499 34.9977 31.0322C34.9916 31.0663 34.986 31.0983 34.9789 31.1379C35.0238 31.1174 35.0654 31.0979 35.1306 31.0677C35.1505 31.1367 35.1704 31.2062 35.1908 31.2757C35.2122 31.3489 35.3756 31.2616 35.3493 31.4084C35.3409 31.4553 35.4477 31.4921 35.5038 31.5355C35.4718 31.5897 35.4431 31.6383 35.4139 31.6883C35.4998 31.7339 35.5821 31.7775 35.6663 31.8227C35.6759 31.7891 35.6848 31.7575 35.7048 31.6867C35.7625 31.8169 35.8099 31.9236 35.8576 32.0313C35.8307 32.0691 35.8039 32.107 35.7649 32.1622C35.8782 32.188 35.9814 32.212 36.1141 32.2426C36.0707 32.3317 36.0388 32.3975 36.0097 32.4575C36.1794 32.4816 36.3172 32.5011 36.455 32.5207C36.4419 32.5764 36.4285 32.6325 36.4139 32.6947C36.443 32.6962 36.4724 32.6979 36.514 32.7006C36.4862 32.7386 36.4603 32.7735 36.418 32.8317C36.4593 32.8841 36.5048 32.942 36.5715 33.0266C36.3959 33.0362 36.3137 33.0086 36.2365 32.9057C36.1745 32.8229 36.0027 32.8293 35.8575 32.7902C35.9077 32.953 35.8197 33.1513 35.9786 33.243C36.0306 33.2062 36.0803 33.1716 36.1393 33.1299C36.1586 33.1453 36.1887 33.1565 36.2007 33.1799C36.275 33.3238 36.3458 33.4705 36.4285 33.6378C36.4041 33.6436 36.3711 33.6512 36.3325 33.6606C36.3256 33.6844 36.3164 33.7158 36.3106 33.7368C36.2437 33.7583 36.1793 33.7793 36.1153 33.8001C36.1174 33.7622 36.119 33.7232 36.1221 33.6603C36.0429 33.6623 35.9658 33.6699 35.8934 33.664C35.8331 33.6587 35.7783 33.6374 35.6996 33.6178C35.6829 33.6883 35.668 33.7522 35.6429 33.8609C35.6164 33.7613 35.5985 33.6932 35.5812 33.6279C35.4836 33.6308 35.4678 33.6641 35.4865 33.8194C35.4488 33.8506 35.4105 33.8838 35.3706 33.9152C35.3628 33.9212 35.3491 33.9188 35.3104 33.9241C35.3394 33.8813 35.3603 33.8509 35.394 33.8006C35.3085 33.7574 35.2155 33.7105 35.0787 33.6419C35.0712 33.7407 35.0673 33.7905 35.0621 33.8571C35.0892 33.8651 35.126 33.8763 35.1698 33.8895C35.1762 33.9226 35.1979 33.9655 35.1905 34.0115C35.1799 34.078 35.1485 34.147 35.0821 34.218C35.0735 34.1675 35.0649 34.1165 35.0531 34.0499C34.9754 34.0997 34.916 34.1376 34.8521 34.1785C34.8398 34.0009 34.7592 33.8862 34.5753 33.8778C34.584 33.8246 34.5895 33.7919 34.596 33.7536C34.5455 33.7719 34.4944 33.7902 34.4454 33.8081C34.413 33.767 34.3825 33.7284 34.3519 33.6898C34.3832 33.6033 34.4142 33.5166 34.4513 33.4132C34.3525 33.4362 34.2679 33.4562 34.1771 33.4774C34.1691 33.4518 34.1605 33.4249 34.1506 33.3918C34.1928 33.3884 34.2249 33.3858 34.286 33.3806C34.2364 33.3082 34.1957 33.2483 34.164 33.2025C34.0655 33.2266 33.9897 33.245 33.9185 33.2625C33.9158 33.2025 33.9137 33.154 33.9117 33.1017C33.8425 33.1267 33.7903 33.1451 33.7385 33.164C33.6873 32.9313 33.6873 32.9313 33.4374 32.8417C33.4286 32.8728 33.4191 32.9045 33.4103 32.9356C33.3623 32.9372 33.3175 32.9384 33.2622 32.9401C33.2921 32.8989 33.3186 32.862 33.3528 32.8149C33.2899 32.7352 33.2248 32.6524 33.1547 32.5639C33.1218 32.5649 33.0772 32.5663 33.0295 32.5677C33.0206 32.5994 33.0113 32.6313 32.9978 32.6805C32.9348 32.661 32.8748 32.6426 32.8144 32.6239C32.82 32.61 32.8251 32.5962 32.8307 32.5824C32.8581 32.578 32.8854 32.5733 32.9165 32.5684C33.019 32.4892 32.9536 32.3618 32.7598 32.2776C32.7855 32.2392 32.8112 32.2007 32.8296 32.1735C32.7534 32.1687 32.672 32.1635 32.5851 32.1582C32.5561 32.2084 32.5292 32.2549 32.5029 32.3008C32.3914 32.2007 32.2818 32.1025 32.1626 31.9959C32.2008 31.9559 32.25 31.904 32.3463 31.8033C32.2363 31.8354 32.1707 31.8544 32.0657 31.8853C32.1203 31.7416 32.1569 31.6456 32.1936 31.5497C32.1313 31.5517 32.0977 31.5525 32.0307 31.5546C31.9953 31.5843 31.9392 31.6312 31.8832 31.6776C31.8654 31.6552 31.8476 31.6329 31.8268 31.6064C31.8543 31.5612 31.8829 31.514 31.9239 31.447C31.833 31.4305 31.7485 31.4152 31.6637 31.3996C31.6293 31.3561 31.6003 31.3065 31.5582 31.2713C31.5383 31.2546 31.4925 31.2654 31.4588 31.2635C31.4574 31.2245 31.4563 31.1852 31.4551 31.1456C31.3058 31.203 31.152 31.2622 30.9895 31.3251C30.9544 31.1985 30.9872 31.0963 31.0483 30.9913C31.085 31.0682 31.1565 31.0778 31.2841 31.0325C31.2043 30.9795 31.2183 30.8518 31.071 30.8954C30.7673 30.8091 30.6858 30.7308 30.6632 30.4963C30.6007 30.5027 30.5346 30.5097 30.4777 30.5157C30.4411 30.4691 30.4115 30.4316 30.3854 30.3866C30.4251 30.3744 30.4661 30.3689 30.5076 30.3634C30.5179 30.3193 30.5284 30.2747 30.5405 30.2231C30.489 30.2417 30.44 30.2597 30.3972 30.2751C30.3436 30.2245 30.2934 30.1768 30.2328 30.1191C30.2157 30.1918 30.2053 30.2359 30.2026 30.2476C30.2742 30.2982 30.3336 30.3399 30.3854 30.3866C30.3097 30.4285 30.2382 30.463 30.181 30.4901C30.0247 30.367 30.0149 30.2089 30.0683 30.0131C29.9918 29.9905 29.9123 29.9674 29.8324 29.9437C29.8284 29.778 29.6175 29.7833 29.6009 29.6363C29.5246 29.6367 29.4607 29.637 29.3202 29.6379C29.4463 29.5788 29.5024 29.5526 29.5826 29.515C29.5493 29.4928 29.5213 29.4565 29.4811 29.4507C29.3611 29.4336 29.2361 29.4289 29.1027 29.4183C29.1414 29.3621 29.1676 29.3242 29.2013 29.2752C29.171 29.2724 29.1442 29.2694 29.1073 29.2661C29.1327 29.2219 29.1581 29.1778 29.1954 29.1127C29.1369 29.0988 29.0811 29.0858 29.0163 29.0702C29.0025 29.1104 28.9928 29.1391 28.9812 29.1732C28.9533 29.1757 28.9132 29.1901 28.8937 29.1786C28.8583 29.1568 28.8242 29.1256 28.8096 29.0874C28.7828 29.0163 28.77 28.9371 28.7507 28.8588C28.6945 28.8748 28.6188 28.896 28.5424 28.9178C28.5201 28.8449 28.5883 28.7023 28.4161 28.7819C28.4241 28.7372 28.43 28.7055 28.4335 28.6847C28.3761 28.6666 28.3208 28.6495 28.2619 28.631C28.2527 28.661 28.2431 28.6919 28.2253 28.7505C28.1675 28.6884 28.1187 28.6357 28.0497 28.5619C28.1143 28.5472 28.1479 28.5395 28.2032 28.5271C28.1697 28.4847 28.1416 28.4489 28.0985 28.3944C28.0411 28.4078 27.9567 28.428 27.8639 28.4497C27.8937 28.4071 27.9204 28.3691 27.9531 28.323C27.8895 28.2425 27.8244 28.1597 27.7538 28.0707C27.7264 28.0858 27.6958 28.1028 27.6389 28.1341C27.5834 28.076 27.5188 28.009 27.4553 27.9427C27.4113 27.9616 27.3692 27.9792 27.2985 28.0092C27.3393 27.8998 27.3753 27.8039 27.4191 27.6871C27.3013 27.7158 27.2252 27.7345 27.1401 27.7553C27.1421 27.7368 27.1456 27.7086 27.1491 27.6796C27.0779 27.6597 27.0049 27.639 26.9295 27.6177C26.9336 27.5955 26.9395 27.5639 26.9457 27.5319C26.8874 27.5336 26.8311 27.5354 26.7848 27.5369C26.7046 27.3511 26.4274 27.3163 26.4871 27.039C26.3569 27.014 26.2395 26.9909 26.1034 26.9646C26.1033 26.9398 26.1031 26.8993 26.1028 26.8515C26.0613 26.8657 26.013 26.8825 25.9384 26.9082C25.9448 26.821 25.9508 26.7392 25.9587 26.6363C25.877 26.5879 25.7805 26.5311 25.682 26.4729C25.6708 26.5113 25.6613 26.5429 25.6498 26.5824C25.5737 26.5262 25.5006 26.4719 25.4079 26.4033C25.408 26.4001 25.4069 26.3607 25.3899 26.303C25.3842 26.2961 25.394 26.3076 25.4044 26.3191C25.4431 26.2911 25.4818 26.2631 25.5417 26.2197C25.5562 26.2885 25.5669 26.3386 25.5808 26.4069C25.622 26.3656 25.653 26.3343 25.6763 26.3106C25.626 26.2468 25.5854 26.1951 25.5358 26.1321C25.4757 26.1886 25.425 26.2362 25.3897 26.3022C25.2412 26.323 25.0786 26.3235 25.1521 26.0744C25.061 26.0724 24.9872 26.071 24.9104 26.0695C24.8753 26.0253 24.8394 25.9795 24.8001 25.9299C24.7577 25.9492 24.7162 25.9681 24.6697 25.9888C24.6647 25.9438 24.6602 25.8993 24.6532 25.8367C24.5837 25.8494 24.5154 25.862 24.4832 25.8679C24.3679 25.793 24.361 25.6461 24.2078 25.6631C24.2583 25.5222 24.1795 25.4818 24.0617 25.4744C24.0754 25.4153 24.0888 25.3592 24.1042 25.2939C24.053 25.3115 24.0047 25.3282 23.9552 25.3456C23.9585 25.3232 23.9615 25.3024 23.9645 25.2817C23.895 25.2288 23.8242 25.1751 23.7409 25.1115C23.6977 25.1393 23.638 25.1775 23.5628 25.2255C23.5447 25.1933 23.5286 25.1634 23.5067 25.1244C23.5596 25.1201 23.592 25.1172 23.6487 25.1124C23.5349 25.0152 23.4329 24.9282 23.3203 24.8322C23.3078 24.8658 23.2981 24.8926 23.2787 24.9447C23.2374 24.933 23.191 24.9198 23.1198 24.8998C23.1193 24.8919 23.1165 24.8446 23.1137 24.7994C23.0714 24.8167 23.0297 24.8341 22.9882 24.8511C22.9203 24.8139 22.927 24.6801 23.0042 24.5207C22.9727 24.52 22.9412 24.5192 22.9112 24.5181C22.9164 24.487 22.9216 24.456 22.927 24.4252C22.8671 24.427 22.8107 24.4288 22.7472 24.4307C22.7511 24.4022 22.7551 24.3731 22.7618 24.3217C22.7175 24.3496 22.6823 24.3722 22.6462 24.3937C22.6163 24.4114 22.5859 24.4273 22.5504 24.4468C22.5579 24.4043 22.5638 24.3727 22.5709 24.333C22.5263 24.3538 22.4844 24.3731 22.4334 24.3969C22.4064 24.3629 22.3779 24.3267 22.3449 24.2848C22.3676 24.2523 22.394 24.2146 22.4366 24.1534C22.3855 24.1329 22.336 24.1129 22.2719 24.0874C22.2705 24.053 22.2686 24.0034 22.2663 23.9453C22.2433 23.9379 22.2159 23.9289 22.1824 23.9179C22.1481 23.8457 22.1097 23.7651 22.0746 23.6913C21.9694 23.6946 21.8794 23.6972 21.7803 23.7006C21.7838 23.6729 21.7873 23.6447 21.7911 23.6154C21.7557 23.609 21.7187 23.6021 21.6562 23.5905C21.6916 23.4971 21.7245 23.4091 21.7576 23.3213C21.717 23.3224 21.6718 23.3239 21.6271 23.3253C21.6179 23.3572 21.6087 23.3892 21.5989 23.4212C21.5537 23.4226 21.5088 23.4238 21.4655 23.4253C21.282 23.1898 20.9946 23.0527 20.8504 22.7818C20.8382 22.759 20.8086 22.7348 20.7822 22.7364C20.6179 22.7477 20.672 22.6041 20.6392 22.4982C20.5841 22.5081 20.5213 22.5189 20.4585 22.5303C20.4222 22.4432 20.3892 22.3537 20.3491 22.2691C20.3137 22.1951 20.2705 22.1258 20.2261 22.0465C20.2117 22.0526 20.1697 22.071 20.1039 22.0998C20.0675 22.0193 20.0295 21.9357 19.9782 21.8233C19.9462 21.8133 19.8778 21.7923 19.7809 21.7626C19.82 21.8374 19.8458 21.8868 19.8719 21.9364C19.8626 21.9448 19.8527 21.9532 19.8431 21.9614C19.8124 21.9354 19.7857 21.9045 19.7508 21.8846C19.7175 21.8657 19.6759 21.8584 19.6262 21.8421C19.6714 21.8046 19.6907 21.7885 19.7252 21.7597C19.6663 21.7213 19.6098 21.6848 19.5438 21.6417C19.568 21.5735 19.592 21.5071 19.6144 21.4442C19.4975 21.4244 19.3969 21.4073 19.2845 21.3885C19.286 21.3755 19.2897 21.3468 19.2938 21.3172C19.2503 21.3065 19.205 21.2951 19.1644 21.2849C19.174 21.2347 19.1801 21.2019 19.1902 21.1488C19.1227 21.1597 19.0544 21.171 18.9803 21.1833C18.9716 21.0806 18.9635 20.992 18.9536 20.8733C18.88 20.8024 18.8311 20.6753 18.6789 20.6317C18.6133 20.6132 18.6029 20.4893 18.56 20.3962C18.4866 20.3825 18.3886 20.3636 18.2887 20.3445C18.2586 20.3648 18.229 20.3896 18.1998 20.4141ZM24.4144 21.5536C24.483 21.5935 24.5501 21.6324 24.6322 21.6799C24.5993 21.5685 24.5716 21.4742 24.5383 21.3617C24.4883 21.4388 24.4494 21.4993 24.4144 21.5536Z" fill="#FFA900"/>
</svg>
