<svg width="28" height="34" viewBox="0 0 28 34" fill="none" xmlns="http://www.w3.org/2000/svg">
<path d="M5.91994 3.73399C8.87461 0.746798 12.6031 0 14.0981 0V9.8275C12.9347 9.8275 12.3822 10.3882 12.2514 10.6686C6.76414 8.32147 3.98534 3.8229 3.28185 1.867C3.91499 2.72048 5.30439 3.46728 5.91994 3.73399Z" fill="white"/>
<path d="M22.0813 3.73399C19.1266 0.746798 15.3981 0 13.9031 0V9.8275C15.0665 9.8275 15.619 10.3882 15.7498 10.6686C21.2371 8.32147 24.0159 3.8229 24.7194 1.867C24.0862 2.72048 22.6968 3.46728 22.0813 3.73399Z" fill="white"/>
<path d="M7.63493 9.91057C8.46709 10.5449 10.3401 11.888 11.1747 12.1859C9.58555 12.6892 6.65276 12.9388 7.63493 9.91057Z" fill="white"/>
<path d="M6.14156 8.58674C5.6178 8.1896 4.70939 6.91817 4.32065 6.33209C2.80959 7.85979 2.64539 10.8712 2.75218 12.1859C2.75218 22.1107 0.917392 26.7471 0 27.8248L3.8866 24.8226L6.51811 29.216L9.57856 26.5257L14.013 34V31.5371L12.5531 26.5257C11.358 21.1986 7.67152 18.828 5.97767 18.3086L9.57856 16.2401L9.70132 14.5233C4.84011 14.5233 5.30264 10.5656 6.14156 8.58674Z" fill="white"/>
<path d="M20.3651 9.91057C19.5329 10.5449 17.6599 11.888 16.8253 12.1859C18.4144 12.6892 21.3472 12.9388 20.3651 9.91057Z" fill="white"/>
<path d="M21.8584 8.58674C22.3822 8.1896 23.2906 6.91817 23.6793 6.33209C25.1904 7.85979 25.3546 10.8712 25.2478 12.1859C25.2478 22.1107 27.0826 26.7471 28 27.8248L24.1134 24.8226L21.4819 29.216L18.4214 26.5257L13.987 34V31.5371L15.4469 26.5257C16.642 21.1986 20.3285 18.828 22.0223 18.3086L18.4214 16.2401L18.2987 14.5233C23.1599 14.5233 22.6974 10.5656 21.8584 8.58674Z" fill="white"/>
<path d="M11.6321 15.0381C11.6321 13.0761 13.2868 12.1103 14.1141 11.8727V25.5608C14.1141 21.9791 11.2184 19.2586 9.77054 18.346L11.6321 17.1768V15.0381Z" fill="white"/>
<path d="M16.5912 15.0381C16.5912 13.0761 14.9365 12.1103 14.1092 11.8727V25.5608C14.1092 21.9791 17.0049 19.2586 18.4528 18.346L16.5912 17.1768V15.0381Z" fill="white"/>
</svg>
