<svg width="41" height="48" viewBox="0 0 41 48" fill="none" xmlns="http://www.w3.org/2000/svg">
<path d="M8.84698 5.27153C13.0642 1.05431 18.3859 0 20.5196 0V13.8741C18.8592 13.8741 18.0706 14.6657 17.8839 15.0615C10.0519 11.748 6.0857 5.39704 5.0816 2.63576C5.98529 3.84068 7.96839 4.89499 8.84698 5.27153Z" fill="white"/>
<path d="M31.9138 5.27153C27.6966 1.05431 22.3749 0 20.2412 0V13.8741C21.9016 13.8741 22.6902 14.6657 22.8769 15.0615C30.7089 11.748 34.6751 5.39704 35.6792 2.63576C34.7755 3.84068 32.7924 4.89499 31.9138 5.27153Z" fill="white"/>
<path d="M11.2944 13.9914C12.4822 14.8869 15.1555 16.7831 16.3468 17.2036C14.0786 17.9142 9.89256 18.2666 11.2944 13.9914Z" fill="white"/>
<path d="M9.16293 12.1224C8.41535 11.5617 7.11878 9.76679 6.56393 8.93939C4.40718 11.0961 4.17282 15.3475 4.32523 17.2036C4.32523 31.2151 1.70643 37.7607 0.397034 39.282L5.94441 35.0436L9.70038 41.2462L14.0686 37.4481L20.3978 48V44.523L18.3141 37.4481C16.6084 29.9274 11.3466 26.5807 8.929 25.8475L14.0686 22.9272L14.2438 20.5035C7.30536 20.5035 7.96554 14.9161 9.16293 12.1224Z" fill="white"/>
<path d="M29.4645 13.9914C28.2767 14.8869 25.6034 16.7831 24.4121 17.2036C26.6804 17.9142 30.8664 18.2666 29.4645 13.9914Z" fill="white"/>
<path d="M31.596 12.1224C32.3436 11.5617 33.6401 9.76679 34.195 8.93939C36.3517 11.0961 36.5861 15.3475 36.4337 17.2036C36.4337 31.2151 39.0525 37.7607 40.3619 39.282L34.8145 35.0436L31.0585 41.2462L26.6903 37.4481L20.3611 48V44.523L22.4448 37.4481C24.1505 29.9274 29.4123 26.5807 31.8299 25.8475L26.6903 22.9272L26.5151 20.5035C33.4536 20.5035 32.7934 14.9161 31.596 12.1224Z" fill="white"/>
<path d="M16.9994 21.2302C16.9994 18.4604 19.3611 17.0969 20.542 16.7614V36.0858C20.542 31.0292 16.4089 27.1885 14.3423 25.9002L16.9994 24.2496V21.2302Z" fill="white"/>
<path d="M24.0777 21.2302C24.0777 18.4604 21.716 17.0969 20.5351 16.7614V36.0858C20.5351 31.0292 24.6682 27.1885 26.7348 25.9002L24.0777 24.2496V21.2302Z" fill="white"/>
</svg>
