<svg width="47" height="38" viewBox="0 0 47 38" fill="none" xmlns="http://www.w3.org/2000/svg">
<path fill-rule="evenodd" clip-rule="evenodd" d="M42.1316 0.260031C42.7095 0.0298415 43.342 -0.0495493 43.9633 0.0301209C44.5846 0.109791 45.1719 0.34561 45.6643 0.713033C46.1566 1.08046 46.5359 1.56605 46.7626 2.11927C46.9893 2.6725 47.0552 3.27312 46.9535 3.85864L41.6499 34.3052C41.1354 37.242 37.7306 38.9263 34.8847 37.4634C32.5042 36.2395 28.9685 34.3539 25.7882 32.3863C24.198 31.4015 19.327 28.2477 19.9257 26.0036C20.4401 24.0848 28.6247 16.8743 33.3016 12.5874C35.1373 10.9031 34.3001 9.93157 32.1324 11.4808C26.7493 15.3273 18.1064 21.1767 15.2488 22.8233C12.7279 24.2751 11.4137 24.523 9.84227 24.2751C6.97533 23.8236 4.31652 23.1243 2.14644 22.2722C-0.785981 21.1213 -0.643336 17.3058 2.1441 16.1948L42.1316 0.260031Z" fill="white"/>
</svg>
