<svg width="44" height="41" viewBox="0 0 44 41" fill="none" xmlns="http://www.w3.org/2000/svg">
<path fill-rule="evenodd" clip-rule="evenodd" d="M39.2779 0.822364C39.8143 0.581075 40.4014 0.497856 40.9781 0.581367C41.5548 0.664879 42.1 0.91207 42.557 1.29721C43.014 1.68235 43.366 2.19136 43.5765 2.77126C43.7869 3.35116 43.8481 3.98075 43.7536 4.5945L38.8308 36.5092C38.3533 39.5876 35.1929 41.3531 32.5513 39.8196C30.3417 38.5367 27.0597 36.5602 24.1078 34.4978C22.6318 33.4655 18.1105 30.1596 18.6661 27.8073C19.1437 25.7959 26.7407 18.2377 31.0818 13.7441C32.7857 11.9787 32.0087 10.9603 29.9965 12.5842C24.9999 16.6161 16.9774 22.7476 14.325 24.4736C11.9851 25.9954 10.7652 26.2553 9.30661 25.9954C6.64548 25.5222 4.17754 24.7891 2.16324 23.8959C-0.558658 22.6896 -0.426253 18.6901 2.16107 17.5255L39.2779 0.822364Z" fill="white"/>
</svg>
