<svg width="121" height="26" viewBox="0 0 121 26" fill="none" xmlns="http://www.w3.org/2000/svg">
<path d="M0 25.4846L3.50041 0.5H10.9427L14.4431 25.4846H9.5867L9.0506 20.2691H5.39252L4.85642 25.4846H0ZM5.83401 16.1466H8.60911L8.04147 10.6188L7.66305 4.62246H6.78007L6.40164 10.6188L5.83401 16.1466Z" fill="#EFEFEF"/>
<path d="M17.0236 25.4846L13.3655 0.5H18.2535L20.114 13.0235L20.3979 21.3622H21.2808L21.5647 13.0235L23.4252 0.5H28.3132L24.6551 25.4846H17.0236Z" fill="#EFEFEF"/>
<path d="M27.2853 25.4846L30.7857 0.5H38.228L41.7285 25.4846H36.872L36.3359 20.2691H32.6778L32.1418 25.4846H27.2853ZM33.1193 16.1466H35.8944L35.3268 10.6188L34.9484 4.62246H34.0654L33.687 10.6188L33.1193 16.1466Z" fill="#EFEFEF"/>
<path d="M44.7617 25.4846V4.62246H40.7095V0.5H53.5443V4.62246H49.492V25.4846H44.7617Z" fill="#EFEFEF"/>
<path d="M52.5381 25.4846L56.0385 0.5H63.4808L66.9812 25.4846H62.1248L61.5887 20.2691H57.9306L57.3945 25.4846H52.5381ZM58.3721 16.1466H61.1472L60.5796 10.6188L60.2012 4.62246H59.3182L58.9398 10.6188L58.3721 16.1466Z" fill="#EFEFEF"/>
<path d="M68.5435 25.4846V0.5H74.6298C76.9844 0.5 78.682 0.973667 79.7227 1.921C80.7739 2.85792 81.3362 4.41426 81.4098 6.59C81.4308 7.17298 81.4414 7.68308 81.4414 8.12031C81.4519 8.55754 81.4519 8.99477 81.4414 9.432C81.4414 9.86924 81.4308 10.3793 81.4098 10.9623C81.3678 12.3156 81.1365 13.4243 80.716 14.2884C80.3061 15.1524 79.6649 15.8135 78.7924 16.2715L81.7567 25.4846H76.7426L74.3459 17.0523H73.2737V25.4846H68.5435ZM73.2737 12.9299H74.6298C75.292 12.9299 75.7913 12.7789 76.1277 12.477C76.4641 12.1751 76.648 11.7535 76.6795 11.2122C76.7111 10.7021 76.7321 10.1711 76.7426 9.61939C76.7531 9.05723 76.7531 8.50029 76.7426 7.94854C76.7321 7.38639 76.7111 6.85026 76.6795 6.34016C76.648 5.78841 76.4641 5.3668 76.1277 5.07531C75.7913 4.77341 75.292 4.62246 74.6298 4.62246H73.2737V12.9299Z" fill="#EFEFEF"/>
<path d="M98.9071 22.2853H102.027V19.2949H89.6472V22.2853H92.7673V25.5H83.2558V22.2853H86.376V19.1703H89.5213V12.9902H92.6415V6.78515H95.7869V0.580101H99.0329V6.78515H102.153V16.0803H105.298V22.2853H108.419V25.5H98.9071V22.2853ZM95.8875 6.90975V13.0899H92.7673V16.0803H98.9071V6.90975H95.8875Z" fill="#61EDC0"/>
<path d="M117.88 13.0899H114.76V22.2853H117.88V25.5H108.419V22.2853H111.539V12.9902H114.659V3.79477H111.539V0.580101H121V3.79477H117.88V13.0899Z" fill="#61EDC0"/>
</svg>
