<svg width="60" height="60" viewBox="0 0 60 60" fill="none" xmlns="http://www.w3.org/2000/svg">
<path d="M28.1125 10.435C28.6912 8.7702 28.9805 7.93783 29.4085 7.70713C29.7788 7.50745 30.2245 7.50745 30.595 7.70713C31.0227 7.93783 31.312 8.7702 31.8907 10.435L35.7165 21.441C35.8813 21.9148 35.9635 22.1517 36.112 22.3281C36.243 22.484 36.4102 22.6055 36.599 22.682C36.8125 22.7686 37.0632 22.7737 37.5647 22.7839L49.2142 23.0213C50.9765 23.0572 51.8575 23.0752 52.2092 23.4108C52.5135 23.7013 52.6513 24.1254 52.5758 24.5392C52.4888 25.0175 51.7865 25.5498 50.382 26.6148L41.0967 33.654C40.697 33.9573 40.4973 34.1088 40.3753 34.3043C40.2675 34.4773 40.2038 34.6738 40.1893 34.8768C40.173 35.1068 40.2455 35.3468 40.3907 35.827L43.765 46.9798C44.2753 48.6668 44.5305 49.5103 44.32 49.9483C44.1378 50.3275 43.777 50.5895 43.36 50.6458C42.8782 50.7105 42.155 50.2073 40.7083 49.2005L31.144 42.5453C30.7322 42.2588 30.5265 42.1155 30.3028 42.0598C30.105 42.0108 29.8982 42.0108 29.7007 42.0598C29.477 42.1155 29.271 42.2588 28.8593 42.5453L19.2951 49.2005C17.8484 50.2073 17.1251 50.7105 16.6433 50.6458C16.2264 50.5895 15.8657 50.3275 15.6834 49.9483C15.4729 49.5103 15.7281 48.6668 16.2385 46.9798L19.6126 35.827C19.7578 35.3468 19.8305 35.1068 19.8141 34.8768C19.7997 34.6738 19.7358 34.4773 19.6281 34.3043C19.5062 34.1088 19.3063 33.9573 18.9066 33.654L9.62145 26.6148C8.21695 25.5498 7.5147 25.0175 7.42753 24.5392C7.35205 24.1254 7.48985 23.7013 7.79418 23.4108C8.14578 23.0752 9.02685 23.0572 10.789 23.0213L22.4385 22.7839C22.94 22.7737 23.1908 22.7686 23.4044 22.682C23.5932 22.6055 23.7604 22.484 23.8914 22.3281C24.0398 22.1517 24.1222 21.9148 24.2869 21.441L28.1125 10.435Z" stroke="#39E05E" stroke-width="4" stroke-linecap="round" stroke-linejoin="round"/>
</svg>
