<svg width="60" height="60" viewBox="0 0 60 60" fill="none" xmlns="http://www.w3.org/2000/svg">
<path fill-rule="evenodd" clip-rule="evenodd" d="M30 2.5C20.5151 2.5 15.3787 7.57215 12.7583 12.5934C11.4775 15.0475 10.7956 17.4737 10.4311 19.268C10.2478 20.1707 10.1418 20.9283 10.0811 21.4697C10.043 21.8104 10 22.1567 10 22.5C10 29.306 13.0804 33.2843 15.7362 35.3835C17.0574 36.428 17.7927 37.4975 17.9102 38.4367L19.4718 50.9303C19.941 54.6835 23.1315 57.5 26.914 57.5H33.086C36.8685 57.5 40.059 54.6835 40.5282 50.9303L42.0897 38.4367C42.2072 37.4975 42.9425 36.428 44.2637 35.3835C46.9195 33.2843 50 29.306 50 22.5C50 22.1567 49.957 21.8104 49.9188 21.4697C49.8583 20.9283 49.7522 20.1707 49.5687 19.268C49.2045 17.4737 48.5225 15.0475 47.2417 12.5934C44.6212 7.57215 39.485 2.5 30 2.5ZM18.8368 31.4613C16.0953 29.294 14.6629 25.4812 15.05 22.0264C15.0966 21.6108 15.1812 21.0012 15.3311 20.2633C15.6331 18.7763 16.1885 16.8275 17.1909 14.9066C19.1369 11.1778 22.7505 7.5 30 7.5C37.2495 7.5 40.863 11.1778 42.809 14.9066C43.8115 16.8275 44.367 18.7763 44.669 20.2633C44.8187 21.0012 44.9035 21.6108 44.95 22.0264C45.337 25.4812 43.9047 29.294 41.1632 31.4613C39.4632 32.8048 37.4888 34.935 37.1285 37.8168L36.543 42.5H23.457L22.8715 37.8168C22.5113 34.935 20.5367 32.8048 18.8368 31.4613ZM24.082 47.5L24.4332 50.31C24.5896 51.5613 25.653 52.5 26.914 52.5H33.086C34.347 52.5 35.4105 51.5613 35.5667 50.31L35.918 47.5H24.082Z" fill="#39E05E"/>
</svg>
