<svg width="60" height="60" viewBox="0 0 60 60" fill="none" xmlns="http://www.w3.org/2000/svg">
<path opacity="0.5" d="M5 30C5 18.2149 5 12.3223 8.66117 8.66117C12.3223 5 18.2149 5 30 5C41.785 5 47.6777 5 51.3387 8.66117C55 12.3223 55 18.2149 55 30C55 41.785 55 47.6777 51.3387 51.3387C47.6777 55 41.785 55 30 55C18.2149 55 12.3223 55 8.66117 51.3387C5 47.6777 5 41.785 5 30Z" stroke="#39E05E" stroke-width="4"/>
<path d="M17.5 35L23.2322 29.2677C24.2085 28.2915 25.7915 28.2915 26.7677 29.2677L30.7323 33.2323C31.7085 34.2085 33.2915 34.2085 34.2677 33.2323L42.5 25M42.5 25V31.25M42.5 25H36.25" stroke="#39E05E" stroke-width="4" stroke-linecap="round" stroke-linejoin="round"/>
</svg>
