<svg width="60" height="60" viewBox="0 0 60 60" fill="none" xmlns="http://www.w3.org/2000/svg">
<path d="M50 30C50.0058 28.0088 49.7108 26.0281 49.125 24.125C48.003 20.4934 45.8694 17.2567 42.974 14.7941C40.0787 12.3315 36.5416 10.745 32.777 10.2203C29.0124 9.6956 25.1763 10.2545 21.7179 11.8316C18.2596 13.4087 15.3223 15.9386 13.25 19.125" stroke="#39E05E" stroke-width="4" stroke-linecap="round" stroke-linejoin="round"/>
<path d="M10.0001 30C9.9943 31.9912 10.2893 33.9719 10.8751 35.875C11.9971 39.5066 14.1307 42.7433 17.0261 45.2059C19.9214 47.6685 23.4585 49.255 27.2231 49.7797C30.9877 50.3044 34.8238 49.7455 38.2821 48.1684C41.7405 46.5913 44.6778 44.0614 46.7501 40.875" stroke="#39E05E" stroke-width="4" stroke-linecap="round" stroke-linejoin="round"/>
<path d="M47.5 27.5L50 30L52.5 27.5" stroke="#39E05E" stroke-width="5" stroke-linecap="round" stroke-linejoin="round"/>
<path d="M12.5 32.5L10 30L7.5 32.5" stroke="#39E05E" stroke-width="5" stroke-linecap="round" stroke-linejoin="round"/>
</svg>
