<svg width="60" height="60" viewBox="0 0 60 60" fill="none" xmlns="http://www.w3.org/2000/svg">
<path d="M14.1738 24.7859L21.8292 14.4283C26.7775 7.73318 29.2518 4.38563 31.5603 5.09303C33.8685 5.80046 33.8685 9.90623 33.8685 18.1178V18.8921C33.8685 21.8538 33.8685 23.3347 34.815 24.2635L34.865 24.3117C35.8318 25.221 37.373 25.221 40.4555 25.221C46.0028 25.221 48.7765 25.221 49.7138 26.9033C49.7293 26.931 49.7443 26.9593 49.759 26.9875C50.644 28.696 49.038 30.8688 45.826 35.2143L38.1708 45.5718C33.2223 52.2668 30.748 55.6145 28.4395 54.907C26.1313 54.1995 26.1313 50.0938 26.1313 41.882L26.1315 41.1083C26.1315 38.1463 26.1315 36.6655 25.185 35.7365L25.135 35.6885C24.1683 34.7793 22.627 34.7793 19.5444 34.7793C13.9972 34.7793 11.2236 34.7793 10.2863 33.0968C10.2707 33.069 10.2556 33.041 10.241 33.0125C9.35611 31.3043 10.962 29.1315 14.1738 24.7859Z" stroke="#39E05E" stroke-width="4"/>
</svg>
