<svg width="60" height="60" viewBox="0 0 60 60" fill="none" xmlns="http://www.w3.org/2000/svg">
<path d="M38.75 21.25H38.775M26.25 18.75H26.275M18.75 28.75H18.775M30 52.5C17.5736 52.5 7.5 42.4265 7.5 30C7.5 17.5736 17.5736 7.5 30 7.5C42.4265 7.5 52.5 17.5736 52.5 30C52.5 34.1423 49.1423 37.5 45 37.5H43.5C42.571 37.5 42.1065 37.5 41.7178 37.5615C39.5783 37.9005 37.9005 39.5783 37.5615 41.7178C37.5 42.1065 37.5 42.571 37.5 43.5V45C37.5 49.1423 34.1423 52.5 30 52.5ZM40 21.25C40 21.9403 39.4403 22.5 38.75 22.5C38.0597 22.5 37.5 21.9403 37.5 21.25C37.5 20.5597 38.0597 20 38.75 20C39.4403 20 40 20.5597 40 21.25ZM27.5 18.75C27.5 19.4403 26.9403 20 26.25 20C25.5597 20 25 19.4403 25 18.75C25 18.0597 25.5597 17.5 26.25 17.5C26.9403 17.5 27.5 18.0597 27.5 18.75ZM20 28.75C20 29.4403 19.4403 30 18.75 30C18.0597 30 17.5 29.4403 17.5 28.75C17.5 28.0597 18.0597 27.5 18.75 27.5C19.4403 27.5 20 28.0597 20 28.75Z" stroke="#39E05E" stroke-width="4" stroke-linecap="round" stroke-linejoin="round"/>
</svg>
