<svg width="60" height="60" viewBox="0 0 60 60" fill="none" xmlns="http://www.w3.org/2000/svg">
<path d="M24.1181 54C23.1462 54 22.1743 53.6108 21.494 52.9297C20.5221 51.9568 20.1334 50.5946 20.5221 49.2324L21.8828 44.5621C22.1743 43.4919 21.8828 42.4216 21.1052 41.7405L17.0233 37.654C16.2458 36.8756 15.1767 36.5838 14.1077 36.8756L9.44261 38.2378C8.17916 38.627 6.72133 38.2378 5.74944 37.2648C4.48599 36 4.29161 33.9567 5.36069 32.4973L10.5117 24.908C11.9695 22.8648 14.302 21.5999 16.8289 21.5999C16.9261 21.5999 17.0233 21.5999 17.1205 21.5999L21.8828 22.281C38.502 1.84854 51.3309 5.15666 51.914 5.25396C52.5944 5.44855 53.1775 6.03234 53.3719 6.71342C53.5663 7.2972 56.7735 20.1405 36.3639 36.7783L37.0442 41.5459C37.0442 41.6432 37.0442 41.7405 37.0442 41.8378C37.0442 44.3675 35.8779 46.7027 33.7398 48.1622L26.2562 53.3189C25.5759 53.7081 24.8956 54 24.1181 54ZM23.9237 38.7243C25.7703 40.4756 26.4506 43.1027 25.7703 45.6324L24.7012 49.5243L31.4072 44.854C32.3791 44.173 32.9623 43.1027 32.9623 42.0324L32.1848 36.2919C32.0876 35.6108 32.3791 34.8324 32.9623 34.4432C48.5124 22.0864 49.7759 12.5513 49.6787 9.14586C49.5815 9.14586 49.5815 9.14586 49.4843 9.14586C45.8884 9.14586 36.3639 10.7999 24.4097 25.881C23.9237 26.4648 23.2434 26.7567 22.5631 26.6594L16.8289 25.881C15.6627 25.881 14.5936 26.4648 14.0105 27.4378L9.34542 34.1513L13.233 33.081C15.6627 32.4 18.2868 33.081 20.1334 34.9297L23.9237 38.7243ZM42.9727 17.6107C42.9727 18.7394 42.0591 19.654 40.9317 19.654C39.8043 19.654 38.8908 18.7394 38.8908 17.6107C38.8908 16.4821 39.8043 15.5675 40.9317 15.5675C42.0591 15.5675 42.9727 16.4821 42.9727 17.6107Z" fill="#39E05E"/>
</svg>
