<svg width="31" height="37" viewBox="0 0 31 37" fill="none" xmlns="http://www.w3.org/2000/svg">
<path d="M6.824 4.47028C9.95719 1.33709 13.911 0.553795 15.4962 0.553795V10.8616C14.2626 10.8616 13.6767 11.4497 13.538 11.7437C7.7192 9.28195 4.77251 4.56353 4.02652 2.51204C4.69791 3.40723 6.17126 4.19053 6.824 4.47028Z" fill="white"/>
<path d="M23.9617 4.47028C20.8286 1.33709 16.8748 0.553795 15.2895 0.553795V10.8616C16.5231 10.8616 17.109 11.4497 17.2478 11.7437C23.0665 9.28195 26.0132 4.56353 26.7592 2.51204C26.0878 3.40723 24.6145 4.19053 23.9617 4.47028Z" fill="white"/>
<path d="M8.6426 10.9487C9.52504 11.6141 11.5112 13.0228 12.3963 13.3353C10.7111 13.8632 7.60109 14.125 8.6426 10.9487Z" fill="white"/>
<path d="M7.05901 9.56019C6.5036 9.14363 5.54031 7.81007 5.12809 7.19535C3.52572 8.79771 3.35161 11.9563 3.46484 13.3353C3.46484 23.7451 1.51921 28.6081 0.546387 29.7384L4.66781 26.5895L7.45831 31.1977L10.7037 28.3759L15.406 36.2155V33.6322L13.8579 28.3759C12.5906 22.7884 8.68141 20.302 6.88521 19.7572L10.7037 17.5876L10.8338 15.7869C5.67893 15.7869 6.16941 11.6358 7.05901 9.56019Z" fill="white"/>
<path d="M22.1419 10.9487C21.2594 11.6141 19.2733 13.0228 18.3882 13.3353C20.0734 13.8632 23.1834 14.125 22.1419 10.9487Z" fill="white"/>
<path d="M23.7255 9.56019C24.2809 9.14363 25.2442 7.81007 25.6564 7.19535C27.2587 8.79771 27.4329 11.9563 27.3196 13.3353C27.3196 23.7451 29.2653 28.6081 30.2381 29.7384L26.1167 26.5895L23.3262 31.1977L20.0808 28.3759L15.3785 36.2155V33.6322L16.9266 28.3759C18.1939 22.7884 22.1031 20.302 23.8993 19.7572L20.0808 17.5876L19.9506 15.7869C25.1055 15.7869 24.6151 11.6358 23.7255 9.56019Z" fill="white"/>
<path d="M12.8813 16.3268C12.8813 14.269 14.6359 13.256 15.5133 13.0067V27.3638C15.5133 23.607 12.4426 20.7536 10.9072 19.7964L12.8813 18.5701V16.3268Z" fill="white"/>
<path d="M18.1399 16.3268C18.1399 14.269 16.3853 13.256 15.508 13.0067V27.3638C15.508 23.607 18.5787 20.7536 20.114 19.7964L18.1399 18.5701V16.3268Z" fill="white"/>
</svg>
