<svg width="26" height="25" viewBox="0 0 26 25" fill="none" xmlns="http://www.w3.org/2000/svg">
<path d="M9.21152 12.6683L16.4785 12.6683M16.4785 12.6683L13.3641 15.7827M16.4785 12.6683L13.3641 9.55389" stroke="#39E05E" stroke-width="1.66103" stroke-linecap="round" stroke-linejoin="round"/>
<path d="M13.4165 22.9277C8.52274 22.9277 6.07574 22.9277 4.55548 21.4073C3.03512 19.8871 3.03512 17.4401 3.03512 12.5463C3.03512 7.65242 3.03513 5.2055 4.55548 3.68518C6.07574 2.16486 8.52275 2.16486 13.4165 2.16486C18.3104 2.16486 20.7573 2.16486 22.2776 3.68518C23.798 5.2055 23.798 7.65243 23.798 12.5463C23.798 17.4401 23.798 19.8871 22.2776 21.4073C21.2668 22.4183 19.8462 22.757 17.5691 22.8705" stroke="#39E05E" stroke-width="1.66103" stroke-linecap="round"/>
</svg>
