<svg width="26" height="25" viewBox="0 0 26 25" fill="none" xmlns="http://www.w3.org/2000/svg">
<path d="M12.8106 17.7368V10.4698M12.8106 10.4698L15.925 13.5842M12.8106 10.4698L9.69614 13.5842" stroke="#081D21" stroke-width="1.66103" stroke-linecap="round" stroke-linejoin="round"/>
<path d="M16.9631 7.35535H12.8105H8.65796" stroke="#081D21" stroke-width="1.66103" stroke-linecap="round"/>
<path d="M23.192 12.546C23.192 17.4398 23.192 19.8868 21.6717 21.4071C20.1514 22.9275 17.7044 22.9275 12.8106 22.9275C7.91674 22.9275 5.46982 22.9275 3.9495 21.4071C2.42917 19.8868 2.42917 17.4398 2.42917 12.546C2.42917 7.65218 2.42917 5.20526 3.9495 3.68494C5.46982 2.16461 7.91674 2.16461 12.8106 2.16461C17.7044 2.16461 20.1514 2.16461 21.6717 3.68494C22.6826 4.69582 23.0213 6.11635 23.1348 8.39347" stroke="#081D21" stroke-width="1.66103" stroke-linecap="round"/>
</svg>
