<svg width="73" height="73" viewBox="0 0 73 73" fill="none" xmlns="http://www.w3.org/2000/svg">
<g filter="url(#filter0_i_1_25)">
<rect x="3" y="3" width="67" height="67" rx="16.75" fill="white"/>
</g>
<rect x="3" y="3" width="67" height="67" rx="16.75" stroke="#42A7D8" stroke-width="6"/>
<path d="M27.0947 21.2745C30.6686 17.8461 34.9428 16.989 36.751 16.989C38.5592 16.989 43.0691 17.8461 46.643 21.2745C47.3876 20.9684 49.0682 20.1113 49.834 19.1318C48.9831 21.3766 45.6219 26.5396 38.9847 29.2334C38.8264 28.9116 38.1581 28.2681 36.751 28.2681C35.3439 28.2681 34.9113 28.9116 34.7531 29.2334C28.1158 26.5396 24.7547 21.3766 23.9037 19.1318C24.6696 20.1113 26.3501 20.9684 27.0947 21.2745Z" fill="#42A7D8"/>
<path d="M29.1691 28.3634C30.1757 29.0915 32.4412 30.633 33.4508 30.9748C31.5285 31.5525 27.9811 31.839 29.1691 28.3634Z" fill="#42A7D8"/>
<path d="M25.1602 24.2564C25.6304 24.929 26.7292 26.3883 27.3628 26.8441C26.348 29.1152 25.7886 33.6575 31.6686 33.6575L31.5201 35.6279L27.1645 38.0019C29.2134 38.598 33.6724 41.3187 35.118 47.4327L36.8525 53.1843L38.6183 47.4327C40.0639 41.3187 44.5229 38.598 46.5718 38.0019L42.2162 35.6279L42.0677 33.6575C47.9477 33.6575 47.3883 29.1152 46.3735 26.8441C47.0071 26.3883 48.1059 24.929 48.5761 24.2564C50.4038 26.0097 50.6024 29.4659 50.4732 30.9748C50.4732 42.3656 52.6926 47.6868 53.8022 48.9236L49.1011 45.478L45.9181 50.5204L42.2162 47.4327L36.8525 56.011L31.5201 47.4327L27.8182 50.5204L24.6352 45.478L19.9341 48.9236C21.0437 47.6868 23.263 42.3656 23.263 30.9748C23.1339 29.4659 23.3325 26.0097 25.1602 24.2564Z" fill="#42A7D8"/>
<path d="M44.5672 28.3634C43.5606 29.0915 41.2951 30.633 40.2855 30.9748C42.2078 31.5525 45.7552 31.839 44.5672 28.3634Z" fill="#42A7D8"/>
<path d="M34.004 34.2483C34.004 31.9965 35.9995 30.8881 37.0002 30.6154C38.0009 30.8881 40.0024 31.9965 40.0024 34.2483V36.7029L42.2541 38.0448C40.5028 39.0922 37.0062 42.2145 37.0062 46.3252C37.0062 42.2145 33.5036 39.0922 31.7523 38.0448L34.004 36.7029V34.2483Z" fill="#42A7D8"/>
<defs>
<filter id="filter0_i_1_25" x="0" y="-1.90735e-06" width="73" height="73" filterUnits="userSpaceOnUse" color-interpolation-filters="sRGB">
<feFlood flood-opacity="0" result="BackgroundImageFix"/>
<feBlend mode="normal" in="SourceGraphic" in2="BackgroundImageFix" result="shape"/>
<feColorMatrix in="SourceAlpha" type="matrix" values="0 0 0 0 0 0 0 0 0 0 0 0 0 0 0 0 0 0 127 0" result="hardAlpha"/>
<feOffset dy="11"/>
<feComposite in2="hardAlpha" operator="arithmetic" k2="-1" k3="1"/>
<feColorMatrix type="matrix" values="0 0 0 0 0.960784 0 0 0 0 0.960784 0 0 0 0 0.960784 0 0 0 1 0"/>
<feBlend mode="normal" in2="shape" result="effect1_innerShadow_1_25"/>
</filter>
</defs>
</svg>
