<svg width="73" height="73" viewBox="0 0 73 73" fill="none" xmlns="http://www.w3.org/2000/svg">
<g filter="url(#filter0_i_1_19)">
<rect x="3" y="3" width="67" height="67" rx="16.75" fill="white"/>
</g>
<rect x="3" y="3" width="67" height="67" rx="16.75" stroke="#42A7D8" stroke-width="6"/>
<path fill-rule="evenodd" clip-rule="evenodd" d="M32.4438 21.1129C30.2751 22.1639 28.5008 23.0533 28.5012 23.0894C28.5022 23.1828 33.7061 25.6347 33.8908 25.6287C33.9748 25.6261 34.5843 25.365 35.2452 25.0487L36.4469 24.4736L39.0718 25.729L41.2211 24.8305C44.4597 23.4766 44.796 23.3283 44.7433 23.2784C44.6734 23.2123 43.5117 22.6317 40.3602 21.0881C38.8371 20.3421 37.3588 19.6106 37.075 19.4626C36.7913 19.3146 36.5204 19.1955 36.473 19.1978C36.4257 19.2001 34.6125 20.0619 32.4438 21.1129ZM22.932 25.6953L20.6745 26.7802V31.5415C20.6745 34.1602 20.7041 36.3027 20.7405 36.3027C20.7767 36.3027 21.8874 35.8548 23.2087 35.3073L25.611 34.3119V29.2932L26.7849 29.8882C27.6895 30.3463 28.5947 30.8034 29.5003 31.2597L31.0418 32.0361L31.7278 31.7476C32.1579 31.5663 32.5873 31.3833 33.0157 31.1985C33.3468 31.055 34.1595 30.7145 34.8217 30.4415C35.4839 30.1685 36.0969 29.8939 36.1838 29.8313C36.2993 29.7482 34.8913 29.0244 30.9762 27.1539C28.025 25.744 25.5158 24.5949 25.4 24.6004C25.2843 24.6059 24.1737 25.0985 22.932 25.6953ZM45.1502 25.9999C43.6126 26.6457 42.3536 27.1999 42.3521 27.2315C42.3508 27.263 43.1888 27.7266 44.2145 28.2614C45.2401 28.7964 46.0793 29.2627 46.0793 29.2978C46.0793 29.3329 45.1717 29.742 44.0626 30.2072C42.9533 30.6722 40.1495 31.8502 37.8318 32.825L30.0658 36.0908C28.1123 36.9124 26.3515 37.6529 26.1528 37.7366C22.1626 39.4171 21.0659 39.8834 20.9153 39.9634C20.7638 40.044 20.7295 40.5122 20.7026 42.862L20.6704 45.6646L24.708 47.5785L27.5073 46.4031C29.047 45.7567 30.3066 45.194 30.3066 45.1525C30.3066 45.1112 30.0221 44.9387 29.6746 44.7691C29.3268 44.5995 28.609 44.224 28.0792 43.9346C27.5495 43.6451 27.0213 43.3795 26.9053 43.3443C26.7894 43.3091 26.6962 43.2477 26.6981 43.2076C26.7 43.1676 27.9327 42.6229 29.4372 41.997C32.3595 40.7814 34.5959 39.8446 39.397 37.8246C41.5439 36.9216 43.6911 36.0191 45.8385 35.1171C47.7258 34.3246 49.9201 33.399 50.7148 33.0603L52.1596 32.4443L52.224 26.7755L50.1765 25.7977C49.0502 25.26 48.0876 24.8214 48.0371 24.823C47.9867 24.8244 46.6876 25.354 45.1502 25.9999ZM51.611 36.2257C51.3093 36.3628 50.7133 36.6195 50.2866 36.7961C49.8599 36.9727 49.0502 37.3126 48.4873 37.5516L47.4639 37.9859L47.4406 40.4743C47.4277 41.8429 47.3735 42.9566 47.3202 42.9494C47.1991 42.9326 45.2809 42.0174 43.3528 41.0562C41.9612 40.3626 41.8738 40.335 41.5468 40.4857C41.3577 40.5728 40.2278 41.0443 39.0358 41.5335C37.8438 42.0227 36.8297 42.4549 36.782 42.4941C36.7344 42.5331 39.1334 43.7428 42.1133 45.1824L47.531 47.7998L49.8454 46.686C51.1181 46.0734 52.2004 45.5147 52.2503 45.4444C52.3625 45.2864 52.3529 35.9547 52.2405 35.9673C52.1961 35.9723 51.9128 36.0886 51.611 36.2257ZM38.795 47.1788C38.3936 47.3393 37.9922 47.5001 37.591 47.6612C36.3794 48.1488 36.6168 48.165 35.1753 47.4974C34.2153 47.0528 33.8014 46.9156 33.6218 46.9822C33.4871 47.0321 32.3275 47.5175 31.0447 48.0608C29.7621 48.604 28.6681 49.0485 28.6137 49.0485C28.0755 49.0485 28.9702 49.5458 32.4226 51.166L36.4715 53.0659L38.175 52.2835C39.112 51.8531 41.0018 50.9913 42.3748 50.3684C43.7476 49.7454 44.8539 49.2195 44.8332 49.1996C44.8123 49.1798 43.662 48.6303 42.2768 47.9784L39.7582 46.7933L38.795 47.1788Z" fill="#42A7D8"/>
<defs>
<filter id="filter0_i_1_19" x="0" y="-1.90735e-06" width="73" height="73" filterUnits="userSpaceOnUse" color-interpolation-filters="sRGB">
<feFlood flood-opacity="0" result="BackgroundImageFix"/>
<feBlend mode="normal" in="SourceGraphic" in2="BackgroundImageFix" result="shape"/>
<feColorMatrix in="SourceAlpha" type="matrix" values="0 0 0 0 0 0 0 0 0 0 0 0 0 0 0 0 0 0 127 0" result="hardAlpha"/>
<feOffset dy="11"/>
<feComposite in2="hardAlpha" operator="arithmetic" k2="-1" k3="1"/>
<feColorMatrix type="matrix" values="0 0 0 0 0.960784 0 0 0 0 0.960784 0 0 0 0 0.960784 0 0 0 1 0"/>
<feBlend mode="normal" in2="shape" result="effect1_innerShadow_1_19"/>
</filter>
</defs>
</svg>
