<svg width="52" height="51" viewBox="0 0 52 51" fill="none" xmlns="http://www.w3.org/2000/svg">
<rect x="1.46655" y="1" width="49" height="49" rx="8.98333" stroke="white" stroke-width="1.63333"/>
<path d="M18.7056 14.1322C21.3608 11.5724 24.5363 10.9324 25.8797 10.9324C27.2231 10.9324 30.5737 11.5724 33.2289 14.1322C33.7821 13.9036 35.0307 13.2637 35.5996 12.5323C34.9674 14.2083 32.4703 18.0632 27.5392 20.0745C27.4216 19.8342 26.9251 19.3538 25.8797 19.3538C24.8342 19.3538 24.5129 19.8342 24.3953 20.0745C19.4642 18.0632 16.967 14.2083 16.3348 12.5323C16.9038 13.2637 18.1524 13.9036 18.7056 14.1322Z" fill="white"/>
<path d="M20.2467 19.425C20.9946 19.9685 22.6777 21.1195 23.4278 21.3747C21.9997 21.806 19.3641 22.0199 20.2467 19.425Z" fill="white"/>
<path d="M17.2684 16.3585C17.6177 16.8607 18.434 17.9502 18.9047 18.2906C18.1508 19.9863 17.7352 23.3777 22.1037 23.3777L21.9934 24.8489L18.7574 26.6214C20.2796 27.0665 23.5925 29.0978 24.6664 33.6628L25.9551 37.9571L27.267 33.6628C28.3409 29.0978 31.6538 27.0665 33.176 26.6214L29.94 24.8489L29.8297 23.3777C34.1982 23.3777 33.7826 19.9863 33.0287 18.2906C33.4994 17.9502 34.3157 16.8607 34.665 16.3585C36.0229 17.6676 36.1705 20.2481 36.0745 21.3747C36.0745 29.8794 37.7234 33.8525 38.5478 34.7759L35.0551 32.2033L32.6903 35.9681L29.94 33.6628L25.9551 40.0676L21.9934 33.6628L19.2431 35.9681L16.8783 32.2033L13.3856 34.7759C14.21 33.8525 15.8589 29.8794 15.8589 21.3747C15.7629 20.2481 15.9105 17.6676 17.2684 16.3585Z" fill="white"/>
<path d="M31.6867 19.425C30.9388 19.9685 29.2557 21.1195 28.5056 21.3747C29.9337 21.806 32.5693 22.0199 31.6867 19.425Z" fill="white"/>
<path d="M23.8388 23.8188C23.8388 22.1376 25.3213 21.31 26.0648 21.1063C26.8083 21.31 28.2952 22.1376 28.2952 23.8188V25.6515L29.9682 26.6534C28.6671 27.4354 26.0693 29.7666 26.0693 32.8359C26.0693 29.7666 23.467 27.4354 22.1659 26.6534L23.8388 25.6515V23.8188Z" fill="white"/>
</svg>
