<svg width="52" height="51" viewBox="0 0 52 51" fill="none" xmlns="http://www.w3.org/2000/svg">
<rect x="1.19995" y="1" width="49" height="49" rx="8.98333" stroke="white" stroke-width="1.63333"/>
<path fill-rule="evenodd" clip-rule="evenodd" d="M36.1996 14.0707C36.5253 13.9303 36.8817 13.8819 37.2318 13.9305C37.582 13.9791 37.913 14.1229 38.1904 14.347C38.4679 14.5711 38.6816 14.8672 38.8094 15.2046C38.9371 15.542 38.9743 15.9084 38.9169 16.2655L35.9281 34.8344C35.6382 36.6255 33.7195 37.6527 32.1157 36.7605C30.7742 36.0141 28.7816 34.8641 26.9894 33.6641C26.0933 33.0635 23.3483 31.14 23.6856 29.7713C23.9755 28.6011 28.5879 24.2035 31.2235 21.589C32.258 20.5618 31.7862 19.9693 30.5646 20.9141C27.531 23.26 22.6604 26.8275 21.05 27.8317C19.6294 28.7172 18.8888 28.8683 18.0032 28.7172C16.3876 28.4418 14.8892 28.0153 13.6663 27.4956C12.0137 26.7937 12.0941 24.4667 13.665 23.7891L36.1996 14.0707Z" fill="white"/>
</svg>
