<svg width="52" height="51" viewBox="0 0 52 51" fill="none" xmlns="http://www.w3.org/2000/svg">
<rect x="1.59998" y="1" width="49" height="49" rx="8.98333" stroke="white" stroke-width="1.63333"/>
<path fill-rule="evenodd" clip-rule="evenodd" d="M22.452 10.8181C20.5016 11.8455 18.9059 12.7149 18.9062 12.7502C18.9071 12.8415 23.5872 15.2384 23.7533 15.2325C23.8289 15.23 24.3771 14.9748 24.9714 14.6655L26.0522 14.1034L28.4129 15.3306L30.3459 14.4523C33.2585 13.1288 33.561 12.9837 33.5136 12.935C33.4507 12.8703 32.406 12.3028 29.5716 10.7938C28.2018 10.0646 26.8723 9.3495 26.6171 9.20481C26.3619 9.06012 26.1183 8.94372 26.0757 8.94598C26.0331 8.94823 24.4024 9.79067 22.452 10.8181ZM13.8975 15.2976L11.8672 16.3581V21.0126C11.8672 23.5726 11.8938 25.667 11.9266 25.667C11.9591 25.667 12.9581 25.2291 14.1463 24.6939L16.3069 23.7209V18.8148L17.3626 19.3964C18.1762 19.8442 18.9902 20.2911 19.8048 20.7371L21.1911 21.4962L21.808 21.2141C22.1949 21.0369 22.581 20.858 22.9663 20.6773C23.2641 20.5371 23.995 20.2042 24.5906 19.9374C25.1861 19.6705 25.7374 19.402 25.8156 19.3409C25.9194 19.2596 24.6532 18.552 21.1321 16.7235C18.4779 15.3452 16.2212 14.2219 16.1171 14.2273C16.0131 14.2327 15.0142 14.7143 13.8975 15.2976ZM33.8795 15.5954C32.4967 16.2267 31.3644 16.7684 31.3631 16.7993C31.3619 16.8302 32.1156 17.2833 33.038 17.8062C33.9604 18.3292 34.7151 18.785 34.7151 18.8193C34.7151 18.8536 33.8989 19.2535 32.9014 19.7083C31.9037 20.1629 29.3821 21.3144 27.2977 22.2673L20.3134 25.4598C18.5564 26.263 16.9728 26.9869 16.7941 27.0687C13.2056 28.7115 12.2192 29.1673 12.0838 29.2456C11.9475 29.3244 11.9167 29.782 11.8925 32.0791L11.8635 34.8188L15.4947 36.6897L18.0123 35.5408C19.397 34.9089 20.5299 34.3588 20.5299 34.3183C20.5299 34.2779 20.274 34.1093 19.9614 33.9434C19.6487 33.7776 19.0031 33.4106 18.5267 33.1276C18.0502 32.8446 17.5752 32.585 17.4709 32.5505C17.3666 32.5162 17.2828 32.4561 17.2845 32.417C17.2863 32.3779 18.3949 31.8454 19.748 31.2335C22.3762 30.0452 24.3874 29.1294 28.7054 27.1548C30.6362 26.272 32.5673 25.3898 34.4986 24.5081C36.1959 23.7333 38.1694 22.8285 38.8841 22.4973L40.1835 21.8952L40.2414 16.3536L38.3999 15.3977C37.3871 14.8721 36.5213 14.4433 36.4759 14.4449C36.4306 14.4463 35.2622 14.964 33.8795 15.5954ZM39.6901 25.5917C39.4188 25.7258 38.8828 25.9767 38.499 26.1494C38.1153 26.322 37.3871 26.6543 36.8808 26.8879L35.9604 27.3124L35.9394 29.745C35.9278 31.0829 35.8791 32.1716 35.8311 32.1645C35.7222 32.1481 33.9971 31.2535 32.2631 30.3139C31.0115 29.6358 30.9329 29.6088 30.6388 29.7561C30.4688 29.8413 29.4525 30.3022 28.3805 30.7805C27.3085 31.2587 26.3965 31.6812 26.3536 31.7194C26.3108 31.7576 28.4683 32.9402 31.1483 34.3474L36.0207 36.9061L38.1022 35.8172C39.2468 35.2185 40.2202 34.6723 40.265 34.6036C40.3659 34.4491 40.3573 25.3268 40.2563 25.3392C40.2163 25.344 39.9615 25.4577 39.6901 25.5917ZM28.164 36.299C27.8029 36.456 27.442 36.6132 27.0811 36.7706C25.9914 37.2473 26.205 37.2631 24.9086 36.6105C24.0452 36.1759 23.673 36.0417 23.5114 36.1069C23.3902 36.1557 22.3474 36.6301 21.1937 37.1612C20.0401 37.6923 19.0563 38.1268 19.0073 38.1268C18.5233 38.1268 19.328 38.6129 22.4329 40.1968L26.0743 42.0541L27.6064 41.2892C28.4491 40.8685 30.1487 40.026 31.3835 39.4171C32.6181 38.808 33.613 38.2939 33.5944 38.2745C33.5756 38.2552 32.5411 37.718 31.2953 37.0807L29.0302 35.9222L28.164 36.299Z" fill="white"/>
</svg>
