<svg width="47" height="35" viewBox="0 0 47 35" fill="none" xmlns="http://www.w3.org/2000/svg">
<rect x="1" y="0.5" width="45" height="34" rx="17" stroke="url(#paint0_linear_180_278)"/>
<path d="M22.9477 21.9156C22.7877 21.9156 22.6517 21.8676 22.5397 21.7716C22.4437 21.6596 22.3957 21.5236 22.3957 21.3636V9.65161C22.3957 9.49161 22.4437 9.36361 22.5397 9.26761C22.6517 9.15561 22.7877 9.09961 22.9477 9.09961H24.0757C24.2357 9.09961 24.3637 9.15561 24.4597 9.26761C24.5557 9.36361 24.6037 9.49161 24.6037 9.65161V21.3636C24.6037 21.5236 24.5557 21.6596 24.4597 21.7716C24.3637 21.8676 24.2357 21.9156 24.0757 21.9156H22.9477ZM22.7317 25.8996C22.5717 25.8996 22.4357 25.8516 22.3237 25.7556C22.2277 25.6436 22.1797 25.5076 22.1797 25.3476V23.8356C22.1797 23.6596 22.2277 23.5236 22.3237 23.4276C22.4357 23.3156 22.5717 23.2596 22.7317 23.2596H24.2677C24.4277 23.2596 24.5557 23.3156 24.6517 23.4276C24.7637 23.5236 24.8197 23.6596 24.8197 23.8356V25.3476C24.8197 25.5076 24.7637 25.6436 24.6517 25.7556C24.5557 25.8516 24.4277 25.8996 24.2677 25.8996H22.7317Z" fill="url(#paint1_linear_180_278)"/>
<defs>
<linearGradient id="paint0_linear_180_278" x1="0.49951" y1="17.4997" x2="62.5921" y2="23.7487" gradientUnits="userSpaceOnUse">
<stop stop-color="#3B1E75"/>
<stop offset="1" stop-color="#7814F8"/>
</linearGradient>
<linearGradient id="paint1_linear_180_278" x1="22.1797" y1="17.4994" x2="25.7788" y2="17.5428" gradientUnits="userSpaceOnUse">
<stop stop-color="#3B1E75"/>
<stop offset="1" stop-color="#7814F8"/>
</linearGradient>
</defs>
</svg>
