<svg width="19" height="19" viewBox="0 0 19 19" fill="none" xmlns="http://www.w3.org/2000/svg">
<path d="M4.75 8.70801C4.75 6.46883 4.75 5.34925 5.44562 4.65363C6.14124 3.95801 7.26083 3.95801 9.5 3.95801H11.875C14.1142 3.95801 15.2337 3.95801 15.9294 4.65363C16.625 5.34925 16.625 6.46883 16.625 8.70801V12.6663C16.625 14.9055 16.625 16.0251 15.9294 16.7207C15.2337 17.4163 14.1142 17.4163 11.875 17.4163H9.5C7.26083 17.4163 6.14124 17.4163 5.44562 16.7207C4.75 16.0251 4.75 14.9055 4.75 12.6663V8.70801Z" stroke="#7814F8" stroke-width="1.1875"/>
<path opacity="0.5" d="M4.75 15.0413C3.43833 15.0413 2.375 13.9781 2.375 12.6663V7.91634C2.375 4.93078 2.375 3.438 3.30249 2.5105C4.22999 1.58301 5.72277 1.58301 8.70833 1.58301H11.875C13.1867 1.58301 14.25 2.64633 14.25 3.95801" stroke="#7814F8" stroke-width="1.1875"/>
</svg>
