<svg width="18" height="20" viewBox="0 0 18 20" fill="none" xmlns="http://www.w3.org/2000/svg">
<path d="M8.99553 10.448C9.98675 10.448 10.7903 9.6417 10.7903 8.64707C10.7903 7.65246 9.98675 6.84617 8.99553 6.84617C8.0043 6.84617 7.2008 7.65246 7.2008 8.64707C7.2008 9.6417 8.0043 10.448 8.99553 10.448ZM8.99553 10.448V13.1493M16.991 9.20535C16.991 13.6085 13.8054 17.7326 9.45318 18.9392C9.15705 19.0203 8.834 19.0203 8.53787 18.9392C4.18563 17.7326 1 13.6085 1 9.20535V5.25234C1 4.51397 1.55637 3.67656 2.24734 3.39742L7.24567 1.34442C8.36737 0.885193 9.63265 0.885193 10.7544 1.34442L15.7527 3.39742C16.4347 3.67656 17 4.51397 17 5.25234L16.991 9.20535Z" stroke="url(#paint0_linear_183_726)" stroke-width="2" stroke-miterlimit="10" stroke-linecap="round" stroke-linejoin="round"/>
<defs>
<linearGradient id="paint0_linear_183_726" x1="0.999829" y1="9.99983" x2="22.7154" y2="11.4779" gradientUnits="userSpaceOnUse">
<stop stop-color="#391F72"/>
<stop offset="1" stop-color="#7814F8"/>
</linearGradient>
</defs>
</svg>
