<svg width="19" height="20" viewBox="0 0 19 20" fill="none" xmlns="http://www.w3.org/2000/svg">
<path fill-rule="evenodd" clip-rule="evenodd" d="M9.5 19.5C14.7467 19.5 19 15.2467 19 10C19 8.06474 18.4213 6.26464 17.4275 4.76329L9.87472 13.1554C9.14364 13.9677 7.91329 14.0877 7.03891 13.4319L3.58889 10.8444C3.12251 10.4946 3.028 9.83301 3.37778 9.36667C3.72756 8.90032 4.38918 8.80574 4.85556 9.15556L8.30553 11.743L16.0592 3.12786C14.3541 1.49979 12.0438 0.5 9.5 0.5C4.2533 0.5 0 4.7533 0 10C0 15.2467 4.2533 19.5 9.5 19.5Z" fill="#7814F8"/>
</svg>
