<svg width="67" height="68" viewBox="0 0 67 68" fill="none" xmlns="http://www.w3.org/2000/svg">
<rect x="1.5" y="2" width="64" height="64" rx="18" fill="black"/>
<rect x="1.5" y="2" width="64" height="64" rx="18" stroke="white" stroke-width="3"/>
<path d="M24.0161 19.1522C27.4841 15.8088 31.6317 14.973 33.3863 14.973C35.141 14.973 39.5173 15.8088 42.9853 19.1522C43.7078 18.8537 45.3386 18.0178 46.0818 17.0626C45.2561 19.2517 41.9945 24.2867 35.5538 26.9136C35.4003 26.5998 34.7518 25.9723 33.3863 25.9723C32.0209 25.9723 31.6011 26.5998 31.4476 26.9136C25.0069 24.2867 21.7453 19.2517 20.9196 17.0626C21.6628 18.0178 23.2936 18.8537 24.0161 19.1522Z" fill="white"/>
<path d="M26.029 26.0653C27.0058 26.7752 29.2042 28.2785 30.1838 28.6119C28.3186 29.1752 24.8762 29.4546 26.029 26.0653Z" fill="white"/>
<path d="M22.1389 22.0601C22.5952 22.716 23.6614 24.1391 24.2762 24.5836C23.2915 26.7984 22.7486 31.228 28.4544 31.228L28.3104 33.1495L24.0838 35.4647C26.072 36.046 30.399 38.6992 31.8017 44.6616L33.4848 50.2705L35.1983 44.6616C36.601 38.6992 40.928 36.046 42.9162 35.4647L38.6896 33.1495L38.5455 31.228C44.2514 31.228 43.7085 26.7984 42.7238 24.5836C43.3386 24.1391 44.4048 22.716 44.8611 22.0601C46.6347 23.7699 46.8274 27.1404 46.7021 28.6119C46.7021 39.7201 48.8556 44.9094 49.9324 46.1155L45.3705 42.7553L42.2818 47.6726L38.6896 44.6616L33.4848 53.027L28.3104 44.6616L24.7182 47.6726L21.6294 42.7553L17.0676 46.1155C18.1443 44.9094 20.2979 39.7201 20.2979 28.6119C20.1726 27.1404 20.3653 23.7699 22.1389 22.0601Z" fill="white"/>
<path d="M40.971 26.0653C39.9942 26.7752 37.7958 28.2785 36.8162 28.6119C38.6814 29.1752 42.1238 29.4546 40.971 26.0653Z" fill="white"/>
<path d="M30.7207 31.8041C30.7207 29.6082 32.6571 28.5273 33.6282 28.2613C34.5992 28.5273 36.5414 29.6082 36.5414 31.8041V34.1979L38.7264 35.5065C37.027 36.5279 33.6339 39.5727 33.6339 43.5815C33.6339 39.5727 30.2351 36.5279 28.5357 35.5065L30.7207 34.1979V31.8041Z" fill="white"/>
</svg>
