<svg width="67" height="68" viewBox="0 0 67 68" fill="none" xmlns="http://www.w3.org/2000/svg">
<rect x="1.5" y="2" width="64" height="64" rx="18" fill="black"/>
<rect x="1.5" y="2" width="64" height="64" rx="18" stroke="white" stroke-width="3"/>
<path fill-rule="evenodd" clip-rule="evenodd" d="M47.2139 19.072C47.6392 18.8886 48.1048 18.8253 48.5621 18.8888C49.0194 18.9523 49.4517 19.1401 49.8141 19.4328C50.1765 19.7255 50.4557 20.1123 50.6226 20.553C50.7894 20.9937 50.838 21.4721 50.7631 21.9386L46.8593 46.1918C46.4806 48.5313 43.9745 49.8729 41.8798 48.7076C40.1276 47.7327 37.5251 46.2306 35.1842 44.6633C34.0138 43.8788 30.4285 41.3666 30.8691 39.5789C31.2478 38.0504 37.2721 32.3066 40.7145 28.8917C42.0657 27.5501 41.4495 26.7762 39.8539 28.0102C35.8916 31.0743 29.53 35.7339 27.4266 37.0455C25.5712 38.202 24.6038 38.3995 23.4472 38.202C21.3369 37.8424 19.3799 37.2853 17.7826 36.6065C15.6242 35.6898 15.7292 32.6504 17.7809 31.7654L47.2139 19.072Z" fill="white"/>
</svg>
