<svg width="68" height="68" viewBox="0 0 68 68" fill="none" xmlns="http://www.w3.org/2000/svg">
<g filter="url(#filter0_b_1_315)">
<rect x="2" y="2" width="64" height="64" rx="15.5676" fill="black" fill-opacity="0.2"/>
<rect x="2" y="2" width="64" height="64" rx="15.5676" stroke="#4FAF70" stroke-opacity="0.5" stroke-width="3"/>
<path d="M24.5159 19.1522C27.9839 15.8088 32.1315 14.973 33.8861 14.973C35.6408 14.973 40.0171 15.8088 43.4851 19.1522C44.2076 18.8537 45.8384 18.0178 46.5816 17.0626C45.7559 19.2517 42.4943 24.2867 36.0537 26.9136C35.9001 26.5998 35.2516 25.9723 33.8861 25.9723C32.5207 25.9723 32.1009 26.5998 31.9474 26.9136C25.5068 24.2867 22.2452 19.2517 21.4194 17.0626C22.1626 18.0178 23.7934 18.8537 24.5159 19.1522Z" fill="white"/>
<path d="M26.5288 26.0653C27.5056 26.7752 29.704 28.2785 30.6837 28.6119C28.8184 29.1752 25.376 29.4546 26.5288 26.0653Z" fill="white"/>
<path d="M22.6387 22.0601C23.095 22.716 24.1612 24.1391 24.776 24.5836C23.7913 26.7984 23.2484 31.228 28.9543 31.228L28.8102 33.1495L24.5836 35.4647C26.5718 36.046 30.8988 38.6992 32.3015 44.6616L33.9846 50.2705L35.6981 44.6616C37.1009 38.6992 41.4278 36.046 43.416 35.4647L39.1895 33.1495L39.0454 31.228C44.7512 31.228 44.2083 26.7984 43.2236 24.5836C43.8384 24.1391 44.9046 22.716 45.3609 22.0601C47.1345 23.7699 47.3272 27.1404 47.2019 28.6119C47.2019 39.7201 49.3555 44.9094 50.4322 46.1155L45.8704 42.7553L42.7816 47.6726L39.1895 44.6616L33.9846 53.027L28.8102 44.6616L25.218 47.6726L22.1293 42.7553L17.5674 46.1155C18.6442 44.9094 20.7977 39.7201 20.7977 28.6119C20.6724 27.1404 20.8651 23.7699 22.6387 22.0601Z" fill="white"/>
<path d="M41.4708 26.0653C40.494 26.7752 38.2956 28.2785 37.316 28.6119C39.1813 29.1752 42.6236 29.4546 41.4708 26.0653Z" fill="white"/>
<path d="M31.2206 31.8041C31.2206 29.6082 33.1569 28.5273 34.128 28.2613C35.099 28.5273 37.0412 29.6082 37.0412 31.8041V34.1979L39.2262 35.5065C37.5268 36.5279 34.1338 39.5727 34.1338 43.5815C34.1338 39.5727 30.7349 36.5279 29.0355 35.5065L31.2206 34.1979V31.8041Z" fill="white"/>
</g>
<defs>
<filter id="filter0_b_1_315" x="-39.5" y="-39.5" width="147" height="147" filterUnits="userSpaceOnUse" color-interpolation-filters="sRGB">
<feFlood flood-opacity="0" result="BackgroundImageFix"/>
<feGaussianBlur in="BackgroundImageFix" stdDeviation="20"/>
<feComposite in2="SourceAlpha" operator="in" result="effect1_backgroundBlur_1_315"/>
<feBlend mode="normal" in="SourceGraphic" in2="effect1_backgroundBlur_1_315" result="shape"/>
</filter>
</defs>
</svg>
