<svg width="68" height="68" viewBox="0 0 68 68" fill="none" xmlns="http://www.w3.org/2000/svg">
<g filter="url(#filter0_b_1_317)">
<rect x="2" y="2" width="64" height="64" rx="15.5676" fill="black" fill-opacity="0.2"/>
<rect x="2" y="2" width="64" height="64" rx="15.5676" stroke="#4FAF70" stroke-opacity="0.5" stroke-width="3"/>
<path fill-rule="evenodd" clip-rule="evenodd" d="M29.2351 14.8236C26.6876 16.1655 24.6034 17.3011 24.6039 17.3473C24.605 17.4665 30.7179 20.597 30.9348 20.5894C31.0335 20.5861 31.7495 20.2528 32.5258 19.8489L33.9374 19.1146L37.0208 20.7175L39.5455 19.5703C43.3497 17.8416 43.7449 17.6522 43.6829 17.5886C43.6007 17.5041 42.2362 16.7628 38.5342 14.792C36.7451 13.8394 35.0086 12.9055 34.6752 12.7165C34.3419 12.5275 34.0237 12.3755 33.9681 12.3784C33.9125 12.3814 31.7826 13.4817 29.2351 14.8236ZM18.0619 20.6744L15.4101 22.0596V28.1389C15.4101 31.4826 15.4449 34.2182 15.4876 34.2182C15.5302 34.2182 16.8349 33.6462 18.3869 32.9472L21.2088 31.6762V25.2683L22.5878 26.028C23.6504 26.6129 24.7136 27.1966 25.7775 27.7791L27.5882 28.7705L28.394 28.4021C28.8993 28.1706 29.4036 27.9369 29.9069 27.701C30.2958 27.5179 31.2505 27.083 32.0284 26.7345C32.8062 26.3859 33.5263 26.0353 33.6284 25.9554C33.764 25.8493 32.1101 24.9251 27.5111 22.5368C24.0445 20.7366 21.0969 19.2695 20.961 19.2765C20.8251 19.2835 19.5205 19.9125 18.0619 20.6744ZM44.1609 21.0634C42.3548 21.8879 40.8758 22.5955 40.8741 22.6359C40.8725 22.6762 41.8569 23.268 43.0618 23.951C44.2665 24.634 45.2523 25.2294 45.2523 25.2742C45.2523 25.319 44.1862 25.8413 42.8833 26.4353C41.5803 27.0291 38.2867 28.5331 35.5642 29.7777L26.4418 33.9475C24.1471 34.9965 22.0786 35.9421 21.8453 36.0489C17.1581 38.1946 15.8698 38.79 15.6929 38.8922C15.515 38.9951 15.4747 39.5928 15.4431 42.5931L15.4053 46.1715L20.1481 48.6152L23.4364 47.1145C25.245 46.2892 26.7246 45.5706 26.7246 45.5177C26.7246 45.4649 26.3904 45.2447 25.9821 45.0282C25.5737 44.8116 24.7304 44.3322 24.1081 43.9626C23.4859 43.593 22.8654 43.2539 22.7292 43.2089C22.593 43.164 22.4836 43.0856 22.4858 43.0344C22.488 42.9834 23.9361 42.2878 25.7034 41.4887C29.1361 39.9366 31.763 38.7404 37.4028 36.1614C39.9247 35.0083 42.4469 33.856 44.9694 32.7044C47.1864 31.6925 49.7639 30.5107 50.6974 30.0781L52.3946 29.2917L52.4703 22.0536L50.0651 20.8052C48.7421 20.1187 47.6114 19.5586 47.5521 19.5606C47.4928 19.5625 45.9668 20.2387 44.1609 21.0634ZM51.7502 34.1198C51.3958 34.2949 50.6957 34.6227 50.1945 34.8482C49.6933 35.0737 48.7421 35.5076 48.0809 35.8127L46.8787 36.3672L46.8513 39.5445C46.8362 41.2919 46.7725 42.7139 46.7099 42.7047C46.5676 42.6833 44.3144 41.5147 42.0496 40.2875C40.4149 39.4018 40.3122 39.3666 39.928 39.559C39.706 39.6702 38.3787 40.2722 36.9785 40.8969C35.5783 41.5215 34.3871 42.0734 34.331 42.1233C34.2751 42.1732 37.0932 43.7178 40.5935 45.5558L46.9575 48.8977L49.6762 47.4756C51.1712 46.6935 52.4426 45.9801 52.5011 45.8904C52.6329 45.6886 52.6216 33.7738 52.4897 33.7899C52.4375 33.7963 52.1046 33.9447 51.7502 34.1198ZM36.6956 48.1048C36.2241 48.3098 35.7526 48.5152 35.2813 48.7208C33.8581 49.3434 34.137 49.3641 32.4437 48.5117C31.316 47.944 30.8299 47.7688 30.6189 47.8538C30.4606 47.9176 29.0984 48.5373 27.5916 49.2309C26.0849 49.9246 24.7999 50.4921 24.736 50.4921C24.1038 50.4921 25.1548 51.1271 29.2102 53.1958L33.9663 55.6216L35.9674 54.6226C37.068 54.0731 39.2879 52.9728 40.9007 52.1774C42.5133 51.3819 43.8128 50.7104 43.7885 50.6851C43.764 50.6598 42.4127 49.9582 40.7856 49.1258L37.8271 47.6126L36.6956 48.1048Z" fill="white"/>
</g>
<defs>
<filter id="filter0_b_1_317" x="-39.5" y="-39.5" width="147" height="147" filterUnits="userSpaceOnUse" color-interpolation-filters="sRGB">
<feFlood flood-opacity="0" result="BackgroundImageFix"/>
<feGaussianBlur in="BackgroundImageFix" stdDeviation="20"/>
<feComposite in2="SourceAlpha" operator="in" result="effect1_backgroundBlur_1_317"/>
<feBlend mode="normal" in="SourceGraphic" in2="effect1_backgroundBlur_1_317" result="shape"/>
</filter>
</defs>
</svg>
