<svg width="927" height="347" viewBox="0 0 927 347" fill="none" xmlns="http://www.w3.org/2000/svg">
<path d="M464 46L464 196.5L464 347" stroke="url(#paint0_linear_3_1047)" stroke-opacity="0.8" stroke-width="2"/>
<path d="M1 210.517V141.99V141.99C1.70015 103.685 32.9516 73 71.2623 73H464.131H854.235C893.87 73 926 105.13 926 144.765V144.765V220" stroke="url(#paint1_linear_3_1047)" stroke-opacity="0.8" stroke-width="2"/>
<g filter="url(#filter0_b_3_1047)">
<rect x="408.705" y="16.8461" width="111.365" height="110.436" rx="55.2179" fill="white" fill-opacity="0.15"/>
<rect x="408.705" y="16.8461" width="111.365" height="110.436" rx="55.2179" fill="url(#paint2_radial_3_1047)"/>
<rect x="409.407" y="17.548" width="109.962" height="109.032" rx="54.516" stroke="url(#paint3_linear_3_1047)" stroke-width="1.40385"/>
<path d="M487.065 58.2965H479.581C478.727 58.2965 478.034 58.9895 478.034 59.8443V67.3276C478.034 68.1824 478.727 68.8754 479.581 68.8754H487.065C487.92 68.8754 488.613 68.1824 488.613 67.3276V59.8443C488.613 58.9895 487.92 58.2965 487.065 58.2965Z" fill="white"/>
<path d="M495.067 50.2946H490.161C489.306 50.2946 488.613 50.9875 488.613 51.8423V56.7487C488.613 57.6035 489.306 58.2965 490.161 58.2965H495.067C495.922 58.2965 496.615 57.6035 496.615 56.7487V51.8423C496.615 50.9875 495.922 50.2946 495.067 50.2946Z" fill="white"/>
<path d="M494.931 61.009H492.873C492.018 61.009 491.325 61.702 491.325 62.5568V64.615C491.325 65.4698 492.018 66.1628 492.873 66.1628H494.931C495.786 66.1628 496.479 65.4698 496.479 64.615V62.5568C496.479 61.702 495.786 61.009 494.931 61.009Z" fill="white"/>
<path d="M494.931 61.009H492.873C492.018 61.009 491.325 61.702 491.325 62.5568V64.615C491.325 65.4698 492.018 66.1628 492.873 66.1628H494.931C495.786 66.1628 496.479 65.4698 496.479 64.615V62.5568C496.479 61.702 495.786 61.009 494.931 61.009Z" fill="white"/>
<path d="M489.71 75.0465H487.651C486.796 75.0465 486.104 75.7395 486.104 76.5943V78.6526C486.104 79.5074 486.796 80.2003 487.651 80.2003H489.71C490.564 80.2003 491.257 79.5074 491.257 78.6526V76.5943C491.257 75.7395 490.564 75.0465 489.71 75.0465Z" fill="white"/>
<path d="M489.71 75.0465H487.651C486.796 75.0465 486.104 75.7395 486.104 76.5943V78.6526C486.104 79.5074 486.796 80.2003 487.651 80.2003H489.71C490.564 80.2003 491.257 79.5074 491.257 78.6526V76.5943C491.257 75.7395 490.564 75.0465 489.71 75.0465Z" fill="white"/>
<path d="M492.897 71.8593H492.805C491.95 71.8593 491.257 72.5522 491.257 73.407V73.4987C491.257 74.3535 491.95 75.0465 492.805 75.0465H492.897C493.752 75.0465 494.445 74.3535 494.445 73.4987V73.407C494.445 72.5522 493.752 71.8593 492.897 71.8593Z" fill="white"/>
<path d="M452.533 77.5035C452.533 78.3837 453.247 79.0971 454.127 79.0971C455.007 79.0971 455.72 78.3837 455.72 77.5035C455.72 76.6234 455.007 75.9099 454.127 75.9099C453.247 75.9099 452.533 76.6234 452.533 77.5035Z" fill="white"/>
<path d="M452.533 66.5143C452.533 67.3944 453.247 68.1079 454.127 68.1079C455.007 68.1079 455.72 67.3944 455.72 66.5143C455.72 65.6341 455.007 64.9207 454.127 64.9207C453.247 64.9207 452.533 65.6341 452.533 66.5143Z" fill="white"/>
<path d="M448.818 72.0863C448.818 72.9664 449.532 73.6799 450.412 73.6799C451.292 73.6799 452.006 72.9664 452.006 72.0863C452.006 71.2062 451.292 70.4927 450.412 70.4927C449.532 70.4927 448.818 71.2062 448.818 72.0863Z" fill="white"/>
<path d="M483.403 50.5997H483.311C482.457 50.5997 481.764 51.2927 481.764 52.1475V52.2392C481.764 53.094 482.457 53.787 483.311 53.787H483.403C484.258 53.787 484.951 53.094 484.951 52.2392V52.1475C484.951 51.2927 484.258 50.5997 483.403 50.5997Z" fill="white"/>
<path d="M483.403 50.5997H483.311C482.457 50.5997 481.764 51.2927 481.764 52.1475V52.2392C481.764 53.094 482.457 53.787 483.311 53.787H483.403C484.258 53.787 484.951 53.094 484.951 52.2392V52.1475C484.951 51.2927 484.258 50.5997 483.403 50.5997Z" fill="white"/>
<path d="M501.577 50.2605H501.486C500.631 50.2605 499.938 50.9535 499.938 51.8083V51.8999C499.938 52.7548 500.631 53.4477 501.486 53.4477H501.577C502.432 53.4477 503.125 52.7548 503.125 51.8999V51.8083C503.125 50.9535 502.432 50.2605 501.577 50.2605Z" fill="white"/>
<path d="M501.238 68.0957H501.146C500.292 68.0957 499.599 68.7887 499.599 69.6435V69.7351C499.599 70.59 500.292 71.2829 501.146 71.2829H501.238C502.093 71.2829 502.786 70.59 502.786 69.7351V69.6435C502.786 68.7887 502.093 68.0957 501.238 68.0957Z" fill="white"/>
<path d="M501.238 68.0957H501.146C500.292 68.0957 499.599 68.7887 499.599 69.6435V69.7351C499.599 70.59 500.292 71.2829 501.146 71.2829H501.238C502.093 71.2829 502.786 70.59 502.786 69.7351V69.6435C502.786 68.7887 502.093 68.0957 501.238 68.0957Z" fill="white"/>
<path d="M502.527 57.5505H500.469C499.614 57.5505 498.921 58.2435 498.921 59.0983V61.1565C498.921 62.0113 499.614 62.7043 500.469 62.7043H502.527C503.382 62.7043 504.075 62.0113 504.075 61.1565V59.0983C504.075 58.2435 503.382 57.5505 502.527 57.5505Z" fill="white"/>
<path d="M483.779 82.0984H478.528C477.673 82.0984 476.98 82.7914 476.98 83.6462V88.8971C476.98 89.7519 477.673 90.4448 478.528 90.4448H483.779C484.634 90.4448 485.327 89.7519 485.327 88.8971V83.6462C485.327 82.7914 484.634 82.0984 483.779 82.0984Z" fill="white"/>
<path d="M492.12 85.2911H490.061C489.207 85.2911 488.514 85.9841 488.514 86.8389V88.8972C488.514 89.752 489.207 90.445 490.061 90.445H492.12C492.975 90.445 493.668 89.752 493.668 88.8972V86.8389C493.668 85.9841 492.975 85.2911 492.12 85.2911Z" fill="white"/>
<path d="M492.12 85.2911H490.061C489.207 85.2911 488.514 85.9841 488.514 86.8389V88.8972C488.514 89.752 489.207 90.445 490.061 90.445H492.12C492.975 90.445 493.668 89.752 493.668 88.8972V86.8389C493.668 85.9841 492.975 85.2911 492.12 85.2911Z" fill="white"/>
<circle cx="468.243" cy="71.9631" r="13.8527" stroke="white" stroke-width="1.54779"/>
<path fill-rule="evenodd" clip-rule="evenodd" d="M466.894 49.0006C467.749 48.976 468.442 49.6713 468.442 50.5261V54.3762C468.442 55.231 467.755 55.9221 466.903 55.9853C457.234 56.7028 437.519 63.6276 437.519 72.0638C437.519 80.5003 457.234 87.4249 466.903 88.1423C467.755 88.2056 468.442 88.8966 468.442 89.7514V93.6018C468.442 94.4566 467.749 95.1519 466.894 95.1273C450.246 94.6478 434.75 86.4527 424.983 72.9398C424.605 72.417 424.605 71.7107 424.983 71.1879C434.75 57.6752 450.246 49.4802 466.894 49.0006ZM474.23 63.7796C472.591 62.632 470.595 61.9584 468.442 61.9584C462.861 61.9584 458.337 66.4828 458.337 72.0639C458.337 77.645 462.861 82.1694 468.442 82.1694C474.023 82.1694 478.548 77.645 478.548 72.0639C478.548 71.3398 478.471 70.6335 478.326 69.9526C478.188 69.3004 477.584 68.8755 476.917 68.8755H476.364C475.51 68.8755 474.817 68.1825 474.817 67.3277V64.9588C474.817 64.4933 474.611 64.0466 474.23 63.7796ZM467.237 66.004C467.237 65.6621 466.96 65.3849 466.618 65.3849C466.276 65.3849 465.999 65.6621 465.999 66.004V67.7148C465.999 68.196 465.755 68.6354 465.423 68.9843C465.067 69.3595 464.6 69.6414 464.083 69.6414H462.362C462.02 69.6414 461.742 69.9185 461.742 70.2605C461.742 70.6024 462.02 70.8796 462.362 70.8796H463.465C463.944 70.8796 464.296 71.3292 464.296 71.8083C464.296 72.4311 463.852 73.0465 463.229 73.0465H462.362C462.02 73.0465 461.742 73.3237 461.742 73.6656C461.742 74.0075 462.02 74.2847 462.362 74.2847H464.526C464.905 74.2847 465.255 74.4705 465.525 74.7361C465.803 75.0088 465.999 75.3661 465.999 75.7553V77.922C465.999 78.264 466.276 78.5412 466.618 78.5412C466.96 78.5412 467.237 78.264 467.237 77.922V76.9201C467.237 76.3324 467.81 75.9099 468.398 75.9099C468.914 75.9099 469.404 76.2861 469.404 76.8019V77.922C469.404 78.264 469.681 78.5412 470.023 78.5412C470.365 78.5412 470.642 78.264 470.642 77.922V75.9767C470.642 75.5182 470.885 75.1019 471.218 74.7866C471.527 74.4942 471.918 74.2847 472.343 74.2847H474.28C474.621 74.2847 474.899 74.0075 474.899 73.6656C474.899 73.3237 474.621 73.0465 474.28 73.0465H473.567C472.944 73.0465 472.5 72.4311 472.5 71.8083C472.5 71.3292 472.852 70.8796 473.331 70.8796H474.28C474.621 70.8796 474.899 70.6024 474.899 70.2605C474.899 69.9185 474.621 69.6414 474.28 69.6414H472.74C472.206 69.6414 471.725 69.35 471.354 68.965C471.333 68.9433 471.312 68.9218 471.291 68.9006C470.921 68.5324 470.642 68.06 470.642 67.538V66.004C470.642 65.6621 470.365 65.3849 470.023 65.3849C469.681 65.3849 469.404 65.6621 469.404 66.004V66.8146C469.404 67.3304 468.914 67.7066 468.398 67.7066C467.81 67.7066 467.237 67.2842 467.237 66.6964V66.004Z" fill="white"/>
</g>
<path d="M522.387 72.1329C522.387 103.956 496.422 129.759 464.388 129.759C432.353 129.759 406.389 103.956 406.389 72.1329C406.389 40.3095 432.353 14.5064 464.388 14.5064C496.422 14.5064 522.387 40.3095 522.387 72.1329Z" stroke="url(#paint4_linear_3_1047)" stroke-opacity="0.5" stroke-width="0.935897"/>
<path d="M527.026 72.064C527.026 106.434 498.985 134.301 464.387 134.301C429.79 134.301 401.748 106.434 401.748 72.064C401.748 37.6942 429.79 9.82684 464.387 9.82684C498.985 9.82684 527.026 37.6942 527.026 72.064Z" stroke="url(#paint5_linear_3_1047)" stroke-opacity="0.5" stroke-width="0.935897"/>
<path d="M531.667 71.9952C531.667 108.911 501.548 138.843 464.387 138.843C427.227 138.843 397.108 108.911 397.108 71.9952C397.108 35.079 427.227 5.14739 464.387 5.14739C501.548 5.14739 531.667 35.079 531.667 71.9952Z" stroke="url(#paint6_linear_3_1047)" stroke-opacity="0.5" stroke-width="0.935897"/>
<path d="M536.307 71.9265C536.307 111.389 504.11 143.385 464.387 143.385C424.665 143.385 392.468 111.389 392.468 71.9265C392.468 32.4638 424.665 0.467949 464.387 0.467949C504.11 0.467949 536.307 32.4638 536.307 71.9265Z" stroke="url(#paint7_linear_3_1047)" stroke-opacity="0.5" stroke-width="0.935897"/>
<defs>
<filter id="filter0_b_3_1047" x="358.705" y="-33.1539" width="211.365" height="210.436" filterUnits="userSpaceOnUse" color-interpolation-filters="sRGB">
<feFlood flood-opacity="0" result="BackgroundImageFix"/>
<feGaussianBlur in="BackgroundImageFix" stdDeviation="25"/>
<feComposite in2="SourceAlpha" operator="in" result="effect1_backgroundBlur_3_1047"/>
<feBlend mode="normal" in="SourceGraphic" in2="effect1_backgroundBlur_3_1047" result="shape"/>
</filter>
<linearGradient id="paint0_linear_3_1047" x1="463.864" y1="27.4519" x2="463.864" y2="355.786" gradientUnits="userSpaceOnUse">
<stop stop-color="#8547F6" stop-opacity="0.2"/>
<stop offset="0.25" stop-color="white" stop-opacity="0.866667"/>
<stop offset="0.734398" stop-color="white" stop-opacity="0.3"/>
<stop offset="1" stop-color="#8547F6" stop-opacity="0.2"/>
</linearGradient>
<linearGradient id="paint1_linear_3_1047" x1="1.00001" y1="146.5" x2="907.429" y2="146.5" gradientUnits="userSpaceOnUse">
<stop stop-color="#8547F6" stop-opacity="0.2"/>
<stop offset="0.25" stop-color="white" stop-opacity="0.866667"/>
<stop offset="0.849179" stop-color="white" stop-opacity="0.3"/>
<stop offset="1" stop-color="#8547F6" stop-opacity="0.2"/>
</linearGradient>
<radialGradient id="paint2_radial_3_1047" cx="0" cy="0" r="1" gradientUnits="userSpaceOnUse" gradientTransform="translate(400.757 196.942) rotate(-56.2605) scale(156.968 237.756)">
<stop stop-color="#F8744C"/>
<stop offset="1" stop-color="#0B1431" stop-opacity="0"/>
</radialGradient>
<linearGradient id="paint3_linear_3_1047" x1="436.826" y1="54.6775" x2="482.95" y2="129.213" gradientUnits="userSpaceOnUse">
<stop stop-color="#F8744C"/>
<stop offset="1" stop-color="white" stop-opacity="0"/>
</linearGradient>
<linearGradient id="paint4_linear_3_1047" x1="405.921" y1="72.1329" x2="520.507" y2="72.1329" gradientUnits="userSpaceOnUse">
<stop stop-color="white" stop-opacity="0.4"/>
<stop offset="0.5" stop-color="white"/>
<stop offset="1" stop-color="white" stop-opacity="0.2"/>
</linearGradient>
<linearGradient id="paint5_linear_3_1047" x1="401.28" y1="72.064" x2="524.96" y2="72.064" gradientUnits="userSpaceOnUse">
<stop stop-color="white" stop-opacity="0.4"/>
<stop offset="0.5" stop-color="white"/>
<stop offset="1" stop-color="white" stop-opacity="0.2"/>
</linearGradient>
<linearGradient id="paint6_linear_3_1047" x1="396.64" y1="71.9952" x2="529.414" y2="71.9952" gradientUnits="userSpaceOnUse">
<stop stop-color="white" stop-opacity="0.4"/>
<stop offset="0.5" stop-color="white"/>
<stop offset="1" stop-color="white" stop-opacity="0.2"/>
</linearGradient>
<linearGradient id="paint7_linear_3_1047" x1="392" y1="71.9265" x2="533.868" y2="71.9265" gradientUnits="userSpaceOnUse">
<stop stop-color="white" stop-opacity="0.4"/>
<stop offset="0.5" stop-color="white"/>
<stop offset="1" stop-color="white" stop-opacity="0.2"/>
</linearGradient>
</defs>
</svg>
