<svg width="77" height="77" viewBox="0 0 77 77" fill="none" xmlns="http://www.w3.org/2000/svg">
<g filter="url(#filter0_b_93_1092)">
<rect y="0.53833" width="76.2777" height="75.641" rx="37.8205" fill="white" fill-opacity="0.15"/>
<rect y="0.53833" width="76.2777" height="75.641" rx="37.8205" fill="url(#paint0_radial_93_1092)"/>
<rect x="0.480769" y="1.0191" width="75.3161" height="74.6795" rx="37.3397" stroke="url(#paint1_linear_93_1092)" stroke-width="0.961539"/>
<path d="M53.1803 22.5256H23.097C22.7821 22.5145 22.4684 22.5684 22.1752 22.6838C21.8821 22.7992 21.6158 22.9738 21.393 23.1966C21.1702 23.4194 20.9957 23.6856 20.8803 23.9788C20.7648 24.2719 20.7109 24.5857 20.722 24.9006V34.3214H24.9178L26.3428 31.3922C26.4677 31.1225 26.6698 30.8959 26.9234 30.7409C27.177 30.5859 27.4708 30.5095 27.7678 30.5214C28.0611 30.5279 28.3473 30.6119 28.5976 30.7649C28.8479 30.9178 29.0532 31.1343 29.1928 31.3922L31.4887 36.2214L35.2887 28.1464C35.4183 27.8787 35.6208 27.6529 35.8728 27.495C36.1248 27.337 36.4162 27.2532 36.7137 27.2532C37.0111 27.2532 37.3025 27.337 37.5546 27.495C37.8066 27.6529 38.009 27.8787 38.1387 28.1464L41.0678 34.3214H42.8887C43.3086 34.3214 43.7113 34.4882 44.0083 34.7851C44.3052 35.0821 44.472 35.4848 44.472 35.9047C44.472 36.3246 44.3052 36.7274 44.0083 37.0243C43.7113 37.3212 43.3086 37.4881 42.8887 37.4881H40.0387C39.7394 37.4659 39.451 37.3668 39.2013 37.2003C38.9517 37.0339 38.7492 36.8057 38.6137 36.5381L36.7137 32.5797L32.9137 40.6547C32.7741 40.9127 32.5687 41.1291 32.3185 41.282C32.0682 41.435 31.7819 41.519 31.4887 41.5256C31.1917 41.5374 30.8978 41.4611 30.6442 41.3061C30.3906 41.1511 30.1886 40.9244 30.0637 40.6547L27.7678 35.8256L27.372 36.5381C27.2506 36.8164 27.0517 37.0539 26.799 37.2224C26.5464 37.3908 26.2506 37.483 25.947 37.4881H20.722V47.0672C20.722 47.6971 20.9722 48.3012 21.4176 48.7466C21.863 49.192 22.4671 49.4422 23.097 49.4422H53.1803C53.8102 49.4422 54.4143 49.192 54.8597 48.7466C55.3051 48.3012 55.5553 47.6971 55.5553 47.0672V24.9006C55.5664 24.5857 55.5125 24.2719 55.3971 23.9788C55.2816 23.6856 55.1071 23.4194 54.8843 23.1966C54.6615 22.9738 54.3953 22.7992 54.1021 22.6838C53.809 22.5684 53.4952 22.5145 53.1803 22.5256ZM42.4137 44.2172C42.1213 44.5155 41.723 44.6863 41.3053 44.6922H38.1387C37.7187 44.6922 37.316 44.5254 37.0191 44.2285C36.7222 43.9315 36.5553 43.5288 36.5553 43.1089C36.5429 42.8999 36.5793 42.6909 36.6618 42.4985C36.7442 42.3061 36.8704 42.1356 37.0303 42.0006C37.3227 41.7022 37.721 41.5315 38.1387 41.5256H41.3053C41.7253 41.5256 42.128 41.6924 42.4249 41.9893C42.7219 42.2862 42.8887 42.689 42.8887 43.1089C42.9011 43.3178 42.8647 43.5268 42.7822 43.7192C42.6998 43.9116 42.5736 44.0821 42.4137 44.2172ZM50.3303 44.2172C50.038 44.5155 49.6396 44.6863 49.222 44.6922H46.0553C45.6354 44.6922 45.2327 44.5254 44.9358 44.2285C44.6388 43.9315 44.472 43.5288 44.472 43.1089C44.4595 42.8999 44.496 42.6909 44.5784 42.4985C44.6609 42.3061 44.7871 42.1356 44.947 42.0006C45.2393 41.7022 45.6377 41.5315 46.0553 41.5256H49.222C49.6419 41.5256 50.0447 41.6924 50.3416 41.9893C50.6385 42.2862 50.8053 42.689 50.8053 43.1089C50.8178 43.3178 50.7814 43.5268 50.6989 43.7192C50.6165 43.9116 50.4903 44.0821 50.3303 44.2172Z" fill="white"/>
<path d="M48.4303 51.0256H27.847C27.4271 51.0256 27.0244 51.1924 26.7274 51.4893C26.4305 51.7862 26.2637 52.189 26.2637 52.6089C26.2637 53.0288 26.4305 53.4315 26.7274 53.7285C27.0244 54.0254 27.4271 54.1922 27.847 54.1922H48.4303C48.8503 54.1922 49.253 54.0254 49.5499 53.7285C49.8469 53.4315 50.0137 53.0288 50.0137 52.6089C50.0137 52.189 49.8469 51.7862 49.5499 51.4893C49.253 51.1924 48.8503 51.0256 48.4303 51.0256Z" fill="white"/>
</g>
<defs>
<filter id="filter0_b_93_1092" x="-50" y="-49.4617" width="176.277" height="175.641" filterUnits="userSpaceOnUse" color-interpolation-filters="sRGB">
<feFlood flood-opacity="0" result="BackgroundImageFix"/>
<feGaussianBlur in="BackgroundImageFix" stdDeviation="25"/>
<feComposite in2="SourceAlpha" operator="in" result="effect1_backgroundBlur_93_1092"/>
<feBlend mode="normal" in="SourceGraphic" in2="effect1_backgroundBlur_93_1092" result="shape"/>
</filter>
<radialGradient id="paint0_radial_93_1092" cx="0" cy="0" r="1" gradientUnits="userSpaceOnUse" gradientTransform="translate(-5.44326 123.891) rotate(-56.2605) scale(107.512 162.847)">
<stop stop-color="#F8744C"/>
<stop offset="1" stop-color="#0B1431" stop-opacity="0"/>
</radialGradient>
<linearGradient id="paint1_linear_93_1092" x1="19.261" y1="26.4502" x2="50.8533" y2="77.5022" gradientUnits="userSpaceOnUse">
<stop stop-color="#F8744C"/>
<stop offset="1" stop-color="white" stop-opacity="0"/>
</linearGradient>
</defs>
</svg>
