<svg width="77" height="76" viewBox="0 0 77 76" fill="none" xmlns="http://www.w3.org/2000/svg">
<g filter="url(#filter0_b_93_1099)">
<rect x="0.0820312" width="76.2777" height="75.641" rx="37.8205" fill="white" fill-opacity="0.15"/>
<rect x="0.0820312" width="76.2777" height="75.641" rx="37.8205" fill="url(#paint0_radial_93_1099)"/>
<rect x="0.562801" y="0.480769" width="75.3161" height="74.6795" rx="37.3397" stroke="url(#paint1_linear_93_1099)" stroke-width="0.961539"/>
<path d="M53.4276 23.6417L38.8851 18.4371C38.671 18.36 38.4449 18.3206 38.2171 18.3206C37.9886 18.3206 37.7618 18.3598 37.5437 18.4383L23.0534 23.6429C22.2702 23.9246 21.7207 24.6626 21.7207 25.489V37.8205C21.7207 40.5736 22.6154 43.3271 24.3228 46.0043C25.6316 48.0562 27.4532 50.0685 29.7087 51.9856C33.48 55.1907 37.2219 57.0396 37.3791 57.1167C37.6535 57.2508 37.9552 57.3205 38.261 57.3206C38.5574 57.3206 38.8557 57.2546 39.1292 57.1226C39.2864 57.0467 43.0266 55.2266 46.8015 52.0341C49.0592 50.1248 50.8535 48.1125 52.1632 46.0534C53.87 43.3705 54.7207 40.6006 54.7207 37.8205V25.489C54.7208 24.6613 54.2126 23.9224 53.4276 23.6417ZM24.8887 37.8113V26.9572C24.8887 26.5441 25.144 26.175 25.5357 26.0341L37.8529 21.5898C37.9627 21.5504 38.0888 21.5213 38.2208 21.5213V37.8206H51.6467C51.6467 37.8206 51.6484 37.8383 51.6484 37.8496C51.6458 41.4013 49.8421 44.9213 46.2882 48.3487C43.5129 51.0254 40.3598 52.9356 38.7379 53.8368C38.5876 53.9204 38.3529 53.9598 38.2209 53.9598V37.8155L24.8887 37.8113Z" fill="white"/>
</g>
<defs>
<filter id="filter0_b_93_1099" x="-49.918" y="-50" width="176.277" height="175.641" filterUnits="userSpaceOnUse" color-interpolation-filters="sRGB">
<feFlood flood-opacity="0" result="BackgroundImageFix"/>
<feGaussianBlur in="BackgroundImageFix" stdDeviation="25"/>
<feComposite in2="SourceAlpha" operator="in" result="effect1_backgroundBlur_93_1099"/>
<feBlend mode="normal" in="SourceGraphic" in2="effect1_backgroundBlur_93_1099" result="shape"/>
</filter>
<radialGradient id="paint0_radial_93_1099" cx="0" cy="0" r="1" gradientUnits="userSpaceOnUse" gradientTransform="translate(-5.36122 123.353) rotate(-56.2605) scale(107.512 162.847)">
<stop stop-color="#F8744C"/>
<stop offset="1" stop-color="#0B1431" stop-opacity="0"/>
</radialGradient>
<linearGradient id="paint1_linear_93_1099" x1="19.343" y1="25.9119" x2="50.9353" y2="76.9639" gradientUnits="userSpaceOnUse">
<stop stop-color="#F8744C"/>
<stop offset="1" stop-color="white" stop-opacity="0"/>
</linearGradient>
</defs>
</svg>
