<svg width="77" height="77" viewBox="0 0 77 77" fill="none" xmlns="http://www.w3.org/2000/svg">
<g filter="url(#filter0_b_93_1094)">
<rect x="0.171875" y="0.53833" width="76.2777" height="75.641" rx="37.8205" fill="white" fill-opacity="0.15"/>
<rect x="0.171875" y="0.53833" width="76.2777" height="75.641" rx="37.8205" fill="url(#paint0_radial_93_1094)"/>
<rect x="0.652644" y="1.0191" width="75.3161" height="74.6795" rx="37.3397" stroke="url(#paint1_linear_93_1094)" stroke-width="0.961539"/>
<g clip-path="url(#clip0_93_1094)">
<path d="M26.1468 43.3589L32.228 32.8229L31.878 32.2167C31.3549 31.3389 31.0166 30.3635 30.8839 29.3503C30.7513 28.3371 30.8271 27.3075 31.1066 26.3246C31.3862 25.3418 31.8637 24.4264 32.5098 23.6347C33.1559 22.8431 33.9569 22.1918 34.8638 21.7208C35.7706 21.2498 36.7641 20.9691 37.7833 20.896C38.8026 20.8228 39.826 20.9587 40.7908 21.2952C41.7556 21.6318 42.6415 22.162 43.3941 22.8533C44.1466 23.5445 44.75 24.3823 45.1671 25.3151C45.298 25.5999 45.3196 25.9229 45.2276 26.2226C45.1357 26.5223 44.9368 26.7777 44.6687 26.9401C44.5163 27.0286 44.3469 27.0839 44.1716 27.1023C43.9963 27.1207 43.8191 27.1018 43.6517 27.047C43.4842 26.9921 43.3302 26.9024 43.1999 26.7838C43.0695 26.6652 42.9657 26.5204 42.8952 26.3589C42.6193 25.7353 42.2189 25.1748 41.7184 24.7118C41.2179 24.2488 40.628 23.893 39.985 23.6663C39.3419 23.4397 38.6593 23.3469 37.9791 23.3938C37.2989 23.4406 36.6355 23.6261 36.0296 23.9388C35.4237 24.2515 34.8882 24.6849 34.456 25.2121C34.0237 25.7394 33.7039 26.3496 33.5161 27.005C33.3284 27.6605 33.2766 28.3474 33.3641 29.0236C33.4516 29.6998 33.6765 30.3509 34.0249 30.937C34.03 30.9432 34.0342 30.95 34.0374 30.9573L36.1983 34.6979C36.3081 34.8879 36.3658 35.1035 36.3658 35.3229C36.3658 35.5423 36.3081 35.7579 36.1983 35.9479L30.4765 45.8589C30.1406 46.4243 29.5954 46.8347 28.9591 47.0009C28.3228 47.1672 27.6465 47.076 27.077 46.7472C26.5074 46.4183 26.0904 45.8782 25.9162 45.244C25.7421 44.6097 25.825 43.9324 26.1468 43.3589ZM48.178 37.1089H46.2499L40.4765 27.1089C40.1406 26.5434 39.5954 26.1331 38.9591 25.9668C38.3228 25.8005 37.6465 25.8917 37.077 26.2206C36.5074 26.5494 36.0904 27.0895 35.9162 27.7237C35.7421 28.358 35.825 29.0353 36.1468 29.6089L41.5593 38.9839C41.6689 39.1737 41.8265 39.3314 42.0163 39.4411C42.206 39.5508 42.4213 39.6086 42.6405 39.6089H48.2077C51.003 39.6089 53.3562 41.8964 53.3108 44.6917C53.2893 45.995 52.7597 47.2384 51.8347 48.1569C50.9098 49.0754 49.6627 49.5964 48.3593 49.6089C48.0399 49.605 47.7305 49.7201 47.4914 49.9319C47.2522 50.1436 47.1004 50.4367 47.0655 50.7542C47.051 50.9269 47.0726 51.1008 47.1289 51.2647C47.1852 51.4287 47.2749 51.5791 47.3925 51.7065C47.51 51.8339 47.6528 51.9355 47.8117 52.0048C47.9706 52.074 48.1422 52.1095 48.3155 52.1089C49.3125 52.108 50.2993 51.9086 51.2184 51.5222C52.1374 51.1359 52.9703 50.5704 53.6685 49.8587C54.3667 49.147 54.9161 48.3034 55.2847 47.3771C55.6533 46.4508 55.8338 45.4603 55.8155 44.4635C55.7312 40.3573 52.2921 37.1089 48.1843 37.1089H48.178ZM50.8108 44.4885C50.7483 43.1432 49.589 42.1089 48.2437 42.1089H36.2499C36.0304 42.1088 35.8148 42.1665 35.6248 42.2763C35.4347 42.386 35.2768 42.5438 35.1671 42.7339L32.6421 47.1089C32.3013 47.6965 31.8443 48.2086 31.299 48.6138C30.7537 49.019 30.1316 49.3088 29.4705 49.4656C28.8095 49.6224 28.1235 49.6428 27.4543 49.5256C26.7851 49.4084 26.1468 49.1561 25.5784 48.784C25.01 48.4119 24.5234 47.9279 24.1482 47.3615C23.7731 46.7951 23.5173 46.1582 23.3965 45.4897C23.2757 44.8212 23.2924 44.135 23.4455 43.4732C23.5987 42.8113 23.8852 42.1876 24.2874 41.6401C24.4817 41.3871 24.5746 41.0708 24.548 40.7529C24.5215 40.4351 24.3773 40.1385 24.1437 39.9214C24.0145 39.8063 23.8629 39.7193 23.6984 39.6658C23.5339 39.6123 23.36 39.5936 23.1879 39.6108C23.0158 39.628 22.8491 39.6807 22.6984 39.7656C22.5477 39.8506 22.4163 39.9658 22.3124 40.1042C21.3482 41.3818 20.8216 42.9363 20.8108 44.537C20.796 46.1932 21.3298 47.8078 22.329 49.1287C23.3282 50.4497 24.7366 51.4027 26.3344 51.8391C27.9321 52.2756 29.6294 52.1708 31.1614 51.5412C32.6934 50.9117 33.9739 49.7927 34.803 48.3589L35.5249 47.1089H48.3108C48.6495 47.1093 48.9848 47.0408 49.2962 46.9077C49.6076 46.7746 49.8888 46.5797 50.1225 46.3346C50.3563 46.0896 50.5379 45.7996 50.6562 45.4822C50.7745 45.1649 50.8271 44.8268 50.8108 44.4885Z" fill="white"/>
</g>
</g>
<defs>
<filter id="filter0_b_93_1094" x="-49.8281" y="-49.4617" width="176.277" height="175.641" filterUnits="userSpaceOnUse" color-interpolation-filters="sRGB">
<feFlood flood-opacity="0" result="BackgroundImageFix"/>
<feGaussianBlur in="BackgroundImageFix" stdDeviation="25"/>
<feComposite in2="SourceAlpha" operator="in" result="effect1_backgroundBlur_93_1094"/>
<feBlend mode="normal" in="SourceGraphic" in2="effect1_backgroundBlur_93_1094" result="shape"/>
</filter>
<radialGradient id="paint0_radial_93_1094" cx="0" cy="0" r="1" gradientUnits="userSpaceOnUse" gradientTransform="translate(-5.27138 123.891) rotate(-56.2605) scale(107.512 162.847)">
<stop stop-color="#F8744C"/>
<stop offset="1" stop-color="#0B1431" stop-opacity="0"/>
</radialGradient>
<linearGradient id="paint1_linear_93_1094" x1="19.4328" y1="26.4502" x2="51.0252" y2="77.5022" gradientUnits="userSpaceOnUse">
<stop stop-color="#F8744C"/>
<stop offset="1" stop-color="white" stop-opacity="0"/>
</linearGradient>
<clipPath id="clip0_93_1094">
<rect width="40" height="40" fill="white" transform="translate(18.3105 18.3589)"/>
</clipPath>
</defs>
</svg>
