<svg width="125" height="42" viewBox="0 0 125 42" fill="none" xmlns="http://www.w3.org/2000/svg">
<g filter="url(#filter0_b_93_929)">
<rect x="0.365234" width="124.635" height="42" rx="21" fill="white" fill-opacity="0.15"/>
<rect x="0.365234" width="124.635" height="42" rx="21" fill="url(#paint0_radial_93_929)"/>
<rect x="0.865234" y="0.5" width="123.635" height="41" rx="20.5" stroke="url(#paint1_linear_93_929)"/>
<path d="M34.8052 14.0427L32.2723 19.9638H35.9565C36.3842 19.9638 36.7789 20.2269 36.9434 20.6216C37.0749 21.0493 36.9763 21.5098 36.6473 21.8059L28.2263 29.1743C27.8315 29.4703 27.3052 29.5032 26.9105 29.2072C26.5157 28.944 26.3513 28.4177 26.5486 27.9572L29.0815 22.0361H25.4302C24.9697 22.0361 24.5749 21.773 24.4434 21.3782C24.2789 20.9506 24.3776 20.4901 24.7065 20.194L33.1276 12.8256C33.5223 12.5295 34.0486 12.4966 34.4434 12.7927C34.8381 13.0559 35.0026 13.5822 34.8052 14.0427Z" fill="white"/>
<path d="M49.28 25L51.8 15.2H55.65L58.17 25H56.91L56.14 22.13H51.31L50.54 25H49.28ZM51.59 20.94H55.86L54.67 16.39H52.78L51.59 20.94ZM59.4273 25V18H60.5473V19.05H60.5613C60.7013 18.826 60.8833 18.63 61.1073 18.462C61.6206 18.0607 62.2273 17.86 62.9273 17.86C63.7766 17.86 64.4533 18.1307 64.9573 18.672C65.4706 19.204 65.7273 19.9367 65.7273 20.87V25H64.6073V20.94C64.6073 20.268 64.4393 19.764 64.1033 19.428C63.7673 19.0827 63.3053 18.91 62.7173 18.91C62.0733 18.91 61.5506 19.1247 61.1493 19.554C60.7479 19.974 60.5473 20.5293 60.5473 21.22V25H59.4273ZM68.1767 24.104C67.5234 23.404 67.1967 22.536 67.1967 21.5C67.1967 20.464 67.5234 19.6007 68.1767 18.91C68.8301 18.21 69.6234 17.86 70.5567 17.86C71.1447 17.86 71.6394 17.972 72.0407 18.196C72.4514 18.42 72.7501 18.6627 72.9367 18.924L73.0627 19.134H73.0767V18H74.1967V25H73.0767V23.88H73.0627L72.9367 24.076C72.7687 24.328 72.4794 24.5707 72.0687 24.804C71.6581 25.028 71.1541 25.14 70.5567 25.14C69.6234 25.14 68.8301 24.7947 68.1767 24.104ZM68.9887 19.638C68.5407 20.1233 68.3167 20.744 68.3167 21.5C68.3167 22.256 68.5407 22.8767 68.9887 23.362C69.4461 23.8473 70.0154 24.09 70.6967 24.09C71.3781 24.09 71.9427 23.8473 72.3907 23.362C72.8481 22.8767 73.0767 22.256 73.0767 21.5C73.0767 20.744 72.8481 20.1233 72.3907 19.638C71.9427 19.1527 71.3781 18.91 70.6967 18.91C70.0154 18.91 69.4461 19.1527 68.9887 19.638ZM76.1616 25V15.2H77.2816V23.95H78.8916V25H76.1616ZM79.3171 18H80.5071L82.0471 23.95H83.0971L84.9171 18H86.1071L83.1671 27.66H81.9771L82.8171 25H81.2071L79.3171 18ZM86.4555 25V23.95L90.6555 19.064V19.05H86.5955V18H92.1255V19.05L87.9255 23.936V23.95H92.2655V25H86.4555ZM94.1953 24.104C93.5139 23.4133 93.1733 22.5453 93.1733 21.5C93.1733 20.4547 93.5139 19.5867 94.1953 18.896C94.8766 18.2053 95.7259 17.86 96.7433 17.86C97.7606 17.86 98.6099 18.2007 99.2913 18.882C99.9726 19.5633 100.313 20.4127 100.313 21.43V21.85H94.2933C94.3679 22.5033 94.6339 23.04 95.0913 23.46C95.5486 23.88 96.0993 24.09 96.7433 24.09C97.4339 24.09 98.0266 23.88 98.5213 23.46C98.7453 23.2733 98.9226 23.0633 99.0533 22.83H100.173C100.005 23.2687 99.7673 23.656 99.4593 23.992C98.7313 24.7573 97.8259 25.14 96.7433 25.14C95.7259 25.14 94.8766 24.7947 94.1953 24.104ZM94.3213 20.87H99.1233C99.0393 20.3193 98.7826 19.8573 98.3533 19.484C97.9239 19.1013 97.3873 18.91 96.7433 18.91C96.0993 18.91 95.5579 19.1013 95.1193 19.484C94.6806 19.8573 94.4146 20.3193 94.3213 20.87Z" fill="white"/>
</g>
<defs>
<filter id="filter0_b_93_929" x="-49.6348" y="-50" width="224.635" height="142" filterUnits="userSpaceOnUse" color-interpolation-filters="sRGB">
<feFlood flood-opacity="0" result="BackgroundImageFix"/>
<feGaussianBlur in="BackgroundImageFix" stdDeviation="25"/>
<feComposite in2="SourceAlpha" operator="in" result="effect1_backgroundBlur_93_929"/>
<feBlend mode="normal" in="SourceGraphic" in2="effect1_backgroundBlur_93_929" result="shape"/>
</filter>
<radialGradient id="paint0_radial_93_929" cx="0" cy="0" r="1" gradientUnits="userSpaceOnUse" gradientTransform="translate(23.6106 42) rotate(-14.9069) scale(163.266 217.051)">
<stop stop-color="#F8744C"/>
<stop offset="1" stop-color="#0B1431" stop-opacity="0"/>
</radialGradient>
<linearGradient id="paint1_linear_93_929" x1="31.8368" y1="14.3877" x2="39.7316" y2="51.9297" gradientUnits="userSpaceOnUse">
<stop stop-color="#F8744C"/>
<stop offset="1" stop-color="#DDCBFF"/>
</linearGradient>
</defs>
</svg>
