<svg width="42" height="42" viewBox="0 0 42 42" fill="none" xmlns="http://www.w3.org/2000/svg">
<g filter="url(#filter0_b_93_869)">
<rect width="42" height="42" rx="21" fill="white" fill-opacity="0.15"/>
<rect width="42" height="42" rx="21" fill="url(#paint0_radial_93_869)"/>
<rect x="0.5" y="0.5" width="41" height="41" rx="20.5" stroke="url(#paint1_linear_93_869)"/>
<path d="M24.5455 28.4286C24.5455 28.5802 24.4832 28.7255 24.3724 28.8327C24.2616 28.9398 24.1113 29 23.9546 29H18.0455C17.8888 29 17.7385 28.9398 17.6277 28.8327C17.5169 28.7255 17.4546 28.5802 17.4546 28.4286C17.4546 28.2771 17.5169 28.1318 17.6277 28.0246C17.7385 27.9175 17.8888 27.8573 18.0455 27.8573H23.9546C24.1113 27.8573 24.2616 27.9175 24.3724 28.0246C24.4832 28.1318 24.5455 28.2771 24.5455 28.4286ZM27.5 19.2868C27.5025 20.2393 27.28 21.1798 26.8494 22.0364C26.4187 22.8931 25.7914 23.6433 25.0152 24.2298C24.8701 24.3374 24.7523 24.4756 24.6709 24.6339C24.5895 24.7923 24.5466 24.9665 24.5455 25.1433V25.5718C24.5455 25.8749 24.4209 26.1655 24.1993 26.3798C23.9777 26.5942 23.6771 26.7145 23.3637 26.7145H18.6364C18.323 26.7145 18.0224 26.5942 17.8008 26.3798C17.5791 26.1655 17.4546 25.8749 17.4546 25.5718V25.1433C17.4545 24.9686 17.413 24.7963 17.3332 24.6395C17.2534 24.4828 17.1375 24.3458 16.9944 24.2391C16.2202 23.6561 15.5933 22.9104 15.1612 22.0584C14.729 21.2065 14.5029 20.2707 14.5001 19.3218C14.4809 15.9179 17.3261 13.0832 20.8434 13.0018C21.7101 12.9816 22.5722 13.1293 23.379 13.4361C24.1858 13.7429 24.9209 14.2026 25.5412 14.7883C26.1614 15.3739 26.6543 16.0736 26.9907 16.8462C27.3271 17.6187 27.5002 18.4486 27.5 19.2868ZM23.7817 19.4539C23.7268 19.4008 23.6617 19.3587 23.5899 19.3299C23.5182 19.3012 23.4413 19.2864 23.3637 19.2864C23.286 19.2864 23.2091 19.3012 23.1374 19.3299C23.0656 19.3587 23.0005 19.4008 22.9456 19.4539L21 21.3359L19.0545 19.4539C18.9436 19.3467 18.7932 19.2865 18.6364 19.2865C18.4796 19.2865 18.3292 19.3467 18.2184 19.4539C18.1075 19.5612 18.0452 19.7066 18.0452 19.8582C18.0452 20.0098 18.1075 20.1552 18.2184 20.2624L20.4091 22.38V25.0005C20.4091 25.152 20.4714 25.2973 20.5822 25.4045C20.693 25.5116 20.8433 25.5718 21 25.5718C21.1568 25.5718 21.3071 25.5116 21.4179 25.4045C21.5287 25.2973 21.5909 25.152 21.5909 25.0005V22.38L23.7817 20.2624C23.8367 20.2094 23.8802 20.1463 23.91 20.077C23.9397 20.0076 23.955 19.9333 23.955 19.8582C23.955 19.7831 23.9397 19.7087 23.91 19.6394C23.8802 19.57 23.8367 19.507 23.7817 19.4539Z" fill="white"/>
</g>
<defs>
<filter id="filter0_b_93_869" x="-50" y="-50" width="142" height="142" filterUnits="userSpaceOnUse" color-interpolation-filters="sRGB">
<feFlood flood-opacity="0" result="BackgroundImageFix"/>
<feGaussianBlur in="BackgroundImageFix" stdDeviation="25"/>
<feComposite in2="SourceAlpha" operator="in" result="effect1_backgroundBlur_93_869"/>
<feBlend mode="normal" in="SourceGraphic" in2="effect1_backgroundBlur_93_869" result="shape"/>
</filter>
<radialGradient id="paint0_radial_93_869" cx="0" cy="0" r="1" gradientUnits="userSpaceOnUse" gradientTransform="translate(-2.99717 68.4923) rotate(-56.4819) scale(59.5433 89.8974)">
<stop stop-color="#F8744C"/>
<stop offset="1" stop-color="#0B1431" stop-opacity="0"/>
</radialGradient>
<linearGradient id="paint1_linear_93_869" x1="10.6055" y1="14.3877" x2="28.2125" y2="42.6025" gradientUnits="userSpaceOnUse">
<stop stop-color="#F8744C"/>
<stop offset="1" stop-color="white" stop-opacity="0"/>
</linearGradient>
</defs>
</svg>
