<svg width="24" height="26" viewBox="0 0 24 26" fill="none" xmlns="http://www.w3.org/2000/svg">
<path d="M5.36281 2.85541C7.78986 0.571081 10.6925 0 11.9204 0C13.1484 0 16.2111 0.571081 18.6382 2.85541C19.1438 2.65145 20.2851 2.08037 20.8052 1.4277C20.2273 2.92339 17.9447 6.36347 13.4373 8.1583C13.3299 7.94392 12.876 7.51515 11.9204 7.51515C10.9648 7.51515 10.6711 7.94392 10.5636 8.1583C6.05625 6.36347 3.77367 2.92339 3.1958 1.4277C3.71588 2.08037 4.85718 2.65145 5.36281 2.85541Z" fill="#F0F0FA"/>
<path d="M6.77155 7.57867C7.45511 8.06375 8.99363 9.09086 9.67923 9.31864C8.37385 9.70354 5.96477 9.8944 6.77155 7.57867Z" fill="#F0F0FA"/>
<path d="M4.04911 4.84219C4.36843 5.29036 5.11462 6.26263 5.54486 6.56633C4.85574 8.07957 4.47581 11.1061 8.46894 11.1061L8.36811 12.4189L5.41023 14.0007C6.80161 14.3979 9.82978 16.2107 10.8114 20.2844L11.9894 24.1166L13.1885 20.2844C14.1702 16.2107 17.1984 14.3979 18.5898 14.0007L15.6319 12.4189L15.5311 11.1061C19.5242 11.1061 19.1443 8.07957 18.4551 6.56633C18.8854 6.26263 19.6316 5.29036 19.9509 4.84219C21.1921 6.01043 21.327 8.31325 21.2393 9.31864C21.2393 16.9082 22.7464 20.4537 23.5 21.2778L20.3074 18.982L18.1458 22.3417L15.6319 20.2844L11.9894 26L8.36811 20.2844L5.85416 22.3417L3.69257 18.982L0.5 21.2778C1.25357 20.4537 2.76072 16.9082 2.76072 9.31864C2.673 8.31325 2.80788 6.01043 4.04911 4.84219Z" fill="#F0F0FA"/>
<path d="M17.2285 7.57867C16.5449 8.06375 15.0064 9.09086 14.3208 9.31864C15.6262 9.70354 18.0352 9.8944 17.2285 7.57867Z" fill="#F0F0FA"/>
<path d="M10.055 11.4997C10.055 9.99938 11.4101 9.26085 12.0897 9.07913C12.7693 9.26085 14.1285 9.99938 14.1285 11.4997V13.1352L15.6576 14.0293C14.4683 14.7271 12.0937 16.8075 12.0937 19.5465C12.0937 16.8075 9.71511 14.7271 8.5258 14.0293L10.055 13.1352V11.4997Z" fill="#F0F0FA"/>
</svg>
