<svg width="24" height="20" viewBox="0 0 24 20" fill="none" xmlns="http://www.w3.org/2000/svg">
<path fill-rule="evenodd" clip-rule="evenodd" d="M21.1176 0.136826C21.4004 0.0156739 21.7099 -0.0261107 22.0139 0.015821C22.318 0.0577526 22.6054 0.181868 22.8463 0.375248C23.0873 0.568629 23.2729 0.824205 23.3838 1.11537C23.4948 1.40654 23.527 1.72266 23.4772 2.03083L20.8819 18.0553C20.6301 19.601 18.9639 20.4875 17.5713 19.7175C16.4063 19.0734 14.6761 18.0809 13.1197 17.0454C12.3416 16.5271 9.95791 14.8672 10.2509 13.6861C10.5026 12.6762 14.5078 8.88116 16.7965 6.6249C17.6948 5.73847 17.2852 5.22711 16.2244 6.04248C13.5901 8.06695 9.36056 11.1456 7.96217 12.0122C6.72856 12.7763 6.08543 12.9068 5.31643 12.7763C3.91346 12.5387 2.61234 12.1706 1.55038 11.7222C0.115371 11.1165 0.185176 9.1083 1.54924 8.52356L21.1176 0.136826Z" fill="#F0F0FA"/>
</svg>
