<svg width="311" height="94" viewBox="0 0 311 94" fill="none" xmlns="http://www.w3.org/2000/svg">
<g filter="url(#filter0_b_93_509)">
<g clip-path="url(#clip0_93_509)">
<rect width="310.891" height="93.9454" rx="46.9727" fill="black" fill-opacity="0.15"/>
<rect width="310.891" height="93.9454" rx="46.9727" fill="url(#paint0_radial_93_509)"/>
<path d="M58.2073 60.4727H54.7873V37.1407H45.9333V33.8727H67.0233V37.1407H58.2073V60.4727ZM67.7955 60.4727V41.3207H70.7975V44.3987H70.9875C71.4435 43.4613 72.1528 42.6887 73.1155 42.0807C74.1035 41.4473 75.2688 41.1307 76.6115 41.1307H79.2715V44.1327H76.6115C74.9142 44.1327 73.5462 44.69 72.5075 45.8047C71.4688 46.9193 70.9495 48.376 70.9495 50.1747V60.4727H67.7955ZM91.7459 57.5847L96.4959 41.3207H99.8399L92.0499 67.6927H88.7059L90.8719 60.4727H86.7299L81.0299 41.3207H84.3739L89.1239 57.5847H91.7459ZM111.956 60.4727V41.3207H114.958V44.2847H115.148C115.654 43.3727 116.427 42.5873 117.466 41.9287C118.504 41.27 119.695 40.9407 121.038 40.9407C122.634 40.9407 123.926 41.3207 124.914 42.0807C125.902 42.8407 126.598 43.74 127.004 44.7787H127.194C127.827 43.7147 128.688 42.8153 129.778 42.0807C130.867 41.3207 132.222 40.9407 133.844 40.9407C135.972 40.9407 137.644 41.6373 138.86 43.0307C140.101 44.3987 140.722 46.362 140.722 48.9207V60.4727H137.568V49.2627C137.568 47.4893 137.188 46.1467 136.428 45.2347C135.668 44.2973 134.578 43.8287 133.16 43.8287C131.614 43.8287 130.348 44.348 129.36 45.3867C128.397 46.4 127.916 47.8313 127.916 49.6807V60.4727H124.762V49.2627C124.762 47.4893 124.382 46.1467 123.622 45.2347C122.862 44.2973 121.76 43.8287 120.316 43.8287C118.796 43.8287 117.542 44.348 116.554 45.3867C115.591 46.4253 115.11 47.8567 115.11 49.6807V60.4727H111.956ZM153.81 60.8527C152.138 60.8527 150.618 60.4347 149.25 59.5987C147.908 58.7627 146.844 57.5973 146.058 56.1027C145.273 54.5827 144.88 52.8473 144.88 50.8967C144.88 48.946 145.273 47.2233 146.058 45.7287C146.844 44.2087 147.908 43.0307 149.25 42.1947C150.618 41.3587 152.138 40.9407 153.81 40.9407C155.229 40.9407 156.546 41.27 157.762 41.9287C158.978 42.562 159.916 43.4233 160.574 44.5127H160.764V41.3207H163.766V60.4727H160.764V57.2807H160.574C159.916 58.37 158.978 59.244 157.762 59.9027C156.546 60.536 155.229 60.8527 153.81 60.8527ZM154.494 57.9647C156.318 57.9647 157.788 57.3313 158.902 56.0647C160.042 54.798 160.612 53.0753 160.612 50.8967C160.612 48.718 160.042 46.9953 158.902 45.7287C157.788 44.462 156.318 43.8287 154.494 43.8287C152.569 43.8287 151.036 44.462 149.896 45.7287C148.756 46.97 148.186 48.6927 148.186 50.8967C148.186 53.0753 148.756 54.798 149.896 56.0647C151.036 57.3313 152.569 57.9647 154.494 57.9647ZM177.991 60.8527C176.141 60.8527 174.457 60.422 172.937 59.5607C171.442 58.6993 170.264 57.5087 169.403 55.9887C168.541 54.4687 168.111 52.7713 168.111 50.8967C168.111 49.022 168.541 47.3247 169.403 45.8047C170.264 44.2847 171.442 43.094 172.937 42.2327C174.457 41.3713 176.141 40.9407 177.991 40.9407C179.637 40.9407 181.094 41.27 182.361 41.9287C183.653 42.5873 184.691 43.4487 185.477 44.5127C186.287 45.5513 186.832 46.666 187.111 47.8567H183.881C183.475 46.7167 182.753 45.7667 181.715 45.0067C180.676 44.2213 179.435 43.8287 177.991 43.8287C176.04 43.8287 174.457 44.4873 173.241 45.8047C172.025 47.0967 171.417 48.794 171.417 50.8967C171.417 52.9993 172.025 54.7093 173.241 56.0267C174.457 57.3187 176.04 57.9647 177.991 57.9647C179.435 57.9647 180.676 57.5847 181.715 56.8247C182.753 56.0393 183.475 55.0767 183.881 53.9367H187.111C186.832 55.1273 186.287 56.2547 185.477 57.3187C184.691 58.3573 183.653 59.206 182.361 59.8647C181.094 60.5233 179.637 60.8527 177.991 60.8527ZM191.485 60.4727V33.8727H194.639V44.2847H194.829C195.412 43.2967 196.261 42.4987 197.375 41.8907C198.515 41.2573 199.82 40.9407 201.289 40.9407C203.595 40.9407 205.393 41.65 206.685 43.0687C208.003 44.462 208.661 46.4507 208.661 49.0347V60.4727H205.507V49.5667C205.507 47.7427 205.089 46.3367 204.253 45.3487C203.417 44.3353 202.189 43.8287 200.567 43.8287C198.845 43.8287 197.426 44.3987 196.311 45.5387C195.197 46.6787 194.639 48.1607 194.639 49.9847V60.4727H191.485ZM217.35 60.4727H214.196V41.3207H217.35V60.4727ZM215.754 38.3947C215.172 38.3947 214.69 38.2047 214.31 37.8247C213.93 37.4193 213.74 36.938 213.74 36.3807C213.74 35.798 213.93 35.3167 214.31 34.9367C214.69 34.5567 215.172 34.3667 215.754 34.3667C216.312 34.3667 216.78 34.5693 217.16 34.9747C217.566 35.3547 217.768 35.8233 217.768 36.3807C217.768 36.938 217.566 37.4193 217.16 37.8247C216.78 38.2047 216.312 38.3947 215.754 38.3947ZM223.098 60.4727V41.3207H226.1V44.3987H226.29C226.924 43.36 227.81 42.524 228.95 41.8907C230.09 41.2573 231.408 40.9407 232.902 40.9407C235.208 40.9407 237.006 41.65 238.298 43.0687C239.616 44.462 240.274 46.4507 240.274 49.0347V60.4727H237.12V49.5667C237.12 47.7427 236.702 46.3367 235.866 45.3487C235.03 44.3353 233.802 43.8287 232.18 43.8287C230.458 43.8287 229.039 44.3987 227.924 45.5387C226.81 46.6787 226.252 48.1607 226.252 49.9847V60.4727H223.098ZM263.94 51.8847H247.752C247.954 53.7087 248.651 55.178 249.842 56.2927C251.032 57.4073 252.514 57.9647 254.288 57.9647C255.757 57.9647 256.986 57.6353 257.974 56.9767C258.987 56.2927 259.722 55.406 260.178 54.3167H263.484C262.901 56.1407 261.799 57.686 260.178 58.9527C258.582 60.2193 256.618 60.8527 254.288 60.8527C252.464 60.8527 250.792 60.422 249.272 59.5607C247.777 58.674 246.586 57.4707 245.7 55.9507C244.838 54.4307 244.408 52.746 244.408 50.8967C244.408 49.0473 244.838 47.3627 245.7 45.8427C246.586 44.3227 247.777 43.132 249.272 42.2707C250.792 41.384 252.464 40.9407 254.288 40.9407C256.086 40.9407 257.72 41.3713 259.19 42.2327C260.659 43.094 261.812 44.2973 262.648 45.8427C263.509 47.388 263.94 49.1487 263.94 51.1247V51.8847ZM254.288 43.8287C252.616 43.8287 251.197 44.3227 250.032 45.3107C248.892 46.2987 248.17 47.616 247.866 49.2627H260.634C260.33 47.6667 259.608 46.362 258.468 45.3487C257.353 44.3353 255.96 43.8287 254.288 43.8287Z" fill="white"/>
<g clip-path="url(#clip1_93_509)">
<g clip-path="url(#clip2_93_509)">
<path d="M22.181 85.3651C22.3858 85.2323 22.444 84.9586 22.3112 84.7538C22.1783 84.5491 21.9046 84.4908 21.6998 84.6237C21.4951 84.7565 21.4368 85.0302 21.5697 85.235C21.7026 85.4397 21.9763 85.498 22.181 85.3651Z" fill="white"/>
<path d="M19.2924 67.9247C19.4971 67.7918 19.5554 67.5181 19.4225 67.3134C19.2896 67.1086 19.0159 67.0504 18.8112 67.1832C18.6064 67.3161 18.5481 67.5898 18.681 67.7946C18.8139 67.9993 19.0876 68.0576 19.2924 67.9247Z" fill="white"/>
<path opacity="0.3" d="M16.6011 84.0706C16.8741 83.8934 16.9519 83.5284 16.7746 83.2553C16.5974 82.9822 16.2324 82.9045 15.9593 83.0817C15.6862 83.2589 15.6085 83.624 15.7857 83.897C15.9629 84.1701 16.328 84.2478 16.6011 84.0706Z" fill="white"/>
<path opacity="0.11" d="M1.65771 83.232C1.93079 83.0548 2.0085 82.6897 1.83129 82.4167C1.65407 82.1436 1.28903 82.0659 1.01595 82.2431C0.742868 82.4203 0.66515 82.7853 0.842369 83.0584C1.01959 83.3315 1.38463 83.4092 1.65771 83.232Z" fill="white"/>
<path d="M71.3041 90.2536C71.5088 90.1207 71.5671 89.847 71.4342 89.6422C71.3013 89.4375 71.0276 89.3792 70.8229 89.5121C70.6181 89.645 70.5599 89.9187 70.6927 90.1234C70.8256 90.3282 71.0993 90.3864 71.3041 90.2536Z" fill="white"/>
<path d="M122.534 74.2163C122.671 74.1278 122.71 73.9454 122.621 73.809C122.533 73.6726 122.35 73.6337 122.214 73.7223C122.077 73.8108 122.039 73.9932 122.127 74.1296C122.216 74.266 122.398 74.3048 122.534 74.2163Z" fill="white"/>
<path d="M140.81 43.3892C140.946 43.3006 140.985 43.1182 140.897 42.9818C140.808 42.8454 140.626 42.8066 140.489 42.8951C140.353 42.9837 140.314 43.166 140.402 43.3024C140.491 43.4389 140.673 43.4777 140.81 43.3892Z" fill="white"/>
<path d="M162.157 55.175C162.294 55.0865 162.333 54.9041 162.244 54.7677C162.156 54.6313 161.973 54.5925 161.837 54.681C161.7 54.7695 161.662 54.9519 161.75 55.0883C161.839 55.2248 162.021 55.2636 162.157 55.175Z" fill="white"/>
<path opacity="0.11" d="M119.783 85.1318C119.92 85.0433 119.959 84.8609 119.87 84.7245C119.782 84.5881 119.599 84.5493 119.463 84.6378C119.326 84.7263 119.288 84.9087 119.376 85.0451C119.465 85.1815 119.647 85.2204 119.783 85.1318Z" fill="white"/>
<path d="M37.8909 92.6181C38.0273 92.5296 38.0661 92.3472 37.9776 92.2108C37.8891 92.0744 37.7067 92.0356 37.5703 92.1241C37.4339 92.2126 37.395 92.395 37.4835 92.5314C37.5721 92.6679 37.7545 92.7067 37.8909 92.6181Z" fill="white"/>
<path d="M75.6291 67.4258C75.7656 67.3372 75.8044 67.1549 75.7158 67.0185C75.6273 66.882 75.445 66.8432 75.3085 66.9317C75.1721 67.0203 75.1333 67.2026 75.2218 67.3391C75.3104 67.4755 75.4927 67.5143 75.6291 67.4258Z" fill="white"/>
<path opacity="0.3" d="M150.114 37.7033C150.25 37.6148 150.289 37.4325 150.2 37.296C150.112 37.1596 149.929 37.1208 149.793 37.2093C149.657 37.2978 149.618 37.4802 149.706 37.6166C149.795 37.7531 149.977 37.7919 150.114 37.7033Z" fill="white"/>
<path opacity="0.11" d="M103.75 53.3914C103.887 53.3028 103.925 53.1204 103.837 52.984C103.748 52.8476 103.566 52.8088 103.43 52.8973C103.293 52.9859 103.254 53.1682 103.343 53.3046C103.431 53.4411 103.614 53.4799 103.75 53.3914Z" fill="white"/>
<path opacity="0.11" d="M150.338 52.6589C150.475 52.5704 150.513 52.388 150.425 52.2516C150.336 52.1152 150.154 52.0764 150.018 52.1649C149.881 52.2534 149.842 52.4358 149.931 52.5722C150.019 52.7086 150.202 52.7475 150.338 52.6589Z" fill="white"/>
<path opacity="0.11" d="M99.0268 78.5836C99.2999 78.4063 99.3776 78.0413 99.2004 77.7682C99.0232 77.4951 98.6582 77.4174 98.3851 77.5946C98.112 77.7719 98.0343 78.1369 98.2115 78.41C98.3887 78.6831 98.7538 78.7608 99.0268 78.5836Z" fill="white"/>
<path d="M93.2914 70.0146C93.4961 69.8817 93.5544 69.608 93.4215 69.4032C93.2886 69.1985 93.0149 69.1402 92.8102 69.2731C92.6054 69.406 92.5472 69.6797 92.68 69.8844C92.8129 70.0892 93.0866 70.1474 93.2914 70.0146Z" fill="white"/>
<path d="M178.334 58.7265C178.539 58.5936 178.597 58.3199 178.464 58.1151C178.332 57.9104 178.058 57.8521 177.853 57.985C177.648 58.1179 177.59 58.3916 177.723 58.5963C177.856 58.8011 178.13 58.8593 178.334 58.7265Z" fill="white"/>
<path d="M84.6371 82.6547C84.8418 82.5218 84.9001 82.2481 84.7672 82.0434C84.6343 81.8386 84.3606 81.7803 84.1559 81.9132C83.9511 82.0461 83.8929 82.3198 84.0258 82.5246C84.1586 82.7293 84.4323 82.7876 84.6371 82.6547Z" fill="white"/>
<path d="M177.26 39.7543C177.465 39.6214 177.523 39.3477 177.39 39.143C177.257 38.9382 176.984 38.88 176.779 39.0128C176.574 39.1457 176.516 39.4194 176.649 39.6242C176.782 39.8289 177.055 39.8872 177.26 39.7543Z" fill="white"/>
<path d="M174.372 22.3134C174.577 22.1805 174.635 21.9068 174.503 21.7021C174.37 21.4973 174.096 21.439 173.891 21.5719C173.686 21.7048 173.628 21.9785 173.761 22.1832C173.894 22.388 174.168 22.4463 174.372 22.3134Z" fill="white"/>
<path opacity="0.3" d="M113.837 57.0291C114.11 56.8519 114.188 56.4868 114.011 56.2138C113.834 55.9407 113.469 55.863 113.196 56.0402C112.923 56.2174 112.845 56.5825 113.022 56.8555C113.199 57.1286 113.564 57.2063 113.837 57.0291Z" fill="white"/>
<path d="M102.453 39.484C102.726 39.3067 102.803 38.9417 102.626 38.6686C102.449 38.3955 102.084 38.3178 101.811 38.495C101.538 38.6723 101.46 39.0373 101.637 39.3104C101.815 39.5835 102.18 39.6612 102.453 39.484Z" fill="white"/>
<path d="M130.096 54.2074C130.301 54.0746 130.359 53.8009 130.226 53.5961C130.093 53.3913 129.82 53.3331 129.615 53.466C129.41 53.5988 129.352 53.8725 129.485 54.0773C129.618 54.282 129.891 54.3403 130.096 54.2074Z" fill="white"/>
<path opacity="0.3" d="M135.828 36.7908C136.101 36.6136 136.178 36.2486 136.001 35.9755C135.824 35.7024 135.459 35.6247 135.186 35.8019C134.913 35.9791 134.835 36.3442 135.012 36.6173C135.19 36.8903 135.555 36.9681 135.828 36.7908Z" fill="white"/>
<path opacity="0.3" d="M171.681 38.4595C171.954 38.2823 172.032 37.9173 171.855 37.6442C171.677 37.3711 171.312 37.2934 171.039 37.4706C170.766 37.6478 170.689 38.0129 170.866 38.286C171.043 38.559 171.408 38.6368 171.681 38.4595Z" fill="white"/>
<path opacity="0.3" d="M143.086 57.7173C143.359 57.5401 143.437 57.1751 143.26 56.902C143.083 56.6289 142.718 56.5512 142.445 56.7284C142.172 56.9057 142.094 57.2707 142.271 57.5438C142.448 57.8169 142.813 57.8946 143.086 57.7173Z" fill="white"/>
<path opacity="0.11" d="M156.738 37.6209C157.011 37.4437 157.089 37.0787 156.911 36.8056C156.734 36.5325 156.369 36.4548 156.096 36.632C155.823 36.8092 155.745 37.1743 155.922 37.4473C156.1 37.7204 156.465 37.7981 156.738 37.6209Z" fill="white"/>
<g clip-path="url(#clip3_93_509)">
<path opacity="0.11" d="M310.581 58.2449C310.265 58.1675 310.071 57.8484 310.148 57.5322C310.226 57.216 310.545 57.0224 310.861 57.0998C311.177 57.1772 311.371 57.4963 311.293 57.8125C311.216 58.1288 310.897 58.3223 310.581 58.2449Z" fill="white"/>
<path d="M307.951 60.9368C307.714 60.8788 307.569 60.6395 307.627 60.4025C307.685 60.1654 307.924 60.0202 308.162 60.0783C308.399 60.1363 308.544 60.3756 308.486 60.6126C308.428 60.8497 308.188 60.9949 307.951 60.9368Z" fill="white"/>
<path d="M299.978 52.6165C299.741 52.5585 299.595 52.3192 299.654 52.0821C299.712 51.8451 299.951 51.6999 300.188 51.7579C300.425 51.816 300.57 52.0552 300.512 52.2923C300.454 52.5294 300.215 52.6746 299.978 52.6165Z" fill="white"/>
<path d="M308.71 69.6148C308.552 69.5762 308.455 69.4167 308.494 69.2588C308.532 69.1008 308.692 69.0041 308.85 69.0428C309.008 69.0814 309.104 69.2409 309.066 69.3988C309.027 69.5568 308.868 69.6535 308.71 69.6148Z" fill="white"/>
<path d="M246.324 54.3451C246.166 54.3064 246.069 54.147 246.108 53.989C246.147 53.831 246.306 53.7343 246.464 53.773C246.622 53.8117 246.719 53.9711 246.68 54.129C246.641 54.287 246.482 54.3837 246.324 54.3451Z" fill="white"/>
<path d="M218.917 31.255C218.759 31.2163 218.662 31.0569 218.701 30.8989C218.739 30.7409 218.899 30.6442 219.057 30.6829C219.215 30.7216 219.311 30.881 219.273 31.039C219.234 31.1969 219.075 31.2936 218.917 31.255Z" fill="white"/>
<path d="M202.64 49.4132C202.482 49.3745 202.386 49.2151 202.424 49.0571C202.463 48.8992 202.622 48.8024 202.78 48.8411C202.938 48.8798 203.035 49.0392 202.996 49.1972C202.958 49.3551 202.798 49.4518 202.64 49.4132Z" fill="white"/>
<path opacity="0.11" d="M306.757 80.0582C306.599 80.0195 306.502 79.8601 306.541 79.7021C306.579 79.5442 306.739 79.4475 306.897 79.4861C307.055 79.5248 307.151 79.6842 307.113 79.8422C307.074 80.0001 306.915 80.0969 306.757 80.0582Z" fill="white"/>
<path opacity="0.11" d="M252.515 63.7447C252.357 63.706 252.261 63.5466 252.299 63.3887C252.338 63.2307 252.497 63.134 252.655 63.1727C252.813 63.2113 252.91 63.3707 252.871 63.5287C252.833 63.6867 252.673 63.7834 252.515 63.7447Z" fill="white"/>
<path d="M288.377 32.4859C288.219 32.4472 288.122 32.2878 288.161 32.1299C288.199 31.9719 288.359 31.8752 288.517 31.9139C288.675 31.9525 288.771 32.1119 288.733 32.2699C288.694 32.4279 288.535 32.5246 288.377 32.4859Z" fill="white"/>
<path opacity="0.3" d="M208.258 28.9495C208.101 28.9109 208.004 28.7515 208.042 28.5935C208.081 28.4355 208.241 28.3388 208.399 28.3775C208.557 28.4162 208.653 28.5756 208.615 28.7335C208.576 28.8915 208.416 28.9882 208.258 28.9495Z" fill="white"/>
<path opacity="0.11" d="M257.203 28.495C257.045 28.4563 256.948 28.2969 256.987 28.1389C257.025 27.9809 257.185 27.8842 257.343 27.9229C257.501 27.9616 257.598 28.121 257.559 28.2789C257.52 28.4369 257.361 28.5336 257.203 28.495Z" fill="white"/>
<path opacity="0.11" d="M212.972 43.1453C212.814 43.1067 212.718 42.9473 212.756 42.7893C212.795 42.6313 212.954 42.5346 213.112 42.5733C213.27 42.612 213.367 42.7714 213.328 42.9293C213.29 43.0873 213.13 43.184 212.972 43.1453Z" fill="white"/>
<path opacity="0.3" d="M284.742 63.4451C284.426 63.3677 284.232 63.0486 284.309 62.7324C284.387 62.4162 284.706 62.2226 285.022 62.3C285.338 62.3774 285.532 62.6965 285.455 63.0127C285.377 63.3289 285.058 63.5225 284.742 63.4451Z" fill="white"/>
<path opacity="0.11" d="M269.959 50.7266C269.642 50.6492 269.449 50.3301 269.526 50.0139C269.604 49.6977 269.923 49.5041 270.239 49.5815C270.555 49.6589 270.749 49.978 270.671 50.2942C270.594 50.6104 270.275 50.804 269.959 50.7266Z" fill="white"/>
<path d="M272.553 40.7466C272.316 40.6886 272.171 40.4494 272.229 40.2123C272.287 39.9752 272.526 39.83 272.763 39.8881C273 39.9461 273.145 40.1854 273.087 40.4224C273.029 40.6595 272.79 40.8047 272.553 40.7466Z" fill="white"/>
<path d="M284.941 75.627C284.704 75.569 284.558 75.3297 284.616 75.0926C284.674 74.8555 284.914 74.7104 285.151 74.7684C285.388 74.8265 285.533 75.0657 285.475 75.3028C285.417 75.5399 285.178 75.6851 284.941 75.627Z" fill="white"/>
<path d="M188.535 58.0926C188.298 58.0346 188.153 57.7953 188.211 57.5582C188.269 57.3211 188.508 57.176 188.745 57.234C188.983 57.2921 189.128 57.5313 189.07 57.7684C189.012 58.0055 188.772 58.1506 188.535 58.0926Z" fill="white"/>
<path d="M284.886 49.8333C284.649 49.7753 284.504 49.536 284.562 49.2989C284.62 49.0618 284.859 48.9167 285.096 48.9747C285.333 49.0328 285.478 49.272 285.42 49.5091C285.362 49.7462 285.123 49.8914 284.886 49.8333Z" fill="white"/>
<path d="M254.369 77.8497C254.132 77.7916 253.987 77.5524 254.045 77.3153C254.103 77.0782 254.342 76.9331 254.579 76.9911C254.817 77.0491 254.962 77.2884 254.904 77.5255C254.846 77.7626 254.606 77.9077 254.369 77.8497Z" fill="white"/>
<path d="M183.302 39.8255C183.065 39.7675 182.92 39.5282 182.978 39.2911C183.036 39.054 183.275 38.9089 183.512 38.9669C183.749 39.025 183.894 39.2642 183.836 39.5013C183.778 39.7384 183.539 39.8835 183.302 39.8255Z" fill="white"/>
<path d="M180.286 22.4061C180.049 22.348 179.904 22.1088 179.962 21.8717C180.02 21.6346 180.259 21.4895 180.497 21.5475C180.734 21.6055 180.879 21.8448 180.821 22.0819C180.763 22.319 180.523 22.4641 180.286 22.4061Z" fill="white"/>
<path opacity="0.3" d="M248.873 35.253C248.557 35.1756 248.363 34.8565 248.44 34.5403C248.518 34.2241 248.837 34.0305 249.153 34.1079C249.469 34.1853 249.663 34.5044 249.585 34.8206C249.508 35.1368 249.189 35.3304 248.873 35.253Z" fill="white"/>
<path d="M253.849 14.9356C253.533 14.8582 253.339 14.5391 253.417 14.2229C253.494 13.9067 253.813 13.7131 254.13 13.7905C254.446 13.8679 254.639 14.187 254.562 14.5032C254.485 14.8194 254.165 15.013 253.849 14.9356Z" fill="white"/>
<path d="M232.594 37.941C232.357 37.8829 232.212 37.6437 232.27 37.4066C232.328 37.1695 232.567 37.0244 232.804 37.0824C233.041 37.1404 233.186 37.3797 233.128 37.6168C233.07 37.8539 232.831 37.999 232.594 37.941Z" fill="white"/>
<path opacity="0.3" d="M221.447 23.3833C221.131 23.3059 220.937 22.9868 221.015 22.6706C221.092 22.3544 221.411 22.1608 221.727 22.2383C222.043 22.3157 222.237 22.6348 222.16 22.951C222.082 23.2672 221.763 23.4608 221.447 23.3833Z" fill="white"/>
<path opacity="0.3" d="M188.143 36.7652C187.827 36.6878 187.633 36.3687 187.711 36.0525C187.788 35.7363 188.107 35.5427 188.424 35.6201C188.74 35.6975 188.933 36.0166 188.856 36.3328C188.779 36.649 188.459 36.8426 188.143 36.7652Z" fill="white"/>
<path opacity="0.3" d="M221.485 45.5337C221.169 45.4563 220.975 45.1372 221.053 44.821C221.13 44.5048 221.449 44.3112 221.765 44.3886C222.082 44.4661 222.275 44.7851 222.198 45.1014C222.12 45.4176 221.801 45.6112 221.485 45.5337Z" fill="white"/>
<path opacity="0.11" d="M201.978 31.053C201.662 30.9756 201.468 30.6565 201.546 30.3403C201.623 30.0241 201.942 29.8305 202.259 29.9079C202.575 29.9853 202.768 30.3044 202.691 30.6206C202.613 30.9369 202.294 31.1304 201.978 31.053Z" fill="white"/>
<path opacity="0.11" d="M149.13 66.2452C148.813 66.1678 148.62 65.8487 148.697 65.5325C148.775 65.2162 149.094 65.0227 149.41 65.1001C149.726 65.1775 149.92 65.4966 149.842 65.8128C149.765 66.129 149.446 66.3226 149.13 66.2452Z" fill="white"/>
<path d="M146.501 68.9373C146.264 68.8793 146.119 68.64 146.177 68.4029C146.235 68.1659 146.474 68.0207 146.711 68.0787C146.948 68.1368 147.094 68.376 147.036 68.6131C146.977 68.8502 146.738 68.9954 146.501 68.9373Z" fill="white"/>
<path d="M138.528 60.6175C138.29 60.5595 138.145 60.3202 138.203 60.0831C138.261 59.846 138.501 59.7009 138.738 59.7589C138.975 59.817 139.12 60.0562 139.062 60.2933C139.004 60.5304 138.765 60.6755 138.528 60.6175Z" fill="white"/>
<path d="M162.992 65.9979C162.755 65.9398 162.61 65.7006 162.668 65.4635C162.726 65.2264 162.965 65.0813 163.203 65.1393C163.44 65.1973 163.585 65.4366 163.527 65.6737C163.469 65.9108 163.229 66.0559 162.992 65.9979Z" fill="white"/>
<path opacity="0.11" d="M175.477 76.333C175.161 76.2556 174.967 75.9365 175.045 75.6203C175.122 75.3041 175.441 75.1106 175.758 75.188C176.074 75.2654 176.267 75.5845 176.19 75.9007C176.113 76.2169 175.793 76.4105 175.477 76.333Z" fill="white"/>
<path d="M182.454 71.3692C182.296 71.3306 182.199 71.1711 182.238 71.0132C182.277 70.8552 182.436 70.7585 182.594 70.7972C182.752 70.8358 182.849 70.9952 182.81 71.1532C182.771 71.3112 182.612 71.4079 182.454 71.3692Z" fill="white"/>
<path d="M147.259 77.6153C147.101 77.5766 147.005 77.4172 147.043 77.2593C147.082 77.1013 147.242 77.0046 147.4 77.0433C147.557 77.0819 147.654 77.2413 147.616 77.3993C147.577 77.5573 147.417 77.654 147.259 77.6153Z" fill="white"/>
<path d="M84.8737 62.3443C84.7158 62.3056 84.6191 62.1462 84.6578 61.9883C84.6964 61.8303 84.8558 61.7336 85.0138 61.7723C85.1718 61.8109 85.2685 61.9703 85.2298 62.1283C85.1911 62.2863 85.0317 62.383 84.8737 62.3443Z" fill="white"/>
<path d="M57.4665 39.2545C57.3085 39.2158 57.2118 39.0564 57.2505 38.8984C57.2892 38.7405 57.4486 38.6438 57.6066 38.6824C57.7645 38.7211 57.8612 38.8805 57.8226 39.0385C57.7839 39.1964 57.6245 39.2932 57.4665 39.2545Z" fill="white"/>
<path d="M41.1901 57.4129C41.0322 57.3742 40.9355 57.2148 40.9741 57.0569C41.0128 56.8989 41.1722 56.8022 41.3302 56.8409C41.4881 56.8795 41.5849 57.0389 41.5462 57.1969C41.5075 57.3549 41.3481 57.4516 41.1901 57.4129Z" fill="white"/>
<path d="M244.303 93.7887C244.145 93.75 244.049 93.5906 244.087 93.4326C244.126 93.2746 244.285 93.1779 244.443 93.2166C244.601 93.2553 244.698 93.4147 244.659 93.5727C244.621 93.7306 244.461 93.8273 244.303 93.7887Z" fill="white"/>
<path opacity="0.11" d="M252.376 79.3873C252.218 79.3486 252.121 79.1892 252.16 79.0312C252.198 78.8733 252.358 78.7766 252.516 78.8152C252.674 78.8539 252.77 79.0133 252.732 79.1713C252.693 79.3293 252.534 79.426 252.376 79.3873Z" fill="white"/>
<path opacity="0.11" d="M263.068 88.9813C262.91 88.9426 262.813 88.7832 262.852 88.6252C262.891 88.4673 263.05 88.3706 263.208 88.4092C263.366 88.4479 263.463 88.6073 263.424 88.7653C263.385 88.9232 263.226 89.02 263.068 88.9813Z" fill="white"/>
<path opacity="0.11" d="M184.121 75.7186C183.963 75.6799 183.866 75.5205 183.905 75.3625C183.943 75.2046 184.103 75.1079 184.261 75.1465C184.419 75.1852 184.516 75.3446 184.477 75.5026C184.438 75.6606 184.279 75.7573 184.121 75.7186Z" fill="white"/>
<path opacity="0.11" d="M145.309 88.0567C145.151 88.0181 145.055 87.8586 145.093 87.7007C145.132 87.5427 145.291 87.446 145.449 87.4847C145.607 87.5233 145.704 87.6827 145.665 87.8407C145.627 87.9987 145.467 88.0954 145.309 88.0567Z" fill="white"/>
<path opacity="0.11" d="M91.0652 71.7452C90.9072 71.7065 90.8105 71.5471 90.8491 71.3891C90.8878 71.2312 91.0472 71.1345 91.2052 71.1731C91.3632 71.2118 91.4599 71.3712 91.4212 71.5292C91.3825 71.6872 91.2231 71.7839 91.0652 71.7452Z" fill="white"/>
<path opacity="0.3" d="M232.889 83.4124C232.731 83.3738 232.635 83.2144 232.673 83.0564C232.712 82.8984 232.871 82.8017 233.029 82.8404C233.187 82.879 233.284 83.0385 233.245 83.1964C233.207 83.3544 233.047 83.4511 232.889 83.4124Z" fill="white"/>
<path d="M170.856 51.847C170.698 51.8083 170.601 51.6489 170.64 51.4909C170.679 51.333 170.838 51.2363 170.996 51.2749C171.154 51.3136 171.251 51.473 171.212 51.631C171.174 51.789 171.014 51.8857 170.856 51.847Z" fill="white"/>
<path d="M126.926 40.4872C126.769 40.4485 126.672 40.2891 126.71 40.1311C126.749 39.9731 126.909 39.8764 127.067 39.9151C127.224 39.9538 127.321 40.1132 127.283 40.2711C127.244 40.4291 127.084 40.5258 126.926 40.4872Z" fill="white"/>
<path d="M183.87 82.939C183.712 82.9004 183.615 82.741 183.654 82.583C183.692 82.425 183.852 82.3283 184.01 82.367C184.168 82.4057 184.265 82.5651 184.226 82.723C184.187 82.881 184.028 82.9777 183.87 82.939Z" fill="white"/>
<path opacity="0.3" d="M203.901 87.8421C203.743 87.8034 203.646 87.6441 203.685 87.4861C203.724 87.3281 203.883 87.2314 204.041 87.2701C204.199 87.3087 204.296 87.4682 204.257 87.6261C204.218 87.7841 204.059 87.8808 203.901 87.8421Z" fill="white"/>
<path opacity="0.11" d="M231.707 75.8446C231.549 75.8059 231.452 75.6465 231.491 75.4885C231.529 75.3305 231.689 75.2338 231.847 75.2725C232.005 75.3112 232.101 75.4706 232.063 75.6285C232.024 75.7865 231.865 75.8832 231.707 75.8446Z" fill="white"/>
<path opacity="0.3" d="M164.02 57.4544C163.862 57.4158 163.766 57.2563 163.804 57.0984C163.843 56.9404 164.002 56.8437 164.16 56.8824C164.318 56.921 164.415 57.0805 164.376 57.2384C164.338 57.3964 164.178 57.4931 164.02 57.4544Z" fill="white"/>
<path opacity="0.3" d="M177.672 87.1847C177.514 87.146 177.417 86.9866 177.456 86.8286C177.494 86.6706 177.654 86.5739 177.812 86.6126C177.97 86.6513 178.066 86.8107 178.028 86.9686C177.989 87.1266 177.83 87.2233 177.672 87.1847Z" fill="white"/>
<path opacity="0.3" d="M224.59 81.3822C224.432 81.3435 224.335 81.1841 224.374 81.0261C224.412 80.8681 224.572 80.7714 224.73 80.8101C224.888 80.8488 224.984 81.0082 224.946 81.1662C224.907 81.3241 224.748 81.4208 224.59 81.3822Z" fill="white"/>
<path opacity="0.3" d="M46.8093 36.95C46.6513 36.9114 46.5546 36.752 46.5933 36.594C46.6319 36.436 46.7913 36.3393 46.9493 36.378C47.1073 36.4166 47.204 36.5761 47.1653 36.734C47.1267 36.892 46.9672 36.9887 46.8093 36.95Z" fill="white"/>
<path opacity="0.11" d="M95.7526 36.495C95.5947 36.4563 95.498 36.2969 95.5366 36.1389C95.5753 35.9809 95.7347 35.8842 95.8927 35.9229C96.0507 35.9616 96.1474 36.121 96.1087 36.279C96.07 36.4369 95.9106 36.5336 95.7526 36.495Z" fill="white"/>
<path opacity="0.11" d="M51.5222 51.1449C51.3642 51.1062 51.2675 50.9468 51.3062 50.7888C51.3449 50.6308 51.5043 50.5341 51.6622 50.5728C51.8202 50.6115 51.9169 50.7709 51.8782 50.9289C51.8395 51.0868 51.6802 51.1835 51.5222 51.1449Z" fill="white"/>
<path opacity="0.3" d="M123.292 71.4454C122.975 71.3679 122.782 71.0489 122.859 70.7326C122.937 70.4164 123.256 70.2229 123.572 70.3003C123.888 70.3777 124.082 70.6968 124.004 71.013C123.927 71.3292 123.608 71.5228 123.292 71.4454Z" fill="white"/>
<path opacity="0.11" d="M108.508 58.7276C108.192 58.6502 107.999 58.3311 108.076 58.0149C108.153 57.6987 108.473 57.5051 108.789 57.5825C109.105 57.6599 109.299 57.979 109.221 58.2952C109.144 58.6114 108.825 58.805 108.508 58.7276Z" fill="white"/>
<path d="M111.102 48.7476C110.865 48.6896 110.72 48.4503 110.778 48.2132C110.836 47.9762 111.075 47.831 111.312 47.8891C111.549 47.9471 111.694 48.1863 111.636 48.4234C111.578 48.6605 111.339 48.8057 111.102 48.7476Z" fill="white"/>
<path d="M123.49 83.6282C123.253 83.5702 123.108 83.3309 123.166 83.0939C123.224 82.8568 123.464 82.7116 123.701 82.7697C123.938 82.8277 124.083 83.067 124.025 83.304C123.967 83.5411 123.728 83.6863 123.49 83.6282Z" fill="white"/>
<path d="M27.0851 66.0931C26.8481 66.035 26.7029 65.7958 26.761 65.5587C26.819 65.3216 27.0582 65.1765 27.2953 65.2345C27.5324 65.2926 27.6776 65.5318 27.6195 65.7689C27.5615 66.006 27.3222 66.1511 27.0851 66.0931Z" fill="white"/>
<path d="M123.436 57.8331C123.199 57.775 123.054 57.5358 123.112 57.2987C123.17 57.0616 123.409 56.9165 123.646 56.9745C123.883 57.0325 124.028 57.2718 123.97 57.5089C123.912 57.746 123.673 57.8911 123.436 57.8331Z" fill="white"/>
<path d="M168.045 91.1976C167.808 91.1395 167.663 90.9003 167.721 90.6632C167.779 90.4261 168.018 90.281 168.255 90.339C168.492 90.397 168.638 90.6363 168.579 90.8734C168.521 91.1105 168.282 91.2556 168.045 91.1976Z" fill="white"/>
<path d="M92.9191 85.8502C92.682 85.7921 92.5369 85.5529 92.5949 85.3158C92.653 85.0787 92.8922 84.9335 93.1293 84.9916C93.3664 85.0496 93.5115 85.2889 93.4535 85.526C93.3955 85.7631 93.1562 85.9082 92.9191 85.8502Z" fill="white"/>
<path d="M21.8517 47.8258C21.6147 47.7677 21.4695 47.5285 21.5276 47.2914C21.5856 47.0543 21.8248 46.9091 22.0619 46.9672C22.299 47.0252 22.4442 47.2645 22.3861 47.5016C22.3281 47.7386 22.0888 47.8838 21.8517 47.8258Z" fill="white"/>
<path d="M18.8351 30.4063C18.5981 30.3483 18.4529 30.109 18.511 29.8719C18.569 29.6348 18.8082 29.4897 19.0453 29.5477C19.2824 29.6058 19.4276 29.845 19.3695 30.0821C19.3115 30.3192 19.0722 30.4644 18.8351 30.4063Z" fill="white"/>
<path opacity="0.3" d="M87.4264 43.252C87.1102 43.1746 86.9166 42.8555 86.994 42.5393C87.0714 42.2231 87.3905 42.0295 87.7067 42.1069C88.0229 42.1843 88.2165 42.5034 88.1391 42.8196C88.0617 43.1358 87.7426 43.3294 87.4264 43.252Z" fill="white"/>
<path d="M92.3991 22.9366C92.0829 22.8592 91.8893 22.5401 91.9667 22.2239C92.0441 21.9077 92.3632 21.7141 92.6794 21.7915C92.9956 21.8689 93.1892 22.188 93.1118 22.5042C93.0344 22.8204 92.7153 23.014 92.3991 22.9366Z" fill="white"/>
<path d="M71.1447 45.9412C70.9076 45.8832 70.7625 45.6439 70.8205 45.4068C70.8786 45.1698 71.1178 45.0246 71.3549 45.0827C71.592 45.1407 71.7371 45.3799 71.6791 45.617C71.621 45.8541 71.3818 45.9993 71.1447 45.9412Z" fill="white"/>
<path opacity="0.3" d="M59.9977 31.3843C59.6815 31.3069 59.4879 30.9878 59.5653 30.6716C59.6428 30.3554 59.9618 30.1618 60.278 30.2392C60.5943 30.3166 60.7878 30.6357 60.7104 30.9519C60.633 31.2681 60.3139 31.4617 59.9977 31.3843Z" fill="white"/>
<path opacity="0.3" d="M26.693 44.7662C26.3768 44.6887 26.1832 44.3697 26.2607 44.0534C26.3381 43.7372 26.6572 43.5437 26.9734 43.6211C27.2896 43.6985 27.4831 44.0176 27.4057 44.3338C27.3283 44.65 27.0092 44.8436 26.693 44.7662Z" fill="white"/>
<path opacity="0.3" d="M60.0348 53.534C59.7186 53.4566 59.525 53.1375 59.6025 52.8213C59.6799 52.5051 59.9989 52.3115 60.3152 52.3889C60.6314 52.4663 60.8249 52.7854 60.7475 53.1016C60.6701 53.4178 60.351 53.6114 60.0348 53.534Z" fill="white"/>
<path opacity="0.3" d="M250.136 88.5447C249.82 88.4673 249.627 88.1482 249.704 87.832C249.781 87.5158 250.1 87.3222 250.417 87.3996C250.733 87.477 250.927 87.7961 250.849 88.1123C250.772 88.4285 250.453 88.6221 250.136 88.5447Z" fill="white"/>
<path opacity="0.11" d="M40.528 39.0535C40.2118 38.9761 40.0182 38.657 40.0956 38.3408C40.173 38.0246 40.4921 37.831 40.8083 37.9084C41.1245 37.9858 41.3181 38.3049 41.2407 38.6211C41.1633 38.9373 40.8442 39.1309 40.528 39.0535Z" fill="white"/>
<path opacity="0.3" d="M211.596 68.7977C211.28 68.7202 211.087 68.4012 211.164 68.0849C211.241 67.7687 211.56 67.5751 211.877 67.6526C212.193 67.73 212.386 68.0491 212.309 68.3653C212.232 68.6815 211.913 68.8751 211.596 68.7977Z" fill="white"/>
<path opacity="0.11" d="M220.724 64.9659C220.408 64.8884 220.214 64.5694 220.292 64.2531C220.369 63.9369 220.688 63.7434 221.005 63.8208C221.321 63.8982 221.514 64.2173 221.437 64.5335C221.36 64.8497 221.04 65.0433 220.724 64.9659Z" fill="white"/>
<path opacity="0.3" d="M218.528 83.8401C218.212 83.7627 218.018 83.4436 218.096 83.1274C218.173 82.8112 218.492 82.6176 218.808 82.695C219.125 82.7724 219.318 83.0915 219.241 83.4077C219.163 83.724 218.844 83.9175 218.528 83.8401Z" fill="white"/>
<path d="M200.715 79.1756C200.478 79.1176 200.333 78.8783 200.391 78.6412C200.449 78.4041 200.688 78.259 200.925 78.317C201.162 78.3751 201.307 78.6143 201.249 78.8514C201.191 79.0885 200.952 79.2336 200.715 79.1756Z" fill="white"/>
</g>
<rect opacity="0.4" x="-195.002" y="-57.0701" width="722.392" height="300.997" fill="url(#paint1_radial_93_509)"/>
</g>
<mask id="mask0_93_509" style="mask-type:alpha" maskUnits="userSpaceOnUse" x="-196" y="-58" width="724" height="302">
<rect x="-195.002" y="-57.0547" width="722.392" height="300.997" fill="url(#paint2_radial_93_509)"/>
</mask>
<g mask="url(#mask0_93_509)">
</g>
</g>
</g>
<rect x="1" y="1" width="308.891" height="91.9454" rx="45.9727" stroke="url(#paint3_linear_93_509)" stroke-width="2"/>
</g>
<defs>
<filter id="filter0_b_93_509" x="-93.6364" y="-93.6364" width="498.163" height="281.218" filterUnits="userSpaceOnUse" color-interpolation-filters="sRGB">
<feFlood flood-opacity="0" result="BackgroundImageFix"/>
<feGaussianBlur in="BackgroundImageFix" stdDeviation="46.8182"/>
<feComposite in2="SourceAlpha" operator="in" result="effect1_backgroundBlur_93_509"/>
<feBlend mode="normal" in="SourceGraphic" in2="effect1_backgroundBlur_93_509" result="shape"/>
</filter>
<radialGradient id="paint0_radial_93_509" cx="0" cy="0" r="1" gradientUnits="userSpaceOnUse" gradientTransform="translate(-22.1855 153.203) rotate(-24.5241) scale(267.515 331.297)">
<stop stop-color="#F8744C"/>
<stop offset="1" stop-color="#31160B" stop-opacity="0"/>
</radialGradient>
<radialGradient id="paint1_radial_93_509" cx="0" cy="0" r="1" gradientUnits="userSpaceOnUse" gradientTransform="translate(166.194 93.4283) scale(361.196 150.498)">
<stop stop-color="#AB64F1" stop-opacity="0.5"/>
<stop offset="0.653203" stop-color="#2A0845" stop-opacity="0"/>
</radialGradient>
<radialGradient id="paint2_radial_93_509" cx="0" cy="0" r="1" gradientUnits="userSpaceOnUse" gradientTransform="translate(166.194 93.4436) scale(391.296 391.296)">
<stop/>
<stop offset="0.8" stop-opacity="0"/>
</radialGradient>
<linearGradient id="paint3_linear_93_509" x1="78.5034" y1="32.1823" x2="94.471" y2="116.859" gradientUnits="userSpaceOnUse">
<stop stop-color="#F8744C"/>
<stop offset="1" stop-color="white" stop-opacity="0"/>
</linearGradient>
<clipPath id="clip0_93_509">
<rect width="310.891" height="93.9454" rx="46.9727" fill="white"/>
</clipPath>
<clipPath id="clip1_93_509">
<rect width="495.641" height="151" fill="white" transform="translate(-92.1611 -57.0547)"/>
</clipPath>
<clipPath id="clip2_93_509">
<rect width="722.392" height="300.997" fill="white" transform="translate(-195.002 -57.0547)"/>
</clipPath>
<clipPath id="clip3_93_509">
<rect width="437.449" height="366.714" fill="white" transform="matrix(-0.944226 0.329297 0.329297 0.944226 405.67 -127.789)"/>
</clipPath>
</defs>
</svg>
