<svg width="33" height="29" viewBox="0 0 33 29" fill="none" xmlns="http://www.w3.org/2000/svg">
<path fill-rule="evenodd" clip-rule="evenodd" d="M19.9641 2C18.4245 -0.666668 14.5754 -0.666665 13.0358 2L0.911494 23C-0.628106 25.6667 1.2964 29 4.3756 29H28.6243C31.7035 29 33.628 25.6667 32.0884 23L19.9641 2ZM15.3092 18.5622H17.6907L18.3381 12.8336V8H14.6618V12.8336L15.3092 18.5622ZM15.0549 23.4629C15.4402 23.821 15.9181 24 16.4884 24C17.0587 24 17.5365 23.821 17.9219 23.4629C18.3073 23.09 18.4999 22.6275 18.4999 22.0755C18.4999 21.5235 18.3073 21.0611 17.9219 20.6881C17.5365 20.3152 17.0587 20.1287 16.4884 20.1287C15.9181 20.1287 15.4402 20.3152 15.0549 20.6881C14.6849 21.0611 14.4999 21.5235 14.4999 22.0755C14.4999 22.6275 14.6849 23.09 15.0549 23.4629Z" fill="white"/>
</svg>
