<svg width="97" height="75" viewBox="0 0 97 75" fill="none" xmlns="http://www.w3.org/2000/svg">
<g filter="url(#filter0_b_1_2)">
<path d="M12.9697 10.4395C14.1894 4.36819 19.5224 0 25.7151 0H68.0272C73.9874 0 79.1841 4.05309 80.6358 9.8338L92.9404 58.8338C95.0016 67.042 88.7949 75 80.3319 75H15.8713C7.66318 75 1.50932 67.4869 3.12597 59.4396L12.9697 10.4395Z" fill="black" fill-opacity="0.25"/>
<path d="M13.9501 10.6365C15.076 5.03217 19.9987 1 25.7151 1H68.0272C73.529 1 78.3259 4.74131 79.6659 10.0774L91.9705 59.0774C93.8732 66.6542 88.1439 74 80.3319 74H15.8713C8.29457 74 2.61409 67.0649 4.10639 59.6365L13.9501 10.6365Z" stroke="url(#paint0_linear_1_2)" stroke-width="2"/>
</g>
<path d="M37.3109 19.0678C41.4589 15.0136 46.6933 14 48.792 14V27.3379C47.1588 27.3379 46.3831 28.0989 46.1995 28.4794C38.496 25.2939 34.5949 19.1884 33.6073 16.5339C34.4962 17.6922 36.4467 18.7058 37.3109 19.0678Z" fill="white"/>
<path d="M59.9994 19.0678C55.8514 15.0136 50.617 14 48.5183 14V27.3379C50.1515 27.3379 50.9272 28.0989 51.1108 28.4794C58.8143 25.2939 62.7154 19.1884 63.703 16.5339C62.8141 17.6922 60.8636 18.7058 59.9994 19.0678Z" fill="white"/>
<path d="M39.7185 27.4507C40.8868 28.3116 43.5162 30.1345 44.688 30.5388C42.457 31.2219 38.3397 31.5606 39.7185 27.4507Z" fill="white"/>
<path d="M37.622 25.654C36.8867 25.1149 35.6114 23.3894 35.0657 22.5939C32.9443 24.6673 32.7138 28.7544 32.8637 30.5388C32.8637 44.0087 30.2879 50.3013 29 51.7639L34.4563 47.6893L38.1506 53.6521L42.4471 50.0008L48.6725 60.1449V56.8023L46.623 50.0008C44.9453 42.7708 39.7699 39.5534 37.3919 38.8485L42.4471 36.0412L42.6195 33.7111C35.7949 33.7111 36.4443 28.3397 37.622 25.654Z" fill="white"/>
<path d="M57.5901 27.4507C56.4218 28.3116 53.7924 30.1345 52.6207 30.5388C54.8517 31.2219 58.9689 31.5606 57.5901 27.4507Z" fill="white"/>
<path d="M59.6866 25.654C60.4219 25.1149 61.6972 23.3894 62.2429 22.5939C64.3643 24.6673 64.5948 28.7544 64.4449 30.5388C64.4449 44.0087 67.0207 50.3013 68.3086 51.7639L62.8523 47.6893L59.158 53.6521L54.8615 50.0008L48.6361 60.1449V56.8023L50.6856 50.0008C52.3634 42.7708 57.5387 39.5534 59.9167 38.8485L54.8615 36.0412L54.6891 33.7111C61.5137 33.7111 60.8643 28.3397 59.6866 25.654Z" fill="white"/>
<path d="M45.3301 34.4097C45.3301 31.7469 47.6531 30.4362 48.8145 30.1137V48.6912C48.8145 43.83 44.7493 40.1378 42.7167 38.8993L45.3301 37.3124V34.4097Z" fill="white"/>
<path d="M52.292 34.4097C52.292 31.7469 49.9691 30.4362 48.8076 30.1137V48.6912C48.8076 43.83 52.8728 40.1378 54.9055 38.8993L52.292 37.3124V34.4097Z" fill="white"/>
<defs>
<filter id="filter0_b_1_2" x="-102.654" y="-105.521" width="301.514" height="286.042" filterUnits="userSpaceOnUse" color-interpolation-filters="sRGB">
<feFlood flood-opacity="0" result="BackgroundImageFix"/>
<feGaussianBlur in="BackgroundImageFix" stdDeviation="52.7605"/>
<feComposite in2="SourceAlpha" operator="in" result="effect1_backgroundBlur_1_2"/>
<feBlend mode="normal" in="SourceGraphic" in2="effect1_backgroundBlur_1_2" result="shape"/>
</filter>
<linearGradient id="paint0_linear_1_2" x1="96.6166" y1="0" x2="96.6166" y2="75" gradientUnits="userSpaceOnUse">
<stop stop-color="white"/>
<stop offset="1" stop-color="#DADADA"/>
</linearGradient>
</defs>
</svg>
