<svg width="97" height="75" viewBox="0 0 97 75" fill="none" xmlns="http://www.w3.org/2000/svg">
<g filter="url(#filter0_b_1_4)">
<path d="M12.9697 10.4395C14.1894 4.36819 19.5224 0 25.7151 0H68.0272C73.9874 0 79.1841 4.05309 80.6358 9.8338L92.9404 58.8338C95.0016 67.042 88.7949 75 80.3319 75H15.8713C7.66318 75 1.50932 67.4869 3.12597 59.4396L12.9697 10.4395Z" fill="black" fill-opacity="0.25"/>
<path d="M13.9501 10.6365C15.076 5.03217 19.9987 1 25.7151 1H68.0272C73.529 1 78.3259 4.74131 79.6659 10.0774L91.9705 59.0774C93.8732 66.6542 88.1439 74 80.3319 74H15.8713C8.29457 74 2.61409 67.0649 4.10639 59.6365L13.9501 10.6365Z" stroke="url(#paint0_linear_1_4)" stroke-width="2"/>
</g>
<path fill-rule="evenodd" clip-rule="evenodd" d="M63.833 20.2455C64.3794 20.0281 64.9774 19.9531 65.5648 20.0284C66.1522 20.1036 66.7075 20.3264 67.173 20.6734C67.6384 21.0204 67.997 21.4791 68.2114 22.0016C68.4257 22.5241 68.4881 23.0914 68.3918 23.6444L63.3776 52.4007C62.8912 55.1745 59.6722 56.7653 56.9815 55.3836C54.7309 54.2276 51.388 52.4467 48.3812 50.5884C46.8779 49.6582 42.2726 46.6795 42.8386 44.56C43.325 42.7477 51.063 35.9375 55.4848 31.8885C57.2203 30.2978 56.4288 29.3802 54.3793 30.8434C49.2899 34.4763 41.1185 40.001 38.4168 41.5562C36.0335 42.9274 34.791 43.1615 33.3053 42.9274C30.5948 42.501 28.081 41.8405 26.0293 41.0357C23.2569 39.9488 23.3918 36.3451 26.0271 35.2957L63.833 20.2455Z" fill="white"/>
<defs>
<filter id="filter0_b_1_4" x="-102.654" y="-105.521" width="301.514" height="286.042" filterUnits="userSpaceOnUse" color-interpolation-filters="sRGB">
<feFlood flood-opacity="0" result="BackgroundImageFix"/>
<feGaussianBlur in="BackgroundImageFix" stdDeviation="52.7605"/>
<feComposite in2="SourceAlpha" operator="in" result="effect1_backgroundBlur_1_4"/>
<feBlend mode="normal" in="SourceGraphic" in2="effect1_backgroundBlur_1_4" result="shape"/>
</filter>
<linearGradient id="paint0_linear_1_4" x1="96.6166" y1="0" x2="96.6166" y2="75" gradientUnits="userSpaceOnUse">
<stop stop-color="white"/>
<stop offset="1" stop-color="#DADADA"/>
</linearGradient>
</defs>
</svg>
