<svg width="97" height="75" viewBox="0 0 97 75" fill="none" xmlns="http://www.w3.org/2000/svg">
<g filter="url(#filter0_b_1_3)">
<path d="M12.9697 10.4395C14.1894 4.36819 19.5224 0 25.7151 0H68.0272C73.9874 0 79.1841 4.05309 80.6358 9.8338L92.9404 58.8338C95.0016 67.042 88.7949 75 80.3319 75H15.8713C7.66318 75 1.50932 67.4869 3.12597 59.4396L12.9697 10.4395Z" fill="black" fill-opacity="0.25"/>
<path d="M13.9501 10.6365C15.076 5.03217 19.9987 1 25.7151 1H68.0272C73.529 1 78.3259 4.74131 79.6659 10.0774L91.9705 59.0774C93.8732 66.6542 88.1439 74 80.3319 74H15.8713C8.29457 74 2.61409 67.0649 4.10639 59.6365L13.9501 10.6365Z" stroke="url(#paint0_linear_1_3)" stroke-width="2"/>
</g>
<path d="M41.3636 19H28L43.7691 39.3778L28.8591 56H33.9182L46.1135 42.4044L56.6364 56H70L53.5665 34.7657L67.7091 19H62.65L51.2222 31.7391L41.3636 19ZM58.5455 52.3L35.6364 22.7H39.4545L62.3636 52.3H58.5455Z" fill="white"/>
<defs>
<filter id="filter0_b_1_3" x="-102.654" y="-105.521" width="301.514" height="286.042" filterUnits="userSpaceOnUse" color-interpolation-filters="sRGB">
<feFlood flood-opacity="0" result="BackgroundImageFix"/>
<feGaussianBlur in="BackgroundImageFix" stdDeviation="52.7605"/>
<feComposite in2="SourceAlpha" operator="in" result="effect1_backgroundBlur_1_3"/>
<feBlend mode="normal" in="SourceGraphic" in2="effect1_backgroundBlur_1_3" result="shape"/>
</filter>
<linearGradient id="paint0_linear_1_3" x1="96.6166" y1="0" x2="96.6166" y2="75" gradientUnits="userSpaceOnUse">
<stop stop-color="white"/>
<stop offset="1" stop-color="#DADADA"/>
</linearGradient>
</defs>
</svg>
