<svg width="47" height="35" viewBox="0 0 47 35" fill="none" xmlns="http://www.w3.org/2000/svg">
<rect x="1" y="0.5" width="45" height="34" rx="17" stroke="url(#paint0_linear_15_603)"/>
<path d="M22.9477 21.916C22.7877 21.916 22.6517 21.868 22.5397 21.772C22.4437 21.66 22.3957 21.524 22.3957 21.364V9.65198C22.3957 9.49198 22.4437 9.36398 22.5397 9.26798C22.6517 9.15598 22.7877 9.09998 22.9477 9.09998H24.0757C24.2357 9.09998 24.3637 9.15598 24.4597 9.26798C24.5557 9.36398 24.6037 9.49198 24.6037 9.65198V21.364C24.6037 21.524 24.5557 21.66 24.4597 21.772C24.3637 21.868 24.2357 21.916 24.0757 21.916H22.9477ZM22.7317 25.9C22.5717 25.9 22.4357 25.852 22.3237 25.756C22.2277 25.644 22.1797 25.508 22.1797 25.348V23.836C22.1797 23.66 22.2277 23.524 22.3237 23.428C22.4357 23.316 22.5717 23.26 22.7317 23.26H24.2677C24.4277 23.26 24.5557 23.316 24.6517 23.428C24.7637 23.524 24.8197 23.66 24.8197 23.836V25.348C24.8197 25.508 24.7637 25.644 24.6517 25.756C24.5557 25.852 24.4277 25.9 24.2677 25.9H22.7317Z" fill="url(#paint1_linear_15_603)"/>
<defs>
<linearGradient id="paint0_linear_15_603" x1="0.49951" y1="17.4997" x2="62.5921" y2="23.7487" gradientUnits="userSpaceOnUse">
<stop offset="0.1667" stop-color="#9DC44D"/>
<stop offset="0.386" stop-color="#A1C64C"/>
<stop offset="0.6047" stop-color="#ADCB49"/>
<stop offset="0.8224" stop-color="#C1D344"/>
<stop offset="1" stop-color="#D7DD3F"/>
</linearGradient>
<linearGradient id="paint1_linear_15_603" x1="22.1797" y1="17.4998" x2="25.7788" y2="17.5431" gradientUnits="userSpaceOnUse">
<stop offset="0.1667" stop-color="#9DC44D"/>
<stop offset="0.386" stop-color="#A1C64C"/>
<stop offset="0.6047" stop-color="#ADCB49"/>
<stop offset="0.8224" stop-color="#C1D344"/>
<stop offset="1" stop-color="#D7DD3F"/>
</linearGradient>
</defs>
</svg>
