<svg width="46" height="35" viewBox="0 0 46 35" fill="none" xmlns="http://www.w3.org/2000/svg">
<rect x="0.5" y="0.5" width="45" height="34" rx="17" stroke="url(#paint0_linear_15_615)"/>
<path d="M19.5772 24.8506L17.6202 23.3095C17.4126 23.1538 17.294 22.9359 17.2643 22.6557C17.2347 22.3443 17.2792 22.0953 17.3978 21.9085C17.3978 21.8773 17.4867 21.7684 17.6646 21.5816L20.8671 18.4994L16.5082 17.9857C16.3896 17.9545 16.3006 17.939 16.2413 17.939C16.2117 17.9078 16.182 17.8923 16.1524 17.8923C15.9448 17.83 15.7669 17.6743 15.6186 17.4253C15.5 17.1451 15.4703 16.8649 15.5297 16.5847L16.3303 14.1563C16.3896 13.9072 16.5527 13.7204 16.8195 13.5959C17.0864 13.4714 17.3236 13.4402 17.5312 13.5025C17.5609 13.5025 17.6795 13.5492 17.887 13.6426L21.7122 15.9309L20.8226 11.401C20.793 11.2765 20.7782 11.1986 20.7782 11.1675C20.7782 11.1052 20.7782 11.0585 20.7782 11.0274C20.7782 10.7783 20.8671 10.5448 21.045 10.3269C21.2526 10.109 21.4898 10 21.7567 10H24.203C24.4699 10 24.6923 10.109 24.8702 10.3269C25.0778 10.5448 25.1816 10.7783 25.1816 11.0274C25.1816 11.0585 25.1816 11.1052 25.1816 11.1675C25.1816 11.1986 25.1668 11.2765 25.1371 11.401L24.2475 15.9309L28.1172 13.6426C28.3248 13.5492 28.4434 13.5025 28.473 13.5025C28.7103 13.4402 28.9475 13.4714 29.1847 13.5959C29.4516 13.7204 29.6147 13.9072 29.674 14.1563L30.4746 16.5847C30.5339 16.8649 30.4894 17.1451 30.3411 17.4253C30.2225 17.6743 30.0446 17.83 29.8074 17.8923C29.7777 17.8923 29.7333 17.9078 29.674 17.939C29.6443 17.939 29.585 17.9545 29.496 17.9857L25.0926 18.4994L28.3396 21.5816C28.5175 21.7684 28.6065 21.8773 28.6065 21.9085C28.7547 22.0953 28.814 22.3443 28.7844 22.6557C28.7547 22.9359 28.6213 23.1538 28.3841 23.3095L26.427 24.8506C26.1898 24.9751 25.9377 25.0218 25.6709 24.9907C25.404 24.9595 25.1964 24.835 25.0482 24.6171C25.0482 24.5859 25.0333 24.5548 25.0037 24.5237C24.974 24.4925 24.9295 24.4147 24.8702 24.2902L23.0021 20.0405L21.134 24.2902C21.1043 24.4147 21.0599 24.4925 21.0006 24.5237C20.9709 24.5548 20.9561 24.5859 20.9561 24.6171C20.8375 24.835 20.6299 24.9595 20.3334 24.9907C20.0665 25.0218 19.8145 24.9751 19.5772 24.8506Z" fill="url(#paint1_linear_15_615)"/>
<defs>
<linearGradient id="paint0_linear_15_615" x1="-0.000490441" y1="17.4997" x2="62.0921" y2="23.7487" gradientUnits="userSpaceOnUse">
<stop offset="0.1667" stop-color="#9DC44D"/>
<stop offset="0.386" stop-color="#A1C64C"/>
<stop offset="0.6047" stop-color="#ADCB49"/>
<stop offset="0.8224" stop-color="#C1D344"/>
<stop offset="1" stop-color="#D7DD3F"/>
</linearGradient>
<linearGradient id="paint1_linear_15_615" x1="15.4998" y1="17.4999" x2="35.8333" y2="19.0569" gradientUnits="userSpaceOnUse">
<stop offset="0.1667" stop-color="#9DC44D"/>
<stop offset="0.386" stop-color="#A1C64C"/>
<stop offset="0.6047" stop-color="#ADCB49"/>
<stop offset="0.8224" stop-color="#C1D344"/>
<stop offset="1" stop-color="#D7DD3F"/>
</linearGradient>
</defs>
</svg>
