<svg width="101" height="100" viewBox="0 0 101 100" fill="none" xmlns="http://www.w3.org/2000/svg">
<path fill-rule="evenodd" clip-rule="evenodd" d="M69.7138 57.9837L81.0272 69.2683L50.273 100L19.5512 69.2683L30.8646 57.9837L50.273 77.3984L69.7138 57.9837ZM50.273 38.5366L61.7489 50.0163L50.273 61.4959L38.8295 50.0488V50.0163L40.8451 48L41.8204 47.0244L50.273 38.5366ZM11.5863 38.6992L22.8997 50.0163L11.5863 61.3008L0.272949 49.9837L11.5863 38.6992ZM88.9596 38.6992L100.273 50.0163L88.9596 61.3008L77.6462 49.9837L88.9596 38.6992ZM50.273 0L80.9947 30.7317L69.6813 42.0488L50.273 22.6016L30.8646 42.0163L19.5512 30.7317L50.273 0Z" fill="#F0F0FA"/>
</svg>
