<svg width="33" height="34" viewBox="0 0 33 34" fill="none" xmlns="http://www.w3.org/2000/svg">
<path d="M0 24.1687C0 19.5342 0 17.2169 1.44982 15.7771C2.89964 14.3373 5.23309 14.3373 9.9 14.3373H23.1C27.7669 14.3373 30.1003 14.3373 31.5501 15.7771C33 17.2169 33 19.5342 33 24.1687C33 28.8032 33 31.1204 31.5501 32.5602C30.1003 34 27.7669 34 23.1 34H9.9C5.23309 34 2.89964 34 1.44982 32.5602C0 31.1204 0 28.8032 0 24.1687Z" fill="#1C274C"/>
<path d="M0 24.1687C0 19.5342 0 17.2169 1.44982 15.7771C2.89964 14.3373 5.23309 14.3373 9.9 14.3373H23.1C27.7669 14.3373 30.1003 14.3373 31.5501 15.7771C33 17.2169 33 19.5342 33 24.1687C33 28.8032 33 31.1204 31.5501 32.5602C30.1003 34 27.7669 34 23.1 34H9.9C5.23309 34 2.89964 34 1.44982 32.5602C0 31.1204 0 28.8032 0 24.1687Z" fill="url(#paint0_linear_15_497)"/>
<path d="M7.8375 11.0602C7.8375 6.30927 11.7158 2.45783 16.5 2.45783C20.5347 2.45783 23.928 5.19818 24.8896 8.90872C25.06 9.56601 25.7347 9.9617 26.3965 9.79254C27.0585 9.62336 27.4568 8.95339 27.2865 8.2961C26.0502 3.526 21.6914 0 16.5 0C10.3489 0 5.3625 4.95184 5.3625 11.0602V14.4268C6.08274 14.3734 6.90136 14.3519 7.8375 14.3432V11.0602Z" fill="#1C274C"/>
<path d="M7.8375 11.0602C7.8375 6.30927 11.7158 2.45783 16.5 2.45783C20.5347 2.45783 23.928 5.19818 24.8896 8.90872C25.06 9.56601 25.7347 9.9617 26.3965 9.79254C27.0585 9.62336 27.4568 8.95339 27.2865 8.2961C26.0502 3.526 21.6914 0 16.5 0C10.3489 0 5.3625 4.95184 5.3625 11.0602V14.4268C6.08274 14.3734 6.90136 14.3519 7.8375 14.3432V11.0602Z" fill="url(#paint1_linear_15_497)"/>
<defs>
<linearGradient id="paint0_linear_15_497" x1="-0.000351838" y1="16.9997" x2="44.7483" y2="20.3255" gradientUnits="userSpaceOnUse">
<stop offset="0.1667" stop-color="#9DC44D"/>
<stop offset="0.386" stop-color="#A1C64C"/>
<stop offset="0.6047" stop-color="#ADCB49"/>
<stop offset="0.8224" stop-color="#C1D344"/>
<stop offset="1" stop-color="#D7DD3F"/>
</linearGradient>
<linearGradient id="paint1_linear_15_497" x1="-0.000351838" y1="16.9997" x2="44.7483" y2="20.3255" gradientUnits="userSpaceOnUse">
<stop offset="0.1667" stop-color="#9DC44D"/>
<stop offset="0.386" stop-color="#A1C64C"/>
<stop offset="0.6047" stop-color="#ADCB49"/>
<stop offset="0.8224" stop-color="#C1D344"/>
<stop offset="1" stop-color="#D7DD3F"/>
</linearGradient>
</defs>
</svg>
