<svg width="115" height="100" viewBox="0 0 115 100" fill="none" xmlns="http://www.w3.org/2000/svg">
<path d="M86.9679 30.5638C84.8834 29.3769 82.2034 29.3769 79.8212 30.5638L63.1455 40.3561L51.8299 46.5875L35.452 56.3798C33.3676 57.5668 30.6876 57.5668 28.3053 56.3798L15.5008 48.6647C13.4163 47.4777 11.9274 45.1039 11.9274 42.4332V27.5964C11.9274 25.2226 13.1186 22.8487 15.5008 21.365L28.3053 13.9466C30.3898 12.7596 33.0698 12.7596 35.452 13.9466L48.2566 21.6617C50.341 22.8487 51.8299 25.2226 51.8299 27.8932V37.6855L63.1455 31.1573V21.0683C63.1455 18.6944 61.9544 16.3205 59.5722 14.8368L35.7498 0.890208C33.6654 -0.296736 30.9853 -0.296736 28.6031 0.890208L4.18517 15.1335C1.80293 16.3205 0.611816 18.6944 0.611816 21.0683V48.9614C0.611816 51.3353 1.80293 53.7092 4.18517 55.1929L28.3053 69.1395C30.3898 70.3264 33.0698 70.3264 35.452 69.1395L51.8299 59.6439L63.1455 53.1157L79.5234 43.6202C81.6079 42.4332 84.2879 42.4332 86.6701 43.6202L99.4746 51.0386C101.559 52.2255 103.048 54.5994 103.048 57.27V72.1068C103.048 74.4807 101.857 76.8546 99.4746 78.3383L86.9679 85.7567C84.8834 86.9436 82.2034 86.9436 79.8212 85.7567L67.0167 78.3383C64.9322 77.1513 63.4433 74.7775 63.4433 72.1068V62.6113L52.1277 69.1395V78.9318C52.1277 81.3056 53.3188 83.6795 55.701 85.1632L79.8212 99.1098C81.9057 100.297 84.5857 100.297 86.9679 99.1098L111.088 85.1632C113.173 83.9763 114.661 81.6024 114.661 78.9318V50.7418C114.661 48.368 113.47 45.9941 111.088 44.5104L86.9679 30.5638Z" fill="#F0F0FA"/>
</svg>
