<svg width="18" height="21" viewBox="0 0 18 21" fill="none" xmlns="http://www.w3.org/2000/svg">
<path d="M8.99553 10.948C9.98675 10.948 10.7903 10.1417 10.7903 9.14707C10.7903 8.15246 9.98675 7.34617 8.99553 7.34617C8.0043 7.34617 7.2008 8.15246 7.2008 9.14707C7.2008 10.1417 8.0043 10.948 8.99553 10.948ZM8.99553 10.948V13.6493M16.991 9.70535C16.991 14.1085 13.8054 18.2326 9.45318 19.4392C9.15705 19.5203 8.834 19.5203 8.53787 19.4392C4.18563 18.2326 1 14.1085 1 9.70535V5.75234C1 5.01397 1.55637 4.17656 2.24734 3.89742L7.24567 1.84442C8.36737 1.38519 9.63265 1.38519 10.7544 1.84442L15.7527 3.89742C16.4347 4.17656 17 5.01397 17 5.75234L16.991 9.70535Z" stroke="url(#paint0_linear_1_250)" stroke-width="2" stroke-miterlimit="10" stroke-linecap="round" stroke-linejoin="round"/>
<defs>
<linearGradient id="paint0_linear_1_250" x1="0.999829" y1="10.4998" x2="22.7154" y2="11.9779" gradientUnits="userSpaceOnUse">
<stop offset="0.1667" stop-color="#9DC44D"/>
<stop offset="0.386" stop-color="#A1C64C"/>
<stop offset="0.6047" stop-color="#ADCB49"/>
<stop offset="0.8224" stop-color="#C1D344"/>
<stop offset="1" stop-color="#D7DD3F"/>
</linearGradient>
</defs>
</svg>
