<svg width="83" height="19" viewBox="0 0 83 19" fill="none" xmlns="http://www.w3.org/2000/svg">
<rect width="83" height="19" rx="9.5" fill="url(#paint0_linear_1_260)"/>
<path d="M11.3291 13.5C11.2251 13.5 11.1411 13.472 11.0771 13.416C11.0211 13.36 10.9811 13.28 10.9571 13.176L9.40914 5.472C9.40114 5.44 9.39714 5.412 9.39714 5.388C9.39714 5.364 9.39714 5.348 9.39714 5.34C9.39714 5.276 9.42114 5.22 9.46914 5.172C9.51714 5.124 9.57314 5.1 9.63714 5.1H10.2611C10.4291 5.1 10.5251 5.168 10.5491 5.304L11.7731 11.496L13.0691 7.248C13.0931 7.176 13.1331 7.112 13.1891 7.056C13.2531 6.992 13.3411 6.96 13.4531 6.96H13.8971C14.0171 6.96 14.1051 6.992 14.1611 7.056C14.2171 7.112 14.2531 7.176 14.2691 7.248L15.5771 11.496L16.7891 5.304C16.8131 5.168 16.9131 5.1 17.0891 5.1H17.7131C17.7771 5.1 17.8331 5.124 17.8811 5.172C17.9291 5.22 17.9531 5.276 17.9531 5.34C17.9531 5.348 17.9491 5.364 17.9411 5.388C17.9411 5.412 17.9411 5.44 17.9411 5.472L16.3931 13.176C16.3691 13.28 16.3251 13.36 16.2611 13.416C16.2051 13.472 16.1251 13.5 16.0211 13.5H15.5531C15.4411 13.5 15.3531 13.472 15.2891 13.416C15.2251 13.36 15.1811 13.288 15.1571 13.2L13.6691 8.628L12.1931 13.2C12.1611 13.288 12.1131 13.36 12.0491 13.416C11.9931 13.472 11.9091 13.5 11.7971 13.5H11.3291ZM19.6425 13.5C19.5625 13.5 19.4945 13.476 19.4385 13.428C19.3905 13.372 19.3665 13.304 19.3665 13.224V7.536C19.3665 7.456 19.3905 7.392 19.4385 7.344C19.4945 7.288 19.5625 7.26 19.6425 7.26H20.2185C20.2985 7.26 20.3625 7.288 20.4105 7.344C20.4585 7.392 20.4825 7.456 20.4825 7.536V13.224C20.4825 13.304 20.4585 13.372 20.4105 13.428C20.3625 13.476 20.2985 13.5 20.2185 13.5H19.6425ZM19.5465 6.096C19.4665 6.096 19.3985 6.072 19.3425 6.024C19.2945 5.968 19.2705 5.9 19.2705 5.82V5.172C19.2705 5.092 19.2945 5.028 19.3425 4.98C19.3985 4.924 19.4665 4.896 19.5465 4.896H20.3025C20.3825 4.896 20.4465 4.924 20.4945 4.98C20.5505 5.028 20.5785 5.092 20.5785 5.172V5.82C20.5785 5.9 20.5505 5.968 20.4945 6.024C20.4465 6.072 20.3825 6.096 20.3025 6.096H19.5465ZM22.5608 13.5C22.4808 13.5 22.4128 13.476 22.3568 13.428C22.3088 13.372 22.2848 13.304 22.2848 13.224V5.256C22.2848 5.176 22.3088 5.112 22.3568 5.064C22.4128 5.008 22.4808 4.98 22.5608 4.98H23.1248C23.2128 4.98 23.2808 5.008 23.3288 5.064C23.3768 5.112 23.4008 5.176 23.4008 5.256V13.224C23.4008 13.304 23.3768 13.372 23.3288 13.428C23.2808 13.476 23.2128 13.5 23.1248 13.5H22.5608ZM25.4787 13.5C25.3987 13.5 25.3307 13.476 25.2747 13.428C25.2267 13.372 25.2027 13.304 25.2027 13.224V5.256C25.2027 5.176 25.2267 5.112 25.2747 5.064C25.3307 5.008 25.3987 4.98 25.4787 4.98H26.0427C26.1307 4.98 26.1987 5.008 26.2467 5.064C26.2947 5.112 26.3187 5.176 26.3187 5.256V13.224C26.3187 13.304 26.2947 13.372 26.2467 13.428C26.1987 13.476 26.1307 13.5 26.0427 13.5H25.4787ZM34.1341 13.62C33.6541 13.62 33.2541 13.536 32.9341 13.368C32.6141 13.192 32.3581 12.976 32.1661 12.72V13.224C32.1661 13.304 32.1381 13.372 32.0821 13.428C32.0341 13.476 31.9701 13.5 31.8901 13.5H31.3381C31.2581 13.5 31.1901 13.476 31.1341 13.428C31.0861 13.372 31.0621 13.304 31.0621 13.224V5.256C31.0621 5.176 31.0861 5.112 31.1341 5.064C31.1901 5.008 31.2581 4.98 31.3381 4.98H31.9141C32.0021 4.98 32.0701 5.008 32.1181 5.064C32.1661 5.112 32.1901 5.176 32.1901 5.256V8.016C32.3901 7.768 32.6461 7.56 32.9581 7.392C33.2781 7.224 33.6701 7.14 34.1341 7.14C34.5821 7.14 34.9621 7.22 35.2741 7.38C35.5941 7.532 35.8541 7.744 36.0541 8.016C36.2621 8.288 36.4181 8.596 36.5221 8.94C36.6261 9.284 36.6821 9.644 36.6901 10.02C36.6981 10.148 36.7021 10.268 36.7021 10.38C36.7021 10.492 36.6981 10.612 36.6901 10.74C36.6821 11.124 36.6261 11.488 36.5221 11.832C36.4181 12.176 36.2621 12.484 36.0541 12.756C35.8541 13.02 35.5941 13.232 35.2741 13.392C34.9621 13.544 34.5821 13.62 34.1341 13.62ZM33.8821 12.648C34.2981 12.648 34.6221 12.56 34.8541 12.384C35.0941 12.2 35.2661 11.964 35.3701 11.676C35.4741 11.38 35.5341 11.064 35.5501 10.728C35.5581 10.496 35.5581 10.264 35.5501 10.032C35.5341 9.696 35.4741 9.384 35.3701 9.096C35.2661 8.8 35.0941 8.564 34.8541 8.388C34.6221 8.204 34.2981 8.112 33.8821 8.112C33.5061 8.112 33.1941 8.2 32.9461 8.376C32.6981 8.552 32.5101 8.776 32.3821 9.048C32.2621 9.32 32.1981 9.596 32.1901 9.876C32.1821 10.004 32.1781 10.16 32.1781 10.344C32.1781 10.52 32.1821 10.672 32.1901 10.8C32.2061 11.096 32.2701 11.388 32.3821 11.676C32.5021 11.956 32.6821 12.188 32.9221 12.372C33.1701 12.556 33.4901 12.648 33.8821 12.648ZM40.6708 13.62C39.8468 13.62 39.1908 13.368 38.7028 12.864C38.2148 12.352 37.9468 11.656 37.8988 10.776C37.8908 10.672 37.8868 10.54 37.8868 10.38C37.8868 10.212 37.8908 10.076 37.8988 9.972C37.9308 9.404 38.0628 8.908 38.2948 8.484C38.5268 8.052 38.8428 7.72 39.2428 7.488C39.6508 7.256 40.1268 7.14 40.6708 7.14C41.2788 7.14 41.7868 7.268 42.1948 7.524C42.6108 7.78 42.9268 8.144 43.1428 8.616C43.3588 9.088 43.4668 9.64 43.4668 10.272V10.476C43.4668 10.564 43.4388 10.632 43.3828 10.68C43.3348 10.728 43.2708 10.752 43.1908 10.752H39.0388C39.0388 10.76 39.0388 10.776 39.0388 10.8C39.0388 10.824 39.0388 10.844 39.0388 10.86C39.0548 11.188 39.1268 11.496 39.2548 11.784C39.3828 12.064 39.5668 12.292 39.8068 12.468C40.0468 12.644 40.3348 12.732 40.6708 12.732C40.9588 12.732 41.1988 12.688 41.3908 12.6C41.5828 12.512 41.7388 12.416 41.8588 12.312C41.9788 12.2 42.0588 12.116 42.0988 12.06C42.1708 11.956 42.2268 11.896 42.2668 11.88C42.3068 11.856 42.3708 11.844 42.4588 11.844H43.0348C43.1148 11.844 43.1788 11.868 43.2268 11.916C43.2828 11.956 43.3068 12.016 43.2988 12.096C43.2908 12.216 43.2268 12.364 43.1068 12.54C42.9868 12.708 42.8148 12.876 42.5908 13.044C42.3668 13.212 42.0948 13.352 41.7748 13.464C41.4548 13.568 41.0868 13.62 40.6708 13.62ZM39.0388 9.924H42.3268V9.888C42.3268 9.528 42.2588 9.208 42.1228 8.928C41.9948 8.648 41.8068 8.428 41.5588 8.268C41.3108 8.1 41.0148 8.016 40.6708 8.016C40.3268 8.016 40.0308 8.1 39.7828 8.268C39.5428 8.428 39.3588 8.648 39.2308 8.928C39.1028 9.208 39.0388 9.528 39.0388 9.888V9.924ZM50.0031 13.62C49.5551 13.62 49.1711 13.564 48.8511 13.452C48.5311 13.34 48.2711 13.204 48.0711 13.044C47.8711 12.884 47.7191 12.724 47.6151 12.564C47.5191 12.404 47.4671 12.276 47.4591 12.18C47.4511 12.092 47.4791 12.024 47.5431 11.976C47.6071 11.928 47.6711 11.904 47.7351 11.904H48.2631C48.3111 11.904 48.3471 11.912 48.3711 11.928C48.4031 11.936 48.4431 11.968 48.4911 12.024C48.5951 12.136 48.7111 12.248 48.8391 12.36C48.9671 12.472 49.1231 12.564 49.3071 12.636C49.4991 12.708 49.7351 12.744 50.0151 12.744C50.4231 12.744 50.7591 12.668 51.0231 12.516C51.2871 12.356 51.4191 12.124 51.4191 11.82C51.4191 11.62 51.3631 11.46 51.2511 11.34C51.1471 11.22 50.9551 11.112 50.6751 11.016C50.4031 10.92 50.0271 10.82 49.5471 10.716C49.0671 10.604 48.6871 10.468 48.4071 10.308C48.1271 10.14 47.9271 9.944 47.8071 9.72C47.6871 9.488 47.6271 9.228 47.6271 8.94C47.6271 8.644 47.7151 8.36 47.8911 8.088C48.0671 7.808 48.3231 7.58 48.6591 7.404C49.0031 7.228 49.4311 7.14 49.9431 7.14C50.3591 7.14 50.7151 7.192 51.0111 7.296C51.3071 7.4 51.5511 7.532 51.7431 7.692C51.9351 7.844 52.0791 7.996 52.1751 8.148C52.2711 8.3 52.3231 8.428 52.3311 8.532C52.3391 8.612 52.3151 8.68 52.2591 8.736C52.2031 8.784 52.1391 8.808 52.0671 8.808H51.5631C51.5071 8.808 51.4591 8.796 51.4191 8.772C51.3871 8.748 51.3551 8.72 51.3231 8.688C51.2431 8.584 51.1471 8.48 51.0351 8.376C50.9311 8.272 50.7911 8.188 50.6151 8.124C50.4471 8.052 50.2231 8.016 49.9431 8.016C49.5431 8.016 49.2431 8.1 49.0431 8.268C48.8431 8.436 48.7431 8.648 48.7431 8.904C48.7431 9.056 48.7871 9.192 48.8751 9.312C48.9631 9.432 49.1311 9.54 49.3791 9.636C49.6271 9.732 49.9951 9.836 50.4831 9.948C51.0111 10.052 51.4271 10.192 51.7311 10.368C52.0351 10.544 52.2511 10.748 52.3791 10.98C52.5071 11.212 52.5711 11.48 52.5711 11.784C52.5711 12.12 52.4711 12.428 52.2711 12.708C52.0791 12.988 51.7911 13.212 51.4071 13.38C51.0311 13.54 50.5631 13.62 50.0031 13.62ZM56.5163 13.62C55.9083 13.62 55.4003 13.504 54.9923 13.272C54.5843 13.04 54.2723 12.72 54.0563 12.312C53.8403 11.896 53.7203 11.424 53.6963 10.896C53.6883 10.76 53.6843 10.588 53.6843 10.38C53.6843 10.164 53.6883 9.992 53.6963 9.864C53.7203 9.328 53.8403 8.856 54.0563 8.448C54.2803 8.04 54.5963 7.72 55.0043 7.488C55.4123 7.256 55.9163 7.14 56.5163 7.14C57.1163 7.14 57.6203 7.256 58.0283 7.488C58.4363 7.72 58.7483 8.04 58.9643 8.448C59.1883 8.856 59.3123 9.328 59.3363 9.864C59.3443 9.992 59.3483 10.164 59.3483 10.38C59.3483 10.588 59.3443 10.76 59.3363 10.896C59.3123 11.424 59.1923 11.896 58.9763 12.312C58.7603 12.72 58.4483 13.04 58.0403 13.272C57.6323 13.504 57.1243 13.62 56.5163 13.62ZM56.5163 12.696C57.0123 12.696 57.4083 12.54 57.7043 12.228C58.0003 11.908 58.1603 11.444 58.1843 10.836C58.1923 10.716 58.1963 10.564 58.1963 10.38C58.1963 10.196 58.1923 10.044 58.1843 9.924C58.1603 9.316 58.0003 8.856 57.7043 8.544C57.4083 8.224 57.0123 8.064 56.5163 8.064C56.0203 8.064 55.6203 8.224 55.3163 8.544C55.0203 8.856 54.8643 9.316 54.8483 9.924C54.8403 10.044 54.8363 10.196 54.8363 10.38C54.8363 10.564 54.8403 10.716 54.8483 10.836C54.8643 11.444 55.0203 11.908 55.3163 12.228C55.6203 12.54 56.0203 12.696 56.5163 12.696ZM63.4069 13.62C62.7989 13.62 62.2909 13.504 61.8829 13.272C61.4749 13.04 61.1629 12.72 60.9469 12.312C60.7309 11.896 60.6109 11.424 60.5869 10.896C60.5789 10.76 60.5749 10.588 60.5749 10.38C60.5749 10.164 60.5789 9.992 60.5869 9.864C60.6109 9.328 60.7309 8.856 60.9469 8.448C61.1709 8.04 61.4869 7.72 61.8949 7.488C62.3029 7.256 62.8069 7.14 63.4069 7.14C64.0069 7.14 64.5109 7.256 64.9189 7.488C65.3269 7.72 65.6389 8.04 65.8549 8.448C66.0789 8.856 66.2029 9.328 66.2269 9.864C66.2349 9.992 66.2389 10.164 66.2389 10.38C66.2389 10.588 66.2349 10.76 66.2269 10.896C66.2029 11.424 66.0829 11.896 65.8669 12.312C65.6509 12.72 65.3389 13.04 64.9309 13.272C64.5229 13.504 64.0149 13.62 63.4069 13.62ZM63.4069 12.696C63.9029 12.696 64.2989 12.54 64.5949 12.228C64.8909 11.908 65.0509 11.444 65.0749 10.836C65.0829 10.716 65.0869 10.564 65.0869 10.38C65.0869 10.196 65.0829 10.044 65.0749 9.924C65.0509 9.316 64.8909 8.856 64.5949 8.544C64.2989 8.224 63.9029 8.064 63.4069 8.064C62.9109 8.064 62.5109 8.224 62.2069 8.544C61.9109 8.856 61.7549 9.316 61.7389 9.924C61.7309 10.044 61.7269 10.196 61.7269 10.38C61.7269 10.564 61.7309 10.716 61.7389 10.836C61.7549 11.444 61.9109 11.908 62.2069 12.228C62.5109 12.54 62.9109 12.696 63.4069 12.696ZM68.0175 13.5C67.9375 13.5 67.8695 13.476 67.8135 13.428C67.7655 13.372 67.7415 13.304 67.7415 13.224V7.536C67.7415 7.456 67.7655 7.392 67.8135 7.344C67.8695 7.288 67.9375 7.26 68.0175 7.26H68.5815C68.6615 7.26 68.7255 7.288 68.7735 7.344C68.8295 7.392 68.8575 7.456 68.8575 7.536V8.064C69.0655 7.792 69.3255 7.572 69.6375 7.404C69.9575 7.228 70.3655 7.14 70.8615 7.14C71.3815 7.14 71.8215 7.256 72.1815 7.488C72.5495 7.712 72.8255 8.028 73.0095 8.436C73.1935 8.836 73.2855 9.304 73.2855 9.84V13.224C73.2855 13.304 73.2615 13.372 73.2135 13.428C73.1655 13.476 73.1015 13.5 73.0215 13.5H72.4215C72.3415 13.5 72.2735 13.476 72.2175 13.428C72.1695 13.372 72.1455 13.304 72.1455 13.224V9.9C72.1455 9.34 72.0095 8.904 71.7375 8.592C71.4655 8.272 71.0655 8.112 70.5375 8.112C70.0415 8.112 69.6415 8.272 69.3375 8.592C69.0415 8.904 68.8935 9.34 68.8935 9.9V13.224C68.8935 13.304 68.8655 13.372 68.8095 13.428C68.7615 13.476 68.6975 13.5 68.6175 13.5H68.0175Z" fill="#1A1A25"/>
<defs>
<linearGradient id="paint0_linear_1_260" x1="-0.000884926" y1="9.49982" x2="101.781" y2="43.547" gradientUnits="userSpaceOnUse">
<stop offset="0.1667" stop-color="#9DC44D"/>
<stop offset="0.386" stop-color="#A1C64C"/>
<stop offset="0.6047" stop-color="#ADCB49"/>
<stop offset="0.8224" stop-color="#C1D344"/>
<stop offset="1" stop-color="#D7DD3F"/>
</linearGradient>
</defs>
</svg>
