<svg width="22" height="23" viewBox="0 0 22 23" fill="none" xmlns="http://www.w3.org/2000/svg">
<path d="M14.3333 11.5C14.3333 13.341 12.841 14.8333 11 14.8333C9.159 14.8333 7.66667 13.341 7.66667 11.5C7.66667 9.659 9.159 8.16667 11 8.16667C12.841 8.16667 14.3333 9.659 14.3333 11.5Z" stroke="url(#paint0_linear_1_254)" stroke-width="2" stroke-linecap="round" stroke-linejoin="round"/>
<path d="M12.0051 1.56672C11.7764 1.5 11.5177 1.5 11 1.5C10.4823 1.5 10.2236 1.5 9.99489 1.56672C9.66022 1.66438 9.36456 1.86453 9.14956 2.13901C9.00267 2.32653 8.90656 2.56684 8.71434 3.04747C8.43799 3.73836 7.67103 4.09412 6.96508 3.85889L6.33088 3.64757C5.881 3.49761 5.65606 3.42262 5.43551 3.40978C5.11154 3.3909 4.78911 3.46702 4.50779 3.62878C4.31628 3.7389 4.14862 3.90657 3.8133 4.24189C3.45691 4.59828 3.27871 4.77647 3.16551 4.97988C2.99919 5.27871 2.92883 5.62149 2.96399 5.96168C2.98791 6.19322 3.0815 6.42721 3.26869 6.89518C3.56183 7.62803 3.27982 8.46531 2.60302 8.87148L2.29468 9.05652C1.82257 9.33978 1.58651 9.48144 1.41504 9.67644C1.26331 9.849 1.1489 10.0511 1.07899 10.27C1 10.5173 1 10.7953 1 11.3514C1 12.0099 1 12.339 1.10513 12.6209C1.19803 12.8699 1.34913 13.093 1.54582 13.2718C1.76842 13.474 2.07106 13.5951 2.67629 13.8372C3.29482 14.0846 3.61329 14.7712 3.40262 15.4032L3.16357 16.1204C2.99799 16.6171 2.91519 16.8656 2.90767 17.1096C2.89861 17.403 2.96721 17.6936 3.10652 17.9519C3.22239 18.1669 3.40753 18.352 3.77778 18.7222C4.14803 19.0924 4.33317 19.2776 4.54806 19.3934C4.80644 19.5328 5.09703 19.6014 5.39044 19.5923C5.63447 19.5848 5.88284 19.502 6.3796 19.3364L6.96513 19.1412C7.67103 18.906 8.438 19.2617 8.71434 19.9526C8.90656 20.4331 9.00267 20.6734 9.14956 20.861C9.36456 21.1354 9.66022 21.3357 9.99489 21.4333C10.2236 21.5 10.4823 21.5 11 21.5C11.5177 21.5 11.7764 21.5 12.0051 21.4333C12.3398 21.3357 12.6354 21.1354 12.8504 20.861C12.9973 20.6734 13.0934 20.4331 13.2857 19.9526C13.562 19.2617 14.329 18.906 15.0348 19.1414L15.6199 19.3366C16.1167 19.5021 16.3651 19.5849 16.6091 19.5924C16.9026 19.6014 17.1931 19.5329 17.4514 19.3936C17.6663 19.2777 17.8516 19.0926 18.2218 18.7223C18.592 18.3521 18.7771 18.1669 18.893 17.952C19.0323 17.6937 19.1009 17.403 19.0919 17.1097C19.0843 16.8657 19.0016 16.6172 18.836 16.1204L18.5971 15.4038C18.3863 14.7716 18.7049 14.0847 19.3237 13.8372C19.9289 13.5951 20.2316 13.474 20.4542 13.2718C20.6509 13.093 20.802 12.8699 20.8949 12.6209C21 12.339 21 12.0099 21 11.3514C21 10.7953 21 10.5173 20.921 10.27C20.8511 10.0511 20.7367 9.849 20.585 9.67644C20.4134 9.48144 20.1774 9.33978 19.7053 9.05652L19.3966 8.87129C18.7198 8.46519 18.4377 7.62793 18.7309 6.89509C18.918 6.42714 19.0117 6.19314 19.0356 5.96159C19.0707 5.6214 19.0003 5.27863 18.834 4.97979C18.7208 4.77639 18.5427 4.59819 18.1862 4.2418C17.8509 3.90649 17.6832 3.73882 17.4918 3.6287C17.2104 3.46693 16.888 3.39082 16.564 3.40969C16.3434 3.42254 16.1186 3.49752 15.6687 3.64748L15.0349 3.85874C14.329 4.09404 13.562 3.73833 13.2857 3.04747C13.0934 2.56684 12.9973 2.32653 12.8504 2.13901C12.6354 1.86453 12.3398 1.66438 12.0051 1.56672Z" stroke="url(#paint1_linear_1_254)" stroke-width="2" stroke-linecap="round" stroke-linejoin="round"/>
<defs>
<linearGradient id="paint0_linear_1_254" x1="0.999787" y1="11.4998" x2="28.111" y2="13.5758" gradientUnits="userSpaceOnUse">
<stop offset="0.1667" stop-color="#9DC44D"/>
<stop offset="0.386" stop-color="#A1C64C"/>
<stop offset="0.6047" stop-color="#ADCB49"/>
<stop offset="0.8224" stop-color="#C1D344"/>
<stop offset="1" stop-color="#D7DD3F"/>
</linearGradient>
<linearGradient id="paint1_linear_1_254" x1="0.999787" y1="11.4998" x2="28.111" y2="13.5758" gradientUnits="userSpaceOnUse">
<stop offset="0.1667" stop-color="#9DC44D"/>
<stop offset="0.386" stop-color="#A1C64C"/>
<stop offset="0.6047" stop-color="#ADCB49"/>
<stop offset="0.8224" stop-color="#C1D344"/>
<stop offset="1" stop-color="#D7DD3F"/>
</linearGradient>
</defs>
</svg>
