<svg width="764" height="336" viewBox="0 0 764 336" fill="none" xmlns="http://www.w3.org/2000/svg">
<path d="M410.176 30.0806C400.363 24.244 398.247 19.113 398.183 15.9061C398.119 12.7634 396.836 9.81303 394.655 7.56821L387.664 0.0640869L355.275 121.477C355.275 121.477 354.633 124.812 359.828 134.305C359.828 134.305 359.059 159.767 367.974 158.484C376.889 157.202 376.761 150.98 376.761 150.98C366.691 145.593 371.822 141.231 371.822 141.231L372.912 140.141C375.542 139.179 378.749 137.704 382.854 135.716C397.157 128.725 422.812 112.562 427.75 90.306C432.689 68.0501 426.916 40.1502 410.176 30.1447V30.0806Z" fill="url(#paint0_radial_1_2414)"/>
<path d="M387.665 0.0641393C387.665 0.0641393 390.679 21.8069 401.903 28.2848C413.127 34.7627 429.033 74.7205 414.41 100.76C399.787 126.8 359.893 134.24 359.893 134.24L357.391 66.8957L387.729 0L387.665 0.0641393Z" fill="url(#paint1_radial_1_2414)"/>
<path d="M357.326 66.9593L357.582 74.5275L363.611 110.637L420.052 70.4869C418.513 50.989 409.213 32.5173 401.901 28.2842C401.132 27.8352 400.426 27.3221 399.721 26.7449L364.83 50.4759L357.39 66.8951L357.326 66.9593Z" fill="url(#paint2_radial_1_2414)"/>
<path d="M359.506 136.421C359.506 136.421 369.832 69.4612 376.054 44.1909C382.275 18.9206 387.663 0.0640869 387.663 0.0640869C387.663 0.0640869 360.853 13.8537 357.39 23.9234C353.926 33.993 314.546 39.0599 317.945 72.155C321.344 105.25 351.553 137.319 359.506 136.421Z" fill="url(#paint3_radial_1_2414)"/>
<path d="M359.826 134.305C359.826 134.305 370.024 68.4993 376.117 43.6138C382.274 18.6642 387.598 0.128418 387.598 0.128418C387.598 0.128418 360.852 14.4953 357.325 24.4366C353.797 34.378 314.481 40.6635 318.008 72.9248C321.536 105.186 351.873 135.523 359.762 134.369L359.826 134.305Z" fill="url(#paint4_radial_1_2414)"/>
<path d="M372.399 33.8649L372.142 62.791L409.663 37.0077C407.097 32.8387 404.403 29.8242 401.966 28.349C390.742 21.807 387.728 0.128418 387.728 0.128418L372.399 33.929V33.8649Z" fill="url(#paint5_radial_1_2414)"/>
<path d="M372.078 62.7267C373.553 55.2867 374.9 48.5522 376.183 43.5495C382.34 18.5999 387.663 0.0640869 387.663 0.0640869C387.663 0.0640869 360.918 14.431 357.39 24.3723C356.685 26.4889 354.312 28.413 351.169 30.4654L372.078 62.7267Z" fill="url(#paint6_radial_1_2414)"/>
<path d="M321.472 54.517C318.778 59.5197 317.303 65.4845 318.137 72.8604C321.664 105.122 352.001 135.459 359.89 134.304C359.89 134.304 361.429 124.299 363.674 110.638L321.472 54.517Z" fill="url(#paint7_radial_1_2414)"/>
<path d="M366.434 158.421C366.434 158.421 362.586 159.704 358.61 151.815C354.633 143.926 356.172 133.471 356.172 133.471L359.828 134.305C359.828 134.305 361.303 157.395 366.37 158.421H366.434Z" fill="url(#paint8_radial_1_2414)"/>
<path d="M234.502 64.2661L222.765 64.1378C222.765 64.1378 220.841 73.053 223.983 82.2247C227.126 91.3964 221.995 131.547 237.837 153.033C253.743 174.455 281.323 190.746 310.12 174.006C338.918 157.266 368.614 157.971 368.229 157.843C367.844 157.715 375.156 168.554 376.824 170.671C378.491 172.787 388.561 166.758 387.855 162.589C387.15 158.42 366.946 150.339 366.946 150.339L234.438 64.2019L234.502 64.2661Z" fill="url(#paint9_radial_1_2414)"/>
<path d="M366.626 148.416C366.626 148.416 370.282 106.149 350.527 91.1406C330.773 76.1324 331.478 72.9896 317.111 59.5207C302.745 46.0518 223.278 62.0221 222.765 64.2028C222.252 66.3834 230.525 74.3365 235.592 107.496C240.659 140.655 258.938 170.03 296.138 164.001C333.338 157.972 348.539 142.9 366.626 148.416Z" fill="url(#paint10_radial_1_2414)"/>
<path d="M387.792 164.129C387.792 164.129 390.742 161.756 390.935 156.368C391.127 150.981 367.268 144.567 367.268 144.567L367.011 150.404L387.792 164.129Z" fill="url(#paint11_radial_1_2414)"/>
<path d="M367.011 150.469C367.011 150.469 370.667 108.202 350.912 93.1935C331.158 78.1853 331.863 75.0425 317.496 61.5736C303.129 48.1046 223.663 64.0749 223.15 66.2556C222.637 68.4363 230.91 76.3894 235.977 109.549C241.044 142.708 259.323 172.083 296.523 166.054C333.723 160.025 348.924 144.953 367.011 150.469Z" fill="url(#paint12_radial_1_2414)"/>
<path d="M235.977 109.484C241.044 142.643 259.323 172.018 296.523 165.989C333.723 159.96 348.924 144.888 367.011 150.404C330.26 115.192 223.15 66.1908 223.15 66.1908C222.637 68.3715 230.91 76.3246 235.977 109.484Z" fill="url(#paint13_radial_1_2414)"/>
<path d="M620.353 82.6747C617.723 76.261 618.557 72.9899 619.711 71.3865C620.802 69.8472 621.251 67.923 621.058 66.063L620.417 59.8417L560.256 107.047C560.256 107.047 558.716 108.394 557.818 114.936C557.818 114.936 548.134 127.058 552.944 129.688C557.754 132.317 559.935 129.239 559.935 129.239C556.985 122.953 561.089 122.697 561.089 122.697L562.051 122.568C563.655 123.082 565.771 123.531 568.529 124.044C578.086 125.839 596.429 127.379 606.948 118.399C617.466 109.42 624.842 93.7064 620.353 82.7389V82.6747Z" fill="url(#paint14_radial_1_2414)"/>
<path d="M620.417 59.8417C620.417 59.8417 613.939 71.5148 617.018 78.7623C620.096 86.0099 613.234 111.28 596.558 118.592C579.882 125.904 557.755 114.936 557.755 114.936L581.165 81.2637L620.353 59.8417H620.417Z" fill="url(#paint15_radial_1_2414)"/>
<path d="M581.166 81.328L578.536 85.1122L568.274 104.867L610.412 105.957C616.826 95.8873 619.007 83.5728 617.019 78.8266C616.826 78.3135 616.634 77.8004 616.505 77.2873L590.85 76.0687L581.23 81.328H581.166Z" fill="url(#paint16_radial_1_2414)"/>
<path d="M556.856 115.899C556.856 115.899 586.359 87.1007 598.609 77.0952C610.86 67.0897 620.416 59.9063 620.416 59.9063C620.416 59.9063 602.329 56.8276 596.942 60.4194C591.554 64.0111 570.581 52.1456 560.127 69.4628C549.672 86.78 552.687 113.461 556.856 115.899Z" fill="url(#paint17_radial_1_2414)"/>
<path d="M557.755 115C557.755 115 586.746 86.7154 598.868 76.8382C610.99 66.961 620.354 59.9059 620.354 59.9059C620.354 59.9059 602.075 57.0838 596.751 60.6755C591.428 64.2672 570.006 52.9148 559.872 69.8472C549.738 86.7796 553.458 112.691 557.755 115Z" fill="url(#paint18_radial_1_2414)"/>
<path d="M600.597 70.6809L589.886 84.663L617.593 85.8174C617.85 82.8671 617.658 80.3657 617.016 78.8264C613.938 71.5788 620.416 59.9058 620.416 59.9058L600.597 70.745V70.6809Z" fill="url(#paint19_radial_1_2414)"/>
<path d="M589.888 84.663C593.351 81.5844 596.43 78.8265 598.867 76.8382C610.989 66.961 620.353 59.9059 620.353 59.9059C620.353 59.9059 602.074 57.0838 596.751 60.6755C595.66 61.4452 593.8 61.5093 591.491 61.381L589.824 84.7272L589.888 84.663Z" fill="url(#paint20_radial_1_2414)"/>
<path d="M568.273 62.1514C565.13 63.5624 562.244 65.9996 559.935 69.8479C549.865 86.8444 553.521 112.692 557.818 115.001C557.818 115.001 562.244 110.704 568.337 104.867V62.1514H568.273Z" fill="url(#paint21_radial_1_2414)"/>
<path d="M552.173 129.111C552.173 129.111 549.864 128.341 550.762 123.018C551.66 117.694 556.278 113.204 556.278 113.204L557.753 114.936C557.753 114.936 550.057 126.673 552.109 129.047L552.173 129.111Z" fill="url(#paint22_radial_1_2414)"/>
<path d="M522.415 35.1482L516.771 30.7869C516.771 30.7869 512.602 34.4427 510.742 40.0227C508.882 45.6027 491.693 63.3047 491.629 79.5316C491.565 95.7584 499.005 113.781 519.144 116.154C539.284 118.527 553.458 129.751 553.33 129.559C553.202 129.367 552.753 137.32 552.817 138.987C552.881 140.655 559.936 141.425 561.155 139.116C562.373 136.807 555.446 125.518 555.446 125.518L522.48 35.1482H522.415Z" fill="url(#paint23_radial_1_2414)"/>
<path d="M555.958 124.363C555.958 124.363 573.147 105.122 569.042 90.6269C564.938 76.1318 566.413 74.849 564.36 63.0477C562.308 51.2463 517.796 29.9526 516.77 30.8505C515.744 31.7484 516.834 38.6112 507.214 56.5698C497.529 74.5284 495.733 95.5656 516 106.212C536.268 116.859 549.224 115.063 555.958 124.428V124.363Z" fill="url(#paint24_radial_1_2414)"/>
<path d="M560.449 139.757C560.449 139.757 562.757 139.693 564.81 137.128C566.862 134.562 557.626 122.761 557.626 122.761L555.382 125.519L560.513 139.757H560.449Z" fill="url(#paint25_radial_1_2414)"/>
<path d="M555.38 125.455C555.38 125.455 572.569 106.213 568.464 91.7183C564.36 77.2231 565.835 75.9404 563.782 64.139C561.73 52.3376 517.218 31.0439 516.192 31.9418C515.166 32.8398 516.256 39.7025 506.636 57.6611C497.015 75.6197 495.155 96.6569 515.422 107.304C535.754 117.951 548.646 116.155 555.38 125.519V125.455Z" fill="url(#paint26_radial_1_2414)"/>
<path d="M506.575 57.6602C496.89 75.6187 495.094 96.656 515.362 107.303C535.694 117.95 548.585 116.154 555.32 125.518C550.317 94.9884 516.131 31.9409 516.131 31.9409C515.041 32.8388 516.196 39.7016 506.575 57.6602Z" fill="url(#paint27_radial_1_2414)"/>
<path d="M189.864 118.271C187.234 111.857 188.068 108.586 189.222 106.983C190.313 105.444 190.762 103.519 190.569 101.659L189.928 95.4381L129.767 142.644C129.767 142.644 128.227 143.99 127.329 150.532C127.329 150.532 117.645 162.655 122.455 165.284C127.265 167.914 129.446 164.835 129.446 164.835C126.496 158.55 130.6 158.293 130.6 158.293L131.563 158.165C133.166 158.678 135.283 159.127 138.04 159.64C147.597 161.436 165.94 162.975 176.459 153.996C186.978 145.017 194.353 129.303 189.864 118.335V118.271Z" fill="url(#paint28_radial_1_2414)"/>
<path d="M189.928 95.4381C189.928 95.4381 183.45 107.111 186.529 114.359C189.608 121.606 182.745 146.877 166.069 154.188C149.393 161.5 127.266 150.532 127.266 150.532L150.676 116.86L189.864 95.4381H189.928Z" fill="url(#paint29_radial_1_2414)"/>
<path d="M150.739 116.86L148.109 120.645L137.847 140.399L179.986 141.489C186.4 131.42 188.58 119.105 186.592 114.359C186.4 113.846 186.207 113.333 186.079 112.82L160.424 111.601L150.803 116.86H150.739Z" fill="url(#paint30_radial_1_2414)"/>
<path d="M126.367 151.431C126.367 151.431 155.87 122.633 168.12 112.628C180.371 102.622 189.927 95.4386 189.927 95.4386C189.927 95.4386 171.84 92.36 166.453 95.9517C161.065 99.5434 140.092 87.6779 129.638 104.995C119.183 122.312 122.198 148.994 126.367 151.431Z" fill="url(#paint31_radial_1_2414)"/>
<path d="M127.329 150.533C127.329 150.533 156.319 122.248 168.441 112.371C180.564 102.493 189.928 95.4382 189.928 95.4382C189.928 95.4382 171.648 92.6161 166.325 96.2079C161.001 99.7996 139.579 88.4472 129.446 105.38C119.312 122.312 123.032 148.224 127.329 150.533Z" fill="url(#paint32_radial_1_2414)"/>
<path d="M170.108 106.213L159.397 120.195L187.105 121.35C187.361 118.399 187.169 115.898 186.527 114.359C183.449 107.111 189.927 95.4381 189.927 95.4381L170.108 106.277V106.213Z" fill="url(#paint33_radial_1_2414)"/>
<path d="M159.399 120.195C162.862 117.117 165.941 114.359 168.378 112.371C180.5 102.493 189.864 95.4382 189.864 95.4382C189.864 95.4382 171.585 92.6161 166.261 96.2079C165.171 96.9775 163.311 97.0417 161.002 96.9134L159.334 120.26L159.399 120.195Z" fill="url(#paint34_radial_1_2414)"/>
<path d="M137.783 97.6837C134.641 99.0947 131.754 101.532 129.445 105.38C119.376 122.377 123.032 148.224 127.329 150.533C127.329 150.533 131.754 146.236 137.847 140.399V97.6837H137.783Z" fill="url(#paint35_radial_1_2414)"/>
<path d="M121.684 164.643C121.684 164.643 119.375 163.874 120.273 158.55C121.171 153.227 125.789 148.737 125.789 148.737L127.264 150.469C127.264 150.469 119.568 162.206 121.62 164.579L121.684 164.643Z" fill="url(#paint36_radial_1_2414)"/>
<path d="M91.9257 70.6806L86.2816 66.3192C86.2816 66.3192 82.1127 69.9751 80.2527 75.555C78.3927 81.135 61.2037 98.8371 61.1396 115.064C61.0754 131.291 68.5154 149.314 88.6547 151.687C108.794 154.06 122.968 165.284 122.84 165.091C122.712 164.899 122.263 172.852 122.327 174.52C122.391 176.187 129.446 176.957 130.665 174.648C131.884 172.339 124.957 161.051 124.957 161.051L91.9899 70.6806H91.9257Z" fill="url(#paint37_radial_1_2414)"/>
<path d="M125.47 159.896C125.47 159.896 142.659 140.655 138.554 126.159C134.449 111.664 135.925 110.382 133.872 98.5802C131.82 86.7788 87.3081 65.4851 86.2819 66.383C85.2557 67.2809 86.346 74.1437 76.7254 92.1023C67.1047 110.061 65.2447 131.098 85.5123 141.745C105.844 152.392 118.736 150.596 125.47 159.96V159.896Z" fill="url(#paint38_radial_1_2414)"/>
<path d="M129.959 175.29C129.959 175.29 132.268 175.226 134.32 172.66C136.373 170.095 127.137 158.294 127.137 158.294L124.892 161.052L130.023 175.29H129.959Z" fill="url(#paint39_radial_1_2414)"/>
<path d="M124.891 160.987C124.891 160.987 142.079 141.746 137.975 127.251C133.87 112.756 135.345 111.473 133.293 99.6716C131.24 87.8702 86.7285 66.5765 85.7023 67.4744C84.6761 68.3723 85.7665 75.2351 76.1458 93.1937C66.5251 111.152 64.6651 132.189 84.9327 142.836C105.2 153.483 118.156 151.687 124.891 161.051V160.987Z" fill="url(#paint40_radial_1_2414)"/>
<path d="M76.082 93.1926C66.3972 111.151 64.6014 132.188 84.8689 142.835C105.201 153.482 118.092 151.686 124.827 161.05C119.824 130.521 85.6385 67.4734 85.6385 67.4734C84.5482 68.3713 85.7027 75.2341 76.082 93.1926Z" fill="url(#paint41_radial_1_2414)"/>
<path d="M370.928 318C354.659 318 336.219 315.23 318.49 306.528C292.716 293.849 274.24 270.088 270.289 244.516C269.541 239.65 269.256 234.678 269.007 229.848C268.473 219.868 267.939 210.42 263.275 202.855C256.796 192.307 241.346 187.903 230.275 193.408C227.605 194.722 224.33 193.656 223.012 190.993C221.695 188.329 222.763 185.061 225.433 183.747C241.524 175.756 263.097 181.9 272.496 197.208C278.583 207.117 279.224 218.376 279.794 229.28C280.043 234.039 280.292 238.514 280.968 242.882C284.422 265.045 300.619 285.715 323.261 296.832C348.75 309.369 376.197 308.268 394.78 305.143C397.735 304.646 400.511 306.635 401.01 309.583C401.508 312.53 399.515 315.301 396.56 315.798C389.155 317.041 380.398 318 370.893 318H370.928Z" fill="url(#paint42_radial_1_2414)"/>
<g filter="url(#filter0_d_1_2414)">
<path d="M76.8541 138.602C76.8541 138.602 59.6651 142.643 48.3127 150.917L84.2299 183.819L44.6569 249.817C54.1493 239.106 67.6824 234.168 82.7547 232.757L91.8623 212.297L93.2092 232.308C137.849 232.628 190.057 258.027 190.057 258.027L178.384 135.652C113.284 102.236 31.701 135.652 31.701 135.652L39.5259 142.835C48.7617 140.783 64.4755 137.833 76.8541 138.602Z" fill="url(#paint43_radial_1_2414)"/>
<path d="M78.3297 140.142C78.3297 140.142 61.1407 144.182 49.7884 152.456L85.7055 185.359L46.1325 251.356C55.6249 240.645 69.1579 235.707 84.2303 234.296L93.3379 213.836L94.6848 233.847C139.325 234.168 191.533 259.566 191.533 259.566L179.86 137.191C114.76 103.775 33.1766 137.191 33.1766 137.191L41.0015 144.375C50.2373 142.322 65.9511 139.372 78.3297 140.142Z" fill="url(#paint44_linear_1_2414)"/>
<path d="M121.365 220.763L191.468 259.567V213.836L121.365 220.763Z" fill="url(#paint45_radial_1_2414)"/>
<path d="M685.714 149.698C685.714 149.698 702.903 153.739 714.255 162.013L678.338 194.915L717.911 260.913C708.419 250.202 694.886 245.263 679.813 243.852L670.706 223.392L669.359 243.403C624.719 243.724 572.511 269.123 572.511 269.123L584.184 146.748C649.284 113.332 730.867 146.748 730.867 146.748L723.042 153.931C713.806 151.879 698.092 148.928 685.714 149.698Z" fill="url(#paint46_radial_1_2414)"/>
<path d="M685.266 150.019C685.266 150.019 702.454 154.06 713.807 162.334L677.89 195.236L717.463 261.234C707.97 250.523 694.437 245.584 679.365 244.173L670.257 223.713L668.91 243.724C624.27 244.045 572.062 269.444 572.062 269.444L583.735 147.069C648.835 113.653 730.419 147.069 730.419 147.069L722.594 154.252C713.358 152.2 697.644 149.249 685.266 150.019Z" fill="url(#paint47_linear_1_2414)"/>
<path d="M642.291 230.641L572.124 269.444V223.714L642.291 230.641Z" fill="url(#paint48_radial_1_2414)"/>
<path d="M246.37 208.576C253.681 208.448 259.967 213.9 264.2 218.903L599.256 226.086C601.244 221.853 604.002 218.839 607.722 219.929C610.416 220.698 612.981 223.2 615.354 226.407L641.907 226.984L656.659 113.204L488.169 110.959C486.502 116.667 484.257 122.183 480.408 121.221C476.239 120.13 470.467 115.064 466.106 110.638L183.835 106.854C181.462 113.973 177.87 121.028 172.996 121.221C167.48 121.413 159.014 113.46 152.6 106.469L109.628 105.892L121.301 215.888L230.656 218.197C235.274 213.066 240.79 208.641 246.305 208.576H246.37Z" fill="url(#paint49_radial_1_2414)"/>
<path d="M246.37 213.515C253.681 213.387 259.967 218.839 264.2 223.842L599.256 231.025C601.244 226.792 604.002 223.777 607.722 224.868C610.416 225.637 612.981 228.139 615.354 231.346L641.908 231.923L656.659 118.143L488.169 115.898C486.502 121.606 484.257 127.122 480.409 126.16C476.24 125.069 470.467 120.003 466.106 115.577L183.835 111.793C181.462 118.912 177.871 125.967 172.996 126.16C167.48 126.352 159.014 118.399 152.6 111.408L109.628 110.831L121.301 220.827L230.656 223.136C235.274 218.005 240.79 213.58 246.306 213.515H246.37Z" fill="url(#paint50_radial_1_2414)"/>
<path d="M246.37 211.784C253.681 211.655 259.967 217.107 264.2 222.11L599.256 229.293C601.244 225.06 604.002 222.046 607.722 223.136C610.416 223.906 612.981 226.407 615.354 229.614L641.908 230.191L656.659 116.411L488.169 114.166C486.502 119.874 484.257 125.39 480.409 124.428C476.24 123.337 470.467 118.271 466.106 113.845L183.835 110.061C181.462 117.18 177.871 124.235 172.996 124.428C167.48 124.62 159.014 116.667 152.6 109.676L109.628 109.099L121.301 219.095L230.656 221.404C235.274 216.273 240.79 211.848 246.306 211.784H246.37Z" fill="url(#paint51_radial_1_2414)"/>
<path d="M480.475 124.428C476.306 123.338 470.534 118.271 466.172 113.845L369.324 112.562L423.841 225.573L599.258 229.357C601.246 225.124 604.004 222.11 607.724 223.2C610.418 223.97 612.984 226.471 615.357 229.678L641.91 230.255L656.661 116.475L488.171 114.23C486.504 119.938 484.259 125.454 480.411 124.492L480.475 124.428Z" fill="url(#paint52_radial_1_2414)"/>
<g filter="url(#filter1_d_1_2414)">
<path d="M218.367 198.979C217.985 198.479 217.793 198.008 217.79 197.568C217.787 197.128 217.816 196.844 217.878 196.718L239.316 136.365C239.995 134.536 241.246 133.615 243.07 133.601L257.693 133.492C259.517 133.479 260.781 134.381 261.487 136.2L283.823 196.227C283.886 196.352 283.92 196.635 283.923 197.075C283.927 197.578 283.71 198.051 283.273 198.495C282.899 198.875 282.46 199.067 281.957 199.071L269.787 199.162C268.214 199.173 267.14 198.489 266.564 197.11L261.559 183.844C259.301 184.742 257.011 185.482 254.688 186.066C252.365 186.649 250.104 187.106 247.905 187.437C245.769 187.705 243.758 187.908 241.872 188.048C239.985 188.125 238.35 188.169 236.967 188.179C236.086 188.186 235.331 188.191 234.703 188.196C234.074 188.201 233.602 188.173 233.287 188.112C234.483 188.229 235.431 188.851 236.131 189.978C236.894 191.041 236.997 192.299 236.442 193.749L235.148 197.344C234.592 198.732 233.528 199.432 231.956 199.444L219.786 199.534C219.346 199.538 218.873 199.353 218.367 198.979ZM242.149 174.649C243.909 174.51 245.732 174.276 247.616 173.948C249.249 173.684 250.945 173.325 252.703 172.872C254.523 172.355 256.247 171.65 257.876 170.758L250.457 150.057L242.149 174.649ZM291.346 196.359L290.934 141.169C290.923 139.723 291.166 138.495 291.661 137.485C292.22 136.474 292.905 135.62 293.718 134.922C294.53 134.224 295.407 133.714 296.348 133.393C297.352 133.071 298.263 132.907 299.08 132.901L322.288 132.728C325.496 132.704 328.517 132.996 331.352 133.603C334.187 134.148 336.679 135.136 338.828 136.567C340.977 137.997 342.69 139.934 343.966 142.378C345.241 144.759 345.893 147.741 345.919 151.326C345.94 154.031 345.266 156.489 343.899 158.7C342.594 160.912 340.752 162.686 338.372 164.025C341.211 165.136 343.427 167.069 345.02 169.825C346.675 172.517 347.514 175.341 347.536 178.297C347.563 181.945 346.926 185.032 345.623 187.558C344.384 190.083 342.67 192.171 340.481 193.823C338.292 195.412 335.722 196.594 332.771 197.371C329.883 198.085 326.804 198.453 323.533 198.478L293.722 198.7C293.093 198.705 292.525 198.489 292.019 198.052C291.575 197.552 291.35 196.988 291.346 196.359ZM320.501 158.781C322.64 158.765 324.365 158.186 325.678 157.044C326.989 155.839 327.637 154.136 327.621 151.934C327.604 149.733 326.9 148.103 325.509 147.044C324.179 145.922 322.477 145.369 320.402 145.384L303.42 145.511C304.867 145.5 306.097 146.025 307.111 147.087C308.125 148.086 308.637 149.214 308.646 150.472L308.688 156.133C308.693 156.699 308.949 157.294 309.456 157.919C309.964 158.545 310.658 158.854 311.539 158.847L320.501 158.781ZM321.552 185.756C323.816 185.739 325.635 185.096 327.009 183.828C328.447 182.559 329.157 180.762 329.139 178.435C329.122 176.17 328.386 174.383 326.929 173.073C325.472 171.7 323.643 171.022 321.442 171.039L303.611 171.171C305.058 171.161 306.288 171.686 307.303 172.748C308.317 173.747 308.828 174.875 308.838 176.133L308.889 183.02C308.894 183.649 309.118 184.276 309.563 184.902C310.071 185.527 310.797 185.836 311.74 185.829L321.552 185.756ZM385.433 199.243C376.502 199.309 369.442 197.192 364.252 192.891C359.063 188.59 356.279 182.226 355.902 173.801C355.826 172.04 355.774 169.336 355.747 165.688C355.72 162.04 355.731 159.304 355.78 157.48C355.97 149.176 358.658 142.772 363.845 138.267C369.095 133.699 376.122 131.383 384.927 131.317C393.669 131.252 400.667 133.464 405.921 137.953C411.238 142.38 414.053 148.743 414.366 157.043C414.519 160.69 414.603 163.425 414.616 165.249C414.63 167.136 414.587 169.841 414.488 173.364C414.236 181.794 411.548 188.198 406.423 192.576C401.361 196.954 394.364 199.176 385.433 199.243ZM385.328 185.092C388.598 185.067 391.201 184.073 393.136 182.109C395.071 180.081 396.086 177.023 396.181 172.934C396.28 169.285 396.324 166.675 396.312 165.103C396.3 163.53 396.218 160.983 396.066 157.462C395.91 153.375 394.85 150.364 392.885 148.429C390.921 146.431 388.303 145.444 385.032 145.468C381.699 145.493 379.065 146.519 377.13 148.546C375.195 150.51 374.18 153.537 374.085 157.626C374.035 159.388 374.022 161.935 374.047 165.269C374.073 168.665 374.123 171.275 374.2 173.098C374.356 177.185 375.417 180.228 377.381 182.226C379.346 184.161 381.995 185.116 385.328 185.092ZM425.129 172.907L424.885 140.265C424.876 139.007 425.119 137.873 425.615 136.863C426.11 135.853 426.733 134.999 427.483 134.302C428.295 133.604 429.172 133.063 430.112 132.678C431.116 132.293 432.089 132.098 433.033 132.09L440.014 132.038C440.706 132.033 441.274 132.281 441.718 132.781C442.224 133.217 442.48 133.781 442.485 134.473L442.769 172.587C442.796 176.172 443.666 179.027 445.38 181.153C447.157 183.215 449.901 184.233 453.611 184.205C457.322 184.177 460.019 183.088 461.701 180.937C463.383 178.786 464.211 175.949 464.185 172.427L463.943 139.974C463.933 138.653 464.176 137.488 464.671 136.478C465.23 135.467 465.884 134.613 466.634 133.916C467.446 133.218 468.323 132.708 469.264 132.386C470.267 132.002 471.209 131.806 472.09 131.799L479.071 131.747C479.763 131.742 480.331 131.989 480.775 132.489C481.281 132.926 481.537 133.49 481.542 134.182L481.828 172.484C481.861 176.95 481.23 180.823 479.933 184.103C478.637 187.383 476.739 190.102 474.239 192.259C471.801 194.353 468.857 195.948 465.406 197.043C461.954 198.075 458.09 198.607 453.813 198.639C449.536 198.67 445.633 198.196 442.104 197.216C438.637 196.236 435.638 194.686 433.106 192.566C430.574 190.446 428.604 187.757 427.196 184.496C425.851 181.236 425.162 177.373 425.129 172.907ZM542.895 131.083C544.531 131.07 545.354 131.882 545.366 133.517L545.445 143.989C545.45 144.744 545.234 145.312 544.797 145.692C544.36 146.136 543.764 146.36 543.009 146.366L521.216 146.528C522.6 146.518 523.83 147.012 524.907 148.01C525.984 149.009 526.527 150.137 526.536 151.395L526.858 194.603C526.864 195.358 526.648 195.957 526.211 196.401C525.774 196.781 525.178 196.974 524.423 196.98L511.404 197.077C510.775 197.082 510.207 196.866 509.701 196.429C509.194 195.993 508.939 195.429 508.933 194.737L508.596 149.547C508.59 148.667 508.27 147.977 507.638 147.479C507.067 146.917 506.436 146.639 505.744 146.644L492.065 146.746C491.31 146.751 490.711 146.536 490.268 146.099C489.824 145.725 489.6 145.16 489.594 144.406L489.559 139.594C489.54 137.141 490.375 135.185 492.062 133.726C493.749 132.204 495.63 131.435 497.706 131.42L542.895 131.083Z" fill="white"/>
</g>
</g>
<path d="M414.585 94.4628C416.878 91.3615 419.66 88.6007 422.819 86.4072C432.03 80.0156 444.287 78.3516 454.815 82.0957C463.312 85.0835 471.02 91.5885 476.585 100.4C481.021 107.435 484.142 115.793 486.473 126.647C486.774 128.16 485.834 129.635 484.367 129.938C482.863 130.24 481.397 129.295 481.096 127.82C478.953 117.646 476.021 109.855 471.96 103.388C467.072 95.6352 460.342 89.9244 453.048 87.3148C444.137 84.1758 433.797 85.5751 426.015 90.9455C418.232 96.3538 413.269 105.582 413.043 115.075C412.968 118.251 413.419 124.113 417.292 128.047C419.736 130.543 423.383 131.753 426.579 131.11C429.774 130.467 432.557 127.82 433.121 124.794C433.722 121.769 431.993 118.365 429.323 117.268C427.932 116.701 427.255 115.075 427.819 113.637C428.383 112.2 430 111.557 431.429 112.125C436.504 114.205 439.663 120.256 438.572 125.853C437.557 131.072 433.083 135.459 427.706 136.556C422.706 137.577 417.216 135.8 413.457 131.98C409.509 128.009 407.441 121.958 407.629 114.961C407.817 107.586 410.411 100.363 414.735 94.4249L414.585 94.4628Z" fill="url(#paint53_radial_1_2414)"/>
<path d="M417.492 12.992C421.299 13.4457 425.069 14.5044 428.536 16.2059C438.639 21.0836 446.14 30.9901 448.138 42.0309C449.758 50.9165 447.949 60.8987 443.087 70.1246C439.166 77.4978 433.512 84.3794 425.257 91.7526C424.126 92.7735 422.355 92.66 421.337 91.5257C420.319 90.3914 420.432 88.6143 421.563 87.5933C429.328 80.6739 434.605 74.2838 438.186 67.5156C442.483 59.3862 444.067 50.6897 442.71 43.014C441.013 33.6747 434.681 25.3184 426.124 21.197C417.605 17.0756 407.126 17.3402 398.796 21.8398C396.006 23.3522 391.144 26.6418 389.673 31.9732C388.731 35.3762 389.485 39.1195 391.634 41.5772C393.782 44.0727 397.439 45.1314 400.379 44.1483C403.319 43.1653 405.392 39.9891 405.015 37.1155C404.827 35.603 405.882 34.204 407.39 34.015C408.898 33.8259 410.292 34.8846 410.481 36.3971C411.197 41.8797 407.541 47.5892 402.15 49.4041C397.137 51.1056 391.106 49.4041 387.487 45.2071C384.132 41.3125 382.926 35.6787 384.396 30.4607C385.904 25.0537 390.088 20.2517 396.232 16.9243C402.716 13.4457 410.255 12.0845 417.53 12.992H417.492Z" fill="url(#paint54_radial_1_2414)"/>
<defs>
<filter id="filter0_d_1_2414" x="0.465945" y="105.892" width="763.047" height="229.871" filterUnits="userSpaceOnUse" color-interpolation-filters="sRGB">
<feFlood flood-opacity="0" result="BackgroundImageFix"/>
<feColorMatrix in="SourceAlpha" type="matrix" values="0 0 0 0 0 0 0 0 0 0 0 0 0 0 0 0 0 0 127 0" result="hardAlpha"/>
<feOffset dx="0.705516" dy="34.3779"/>
<feGaussianBlur stdDeviation="15.9703"/>
<feColorMatrix type="matrix" values="0 0 0 0 0.015983 0 0 0 0 0.179167 0 0 0 0 0.0104514 0 0 0 1 0"/>
<feBlend mode="normal" in2="BackgroundImageFix" result="effect1_dropShadow_1_2414"/>
<feBlend mode="normal" in="SourceGraphic" in2="effect1_dropShadow_1_2414" result="shape"/>
</filter>
<filter id="filter1_d_1_2414" x="217.305" y="130.121" width="328.542" height="76.2681" filterUnits="userSpaceOnUse" color-interpolation-filters="sRGB">
<feFlood flood-opacity="0" result="BackgroundImageFix"/>
<feColorMatrix in="SourceAlpha" type="matrix" values="0 0 0 0 0 0 0 0 0 0 0 0 0 0 0 0 0 0 127 0" result="hardAlpha"/>
<feOffset dy="5.8965"/>
<feComposite in2="hardAlpha" operator="out"/>
<feColorMatrix type="matrix" values="0 0 0 0 0.105882 0 0 0 0 0.372549 0 0 0 0 0 0 0 0 1 0"/>
<feBlend mode="normal" in2="BackgroundImageFix" result="effect1_dropShadow_1_2414"/>
<feBlend mode="normal" in="SourceGraphic" in2="effect1_dropShadow_1_2414" result="shape"/>
</filter>
<radialGradient id="paint0_radial_1_2414" cx="0" cy="0" r="1" gradientUnits="userSpaceOnUse" gradientTransform="translate(290.135 53.6053) rotate(-26.76) scale(122.696 122.696)">
<stop stop-color="#47CD00"/>
<stop offset="1" stop-color="#058B00"/>
</radialGradient>
<radialGradient id="paint1_radial_1_2414" cx="0" cy="0" r="1" gradientUnits="userSpaceOnUse" gradientTransform="translate(360.359 21.786) rotate(-26.76) scale(115.64 115.64)">
<stop stop-color="#73D914"/>
<stop offset="1" stop-color="#41A705"/>
</radialGradient>
<radialGradient id="paint2_radial_1_2414" cx="0" cy="0" r="1" gradientUnits="userSpaceOnUse" gradientTransform="translate(380.293 123.142) rotate(-26.76) scale(98.5798 98.5798)">
<stop stop-color="#73D914"/>
<stop offset="1" stop-color="#41A705"/>
</radialGradient>
<radialGradient id="paint3_radial_1_2414" cx="0" cy="0" r="1" gradientUnits="userSpaceOnUse" gradientTransform="translate(278.249 53.1777) rotate(-25.73) scale(107.055 111.38)">
<stop stop-color="#ADF222"/>
<stop offset="1" stop-color="#6BD909"/>
</radialGradient>
<radialGradient id="paint4_radial_1_2414" cx="0" cy="0" r="1" gradientUnits="userSpaceOnUse" gradientTransform="translate(283.916 55.9501) rotate(-26.76) scale(108.136 108.136)">
<stop stop-color="#47CD00"/>
<stop offset="1" stop-color="#058B00"/>
</radialGradient>
<radialGradient id="paint5_radial_1_2414" cx="0" cy="0" r="1" gradientUnits="userSpaceOnUse" gradientTransform="translate(419.718 -24.5962) rotate(-26.76) scale(102.749 102.749)">
<stop stop-color="#73D914"/>
<stop offset="1" stop-color="#41A705"/>
</radialGradient>
<radialGradient id="paint6_radial_1_2414" cx="0" cy="0" r="1" gradientUnits="userSpaceOnUse" gradientTransform="translate(339.262 26.2463) rotate(-26.76) scale(49.8992 49.8992)">
<stop stop-color="#47CD00"/>
<stop offset="1" stop-color="#058B00"/>
</radialGradient>
<radialGradient id="paint7_radial_1_2414" cx="0" cy="0" r="1" gradientUnits="userSpaceOnUse" gradientTransform="translate(303.829 66.3801) rotate(-26.76) scale(63.4964 63.4964)">
<stop stop-color="#47CD00"/>
<stop offset="1" stop-color="#058B00"/>
</radialGradient>
<radialGradient id="paint8_radial_1_2414" cx="0" cy="0" r="1" gradientUnits="userSpaceOnUse" gradientTransform="translate(349.452 137.905) rotate(-26.76) scale(19.4338 19.4338)">
<stop stop-color="#ADF222"/>
<stop offset="1" stop-color="#6BD909"/>
</radialGradient>
<radialGradient id="paint9_radial_1_2414" cx="0" cy="0" r="1" gradientUnits="userSpaceOnUse" gradientTransform="translate(308.11 101.071) rotate(-9.69) scale(85.8164 85.8164)">
<stop stop-color="#0BBD00"/>
<stop offset="0.13" stop-color="#00B100"/>
<stop offset="1" stop-color="#006500"/>
</radialGradient>
<radialGradient id="paint10_radial_1_2414" cx="0" cy="0" r="1" gradientUnits="userSpaceOnUse" gradientTransform="translate(264.805 5.59639) rotate(-9.69) scale(119.296 119.296)">
<stop stop-color="#ADF222"/>
<stop offset="1" stop-color="#6BD909"/>
</radialGradient>
<radialGradient id="paint11_radial_1_2414" cx="0" cy="0" r="1" gradientUnits="userSpaceOnUse" gradientTransform="translate(379.8 151.293) rotate(-9.69002) scale(13.982 13.9821)">
<stop stop-color="#73D914"/>
<stop offset="1" stop-color="#41A705"/>
</radialGradient>
<radialGradient id="paint12_radial_1_2414" cx="0" cy="0" r="1" gradientUnits="userSpaceOnUse" gradientTransform="translate(265.15 7.61996) rotate(-9.69) scale(119.296 119.296)">
<stop stop-color="#73D914"/>
<stop offset="1" stop-color="#41A705"/>
</radialGradient>
<radialGradient id="paint13_radial_1_2414" cx="0" cy="0" r="1" gradientUnits="userSpaceOnUse" gradientTransform="translate(222.398 184.026) rotate(-9.69) scale(99.7343 99.7342)">
<stop stop-color="#47CD00"/>
<stop offset="1" stop-color="#058B00"/>
</radialGradient>
<radialGradient id="paint14_radial_1_2414" cx="0" cy="0" r="1" gradientUnits="userSpaceOnUse" gradientTransform="translate(553.293 50.0366) rotate(10.16) scale(74.6564 74.6564)">
<stop stop-color="#47CD00"/>
<stop offset="1" stop-color="#058B00"/>
</radialGradient>
<radialGradient id="paint15_radial_1_2414" cx="0" cy="0" r="1" gradientUnits="userSpaceOnUse" gradientTransform="translate(599.093 60.2641) rotate(10.16) scale(70.3591 70.3592)">
<stop stop-color="#73D914"/>
<stop offset="1" stop-color="#41A705"/>
</radialGradient>
<radialGradient id="paint16_radial_1_2414" cx="0" cy="0" r="1" gradientUnits="userSpaceOnUse" gradientTransform="translate(571.758 116.811) rotate(10.16) scale(60.0329 60.033)">
<stop stop-color="#73D914"/>
<stop offset="1" stop-color="#41A705"/>
</radialGradient>
<radialGradient id="paint17_radial_1_2414" cx="0" cy="0" r="1" gradientUnits="userSpaceOnUse" gradientTransform="translate(551.601 45.9937) rotate(11.19) scale(65.1473 67.7795)">
<stop stop-color="#ADF222"/>
<stop offset="1" stop-color="#6BD909"/>
</radialGradient>
<radialGradient id="paint18_radial_1_2414" cx="0" cy="0" r="1" gradientUnits="userSpaceOnUse" gradientTransform="translate(549.448 48.9564) rotate(10.16) scale(65.8054 65.8054)">
<stop stop-color="#47CD00"/>
<stop offset="1" stop-color="#058B00"/>
</radialGradient>
<radialGradient id="paint19_radial_1_2414" cx="0" cy="0" r="1" gradientUnits="userSpaceOnUse" gradientTransform="translate(644.919 59.4196) rotate(10.16) scale(62.5343 62.5343)">
<stop stop-color="#73D914"/>
<stop offset="1" stop-color="#41A705"/>
</radialGradient>
<radialGradient id="paint20_radial_1_2414" cx="0" cy="0" r="1" gradientUnits="userSpaceOnUse" gradientTransform="translate(587.181 54.7411) rotate(10.16) scale(30.4013 30.4013)">
<stop stop-color="#47CD00"/>
<stop offset="1" stop-color="#058B00"/>
</radialGradient>
<radialGradient id="paint21_radial_1_2414" cx="0" cy="0" r="1" gradientUnits="userSpaceOnUse" gradientTransform="translate(555.318 61.2818) rotate(10.16) scale(38.6751 38.6751)">
<stop stop-color="#47CD00"/>
<stop offset="1" stop-color="#058B00"/>
</radialGradient>
<radialGradient id="paint22_radial_1_2414" cx="0" cy="0" r="1" gradientUnits="userSpaceOnUse" gradientTransform="translate(551.368 112.766) rotate(10.1599) scale(11.8015 11.8014)">
<stop stop-color="#ADF222"/>
<stop offset="1" stop-color="#6BD909"/>
</radialGradient>
<radialGradient id="paint23_radial_1_2414" cx="0" cy="0" r="1" gradientUnits="userSpaceOnUse" gradientTransform="translate(544.746 79.9309) rotate(27.23) scale(52.2082 52.2082)">
<stop stop-color="#0BBD00"/>
<stop offset="0.13" stop-color="#00B100"/>
<stop offset="1" stop-color="#006500"/>
</radialGradient>
<radialGradient id="paint24_radial_1_2414" cx="0" cy="0" r="1" gradientUnits="userSpaceOnUse" gradientTransform="translate(558.578 17.5859) rotate(27.23) scale(72.604 72.604)">
<stop stop-color="#ADF222"/>
<stop offset="1" stop-color="#6BD909"/>
</radialGradient>
<radialGradient id="paint25_radial_1_2414" cx="0" cy="0" r="1" gradientUnits="userSpaceOnUse" gradientTransform="translate(561.254 130.552) rotate(27.23) scale(8.53033 8.53032)">
<stop stop-color="#73D914"/>
<stop offset="1" stop-color="#41A705"/>
</radialGradient>
<radialGradient id="paint26_radial_1_2414" cx="0" cy="0" r="1" gradientUnits="userSpaceOnUse" gradientTransform="translate(557.99 18.7275) rotate(27.23) scale(72.604)">
<stop stop-color="#73D914"/>
<stop offset="1" stop-color="#41A705"/>
</radialGradient>
<radialGradient id="paint27_radial_1_2414" cx="0" cy="0" r="1" gradientUnits="userSpaceOnUse" gradientTransform="translate(472.672 88.933) rotate(27.23) scale(60.6744 60.6744)">
<stop stop-color="#47CD00"/>
<stop offset="1" stop-color="#058B00"/>
</radialGradient>
<radialGradient id="paint28_radial_1_2414" cx="0" cy="0" r="1" gradientUnits="userSpaceOnUse" gradientTransform="translate(122.809 85.5507) rotate(10.16) scale(74.6564 74.6564)">
<stop stop-color="#47CD00"/>
<stop offset="1" stop-color="#058B00"/>
</radialGradient>
<radialGradient id="paint29_radial_1_2414" cx="0" cy="0" r="1" gradientUnits="userSpaceOnUse" gradientTransform="translate(168.609 95.7781) rotate(10.16) scale(70.3591 70.3592)">
<stop stop-color="#73D914"/>
<stop offset="1" stop-color="#41A705"/>
</radialGradient>
<radialGradient id="paint30_radial_1_2414" cx="0" cy="0" r="1" gradientUnits="userSpaceOnUse" gradientTransform="translate(141.272 152.325) rotate(10.16) scale(60.033 60.033)">
<stop stop-color="#73D914"/>
<stop offset="1" stop-color="#41A705"/>
</radialGradient>
<radialGradient id="paint31_radial_1_2414" cx="0" cy="0" r="1" gradientUnits="userSpaceOnUse" gradientTransform="translate(121.846 81.5195) rotate(11.19) scale(65.1473 67.7796)">
<stop stop-color="#ADF222"/>
<stop offset="1" stop-color="#6BD909"/>
</radialGradient>
<radialGradient id="paint32_radial_1_2414" cx="0" cy="0" r="1" gradientUnits="userSpaceOnUse" gradientTransform="translate(118.974 84.4074) rotate(10.16) scale(65.8054 65.8054)">
<stop stop-color="#47CD00"/>
<stop offset="1" stop-color="#058B00"/>
</radialGradient>
<radialGradient id="paint33_radial_1_2414" cx="0" cy="0" r="1" gradientUnits="userSpaceOnUse" gradientTransform="translate(214.447 94.8706) rotate(10.16) scale(62.5344 62.5344)">
<stop stop-color="#73D914"/>
<stop offset="1" stop-color="#41A705"/>
</radialGradient>
<radialGradient id="paint34_radial_1_2414" cx="0" cy="0" r="1" gradientUnits="userSpaceOnUse" gradientTransform="translate(156.771 90.2034) rotate(10.16) scale(30.4013 30.4013)">
<stop stop-color="#47CD00"/>
<stop offset="1" stop-color="#058B00"/>
</radialGradient>
<radialGradient id="paint35_radial_1_2414" cx="0" cy="0" r="1" gradientUnits="userSpaceOnUse" gradientTransform="translate(124.834 96.7959) rotate(10.16) scale(38.6751 38.6751)">
<stop stop-color="#47CD00"/>
<stop offset="1" stop-color="#058B00"/>
</radialGradient>
<radialGradient id="paint36_radial_1_2414" cx="0" cy="0" r="1" gradientUnits="userSpaceOnUse" gradientTransform="translate(120.885 148.281) rotate(10.16) scale(11.8014 11.8014)">
<stop stop-color="#ADF222"/>
<stop offset="1" stop-color="#6BD909"/>
</radialGradient>
<radialGradient id="paint37_radial_1_2414" cx="0" cy="0" r="1" gradientUnits="userSpaceOnUse" gradientTransform="translate(114.26 115.41) rotate(27.23) scale(52.2082 52.2082)">
<stop stop-color="#0BBD00"/>
<stop offset="0.13" stop-color="#00B100"/>
<stop offset="1" stop-color="#006500"/>
</radialGradient>
<radialGradient id="paint38_radial_1_2414" cx="0" cy="0" r="1" gradientUnits="userSpaceOnUse" gradientTransform="translate(128.121 53.151) rotate(27.23) scale(72.604 72.604)">
<stop stop-color="#ADF222"/>
<stop offset="1" stop-color="#6BD909"/>
</radialGradient>
<radialGradient id="paint39_radial_1_2414" cx="0" cy="0" r="1" gradientUnits="userSpaceOnUse" gradientTransform="translate(130.739 166.088) rotate(27.23) scale(8.53033 8.53032)">
<stop stop-color="#73D914"/>
<stop offset="1" stop-color="#41A705"/>
</radialGradient>
<radialGradient id="paint40_radial_1_2414" cx="0" cy="0" r="1" gradientUnits="userSpaceOnUse" gradientTransform="translate(127.531 54.2926) rotate(27.23) scale(72.604)">
<stop stop-color="#73D914"/>
<stop offset="1" stop-color="#41A705"/>
</radialGradient>
<radialGradient id="paint41_radial_1_2414" cx="0" cy="0" r="1" gradientUnits="userSpaceOnUse" gradientTransform="translate(42.2395 124.441) rotate(27.23) scale(60.6743 60.6744)">
<stop stop-color="#47CD00"/>
<stop offset="1" stop-color="#058B00"/>
</radialGradient>
<radialGradient id="paint42_radial_1_2414" cx="0" cy="0" r="1" gradientUnits="userSpaceOnUse" gradientTransform="translate(172.425 193.585) scale(164.149 163.767)">
<stop stop-color="#ADF222"/>
<stop offset="1" stop-color="#6BD909"/>
</radialGradient>
<radialGradient id="paint43_radial_1_2414" cx="0" cy="0" r="1" gradientUnits="userSpaceOnUse" gradientTransform="translate(110.847 189.399) scale(74.0791 74.0792)">
<stop stop-color="#ADF222"/>
<stop offset="1" stop-color="#6BD909"/>
</radialGradient>
<linearGradient id="paint44_linear_1_2414" x1="33.1766" y1="190.939" x2="191.469" y2="190.939" gradientUnits="userSpaceOnUse">
<stop stop-color="#2FB605"/>
<stop offset="1" stop-color="#136501"/>
</linearGradient>
<radialGradient id="paint45_radial_1_2414" cx="0" cy="0" r="1" gradientUnits="userSpaceOnUse" gradientTransform="translate(218.598 270.611) scale(79.8516 35.1347)">
<stop stop-color="#2FB605"/>
<stop offset="1" stop-color="#136501"/>
</radialGradient>
<radialGradient id="paint46_radial_1_2414" cx="0" cy="0" r="1" gradientUnits="userSpaceOnUse" gradientTransform="translate(651.721 200.495) rotate(180) scale(74.0792 74.0791)">
<stop stop-color="#ADF222"/>
<stop offset="1" stop-color="#6BD909"/>
</radialGradient>
<linearGradient id="paint47_linear_1_2414" x1="730.483" y1="200.88" x2="572.127" y2="200.88" gradientUnits="userSpaceOnUse">
<stop stop-color="#2FB605"/>
<stop offset="1" stop-color="#136501"/>
</linearGradient>
<radialGradient id="paint48_radial_1_2414" cx="0" cy="0" r="1" gradientUnits="userSpaceOnUse" gradientTransform="translate(545.058 280.545) rotate(180) scale(79.8516 35.1347)">
<stop stop-color="#2FB605"/>
<stop offset="1" stop-color="#136501"/>
</radialGradient>
<radialGradient id="paint49_radial_1_2414" cx="0" cy="0" r="1" gradientUnits="userSpaceOnUse" gradientTransform="translate(323.848 52.7857) scale(249.111 249.111)">
<stop stop-color="#ADF222"/>
<stop offset="1" stop-color="#6BD909"/>
</radialGradient>
<radialGradient id="paint50_radial_1_2414" cx="0" cy="0" r="1" gradientUnits="userSpaceOnUse" gradientTransform="translate(323.848 57.7247) scale(249.111 249.111)">
<stop stop-color="#2FB605"/>
<stop offset="1" stop-color="#136501"/>
</radialGradient>
<radialGradient id="paint51_radial_1_2414" cx="0" cy="0" r="1" gradientUnits="userSpaceOnUse" gradientTransform="translate(127.832 159.8) rotate(23.4091) scale(135.272 647.183)">
<stop stop-color="#CDEE81"/>
<stop offset="0.16" stop-color="#C9EC77"/>
<stop offset="0.29" stop-color="#C5EA6C"/>
<stop offset="0.77" stop-color="#80B729"/>
</radialGradient>
<radialGradient id="paint52_radial_1_2414" cx="0" cy="0" r="1" gradientUnits="userSpaceOnUse" gradientTransform="translate(642.936 81.1991) scale(242.954 231.049)">
<stop stop-color="#C8EC74"/>
<stop offset="1" stop-color="#89BE32"/>
</radialGradient>
<radialGradient id="paint53_radial_1_2414" cx="0" cy="0" r="1" gradientUnits="userSpaceOnUse" gradientTransform="translate(397.235 129.231) rotate(126.359) scale(26.9097 26.8633)">
<stop stop-color="#ADF222"/>
<stop offset="1" stop-color="#6BD909"/>
</radialGradient>
<radialGradient id="paint54_radial_1_2414" cx="0" cy="0" r="1" gradientUnits="userSpaceOnUse" gradientTransform="translate(378.651 15.7714) rotate(-173.149) scale(26.8773 26.9582)">
<stop stop-color="#ADF222"/>
<stop offset="1" stop-color="#6BD909"/>
</radialGradient>
</defs>
</svg>
