<svg width="764" height="336" viewBox="0 0 764 336" fill="none" xmlns="http://www.w3.org/2000/svg">
<path d="M410.475 30.0806C400.662 24.244 398.546 19.113 398.482 15.9061C398.418 12.7634 397.135 9.81303 394.954 7.56821L387.963 0.0640869L355.573 121.477C355.573 121.477 354.932 124.812 360.127 134.305C360.127 134.305 359.358 159.767 368.273 158.484C377.188 157.202 377.06 150.98 377.06 150.98C366.99 145.593 372.121 141.231 372.121 141.231L373.211 140.141C375.841 139.179 379.048 137.704 383.153 135.716C397.455 128.725 423.111 112.562 428.049 90.306C432.988 68.0501 427.215 40.1502 410.475 30.1447V30.0806Z" fill="url(#paint0_radial_1_10720)"/>
<path d="M387.963 0.0641393C387.963 0.0641393 390.978 21.8069 402.202 28.2848C413.426 34.7627 429.332 74.7205 414.709 100.76C400.086 126.8 360.192 134.24 360.192 134.24L357.69 66.8957L388.028 0L387.963 0.0641393Z" fill="url(#paint1_radial_1_10720)"/>
<path d="M357.625 66.9593L357.881 74.5275L363.91 110.637L420.351 70.4869C418.812 50.989 409.512 32.5173 402.2 28.2842C401.431 27.8352 400.725 27.3221 400.02 26.7449L365.129 50.4759L357.689 66.8951L357.625 66.9593Z" fill="url(#paint2_radial_1_10720)"/>
<path d="M359.805 136.421C359.805 136.421 370.131 69.4612 376.353 44.1909C382.574 18.9206 387.962 0.0640869 387.962 0.0640869C387.962 0.0640869 361.152 13.8537 357.689 23.9234C354.225 33.993 314.845 39.0599 318.244 72.155C321.643 105.25 351.852 137.319 359.805 136.421Z" fill="url(#paint3_radial_1_10720)"/>
<path d="M360.125 134.305C360.125 134.305 370.323 68.4993 376.416 43.6138C382.573 18.6642 387.897 0.128418 387.897 0.128418C387.897 0.128418 361.151 14.4953 357.624 24.4366C354.096 34.378 314.78 40.6635 318.307 72.9248C321.835 105.186 352.172 135.523 360.061 134.369L360.125 134.305Z" fill="url(#paint4_radial_1_10720)"/>
<path d="M372.698 33.8649L372.441 62.791L409.962 37.0077C407.396 32.8387 404.702 29.8242 402.265 28.349C391.041 21.807 388.026 0.128418 388.026 0.128418L372.698 33.929V33.8649Z" fill="url(#paint5_radial_1_10720)"/>
<path d="M372.377 62.7267C373.852 55.2867 375.199 48.5522 376.482 43.5495C382.639 18.5999 387.962 0.0640869 387.962 0.0640869C387.962 0.0640869 361.217 14.431 357.689 24.3723C356.984 26.4889 354.611 28.413 351.468 30.4654L372.377 62.7267Z" fill="url(#paint6_radial_1_10720)"/>
<path d="M321.771 54.517C319.077 59.5197 317.602 65.4845 318.435 72.8604C321.963 105.122 352.3 135.459 360.189 134.304C360.189 134.304 361.728 124.299 363.973 110.638L321.771 54.517Z" fill="url(#paint7_radial_1_10720)"/>
<path d="M366.733 158.421C366.733 158.421 362.885 159.704 358.908 151.815C354.932 143.926 356.471 133.471 356.471 133.471L360.127 134.305C360.127 134.305 361.602 157.395 366.669 158.421H366.733Z" fill="url(#paint8_radial_1_10720)"/>
<path d="M234.801 64.2661L223.064 64.1378C223.064 64.1378 221.139 73.053 224.282 82.2247C227.425 91.3964 222.294 131.547 238.136 153.033C254.042 174.455 281.621 190.746 310.419 174.006C339.217 157.266 368.913 157.971 368.528 157.843C368.143 157.715 375.455 168.554 377.123 170.671C378.79 172.787 388.86 166.758 388.154 162.589C387.449 158.42 367.245 150.339 367.245 150.339L234.737 64.2019L234.801 64.2661Z" fill="url(#paint9_radial_1_10720)"/>
<path d="M366.925 148.416C366.925 148.416 370.581 106.149 350.826 91.1406C331.072 76.1324 331.777 72.9896 317.41 59.5207C303.043 46.0518 223.577 62.0221 223.064 64.2028C222.551 66.3834 230.824 74.3365 235.891 107.496C240.958 140.655 259.237 170.03 296.437 164.001C333.637 157.972 348.838 142.9 366.925 148.416Z" fill="url(#paint10_radial_1_10720)"/>
<path d="M388.091 164.129C388.091 164.129 391.041 161.756 391.234 156.368C391.426 150.981 367.567 144.567 367.567 144.567L367.31 150.403L388.091 164.129Z" fill="url(#paint11_radial_1_10720)"/>
<path d="M367.31 150.469C367.31 150.469 370.966 108.202 351.211 93.1935C331.457 78.1853 332.162 75.0425 317.795 61.5736C303.428 48.1046 223.962 64.0749 223.449 66.2556C222.935 68.4363 231.209 76.3894 236.276 109.549C241.343 142.708 259.622 172.083 296.822 166.054C334.022 160.025 349.223 144.953 367.31 150.469Z" fill="url(#paint12_radial_1_10720)"/>
<path d="M236.276 109.484C241.343 142.643 259.622 172.018 296.822 165.989C334.022 159.96 349.223 144.888 367.31 150.404C330.559 115.192 223.449 66.1908 223.449 66.1908C222.935 68.3715 231.209 76.3246 236.276 109.484Z" fill="url(#paint13_radial_1_10720)"/>
<path d="M620.652 82.6747C618.022 76.261 618.856 72.9899 620.01 71.3865C621.101 69.8472 621.55 67.923 621.357 66.063L620.716 59.8417L560.555 107.047C560.555 107.047 559.015 108.394 558.117 114.936C558.117 114.936 548.433 127.058 553.243 129.688C558.053 132.317 560.234 129.239 560.234 129.239C557.284 122.953 561.388 122.697 561.388 122.697L562.35 122.568C563.954 123.082 566.07 123.531 568.828 124.044C578.385 125.839 596.728 127.379 607.247 118.399C617.765 109.42 625.141 93.7064 620.652 82.7389V82.6747Z" fill="url(#paint14_radial_1_10720)"/>
<path d="M620.716 59.8417C620.716 59.8417 614.238 71.5148 617.317 78.7623C620.395 86.0099 613.533 111.28 596.857 118.592C580.181 125.904 558.053 114.936 558.053 114.936L581.464 81.2637L620.652 59.8417H620.716Z" fill="url(#paint15_radial_1_10720)"/>
<path d="M581.465 81.328L578.835 85.1122L568.573 104.867L610.711 105.957C617.125 95.8873 619.306 83.5728 617.318 78.8266C617.125 78.3135 616.933 77.8004 616.804 77.2873L591.149 76.0687L581.529 81.328H581.465Z" fill="url(#paint16_radial_1_10720)"/>
<path d="M557.154 115.899C557.154 115.899 586.658 87.1007 598.908 77.0952C611.158 67.0897 620.715 59.9063 620.715 59.9063C620.715 59.9063 602.628 56.8276 597.241 60.4194C591.853 64.0111 570.88 52.1456 560.425 69.4628C549.971 86.78 552.986 113.461 557.154 115.899Z" fill="url(#paint17_radial_1_10720)"/>
<path d="M558.054 115C558.054 115 587.045 86.7154 599.167 76.8382C611.289 66.961 620.653 59.9059 620.653 59.9059C620.653 59.9059 602.374 57.0838 597.05 60.6755C591.727 64.2672 570.305 52.9148 560.171 69.8472C550.037 86.7796 553.757 112.691 558.054 115Z" fill="url(#paint18_radial_1_10720)"/>
<path d="M600.896 70.6809L590.185 84.663L617.892 85.8174C618.149 82.8671 617.957 80.3657 617.315 78.8264C614.237 71.5788 620.714 59.9058 620.714 59.9058L600.896 70.745V70.6809Z" fill="url(#paint19_radial_1_10720)"/>
<path d="M590.187 84.663C593.65 81.5844 596.729 78.8265 599.166 76.8382C611.288 66.961 620.652 59.9059 620.652 59.9059C620.652 59.9059 602.373 57.0838 597.049 60.6755C595.959 61.4452 594.099 61.5093 591.79 61.381L590.123 84.7272L590.187 84.663Z" fill="url(#paint20_radial_1_10720)"/>
<path d="M568.572 62.1514C565.429 63.5624 562.543 65.9996 560.234 69.8479C550.164 86.8444 553.82 112.692 558.117 115.001C558.117 115.001 562.543 110.704 568.636 104.867V62.1514H568.572Z" fill="url(#paint21_radial_1_10720)"/>
<path d="M552.472 129.111C552.472 129.111 550.163 128.341 551.061 123.017C551.959 117.694 556.577 113.204 556.577 113.204L558.052 114.936C558.052 114.936 550.356 126.673 552.408 129.046L552.472 129.111Z" fill="url(#paint22_radial_1_10720)"/>
<path d="M522.714 35.1482L517.07 30.7869C517.07 30.7869 512.901 34.4427 511.041 40.0227C509.181 45.6027 491.992 63.3047 491.928 79.5316C491.864 95.7584 499.304 113.781 519.443 116.154C539.583 118.527 553.757 129.751 553.629 129.559C553.5 129.367 553.052 137.32 553.116 138.987C553.18 140.655 560.235 141.425 561.454 139.116C562.672 136.807 555.745 125.518 555.745 125.518L522.779 35.1482H522.714Z" fill="url(#paint23_radial_1_10720)"/>
<path d="M556.257 124.363C556.257 124.363 573.446 105.122 569.341 90.6269C565.237 76.1318 566.712 74.849 564.659 63.0477C562.607 51.2463 518.095 29.9526 517.069 30.8505C516.043 31.7484 517.133 38.6112 507.513 56.5698C497.828 74.5284 496.032 95.5656 516.299 106.212C536.567 116.859 549.523 115.063 556.257 124.428V124.363Z" fill="url(#paint24_radial_1_10720)"/>
<path d="M560.747 139.757C560.747 139.757 563.056 139.693 565.109 137.128C567.161 134.562 557.925 122.761 557.925 122.761L555.681 125.519L560.812 139.757H560.747Z" fill="url(#paint25_radial_1_10720)"/>
<path d="M555.679 125.455C555.679 125.455 572.868 106.213 568.763 91.7183C564.659 77.2231 566.134 75.9404 564.081 64.139C562.029 52.3376 517.517 31.0439 516.491 31.9418C515.465 32.8398 516.555 39.7025 506.935 57.6611C497.314 75.6197 495.454 96.6569 515.721 107.304C536.053 117.951 548.945 116.155 555.679 125.519V125.455Z" fill="url(#paint26_radial_1_10720)"/>
<path d="M506.874 57.6602C497.189 75.6187 495.393 96.656 515.661 107.303C535.992 117.95 548.884 116.154 555.619 125.518C550.616 94.9884 516.43 31.9409 516.43 31.9409C515.34 32.8388 516.495 39.7016 506.874 57.6602Z" fill="url(#paint27_radial_1_10720)"/>
<path d="M190.163 118.271C187.533 111.857 188.367 108.586 189.521 106.983C190.612 105.444 191.061 103.519 190.868 101.659L190.227 95.4381L130.066 142.644C130.066 142.644 128.526 143.99 127.628 150.532C127.628 150.532 117.944 162.655 122.754 165.284C127.564 167.914 129.745 164.835 129.745 164.835C126.795 158.55 130.899 158.293 130.899 158.293L131.862 158.165C133.465 158.678 135.582 159.127 138.339 159.64C147.896 161.436 166.239 162.975 176.758 153.996C187.277 145.017 194.652 129.303 190.163 118.335V118.271Z" fill="url(#paint28_radial_1_10720)"/>
<path d="M190.227 95.4381C190.227 95.4381 183.749 107.111 186.828 114.359C189.907 121.606 183.044 146.877 166.368 154.188C149.692 161.5 127.565 150.532 127.565 150.532L150.975 116.86L190.163 95.4381H190.227Z" fill="url(#paint29_radial_1_10720)"/>
<path d="M151.038 116.86L148.408 120.645L138.146 140.399L180.285 141.489C186.699 131.42 188.879 119.105 186.891 114.359C186.699 113.846 186.506 113.333 186.378 112.82L160.723 111.601L151.102 116.86H151.038Z" fill="url(#paint30_radial_1_10720)"/>
<path d="M126.666 151.431C126.666 151.431 156.169 122.633 168.419 112.628C180.67 102.622 190.226 95.4386 190.226 95.4386C190.226 95.4386 172.139 92.36 166.752 95.9517C161.364 99.5434 140.391 87.6779 129.937 104.995C119.482 122.312 122.497 148.994 126.666 151.431Z" fill="url(#paint31_radial_1_10720)"/>
<path d="M127.628 150.533C127.628 150.533 156.618 122.248 168.74 112.371C180.862 102.493 190.227 95.4382 190.227 95.4382C190.227 95.4382 171.947 92.6161 166.624 96.2079C161.3 99.7996 139.878 88.4472 129.745 105.38C119.611 122.312 123.331 148.224 127.628 150.533Z" fill="url(#paint32_radial_1_10720)"/>
<path d="M170.407 106.213L159.696 120.195L187.404 121.35C187.66 118.399 187.468 115.898 186.826 114.359C183.748 107.111 190.226 95.4381 190.226 95.4381L170.407 106.277V106.213Z" fill="url(#paint33_radial_1_10720)"/>
<path d="M159.698 120.195C163.161 117.117 166.24 114.359 168.677 112.371C180.799 102.493 190.163 95.4382 190.163 95.4382C190.163 95.4382 171.884 92.6161 166.56 96.2079C165.47 96.9775 163.61 97.0417 161.301 96.9134L159.633 120.26L159.698 120.195Z" fill="url(#paint34_radial_1_10720)"/>
<path d="M138.082 97.6837C134.939 99.0947 132.053 101.532 129.744 105.38C119.675 122.377 123.33 148.224 127.628 150.533C127.628 150.533 132.053 146.236 138.146 140.399V97.6837H138.082Z" fill="url(#paint35_radial_1_10720)"/>
<path d="M121.983 164.643C121.983 164.643 119.674 163.874 120.572 158.55C121.47 153.227 126.088 148.737 126.088 148.737L127.563 150.469C127.563 150.469 119.867 162.206 121.919 164.579L121.983 164.643Z" fill="url(#paint36_radial_1_10720)"/>
<path d="M92.2247 70.6806L86.5805 66.3192C86.5805 66.3192 82.4116 69.9751 80.5516 75.555C78.6916 81.135 61.5027 98.8371 61.4385 115.064C61.3744 131.291 68.8144 149.314 88.9536 151.687C109.093 154.06 123.267 165.284 123.139 165.091C123.011 164.899 122.562 172.852 122.626 174.52C122.69 176.187 129.745 176.957 130.964 174.648C132.183 172.339 125.256 161.051 125.256 161.051L92.2888 70.6806H92.2247Z" fill="url(#paint37_radial_1_10720)"/>
<path d="M125.769 159.896C125.769 159.896 142.958 140.655 138.853 126.159C134.748 111.664 136.224 110.382 134.171 98.5802C132.119 86.7788 87.6071 65.4851 86.5808 66.383C85.5546 67.2809 86.645 74.1437 77.0243 92.1023C67.4037 110.061 65.5437 131.098 85.8112 141.745C106.143 152.392 119.035 150.596 125.769 159.96V159.896Z" fill="url(#paint38_radial_1_10720)"/>
<path d="M130.258 175.29C130.258 175.29 132.567 175.226 134.619 172.66C136.671 170.095 127.436 158.293 127.436 158.293L125.191 161.051L130.322 175.29H130.258Z" fill="url(#paint39_radial_1_10720)"/>
<path d="M125.189 160.987C125.189 160.987 142.378 141.746 138.274 127.251C134.169 112.756 135.644 111.473 133.592 99.6716C131.539 87.8702 87.0275 66.5765 86.0013 67.4744C84.9751 68.3723 86.0654 75.2351 76.4448 93.1937C66.8241 111.152 64.9641 132.189 85.2316 142.836C105.499 153.483 118.455 151.687 125.189 161.051V160.987Z" fill="url(#paint40_radial_1_10720)"/>
<path d="M76.381 93.1926C66.6961 111.151 64.9003 132.188 85.1678 142.835C105.5 153.482 118.391 151.686 125.126 161.05C120.123 130.521 85.9375 67.4734 85.9375 67.4734C84.8471 68.3713 86.0016 75.2341 76.381 93.1926Z" fill="url(#paint41_radial_1_10720)"/>
<path d="M371.227 318C354.958 318 336.518 315.23 318.789 306.528C293.015 293.849 274.539 270.088 270.588 244.516C269.84 239.65 269.555 234.678 269.306 229.848C268.772 219.868 268.238 210.42 263.574 202.855C257.095 192.307 241.645 187.903 230.574 193.408C227.904 194.722 224.628 193.656 223.311 190.993C221.994 188.329 223.062 185.061 225.732 183.747C241.823 175.756 263.396 181.9 272.795 197.208C278.882 207.117 279.523 218.376 280.093 229.279C280.342 234.039 280.591 238.514 281.267 242.882C284.721 265.045 300.918 285.715 323.56 296.832C349.049 309.369 376.496 308.268 395.079 305.143C398.034 304.646 400.81 306.635 401.309 309.582C401.807 312.53 399.814 315.301 396.859 315.798C389.454 317.041 380.697 318 371.192 318H371.227Z" fill="url(#paint42_radial_1_10720)"/>
<g filter="url(#filter0_d_1_10720)">
<path d="M77.153 138.602C77.153 138.602 59.9641 142.643 48.6117 150.917L84.5288 183.819L44.9558 249.817C54.4482 239.106 67.9813 234.167 83.0537 232.756L92.1612 212.296L93.5081 232.307C138.148 232.628 190.356 258.027 190.356 258.027L178.683 135.652C113.583 102.236 32 135.652 32 135.652L39.8248 142.835C49.0607 140.783 64.7744 137.832 77.153 138.602Z" fill="url(#paint43_radial_1_10720)"/>
<path d="M78.6286 140.142C78.6286 140.142 61.4397 144.182 50.0873 152.456L86.0045 185.359L46.4314 251.357C55.9238 240.646 69.4569 235.707 84.5293 234.296L93.6369 213.836L94.9838 233.847C139.624 234.168 191.832 259.566 191.832 259.566L180.159 137.191C115.059 103.776 33.4756 137.191 33.4756 137.191L41.3004 144.375C50.5362 142.322 66.25 139.372 78.6286 140.142Z" fill="url(#paint44_linear_1_10720)"/>
<path d="M121.664 220.763L191.767 259.567V213.836L121.664 220.763Z" fill="url(#paint45_radial_1_10720)"/>
<path d="M686.013 149.698C686.013 149.698 703.202 153.739 714.554 162.013L678.637 194.915L718.21 260.913C708.718 250.202 695.185 245.263 680.112 243.852L671.005 223.392L669.658 243.403C625.018 243.724 572.81 269.123 572.81 269.123L584.483 146.748C649.583 113.332 731.166 146.748 731.166 146.748L723.341 153.931C714.105 151.879 698.391 148.928 686.013 149.698Z" fill="url(#paint46_radial_1_10720)"/>
<path d="M685.564 150.019C685.564 150.019 702.753 154.06 714.106 162.334L678.189 195.236L717.762 261.234C708.269 250.523 694.736 245.584 679.664 244.173L670.556 223.713L669.209 243.724C624.569 244.045 572.361 269.444 572.361 269.444L584.034 147.069C649.134 113.653 730.718 147.069 730.718 147.069L722.893 154.252C713.657 152.2 697.943 149.249 685.564 150.019Z" fill="url(#paint47_linear_1_10720)"/>
<path d="M642.59 230.641L572.423 269.444V223.714L642.59 230.641Z" fill="url(#paint48_radial_1_10720)"/>
<path d="M246.669 208.576C253.98 208.448 260.266 213.9 264.499 218.903L599.555 226.086C601.543 221.853 604.301 218.839 608.021 219.929C610.715 220.698 613.28 223.2 615.653 226.407L642.206 226.984L656.958 113.204L488.468 110.959C486.8 116.667 484.556 122.183 480.707 121.221C476.538 120.13 470.766 115.064 466.405 110.638L184.134 106.854C181.761 113.973 178.169 121.028 173.295 121.221C167.779 121.413 159.313 113.46 152.899 106.469L109.927 105.892L121.6 215.888L230.955 218.197C235.573 213.066 241.089 208.641 246.604 208.576H246.669Z" fill="url(#paint49_radial_1_10720)"/>
<path d="M246.669 213.515C253.98 213.387 260.266 218.839 264.499 223.842L599.555 231.025C601.543 226.792 604.301 223.777 608.021 224.868C610.715 225.637 613.28 228.139 615.653 231.346L642.206 231.923L656.958 118.143L488.468 115.898C486.801 121.606 484.556 127.122 480.707 126.16C476.538 125.069 470.766 120.003 466.405 115.577L184.134 111.793C181.761 118.912 178.169 125.967 173.295 126.16C167.779 126.352 159.313 118.399 152.899 111.408L109.927 110.831L121.6 220.827L230.955 223.136C235.573 218.005 241.089 213.58 246.605 213.515H246.669Z" fill="url(#paint50_radial_1_10720)"/>
<path d="M246.669 211.784C253.98 211.655 260.266 217.107 264.499 222.11L599.555 229.293C601.543 225.06 604.301 222.046 608.021 223.136C610.715 223.906 613.28 226.407 615.653 229.614L642.206 230.191L656.958 116.411L488.468 114.166C486.801 119.874 484.556 125.39 480.707 124.428C476.538 123.337 470.766 118.271 466.405 113.845L184.134 110.061C181.761 117.18 178.169 124.235 173.295 124.428C167.779 124.62 159.313 116.667 152.899 109.676L109.927 109.099L121.6 219.095L230.955 221.404C235.573 216.273 241.089 211.848 246.605 211.784H246.669Z" fill="url(#paint51_radial_1_10720)"/>
<path d="M480.774 124.428C476.605 123.338 470.833 118.271 466.471 113.845L369.623 112.562L424.14 225.573L599.557 229.357C601.545 225.124 604.303 222.11 608.023 223.2C610.717 223.97 613.283 226.471 615.656 229.678L642.209 230.255L656.96 116.475L488.47 114.23C486.803 119.938 484.558 125.454 480.71 124.492L480.774 124.428Z" fill="url(#paint52_radial_1_10720)"/>
<g filter="url(#filter1_d_1_10720)">
<path d="M293.271 196.864L292.859 141.674C292.85 140.479 293.062 139.377 293.495 138.367C293.991 137.357 294.613 136.503 295.363 135.806C296.112 135.045 296.988 134.473 297.992 134.088C298.995 133.64 299.999 133.413 301.006 133.405L338.836 133.123C339.465 133.118 340.033 133.366 340.54 133.865C341.047 134.364 341.303 134.929 341.308 135.558L341.382 145.558C341.387 146.25 341.14 146.786 340.639 147.167C340.202 147.611 339.638 147.835 338.946 147.84L304.983 148.094C306.367 148.083 307.566 148.577 308.58 149.576C309.656 150.575 310.2 151.766 310.21 153.149L310.27 161.168L332.912 160.999C334.547 160.987 335.371 161.799 335.383 163.434L335.457 173.34C335.462 174.095 335.247 174.694 334.81 175.137C334.372 175.518 333.776 175.711 333.022 175.717L305.191 175.924C306.449 175.915 307.616 176.378 308.692 177.313C309.831 178.248 310.406 179.439 310.417 180.886L310.535 196.735C310.54 197.427 310.324 197.994 309.887 198.438C309.513 198.881 308.949 199.105 308.194 199.111L295.647 199.205C294.955 199.21 294.387 198.994 293.944 198.557C293.5 198.12 293.276 197.555 293.271 196.864ZM346.598 198.542C346.217 198.041 346.024 197.571 346.021 197.131C346.018 196.691 346.047 196.407 346.109 196.281L367.548 135.928C368.226 134.099 369.477 133.178 371.301 133.164L385.924 133.055C387.748 133.041 389.012 133.944 389.718 135.763L412.054 195.789C412.118 195.915 412.151 196.197 412.154 196.638C412.158 197.141 411.942 197.614 411.505 198.058C411.13 198.438 410.691 198.63 410.188 198.634L398.018 198.724C396.446 198.736 395.371 198.052 394.795 196.673L389.79 183.407C387.532 184.305 385.242 185.045 382.919 185.628C380.596 186.212 378.335 186.669 376.137 187C374 187.267 371.989 187.471 370.103 187.611C368.217 187.688 366.582 187.731 365.198 187.742C364.317 187.748 363.563 187.754 362.934 187.759C362.368 187.763 361.927 187.735 361.612 187.674C362.746 187.854 363.662 188.477 364.362 189.541C365.125 190.604 365.229 191.861 364.673 193.312L363.379 196.907C362.824 198.295 361.759 198.995 360.187 199.006L348.017 199.097C347.577 199.1 347.104 198.915 346.598 198.542ZM370.38 174.212C372.14 174.073 373.963 173.839 375.847 173.51C377.481 173.247 379.176 172.888 380.934 172.435C382.754 171.918 384.479 171.213 386.107 170.32L378.688 149.62L370.38 174.212ZM464.853 194.641C465.793 194.131 466.798 193.872 467.867 193.864C468.747 193.857 469.535 194.04 470.23 194.412C470.987 194.721 471.524 195.063 471.841 195.438L476.036 201.35C476.228 201.726 476.325 202.04 476.326 202.292L476.329 202.575C476.332 203.078 476.115 203.488 475.677 203.806C475.302 204.123 474.895 204.284 474.454 204.287L461.53 204.383C460.775 204.389 460.05 204.174 459.355 203.739C459.102 203.552 458.849 203.334 458.595 203.084C458.405 202.834 458.182 202.553 457.928 202.24L455.07 198.488C453.375 198.878 451.93 199.109 450.735 199.18C449.541 199.252 448.189 199.294 446.679 199.305C442.528 199.336 438.688 198.861 435.158 197.881C431.629 196.901 428.567 195.383 425.973 193.327C423.442 191.27 421.409 188.644 419.876 185.447C418.343 182.251 417.496 178.42 417.337 173.956C417.268 173.076 417.228 171.975 417.218 170.655C417.208 169.334 417.196 167.73 417.182 165.843C417.169 164.082 417.158 162.541 417.148 161.22C417.138 159.837 417.16 158.673 417.216 157.729C417.31 153.388 418.099 149.609 419.585 146.39C421.07 143.108 423.094 140.388 425.656 138.231C428.219 136.073 431.226 134.447 434.677 133.352C438.191 132.256 442.024 131.693 446.175 131.662C450.326 131.631 454.167 132.137 457.697 133.18C461.227 134.223 464.289 135.804 466.884 137.923C469.478 140.043 471.542 142.732 473.076 145.991C474.61 149.187 475.455 152.955 475.614 157.294C475.69 159.117 475.733 160.721 475.744 162.104C475.816 163.425 475.856 164.525 475.863 165.406C475.882 168.047 475.809 170.815 475.642 173.71C475.474 176.541 475.023 179.281 474.288 181.928C473.615 184.512 472.532 186.942 471.04 189.217C469.547 191.429 467.485 193.237 464.853 194.641ZM457.428 173.091C457.478 171.329 457.498 169.788 457.488 168.467C457.541 167.146 457.564 166.077 457.558 165.259C457.553 164.504 457.514 163.498 457.442 162.241C457.432 160.983 457.389 159.474 457.313 157.713C457.225 154.254 456.291 151.4 454.514 149.149C452.798 146.834 450.053 145.691 446.28 145.719C442.569 145.747 439.842 146.931 438.098 149.271C436.417 151.548 435.558 154.416 435.521 157.876C435.464 158.757 435.441 159.826 435.45 161.084C435.46 162.342 435.47 163.788 435.483 165.424C435.496 167.185 435.507 168.726 435.517 170.046C435.526 171.304 435.566 172.373 435.635 173.253C435.724 176.775 436.627 179.662 438.342 181.913C440.119 184.101 442.863 185.181 446.574 185.154C450.347 185.126 453.075 184.005 454.757 181.791C456.502 179.576 457.392 176.676 457.428 173.091Z" fill="white"/>
</g>
</g>
<path d="M414.884 94.4628C417.177 91.3615 419.959 88.6007 423.118 86.4072C432.329 80.0156 444.586 78.3516 455.114 82.0957C463.611 85.0835 471.319 91.5885 476.883 100.4C481.32 107.435 484.441 115.793 486.772 126.647C487.073 128.16 486.133 129.635 484.666 129.938C483.162 130.24 481.696 129.295 481.395 127.82C479.252 117.646 476.319 109.855 472.259 103.388C467.371 95.6352 460.641 89.9244 453.347 87.3148C444.436 84.1758 434.096 85.5751 426.313 90.9455C418.531 96.3538 413.568 105.582 413.342 115.075C413.267 118.251 413.718 124.113 417.591 128.047C420.035 130.543 423.682 131.753 426.877 131.11C430.073 130.467 432.856 127.82 433.42 124.794C434.021 121.769 432.292 118.365 429.622 117.268C428.231 116.701 427.554 115.075 428.118 113.637C428.682 112.2 430.299 111.557 431.728 112.125C436.803 114.205 439.962 120.256 438.871 125.853C437.856 131.072 433.382 135.459 428.005 136.556C423.005 137.577 417.515 135.8 413.756 131.98C409.808 128.009 407.74 121.958 407.928 114.961C408.116 107.586 410.71 100.363 415.034 94.4249L414.884 94.4628Z" fill="url(#paint53_radial_1_10720)"/>
<path d="M417.791 12.992C421.598 13.4457 425.368 14.5044 428.835 16.2059C438.938 21.0836 446.439 30.9901 448.437 42.0309C450.057 50.9165 448.248 60.8987 443.385 70.1246C439.465 77.4978 433.811 84.3794 425.556 91.7526C424.425 92.7735 422.653 92.66 421.636 91.5257C420.618 90.3914 420.731 88.6143 421.862 87.5933C429.627 80.6739 434.904 74.2838 438.485 67.5156C442.782 59.3862 444.366 50.6897 443.009 43.014C441.312 33.6747 434.98 25.3184 426.423 21.197C417.904 17.0756 407.425 17.3402 399.094 21.8398C396.305 23.3522 391.443 26.6418 389.972 31.9732C389.03 35.3762 389.784 39.1195 391.932 41.5772C394.081 44.0727 397.737 45.1314 400.678 44.1483C403.618 43.1653 405.691 39.9891 405.314 37.1155C405.126 35.603 406.181 34.204 407.689 34.015C409.197 33.8259 410.591 34.8846 410.78 36.3971C411.496 41.8797 407.84 47.5892 402.449 49.4041C397.436 51.1056 391.405 49.4041 387.786 45.2071C384.431 41.3125 383.225 35.6787 384.695 30.4607C386.203 25.0537 390.387 20.2517 396.531 16.9243C403.015 13.4457 410.554 12.0845 417.829 12.992H417.791Z" fill="url(#paint54_radial_1_10720)"/>
<defs>
<filter id="filter0_d_1_10720" x="0.764895" y="105.892" width="763.047" height="229.871" filterUnits="userSpaceOnUse" color-interpolation-filters="sRGB">
<feFlood flood-opacity="0" result="BackgroundImageFix"/>
<feColorMatrix in="SourceAlpha" type="matrix" values="0 0 0 0 0 0 0 0 0 0 0 0 0 0 0 0 0 0 127 0" result="hardAlpha"/>
<feOffset dx="0.705516" dy="34.3779"/>
<feGaussianBlur stdDeviation="15.9703"/>
<feColorMatrix type="matrix" values="0 0 0 0 0.015983 0 0 0 0 0.179167 0 0 0 0 0.0104514 0 0 0 1 0"/>
<feBlend mode="normal" in2="BackgroundImageFix" result="effect1_dropShadow_1_10720"/>
<feBlend mode="normal" in="SourceGraphic" in2="effect1_dropShadow_1_10720" result="shape"/>
</filter>
<filter id="filter1_d_1_10720" x="292.793" y="131.441" width="183.548" height="80.0925" filterUnits="userSpaceOnUse" color-interpolation-filters="sRGB">
<feFlood flood-opacity="0" result="BackgroundImageFix"/>
<feColorMatrix in="SourceAlpha" type="matrix" values="0 0 0 0 0 0 0 0 0 0 0 0 0 0 0 0 0 0 127 0" result="hardAlpha"/>
<feOffset dy="5.8965"/>
<feComposite in2="hardAlpha" operator="out"/>
<feColorMatrix type="matrix" values="0 0 0 0 0.105882 0 0 0 0 0.372549 0 0 0 0 0 0 0 0 1 0"/>
<feBlend mode="normal" in2="BackgroundImageFix" result="effect1_dropShadow_1_10720"/>
<feBlend mode="normal" in="SourceGraphic" in2="effect1_dropShadow_1_10720" result="shape"/>
</filter>
<radialGradient id="paint0_radial_1_10720" cx="0" cy="0" r="1" gradientUnits="userSpaceOnUse" gradientTransform="translate(290.434 53.6053) rotate(-26.76) scale(122.696 122.696)">
<stop stop-color="#47CD00"/>
<stop offset="1" stop-color="#058B00"/>
</radialGradient>
<radialGradient id="paint1_radial_1_10720" cx="0" cy="0" r="1" gradientUnits="userSpaceOnUse" gradientTransform="translate(360.658 21.786) rotate(-26.76) scale(115.64 115.64)">
<stop stop-color="#73D914"/>
<stop offset="1" stop-color="#41A705"/>
</radialGradient>
<radialGradient id="paint2_radial_1_10720" cx="0" cy="0" r="1" gradientUnits="userSpaceOnUse" gradientTransform="translate(380.592 123.142) rotate(-26.76) scale(98.5798 98.5798)">
<stop stop-color="#73D914"/>
<stop offset="1" stop-color="#41A705"/>
</radialGradient>
<radialGradient id="paint3_radial_1_10720" cx="0" cy="0" r="1" gradientUnits="userSpaceOnUse" gradientTransform="translate(278.548 53.1777) rotate(-25.73) scale(107.055 111.38)">
<stop stop-color="#ADF222"/>
<stop offset="1" stop-color="#6BD909"/>
</radialGradient>
<radialGradient id="paint4_radial_1_10720" cx="0" cy="0" r="1" gradientUnits="userSpaceOnUse" gradientTransform="translate(284.215 55.9501) rotate(-26.76) scale(108.136 108.136)">
<stop stop-color="#47CD00"/>
<stop offset="1" stop-color="#058B00"/>
</radialGradient>
<radialGradient id="paint5_radial_1_10720" cx="0" cy="0" r="1" gradientUnits="userSpaceOnUse" gradientTransform="translate(420.017 -24.5962) rotate(-26.76) scale(102.749 102.749)">
<stop stop-color="#73D914"/>
<stop offset="1" stop-color="#41A705"/>
</radialGradient>
<radialGradient id="paint6_radial_1_10720" cx="0" cy="0" r="1" gradientUnits="userSpaceOnUse" gradientTransform="translate(339.561 26.2463) rotate(-26.76) scale(49.8992 49.8992)">
<stop stop-color="#47CD00"/>
<stop offset="1" stop-color="#058B00"/>
</radialGradient>
<radialGradient id="paint7_radial_1_10720" cx="0" cy="0" r="1" gradientUnits="userSpaceOnUse" gradientTransform="translate(304.128 66.3801) rotate(-26.76) scale(63.4964 63.4964)">
<stop stop-color="#47CD00"/>
<stop offset="1" stop-color="#058B00"/>
</radialGradient>
<radialGradient id="paint8_radial_1_10720" cx="0" cy="0" r="1" gradientUnits="userSpaceOnUse" gradientTransform="translate(349.751 137.905) rotate(-26.76) scale(19.4338 19.4338)">
<stop stop-color="#ADF222"/>
<stop offset="1" stop-color="#6BD909"/>
</radialGradient>
<radialGradient id="paint9_radial_1_10720" cx="0" cy="0" r="1" gradientUnits="userSpaceOnUse" gradientTransform="translate(308.409 101.071) rotate(-9.69) scale(85.8164 85.8164)">
<stop stop-color="#0BBD00"/>
<stop offset="0.13" stop-color="#00B100"/>
<stop offset="1" stop-color="#006500"/>
</radialGradient>
<radialGradient id="paint10_radial_1_10720" cx="0" cy="0" r="1" gradientUnits="userSpaceOnUse" gradientTransform="translate(265.104 5.59639) rotate(-9.69) scale(119.296 119.296)">
<stop stop-color="#ADF222"/>
<stop offset="1" stop-color="#6BD909"/>
</radialGradient>
<radialGradient id="paint11_radial_1_10720" cx="0" cy="0" r="1" gradientUnits="userSpaceOnUse" gradientTransform="translate(380.099 151.293) rotate(-9.69002) scale(13.982 13.9821)">
<stop stop-color="#73D914"/>
<stop offset="1" stop-color="#41A705"/>
</radialGradient>
<radialGradient id="paint12_radial_1_10720" cx="0" cy="0" r="1" gradientUnits="userSpaceOnUse" gradientTransform="translate(265.449 7.61996) rotate(-9.69) scale(119.296 119.296)">
<stop stop-color="#73D914"/>
<stop offset="1" stop-color="#41A705"/>
</radialGradient>
<radialGradient id="paint13_radial_1_10720" cx="0" cy="0" r="1" gradientUnits="userSpaceOnUse" gradientTransform="translate(222.697 184.026) rotate(-9.69) scale(99.7343 99.7342)">
<stop stop-color="#47CD00"/>
<stop offset="1" stop-color="#058B00"/>
</radialGradient>
<radialGradient id="paint14_radial_1_10720" cx="0" cy="0" r="1" gradientUnits="userSpaceOnUse" gradientTransform="translate(553.592 50.0366) rotate(10.16) scale(74.6564 74.6564)">
<stop stop-color="#47CD00"/>
<stop offset="1" stop-color="#058B00"/>
</radialGradient>
<radialGradient id="paint15_radial_1_10720" cx="0" cy="0" r="1" gradientUnits="userSpaceOnUse" gradientTransform="translate(599.391 60.2641) rotate(10.16) scale(70.3591 70.3592)">
<stop stop-color="#73D914"/>
<stop offset="1" stop-color="#41A705"/>
</radialGradient>
<radialGradient id="paint16_radial_1_10720" cx="0" cy="0" r="1" gradientUnits="userSpaceOnUse" gradientTransform="translate(572.057 116.811) rotate(10.16) scale(60.0329 60.033)">
<stop stop-color="#73D914"/>
<stop offset="1" stop-color="#41A705"/>
</radialGradient>
<radialGradient id="paint17_radial_1_10720" cx="0" cy="0" r="1" gradientUnits="userSpaceOnUse" gradientTransform="translate(551.9 45.9937) rotate(11.19) scale(65.1473 67.7795)">
<stop stop-color="#ADF222"/>
<stop offset="1" stop-color="#6BD909"/>
</radialGradient>
<radialGradient id="paint18_radial_1_10720" cx="0" cy="0" r="1" gradientUnits="userSpaceOnUse" gradientTransform="translate(549.747 48.9564) rotate(10.16) scale(65.8054 65.8054)">
<stop stop-color="#47CD00"/>
<stop offset="1" stop-color="#058B00"/>
</radialGradient>
<radialGradient id="paint19_radial_1_10720" cx="0" cy="0" r="1" gradientUnits="userSpaceOnUse" gradientTransform="translate(645.218 59.4196) rotate(10.16) scale(62.5343 62.5343)">
<stop stop-color="#73D914"/>
<stop offset="1" stop-color="#41A705"/>
</radialGradient>
<radialGradient id="paint20_radial_1_10720" cx="0" cy="0" r="1" gradientUnits="userSpaceOnUse" gradientTransform="translate(587.48 54.7411) rotate(10.16) scale(30.4013 30.4013)">
<stop stop-color="#47CD00"/>
<stop offset="1" stop-color="#058B00"/>
</radialGradient>
<radialGradient id="paint21_radial_1_10720" cx="0" cy="0" r="1" gradientUnits="userSpaceOnUse" gradientTransform="translate(555.617 61.2818) rotate(10.16) scale(38.6751 38.6751)">
<stop stop-color="#47CD00"/>
<stop offset="1" stop-color="#058B00"/>
</radialGradient>
<radialGradient id="paint22_radial_1_10720" cx="0" cy="0" r="1" gradientUnits="userSpaceOnUse" gradientTransform="translate(551.667 112.766) rotate(10.1599) scale(11.8015 11.8014)">
<stop stop-color="#ADF222"/>
<stop offset="1" stop-color="#6BD909"/>
</radialGradient>
<radialGradient id="paint23_radial_1_10720" cx="0" cy="0" r="1" gradientUnits="userSpaceOnUse" gradientTransform="translate(545.045 79.9309) rotate(27.23) scale(52.2082 52.2082)">
<stop stop-color="#0BBD00"/>
<stop offset="0.13" stop-color="#00B100"/>
<stop offset="1" stop-color="#006500"/>
</radialGradient>
<radialGradient id="paint24_radial_1_10720" cx="0" cy="0" r="1" gradientUnits="userSpaceOnUse" gradientTransform="translate(558.877 17.5859) rotate(27.23) scale(72.604 72.604)">
<stop stop-color="#ADF222"/>
<stop offset="1" stop-color="#6BD909"/>
</radialGradient>
<radialGradient id="paint25_radial_1_10720" cx="0" cy="0" r="1" gradientUnits="userSpaceOnUse" gradientTransform="translate(561.553 130.552) rotate(27.23) scale(8.53033 8.53032)">
<stop stop-color="#73D914"/>
<stop offset="1" stop-color="#41A705"/>
</radialGradient>
<radialGradient id="paint26_radial_1_10720" cx="0" cy="0" r="1" gradientUnits="userSpaceOnUse" gradientTransform="translate(558.289 18.7275) rotate(27.23) scale(72.604)">
<stop stop-color="#73D914"/>
<stop offset="1" stop-color="#41A705"/>
</radialGradient>
<radialGradient id="paint27_radial_1_10720" cx="0" cy="0" r="1" gradientUnits="userSpaceOnUse" gradientTransform="translate(472.971 88.933) rotate(27.23) scale(60.6744 60.6744)">
<stop stop-color="#47CD00"/>
<stop offset="1" stop-color="#058B00"/>
</radialGradient>
<radialGradient id="paint28_radial_1_10720" cx="0" cy="0" r="1" gradientUnits="userSpaceOnUse" gradientTransform="translate(123.108 85.5507) rotate(10.16) scale(74.6564 74.6564)">
<stop stop-color="#47CD00"/>
<stop offset="1" stop-color="#058B00"/>
</radialGradient>
<radialGradient id="paint29_radial_1_10720" cx="0" cy="0" r="1" gradientUnits="userSpaceOnUse" gradientTransform="translate(168.908 95.7781) rotate(10.16) scale(70.3591 70.3592)">
<stop stop-color="#73D914"/>
<stop offset="1" stop-color="#41A705"/>
</radialGradient>
<radialGradient id="paint30_radial_1_10720" cx="0" cy="0" r="1" gradientUnits="userSpaceOnUse" gradientTransform="translate(141.571 152.325) rotate(10.16) scale(60.033 60.033)">
<stop stop-color="#73D914"/>
<stop offset="1" stop-color="#41A705"/>
</radialGradient>
<radialGradient id="paint31_radial_1_10720" cx="0" cy="0" r="1" gradientUnits="userSpaceOnUse" gradientTransform="translate(122.145 81.5195) rotate(11.19) scale(65.1473 67.7796)">
<stop stop-color="#ADF222"/>
<stop offset="1" stop-color="#6BD909"/>
</radialGradient>
<radialGradient id="paint32_radial_1_10720" cx="0" cy="0" r="1" gradientUnits="userSpaceOnUse" gradientTransform="translate(119.273 84.4074) rotate(10.16) scale(65.8054 65.8054)">
<stop stop-color="#47CD00"/>
<stop offset="1" stop-color="#058B00"/>
</radialGradient>
<radialGradient id="paint33_radial_1_10720" cx="0" cy="0" r="1" gradientUnits="userSpaceOnUse" gradientTransform="translate(214.745 94.8706) rotate(10.16) scale(62.5344 62.5344)">
<stop stop-color="#73D914"/>
<stop offset="1" stop-color="#41A705"/>
</radialGradient>
<radialGradient id="paint34_radial_1_10720" cx="0" cy="0" r="1" gradientUnits="userSpaceOnUse" gradientTransform="translate(157.07 90.2034) rotate(10.16) scale(30.4013 30.4013)">
<stop stop-color="#47CD00"/>
<stop offset="1" stop-color="#058B00"/>
</radialGradient>
<radialGradient id="paint35_radial_1_10720" cx="0" cy="0" r="1" gradientUnits="userSpaceOnUse" gradientTransform="translate(125.133 96.7959) rotate(10.16) scale(38.6751 38.6751)">
<stop stop-color="#47CD00"/>
<stop offset="1" stop-color="#058B00"/>
</radialGradient>
<radialGradient id="paint36_radial_1_10720" cx="0" cy="0" r="1" gradientUnits="userSpaceOnUse" gradientTransform="translate(121.184 148.281) rotate(10.16) scale(11.8014 11.8014)">
<stop stop-color="#ADF222"/>
<stop offset="1" stop-color="#6BD909"/>
</radialGradient>
<radialGradient id="paint37_radial_1_10720" cx="0" cy="0" r="1" gradientUnits="userSpaceOnUse" gradientTransform="translate(114.559 115.41) rotate(27.23) scale(52.2082 52.2082)">
<stop stop-color="#0BBD00"/>
<stop offset="0.13" stop-color="#00B100"/>
<stop offset="1" stop-color="#006500"/>
</radialGradient>
<radialGradient id="paint38_radial_1_10720" cx="0" cy="0" r="1" gradientUnits="userSpaceOnUse" gradientTransform="translate(128.419 53.151) rotate(27.23) scale(72.604 72.604)">
<stop stop-color="#ADF222"/>
<stop offset="1" stop-color="#6BD909"/>
</radialGradient>
<radialGradient id="paint39_radial_1_10720" cx="0" cy="0" r="1" gradientUnits="userSpaceOnUse" gradientTransform="translate(131.038 166.087) rotate(27.23) scale(8.53033 8.53032)">
<stop stop-color="#73D914"/>
<stop offset="1" stop-color="#41A705"/>
</radialGradient>
<radialGradient id="paint40_radial_1_10720" cx="0" cy="0" r="1" gradientUnits="userSpaceOnUse" gradientTransform="translate(127.83 54.2926) rotate(27.23) scale(72.604)">
<stop stop-color="#73D914"/>
<stop offset="1" stop-color="#41A705"/>
</radialGradient>
<radialGradient id="paint41_radial_1_10720" cx="0" cy="0" r="1" gradientUnits="userSpaceOnUse" gradientTransform="translate(42.5384 124.441) rotate(27.23) scale(60.6743 60.6744)">
<stop stop-color="#47CD00"/>
<stop offset="1" stop-color="#058B00"/>
</radialGradient>
<radialGradient id="paint42_radial_1_10720" cx="0" cy="0" r="1" gradientUnits="userSpaceOnUse" gradientTransform="translate(172.724 193.585) scale(164.149 163.767)">
<stop stop-color="#ADF222"/>
<stop offset="1" stop-color="#6BD909"/>
</radialGradient>
<radialGradient id="paint43_radial_1_10720" cx="0" cy="0" r="1" gradientUnits="userSpaceOnUse" gradientTransform="translate(111.146 189.399) scale(74.0791 74.0792)">
<stop stop-color="#ADF222"/>
<stop offset="1" stop-color="#6BD909"/>
</radialGradient>
<linearGradient id="paint44_linear_1_10720" x1="33.4756" y1="190.939" x2="191.768" y2="190.939" gradientUnits="userSpaceOnUse">
<stop stop-color="#2FB605"/>
<stop offset="1" stop-color="#136501"/>
</linearGradient>
<radialGradient id="paint45_radial_1_10720" cx="0" cy="0" r="1" gradientUnits="userSpaceOnUse" gradientTransform="translate(218.897 270.611) scale(79.8516 35.1347)">
<stop stop-color="#2FB605"/>
<stop offset="1" stop-color="#136501"/>
</radialGradient>
<radialGradient id="paint46_radial_1_10720" cx="0" cy="0" r="1" gradientUnits="userSpaceOnUse" gradientTransform="translate(652.02 200.495) rotate(180) scale(74.0792 74.0791)">
<stop stop-color="#ADF222"/>
<stop offset="1" stop-color="#6BD909"/>
</radialGradient>
<linearGradient id="paint47_linear_1_10720" x1="730.782" y1="200.88" x2="572.425" y2="200.88" gradientUnits="userSpaceOnUse">
<stop stop-color="#2FB605"/>
<stop offset="1" stop-color="#136501"/>
</linearGradient>
<radialGradient id="paint48_radial_1_10720" cx="0" cy="0" r="1" gradientUnits="userSpaceOnUse" gradientTransform="translate(545.357 280.545) rotate(180) scale(79.8516 35.1347)">
<stop stop-color="#2FB605"/>
<stop offset="1" stop-color="#136501"/>
</radialGradient>
<radialGradient id="paint49_radial_1_10720" cx="0" cy="0" r="1" gradientUnits="userSpaceOnUse" gradientTransform="translate(324.147 52.7857) scale(249.111 249.111)">
<stop stop-color="#ADF222"/>
<stop offset="1" stop-color="#6BD909"/>
</radialGradient>
<radialGradient id="paint50_radial_1_10720" cx="0" cy="0" r="1" gradientUnits="userSpaceOnUse" gradientTransform="translate(324.147 57.7247) scale(249.111 249.111)">
<stop stop-color="#2FB605"/>
<stop offset="1" stop-color="#136501"/>
</radialGradient>
<radialGradient id="paint51_radial_1_10720" cx="0" cy="0" r="1" gradientUnits="userSpaceOnUse" gradientTransform="translate(128.131 159.8) rotate(23.4091) scale(135.272 647.183)">
<stop stop-color="#CDEE81"/>
<stop offset="0.16" stop-color="#C9EC77"/>
<stop offset="0.29" stop-color="#C5EA6C"/>
<stop offset="0.77" stop-color="#80B729"/>
</radialGradient>
<radialGradient id="paint52_radial_1_10720" cx="0" cy="0" r="1" gradientUnits="userSpaceOnUse" gradientTransform="translate(643.235 81.1991) scale(242.954 231.049)">
<stop stop-color="#C8EC74"/>
<stop offset="1" stop-color="#89BE32"/>
</radialGradient>
<radialGradient id="paint53_radial_1_10720" cx="0" cy="0" r="1" gradientUnits="userSpaceOnUse" gradientTransform="translate(397.534 129.231) rotate(126.359) scale(26.9097 26.8633)">
<stop stop-color="#ADF222"/>
<stop offset="1" stop-color="#6BD909"/>
</radialGradient>
<radialGradient id="paint54_radial_1_10720" cx="0" cy="0" r="1" gradientUnits="userSpaceOnUse" gradientTransform="translate(378.95 15.7714) rotate(-173.149) scale(26.8773 26.9582)">
<stop stop-color="#ADF222"/>
<stop offset="1" stop-color="#6BD909"/>
</radialGradient>
</defs>
</svg>
