<svg width="74" height="81" viewBox="0 0 74 81" fill="none" xmlns="http://www.w3.org/2000/svg">
<g filter="url(#filter0_d_1_2038)">
<g filter="url(#filter1_i_1_2038)">
<rect x="3.56042" y="3" width="67" height="67" rx="16.75" fill="url(#paint0_linear_1_2038)"/>
</g>
<rect x="3.56042" y="3" width="67" height="67" rx="16.75" stroke="#492319" stroke-width="6"/>
<g filter="url(#filter2_d_1_2038)">
<path fill-rule="evenodd" clip-rule="evenodd" d="M33.0042 21.1128C30.8355 22.1638 29.0613 23.0532 29.0617 23.0894C29.0626 23.1827 34.2665 25.6346 34.4512 25.6286C34.5352 25.626 35.1447 25.365 35.8056 25.0487L37.0074 24.4736L39.6322 25.729L41.7815 24.8305C45.0201 23.4766 45.3565 23.3282 45.3037 23.2784C45.2338 23.2122 44.0722 22.6317 40.9206 21.0881C39.3975 20.342 37.9193 19.6106 37.6355 19.4626C37.3517 19.3145 37.0808 19.1955 37.0335 19.1978C36.9861 19.2001 35.1729 20.0619 33.0042 21.1128ZM23.4925 25.6952L21.2349 26.7801V31.5414C21.2349 34.1602 21.2646 36.3027 21.3009 36.3027C21.3371 36.3027 22.4479 35.8547 23.7691 35.3073L26.1714 34.3118V29.2931L27.3453 29.8881C28.2499 30.3462 29.1551 30.8034 30.0608 31.2596L31.6023 32.0361L32.2882 31.7475C32.7184 31.5663 33.1477 31.3832 33.5761 31.1984C33.9072 31.055 34.7199 30.7144 35.3821 30.4415C36.0443 30.1684 36.6573 29.8939 36.7442 29.8313C36.8597 29.7482 35.4518 29.0243 31.5366 27.1539C28.5855 25.7439 26.0762 24.5949 25.9605 24.6004C25.8447 24.6059 24.7341 25.0985 23.4925 25.6952ZM45.7106 25.9999C44.1731 26.6457 42.914 27.1998 42.9126 27.2314C42.9112 27.263 43.7492 27.7265 44.7749 28.2614C45.8005 28.7964 46.6397 29.2627 46.6397 29.2978C46.6397 29.3328 45.7321 29.742 44.623 30.2071C43.5137 30.6722 40.7099 31.8502 38.3922 32.8249L30.6263 36.0907C28.6728 36.9123 26.9119 37.6528 26.7132 37.7366C22.7231 39.417 21.6263 39.8833 21.4757 39.9634C21.3243 40.044 21.29 40.5121 21.263 42.8619L21.2308 45.6645L25.2684 47.5784L28.0677 46.4031C29.6074 45.7567 30.8671 45.1939 30.8671 45.1525C30.8671 45.1112 30.5826 44.9387 30.235 44.7691C29.8872 44.5995 29.1694 44.224 28.6396 43.9345C28.1099 43.645 27.5817 43.3794 27.4657 43.3442C27.3498 43.3091 27.2566 43.2476 27.2585 43.2076C27.2604 43.1676 28.4931 42.6229 29.9977 41.9969C32.9199 40.7814 35.1563 39.8445 39.9574 37.8246C42.1043 36.9216 44.2515 36.0191 46.3989 35.1171C48.2862 34.3246 50.4805 33.399 51.2752 33.0602L52.72 32.4443L52.7845 26.7754L50.7369 25.7977C49.6107 25.2599 48.648 24.8213 48.5976 24.8229C48.5471 24.8244 47.248 25.354 45.7106 25.9999ZM52.1715 36.2256C51.8697 36.3628 51.2737 36.6195 50.8471 36.7961C50.4204 36.9727 49.6107 37.3126 49.0478 37.5515L48.0243 37.9858L48.001 40.4742C47.9881 41.8428 47.9339 42.9565 47.8806 42.9493C47.7595 42.9326 45.8414 42.0174 43.9132 41.0562C42.5216 40.3625 42.4342 40.3349 42.1072 40.4856C41.9182 40.5728 40.7882 41.0442 39.5962 41.5335C38.4042 42.0227 37.3901 42.4549 37.3424 42.494C37.2948 42.5331 39.6939 43.7428 42.6737 45.1823L48.0914 47.7997L50.4058 46.6859C51.6786 46.0734 52.7609 45.5147 52.8107 45.4444C52.9229 45.2864 52.9133 35.9547 52.801 35.9673C52.7565 35.9722 52.4732 36.0885 52.1715 36.2256ZM39.3554 47.1787C38.954 47.3393 38.5526 47.5001 38.1514 47.6611C36.9398 48.1488 37.1772 48.165 35.7358 47.4974C34.7757 47.0527 34.3619 46.9156 34.1822 46.9822C34.0475 47.0321 32.8879 47.5174 31.6051 48.0607C30.3225 48.604 29.2285 49.0484 29.1741 49.0484C28.6359 49.0484 29.5306 49.5457 32.983 51.166L37.0319 53.0659L38.7355 52.2834C39.6724 51.8531 41.5623 50.9913 42.9352 50.3684C44.308 49.7453 45.4143 49.2194 45.3936 49.1996C45.3727 49.1798 44.2224 48.6303 42.8372 47.9784L40.3187 46.7933L39.3554 47.1787Z" fill="white"/>
</g>
</g>
<defs>
<filter id="filter0_d_1_2038" x="0.560425" y="0" width="73" height="81" filterUnits="userSpaceOnUse" color-interpolation-filters="sRGB">
<feFlood flood-opacity="0" result="BackgroundImageFix"/>
<feColorMatrix in="SourceAlpha" type="matrix" values="0 0 0 0 0 0 0 0 0 0 0 0 0 0 0 0 0 0 127 0" result="hardAlpha"/>
<feOffset dy="8"/>
<feComposite in2="hardAlpha" operator="out"/>
<feColorMatrix type="matrix" values="0 0 0 0 0.286275 0 0 0 0 0.137255 0 0 0 0 0.0980392 0 0 0 1 0"/>
<feBlend mode="normal" in2="BackgroundImageFix" result="effect1_dropShadow_1_2038"/>
<feBlend mode="normal" in="SourceGraphic" in2="effect1_dropShadow_1_2038" result="shape"/>
</filter>
<filter id="filter1_i_1_2038" x="0.560425" y="0" width="73" height="73" filterUnits="userSpaceOnUse" color-interpolation-filters="sRGB">
<feFlood flood-opacity="0" result="BackgroundImageFix"/>
<feBlend mode="normal" in="SourceGraphic" in2="BackgroundImageFix" result="shape"/>
<feColorMatrix in="SourceAlpha" type="matrix" values="0 0 0 0 0 0 0 0 0 0 0 0 0 0 0 0 0 0 127 0" result="hardAlpha"/>
<feOffset dy="11"/>
<feComposite in2="hardAlpha" operator="arithmetic" k2="-1" k3="1"/>
<feColorMatrix type="matrix" values="0 0 0 0 0.960784 0 0 0 0 0.960784 0 0 0 0 0.960784 0 0 0 1 0"/>
<feBlend mode="normal" in2="shape" result="effect1_innerShadow_1_2038"/>
</filter>
<filter id="filter2_d_1_2038" x="21.2308" y="19.1978" width="31.6593" height="37.8682" filterUnits="userSpaceOnUse" color-interpolation-filters="sRGB">
<feFlood flood-opacity="0" result="BackgroundImageFix"/>
<feColorMatrix in="SourceAlpha" type="matrix" values="0 0 0 0 0 0 0 0 0 0 0 0 0 0 0 0 0 0 127 0" result="hardAlpha"/>
<feOffset dy="4"/>
<feComposite in2="hardAlpha" operator="out"/>
<feColorMatrix type="matrix" values="0 0 0 0 0.105882 0 0 0 0 0.372549 0 0 0 0 0 0 0 0 1 0"/>
<feBlend mode="normal" in2="BackgroundImageFix" result="effect1_dropShadow_1_2038"/>
<feBlend mode="normal" in="SourceGraphic" in2="effect1_dropShadow_1_2038" result="shape"/>
</filter>
<linearGradient id="paint0_linear_1_2038" x1="-8.00241" y1="-16.774" x2="-8.00241" y2="90.5216" gradientUnits="userSpaceOnUse">
<stop stop-color="#CDEE81"/>
<stop offset="0.16" stop-color="#C9EC77"/>
<stop offset="0.29" stop-color="#C5EA6C"/>
<stop offset="0.77" stop-color="#80B729"/>
</linearGradient>
</defs>
</svg>
