<svg width="71" height="71" viewBox="0 0 71 71" fill="none" xmlns="http://www.w3.org/2000/svg">
<path fill-rule="evenodd" clip-rule="evenodd" d="M58 0H13V13H0V58H13V71H58V58H71V13H58V0Z" fill="white"/>
<path d="M27.9199 22.6242C30.8746 19.7248 34.6031 19 36.0981 19V28.5385C34.9347 28.5385 34.3822 29.0827 34.2514 29.3548C28.7641 27.0767 25.9853 22.7105 25.2818 20.8121C25.915 21.6405 27.3044 22.3653 27.9199 22.6242Z" fill="#004AFF"/>
<path d="M44.0813 22.6242C41.1266 19.7248 37.3981 19 35.9031 19V28.5385C37.0665 28.5385 37.619 29.0827 37.7498 29.3548C43.2371 27.0767 46.0159 22.7105 46.7193 20.8121C46.0862 21.6405 44.6968 22.3653 44.0813 22.6242Z" fill="#004AFF"/>
<path d="M29.6349 28.6191C30.4671 29.2348 32.3401 30.5384 33.1747 30.8275C31.5855 31.316 28.6528 31.5583 29.6349 28.6191Z" fill="#004AFF"/>
<path d="M28.1416 27.3342C27.6178 26.9487 26.7094 25.7147 26.3207 25.1459C24.8096 26.6286 24.6454 29.5514 24.7522 30.8275C24.7522 40.4604 22.9174 44.9605 22 46.0064L25.8866 43.0925L28.5181 47.3567L31.5786 44.7456L36.013 52V49.6096L34.5531 44.7456C33.358 39.5751 29.6715 37.2742 27.9777 36.7701L31.5786 34.7625L31.7013 33.0961C26.8401 33.0961 27.3026 29.2548 28.1416 27.3342Z" fill="#004AFF"/>
<path d="M42.3651 28.6191C41.5329 29.2348 39.6599 30.5384 38.8253 30.8275C40.4144 31.316 43.3472 31.5583 42.3651 28.6191Z" fill="#004AFF"/>
<path d="M43.8584 27.3342C44.3822 26.9487 45.2906 25.7147 45.6793 25.1459C47.1904 26.6286 47.3546 29.5514 47.2478 30.8275C47.2478 40.4604 49.0826 44.9605 50 46.0064L46.1134 43.0925L43.4819 47.3567L40.4214 44.7456L35.987 52V49.6096L37.4469 44.7456C38.642 39.5751 42.3285 37.2742 44.0223 36.7701L40.4214 34.7625L40.2987 33.0961C45.1599 33.0961 44.6974 29.2548 43.8584 27.3342Z" fill="#004AFF"/>
<path d="M33.6321 33.5958C33.6321 31.6915 35.2868 30.7542 36.1141 30.5235V43.809C36.1141 40.3326 33.2184 37.6921 31.7705 36.8064L33.6321 35.6716V33.5958Z" fill="#004AFF"/>
<path d="M38.5912 33.5958C38.5912 31.6915 36.9365 30.7542 36.1092 30.5235V43.809C36.1092 40.3326 39.0049 37.6921 40.4528 36.8064L38.5912 35.6716V33.5958Z" fill="#004AFF"/>
</svg>
