<svg width="71" height="71" viewBox="0 0 71 71" fill="none" xmlns="http://www.w3.org/2000/svg">
<path fill-rule="evenodd" clip-rule="evenodd" d="M58 0H13V13H0V58H13V71H58V58H71V13H58V0Z" fill="white"/>
<path d="M50.0161 21.256C50.0161 21.256 53.2539 20.0007 52.984 23.0493C52.8941 24.3046 52.0847 28.6981 51.4551 33.4503L49.2966 47.5274C49.2966 47.5274 49.1168 49.5897 47.4979 49.9484C45.8789 50.307 43.4507 48.6931 43.0009 48.3344C42.6412 48.0654 36.2557 44.0305 34.0072 42.058C33.3776 41.52 32.6581 40.444 34.0971 39.1887L43.5406 30.2224C44.6199 29.1464 45.6991 26.6359 41.2022 29.6844L28.6109 38.2025C28.6109 38.2025 27.1719 39.0991 24.4738 38.2921L18.6279 36.4988C18.6279 36.4988 16.4693 35.1539 20.1568 33.8089C29.1506 29.5947 40.2129 25.2908 50.0161 21.256Z" fill="#004AFF"/>
</svg>
