<svg width="80" height="80" viewBox="0 0 80 80" fill="none" xmlns="http://www.w3.org/2000/svg">
<path d="M0.645161 17.1428C0.645161 8.03142 8.03142 0.645161 17.1429 0.645161H62.8571C71.9686 0.645161 79.3548 8.03143 79.3548 17.1429V62.8571C79.3548 71.9686 71.9686 79.3548 62.8571 79.3548H17.1428C8.03143 79.3548 0.645161 71.9686 0.645161 62.8571V17.1428Z" stroke="white" stroke-width="1.29032"/>
<path d="M40.0997 67.253L15.4947 32.1132H26.4301L51.0359 67.253H40.0997Z" fill="white"/>
<path d="M26.423 51.6303L15.4839 67.2532H26.4274L31.8946 59.4454L26.423 51.6303Z" fill="white"/>
<path d="M34.6268 39.9097L53.5368 12.9032H64.4801L40.0983 47.7239L34.6268 39.9097Z" fill="white"/>
<path d="M55.5186 29.6117V67.2521H64.483V16.8097L55.5186 29.6117Z" fill="white"/>
</svg>
