<svg width="53" height="53" viewBox="0 0 53 53" fill="none" xmlns="http://www.w3.org/2000/svg">
<path fill-rule="evenodd" clip-rule="evenodd" d="M22.3584 11.2188C20.3284 12.2882 18.6676 13.193 18.6679 13.2298C18.6688 13.3248 23.54 15.8195 23.7129 15.8134C23.7915 15.8108 24.3621 15.5452 24.9807 15.2233L26.1056 14.6382L28.5626 15.9155L30.5745 15.0013C33.606 13.6238 33.9209 13.4728 33.8715 13.4221C33.806 13.3548 32.7187 12.7641 29.7687 11.1936C28.343 10.4345 26.9592 9.6903 26.6935 9.5397C26.4279 9.3891 26.1743 9.26796 26.13 9.2703C26.0857 9.27265 24.3884 10.1495 22.3584 11.2188ZM13.4548 15.8812L11.3416 16.985V21.8295C11.3416 24.4939 11.3693 26.6738 11.4034 26.6738C11.4373 26.6738 12.477 26.2181 13.7138 25.661L15.9625 24.6483V19.5419L17.0613 20.1473C17.9081 20.6134 18.7554 21.0785 19.6031 21.5427L21.0461 22.3327L21.6881 22.0391C22.0908 21.8547 22.4927 21.6685 22.8937 21.4805C23.2037 21.3345 23.9644 20.988 24.5843 20.7103C25.2041 20.4325 25.7779 20.1531 25.8593 20.0895C25.9674 20.0049 24.6494 19.2684 20.9846 17.3653C18.2222 15.9308 15.8733 14.7616 15.765 14.7672C15.6567 14.7728 14.6171 15.274 13.4548 15.8812ZM34.2524 16.1912C32.8131 16.8482 31.6346 17.412 31.6332 17.4442C31.632 17.4763 32.4164 17.948 33.3765 18.4922C34.3366 19.0365 35.1221 19.5109 35.1221 19.5467C35.1221 19.5823 34.2725 19.9986 33.2343 20.4719C32.196 20.945 29.5714 22.1436 27.4019 23.1354L20.1325 26.4582C18.3039 27.2941 16.6556 28.0476 16.4696 28.1328C12.7346 29.8426 11.708 30.317 11.567 30.3985C11.4252 30.4804 11.3931 30.9568 11.3679 33.3476L11.3378 36.1991L15.1172 38.1465L17.7375 36.9506C19.1788 36.2929 20.3579 35.7204 20.3579 35.6782C20.3579 35.6361 20.0916 35.4607 19.7662 35.2881C19.4407 35.1155 18.7688 34.7335 18.2729 34.439C17.777 34.1444 17.2826 33.8742 17.174 33.8383C17.0655 33.8026 16.9783 33.7401 16.98 33.6993C16.9818 33.6586 18.1357 33.1044 19.5441 32.4675C22.2795 31.2308 24.3729 30.2775 28.867 28.2223C30.8767 27.3035 32.8865 26.3853 34.8967 25.4676C36.6633 24.6612 38.7173 23.7194 39.4612 23.3748L40.8137 22.7481L40.8739 16.9802L38.9573 15.9854C37.9031 15.4383 37.002 14.992 36.9548 14.9936C36.9076 14.9951 35.6915 15.534 34.2524 16.1912ZM40.3001 26.5955C40.0177 26.735 39.4598 26.9962 39.0604 27.1759C38.661 27.3556 37.9031 27.7014 37.3762 27.9445L36.4182 28.3864L36.3963 30.9182C36.3843 32.3107 36.3336 33.4439 36.2836 33.4365C36.1702 33.4195 34.3748 32.4883 32.5699 31.5103C31.2673 30.8046 31.1855 30.7765 30.8794 30.9298C30.7024 31.0185 29.6447 31.4982 28.5289 31.996C27.4131 32.4937 26.4639 32.9335 26.4192 32.9733C26.3747 33.013 28.6203 34.2438 31.4096 35.7085L36.481 38.3716L38.6474 37.2384C39.8388 36.6151 40.8519 36.0467 40.8985 35.9752C41.0035 35.8144 40.9945 26.3198 40.8894 26.3326C40.8478 26.3376 40.5826 26.456 40.3001 26.5955ZM28.3035 37.7398C27.9278 37.9032 27.5521 38.0668 27.1765 38.2306C26.0423 38.7268 26.2646 38.7432 24.9153 38.064C24.0166 37.6116 23.6292 37.472 23.4611 37.5398C23.335 37.5906 22.2495 38.0844 21.0488 38.6372C19.8481 39.1899 18.8241 39.6421 18.7732 39.6421C18.2694 39.6421 19.1069 40.1481 22.3386 41.7966L26.1286 43.7297L27.7232 42.9336C28.6003 42.4958 30.3693 41.6189 31.6544 40.9851C32.9395 40.3512 33.975 39.8161 33.9556 39.7959C33.9361 39.7758 32.8593 39.2167 31.5627 38.5534L29.2052 37.3476L28.3035 37.7398Z" fill="white"/>
<rect x="1" y="1" width="51" height="51" rx="12.4054" stroke="white"/>
</svg>
