<svg width="116" height="64" viewBox="0 0 116 64" fill="none" xmlns="http://www.w3.org/2000/svg">
<g filter="url(#filter0_b_0_7)">
<rect width="116" height="64" rx="20" fill="white"/>
<path d="M30.5109 44.32C29.7109 44.32 28.9749 44.288 28.2709 44.224C26.5749 44.096 26.0629 43.584 25.9669 41.888L24.9109 24.384C24.7509 21.92 25.4229 21.152 27.8229 20.64C29.7109 20.288 31.6629 20.064 33.6149 20.064C39.2469 20.064 43.5349 21.824 43.5349 25.216C43.5349 27.392 42.0629 28.96 39.5029 30.72C43.3749 31.072 46.0629 32.736 46.0629 36.128C46.0629 41.664 37.6149 44.32 30.5109 44.32ZM31.3109 25.344L31.7269 30.016C34.3829 29.92 36.5589 28.672 36.5589 27.008C36.5589 25.568 35.2789 24.832 33.4869 24.832C32.7509 24.832 31.9829 24.992 31.3109 25.344ZM32.3989 34.816L32.8469 39.072C35.7269 38.976 38.2869 37.92 38.2869 36.128C38.2869 34.752 37.0709 34.272 35.3109 34.272C34.2549 34.272 33.1669 34.464 32.3989 34.816ZM61.9769 27.328C61.9769 25.824 61.8809 24.384 61.7529 23.072C61.4969 20.8 61.9769 20.16 64.3449 20C66.5529 19.744 67.1609 20.384 67.4169 22.56C67.5449 24.032 67.6089 25.568 67.6089 27.168C67.6089 35.968 65.2729 45.312 57.6889 45.312C50.6809 45.312 47.3849 36.768 47.3849 26.816C47.3849 25.568 47.4809 24.128 47.6089 22.72C47.8649 20.256 48.5369 19.52 51.0969 19.872L52.0569 20C54.7449 20.256 55.0969 20.832 54.8409 23.456C54.7449 24.576 54.6809 25.664 54.6809 26.656C54.6809 32.544 55.7689 36.544 58.2649 36.544C61.0489 36.544 61.9769 32.736 61.9769 27.328ZM84.4471 33.888L84.5111 41.376C84.5111 43.968 83.9351 44.704 81.3431 44.864L79.8711 44.96C77.3431 45.12 76.6391 44.576 76.6391 42.048L76.5431 33.664L69.5671 24.544C68.0631 22.592 68.3191 21.792 70.6551 20.992L73.3431 20.064C75.8071 19.2 76.6711 19.552 77.9511 21.824L81.6311 28.384L85.3431 21.792C86.5271 19.648 87.3911 19.296 89.7911 20.224C92.0631 21.088 92.3191 21.888 91.0071 23.904L84.4471 33.888Z" fill="black"/>
</g>
<defs>
<filter id="filter0_b_0_7" x="-40" y="-40" width="196" height="144" filterUnits="userSpaceOnUse" color-interpolation-filters="sRGB">
<feFlood flood-opacity="0" result="BackgroundImageFix"/>
<feGaussianBlur in="BackgroundImageFix" stdDeviation="20"/>
<feComposite in2="SourceAlpha" operator="in" result="effect1_backgroundBlur_0_7"/>
<feBlend mode="normal" in="SourceGraphic" in2="effect1_backgroundBlur_0_7" result="shape"/>
</filter>
</defs>
</svg>
