<svg width="284" height="192" viewBox="0 0 284 192" fill="none" xmlns="http://www.w3.org/2000/svg">
<g filter="url(#filter0_d_1_2663)">
<path fill-rule="evenodd" clip-rule="evenodd" d="M45.6794 31C37.5514 31 30.9624 37.589 30.9624 45.717V146.283C30.9624 154.411 37.5514 161 45.6794 161H238.635C246.763 161 253.352 154.411 253.352 146.283V45.717C253.352 37.589 246.763 31 238.635 31H45.6794ZM125.608 69.7519C125.128 69.392 124.678 69.2121 124.258 69.2121H98.7101V55.7632C98.7101 55.3734 98.5452 54.9686 98.2153 54.5488C97.8855 54.099 97.4357 53.8741 96.8659 53.8741H85.9809C85.3811 53.8741 84.9164 54.099 84.5865 54.5488C84.2566 54.9686 84.0917 55.3734 84.0917 55.7632V69.2121H58.9931C58.5733 69.2121 58.1385 69.377 57.6887 69.7069C57.2389 70.0367 57.014 70.5165 57.014 71.1462V116.396C57.014 117.025 57.2389 117.505 57.6887 117.835C58.1385 118.165 58.5733 118.33 58.9931 118.33H84.0917V135.062C84.0917 135.452 84.2417 135.857 84.5415 136.277C84.8714 136.726 85.3362 136.951 85.9359 136.951H96.8659C97.4357 136.951 97.8855 136.726 98.2153 136.277C98.5452 135.857 98.7101 135.452 98.7101 135.062V118.33H124.258C124.678 118.33 125.128 118.165 125.608 117.835C126.118 117.475 126.373 116.995 126.373 116.396V71.1462C126.373 70.5465 126.118 70.0817 125.608 69.7519ZM98.7101 105.196V82.3462H111.754V105.196H98.7101ZM71.6324 82.3462H84.0917V105.196H71.6324V82.3462ZM201.129 99.7533C200.829 99.4834 200.514 99.3484 200.184 99.3484H193.482C193.122 99.3484 192.897 99.4984 192.807 99.7982C192.747 100.068 192.777 100.293 192.897 100.473L195.281 107.94C195.371 108.179 195.566 108.434 195.866 108.704C196.196 108.944 196.526 109.064 196.856 109.064H203.558C203.917 109.064 204.127 108.929 204.187 108.659C204.277 108.359 204.262 108.119 204.142 107.94L201.758 100.473C201.668 100.233 201.458 99.9931 201.129 99.7533ZM149.897 136.951H218.041C218.611 136.951 219.06 136.726 219.39 136.277C219.72 135.857 219.885 135.452 219.885 135.062V108.479V57.6973C219.885 57.2176 219.69 56.8127 219.3 56.4829C218.941 56.153 218.491 55.9881 217.951 55.9881H149.942C149.432 55.9881 148.982 56.153 148.592 56.4829C148.233 56.8127 148.053 57.2176 148.053 57.6973V108.389V135.062C148.053 135.452 148.218 135.857 148.547 136.277C148.877 136.726 149.327 136.951 149.897 136.951ZM206.706 123.817H161.232V68.7623H206.706V123.817ZM204.637 72.5856C204.157 72.2557 203.707 72.0908 203.288 72.0908H165.595C165.175 72.0908 164.74 72.2557 164.29 72.5856C163.841 72.9154 163.616 73.3952 163.616 74.0249V81.0417C163.616 81.6715 163.841 82.1512 164.29 82.4811C164.74 82.8109 165.175 82.9759 165.595 82.9759H178.144V88.3734H170.093C169.673 88.3734 169.238 88.5383 168.788 88.8682C168.338 89.198 168.114 89.6778 168.114 90.3075V95.975C168.114 96.6047 168.338 97.0845 168.788 97.4143C169.238 97.7442 169.673 97.9091 170.093 97.9091H178.144V110.144H165.595C165.175 110.144 164.74 110.308 164.29 110.638C163.841 110.968 163.616 111.448 163.616 112.078V118.645C163.616 119.274 163.841 119.754 164.29 120.084C164.74 120.414 165.175 120.579 165.595 120.579H203.288C203.707 120.579 204.157 120.414 204.637 120.084C205.147 119.754 205.402 119.274 205.402 118.645V112.078C205.402 111.448 205.147 110.968 204.637 110.638C204.157 110.308 203.707 110.144 203.288 110.144H191.278V97.9091H198.79C199.209 97.9091 199.659 97.7442 200.139 97.4143C200.649 97.0545 200.904 96.5747 200.904 95.975V90.3075C200.904 89.6778 200.649 89.198 200.139 88.8682C199.659 88.5383 199.209 88.3734 198.79 88.3734H191.278V82.9759H203.288C203.707 82.9759 204.157 82.8109 204.637 82.4811C205.147 82.1213 205.402 81.6415 205.402 81.0417V74.0249C205.402 73.3952 205.147 72.9154 204.637 72.5856Z" fill="white"/>
</g>
<defs>
<filter id="filter0_d_1_2663" x="0.44593" y="0.483528" width="283.423" height="191.033" filterUnits="userSpaceOnUse" color-interpolation-filters="sRGB">
<feFlood flood-opacity="0" result="BackgroundImageFix"/>
<feColorMatrix in="SourceAlpha" type="matrix" values="0 0 0 0 0 0 0 0 0 0 0 0 0 0 0 0 0 0 127 0" result="hardAlpha"/>
<feOffset/>
<feGaussianBlur stdDeviation="15.2582"/>
<feComposite in2="hardAlpha" operator="out"/>
<feColorMatrix type="matrix" values="0 0 0 0 0 0 0 0 0 0 0 0 0 0 0 0 0 0 0.25 0"/>
<feBlend mode="normal" in2="BackgroundImageFix" result="effect1_dropShadow_1_2663"/>
<feBlend mode="normal" in="SourceGraphic" in2="effect1_dropShadow_1_2663" result="shape"/>
</filter>
</defs>
</svg>
