<svg width="67" height="66" viewBox="0 0 67 66" fill="none" xmlns="http://www.w3.org/2000/svg">
<rect x="1.66187" y="1.38721" width="63.2253" height="63.2253" rx="15.3791" fill="#871B0D" stroke="url(#paint0_linear_1_2697)" stroke-width="2.56319"/>
<path fill-rule="evenodd" clip-rule="evenodd" d="M37.6634 15.5551C37.6634 11.7401 32.8068 10.1212 30.5178 13.1732L22.7767 23.4946H17.8145C14.5259 23.4946 11.8599 26.1606 11.8599 29.4493V37.3889C11.8599 40.6776 14.5259 43.3435 17.8145 43.3435H22.764L30.4936 53.8731C32.7633 56.9652 37.6634 55.3598 37.6634 51.524V15.5551ZM25.9526 25.8765L33.6936 15.5551V51.524L25.9641 40.9944C25.2162 39.9756 24.0278 39.3737 22.764 39.3737H17.8145C16.7183 39.3737 15.8296 38.4851 15.8296 37.3889V29.4493C15.8296 28.3531 16.7183 27.4644 17.8145 27.4644H22.7767C24.0262 27.4644 25.2028 26.8761 25.9526 25.8765Z" fill="white"/>
<path d="M52.1391 26.6131C52.9142 25.8379 54.171 25.838 54.9461 26.6131C55.7212 27.3882 55.7212 28.645 54.9461 29.4201L51.082 33.2842L54.9461 37.1484C55.7212 37.9235 55.7212 39.1803 54.9461 39.9554C54.171 40.7305 52.9142 40.7305 52.1391 39.9554L48.2749 36.0912L44.411 39.9554C43.6357 40.7305 42.379 40.7305 41.6039 39.9554C40.8286 39.1801 40.8286 37.9235 41.6039 37.1484L45.4679 33.2842L41.6039 29.4202C40.8286 28.645 40.8286 27.3883 41.6039 26.6131C42.379 25.838 43.6357 25.838 44.411 26.6131L48.2749 30.4772L52.1391 26.6131Z" fill="white"/>
<defs>
<linearGradient id="paint0_linear_1_2697" x1="-20.4685" y1="3.9376" x2="62.3201" y2="63.3803" gradientUnits="userSpaceOnUse">
<stop offset="0.0303" stop-color="#F7BF00"/>
<stop offset="0.2061" stop-color="#EB7A02"/>
<stop offset="0.4848" stop-color="#FACC00"/>
<stop offset="0.7758" stop-color="#E86902"/>
<stop offset="0.7939" stop-color="#EA7102"/>
<stop offset="0.916" stop-color="#F9A603"/>
<stop offset="0.9758" stop-color="#FFBA04"/>
</linearGradient>
</defs>
</svg>
