<svg width="67" height="68" viewBox="0 0 67 68" fill="none" xmlns="http://www.w3.org/2000/svg">
<rect x="1.5686" y="2" width="64" height="64" rx="15.5676" fill="#871B0D" stroke="url(#paint0_linear_1_907)" stroke-width="2.59459"/>
<path d="M24.0845 19.1522C27.5525 15.8089 31.7001 14.973 33.4547 14.973C35.2094 14.973 39.5857 15.8089 43.0537 19.1522C43.7763 18.8537 45.4071 18.0179 46.1502 17.0626C45.3245 19.2517 42.0629 24.2867 35.6223 26.9137C35.4687 26.5999 34.8202 25.9723 33.4547 25.9723C32.0893 25.9723 31.6696 26.5999 31.516 26.9137C25.0754 24.2867 21.8138 19.2517 20.988 17.0626C21.7312 18.0179 23.362 18.8537 24.0845 19.1522Z" fill="white"/>
<path d="M26.0974 26.0653C27.0742 26.7753 29.2726 28.2786 30.2523 28.6119C28.387 29.1753 24.9446 29.4546 26.0974 26.0653Z" fill="white"/>
<path d="M22.2073 22.0601C22.6636 22.7161 23.7298 24.1391 24.3446 24.5836C23.3599 26.7984 22.817 31.228 28.5229 31.228L28.3788 33.1496L24.1522 35.4647C26.1404 36.046 30.4674 38.6992 31.8701 44.6616L33.5532 50.2705L35.2667 44.6616C36.6695 38.6992 40.9964 36.046 42.9846 35.4647L38.7581 33.1496L38.614 31.228C44.3198 31.228 43.7769 26.7984 42.7922 24.5836C43.407 24.1391 44.4732 22.7161 44.9295 22.0601C46.7031 23.77 46.8958 27.1404 46.7705 28.6119C46.7705 39.7201 48.9241 44.9094 50.0009 46.1155L45.439 42.7554L42.3502 47.6727L38.7581 44.6616L33.5532 53.0271L28.3788 44.6616L24.7866 47.6727L21.6979 42.7554L17.136 46.1155C18.2128 44.9094 20.3663 39.7201 20.3663 28.6119C20.241 27.1404 20.4337 23.77 22.2073 22.0601Z" fill="white"/>
<path d="M41.0394 26.0653C40.0626 26.7753 37.8642 28.2786 36.8846 28.6119C38.7499 29.1753 42.1922 29.4546 41.0394 26.0653Z" fill="white"/>
<path d="M30.7892 31.8042C30.7892 29.6083 32.7255 28.5274 33.6966 28.2614C34.6676 28.5274 36.6098 29.6083 36.6098 31.8042V34.198L38.7948 35.5066C37.0954 36.5279 33.7024 39.5728 33.7024 43.5816C33.7024 39.5728 30.3035 36.5279 28.6041 35.5066L30.7892 34.198V31.8042Z" fill="white"/>
<defs>
<linearGradient id="paint0_linear_1_907" x1="-20.8329" y1="4.58164" x2="62.9701" y2="64.7526" gradientUnits="userSpaceOnUse">
<stop offset="0.0303" stop-color="#F7BF00"/>
<stop offset="0.2061" stop-color="#EB7A02"/>
<stop offset="0.4848" stop-color="#FACC00"/>
<stop offset="0.7758" stop-color="#E86902"/>
<stop offset="0.7939" stop-color="#EA7102"/>
<stop offset="0.916" stop-color="#F9A603"/>
<stop offset="0.9758" stop-color="#FFBA04"/>
</linearGradient>
</defs>
</svg>
