<svg width="67" height="68" viewBox="0 0 67 68" fill="none" xmlns="http://www.w3.org/2000/svg">
<rect x="1.29419" y="2" width="64" height="64" rx="15.5676" fill="#871B0D" stroke="url(#paint0_linear_1_901)" stroke-width="2.59459"/>
<path fill-rule="evenodd" clip-rule="evenodd" d="M47.0075 19.5043C47.4329 19.3209 47.8984 19.2577 48.3557 19.3211C48.813 19.3846 49.2454 19.5724 49.6078 19.8651C49.9701 20.1578 50.2493 20.5446 50.4162 20.9853C50.5831 21.426 50.6316 21.9045 50.5567 22.3709L46.6529 46.6241C46.2743 48.9636 43.7682 50.3052 41.6734 49.1399C39.9212 48.165 37.3187 46.6629 34.9779 45.0956C33.8074 44.3111 30.2221 41.7989 30.6627 40.0112C31.0414 38.4827 37.0657 32.7389 40.5082 29.3241C41.8593 27.9824 41.2431 27.2085 39.6475 28.4426C35.6853 31.5066 29.3236 36.1662 27.2203 37.4778C25.3648 38.6343 24.3975 38.8318 23.2408 38.6343C21.1306 38.2747 19.1735 37.7176 17.5762 37.0388C15.4178 36.1221 15.5228 33.0827 17.5745 32.1977L47.0075 19.5043Z" fill="white"/>
<defs>
<linearGradient id="paint0_linear_1_901" x1="-21.1074" y1="4.58164" x2="62.6957" y2="64.7526" gradientUnits="userSpaceOnUse">
<stop offset="0.0303" stop-color="#F7BF00"/>
<stop offset="0.2061" stop-color="#EB7A02"/>
<stop offset="0.4848" stop-color="#FACC00"/>
<stop offset="0.7758" stop-color="#E86902"/>
<stop offset="0.7939" stop-color="#EA7102"/>
<stop offset="0.916" stop-color="#F9A603"/>
<stop offset="0.9758" stop-color="#FFBA04"/>
</linearGradient>
</defs>
</svg>
