<svg width="67" height="68" viewBox="0 0 67 68" fill="none" xmlns="http://www.w3.org/2000/svg">
<rect x="1.70581" y="2" width="64" height="64" rx="15.5676" fill="#871B0D" stroke="url(#paint0_linear_1_910)" stroke-width="2.59459"/>
<path fill-rule="evenodd" clip-rule="evenodd" d="M28.5087 14.8234C25.9613 16.1654 23.8771 17.3009 23.8776 17.3471C23.8787 17.4663 29.9915 20.5969 30.2085 20.5893C30.3072 20.5859 31.0232 20.2526 31.7995 19.8487L33.2111 19.1145L36.2945 20.7174L38.8192 19.5702C42.6234 17.8415 43.0186 17.6521 42.9566 17.5884C42.8744 17.504 41.5099 16.7627 37.8079 14.7918C36.0188 13.8393 34.2823 12.9053 33.9489 12.7163C33.6156 12.5274 33.2974 12.3753 33.2418 12.3783C33.1862 12.3812 31.0563 13.4816 28.5087 14.8234ZM17.3356 20.6743L14.6837 22.0595V28.1388C14.6837 31.4824 14.7186 34.218 14.7613 34.218C14.8038 34.218 16.1086 33.6461 17.6606 32.9471L20.4825 31.6761V25.2681L21.8615 26.0278C22.9241 26.6127 23.9873 27.1964 25.0512 27.779L26.8619 28.7704L27.6677 28.4019C28.173 28.1705 28.6773 27.9368 29.1806 27.7009C29.5695 27.5177 30.5242 27.0829 31.302 26.7344C32.0799 26.3858 32.8 26.0352 32.9021 25.9553C33.0377 25.8491 31.3838 24.9249 26.7848 22.5367C23.3182 20.7365 20.3706 19.2693 20.2347 19.2763C20.0988 19.2834 18.7942 19.9124 17.3356 20.6743ZM43.4345 21.0633C41.6284 21.8878 40.1495 22.5954 40.1478 22.6357C40.1462 22.676 41.1306 23.2679 42.3354 23.9508C43.5402 24.6339 44.5259 25.2293 44.5259 25.2741C44.5259 25.3188 43.4598 25.8412 42.157 26.4351C40.8539 27.0289 37.5604 28.533 34.8379 29.7776L25.7155 33.9474C23.4207 34.9964 21.3523 35.9419 21.119 36.0488C16.4318 38.1945 15.1435 38.7898 14.9666 38.892C14.7887 38.9949 14.7484 39.5927 14.7167 42.5929L14.679 46.1713L19.4218 48.615L22.71 47.1143C24.5187 46.289 25.9983 45.5705 25.9983 45.5176C25.9983 45.4648 25.6641 45.2446 25.2558 45.028C24.8473 44.8115 24.0041 44.3321 23.3818 43.9625C22.7596 43.5928 22.1391 43.2537 22.0029 43.2087C21.8667 43.1639 21.7572 43.0854 21.7595 43.0343C21.7617 42.9832 23.2097 42.2877 24.9771 41.4885C28.4098 39.9365 31.0367 38.7403 36.6765 36.1612C39.1984 35.0082 41.7206 33.8559 44.2431 32.7043C46.46 31.6923 49.0376 30.5105 49.9711 30.078L51.6683 29.2916L51.744 22.0535L49.3387 20.8051C48.0158 20.1185 46.885 19.5585 46.8258 19.5605C46.7665 19.5624 45.2405 20.2386 43.4345 21.0633ZM51.0239 34.1197C50.6695 34.2947 49.9694 34.6225 49.4682 34.848C48.967 35.0735 48.0158 35.5075 47.3546 35.8126L46.1524 36.3671L46.125 39.5443C46.1098 41.2918 46.0462 42.7137 45.9836 42.7045C45.8413 42.6831 43.5881 41.5146 41.3232 40.2873C39.6885 39.4017 39.5859 39.3665 39.2017 39.5588C38.9797 39.6701 37.6524 40.2721 36.2522 40.8968C34.852 41.5214 33.6607 42.0732 33.6047 42.1232C33.5488 42.1731 36.3669 43.7176 39.8672 45.5557L46.2312 48.8976L48.9498 47.4754C50.4449 46.6934 51.7162 45.98 51.7748 45.8903C51.9066 45.6885 51.8953 33.7737 51.7633 33.7898C51.7112 33.7961 51.3783 33.9446 51.0239 34.1197ZM35.9693 48.1047C35.4978 48.3097 35.0263 48.515 34.555 48.7206C33.1317 49.3433 33.4107 49.3639 31.7174 48.5115C30.5897 47.9438 30.1035 47.7687 29.8925 47.8537C29.7343 47.9174 28.3721 48.5372 26.8653 49.2308C25.3586 49.9244 24.0736 50.4919 24.0096 50.4919C23.3775 50.4919 24.4284 51.1269 28.4839 53.1956L33.24 55.6215L35.2411 54.6224C36.3417 54.073 38.5616 52.9726 40.1744 52.1773C41.787 51.3817 43.0865 50.7103 43.0622 50.6849C43.0376 50.6597 41.6864 49.958 40.0592 49.1257L37.1008 47.6125L35.9693 48.1047Z" fill="white"/>
<defs>
<linearGradient id="paint0_linear_1_910" x1="-20.6957" y1="4.58164" x2="63.1073" y2="64.7526" gradientUnits="userSpaceOnUse">
<stop offset="0.0303" stop-color="#F7BF00"/>
<stop offset="0.2061" stop-color="#EB7A02"/>
<stop offset="0.4848" stop-color="#FACC00"/>
<stop offset="0.7758" stop-color="#E86902"/>
<stop offset="0.7939" stop-color="#EA7102"/>
<stop offset="0.916" stop-color="#F9A603"/>
<stop offset="0.9758" stop-color="#FFBA04"/>
</linearGradient>
</defs>
</svg>
