<svg width="116" height="34" viewBox="0 0 116 34" fill="none" xmlns="http://www.w3.org/2000/svg">
<path d="M61.1734 25.2078H79.3765V32.8116H46.0119V25.8529L63.5698 15.9449C65.6589 14.7775 67.0721 13.8865 67.8095 13.2721C68.5468 12.6269 68.9155 11.8281 68.9155 10.8757C68.9155 8.69445 67.0721 7.6038 63.3854 7.6038C59.1764 7.6038 56.7647 9.20137 56.1503 12.3965L47.1179 11.8435C47.3329 9.7851 47.9013 7.98783 48.823 6.45171C49.7447 4.91559 50.9275 3.68669 52.3714 2.76502C53.8154 1.81262 55.4437 1.12137 57.2563 0.691254C59.0689 0.230418 61.0505 0 63.2011 0C65.9968 0 68.4853 0.353308 70.6666 1.05992C72.8479 1.73582 74.6452 2.87255 76.0584 4.47012C77.4717 6.03696 78.1783 7.97247 78.1783 10.2767C78.1783 12.1814 77.5331 13.9019 76.2428 15.438C74.9831 16.9741 72.5561 18.756 68.9615 20.7837L61.1734 25.2078Z" fill="white"/>
<path d="M101.576 10.7375C105.877 10.7375 109.349 11.7053 111.991 13.6408C114.664 15.5763 116 18.2799 116 21.7515C116 25.5304 114.418 28.4183 111.253 30.4152C108.12 32.3815 103.988 33.3646 98.8569 33.3646C94.31 33.3646 90.4697 32.5504 87.336 30.9221C84.2023 29.2938 82.2975 26.8821 81.6216 23.687L90.9305 23.1801C91.9136 24.9005 94.4482 25.7608 98.5343 25.7608C101.084 25.7608 103.081 25.3921 104.525 24.6548C106 23.9174 106.737 22.9343 106.737 21.7054C106.737 20.4765 105.984 19.4934 104.479 18.7561C103.004 18.0187 101.069 17.65 98.6725 17.65C95.2009 17.65 92.6202 18.3567 90.9305 19.7699L82.7276 19.0326L84.5249 0.553002H113.373V8.15681H91.2531L90.6079 14.2399C93.25 11.9049 96.906 10.7375 101.576 10.7375Z" fill="white"/>
<path d="M39.152 17.6074C38.6203 16.2782 37.6773 15.26 36.3492 14.5809C35.0434 13.9136 33.2327 13.4653 30.9675 13.2486C28.7217 13.0337 25.5256 12.9248 21.4678 12.9248C20.6614 12.9248 19.9026 12.9222 19.2031 12.9171C19.1197 12.7031 18.912 12.5511 18.6684 12.5511C18.4287 12.5511 18.2235 12.6982 18.1375 12.9069C16.9677 12.8928 15.9729 12.8699 15.1764 12.8389C13.7211 12.7828 12.621 12.6618 11.9066 12.4793C11.7039 12.4277 11.5225 12.3699 11.3618 12.3065C11.3623 12.2957 11.3634 12.285 11.3634 12.274C11.3634 11.9241 11.0798 11.6404 10.7299 11.6404C10.6589 11.6404 10.5909 11.6526 10.5272 11.6742C10.3577 11.367 10.2715 10.9297 10.2715 10.371C10.2715 9.80461 10.4416 9.35726 10.7876 9.01419C10.8605 9.0477 10.9414 9.06688 11.0269 9.06688C11.3402 9.06688 11.5944 8.81574 11.6004 8.50385C12.1568 8.27655 12.8549 8.16118 13.6852 8.16118H16.8396C16.8971 8.4518 17.1533 8.67094 17.4608 8.67094C17.7683 8.67094 18.0245 8.4518 18.082 8.16118H23.8245C23.9548 8.3038 24.1417 8.39381 24.3501 8.39381C24.555 8.39381 24.7392 8.30682 24.8692 8.16837C26.0529 8.19737 27.482 8.33072 28.0034 8.77953C28.4712 9.18233 28.7085 9.99255 28.7085 11.1876V11.3856H38.6502V10.1991C38.6502 8.64416 38.518 7.30503 38.2574 6.21888C37.9921 5.11293 37.4463 4.14098 36.6354 3.33001C36.1597 2.85437 35.5297 2.43946 34.7569 2.09033C34.7609 2.054 34.7632 2.01712 34.7632 1.97968C34.7632 1.43301 34.32 0.989853 33.7734 0.989853C33.4188 0.989853 33.1079 1.17645 32.9331 1.45667C32.9262 1.45484 32.9194 1.45289 32.9125 1.45106C31.269 1.01859 29.0822 0.799296 26.4127 0.799296H24.9644C24.8762 0.365807 24.4929 0.0395903 24.0333 0.0395903C23.5738 0.0395903 23.1905 0.365807 23.1022 0.799296H16.9276C16.8387 0.343829 16.4377 0 15.9562 0C15.4748 0 15.0737 0.343829 14.9849 0.799296H13.0832C10.581 0.799296 8.49063 0.984498 6.85326 1.35016C6.66227 0.949798 6.25381 0.673099 5.78068 0.673099C5.12466 0.673099 4.59287 1.20489 4.59287 1.86091C4.59287 1.9285 4.59881 1.9947 4.60967 2.05921C3.59606 2.48987 2.79915 3.01789 2.23102 3.63681C1.65454 4.26482 1.22262 4.95798 0.939229 5.70604C0.910292 5.70307 0.880979 5.7015 0.851256 5.7015C0.381117 5.7015 0 6.08261 0 6.55275C0 6.91573 0.227616 7.22481 0.547544 7.34725C0.403329 8.34936 0.330347 9.56502 0.330347 10.973C0.330347 12.4361 0.421757 13.6861 0.602535 14.7076C0.336084 14.8713 0.158361 15.1653 0.158361 15.5009C0.158361 16.0137 0.573189 16.4295 1.08557 16.4313C1.49527 17.3718 2.15903 18.1365 3.06685 18.7084C3.56505 19.0225 4.18124 19.2946 4.91079 19.5234C4.92339 19.9826 5.29866 20.3511 5.76085 20.3511C6.07839 20.3511 6.3548 20.1769 6.50111 19.9192C6.92031 20.001 7.36448 20.0727 7.8336 20.1342C9.91042 20.4062 12.8339 20.5441 16.5229 20.5441C16.7432 20.5441 16.9593 20.5443 17.172 20.5445C17.2668 20.9113 17.5989 21.1826 17.9953 21.1826C18.39 21.1826 18.721 20.9135 18.8174 20.549C21.1216 20.5594 22.9124 20.5866 24.1481 20.63C25.7503 20.6869 26.9835 20.8013 27.8134 20.9701C28.6067 21.1315 29.1312 21.3742 29.3723 21.6913C29.6165 22.0133 29.7403 22.53 29.7403 23.2272C29.7403 24.2413 29.4263 24.8788 28.7803 25.1762C28.0938 25.4921 27.1091 25.6523 25.8533 25.6523H14.1584C12.6595 25.6523 11.6202 25.4547 11.0693 25.0651C10.5386 24.6897 10.2558 23.7518 10.2287 22.2777L10.2251 22.0833H0.287032V24.4311C0.287032 26.1426 0.52373 27.5717 0.990464 28.6789C1.46276 29.8013 2.20479 30.6855 3.19593 31.3069C4.1735 31.9198 5.44191 32.363 6.96601 32.6242C8.47692 32.8826 10.3904 33.0137 12.6532 33.0137H24.2195C27.5657 33.0137 30.2503 32.8901 32.1987 32.6465C34.1673 32.4003 35.7344 31.9281 36.8564 31.2432C37.9946 30.5491 38.8039 29.5454 39.2616 28.2602C39.7117 26.9963 39.94 25.2451 39.94 23.0553C39.9401 20.7477 39.6749 18.9148 39.152 17.6074ZM14.7248 5.21083L19.6494 5.96952C19.6673 6.08669 19.7088 6.19586 19.7694 6.29216L17.9089 7.58962C17.7943 7.4749 17.6358 7.40392 17.4608 7.40392C17.3077 7.40392 17.1672 7.4583 17.0576 7.54881L14.5608 5.58788C14.6336 5.4728 14.6895 5.34605 14.7248 5.21083ZM27.5386 4.301C27.5705 4.38778 27.6144 4.46874 27.668 4.54216L24.7847 7.11715C24.6643 7.02426 24.5139 6.96843 24.3501 6.96843C24.148 6.96843 23.966 7.05294 23.8363 7.18807L21.2866 6.13728C21.3162 6.05804 21.3341 5.97333 21.3387 5.88492L27.5386 4.301ZM19.9541 6.50126C20.1004 6.61991 20.2867 6.69126 20.4898 6.69126C20.7549 6.69126 20.9917 6.56996 21.1478 6.37986L23.6854 7.42564C23.6549 7.50503 23.6374 7.59093 23.6374 7.68109C23.6374 7.70962 23.6396 7.73759 23.6429 7.76522H18.1416L19.9541 6.50126ZM27.4808 4.02972L21.3078 5.60674C21.2696 5.47245 21.1994 5.35191 21.1057 5.25354L23.3884 1.68747C23.5579 1.84417 23.7844 1.94003 24.0334 1.94003C24.3222 1.94003 24.5807 1.81101 24.755 1.60764L27.6371 3.42139C27.5366 3.57629 27.478 3.76091 27.478 3.9593C27.478 3.983 27.4791 4.00643 27.4808 4.02972ZM23.2064 1.45769L20.8839 5.08589C20.766 5.02412 20.6321 4.98872 20.4897 4.98872C20.2994 4.98872 20.1242 5.05195 19.9824 5.15753L16.8155 1.48098C16.8658 1.39324 16.9031 1.29715 16.9246 1.19517H23.1056C23.1262 1.28862 23.1606 1.37682 23.2064 1.45769ZM15.4308 1.82851C15.5831 1.92414 15.7632 1.97965 15.9563 1.97965C16.2223 1.97965 16.4636 1.8745 16.6415 1.70371L19.7888 5.35741C19.7213 5.45525 19.6743 5.56796 19.6525 5.68959L14.7668 4.93687C14.7679 4.91469 14.7685 4.89239 14.7685 4.86995C14.7685 4.43206 14.5593 4.0432 14.2355 3.79733L15.4308 1.82851ZM18.7476 13.6932C18.7812 13.6886 18.8139 13.6814 18.8453 13.6712L20.1808 15.0675C19.8782 15.2654 19.678 15.6071 19.678 15.9957C19.678 16.1898 19.728 16.3722 19.8157 16.5309L18.5659 17.1141C18.5238 17.0526 18.4677 17.001 18.4013 16.9646L18.7476 13.6932ZM18.309 17.837C18.4869 17.784 18.6246 17.6288 18.6458 17.4328C18.6477 17.4155 18.6485 17.3984 18.6485 17.3814L19.9828 16.7587C20.0834 16.8646 20.2046 16.9507 20.3402 17.0104L18.3024 19.538C18.2486 19.5171 18.1923 19.5018 18.1338 19.4922L18.309 17.837ZM18.3085 13.5722C18.3571 13.6113 18.4123 13.6423 18.472 13.6641L18.1286 16.9084C17.9291 16.9271 17.7608 17.0712 17.7126 17.2681L14.3695 17.0323C14.3591 16.8932 14.3189 16.7625 14.2551 16.6466L18.3085 13.5722ZM12.5345 16.7655L8.42961 15.8548C8.43188 15.8295 8.43349 15.8039 8.43349 15.778C8.43349 15.5935 8.37416 15.4232 8.27439 15.2837L10.4265 12.8301C10.5043 12.8726 10.5921 12.8987 10.6853 12.9052L12.8129 16.3754C12.6895 16.4787 12.5929 16.6126 12.5345 16.7655ZM10.2186 12.6468L8.07819 15.0871C7.93843 14.9866 7.76749 14.9267 7.58223 14.9267C7.48782 14.9267 7.39735 14.9427 7.31249 14.9711L5.14897 11.0548C5.29124 10.9455 5.40608 10.8025 5.48183 10.6376L10.1001 12.2064C10.0978 12.2286 10.0964 12.2511 10.0964 12.274C10.0964 12.4135 10.1421 12.5421 10.2186 12.6468ZM5.38579 9.54491L8.33171 6.4063C8.43008 6.48533 8.55485 6.53287 8.69088 6.53287C8.79382 6.53287 8.89023 6.50542 8.97378 6.45797L10.5817 8.13056C10.5012 8.22936 10.4528 8.35538 10.4528 8.49276C10.4528 8.51433 10.4542 8.53555 10.4565 8.55654L5.47341 9.69477C5.44811 9.64234 5.41866 9.59236 5.38579 9.54491ZM11.2448 7.96178C11.1776 7.93415 11.1041 7.91866 11.0269 7.91866C10.9482 7.91866 10.8734 7.93456 10.8051 7.96314L9.17462 6.26703C9.19162 6.24039 9.2069 6.21254 9.21939 6.18314L12.2113 5.45836C12.2865 5.61282 12.3903 5.75075 12.5159 5.86522L11.2448 7.96178ZM12.1162 5.19625L9.26017 5.8881C9.22527 5.60447 8.98394 5.38468 8.69085 5.38468C8.62722 5.38468 8.5662 5.39546 8.50897 5.41458L6.60009 2.72035C6.69077 2.63389 6.76791 2.53337 6.82771 2.42208L12.1256 4.5083C12.0936 4.62343 12.0761 4.74462 12.0761 4.86998C12.0761 4.98252 12.0901 5.09174 12.1162 5.19625ZM5.78071 3.04866C5.99875 3.04866 6.2029 2.98965 6.37852 2.88709L8.27495 5.56374C8.17711 5.66671 8.1167 5.80557 8.1167 5.95878C8.1167 6.03805 8.13277 6.11356 8.16182 6.18226L5.19992 9.3379C5.08021 9.23409 4.93812 9.15555 4.78174 9.11046L5.73451 3.04746C5.74988 3.04807 5.76522 3.04866 5.78071 3.04866ZM4.47413 11.2841C4.62882 11.2841 4.77606 11.2523 4.90983 11.1951L7.06764 15.101C6.90499 15.2248 6.788 15.4052 6.74719 15.6134L1.98728 15.2587C1.94256 15.0924 1.8529 14.9446 1.73215 14.829L4.01374 11.184C4.15402 11.2481 4.30983 11.2841 4.47413 11.2841ZM2.01837 15.5389L6.7393 15.8907C6.77234 16.1397 6.9123 16.3548 7.11229 16.4875L5.9609 18.6731C5.89666 18.6576 5.82996 18.6485 5.76094 18.6485C5.61282 18.6485 5.47362 18.6865 5.35231 18.753L1.97226 15.7931C1.99884 15.7127 2.01482 15.6274 2.01837 15.5389ZM6.21687 18.7818L7.36602 16.6005C7.43519 16.6186 7.50738 16.6293 7.58223 16.6293C7.92934 16.6293 8.22738 16.4212 8.35989 16.1233L12.4748 17.0361C12.4732 17.0587 12.4721 17.0814 12.4721 17.1044C12.4721 17.1548 12.4761 17.2043 12.4836 17.2527L6.52056 19.1171C6.45119 18.9797 6.34601 18.8639 6.21687 18.7818ZM14.3505 17.3076L17.7285 17.5469C17.7789 17.682 17.889 17.7901 18.0306 17.8346L17.8551 19.4925C17.6545 19.5258 17.4778 19.6288 17.3507 19.7763L14.2651 17.5432C14.3034 17.4698 14.3324 17.3907 14.3505 17.3076ZM11.8087 12.8629C12.5501 13.0524 13.678 13.1774 15.161 13.2346C15.9587 13.2656 16.9537 13.2885 18.1226 13.3027C18.128 13.3193 18.134 13.3356 18.1408 13.3515L14.0874 16.426C13.916 16.2579 13.6813 16.1541 13.4223 16.1541C13.2897 16.1541 13.1636 16.1814 13.049 16.2303L10.9802 12.8559C11.0737 12.8157 11.1556 12.7536 11.2194 12.6761C11.3952 12.7451 11.5909 12.8075 11.8087 12.8629ZM10.2083 11.9148C10.2018 11.9243 10.1959 11.9343 10.1898 11.9441L5.56482 10.3731C5.57638 10.309 5.58272 10.243 5.58272 10.1755C5.58272 10.1014 5.5753 10.029 5.56141 9.95892L10.3952 8.85481C10.0503 9.25482 9.87552 9.76208 9.87552 10.371C9.87558 11.0344 9.9846 11.5407 10.2083 11.9148ZM11.4709 8.12896C11.4703 8.12817 11.4697 8.12742 11.469 8.12663L12.74 6.03027C12.9401 6.1482 13.1732 6.21612 13.4223 6.21612C13.802 6.21612 14.1448 6.05866 14.3895 5.80574L16.8845 7.76519H13.6852C12.8142 7.76525 12.0726 7.88751 11.4709 8.12896ZM32.7949 1.82958C32.7874 1.87852 32.7835 1.92862 32.7835 1.97962C32.7835 2.0117 32.7852 2.04334 32.7882 2.07464L29.3095 3.43837C29.1349 3.15695 28.8233 2.96945 28.4678 2.96945C28.2207 2.96945 27.9949 3.06021 27.8215 3.20996L24.9028 1.37319C24.9278 1.31654 24.9475 1.25698 24.9611 1.19517H26.4127C29.0391 1.19517 31.1861 1.40867 32.7949 1.82958ZM13.0833 1.19517H14.9879C15.024 1.36637 15.1045 1.52121 15.2166 1.64726L13.9988 3.65332C13.824 3.57035 13.6286 3.5238 13.4223 3.5238C12.9023 3.5238 12.4515 3.81884 12.2272 4.25047L6.9293 2.16421C6.9548 2.06736 6.96854 1.96573 6.96854 1.86088C6.96854 1.81721 6.96601 1.7741 6.96141 1.73166C8.56606 1.37554 10.62 1.19517 13.0833 1.19517ZM2.52274 3.90449C3.04854 3.33167 3.79145 2.83956 4.74014 2.43378C4.89233 2.7096 5.15098 2.91821 5.46069 3.0047L4.50792 9.06775C4.49669 9.0674 4.48548 9.06691 4.47413 9.06691C4.22805 9.06691 4.00079 9.1472 3.81686 9.28285L1.60246 6.953C1.66619 6.83364 1.70257 6.69746 1.70257 6.55272C1.70257 6.25279 1.54709 5.98963 1.31272 5.838C1.57856 5.13992 1.98317 4.49229 2.52274 3.90449ZM0.726342 10.9729C0.726342 9.58098 0.798215 8.38283 0.94016 7.39927C1.12921 7.37965 1.2993 7.29761 1.431 7.17485L3.61597 9.47376C3.45947 9.6649 3.3655 9.9092 3.3655 10.1755C3.3655 10.5241 3.52651 10.8349 3.77806 11.0381L1.50538 14.6689C1.38002 14.606 1.23863 14.5704 1.08886 14.5704C1.05247 14.5704 1.01666 14.5727 0.981381 14.5768C0.811956 13.5912 0.726342 12.3851 0.726342 10.9729ZM1.47982 16.3452C1.62447 16.2781 1.74895 16.175 1.84178 16.0473L5.13154 18.9281C5.07579 18.9894 5.029 19.0588 4.99294 19.1344C4.31358 18.9188 3.74036 18.6648 3.27802 18.3734C2.46304 17.8599 1.8603 17.1794 1.47982 16.3452ZM7.8851 19.7415C7.43624 19.6827 7.01119 19.6146 6.61031 19.5373C6.61086 19.5248 6.6122 19.5124 6.6122 19.4998C6.6122 19.4596 6.60844 19.4204 6.60306 19.3817L12.5662 17.5172C12.7198 17.8352 13.0455 18.0546 13.4223 18.0546C13.689 18.0546 13.9299 17.9446 14.1024 17.7677L17.2059 20.0137C17.1885 20.057 17.1744 20.102 17.1643 20.1485C16.9541 20.1483 16.7405 20.1481 16.5229 20.1481C12.8511 20.1481 9.94492 20.0113 7.8851 19.7415Z" fill="white"/>
</svg>
