<svg width="35" height="41" viewBox="0 0 35 41" fill="none" xmlns="http://www.w3.org/2000/svg">
<path d="M7.5012 5.27454C11.0751 1.84612 15.3493 0.989014 17.1575 0.989014C18.9657 0.989014 23.4756 1.84612 27.0495 5.27454C27.7941 4.96843 29.4747 4.11132 30.2405 3.13177C29.3896 5.37657 26.0284 10.5396 19.3912 13.2334C19.2329 12.9116 18.5646 12.2681 17.1575 12.2681C15.7504 12.2681 15.3178 12.9116 15.1596 13.2334C8.52231 10.5396 5.16115 5.37657 4.31022 3.13177C5.07606 4.11132 6.75664 4.96843 7.5012 5.27454Z" fill="white"/>
<path d="M9.5756 12.3634C10.5822 13.0915 12.8477 14.633 13.8572 14.9748C11.935 15.5525 8.38759 15.839 9.5756 12.3634Z" fill="white"/>
<path d="M5.56674 8.25639C6.03694 8.92903 7.13573 10.3883 7.76926 10.8441C6.75453 13.1152 6.19506 17.6575 12.0751 17.6575L11.9266 19.6279L7.57102 22.0019C9.61986 22.598 14.0789 25.3187 15.5245 31.4327L17.259 37.1844L19.0248 31.4327C20.4703 25.3187 24.9294 22.598 26.9783 22.0019L22.6227 19.6279L22.4742 17.6575C28.3542 17.6575 27.7948 13.1152 26.78 10.8441C27.4136 10.3883 28.5123 8.92903 28.9825 8.25639C30.8103 10.0097 31.0089 13.4659 30.8797 14.9748C30.8797 26.3656 33.0991 31.6868 34.2087 32.9236L29.5076 29.478L26.3246 34.5204L22.6227 31.4327L17.259 40.011L11.9266 31.4327L8.22473 34.5204L5.04172 29.478L0.340576 32.9236C1.45023 31.6868 3.66954 26.3656 3.66954 14.9748C3.54038 13.4659 3.73899 10.0097 5.56674 8.25639Z" fill="white"/>
<path d="M24.9737 12.3634C23.9671 13.0915 21.7016 14.633 20.692 14.9748C22.6143 15.5525 26.1617 15.839 24.9737 12.3634Z" fill="white"/>
<path d="M14.4105 18.2483C14.4105 15.9965 16.406 14.8881 17.4067 14.6154C18.4074 14.8881 20.4088 15.9965 20.4088 18.2483V20.7029L22.6606 22.0448C20.9093 23.0922 17.4127 26.2145 17.4127 30.3252C17.4127 26.2145 13.9101 23.0922 12.1588 22.0448L14.4105 20.7029V18.2483Z" fill="white"/>
</svg>
