<svg width="34" height="31" viewBox="0 0 34 31" fill="none" xmlns="http://www.w3.org/2000/svg">
<path fill-rule="evenodd" clip-rule="evenodd" d="M30.36 0.250018C30.7764 0.0626979 31.2322 -0.00190754 31.6799 0.0629253C32.1276 0.127758 32.5508 0.31966 32.9056 0.618655C33.2604 0.917651 33.5337 1.31281 33.6971 1.763C33.8604 2.2132 33.9079 2.70197 33.8346 3.17844L30.0128 27.9548C29.6421 30.3447 27.1886 31.7152 25.1379 30.5248C23.4225 29.5288 20.8746 27.9944 18.5829 26.3933C17.4371 25.5919 13.927 23.0254 14.3584 21.1992C14.7291 19.6378 20.6269 13.7701 23.9971 10.2816C25.3199 8.91101 24.7166 8.12038 23.1546 9.38107C19.2755 12.5112 13.0474 17.2712 10.9882 18.6112C9.17172 19.7926 8.22471 19.9944 7.09233 19.7926C5.02642 19.4252 3.11048 18.8561 1.54672 18.1627C-0.566377 17.2262 -0.463587 14.1213 1.54503 13.2172L30.36 0.250018Z" fill="white"/>
</svg>
