<svg width="33" height="35" viewBox="0 0 33 35" fill="none" xmlns="http://www.w3.org/2000/svg">
<path fill-rule="evenodd" clip-rule="evenodd" d="M12.6415 2.48102C10.4729 3.53203 8.6986 4.42139 8.69898 4.45756C8.69995 4.55092 13.9038 7.00279 14.0885 6.99681C14.1726 6.99419 14.7821 6.73317 15.4429 6.41683L16.6447 5.84178L19.2696 7.09717L21.4189 6.19866C24.6574 4.84476 24.9938 4.69639 24.9411 4.64655C24.8711 4.58041 23.7095 3.99985 20.558 2.45625C19.0349 1.71022 17.5566 0.978751 17.2728 0.830739C16.989 0.682727 16.7181 0.563661 16.6708 0.565966C16.6235 0.568271 14.8102 1.43005 12.6415 2.48102ZM3.12979 7.06341L0.872237 8.14829L0.872237 12.9096C0.872237 15.5283 0.901881 17.6709 0.938243 17.6709C0.974479 17.6709 2.0852 17.2229 3.40645 16.6754L5.80874 15.68V10.6613L6.98266 11.2563C7.88726 11.7144 8.79241 12.1716 9.6981 12.6278L11.2396 13.4043L11.9255 13.1157C12.3557 12.9344 12.785 12.7514 13.2135 12.5666C13.5445 12.4232 14.3573 12.0826 15.0195 11.8097C15.6817 11.5366 16.2947 11.262 16.3816 11.1995C16.497 11.1163 15.0891 10.3925 11.174 8.52205C8.22279 7.11213 5.71351 5.96303 5.59779 5.96854C5.48207 5.97405 4.37148 6.46668 3.12979 7.06341ZM25.3479 7.36807C23.8104 8.01383 22.5513 8.56799 22.5499 8.59959C22.5486 8.63115 23.3866 9.09472 24.4123 9.62958C25.4379 10.1646 26.2771 10.6309 26.2771 10.666C26.2771 10.701 25.3695 11.1101 24.2603 11.5753C23.1511 12.0404 20.3473 13.2184 18.0295 14.1931L10.2636 17.4589C8.31008 18.2805 6.54921 19.021 6.35056 19.1047C2.36039 20.7852 1.26365 21.2515 1.11304 21.3316C0.961589 21.4121 0.927284 21.8803 0.900327 24.2301L0.868164 27.0327L4.90574 28.9466L7.70507 27.7713C9.24475 27.1249 10.5044 26.5621 10.5044 26.5207C10.5044 26.4794 10.2199 26.3069 9.87231 26.1373C9.52456 25.9677 8.80672 25.5922 8.27695 25.3027C7.74723 25.0132 7.21901 24.7476 7.10304 24.7124C6.98711 24.6773 6.89394 24.6158 6.89583 24.5757C6.89776 24.5358 8.13046 23.991 9.63499 23.3651C12.5573 22.1496 14.7936 21.2127 19.5948 19.1928C21.7417 18.2897 23.8888 17.3872 26.0363 16.4853C27.9236 15.6928 30.1179 14.7671 30.9125 14.4284L32.3574 13.8125L32.4218 8.1436L30.3742 7.16584C29.248 6.62813 28.2854 6.18948 28.2349 6.19109C28.1845 6.19257 26.8853 6.72216 25.3479 7.36807ZM31.8088 17.5938C31.5071 17.7309 30.9111 17.9877 30.4844 18.1643C30.0577 18.3409 29.248 18.6808 28.6851 18.9197L27.6617 19.354L27.6383 21.8424C27.6254 23.211 27.5713 24.3247 27.5179 24.3175C27.3968 24.3007 25.4787 23.3856 23.5506 22.4244C22.1589 21.7307 22.0715 21.7031 21.7445 21.8538C21.5555 21.9409 20.4255 22.4124 19.2336 22.9017C18.0416 23.3909 17.0274 23.8231 16.9797 23.8622C16.9322 23.9013 19.3312 25.111 22.311 26.5505L27.7288 29.1679L30.0431 28.0541C31.3159 27.4416 32.3982 26.8828 32.448 26.8126C32.5602 26.6546 32.5506 17.3228 32.4383 17.3355C32.3939 17.3404 32.1105 17.4567 31.8088 17.5938ZM18.9928 28.5469C18.5913 28.7075 18.19 28.8683 17.7887 29.0293C16.5771 29.517 16.8146 29.5331 15.3731 28.8656C14.413 28.4209 13.9992 28.2837 13.8196 28.3503C13.6848 28.4003 12.5252 28.8856 11.2425 29.4289C9.95981 29.9721 8.86584 30.4166 8.81143 30.4166C8.27326 30.4166 9.16795 30.9139 12.6204 32.5341L16.6692 34.4341L18.3728 33.6516C19.3098 33.2213 21.1996 32.3595 22.5725 31.7366C23.9454 31.1135 25.0516 30.5876 25.0309 30.5677C25.0101 30.548 23.8597 29.9984 22.4745 29.3465L19.956 28.1614L18.9928 28.5469Z" fill="white"/>
</svg>
