<svg width="81" height="33" viewBox="0 0 81 33" fill="none" xmlns="http://www.w3.org/2000/svg">
<path d="M13.2388 5.60734L17.7695 20.511C18.0466 21.4228 17.0123 22.1688 16.2346 21.6178L3.3449 12.4865C2.20822 11.6812 2.22232 9.98966 3.37228 9.20348L10.1965 4.53801C11.3115 3.77572 12.8459 4.31505 13.2388 5.60734Z" fill="white"/>
<path d="M6.19951 22.5486L11.9038 25.751C12.7349 26.2175 12.5042 27.4718 11.5615 27.6121L5.029 28.5844C3.65117 28.7895 2.49095 27.5585 2.77724 26.1952L3.26313 23.8815C3.54073 22.5596 5.02174 21.8874 6.19951 22.5486Z" fill="white"/>
<path d="M76.0545 25.9406L69.7955 27.8433C68.8837 28.1205 68.1378 27.0861 68.6887 26.3085L72.5065 20.9192C73.3118 19.7826 75.0034 19.7967 75.7895 20.9466L77.1238 22.8983C77.8861 24.0133 77.3468 25.5477 76.0545 25.9406Z" fill="white"/>
</svg>
