<svg width="23" height="27" viewBox="0 0 23 27" fill="none" xmlns="http://www.w3.org/2000/svg">
<path d="M4.86281 2.96523C7.28986 0.593046 10.3526 0 11.5805 0V7.80419C10.6249 7.80419 10.1711 8.24945 10.0636 8.47208C5.55626 6.60822 3.27367 3.03583 2.6958 1.48261C3.21588 2.16038 4.35718 2.75343 4.86281 2.96523Z" fill="white"/>
<path d="M18.1382 2.96523C15.7111 0.593046 12.6484 0 11.4204 0V7.80419C12.376 7.80419 12.8299 8.24945 12.9373 8.47208C17.4447 6.60822 19.7273 3.03583 20.3052 1.48261C19.7851 2.16038 18.6438 2.75343 18.1382 2.96523Z" fill="white"/>
<path d="M6.27155 7.87016C6.95511 8.3739 8.49363 9.44051 9.17923 9.67705C7.87384 10.0767 5.46477 10.275 6.27155 7.87016Z" fill="white"/>
<path d="M5.04486 6.81888C4.61462 6.5035 3.86843 5.49384 3.54911 5.02843C2.30788 6.2416 2.173 8.633 2.26072 9.67705C2.26072 17.5585 0.753572 21.2404 0 22.0961L3.19257 19.712L5.35416 23.201L7.86811 21.0646L11.5106 27V25.0442L10.3114 21.0646C9.32978 16.8342 6.30161 14.9517 4.91023 14.5392L7.86811 12.8966L7.96894 11.5332C3.97581 11.5332 4.35574 8.39033 5.04486 6.81888Z" fill="white"/>
<path d="M16.7285 7.87016C16.0449 8.3739 14.5064 9.44051 13.8208 9.67705C15.1262 10.0767 17.5352 10.275 16.7285 7.87016Z" fill="white"/>
<path d="M17.9551 6.81888C18.3854 6.5035 19.1316 5.49384 19.4509 5.02843C20.6921 6.2416 20.827 8.633 20.7393 9.67705C20.7393 17.5585 22.2464 21.2404 23 22.0961L19.8074 19.712L17.6458 23.201L15.1319 21.0646L11.4894 27V25.0442L12.6886 21.0646C13.6702 16.8342 16.6984 14.9517 18.0898 14.5392L15.1319 12.8966L15.0311 11.5332C19.0242 11.5332 18.6443 8.39033 17.9551 6.81888Z" fill="white"/>
<path d="M9.55498 11.942C9.55498 10.384 10.9142 9.61704 11.5937 9.42832V20.2983C11.5937 17.454 9.21511 15.2936 8.0258 14.5689L9.55498 13.6404V11.942Z" fill="white"/>
<path d="M13.6285 11.942C13.6285 10.384 12.2693 9.61704 11.5897 9.42832V20.2983C11.5897 17.454 13.9683 15.2936 15.1576 14.5689L13.6285 13.6404V11.942Z" fill="white"/>
</svg>
