<svg width="26" height="21" viewBox="0 0 26 21" fill="none" xmlns="http://www.w3.org/2000/svg">
<path fill-rule="evenodd" clip-rule="evenodd" d="M23.3068 0.143667C23.6265 0.0164576 23.9764 -0.0274162 24.3201 0.016612C24.6638 0.0606403 24.9887 0.190961 25.2611 0.394011C25.5334 0.59706 25.7432 0.865415 25.8687 1.17114C25.9941 1.47687 26.0306 1.8088 25.9743 2.13237L23.0404 18.9581C22.7558 20.5811 20.8723 21.5118 19.2979 20.7034C17.981 20.027 16.0251 18.985 14.2658 17.8977C13.3861 17.3534 10.6915 15.6106 11.0227 14.3704C11.3073 13.31 15.8349 9.32522 18.4222 6.95614C19.4377 6.02539 18.9745 5.48846 17.7754 6.34461C14.7975 8.4703 10.0163 11.7029 8.43549 12.6128C7.04098 13.4152 6.31397 13.5521 5.44466 13.4152C3.8587 13.1656 2.38786 12.7792 1.18739 12.3083C-0.434798 11.6723 -0.355888 9.56372 1.1861 8.94974L23.3068 0.143667Z" fill="white"/>
</svg>
