<svg width="67" height="68" viewBox="0 0 67 68" fill="none" xmlns="http://www.w3.org/2000/svg">
<rect x="1.5" y="2" width="64" height="64" rx="18" fill="black"/>
<rect x="1.5" y="2" width="64" height="64" rx="18" stroke="white" stroke-width="3"/>
<path fill-rule="evenodd" clip-rule="evenodd" d="M28.7352 14.8236C26.1877 16.1655 24.1036 17.3011 24.104 17.3473C24.1051 17.4665 30.218 20.597 30.4349 20.5894C30.5336 20.5861 31.2496 20.2528 32.0259 19.8489L33.4376 19.1146L36.5209 20.7175L39.0456 19.5703C42.8499 17.8416 43.245 17.6522 43.183 17.5886C43.1009 17.5041 41.7364 16.7628 38.0344 14.792C36.2452 13.8394 34.5087 12.9055 34.1754 12.7165C33.842 12.5275 33.5238 12.3755 33.4682 12.3784C33.4126 12.3814 31.2827 13.4817 28.7352 14.8236ZM17.5621 20.6744L14.9102 22.0596V28.1389C14.9102 31.4826 14.945 34.2182 14.9877 34.2182C15.0303 34.2182 16.335 33.6462 17.887 32.9472L20.7089 31.6762V25.2683L22.0879 26.028C23.1505 26.6129 24.2137 27.1966 25.2776 27.7791L27.0884 28.7705L27.8941 28.4021C28.3994 28.1706 28.9037 27.9369 29.407 27.701C29.7959 27.5179 30.7506 27.083 31.5285 26.7345C32.3063 26.3859 33.0264 26.0353 33.1285 25.9554C33.2641 25.8493 31.6102 24.9251 27.0113 22.5368C23.5446 20.7366 20.5971 19.2695 20.4611 19.2765C20.3252 19.2835 19.0206 19.9125 17.5621 20.6744ZM43.661 21.0634C41.8549 21.8879 40.3759 22.5955 40.3742 22.6359C40.3726 22.6762 41.357 23.268 42.5619 23.951C43.7666 24.634 44.7524 25.2294 44.7524 25.2742C44.7524 25.319 43.6863 25.8413 42.3834 26.4353C41.0804 27.0291 37.7869 28.5331 35.0643 29.7777L25.9419 33.9475C23.6472 34.9965 21.5787 35.9421 21.3454 36.0489C16.6583 38.1946 15.37 38.79 15.193 38.8922C15.0151 38.9951 14.9748 39.5928 14.9432 42.5931L14.9054 46.1715L19.6482 48.6152L22.9365 47.1145C24.7451 46.2892 26.2248 45.5706 26.2248 45.5177C26.2248 45.4649 25.8906 45.2447 25.4823 45.0282C25.0738 44.8116 24.2306 44.3322 23.6083 43.9626C22.986 43.593 22.3655 43.2539 22.2293 43.2089C22.0931 43.164 21.9837 43.0856 21.9859 43.0344C21.9882 42.9834 23.4362 42.2878 25.2035 41.4887C28.6362 39.9366 31.2632 38.7404 36.9029 36.1614C39.4248 35.0083 41.947 33.856 44.4695 32.7044C46.6865 31.6925 49.2641 30.5107 50.1975 30.0781L51.8947 29.2917L51.9704 22.0536L49.5652 20.8052C48.2423 20.1187 47.1115 19.5586 47.0522 19.5606C46.993 19.5625 45.4669 20.2387 43.661 21.0634ZM51.2503 34.1198C50.8959 34.2949 50.1958 34.6227 49.6946 34.8482C49.1934 35.0737 48.2423 35.5076 47.581 35.8127L46.3788 36.3672L46.3514 39.5445C46.3363 41.2919 46.2727 42.7139 46.21 42.7047C46.0677 42.6833 43.8146 41.5147 41.5497 40.2875C39.915 39.4018 39.8123 39.3666 39.4282 39.559C39.2061 39.6702 37.8788 40.2722 36.4786 40.8969C35.0784 41.5215 33.8872 42.0734 33.8311 42.1233C33.7753 42.1732 36.5933 43.7178 40.0936 45.5558L46.4577 48.8977L49.1763 47.4756C50.6713 46.6935 51.9427 45.9801 52.0012 45.8904C52.133 45.6886 52.1217 33.7738 51.9898 33.7899C51.9376 33.7963 51.6048 33.9447 51.2503 34.1198ZM36.1958 48.1048C35.7242 48.3098 35.2528 48.5152 34.7814 48.7208C33.3582 49.3434 33.6371 49.3641 31.9439 48.5117C30.8161 47.944 30.33 47.7688 30.119 47.8538C29.9607 47.9176 28.5986 48.5373 27.0918 49.2309C25.5851 49.9246 24.3 50.4921 24.2361 50.4921C23.6039 50.4921 24.6549 51.1271 28.7103 53.1958L33.4664 55.6216L35.4675 54.6226C36.5682 54.0731 38.7881 52.9728 40.4008 52.1774C42.0134 51.3819 43.3129 50.7104 43.2886 50.6851C43.2641 50.6598 41.9128 49.9582 40.2857 49.1258L37.3272 47.6126L36.1958 48.1048Z" fill="white"/>
</svg>
