<svg width="24" height="29" viewBox="0 0 24 29" fill="none" xmlns="http://www.w3.org/2000/svg">
<path d="M5.07424 3.18488C7.60681 0.636975 10.8027 0 12.084 0V8.38228C11.0869 8.38228 10.6133 8.86052 10.5012 9.09965C5.79783 7.09772 3.41601 3.26071 2.81301 1.59244C3.35571 2.32041 4.54662 2.95738 5.07424 3.18488Z" fill="black"/>
<path d="M18.9268 3.18488C16.3942 0.636975 13.1983 0 11.917 0V8.38228C12.9141 8.38228 13.3877 8.86052 13.4998 9.09965C18.2032 7.09772 20.585 3.26071 21.188 1.59244C20.6453 2.32041 19.4544 2.95738 18.9268 3.18488Z" fill="black"/>
<path d="M6.54422 8.45314C7.25751 8.99419 8.86292 10.1398 9.57833 10.3939C8.21619 10.8232 5.70236 11.0361 6.54422 8.45314Z" fill="black"/>
<path d="M5.2642 7.32399C4.81525 6.98524 4.03662 5.90079 3.70342 5.4009C2.40822 6.70394 2.26748 9.27248 2.35901 10.3939C2.35901 18.8591 0.786336 22.8137 0 23.7329L3.33137 21.1722L5.58695 24.9195L8.2102 22.6249L12.0111 29V26.8993L10.7598 22.6249C9.73543 18.0811 6.57559 16.0592 5.12371 15.6162L8.2102 13.8519L8.31542 12.3875C4.14867 12.3875 4.54512 9.01183 5.2642 7.32399Z" fill="black"/>
<path d="M17.4558 8.45314C16.7425 8.99419 15.1371 10.1398 14.4217 10.3939C15.7838 10.8232 18.2976 11.0361 17.4558 8.45314Z" fill="black"/>
<path d="M18.7358 7.32399C19.1847 6.98524 19.9634 5.90079 20.2966 5.4009C21.5918 6.70394 21.7325 9.27248 21.641 10.3939C21.641 18.8591 23.2137 22.8137 24 23.7329L20.6686 21.1722L18.413 24.9195L15.7898 22.6249L11.9889 29V26.8993L13.2402 22.6249C14.2646 18.0811 17.4244 16.0592 18.8763 15.6162L15.7898 13.8519L15.6846 12.3875C19.8513 12.3875 19.4549 9.01183 18.7358 7.32399Z" fill="black"/>
<path d="M9.97041 12.8266C9.97041 11.1532 11.3887 10.3294 12.0978 10.1267V21.8018C12.0978 18.7468 9.61577 16.4264 8.37475 15.6481L9.97041 14.6508V12.8266Z" fill="black"/>
<path d="M14.221 12.8266C14.221 11.1532 12.8027 10.3294 12.0936 10.1267V21.8018C12.0936 18.7468 14.5756 16.4264 15.8167 15.6481L14.221 14.6508V12.8266Z" fill="black"/>
</svg>
