<svg width="27" height="23" viewBox="0 0 27 23" fill="none" xmlns="http://www.w3.org/2000/svg">
<path d="M24.6981 0.203051C24.6981 0.203051 27.1958 -0.79252 26.9877 1.6253C26.9183 2.62088 26.2939 6.10538 25.8082 9.87435L24.1431 21.039C24.1431 21.039 24.0044 22.6746 22.7555 22.959C21.5066 23.2435 19.6334 21.9635 19.2864 21.679C19.0089 21.4657 14.083 18.2656 12.3484 16.7011C11.8627 16.2745 11.3077 15.4211 12.4178 14.4255L19.7027 7.31432C20.5353 6.46096 21.3679 4.46982 17.8988 6.88764L8.18557 13.6433C8.18557 13.6433 7.07548 14.3544 4.9941 13.7144L0.484342 12.2922C0.484342 12.2922 -1.18079 11.2255 1.66381 10.1588C8.60188 6.81647 17.1357 3.40308 24.6981 0.203051Z" fill="black"/>
</svg>
