<svg width="36" height="43" viewBox="0 0 36 43" fill="none" xmlns="http://www.w3.org/2000/svg">
<g opacity="0.2">
<path d="M7.61136 4.7224C11.4102 0.94448 15.9534 0 17.8755 0C19.7975 0 24.5913 0.94448 28.3902 4.7224C29.1816 4.38509 30.968 3.44061 31.782 2.3612C30.8775 4.83484 27.3048 10.5242 20.2498 13.4926C20.0815 13.138 19.3712 12.4289 17.8755 12.4289C16.3798 12.4289 15.92 13.138 15.7518 13.4926C8.69675 10.5242 5.12401 4.83484 4.21952 2.3612C5.03356 3.44061 6.81993 4.38509 7.61136 4.7224Z" fill="black"/>
<path d="M9.81633 12.534C10.8863 13.3362 13.2944 15.0349 14.3675 15.4116C12.3243 16.0482 8.55355 16.3638 9.81633 12.534Z" fill="black"/>
<path d="M5.55513 8.00823C6.05493 8.74944 7.22288 10.3574 7.8963 10.8597C6.81769 13.3624 6.223 18.3677 12.4731 18.3677L12.3153 20.539L7.68557 23.155C9.86338 23.8119 14.6031 26.8099 16.1397 33.5473L17.9833 39.8852L19.8603 33.5473C21.3969 26.8099 26.1366 23.8119 28.3144 23.155L23.6847 20.539L23.5269 18.3677C29.777 18.3677 29.1823 13.3624 28.1037 10.8597C28.7771 10.3574 29.9451 8.74944 30.4449 8.00823C32.3877 9.94033 32.5988 13.7488 32.4615 15.4116C32.4615 27.9635 34.8205 33.8273 36 35.1901L31.0029 31.3932L27.6196 36.9497L23.6847 33.5473L17.9833 43L12.3153 33.5473L8.38043 36.9497L4.99706 31.3932L0 35.1901C1.1795 33.8273 3.53851 27.9635 3.53851 15.4116C3.40122 13.7488 3.61233 9.94033 5.55513 8.00823Z" fill="black"/>
<path d="M26.1837 12.534C25.1137 13.3362 22.7056 15.0349 21.6325 15.4116C23.6757 16.0482 27.4465 16.3638 26.1837 12.534Z" fill="black"/>
<path d="M14.9556 19.0187C14.9556 16.5374 17.0767 15.316 18.1404 15.0155C19.2041 15.316 21.3315 16.5374 21.3315 19.0187V21.7236L23.725 23.2023C21.8635 24.3564 18.1467 27.797 18.1467 32.3269C18.1467 27.797 14.4237 24.3564 12.5621 23.2023L14.9556 21.7236V19.0187Z" fill="black"/>
</g>
</svg>
