<svg width="39" height="36" viewBox="0 0 39 36" fill="none" xmlns="http://www.w3.org/2000/svg">
<path opacity="0.2" fill-rule="evenodd" clip-rule="evenodd" d="M34.9603 0.246287C35.4398 0.028213 35.9646 -0.0469992 36.4802 0.0284778C36.9957 0.103955 37.4831 0.327363 37.8916 0.675447C38.3001 1.02353 38.6149 1.48357 38.803 2.00767C38.9911 2.53178 39.0458 3.1008 38.9614 3.6555L34.5605 32.4996C34.1336 35.2819 31.3084 36.8774 28.9469 35.4915C26.9716 34.3321 24.0377 32.5457 21.3987 30.6817C20.0792 29.7487 16.0373 26.7609 16.5341 24.6349C16.961 22.8171 23.7524 15.9861 27.6333 11.9248C29.1565 10.3292 28.4618 9.40879 26.663 10.8765C22.1962 14.5205 15.0244 20.062 12.6532 21.622C10.5615 22.9974 9.47095 23.2322 8.16699 22.9974C5.78804 22.5697 3.58179 21.9071 1.78108 21.0999C-0.652197 20.0096 -0.533832 16.3949 1.77914 15.3424L34.9603 0.246287Z" fill="black"/>
</svg>
