<svg width="244" height="83" viewBox="0 0 244 83" fill="none" xmlns="http://www.w3.org/2000/svg">
<path d="M120.635 55.4438L121.498 80.7045L167.005 77.2419L166.14 51.979L120.635 55.4438Z" fill="#E6F5FA"/>
<path d="M38.8721 48.0789L120.635 55.4439L166.14 51.9791L184.695 57.5852L214.298 50.6182L243.135 21.2529L153.142 0L57.338 2.70854L0 23.3678L38.8721 48.0789Z" fill="white"/>
<path d="M93.3105 52.9816L104.96 39.6565L84.4424 52.8563L93.3105 52.9816Z" fill="#9BD6EA"/>
<path d="M214.298 50.6183L215.161 75.879L244 46.5137L243.135 21.2529L214.298 50.6183Z" fill="#E6F5FA"/>
<path d="M184.695 57.5852L185.558 82.8459L215.161 75.879L214.298 50.6182L184.695 57.5852Z" fill="#BBE4F1"/>
<path d="M166.14 51.979L167.005 77.2419L185.558 82.8459L184.695 57.5851L166.14 51.979Z" fill="#9BD6EA"/>
<path d="M38.8721 48.0789L39.7348 73.3396L121.497 80.7046L120.635 55.4438L38.8721 48.0789Z" fill="#BBE4F1"/>
<path d="M84.4424 52.8562L85.1552 72.0557L93.3105 52.9815L84.4424 52.8562Z" fill="#9BD6EA"/>
<path d="M0 23.3679L0.86264 48.6286L39.7348 73.3398L38.8721 48.079L0 23.3679Z" fill="#9BD6EA"/>
</svg>
