<svg width="47" height="56" viewBox="0 0 47 56" fill="none" xmlns="http://www.w3.org/2000/svg">
<g id="Group 3">
<g id="Group 2">
<path id="Vector 6" d="M9.83752 6.13521C14.7457 1.22704 20.9393 0 23.4226 0L23.4226 16.1473C21.4902 16.1473 20.5724 17.0685 20.355 17.5292C11.2399 13.6727 6.62384 6.28128 5.45523 3.0676C6.50698 4.46994 8.81499 5.69698 9.83752 6.13521Z" fill="white"/>
<path id="Vector 9" d="M36.6816 6.13521C31.7734 1.22704 25.5798 0 23.0965 0L23.0965 16.1473C25.029 16.1473 25.9468 17.0685 26.1641 17.5292C35.2793 13.6727 39.8953 6.28128 41.0639 3.0676C40.0122 4.46994 37.7041 5.69698 36.6816 6.13521Z" fill="white"/>
<g id="Vector 7">
<path d="M12.6828 16.2828C14.0651 17.325 17.1764 19.5319 18.5629 20.0213C15.9231 20.8483 11.0512 21.2584 12.6828 16.2828Z" fill="white"/>
<path d="M10.2021 14.1076C9.332 13.4551 7.823 11.366 7.17725 10.4031C4.66713 12.9132 4.39437 17.8611 4.57176 20.0213C4.57176 36.3284 1.5239 43.9464 -3.05176e-05 45.717L6.45622 40.7842L10.8276 48.0029L15.9115 43.5826L23.2777 55.8633L23.2777 51.8167L20.8526 43.5826C18.8674 34.8297 12.7436 30.9347 9.9298 30.0814L15.9115 26.6827L16.1154 23.8618C8.04015 23.8618 8.80849 17.359 10.2021 14.1076Z" fill="white"/>
</g>
<g id="Vector 10">
<path d="M33.8317 16.2825C32.4494 17.3248 29.3381 19.5316 27.9516 20.0211C30.5914 20.8481 35.4633 21.2582 33.8317 16.2825Z" fill="white"/>
<path d="M36.3124 14.1074C37.1825 13.4548 38.6915 11.3658 39.3372 10.4028C41.8474 12.9129 42.1201 17.8609 41.9427 20.0211C41.9427 36.3282 44.9906 43.9462 46.5145 45.7168L40.0583 40.784L35.6869 48.0027L30.603 43.5824L23.2368 55.8631L23.2368 51.8165L25.6619 43.5824C27.6471 34.8295 33.7709 30.9345 36.5847 30.0811L30.603 26.6824L30.3991 23.8615C38.4743 23.8615 37.706 17.3588 36.3124 14.1074Z" fill="white"/>
</g>
<path id="Vector 8" d="M19.3189 24.7078C19.3189 21.4841 22.0675 19.8973 23.4418 19.5068L23.4418 41.9973C23.4418 36.1123 18.6316 31.6423 16.2265 30.1429L19.3189 28.2219V24.7078Z" fill="white"/>
<path id="Vector 11" d="M27.564 24.7078C27.564 21.4841 24.8154 19.8973 23.441 19.5068L23.441 41.9973C23.441 36.1123 28.2513 31.6423 30.6564 30.1429L27.564 28.2219V24.7078Z" fill="white"/>
</g>
</g>
</svg>
