<svg width="51" height="41" viewBox="0 0 51 41" fill="none" xmlns="http://www.w3.org/2000/svg">
<path id="Vector" fill-rule="evenodd" clip-rule="evenodd" d="M45.3355 0.280494C45.9503 0.0321315 46.6231 -0.0535269 47.2841 0.032433C47.945 0.118393 48.5699 0.37283 49.0937 0.769259C49.6174 1.16569 50.0209 1.68962 50.2621 2.28652C50.5033 2.88342 50.5734 3.53146 50.4652 4.1632L44.823 37.0134C44.2757 40.1821 40.6536 41.9993 37.6261 40.4209C35.0936 39.1004 31.3322 37.0659 27.9489 34.9431C26.2572 33.8805 21.0753 30.4777 21.7122 28.0564C22.2595 25.9861 30.9665 18.2064 35.9419 13.581C37.8947 11.7639 37.0042 10.7156 34.698 12.3871C28.9713 16.5372 19.7767 22.8484 16.7367 24.625C14.055 26.1915 12.6569 26.4589 10.9852 26.1915C7.93522 25.7044 5.10669 24.9498 2.79809 24.0304C-0.321502 22.7887 -0.169751 18.672 2.7956 17.4733L45.3355 0.280494Z" fill="white"/>
</svg>
