<svg width="168" height="83" viewBox="0 0 168 83" fill="none" xmlns="http://www.w3.org/2000/svg">
<path d="M84.9398 55.4438L84.3459 80.7045L53.0129 77.2419L53.6085 51.979L84.9398 55.4438Z" fill="#E6F5FA"/>
<path d="M141.236 48.0789L84.94 55.4439L53.6086 51.9791L40.8328 57.5852L20.4505 50.6182L0.595576 21.2529L62.5578 0L128.521 2.70854L168 23.3678L141.236 48.0789Z" fill="white"/>
<path d="M103.754 52.9816L95.7327 39.6565L109.859 52.8563L103.754 52.9816Z" fill="#9BD6EA"/>
<path d="M20.4505 50.6183L19.8566 75.879L-6.41798e-06 46.5137L0.595611 21.2529L20.4505 50.6183Z" fill="#E6F5FA"/>
<path d="M40.8327 57.5852L40.2388 82.8459L19.8564 75.879L20.4504 50.6182L40.8327 57.5852Z" fill="#BBE4F1"/>
<path d="M53.6085 51.979L53.0129 77.2419L40.2388 82.8459L40.8327 57.5851L53.6085 51.979Z" fill="#9BD6EA"/>
<path d="M141.236 48.0789L140.642 73.3396L84.346 80.7046L84.94 55.4438L141.236 48.0789Z" fill="#BBE4F1"/>
<path d="M109.859 52.8562L109.369 72.0557L103.754 52.9815L109.859 52.8562Z" fill="#9BD6EA"/>
<path d="M168 23.3679L167.406 48.6286L140.642 73.3398L141.236 48.079L168 23.3679Z" fill="#9BD6EA"/>
</svg>
