<svg width="142" height="83" viewBox="0 0 142 83" fill="none" xmlns="http://www.w3.org/2000/svg">
<path d="M70.2054 55.4438L70.7075 80.7045L97.1913 77.2419L96.6879 51.979L70.2054 55.4438Z" fill="#E6F5FA"/>
<path d="M22.6223 48.0789L70.2054 55.4439L96.6879 51.9791L107.486 57.5852L124.714 50.6182L141.496 21.2529L89.1237 0L33.3688 2.70854L0 23.3678L22.6223 48.0789Z" fill="white"/>
<path d="M54.3036 52.9816L61.0831 39.6565L49.1426 52.8563L54.3036 52.9816Z" fill="#9BD6EA"/>
<path d="M124.714 50.6183L125.216 75.879L142 46.5137L141.497 21.2529L124.714 50.6183Z" fill="#E6F5FA"/>
<path d="M107.486 57.5852L107.988 82.8459L125.216 75.879L124.714 50.6182L107.486 57.5852Z" fill="#BBE4F1"/>
<path d="M96.6879 51.979L97.1913 77.2419L107.988 82.8459L107.486 57.5851L96.6879 51.979Z" fill="#9BD6EA"/>
<path d="M22.6223 48.0789L23.1243 73.3396L70.7075 80.7046L70.2054 55.4438L22.6223 48.0789Z" fill="#BBE4F1"/>
<path d="M49.1426 52.8562L49.5575 72.0557L54.3036 52.9815L49.1426 52.8562Z" fill="#9BD6EA"/>
<path d="M0 23.3679L0.502028 48.6286L23.1243 73.3398L22.6223 48.079L0 23.3679Z" fill="#9BD6EA"/>
</svg>
