<svg width="12" height="14" viewBox="0 0 12 14" fill="none" xmlns="http://www.w3.org/2000/svg">
<path d="M1.58392 0.899625C1.55525 1.39278 1.62566 1.88672 1.79078 2.35071C1.95589 2.8147 2.21218 3.23882 2.54369 3.59666C1.89935 3.78647 1.32248 4.16434 0.883064 4.6844C0.443647 5.20446 0.160571 5.84438 0.068183 6.5265C-0.154602 8.16344 0.172239 9.82951 0.994807 11.25L1.23154 11.66C1.24051 11.6751 1.25022 11.6897 1.26062 11.7038L2.21836 13.0283C2.42121 13.309 2.68118 13.5409 2.98017 13.7079C3.27915 13.8749 3.60997 13.9729 3.94958 13.9951C4.28919 14.0174 4.62943 13.9633 4.94662 13.8366C5.26381 13.71 5.55032 13.5138 5.7862 13.2618C5.81378 13.2323 5.84686 13.2089 5.88347 13.1929C5.92008 13.1769 5.95946 13.1686 5.99925 13.1686C6.03904 13.1686 6.07842 13.1769 6.11504 13.1929C6.15165 13.2089 6.18473 13.2323 6.21231 13.2618C6.44819 13.5138 6.7347 13.71 7.05189 13.8366C7.36908 13.9633 7.70932 14.0174 8.04893 13.9951C8.38854 13.9729 8.71936 13.8749 9.01834 13.7079C9.31733 13.5409 9.5773 13.309 9.78015 13.0283L10.7379 11.7031C10.7481 11.689 10.7576 11.6744 10.7663 11.6593L11.0037 11.2493C11.8267 9.82946 12.1542 8.16391 11.9324 6.52719C11.8669 6.04492 11.7057 5.58159 11.4589 5.16589C11.2121 4.75019 10.8849 4.39096 10.4975 4.11045C10.1101 3.82994 9.67076 3.63411 9.20673 3.5351C8.7427 3.43608 8.26382 3.43599 7.79975 3.53481L6.51397 3.80862H6.51194C6.53223 3.26657 6.61475 2.68282 6.7764 2.18386C6.97255 1.58066 7.24445 1.2179 7.54746 1.08865C7.67168 1.03538 7.77023 0.933597 7.82141 0.805683C7.87259 0.677768 7.87222 0.534203 7.82038 0.40657C7.76853 0.278937 7.66947 0.177691 7.54497 0.125105C7.42047 0.0725185 7.28074 0.0728997 7.15652 0.126165C6.44498 0.43124 6.04051 1.15467 5.81393 1.85377L5.78282 1.95245C5.61625 1.62177 5.40113 1.3194 5.145 1.05599C4.79422 0.695171 4.37284 0.415038 3.90876 0.234135C3.44469 0.0532323 2.9485 -0.0243123 2.45306 0.00663618C2.22696 0.0200077 2.01349 0.118177 1.85316 0.282523C1.69284 0.446869 1.59679 0.66596 1.58325 0.898235L1.58392 0.899625ZM3.56298 6.33053C3.32828 6.37848 3.11319 6.54804 2.97859 6.87119C2.84129 7.20058 2.79259 7.68912 2.94072 8.29858C2.97117 8.43187 2.94935 8.57212 2.87998 8.68902C2.8106 8.80591 2.69925 8.89007 2.56998 8.9233C2.4407 8.95652 2.3039 8.93616 2.18912 8.86659C2.07435 8.79703 1.99083 8.68386 1.9566 8.55153C1.76722 7.77182 1.80307 7.04353 2.04588 6.46048C2.2914 5.87187 2.75269 5.43337 3.36412 5.30828C3.43039 5.29221 3.49912 5.29001 3.56623 5.30181C3.63334 5.31361 3.69746 5.33917 3.75475 5.37697C3.81204 5.41476 3.86134 5.46402 3.89971 5.52181C3.93808 5.5796 3.96474 5.64473 3.97809 5.71332C3.99144 5.78192 3.99122 5.85258 3.97743 5.92108C3.96365 5.98959 3.93658 6.05454 3.89784 6.11207C3.85911 6.1696 3.80949 6.21853 3.75196 6.25594C3.69443 6.29335 3.63016 6.31918 3.56298 6.33053Z" fill="white"/>
</svg>
