<svg width="11" height="13" viewBox="0 0 11 13" fill="none" xmlns="http://www.w3.org/2000/svg">
<path d="M5.2 13C3.82417 13 2.61343 12.5116 1.5678 11.5347C0.522167 10.5579 -0.000433064 9.23569 2.69263e-07 7.56815C2.69263e-07 6.51932 0.39 5.38217 1.17 4.15669C1.95 2.93121 3.13083 1.60637 4.7125 0.182166C4.7775 0.126964 4.85333 0.0828026 4.94 0.0496816C5.02667 0.0165605 5.11333 0 5.2 0C5.28667 0 5.37333 0.0165605 5.46 0.0496816C5.54667 0.0828026 5.6225 0.126964 5.6875 0.182166C7.26917 1.60637 8.45 2.93121 9.23 4.15669C10.01 5.38217 10.4 6.51932 10.4 7.56815C10.4 9.23524 9.87718 10.5574 8.83155 11.5347C7.78592 12.512 6.5754 13.0004 5.2 13ZM5.37875 11.0127C5.50875 11.0017 5.6199 10.9491 5.7122 10.8551C5.8045 10.761 5.85043 10.648 5.85 10.5159C5.85 10.3614 5.80125 10.237 5.70375 10.143C5.60625 10.0489 5.48167 10.0076 5.33 10.0191C4.88583 10.0522 4.41458 9.92792 3.91625 9.64617C3.41792 9.36442 3.10375 8.85391 2.97375 8.11465C2.95208 7.99321 2.89532 7.89384 2.80345 7.81656C2.71158 7.73928 2.60585 7.70064 2.48625 7.70064C2.33458 7.70064 2.21 7.75871 2.1125 7.87485C2.015 7.991 1.9825 8.12613 2.015 8.28026C2.19917 9.28493 2.6325 10.0025 3.315 10.4331C3.9975 10.8637 4.68542 11.0569 5.37875 11.0127Z" fill="white"/>
</svg>
