<svg width="14" height="14" viewBox="0 0 14 14" fill="none" xmlns="http://www.w3.org/2000/svg">
<g clip-path="url(#clip0_2055_439)">
<path d="M0.0676256 6.27051L7.22479 13.4277L8.77551 11.877L5.70815 8.8096L8.80959 5.70816L11.8769 8.77552L13.4277 7.2248L6.2705 0.0676325L4.71978 1.61835L7.78714 4.68571L4.6857 7.78715L1.61834 4.71979L0.0676256 6.27051ZM3.62917 12.9335C3.76475 13.0691 3.94924 13.1446 4.14206 13.1436C4.33487 13.1425 4.52021 13.0649 4.6573 12.9278L5.17421 12.4109L1.0844 8.32109L0.567491 8.838C0.430399 8.97509 0.352783 9.16043 0.351718 9.35324C0.350652 9.54606 0.426225 9.73055 0.561811 9.86613L1.58426 10.8886L1.06736 11.4055L2.08981 12.4279L2.60672 11.911L3.62917 12.9335ZM9.86613 0.561817C9.73054 0.426232 9.54605 0.350659 9.35324 0.351724C9.16042 0.35279 8.97509 0.430406 8.83799 0.567498L8.32109 1.0844L12.4109 5.17421L12.9278 4.65731C13.0649 4.52021 13.1425 4.33488 13.1436 4.14206C13.1446 3.94925 13.0691 3.76476 12.9335 3.62917L11.911 2.60672L12.4279 2.08982L11.4055 1.06736L10.8886 1.58427L9.86613 0.561817Z" fill="white"/>
</g>
<defs>
<clipPath id="clip0_2055_439">
<rect width="14" height="14" fill="white"/>
</clipPath>
</defs>
</svg>
