<svg width="13" height="13" viewBox="0 0 13 13" fill="none" xmlns="http://www.w3.org/2000/svg">
<path d="M9.11076 13C8.68776 13 8.28363 12.935 7.89838 12.805C7.51356 12.675 7.16388 12.4962 6.84934 12.2687L6.31246 12.805C6.19315 12.9242 6.0413 12.9837 5.85692 12.9837C5.67253 12.9837 5.52069 12.9242 5.40138 12.805C5.28207 12.6858 5.22242 12.5342 5.22242 12.35C5.22242 12.1658 5.28207 12.0142 5.40138 11.895L5.93826 11.3587C5.71049 11.0446 5.53153 10.6953 5.40138 10.311C5.27123 9.92615 5.20615 9.5225 5.20615 9.1C5.20615 8.01667 5.58576 7.09323 6.34499 6.3297C7.10422 5.56573 8.02615 5.18917 9.11076 5.2H12.9991V9.1C13.0208 10.1833 12.6494 11.1042 11.885 11.8625C11.1201 12.6208 10.1954 13 9.11076 13ZM7.35368 10.855C7.47299 10.9742 7.62484 11.0337 7.80922 11.0337C7.99361 11.0337 8.14545 10.9742 8.26476 10.855L9.5663 9.555C9.68561 9.43583 9.74526 9.28417 9.74526 9.1C9.74526 8.91583 9.68561 8.76417 9.5663 8.645C9.44699 8.52583 9.29514 8.46625 9.11076 8.46625C8.92638 8.46625 8.77453 8.52583 8.65522 8.645L7.35368 9.945C7.23438 10.0642 7.17472 10.2158 7.17472 10.4C7.17472 10.5842 7.23438 10.7358 7.35368 10.855ZM2.27769 7.15C1.64861 7.15 1.11173 6.92792 0.667038 6.48375C0.222346 6.03958 0 5.50333 0 4.875V2.6H2.27769C2.90677 2.6 3.44365 2.82208 3.88834 3.26625C4.33303 3.71042 4.55538 4.24667 4.55538 4.875V7.15H2.27769ZM5.85692 3.25V1.625C5.85692 1.17 6.01419 0.785417 6.32872 0.47125C6.64326 0.157083 7.0283 0 7.48384 0H9.11076V1.625C9.11076 2.08 8.95349 2.46458 8.63895 2.77875C8.32441 3.09292 7.93938 3.25 7.48384 3.25H5.85692Z" fill="white"/>
</svg>
