<svg width="14" height="14" viewBox="0 0 14 14" fill="none" xmlns="http://www.w3.org/2000/svg">
<path d="M13.9731 8.79712C13.6387 9.99415 12.9967 11.0828 12.111 11.9546C11.2254 12.8265 10.1269 13.4513 8.9248 13.7668C7.72275 14.0823 6.45904 14.0776 5.25939 13.7531C4.05973 13.4286 2.96594 12.7956 2.08682 11.9171C1.20769 11.0386 0.573877 9.94519 0.248418 8.74568C-0.0770422 7.54618 -0.0828027 6.28235 0.231709 5.07993C0.546221 3.87751 1.17004 2.77839 2.04112 1.89192C2.9122 1.00544 4.00018 0.362508 5.19682 0.027066C5.2845 -0.00116747 5.37776 -0.0074296 5.46842 0.00883016C5.55909 0.0250899 5.64437 0.0633736 5.71677 0.120316C5.78917 0.177259 5.84647 0.251116 5.88365 0.335397C5.92082 0.419678 5.93673 0.511801 5.92996 0.603668C5.92977 0.647249 5.92256 0.690515 5.90861 0.731802C5.62622 1.75114 5.61925 2.82716 5.88841 3.85007C6.15757 4.87299 6.69322 5.80619 7.44072 6.55449C8.18822 7.30279 9.12082 7.83939 10.1434 8.10956C11.1659 8.37974 12.2418 8.37381 13.2614 8.09238L13.418 8.06391C13.5418 8.06293 13.6627 8.10187 13.7627 8.17495C13.8626 8.24803 13.9365 8.35137 13.9731 8.46966C14.009 8.57588 14.009 8.6909 13.9731 8.79712Z" fill="white"/>
</svg>
