<svg width="147" height="135" viewBox="0 0 147 135" fill="none" xmlns="http://www.w3.org/2000/svg">
<path d="M33.3871 21.7856C31.8453 22.9743 30.3555 24.3921 28.9516 26.0011C27.6515 27.4952 26.4639 29.1911 25.3219 31.1849C24.3135 32.9457 23.4319 34.9225 22.701 37.0713C21.9399 39.3043 21.3271 41.6625 20.8768 44.0822C20.4737 46.2404 20.2179 48.5522 20.1112 50.9492C20.0019 53.3751 20.0529 55.7663 20.26 58.0597C20.6612 62.5012 21.6558 67.1093 23.2175 71.7655C24.6878 76.15 26.6798 80.4722 29.1282 84.6141C30.3239 86.641 31.6356 88.6159 33.0315 90.4906C34.3296 92.2379 35.7923 94.0305 37.5077 95.9708C40.5562 99.4187 44.0162 102.647 47.7905 105.564C50.5094 107.674 53.4197 109.579 56.4787 111.258C56.5025 111.266 56.5236 111.277 56.5454 111.289C56.5559 111.298 56.5684 111.304 56.5781 111.309C57.4441 111.784 58.324 112.238 59.2122 112.672C59.3864 112.72 59.5584 112.766 59.732 112.811C59.7289 112.812 59.7266 112.809 59.723 112.811C62.4379 113.511 65.2082 113.981 67.9965 114.281C69.4151 114.435 70.8426 114.548 72.2705 114.632C72.3158 114.635 72.361 114.636 72.4064 114.639C73.5993 114.634 74.7893 114.595 75.9738 114.525C80.7477 114.242 85.4259 113.532 89.8821 112.411C92.3594 111.787 94.5786 111.134 96.6683 110.418C97.8464 110.011 99.0241 109.568 100.172 109.1C101.19 108.684 102.213 108.236 103.205 107.772C107.57 105.734 111.655 103.285 115.345 100.504C119.268 97.5366 122.689 94.2936 125.518 90.861C126.98 89.0907 128.375 87.1444 129.661 85.0745C130.93 83.0244 132.022 80.972 132.905 78.976C133.903 76.7115 134.729 74.4169 135.354 72.1602C135.966 69.9647 136.359 67.8319 136.518 65.8219C136.701 63.5408 136.678 61.4685 136.451 59.4919C136.2 57.3795 135.771 55.368 135.169 53.5077C134.341 50.943 133.188 48.5273 131.738 46.3289C131.086 45.3321 130.36 44.3764 129.586 43.4835C128.203 41.8949 126.831 40.5999 125.381 39.5203C123.734 38.2897 122.062 37.3015 120.411 36.5704C116.75 34.9416 112.691 34.1653 108.671 34.3265C105.072 34.4711 101.344 35.3238 97.5873 36.8588C96.2035 37.4243 94.8056 38.0876 93.4371 38.8306C88.9181 41.2773 84.6763 44.6889 80.8252 48.9576C80.086 43.1565 78.4946 37.8656 76.1171 33.2306C73.4406 28.0207 70.0659 23.8763 66.085 20.9142C62.8636 18.5139 59.0725 16.8643 55.1299 16.1391C53.3523 15.8109 51.4105 15.6824 49.3642 15.7687C47.5535 15.8412 45.6832 16.133 43.6526 16.668C42.5079 16.9685 41.3697 17.35 40.273 17.7984C37.8437 18.7884 35.5254 20.128 33.3871 21.7856Z" fill="#FF0041"/>
<path d="M114.637 36.0324C115.546 37.2346 116.196 38.6213 116.64 40.0532C117.125 41.6078 117.39 43.2267 117.502 44.8454C117.651 47.0082 117.557 49.1873 117.283 51.3344C117.026 53.3995 116.628 55.448 116.086 57.4588C115.838 58.3739 115.569 59.2856 115.259 60.1793C114.834 61.4159 114.354 62.6394 113.821 63.8379C112.646 66.4744 111.236 69.0071 109.63 71.407C106.403 76.2181 102.444 80.5349 97.9981 84.2414C93.754 87.7797 89.0794 90.8156 84.0642 93.1406C79.3556 95.3197 74.368 96.9173 69.2541 97.8054C64.2216 98.6807 59.0746 98.9156 53.9896 98.4164C48.9028 97.9124 43.8838 96.7278 39.1376 94.8125C37.6876 94.2279 36.259 93.5813 34.8635 92.8727C35.6711 93.8717 36.5443 94.9016 37.5004 95.9818C40.5518 99.4376 44.0118 102.666 47.7832 105.575C50.4927 107.68 53.4185 109.597 56.4748 111.275L56.5791 111.316C57.4195 111.79 58.3087 112.249 59.2099 112.69L59.5453 112.778L59.7324 112.828C62.299 113.493 65.0836 113.987 68 114.297C69.3107 114.441 70.706 114.559 72.2739 114.647L72.4067 114.656C73.5748 114.654 74.7759 114.614 75.9772 114.541C80.7518 114.262 85.4337 113.549 89.8958 112.431C92.3566 111.805 94.5758 111.152 96.682 110.437C97.9107 110.005 99.0911 109.564 100.185 109.117C101.139 108.727 102.157 108.278 103.218 107.79C107.574 105.751 111.66 103.306 115.361 100.511C119.291 97.5415 122.716 94.2967 125.533 90.8678C127 89.0957 128.392 87.1496 129.683 85.0795C130.947 83.036 132.036 80.9847 132.927 78.9809C133.93 76.7067 134.753 74.4132 135.378 72.1646C135.992 69.9605 136.381 67.8236 136.539 65.8194C136.726 63.5286 136.705 61.4558 136.476 59.4877C136.225 57.3721 135.796 55.3558 135.196 53.4949C134.369 50.9292 133.213 48.5141 131.765 46.3161C131.116 45.3298 130.389 44.37 129.606 43.4651C128.217 41.8709 126.839 40.5735 125.395 39.5032C123.758 38.2744 122.084 37.2815 120.424 36.5449C118.157 35.537 115.737 34.8559 113.268 34.5214C113.771 34.982 114.226 35.4851 114.637 36.0324Z" fill="#DF0036"/>
<path opacity="0.2" d="M36.478 26.9918C31.1016 31.9902 28.9849 38.4669 31.7541 41.4467C34.5239 44.4253 41.1374 42.7868 46.5144 37.7873C51.8914 32.7878 54.0076 26.3121 51.2383 23.3323C48.4696 20.3542 41.8545 21.9933 36.478 26.9918Z" fill="#FEFEFE"/>
<path opacity="0.2" d="M27.7092 47.6083C26.9175 49.8053 27.6779 52.0935 29.4059 52.7173C31.1334 53.3394 33.1782 52.0605 33.9695 49.8646C34.7601 47.6671 34.0018 45.3772 32.2728 44.7556C30.5458 44.1323 28.501 45.4113 27.7092 47.6083Z" fill="#FEFEFE"/>
</svg>
