<svg width="145" height="132" viewBox="0 0 145 132" fill="none" xmlns="http://www.w3.org/2000/svg">
<path d="M12.3469 62.7631C12.1088 64.6953 12.0702 66.7516 12.2279 68.8811C12.3768 70.8561 12.7483 72.8928 13.3639 75.1065C13.9076 77.0615 14.6941 79.078 15.7088 81.1083C16.7622 83.2191 18.0089 85.3126 19.4135 87.3336C20.6653 89.1373 22.1299 90.9442 23.7599 92.7049C25.4087 94.4877 27.1454 96.1322 28.9222 97.5968C32.3635 100.433 36.3404 102.965 40.7501 105.127C44.9023 107.163 49.3769 108.784 54.0439 109.953C56.3262 110.528 58.6529 110.983 60.9674 111.307C63.1227 111.612 65.426 111.832 68.0119 111.975C72.6071 112.23 77.3352 112.038 82.0633 111.404C85.4754 110.953 88.8758 110.222 92.2199 109.226C92.2423 109.215 92.2649 109.207 92.289 109.2C92.3025 109.199 92.3162 109.195 92.3262 109.191C93.2731 108.91 94.2139 108.602 95.1475 108.276C95.3034 108.185 95.4572 108.095 95.6116 108.004C95.6102 108.007 95.6061 108.006 95.6051 108.01C98.0115 106.571 100.293 104.931 102.466 103.158C103.572 102.257 104.656 101.321 105.719 100.365C105.754 100.335 105.786 100.303 105.821 100.273C106.655 99.4211 107.464 98.5472 108.246 97.6553C111.401 94.0607 114.184 90.2338 116.519 86.2767C117.816 84.0756 118.911 82.0379 119.871 80.0486C120.41 78.9248 120.922 77.7755 121.396 76.63C121.815 75.6133 122.216 74.5709 122.583 73.539C124.202 69.0017 125.331 64.3746 125.946 59.7955C126.593 54.919 126.691 50.2063 126.238 45.7816C126.006 43.4972 125.602 41.1367 125.034 38.7673C124.467 36.4238 123.775 34.2039 122.976 32.1733C122.067 29.8718 121.015 27.671 119.849 25.6407C118.718 23.6617 117.477 21.8831 116.159 20.3571C114.665 18.6242 113.175 17.1837 111.609 15.9558C109.93 14.6494 108.198 13.5407 106.451 12.6617C104.046 11.4476 101.516 10.5703 98.9338 10.0562C97.7662 9.81941 96.5765 9.66381 95.3969 9.58709C93.2952 9.45393 91.4092 9.52013 89.6221 9.79268C87.5894 10.0989 85.7112 10.5939 84.0306 11.2544C80.2987 12.7136 76.8936 15.0552 74.183 18.0277C71.7561 20.6894 69.7426 23.9402 68.1937 27.6916C67.6233 29.0733 67.1125 30.5339 66.6791 32.0296C65.2432 36.9637 64.6884 42.3789 65.0179 48.1186C60.372 44.5669 55.49 41.98 50.5219 40.4133C44.9348 38.6553 39.6148 38.1426 34.7098 38.8923C30.7381 39.4966 26.9001 41.0338 23.6131 43.3285C22.1302 44.3622 20.674 45.6531 19.2971 47.1693C18.0759 48.5082 16.9689 50.0437 15.9222 51.8641C15.3313 52.8896 14.8027 53.9673 14.3508 55.0626C13.3474 57.4865 12.6708 60.077 12.3469 62.7631Z" fill="#FF0041"/>
<path d="M79.5897 14.9829C81.0838 15.1814 82.5271 15.6937 83.8573 16.3846C85.3038 17.1326 86.642 18.0815 87.8721 19.1397C89.5149 20.5542 90.9994 22.1522 92.3338 23.8564C93.6222 25.4907 94.7996 27.2136 95.8485 29.0129C96.3254 29.8322 96.7845 30.6647 97.2026 31.5131C97.7837 32.6845 98.3165 33.8859 98.7946 35.1072C99.8435 37.7966 100.655 40.5792 101.233 43.4084C102.386 49.0858 102.675 54.9358 102.186 60.7036C101.72 66.2095 100.593 71.6684 98.7222 76.87C96.9626 81.7509 94.5933 86.4215 91.6306 90.6833C88.7159 94.8782 85.2653 98.7044 81.336 101.971C77.4022 105.235 73.0318 107.972 68.3334 110.002C66.8984 110.622 65.4343 111.184 63.9494 111.679C65.2277 111.806 66.574 111.909 68.0143 111.988C72.6173 112.247 77.3453 112.055 82.0657 111.417C85.4674 110.969 88.8873 110.235 92.2296 109.241L92.3316 109.195C93.2598 108.931 94.211 108.621 95.1579 108.29L95.4565 108.113L95.6238 108.015C97.9008 106.657 100.209 105.023 102.48 103.167C103.503 102.336 104.568 101.427 105.733 100.373L105.833 100.285C106.652 99.4528 107.468 98.5699 108.26 97.664C111.418 94.0719 114.202 90.2408 116.542 86.2804C117.827 84.0905 118.922 82.0526 119.894 80.0522C120.45 78.8746 120.967 77.7252 121.417 76.633C121.811 75.68 122.206 74.6408 122.605 73.5431C124.217 69.011 125.349 64.3864 125.963 59.789C126.613 54.9064 126.712 50.189 126.253 45.7755C126.024 43.4865 125.618 41.1279 125.053 38.7546C124.487 36.4198 123.794 34.2029 122.995 32.1606C122.082 29.8492 121.029 27.6514 119.869 25.6265C118.733 23.6406 117.487 21.8615 116.172 20.3406C114.674 18.5977 113.184 17.1557 111.624 15.9347C109.942 14.627 108.207 13.5142 106.461 12.6337C104.055 11.4185 101.525 10.5427 98.9433 10.0281C97.7854 9.79658 96.5923 9.63852 95.3979 9.55986C93.2875 9.42747 91.396 9.49581 89.6199 9.77048C87.5953 10.0711 85.7124 10.564 84.0214 11.2273C81.7114 12.131 79.526 13.3737 77.5525 14.8949C78.2335 14.8611 78.9111 14.891 79.5897 14.9829Z" fill="#DF0036"/>
<path opacity="0.2" d="M18.223 64.2237C17.9994 71.5613 21.1186 77.6193 25.1845 77.7439C29.2501 77.8674 32.7331 72.0115 32.9562 64.6727C33.1794 57.334 30.0607 51.2771 25.9947 51.1525C21.9302 51.0286 18.4466 56.8861 18.223 64.2237Z" fill="#FEFEFE"/>
<path opacity="0.2" d="M26.7243 84.9519C27.7306 87.0593 29.8926 88.1269 31.5509 87.3361C33.2077 86.5446 33.7353 84.1912 32.7294 82.0849C31.7221 79.978 29.5602 78.9078 27.9028 79.7008C26.2456 80.4911 25.7181 82.8445 26.7243 84.9519Z" fill="#FEFEFE"/>
</svg>
