<svg width="137" height="139" viewBox="0 0 137 139" fill="none" xmlns="http://www.w3.org/2000/svg">
<path d="M13.5844 72.6108C13.5535 74.5574 13.7341 76.6061 14.1178 78.7067C14.4764 80.6545 15.0627 82.6401 15.9107 84.7756C16.6595 86.6615 17.6564 88.5828 18.8816 90.4934C20.1539 92.48 21.6165 94.4287 23.2284 96.2886C24.6654 97.9487 26.314 99.5892 28.1224 101.166C29.9518 102.763 31.8538 104.213 33.7765 105.48C37.5005 107.934 41.7244 110.027 46.3393 111.707C50.6848 113.289 55.3066 114.424 60.0717 115.09C62.4021 115.418 64.7641 115.622 67.1001 115.699C69.2756 115.772 71.5891 115.745 74.1756 115.612C78.7718 115.376 83.4525 114.682 88.0861 113.547C91.4308 112.736 94.734 111.646 97.9529 110.299C97.974 110.286 97.9956 110.276 98.0189 110.267C98.0321 110.264 98.0454 110.259 98.0549 110.254C98.9664 109.873 99.8691 109.467 100.763 109.043C100.908 108.936 101.051 108.83 101.195 108.723C101.194 108.726 101.19 108.726 101.189 108.73C103.429 107.043 105.523 105.169 107.494 103.175C108.498 102.161 109.476 101.115 110.432 100.05C110.463 100.017 110.491 99.9822 110.522 99.9489C111.262 99.0126 111.972 98.0575 112.656 97.0873C115.409 93.1771 117.768 89.0755 119.669 84.8921C120.724 82.5654 121.596 80.4225 122.338 78.3423C122.754 77.1675 123.141 75.9701 123.49 74.7807C123.799 73.7251 124.087 72.6459 124.341 71.5808C125.467 66.8969 126.097 62.1758 126.221 57.5573C126.345 52.6396 125.94 47.9433 125.018 43.592C124.544 41.3453 123.891 39.0412 123.073 36.746C122.26 34.4761 121.336 32.3426 120.325 30.4087C119.175 28.2172 117.896 26.1409 116.52 24.2464C115.184 22.3992 113.761 20.7629 112.288 19.386C110.617 17.8222 108.982 16.5486 107.295 15.4945C105.486 14.3744 103.646 13.4566 101.816 12.7686C99.294 11.8178 96.6857 11.215 94.063 10.9789C92.8769 10.8679 91.6774 10.8399 90.4963 10.8893C88.3924 10.9808 86.5242 11.2476 84.7763 11.709C82.7878 12.23 80.973 12.9223 79.3723 13.7581C75.8172 15.6066 72.6809 18.2977 70.3024 21.542C68.1728 24.4471 66.5172 27.8939 65.3768 31.789C64.9568 33.2236 64.6046 34.7303 64.3329 36.2636C63.4309 41.3227 63.4562 46.7662 64.3954 52.4381C59.3975 49.4016 54.2677 47.3496 49.1609 46.3211C43.4184 45.1683 38.074 45.2254 33.2768 46.4933C29.3921 47.5173 25.7397 49.4546 22.7159 52.0865C21.3515 53.2723 20.0411 54.711 18.8337 56.3653C17.7621 57.8267 16.8249 59.4714 15.9782 61.393C15.4999 62.4755 15.089 63.6035 14.7564 64.7406C14.017 67.2576 13.6203 69.9055 13.5844 72.6108Z" fill="#FF0041"/>
<path d="M75.3542 17.9386C76.8609 17.9768 78.3506 18.3324 79.7469 18.8777C81.2648 19.4672 82.6965 20.2682 84.0323 21.1893C85.8165 22.4207 87.4627 23.8515 88.9712 25.4039C90.4263 26.8915 91.7805 28.4792 93.0152 30.1565C93.5767 30.9203 94.1219 31.6992 94.628 32.4982C95.3305 33.601 95.9883 34.7388 96.5938 35.9022C97.9233 38.4646 99.0262 41.145 99.9026 43.8965C101.655 49.4186 102.564 55.2046 102.693 60.9917C102.816 66.5159 102.278 72.0637 100.971 77.4351C99.7416 82.4757 97.8834 87.3721 95.3916 91.9253C92.9405 96.4068 89.9171 100.579 86.3582 104.245C82.7945 107.91 78.7406 111.097 74.2853 113.616C72.9245 114.386 71.5286 115.1 70.1049 115.75C71.3895 115.741 72.7391 115.7 74.1796 115.625C78.7839 115.392 83.4646 114.697 88.0902 113.56C91.4248 112.752 94.747 111.658 97.9644 110.314L98.0609 110.257C98.9557 109.896 99.8685 109.486 100.775 109.056L101.053 108.848L101.209 108.733C103.328 107.14 105.449 105.27 107.509 103.182C108.438 102.247 109.4 101.229 110.446 100.058L110.536 99.9593C111.262 99.0444 111.979 98.0797 112.67 97.0946C115.427 93.1864 117.787 89.0805 119.692 84.8934C120.736 82.579 121.608 80.4361 122.362 78.3435C122.789 77.1133 123.18 75.9155 123.512 74.7815C123.802 73.792 124.084 72.7165 124.364 71.5826C125.483 66.9046 126.117 62.1856 126.237 57.5491C126.363 52.625 125.959 47.9239 125.033 43.5844C124.56 41.3329 123.906 39.0309 123.091 36.7314C122.28 34.47 121.355 32.3397 120.343 30.3941C119.188 28.1931 117.908 26.12 116.538 24.2302C115.197 22.3767 113.768 20.7405 112.299 19.3683C110.623 17.795 108.989 16.5198 107.308 15.4721C105.496 14.3509 103.652 13.4294 101.822 12.7398C99.3002 11.788 96.6913 11.1867 94.0698 10.9501C92.8938 10.8432 91.6906 10.8132 90.4946 10.8622C88.3822 10.9554 86.5087 11.2249 84.772 11.6872C82.7909 12.2018 80.9712 12.8925 79.3605 13.7322C77.1599 14.8768 75.1193 16.3453 73.3192 18.0681C73.9927 17.9619 74.6696 17.9195 75.3542 17.9386Z" fill="#DF0036"/>
<path opacity="0.2" d="M19.5826 73.4368C20.142 80.7565 23.8888 86.4477 27.9449 86.1384C32.0005 85.8281 34.8398 79.6344 34.2798 72.3136C33.7198 64.9929 29.9735 59.3027 25.9174 59.612C21.8629 59.9218 19.0231 66.1172 19.5826 73.4368Z" fill="#FEFEFE"/>
<path opacity="0.2" d="M30.2443 93.1415C31.4694 95.1297 33.7329 95.9608 35.2975 94.9978C36.8605 94.0344 37.1343 91.6382 35.9098 89.651C34.6837 87.6634 32.4202 86.8296 30.8566 87.7947C29.2931 88.7571 29.0193 91.1533 30.2443 93.1415Z" fill="#FEFEFE"/>
</svg>
