<svg width="146" height="132" viewBox="0 0 146 132" fill="none" xmlns="http://www.w3.org/2000/svg">
<path d="M12.3916 62.6242C12.1535 64.5564 12.1149 66.6127 12.2726 68.7422C12.4216 70.7171 12.7931 72.7539 13.4086 74.9676C13.9523 76.9225 14.7388 78.9391 15.7535 80.9694C16.8069 83.0802 18.0536 85.1737 19.4582 87.1947C20.7101 88.9984 22.1746 90.8053 23.8047 92.566C25.4534 94.3488 27.1902 95.9932 28.967 97.4579C32.4083 100.294 36.3851 102.826 40.7948 104.988C44.947 107.024 49.4216 108.645 54.0886 109.814C56.3709 110.389 58.6976 110.844 61.0121 111.168C63.1675 111.473 65.4707 111.693 68.0566 111.836C72.6518 112.092 77.3799 111.899 82.108 111.265C85.5201 110.814 88.9205 110.083 92.2646 109.087C92.287 109.076 92.3096 109.068 92.3337 109.062C92.3472 109.06 92.3609 109.056 92.3709 109.052C93.3178 108.771 94.2586 108.463 95.1922 108.137C95.3481 108.046 95.5019 107.956 95.6563 107.865C95.655 107.868 95.6508 107.867 95.6498 107.871C98.0562 106.432 100.338 104.792 102.511 103.019C103.617 102.118 104.701 101.183 105.764 100.226C105.799 100.196 105.831 100.164 105.865 100.134C106.7 99.2822 107.509 98.4083 108.291 97.5164C111.445 93.9218 114.228 90.0949 116.564 86.1378C117.861 83.9367 118.956 81.899 119.916 79.9096C120.455 78.7859 120.967 77.6366 121.44 76.4911C121.86 75.4744 122.261 74.4319 122.628 73.4001C124.246 68.8628 125.376 64.2356 125.991 59.6566C126.638 54.7801 126.736 50.0674 126.282 45.6427C126.051 43.3583 125.647 40.9978 125.078 38.6284C124.512 36.2849 123.82 34.065 123.021 32.0344C122.111 29.7329 121.06 27.5321 119.894 25.5018C118.763 23.5228 117.522 21.7442 116.204 20.2182C114.709 18.4853 113.22 17.0448 111.654 15.8169C109.975 14.5105 108.243 13.4018 106.496 12.5228C104.09 11.3087 101.561 10.4314 98.9785 9.91724C97.8109 9.6805 96.6212 9.52489 95.4416 9.44817C93.3399 9.31501 91.4539 9.38121 89.6668 9.65376C87.6342 9.96001 85.7559 10.455 84.0753 11.1155C80.3434 12.5747 76.9383 14.9163 74.2277 17.8888C71.8008 20.5505 69.7873 23.8013 68.2384 27.5527C67.668 28.9344 67.1573 30.395 66.7238 31.8907C65.2879 36.8248 64.7331 42.24 65.0626 47.9797C60.4167 44.428 55.5347 41.8411 50.5666 40.2744C44.9795 38.5163 39.6596 38.0037 34.7545 38.7534C30.7829 39.3577 26.9448 40.8948 23.6578 43.1895C22.1749 44.2233 20.7187 45.5142 19.3418 47.0304C18.1206 48.3693 17.0136 49.9048 15.9669 51.7252C15.376 52.7506 14.8474 53.8284 14.3955 54.9237C13.3922 57.3475 12.7155 59.9381 12.3916 62.6242Z" fill="#FF0041"/>
<path d="M79.6344 14.8445C81.1285 15.043 82.5718 15.5553 83.902 16.2462C85.3485 16.9941 86.6867 17.9431 87.9168 19.0013C89.5596 20.4158 91.044 22.0137 92.3785 23.718C93.6668 25.3523 94.8442 27.0752 95.8932 28.8744C96.3701 29.6938 96.8292 30.5263 97.2473 31.3747C97.8284 32.546 98.3612 33.7475 98.8392 34.9688C99.8882 37.6582 100.699 40.4408 101.278 43.27C102.431 48.9474 102.719 54.7973 102.231 60.5652C101.764 66.0711 100.638 71.53 98.7668 76.7316C97.0073 81.6125 94.638 86.2831 91.6753 90.5449C88.7606 94.7398 85.31 98.566 81.3807 101.832C77.4468 105.096 73.0765 107.834 68.3781 109.863C66.9431 110.484 65.479 111.046 63.9941 111.54C65.2724 111.668 66.6187 111.771 68.059 111.85C72.6619 112.108 77.39 111.916 82.1104 111.279C85.5121 110.831 88.932 110.097 92.2742 109.103L92.3763 109.057C93.3045 108.793 94.2557 108.483 95.2026 108.151L95.5012 107.975L95.6685 107.877C97.9455 106.519 100.254 104.885 102.524 103.028C103.548 102.198 104.613 101.288 105.778 100.235L105.877 100.147C106.697 99.3143 107.512 98.4315 108.305 97.5256C111.462 93.9334 114.246 90.1023 116.587 86.142C117.872 83.952 118.967 81.9142 119.939 79.9138C120.495 78.7362 121.011 77.5868 121.462 76.4946C121.855 75.5416 122.251 74.5023 122.65 73.4047C124.261 68.8726 125.394 64.2479 126.008 59.6506C126.657 54.7679 126.757 50.0506 126.298 45.637C126.068 43.3481 125.663 40.9895 125.098 38.6162C124.532 36.2813 123.839 34.0645 123.04 32.0222C122.127 29.7108 121.074 27.513 119.914 25.488C118.777 23.5022 117.531 21.7231 116.217 20.2022C114.718 18.4593 113.229 17.0173 111.669 15.7963C109.987 14.4885 108.252 13.3758 106.506 12.4952C104.099 11.2801 101.569 10.4043 98.988 9.8897C97.8301 9.65815 96.6369 9.50009 95.4426 9.42143C93.3322 9.28905 91.4407 9.35738 89.6646 9.63205C87.6399 9.93265 85.7571 10.4256 84.0661 11.0889C81.7561 11.9925 79.5706 13.2352 77.5972 14.7564C78.2782 14.7226 78.9558 14.7526 79.6344 14.8445Z" fill="#DF0036"/>
<path opacity="0.2" d="M18.2676 64.0848C18.044 71.4224 21.1632 77.4804 25.2292 77.605C29.2947 77.7285 32.7777 71.8725 33.0009 64.5338C33.224 57.1951 30.1053 51.1382 26.0393 51.0136C21.9748 50.8897 18.4912 56.7472 18.2676 64.0848Z" fill="#FEFEFE"/>
<path opacity="0.2" d="M26.769 84.8133C27.7752 86.9207 29.9373 87.9882 31.5956 87.1974C33.2524 86.406 33.7799 84.0525 32.7741 81.9463C31.7668 79.8393 29.6049 78.7691 27.9475 79.5621C26.2903 80.3524 25.7627 82.7059 26.769 84.8133Z" fill="#FEFEFE"/>
</svg>
