<svg width="145" height="131" viewBox="0 0 145 131" fill="none" xmlns="http://www.w3.org/2000/svg">
<path d="M29.7643 22.3696C28.2967 23.6488 26.8948 25.1536 25.5901 26.8439C24.3821 28.4134 23.2984 30.1775 22.2783 32.2364C21.3774 34.0546 20.6162 36.0808 20.0156 38.2696C19.3901 40.5443 18.92 42.935 18.6158 45.3774C18.3431 47.5559 18.2266 49.8788 18.2641 52.278C18.3007 54.7061 18.4953 57.0899 18.8397 59.3667C19.507 63.776 20.7765 68.3161 22.615 72.8701C24.3461 77.1584 26.5941 81.3531 29.2868 85.3405C30.6021 87.2919 32.0301 89.1845 33.536 90.9719C34.9367 92.6381 36.5045 94.3397 38.3334 96.1734C41.5834 99.432 45.231 102.446 49.1738 105.132C52.0145 107.075 55.034 108.801 58.1883 110.293C58.2125 110.3 58.2342 110.309 58.2567 110.32C58.2677 110.328 58.2806 110.335 58.2906 110.338C59.1835 110.761 60.0891 111.161 61.0018 111.541C61.1785 111.578 61.353 111.613 61.529 111.649C61.526 111.65 61.5235 111.646 61.52 111.649C64.272 112.185 67.0656 112.488 69.8669 112.619C71.2921 112.687 72.7238 112.715 74.1542 112.713C74.1996 112.713 74.2448 112.711 74.2903 112.712C75.4808 112.635 76.6663 112.525 77.8444 112.384C82.5926 111.814 87.2198 110.824 91.6007 109.439C94.036 108.666 96.212 107.881 98.2548 107.041C99.4064 106.565 100.555 106.051 101.673 105.515C102.664 105.038 103.659 104.53 104.621 104.007C108.855 101.711 112.786 99.0205 116.302 96.0232C120.04 92.8255 123.26 89.3829 125.877 85.7867C127.231 83.9317 128.507 81.9051 129.665 79.7618C130.809 77.6392 131.776 75.5248 132.537 73.4794C133.397 71.1591 134.085 68.8189 134.572 66.5289C135.052 64.3005 135.316 62.1479 135.354 60.132C135.399 57.8441 135.252 55.7769 134.907 53.8174C134.53 51.724 133.981 49.7419 133.268 47.9211C132.288 45.4108 130.991 43.0687 129.412 40.9613C128.701 40.0054 127.919 39.0951 127.093 38.2503C125.617 36.7476 124.169 35.5374 122.657 34.5468C120.939 33.4174 119.211 32.5315 117.519 31.9008C113.767 30.4948 109.668 29.9638 105.666 30.3661C102.082 30.7265 98.4121 31.8016 94.754 33.5596C93.4067 34.2071 92.0511 34.9532 90.7297 35.777C86.3658 38.4907 82.3366 42.151 78.7489 46.6433C77.6626 40.8971 75.7563 35.7113 73.1046 31.2274C70.12 26.1877 66.5025 22.2535 62.3509 19.5358C58.9911 17.3334 55.1078 15.9144 51.1288 15.4274C49.3346 15.2065 47.3886 15.1949 45.3512 15.404C43.5481 15.5851 41.6987 15.9887 39.704 16.6447C38.5793 17.0134 37.4661 17.4626 36.3983 17.9761C34.0328 19.1102 31.7992 20.5866 29.7643 22.3696Z" fill="#FF0041"/>
<path d="M111.723 31.7105C112.703 32.856 113.435 34.2011 113.964 35.6038C114.541 37.1264 114.903 38.7264 115.112 40.3355C115.391 42.4855 115.428 44.6662 115.283 46.826C115.151 48.9027 114.877 50.9714 114.456 53.0112C114.264 53.9395 114.05 54.8658 113.794 55.7765C113.445 57.0364 113.039 58.2865 112.579 59.5148C111.564 62.2171 110.309 64.8299 108.85 67.322C105.918 72.3183 102.225 76.865 98.0099 80.8319C93.986 84.6187 89.5022 87.9299 84.6356 90.552C80.0665 93.0099 75.1839 94.9042 70.1325 96.0979C65.1617 97.2738 60.0381 97.8174 54.9322 97.6245C49.8243 97.427 44.7433 96.546 39.8906 94.9193C38.4081 94.4228 36.9433 93.8632 35.5077 93.2397C36.3739 94.1884 37.3073 95.164 38.3266 96.1847C41.58 99.451 45.2277 102.465 49.167 105.143C51.9981 107.081 55.0337 108.819 58.1854 110.311L58.2919 110.345C59.1592 110.768 60.0743 111.173 61.0004 111.558L61.3405 111.626L61.5303 111.665C64.1323 112.175 66.9414 112.5 69.8712 112.635C71.1882 112.7 72.5881 112.734 74.1585 112.728L74.2915 112.729C75.4574 112.657 76.6539 112.544 77.8487 112.399C82.5979 111.834 87.2285 110.842 91.6154 109.457C94.0341 108.685 96.2101 107.899 98.2696 107.059C99.4701 106.554 100.622 106.044 101.687 105.531C102.616 105.085 103.605 104.576 104.634 104.025C108.86 101.728 112.792 99.0418 116.319 96.0295C120.063 92.829 123.287 89.3844 125.893 85.7925C127.251 83.9355 128.524 81.9092 129.688 79.7653C130.827 77.6496 131.791 75.5366 132.56 73.4829C133.424 71.1526 134.108 68.8138 134.597 66.5317C135.077 64.2947 135.338 62.1382 135.375 60.1283C135.424 57.8304 135.278 55.7625 134.932 53.8117C134.553 51.7151 134.005 49.7282 133.293 47.9067C132.314 45.3953 131.016 43.0539 129.438 40.9469C128.731 40.0013 127.948 39.0869 127.112 38.2307C125.629 36.7229 124.176 35.5106 122.67 34.5289C120.962 33.4006 119.232 32.5101 117.53 31.8746C115.207 31.0045 112.751 30.4701 110.266 30.2845C110.795 30.7141 111.28 31.1889 111.723 31.7105Z" fill="#DF0036"/>
<path opacity="0.2" d="M33.1626 27.3806C28.096 32.6929 26.3722 39.2851 29.3154 42.0932C32.2591 44.9001 38.7622 42.8673 43.8292 37.5538C48.8962 32.2404 50.6196 25.6493 47.6764 22.8413C44.7338 20.0348 38.2291 22.0683 33.1626 27.3806Z" fill="#FEFEFE"/>
<path opacity="0.2" d="M25.6479 48.4866C24.9896 50.7272 25.886 52.9656 27.6484 53.4845C29.4102 54.0018 31.3744 52.6023 32.0324 50.3628C32.6896 48.1218 31.7951 45.8816 30.0319 45.365C28.2706 44.8466 26.3063 46.246 25.6479 48.4866Z" fill="#FEFEFE"/>
</svg>
