<svg width="82" height="92" viewBox="0 0 82 92" fill="none" xmlns="http://www.w3.org/2000/svg">
<g filter="url(#filter0_d_40_1055)">
<rect x="0.26123" y="0.173912" width="81.6522" height="81.6522" rx="23.8152" fill="#4FB0D9" shape-rendering="crispEdges"/>
<rect x="2.12166" y="2.03434" width="77.9313" height="77.9313" rx="21.9548" stroke="black" stroke-width="3.72086" shape-rendering="crispEdges"/>
<path d="M30.1334 23.2122C34.1388 19.2067 39.1932 18.2054 41.2198 18.2054V31.3827C39.6427 31.3827 38.8938 32.1345 38.7164 32.5104C31.2778 29.3633 27.5108 23.3314 26.5571 20.7088C27.4154 21.8532 29.2989 22.8545 30.1334 23.2122Z" fill="white"/>
<path d="M52.0419 23.2122C48.0365 19.2067 42.9821 18.2054 40.9555 18.2054V31.3827C42.5326 31.3827 43.2815 32.1345 43.4589 32.5104C50.8975 29.3633 54.6645 23.3314 55.6182 20.7088C54.7599 21.8532 52.8764 22.8545 52.0419 23.2122Z" fill="white"/>
<path d="M32.4584 31.4941C33.5865 32.3446 36.1256 34.1456 37.257 34.545C35.1027 35.2199 31.127 35.5546 32.4584 31.4941Z" fill="white"/>
<path d="M30.434 29.719C29.724 29.1865 28.4925 27.4817 27.9656 26.6959C25.9171 28.7443 25.6945 32.7821 25.8393 34.545C25.8393 47.8527 23.352 54.0695 22.1084 55.5145L27.3771 51.489L30.9445 57.38L35.0933 53.7727L41.1046 63.7946V60.4923L39.1256 53.7727C37.5055 46.6297 32.5081 43.4511 30.2118 42.7547L35.0933 39.9811L35.2597 37.6791C28.6697 37.6791 29.2968 32.3724 30.434 29.719Z" fill="white"/>
<path d="M49.7154 31.4941C48.5873 32.3446 46.0482 34.1456 44.9168 34.545C47.0711 35.2199 51.0468 35.5546 49.7154 31.4941Z" fill="white"/>
<path d="M51.7398 29.719C52.4498 29.1865 53.6813 27.4817 54.2083 26.6959C56.2567 28.7443 56.4793 32.7821 56.3345 34.545C56.3345 47.8527 58.8218 54.0695 60.0654 55.5145L54.7967 51.489L51.2294 57.38L47.0806 53.7727L41.0692 63.7946V60.4923L43.0483 53.7727C44.6683 46.6297 49.6658 43.4511 51.962 42.7547L47.0806 39.9811L46.9141 37.6791C53.5041 37.6791 52.8771 32.3724 51.7398 29.719Z" fill="white"/>
<path d="M37.6613 38.1039C37.6613 35.4706 39.9941 34.1744 41.1605 33.8554V52.2271C41.1605 47.4199 37.0779 43.7685 35.0366 42.5437L37.6613 40.9744V38.1039Z" fill="white"/>
<path d="M44.5252 38.0997C44.5252 35.469 42.2821 34.174 41.1606 33.8554V52.2092C41.1606 47.4066 45.0861 43.7588 47.0488 42.5352L44.5252 40.9675V38.0997Z" fill="white"/>
</g>
<defs>
<filter id="filter0_d_40_1055" x="0.26123" y="0.173912" width="81.6523" height="91.4194" filterUnits="userSpaceOnUse" color-interpolation-filters="sRGB">
<feFlood flood-opacity="0" result="BackgroundImageFix"/>
<feColorMatrix in="SourceAlpha" type="matrix" values="0 0 0 0 0 0 0 0 0 0 0 0 0 0 0 0 0 0 127 0" result="hardAlpha"/>
<feOffset dy="9.76725"/>
<feComposite in2="hardAlpha" operator="out"/>
<feColorMatrix type="matrix" values="0 0 0 0 0.312118 0 0 0 0 0.615103 0 0 0 0 0.741667 0 0 0 1 0"/>
<feBlend mode="normal" in2="BackgroundImageFix" result="effect1_dropShadow_40_1055"/>
<feBlend mode="normal" in="SourceGraphic" in2="effect1_dropShadow_40_1055" result="shape"/>
</filter>
</defs>
</svg>
