<svg width="56" height="68" viewBox="0 0 56 68" fill="none" xmlns="http://www.w3.org/2000/svg">
<path d="M11.7942 7.85812C17.6807 1.97158 25.109 0.499947 28.0873 0.499947V19.8659C25.7696 19.8659 24.6688 20.9708 24.4082 21.5233C13.476 16.8982 7.93989 8.03331 6.53833 4.17903C7.79973 5.8609 10.5678 7.33253 11.7942 7.85812Z" fill="white"/>
<path d="M43.9921 7.85812C38.1055 1.97158 30.6773 0.499947 27.699 0.499947V19.8659C30.0167 19.8659 31.1174 20.9708 31.3781 21.5233C42.3102 16.8982 47.8464 8.03331 49.2479 4.17903C47.9865 5.8609 45.2184 7.33253 43.9921 7.85812Z" fill="white"/>
<path d="M15.2108 20.0296C16.8687 21.2797 20.6002 23.9264 22.2631 24.5134C19.097 25.5053 13.254 25.9971 15.2108 20.0296Z" fill="white"/>
<path d="M12.2356 17.4209C11.1921 16.6383 9.38231 14.1328 8.60784 12.9779C5.59737 15.9884 5.27024 21.9226 5.48299 24.5134C5.48299 44.0711 1.82758 53.2076 -0.00012207 55.3312L7.74309 49.4151L12.9858 58.0728L19.0831 52.7714L27.9176 67.5V62.6468L25.0091 52.7714C22.6282 42.2737 15.2837 37.6023 11.9091 36.5788L19.0831 32.5026L19.3277 29.1194C9.64274 29.1194 10.5642 21.3204 12.2356 17.4209Z" fill="white"/>
<path d="M40.5729 20.0296C38.915 21.2797 35.1835 23.9264 33.5206 24.5134C36.6867 25.5053 42.5296 25.9971 40.5729 20.0296Z" fill="white"/>
<path d="M43.5481 17.4209C44.5916 16.6383 46.4014 14.1328 47.1758 12.9779C50.1863 15.9884 50.5134 21.9226 50.3007 24.5134C50.3007 44.0711 53.9561 53.2076 55.7838 55.3312L48.0406 49.4151L42.7979 58.0728L36.7006 52.7714L27.866 67.5V62.6468L30.7746 52.7714C33.1555 42.2737 40.5 37.6023 43.8746 36.5788L36.7006 32.5026L36.456 29.1194C46.1409 29.1194 45.2194 21.3204 43.5481 17.4209Z" fill="white"/>
<path d="M22.8573 29.7437C22.8573 25.8737 26.2858 23.9687 28 23.4999V50.4999C28 43.4349 22 38.0687 19 36.2687L22.8573 33.9624V29.7437Z" fill="white"/>
<path d="M32.9448 29.7376C32.9448 25.8714 29.6483 23.9682 28 23.4999V50.4735C28 43.4154 33.7691 38.0544 36.6537 36.2562L32.9448 33.9522V29.7376Z" fill="white"/>
</svg>
