<svg width="83" height="92" viewBox="0 0 83 92" fill="none" xmlns="http://www.w3.org/2000/svg">
<g filter="url(#filter0_d_40_1036)">
<rect x="0.869629" y="0.173912" width="81.6522" height="81.6522" rx="23.8152" fill="#4FB0D9" shape-rendering="crispEdges"/>
<rect x="2.73006" y="2.03434" width="77.9313" height="77.9313" rx="21.9548" stroke="black" stroke-width="3.72086" shape-rendering="crispEdges"/>
<path fill-rule="evenodd" clip-rule="evenodd" d="M59.3914 23.2012C59.9403 22.9826 60.541 22.9072 61.1311 22.9829C61.7212 23.0585 62.2791 23.2825 62.7467 23.6315C63.2143 23.9804 63.5745 24.4416 63.7898 24.9671C64.0052 25.4925 64.0678 26.063 63.9711 26.6191L58.9339 55.5364C58.4453 58.3257 55.2115 59.9254 52.5086 58.5359C50.2476 57.3735 46.8895 55.5826 43.8689 53.7139C42.3586 52.7785 37.7323 49.7832 38.3009 47.6518C38.7895 45.8293 46.563 38.981 51.005 34.9094C52.7484 33.3098 51.9533 32.387 49.8945 33.8584C44.7817 37.5117 36.5729 43.0673 33.8589 44.6312C31.4646 46.0101 30.2164 46.2455 28.7239 46.0101C26.001 45.5813 23.4757 44.917 21.4146 44.1078C18.6295 43.0147 18.765 39.3909 21.4124 38.3357L59.3914 23.2012Z" fill="white"/>
</g>
<defs>
<filter id="filter0_d_40_1036" x="0.869629" y="0.173912" width="81.6521" height="91.4194" filterUnits="userSpaceOnUse" color-interpolation-filters="sRGB">
<feFlood flood-opacity="0" result="BackgroundImageFix"/>
<feColorMatrix in="SourceAlpha" type="matrix" values="0 0 0 0 0 0 0 0 0 0 0 0 0 0 0 0 0 0 127 0" result="hardAlpha"/>
<feOffset dy="9.76725"/>
<feComposite in2="hardAlpha" operator="out"/>
<feColorMatrix type="matrix" values="0 0 0 0 0.312118 0 0 0 0 0.615103 0 0 0 0 0.741667 0 0 0 1 0"/>
<feBlend mode="normal" in2="BackgroundImageFix" result="effect1_dropShadow_40_1036"/>
<feBlend mode="normal" in="SourceGraphic" in2="effect1_dropShadow_40_1036" result="shape"/>
</filter>
</defs>
</svg>
