<svg width="67" height="54" viewBox="0 0 67 54" fill="none" xmlns="http://www.w3.org/2000/svg">
<path fill-rule="evenodd" clip-rule="evenodd" d="M59.6004 0.842046C60.407 0.52074 61.2899 0.409924 62.1571 0.52113C63.0244 0.632337 63.8442 0.961501 64.5314 1.47436C65.2186 1.98722 65.748 2.66503 66.0645 3.43724C66.381 4.20944 66.473 5.04782 66.331 5.8651L58.928 48.3634C58.2099 52.4627 53.4574 54.8136 49.485 52.7717C46.1622 51.0633 41.2269 48.4313 36.7877 45.685C34.5681 44.3103 27.7691 39.9082 28.6047 36.7757C29.3228 34.0974 40.7471 24.0327 47.2752 18.0489C49.8375 15.6981 48.669 14.3419 45.6432 16.5043C38.1293 21.8734 26.0652 30.0382 22.0765 32.3365C18.5578 34.3631 16.7234 34.7091 14.5299 34.3631C10.5282 33.7329 6.81689 32.7567 3.78781 31.5673C-0.305351 29.9609 -0.106242 24.6351 3.78455 23.0844L59.6004 0.842046Z" fill="white"/>
</svg>
