<svg width="68" height="68" viewBox="0 0 68 68" fill="none" xmlns="http://www.w3.org/2000/svg">
<g filter="url(#filter0_b_2_29)">
<rect x="2" y="2" width="64" height="64" rx="15.5676" fill="#151515" fill-opacity="0.2"/>
<rect x="2" y="2" width="64" height="64" rx="15.5676" stroke="#0E3058" stroke-width="3"/>
<path d="M24.5161 19.1522C27.9842 15.8088 32.1317 14.973 33.8864 14.973C35.641 14.973 40.0174 15.8088 43.4854 19.1522C44.2079 18.8537 45.8387 18.0178 46.5818 17.0626C45.7561 19.2517 42.4945 24.2867 36.0539 26.9136C35.9003 26.5998 35.2518 25.9723 33.8864 25.9723C32.5209 25.9723 32.1012 26.5998 31.9476 26.9136C25.507 24.2867 22.2454 19.2517 21.4197 17.0626C22.1628 18.0178 23.7936 18.8537 24.5161 19.1522Z" fill="white"/>
<path d="M26.5291 26.0653C27.5058 26.7752 29.7042 28.2785 30.6839 28.6119C28.8186 29.1752 25.3763 29.4546 26.5291 26.0653Z" fill="white"/>
<path d="M22.639 22.0601C23.0952 22.716 24.1615 24.1391 24.7763 24.5836C23.7916 26.7984 23.2487 31.228 28.9545 31.228L28.8104 33.1495L24.5839 35.4647C26.572 36.046 30.899 38.6992 32.3017 44.6616L33.9848 50.2705L35.6984 44.6616C37.1011 38.6992 41.4281 36.046 43.4162 35.4647L39.1897 33.1495L39.0456 31.228C44.7514 31.228 44.2085 26.7984 43.2239 24.5836C43.8386 24.1391 44.9049 22.716 45.3611 22.0601C47.1347 23.7699 47.3275 27.1404 47.2021 28.6119C47.2021 39.7201 49.3557 44.9094 50.4325 46.1155L45.8706 42.7553L42.7819 47.6726L39.1897 44.6616L33.9848 53.027L28.8104 44.6616L25.2182 47.6726L22.1295 42.7553L17.5676 46.1155C18.6444 44.9094 20.798 39.7201 20.798 28.6119C20.6726 27.1404 20.8654 23.7699 22.639 22.0601Z" fill="white"/>
<path d="M41.471 26.0653C40.4943 26.7752 38.2959 28.2785 37.3162 28.6119C39.1815 29.1752 42.6238 29.4546 41.471 26.0653Z" fill="white"/>
<path d="M31.2208 31.8041C31.2208 29.6082 33.1571 28.5273 34.1282 28.2613C35.0993 28.5273 37.0414 29.6082 37.0414 31.8041V34.1979L39.2265 35.5065C37.5271 36.5279 34.134 39.5727 34.134 43.5815C34.134 39.5727 30.7352 36.5279 29.0357 35.5065L31.2208 34.1979V31.8041Z" fill="white"/>
</g>
<defs>
<filter id="filter0_b_2_29" x="-39.5" y="-39.5" width="147" height="147" filterUnits="userSpaceOnUse" color-interpolation-filters="sRGB">
<feFlood flood-opacity="0" result="BackgroundImageFix"/>
<feGaussianBlur in="BackgroundImageFix" stdDeviation="20"/>
<feComposite in2="SourceAlpha" operator="in" result="effect1_backgroundBlur_2_29"/>
<feBlend mode="normal" in="SourceGraphic" in2="effect1_backgroundBlur_2_29" result="shape"/>
</filter>
</defs>
</svg>
