<svg width="68" height="68" viewBox="0 0 68 68" fill="none" xmlns="http://www.w3.org/2000/svg">
<g filter="url(#filter0_b_2_31)">
<rect x="2" y="2" width="64" height="64" rx="15.5676" fill="#151515" fill-opacity="0.2"/>
<rect x="2" y="2" width="64" height="64" rx="15.5676" stroke="#0E3058" stroke-width="3"/>
<path fill-rule="evenodd" clip-rule="evenodd" d="M29.2353 14.8236C26.6879 16.1655 24.6037 17.3011 24.6041 17.3473C24.6053 17.4665 30.7181 20.597 30.9351 20.5894C31.0338 20.5861 31.7497 20.2528 32.526 19.8489L33.9377 19.1146L37.021 20.7175L39.5457 19.5703C43.35 17.8416 43.7451 17.6522 43.6832 17.5886C43.601 17.5041 42.2365 16.7628 38.5345 14.792C36.7454 13.8394 35.0089 12.9055 34.6755 12.7165C34.3422 12.5275 34.0239 12.3755 33.9684 12.3784C33.9128 12.3814 31.7828 13.4817 29.2353 14.8236ZM18.0622 20.6744L15.4103 22.0596V28.1389C15.4103 31.4826 15.4451 34.2182 15.4878 34.2182C15.5304 34.2182 16.8351 33.6462 18.3872 32.9472L21.2091 31.6762V25.2683L22.588 26.028C23.6506 26.6129 24.7139 27.1966 25.7778 27.7791L27.5885 28.7705L28.3942 28.4021C28.8995 28.1706 29.4038 27.9369 29.9071 27.701C30.296 27.5179 31.2507 27.083 32.0286 26.7345C32.8065 26.3859 33.5265 26.0353 33.6286 25.9554C33.7643 25.8493 32.1104 24.9251 27.5114 22.5368C24.0448 20.7366 21.0972 19.2695 20.9613 19.2765C20.8253 19.2835 19.5207 19.9125 18.0622 20.6744ZM44.1611 21.0634C42.355 21.8879 40.876 22.5955 40.8743 22.6359C40.8728 22.6762 41.8571 23.268 43.062 23.951C44.2668 24.634 45.2525 25.2294 45.2525 25.2742C45.2525 25.319 44.1864 25.8413 42.8835 26.4353C41.5805 27.0291 38.287 28.5331 35.5644 29.7777L26.442 33.9475C24.1473 34.9965 22.0789 35.9421 21.8455 36.0489C17.1584 38.1946 15.8701 38.79 15.6932 38.8922C15.5153 38.9951 15.475 39.5928 15.4433 42.5931L15.4055 46.1715L20.1483 48.6152L23.4366 47.1145C25.2452 46.2892 26.7249 45.5706 26.7249 45.5177C26.7249 45.4649 26.3907 45.2447 25.9824 45.0282C25.5739 44.8116 24.7307 44.3322 24.1084 43.9626C23.4861 43.593 22.8657 43.2539 22.7294 43.2089C22.5932 43.164 22.4838 43.0856 22.486 43.0344C22.4883 42.9834 23.9363 42.2878 25.7036 41.4887C29.1363 39.9366 31.7633 38.7404 37.403 36.1614C39.9249 35.0083 42.4471 33.856 44.9696 32.7044C47.1866 31.6925 49.7642 30.5107 50.6977 30.0781L52.3949 29.2917L52.4705 22.0536L50.0653 20.8052C48.7424 20.1187 47.6116 19.5586 47.5523 19.5606C47.4931 19.5625 45.967 20.2387 44.1611 21.0634ZM51.7505 34.1198C51.396 34.2949 50.6959 34.6227 50.1947 34.8482C49.6935 35.0737 48.7424 35.5076 48.0812 35.8127L46.879 36.3672L46.8516 39.5445C46.8364 41.2919 46.7728 42.7139 46.7101 42.7047C46.5678 42.6833 44.3147 41.5147 42.0498 40.2875C40.4151 39.4018 40.3124 39.3666 39.9283 39.559C39.7062 39.6702 38.3789 40.2722 36.9788 40.8969C35.5785 41.5215 34.3873 42.0734 34.3313 42.1233C34.2754 42.1732 37.0934 43.7178 40.5938 45.5558L46.9578 48.8977L49.6764 47.4756C51.1715 46.6935 52.4428 45.9801 52.5013 45.8904C52.6331 45.6886 52.6218 33.7738 52.4899 33.7899C52.4377 33.7963 52.1049 33.9447 51.7505 34.1198ZM36.6959 48.1048C36.2243 48.3098 35.7529 48.5152 35.2816 48.7208C33.8583 49.3434 34.1372 49.3641 32.444 48.5117C31.3162 47.944 30.8301 47.7688 30.6191 47.8538C30.4608 47.9176 29.0987 48.5373 27.5919 49.2309C26.0852 49.9246 24.8001 50.4921 24.7362 50.4921C24.104 50.4921 25.155 51.1271 29.2105 53.1958L33.9665 55.6216L35.9676 54.6226C37.0683 54.0731 39.2882 52.9728 40.9009 52.1774C42.5135 51.3819 43.813 50.7104 43.7887 50.6851C43.7642 50.6598 42.413 49.9582 40.7858 49.1258L37.8273 47.6126L36.6959 48.1048Z" fill="white"/>
</g>
<defs>
<filter id="filter0_b_2_31" x="-39.5" y="-39.5" width="147" height="147" filterUnits="userSpaceOnUse" color-interpolation-filters="sRGB">
<feFlood flood-opacity="0" result="BackgroundImageFix"/>
<feGaussianBlur in="BackgroundImageFix" stdDeviation="20"/>
<feComposite in2="SourceAlpha" operator="in" result="effect1_backgroundBlur_2_31"/>
<feBlend mode="normal" in="SourceGraphic" in2="effect1_backgroundBlur_2_31" result="shape"/>
</filter>
</defs>
</svg>
